<?xml version="1.0" encoding="utf-8" standalone="no"?>
<!DOCTYPE svg PUBLIC "-//W3C//DTD SVG 1.1//EN"
  "http://www.w3.org/Graphics/SVG/1.1/DTD/svg11.dtd">
<svg xmlns:xlink="http://www.w3.org/1999/xlink" width="144pt" height="129.6pt" viewBox="0 0 144 129.6" xmlns="http://www.w3.org/2000/svg" version="1.1">
 <metadata>
  <rdf:RDF xmlns:dc="http://purl.org/dc/elements/1.1/" xmlns:cc="http://creativecommons.org/ns#" xmlns:rdf="http://www.w3.org/1999/02/22-rdf-syntax-ns#">
   <cc:Work>
    <dc:type rdf:resource="http://purl.org/dc/dcmitype/StillImage"/>
    <dc:date>2025-04-14T00:19:47.929477</dc:date>
    <dc:format>image/svg+xml</dc:format>
    <dc:creator>
     <cc:Agent>
      <dc:title>Matplotlib v3.7.1, https://matplotlib.org/</dc:title>
     </cc:Agent>
    </dc:creator>
   </cc:Work>
  </rdf:RDF>
 </metadata>
 <defs>
  <style type="text/css">*{stroke-linejoin: round; stroke-linecap: butt}</style>
 </defs>
 <g id="figure_1">
  <g id="patch_1">
   <path d="M 0 129.6 
L 144 129.6 
L 144 0 
L 0 0 
L 0 129.6 
z
" style="fill: none"/>
  </g>
  <g id="axes_1">
   <g id="patch_2">
    <path d="M 18 115.344 
L 129.6 115.344 
L 129.6 15.552 
L 18 15.552 
L 18 115.344 
z
" style="fill: none"/>
   </g>
   <g id="PolyCollection_1">
    <path d="M 34.86653 53.247851 
L 34.61347 53.247851 
L 34.579442 52.788719 
L 34.539006 52.329587 
L 34.491769 51.870454 
L 34.437545 51.411322 
L 34.376417 50.95219 
L 34.308783 50.493057 
L 34.235402 50.033925 
L 34.15741 49.574793 
L 34.076324 49.11566 
L 33.994005 48.656528 
L 33.912609 48.197395 
L 33.834495 47.738263 
L 33.762122 47.279131 
L 33.697917 46.819998 
L 33.644148 46.360866 
L 33.602784 45.901734 
L 33.575381 45.442601 
L 33.562982 44.983469 
L 33.566052 44.524337 
L 33.584447 44.065204 
L 33.61743 43.606072 
L 33.663711 43.14694 
L 33.721537 42.687807 
L 33.788793 42.228675 
L 33.863133 41.769543 
L 33.942106 41.31041 
L 34.023282 40.851278 
L 34.104368 40.392146 
L 34.18329 39.933013 
L 34.258266 39.473881 
L 34.327832 39.014748 
L 34.390854 38.555616 
L 34.446503 38.096484 
L 34.494216 37.637351 
L 34.533636 37.178219 
L 34.564544 36.719087 
L 34.586791 36.259954 
L 34.600225 35.800822 
L 34.60463 35.34169 
L 34.599679 34.882557 
L 34.584901 34.423425 
L 34.559661 33.964293 
L 34.523162 33.50516 
L 34.474469 33.046028 
L 34.412541 32.586896 
L 34.336283 32.127763 
L 34.244603 31.668631 
L 34.136484 31.209499 
L 34.01104 30.750366 
L 33.867578 30.291234 
L 33.705639 29.832101 
L 33.525016 29.372969 
L 33.325757 28.913837 
L 33.108126 28.454704 
L 32.872546 27.995572 
L 32.619509 27.53644 
L 32.349471 27.077307 
L 32.062736 26.618175 
L 31.759347 26.159043 
L 31.439002 25.69991 
L 31.101012 25.240778 
L 30.744313 24.781646 
L 30.367555 24.322513 
L 29.969281 23.863381 
L 29.548179 23.404249 
L 29.103417 22.945116 
L 28.635035 22.485984 
L 28.144359 22.026852 
L 27.634404 21.567719 
L 27.110219 21.108587 
L 26.579115 20.649454 
L 26.050747 20.190322 
L 25.537001 19.73119 
L 25.051672 19.272057 
L 24.609928 18.812925 
L 24.227578 18.353793 
L 23.920202 17.89466 
L 23.70218 17.435528 
L 23.585727 16.976396 
L 23.58 16.517263 
L 23.690359 16.058131 
L 23.917872 15.598999 
L 24.259088 15.139866 
L 24.706131 14.680734 
L 25.247087 14.221602 
L 25.866672 13.762469 
L 26.547102 13.303337 
L 27.269109 12.844205 
L 28.013004 12.385072 
L 28.759701 11.92594 
L 29.491633 11.466807 
L 30.193489 11.007675 
L 30.852738 10.548543 
L 31.459919 10.08941 
L 32.008706 9.630278 
L 32.495773 9.171146 
L 32.920492 8.712013 
L 33.284515 8.252881 
L 33.591298 7.793749 
L 35.888702 7.793749 
L 35.888702 7.793749 
L 36.195485 8.252881 
L 36.559508 8.712013 
L 36.984227 9.171146 
L 37.471294 9.630278 
L 38.020081 10.08941 
L 38.627262 10.548543 
L 39.286511 11.007675 
L 39.988367 11.466807 
L 40.720299 11.92594 
L 41.466996 12.385072 
L 42.210891 12.844205 
L 42.932898 13.303337 
L 43.613328 13.762469 
L 44.232913 14.221602 
L 44.773869 14.680734 
L 45.220912 15.139866 
L 45.562128 15.598999 
L 45.789641 16.058131 
L 45.9 16.517263 
L 45.894273 16.976396 
L 45.77782 17.435528 
L 45.559798 17.89466 
L 45.252422 18.353793 
L 44.870072 18.812925 
L 44.428328 19.272057 
L 43.942999 19.73119 
L 43.429253 20.190322 
L 42.900885 20.649454 
L 42.369781 21.108587 
L 41.845596 21.567719 
L 41.335641 22.026852 
L 40.844965 22.485984 
L 40.376583 22.945116 
L 39.931821 23.404249 
L 39.510719 23.863381 
L 39.112445 24.322513 
L 38.735687 24.781646 
L 38.378988 25.240778 
L 38.040998 25.69991 
L 37.720653 26.159043 
L 37.417264 26.618175 
L 37.130529 27.077307 
L 36.860491 27.53644 
L 36.607454 27.995572 
L 36.371874 28.454704 
L 36.154243 28.913837 
L 35.954984 29.372969 
L 35.774361 29.832101 
L 35.612422 30.291234 
L 35.46896 30.750366 
L 35.343516 31.209499 
L 35.235397 31.668631 
L 35.143717 32.127763 
L 35.067459 32.586896 
L 35.005531 33.046028 
L 34.956838 33.50516 
L 34.920339 33.964293 
L 34.895099 34.423425 
L 34.880321 34.882557 
L 34.87537 35.34169 
L 34.879775 35.800822 
L 34.893209 36.259954 
L 34.915456 36.719087 
L 34.946364 37.178219 
L 34.985784 37.637351 
L 35.033497 38.096484 
L 35.089146 38.555616 
L 35.152168 39.014748 
L 35.221734 39.473881 
L 35.29671 39.933013 
L 35.375632 40.392146 
L 35.456718 40.851278 
L 35.537894 41.31041 
L 35.616867 41.769543 
L 35.691207 42.228675 
L 35.758463 42.687807 
L 35.816289 43.14694 
L 35.86257 43.606072 
L 35.895553 44.065204 
L 35.913948 44.524337 
L 35.917018 44.983469 
L 35.904619 45.442601 
L 35.877216 45.901734 
L 35.835852 46.360866 
L 35.782083 46.819998 
L 35.717878 47.279131 
L 35.645505 47.738263 
L 35.567391 48.197395 
L 35.485995 48.656528 
L 35.403676 49.11566 
L 35.32259 49.574793 
L 35.244598 50.033925 
L 35.171217 50.493057 
L 35.103583 50.95219 
L 35.042455 51.411322 
L 34.988231 51.870454 
L 34.940994 52.329587 
L 34.900558 52.788719 
L 34.86653 53.247851 
z
" clip-path="url(#p690395af0b)" style="fill: #20415a; fill-opacity: 0.35"/>
   </g>
   <g id="PolyCollection_2">
    <path d="M 58.158466 151.922637 
L 55.961534 151.922637 
L 55.726423 150.175675 
L 55.455009 148.428712 
L 55.145035 146.68175 
L 54.794865 144.934787 
L 54.403656 143.187825 
L 53.971529 141.440863 
L 53.499712 139.6939 
L 52.990675 137.946938 
L 52.448209 136.199976 
L 51.877472 134.453013 
L 51.284974 132.706051 
L 50.678506 130.959089 
L 50.066998 129.212126 
L 49.460329 127.465164 
L 48.869062 125.718201 
L 48.304151 123.971239 
L 47.776591 122.224277 
L 47.297067 120.477314 
L 46.875581 118.730352 
L 46.521102 116.98339 
L 46.241248 115.236427 
L 46.04201 113.489465 
L 45.927537 111.742503 
L 45.9 109.99554 
L 45.959525 108.248578 
L 46.10421 106.501616 
L 46.330222 104.754653 
L 46.631957 103.007691 
L 47.002269 101.260728 
L 47.432745 99.513766 
L 47.914008 97.766804 
L 48.436043 96.019841 
L 48.988522 94.272879 
L 49.561117 92.525917 
L 50.143788 90.778954 
L 50.727032 89.031992 
L 51.302093 87.28503 
L 51.861118 85.538067 
L 52.39727 83.791105 
L 52.904786 82.044142 
L 53.378991 80.29718 
L 53.816273 78.550218 
L 54.21402 76.803255 
L 54.57054 75.056293 
L 54.88495 73.309331 
L 55.157067 71.562368 
L 55.387288 69.815406 
L 55.576482 68.068444 
L 55.725884 66.321481 
L 55.837011 64.574519 
L 55.911589 62.827556 
L 55.951504 61.080594 
L 55.958767 59.333632 
L 55.935503 57.586669 
L 55.883948 55.839707 
L 55.806464 54.092745 
L 55.705557 52.345782 
L 55.583901 50.59882 
L 55.444361 48.851858 
L 55.290006 47.104895 
L 55.124117 45.357933 
L 54.950175 43.61097 
L 54.771841 41.864008 
L 54.592916 40.117046 
L 54.417281 38.370083 
L 54.248824 36.623121 
L 54.091357 34.876159 
L 53.948521 33.129196 
L 53.823689 31.382234 
L 53.719861 29.635272 
L 53.639582 27.888309 
L 53.584851 26.141347 
L 53.557066 24.394384 
L 53.556969 22.647422 
L 53.584631 20.90046 
L 53.639451 19.153497 
L 53.720187 17.406535 
L 53.825 15.659573 
L 53.951532 13.91261 
L 54.096995 12.165648 
L 54.258271 10.418686 
L 54.432027 8.671723 
L 54.614824 6.924761 
L 54.803237 5.177799 
L 54.993949 3.430836 
L 55.183852 1.683874 
L 55.37012 -0.063089 
L 55.550273 -1.810051 
L 55.722217 -3.557013 
L 55.884268 -5.303976 
L 56.035157 -7.050938 
L 56.174023 -8.7979 
L 56.300385 -10.544863 
L 56.414105 -12.291825 
L 56.515351 -14.038787 
L 56.604543 -15.78575 
L 56.682301 -17.532712 
L 56.749401 -19.279675 
L 56.80672 -21.026637 
L 57.31328 -21.026637 
L 57.31328 -21.026637 
L 57.370599 -19.279675 
L 57.437699 -17.532712 
L 57.515457 -15.78575 
L 57.604649 -14.038787 
L 57.705895 -12.291825 
L 57.819615 -10.544863 
L 57.945977 -8.7979 
L 58.084843 -7.050938 
L 58.235732 -5.303976 
L 58.397783 -3.557013 
L 58.569727 -1.810051 
L 58.74988 -0.063089 
L 58.936148 1.683874 
L 59.126051 3.430836 
L 59.316763 5.177799 
L 59.505176 6.924761 
L 59.687973 8.671723 
L 59.861729 10.418686 
L 60.023005 12.165648 
L 60.168468 13.91261 
L 60.295 15.659573 
L 60.399813 17.406535 
L 60.480549 19.153497 
L 60.535369 20.90046 
L 60.563031 22.647422 
L 60.562934 24.394384 
L 60.535149 26.141347 
L 60.480418 27.888309 
L 60.400139 29.635272 
L 60.296311 31.382234 
L 60.171479 33.129196 
L 60.028643 34.876159 
L 59.871176 36.623121 
L 59.702719 38.370083 
L 59.527084 40.117046 
L 59.348159 41.864008 
L 59.169825 43.61097 
L 58.995883 45.357933 
L 58.829994 47.104895 
L 58.675639 48.851858 
L 58.536099 50.59882 
L 58.414443 52.345782 
L 58.313536 54.092745 
L 58.236052 55.839707 
L 58.184497 57.586669 
L 58.161233 59.333632 
L 58.168496 61.080594 
L 58.208411 62.827556 
L 58.282989 64.574519 
L 58.394116 66.321481 
L 58.543518 68.068444 
L 58.732712 69.815406 
L 58.962933 71.562368 
L 59.23505 73.309331 
L 59.54946 75.056293 
L 59.90598 76.803255 
L 60.303727 78.550218 
L 60.741009 80.29718 
L 61.215214 82.044142 
L 61.72273 83.791105 
L 62.258882 85.538067 
L 62.817907 87.28503 
L 63.392968 89.031992 
L 63.976212 90.778954 
L 64.558883 92.525917 
L 65.131478 94.272879 
L 65.683957 96.019841 
L 66.205992 97.766804 
L 66.687255 99.513766 
L 67.117731 101.260728 
L 67.488043 103.007691 
L 67.789778 104.754653 
L 68.01579 106.501616 
L 68.160475 108.248578 
L 68.22 109.99554 
L 68.192463 111.742503 
L 68.07799 113.489465 
L 67.878752 115.236427 
L 67.598898 116.98339 
L 67.244419 118.730352 
L 66.822933 120.477314 
L 66.343409 122.224277 
L 65.815849 123.971239 
L 65.250938 125.718201 
L 64.659671 127.465164 
L 64.053002 129.212126 
L 63.441494 130.959089 
L 62.835026 132.706051 
L 62.242528 134.453013 
L 61.671791 136.199976 
L 61.129325 137.946938 
L 60.620288 139.6939 
L 60.148471 141.440863 
L 59.716344 143.187825 
L 59.325135 144.934787 
L 58.974965 146.68175 
L 58.664991 148.428712 
L 58.393577 150.175675 
L 58.158466 151.922637 
z
" clip-path="url(#p690395af0b)" style="fill: #c1613e; fill-opacity: 0.35"/>
   </g>
   <g id="PolyCollection_3">
    <path d="M 91.481268 136.204019 
L 89.598732 136.204019 
L 89.336113 134.956044 
L 89.020859 133.70807 
L 88.648621 132.460095 
L 88.216412 131.212121 
L 87.723083 129.964146 
L 87.169757 128.716172 
L 86.560195 127.468197 
L 85.901039 126.220223 
L 85.201897 124.972248 
L 84.475238 123.724274 
L 83.736085 122.476299 
L 83.001501 121.228325 
L 82.289901 119.98035 
L 81.620213 118.732376 
L 81.010963 117.484401 
L 80.479337 116.236427 
L 80.040294 114.988452 
L 79.705801 113.740478 
L 79.484233 112.492503 
L 79.38 111.244528 
L 79.393397 109.996554 
L 79.520702 108.748579 
L 79.754479 107.500605 
L 80.08408 106.25263 
L 80.496277 105.004656 
L 80.975987 103.756681 
L 81.507043 102.508707 
L 82.07295 101.260732 
L 82.657602 100.012758 
L 83.245921 98.764783 
L 83.824388 97.516809 
L 84.381456 96.268834 
L 84.907842 95.02086 
L 85.396676 93.772885 
L 85.843526 92.524911 
L 86.246296 91.276936 
L 86.605015 90.028962 
L 86.921535 88.780987 
L 87.199152 87.533013 
L 87.442192 86.285038 
L 87.655579 85.037063 
L 87.84442 83.789089 
L 88.013632 82.541114 
L 88.167642 81.29314 
L 88.310159 80.045165 
L 88.444052 78.797191 
L 88.571304 77.549216 
L 88.693057 76.301242 
L 88.809722 75.053267 
L 88.921127 73.805293 
L 89.0267 72.557318 
L 89.125643 71.309344 
L 89.217098 70.061369 
L 89.300281 68.813395 
L 89.374577 67.56542 
L 89.439596 66.317446 
L 89.495199 65.069471 
L 89.541482 63.821497 
L 89.578747 62.573522 
L 89.60746 61.325547 
L 89.628205 60.077573 
L 89.641636 58.829598 
L 89.648447 57.581624 
L 89.649348 56.333649 
L 89.645056 55.085675 
L 89.63629 53.8377 
L 89.623789 52.589726 
L 89.60832 51.341751 
L 89.5907 50.093777 
L 89.571808 48.845802 
L 89.552595 47.597828 
L 89.534083 46.349853 
L 89.51736 45.101879 
L 89.50355 43.853904 
L 89.49378 42.60593 
L 89.489136 41.357955 
L 89.490605 40.109981 
L 89.499019 38.862006 
L 89.514997 37.614032 
L 89.538899 36.366057 
L 89.570786 35.118082 
L 89.610402 33.870108 
L 89.657177 32.622133 
L 89.710248 31.374159 
L 89.768501 30.126184 
L 89.830632 28.87821 
L 89.895219 27.630235 
L 89.960797 26.382261 
L 90.025938 25.134286 
L 90.08932 23.886312 
L 90.149785 22.638337 
L 90.206384 21.390363 
L 90.2584 20.142388 
L 90.30536 18.894414 
L 90.347023 17.646439 
L 90.383362 16.398465 
L 90.414529 15.15049 
L 90.440825 13.902516 
L 90.462652 12.654541 
L 90.617348 12.654541 
L 90.617348 12.654541 
L 90.639175 13.902516 
L 90.665471 15.15049 
L 90.696638 16.398465 
L 90.732977 17.646439 
L 90.77464 18.894414 
L 90.8216 20.142388 
L 90.873616 21.390363 
L 90.930215 22.638337 
L 90.99068 23.886312 
L 91.054062 25.134286 
L 91.119203 26.382261 
L 91.184781 27.630235 
L 91.249368 28.87821 
L 91.311499 30.126184 
L 91.369752 31.374159 
L 91.422823 32.622133 
L 91.469598 33.870108 
L 91.509214 35.118082 
L 91.541101 36.366057 
L 91.565003 37.614032 
L 91.580981 38.862006 
L 91.589395 40.109981 
L 91.590864 41.357955 
L 91.58622 42.60593 
L 91.57645 43.853904 
L 91.56264 45.101879 
L 91.545917 46.349853 
L 91.527405 47.597828 
L 91.508192 48.845802 
L 91.4893 50.093777 
L 91.47168 51.341751 
L 91.456211 52.589726 
L 91.44371 53.8377 
L 91.434944 55.085675 
L 91.430652 56.333649 
L 91.431553 57.581624 
L 91.438364 58.829598 
L 91.451795 60.077573 
L 91.47254 61.325547 
L 91.501253 62.573522 
L 91.538518 63.821497 
L 91.584801 65.069471 
L 91.640404 66.317446 
L 91.705423 67.56542 
L 91.779719 68.813395 
L 91.862902 70.061369 
L 91.954357 71.309344 
L 92.0533 72.557318 
L 92.158873 73.805293 
L 92.270278 75.053267 
L 92.386943 76.301242 
L 92.508696 77.549216 
L 92.635948 78.797191 
L 92.769841 80.045165 
L 92.912358 81.29314 
L 93.066368 82.541114 
L 93.23558 83.789089 
L 93.424421 85.037063 
L 93.637808 86.285038 
L 93.880848 87.533013 
L 94.158465 88.780987 
L 94.474985 90.028962 
L 94.833704 91.276936 
L 95.236474 92.524911 
L 95.683324 93.772885 
L 96.172158 95.02086 
L 96.698544 96.268834 
L 97.255612 97.516809 
L 97.834079 98.764783 
L 98.422398 100.012758 
L 99.00705 101.260732 
L 99.572957 102.508707 
L 100.104013 103.756681 
L 100.583723 105.004656 
L 100.99592 106.25263 
L 101.325521 107.500605 
L 101.559298 108.748579 
L 101.686603 109.996554 
L 101.7 111.244528 
L 101.595767 112.492503 
L 101.374199 113.740478 
L 101.039706 114.988452 
L 100.600663 116.236427 
L 100.069037 117.484401 
L 99.459787 118.732376 
L 98.790099 119.98035 
L 98.078499 121.228325 
L 97.343915 122.476299 
L 96.604762 123.724274 
L 95.878103 124.972248 
L 95.178961 126.220223 
L 94.519805 127.468197 
L 93.910243 128.716172 
L 93.356917 129.964146 
L 92.863588 131.212121 
L 92.431379 132.460095 
L 92.059141 133.70807 
L 91.743887 134.956044 
L 91.481268 136.204019 
z
" clip-path="url(#p690395af0b)" style="fill: #20415a; fill-opacity: 0.35"/>
   </g>
   <g id="PolyCollection_4">
    <path d="M 112.925315 139.265978 
L 112.794685 139.265978 
L 112.775753 137.774706 
L 112.752875 136.283433 
L 112.725701 134.792161 
L 112.693983 133.300889 
L 112.657608 131.809616 
L 112.616639 130.318344 
L 112.571333 128.827072 
L 112.522162 127.3358 
L 112.469815 125.844527 
L 112.415185 124.353255 
L 112.359337 122.861983 
L 112.303458 121.37071 
L 112.248794 119.879438 
L 112.196573 118.388166 
L 112.147918 116.896894 
L 112.103767 115.405621 
L 112.064791 113.914349 
L 112.03133 112.423077 
L 112.003355 110.931805 
L 111.980449 109.440532 
L 111.961822 107.94926 
L 111.946366 106.457988 
L 111.932728 104.966715 
L 111.919427 103.475443 
L 111.904974 101.984171 
L 111.888019 100.492899 
L 111.867486 99.001626 
L 111.842693 97.510354 
L 111.813456 96.019082 
L 111.780143 94.527809 
L 111.743686 93.036537 
L 111.705545 91.545265 
L 111.667617 90.053993 
L 111.632104 88.56272 
L 111.601335 87.071448 
L 111.577578 85.580176 
L 111.562832 84.088903 
L 111.55864 82.597631 
L 111.565917 81.106359 
L 111.584819 79.615087 
L 111.614663 78.123814 
L 111.653894 76.632542 
L 111.700101 75.14127 
L 111.750086 73.649998 
L 111.799963 72.158725 
L 111.845283 70.667453 
L 111.881179 69.176181 
L 111.902512 67.684908 
L 111.904012 66.193636 
L 111.880414 64.702364 
L 111.826585 63.211092 
L 111.737644 61.719819 
L 111.60908 60.228547 
L 111.436878 58.737275 
L 111.217648 57.246002 
L 110.948769 55.75473 
L 110.628542 54.263458 
L 110.256351 52.772186 
L 109.832818 51.280913 
L 109.359942 49.789641 
L 108.841211 48.298369 
L 108.281668 46.807097 
L 107.687925 45.315824 
L 107.068108 43.824552 
L 106.431744 42.33328 
L 105.789575 40.842007 
L 105.153322 39.350735 
L 104.535395 37.859463 
L 103.948577 36.368191 
L 103.405674 34.876918 
L 102.919157 33.385646 
L 102.500801 31.894374 
L 102.16132 30.403101 
L 101.910013 28.911829 
L 101.75442 27.420557 
L 101.7 25.929285 
L 101.749849 24.438012 
L 101.904471 22.94674 
L 102.161622 21.455468 
L 102.516257 19.964195 
L 102.960594 18.472923 
L 103.484315 16.981651 
L 104.074899 15.490379 
L 104.718093 13.999106 
L 105.398482 12.507834 
L 106.100142 11.016562 
L 106.807318 9.52529 
L 107.505085 8.034017 
L 108.179945 6.542745 
L 108.820317 5.051473 
L 109.416887 3.5602 
L 109.962802 2.068928 
L 110.453705 0.577656 
L 110.887625 -0.913616 
L 111.26474 -2.404889 
L 111.58705 -3.896161 
L 111.857994 -5.387433 
L 112.082047 -6.878706 
L 112.264324 -8.369978 
L 113.455676 -8.369978 
L 113.455676 -8.369978 
L 113.637953 -6.878706 
L 113.862006 -5.387433 
L 114.13295 -3.896161 
L 114.45526 -2.404889 
L 114.832375 -0.913616 
L 115.266295 0.577656 
L 115.757198 2.068928 
L 116.303113 3.5602 
L 116.899683 5.051473 
L 117.540055 6.542745 
L 118.214915 8.034017 
L 118.912682 9.52529 
L 119.619858 11.016562 
L 120.321518 12.507834 
L 121.001907 13.999106 
L 121.645101 15.490379 
L 122.235685 16.981651 
L 122.759406 18.472923 
L 123.203743 19.964195 
L 123.558378 21.455468 
L 123.815529 22.94674 
L 123.970151 24.438012 
L 124.02 25.929285 
L 123.96558 27.420557 
L 123.809987 28.911829 
L 123.55868 30.403101 
L 123.219199 31.894374 
L 122.800843 33.385646 
L 122.314326 34.876918 
L 121.771423 36.368191 
L 121.184605 37.859463 
L 120.566678 39.350735 
L 119.930425 40.842007 
L 119.288256 42.33328 
L 118.651892 43.824552 
L 118.032075 45.315824 
L 117.438332 46.807097 
L 116.878789 48.298369 
L 116.360058 49.789641 
L 115.887182 51.280913 
L 115.463649 52.772186 
L 115.091458 54.263458 
L 114.771231 55.75473 
L 114.502352 57.246002 
L 114.283122 58.737275 
L 114.11092 60.228547 
L 113.982356 61.719819 
L 113.893415 63.211092 
L 113.839586 64.702364 
L 113.815988 66.193636 
L 113.817488 67.684908 
L 113.838821 69.176181 
L 113.874717 70.667453 
L 113.920037 72.158725 
L 113.969914 73.649998 
L 114.019899 75.14127 
L 114.066106 76.632542 
L 114.105337 78.123814 
L 114.135181 79.615087 
L 114.154083 81.106359 
L 114.16136 82.597631 
L 114.157168 84.088903 
L 114.142422 85.580176 
L 114.118665 87.071448 
L 114.087896 88.56272 
L 114.052383 90.053993 
L 114.014455 91.545265 
L 113.976314 93.036537 
L 113.939857 94.527809 
L 113.906544 96.019082 
L 113.877307 97.510354 
L 113.852514 99.001626 
L 113.831981 100.492899 
L 113.815026 101.984171 
L 113.800573 103.475443 
L 113.787272 104.966715 
L 113.773634 106.457988 
L 113.758178 107.94926 
L 113.739551 109.440532 
L 113.716645 110.931805 
L 113.68867 112.423077 
L 113.655209 113.914349 
L 113.616233 115.405621 
L 113.572082 116.896894 
L 113.523427 118.388166 
L 113.471206 119.879438 
L 113.416542 121.37071 
L 113.360663 122.861983 
L 113.304815 124.353255 
L 113.250185 125.844527 
L 113.197838 127.3358 
L 113.148667 128.827072 
L 113.103361 130.318344 
L 113.062392 131.809616 
L 113.026017 133.300889 
L 112.994299 134.792161 
L 112.967125 136.283433 
L 112.944247 137.774706 
L 112.925315 139.265978 
z
" clip-path="url(#p690395af0b)" style="fill: #c1613e; fill-opacity: 0.35"/>
   </g>
   <g id="patch_3">
    <path d="M 23.58 115.344 
L 45.9 115.344 
L 45.9 20.068901 
L 23.58 20.068901 
L 23.58 115.344 
z
" clip-path="url(#p690395af0b)" style="fill: none"/>
   </g>
   <g id="patch_4">
    <path d="M 79.38 115.344 
L 101.7 115.344 
L 101.7 100.664072 
L 79.38 100.664072 
L 79.38 115.344 
z
" clip-path="url(#p690395af0b)" style="fill: none"/>
   </g>
   <g id="patch_5">
    <path d="M 45.9 115.344 
L 68.22 115.344 
L 68.22 89.345558 
L 45.9 89.345558 
L 45.9 115.344 
z
" clip-path="url(#p690395af0b)" style="fill: none"/>
   </g>
   <g id="patch_6">
    <path d="M 101.7 115.344 
L 124.02 115.344 
L 124.02 35.484139 
L 101.7 35.484139 
L 101.7 115.344 
z
" clip-path="url(#p690395af0b)" style="fill: none"/>
   </g>
   <g id="patch_7">
    <path d="M 45.9 115.344 
L 45.9 115.344 
L 45.9 115.344 
L 45.9 115.344 
z
" clip-path="url(#p690395af0b)" style="fill: #3274a1"/>
   </g>
   <g id="patch_8">
    <path d="M 45.9 115.344 
L 45.9 115.344 
L 45.9 115.344 
L 45.9 115.344 
z
" clip-path="url(#p690395af0b)" style="fill: #e1812c"/>
   </g>
   <g id="patch_9">
    <path d="M 23.58 115.344 
L 45.9 115.344 
L 45.9 20.068901 
L 23.58 20.068901 
z
" clip-path="url(#p690395af0b)" style="fill: #20415a; opacity: 0.3; stroke: #000000; stroke-linejoin: miter"/>
   </g>
   <g id="patch_10">
    <path d="M 79.38 115.344 
L 101.7 115.344 
L 101.7 100.664072 
L 79.38 100.664072 
z
" clip-path="url(#p690395af0b)" style="fill: #20415a; opacity: 0.3; stroke: #000000; stroke-linejoin: miter"/>
   </g>
   <g id="patch_11">
    <path d="M 45.9 115.344 
L 68.22 115.344 
L 68.22 89.345558 
L 45.9 89.345558 
z
" clip-path="url(#p690395af0b)" style="fill: #c1613e; opacity: 0.3; stroke: #000000; stroke-linejoin: miter"/>
   </g>
   <g id="patch_12">
    <path d="M 101.7 115.344 
L 124.02 115.344 
L 124.02 35.484139 
L 101.7 35.484139 
z
" clip-path="url(#p690395af0b)" style="fill: #c1613e; opacity: 0.3; stroke: #000000; stroke-linejoin: miter"/>
   </g>
   <g id="patch_13">
    <path d="M 45.9 115.344 
L 45.9 115.344 
L 45.9 115.344 
L 45.9 115.344 
z
" clip-path="url(#p690395af0b)" style="fill: #20415a; opacity: 0.3; stroke: #000000; stroke-linejoin: miter"/>
   </g>
   <g id="patch_14">
    <path d="M 45.9 115.344 
L 45.9 115.344 
L 45.9 115.344 
L 45.9 115.344 
z
" clip-path="url(#p690395af0b)" style="fill: #c1613e; opacity: 0.3; stroke: #000000; stroke-linejoin: miter"/>
   </g>
   <g id="matplotlib.axis_1">
    <g id="xtick_1">
     <g id="line2d_1">
      <defs>
       <path id="madeb7abb8f" d="M 0 0 
L 0 3.5 
" style="stroke: #000000"/>
      </defs>
      <g>
       <use xlink:href="#madeb7abb8f" x="45.9" y="115.344" style="stroke: #000000"/>
      </g>
     </g>
     <g id="text_1">
      <!-- unpunished -->
      <g transform="translate(20.045312 129.501812) scale(0.1 -0.1)">
       <defs>
        <path id="ArialMT-75" d="M 2597 0 
L 2597 488 
Q 2209 -75 1544 -75 
Q 1250 -75 995 37 
Q 741 150 617 320 
Q 494 491 444 738 
Q 409 903 409 1263 
L 409 3319 
L 972 3319 
L 972 1478 
Q 972 1038 1006 884 
Q 1059 663 1231 536 
Q 1403 409 1656 409 
Q 1909 409 2131 539 
Q 2353 669 2445 892 
Q 2538 1116 2538 1541 
L 2538 3319 
L 3100 3319 
L 3100 0 
L 2597 0 
z
" transform="scale(0.015625)"/>
        <path id="ArialMT-6e" d="M 422 0 
L 422 3319 
L 928 3319 
L 928 2847 
Q 1294 3394 1984 3394 
Q 2284 3394 2536 3286 
Q 2788 3178 2913 3003 
Q 3038 2828 3088 2588 
Q 3119 2431 3119 2041 
L 3119 0 
L 2556 0 
L 2556 2019 
Q 2556 2363 2490 2533 
Q 2425 2703 2258 2804 
Q 2091 2906 1866 2906 
Q 1506 2906 1245 2678 
Q 984 2450 984 1813 
L 984 0 
L 422 0 
z
" transform="scale(0.015625)"/>
        <path id="ArialMT-70" d="M 422 -1272 
L 422 3319 
L 934 3319 
L 934 2888 
Q 1116 3141 1344 3267 
Q 1572 3394 1897 3394 
Q 2322 3394 2647 3175 
Q 2972 2956 3137 2557 
Q 3303 2159 3303 1684 
Q 3303 1175 3120 767 
Q 2938 359 2589 142 
Q 2241 -75 1856 -75 
Q 1575 -75 1351 44 
Q 1128 163 984 344 
L 984 -1272 
L 422 -1272 
z
M 931 1641 
Q 931 1000 1190 694 
Q 1450 388 1819 388 
Q 2194 388 2461 705 
Q 2728 1022 2728 1688 
Q 2728 2322 2467 2637 
Q 2206 2953 1844 2953 
Q 1484 2953 1207 2617 
Q 931 2281 931 1641 
z
" transform="scale(0.015625)"/>
        <path id="ArialMT-69" d="M 425 3934 
L 425 4581 
L 988 4581 
L 988 3934 
L 425 3934 
z
M 425 0 
L 425 3319 
L 988 3319 
L 988 0 
L 425 0 
z
" transform="scale(0.015625)"/>
        <path id="ArialMT-73" d="M 197 991 
L 753 1078 
Q 800 744 1014 566 
Q 1228 388 1613 388 
Q 2000 388 2187 545 
Q 2375 703 2375 916 
Q 2375 1106 2209 1216 
Q 2094 1291 1634 1406 
Q 1016 1563 777 1677 
Q 538 1791 414 1992 
Q 291 2194 291 2438 
Q 291 2659 392 2848 
Q 494 3038 669 3163 
Q 800 3259 1026 3326 
Q 1253 3394 1513 3394 
Q 1903 3394 2198 3281 
Q 2494 3169 2634 2976 
Q 2775 2784 2828 2463 
L 2278 2388 
Q 2241 2644 2061 2787 
Q 1881 2931 1553 2931 
Q 1166 2931 1000 2803 
Q 834 2675 834 2503 
Q 834 2394 903 2306 
Q 972 2216 1119 2156 
Q 1203 2125 1616 2013 
Q 2213 1853 2448 1751 
Q 2684 1650 2818 1456 
Q 2953 1263 2953 975 
Q 2953 694 2789 445 
Q 2625 197 2315 61 
Q 2006 -75 1616 -75 
Q 969 -75 630 194 
Q 291 463 197 991 
z
" transform="scale(0.015625)"/>
        <path id="ArialMT-68" d="M 422 0 
L 422 4581 
L 984 4581 
L 984 2938 
Q 1378 3394 1978 3394 
Q 2347 3394 2619 3248 
Q 2891 3103 3008 2847 
Q 3125 2591 3125 2103 
L 3125 0 
L 2563 0 
L 2563 2103 
Q 2563 2525 2380 2717 
Q 2197 2909 1863 2909 
Q 1613 2909 1392 2779 
Q 1172 2650 1078 2428 
Q 984 2206 984 1816 
L 984 0 
L 422 0 
z
" transform="scale(0.015625)"/>
        <path id="ArialMT-65" d="M 2694 1069 
L 3275 997 
Q 3138 488 2766 206 
Q 2394 -75 1816 -75 
Q 1088 -75 661 373 
Q 234 822 234 1631 
Q 234 2469 665 2931 
Q 1097 3394 1784 3394 
Q 2450 3394 2872 2941 
Q 3294 2488 3294 1666 
Q 3294 1616 3291 1516 
L 816 1516 
Q 847 969 1125 678 
Q 1403 388 1819 388 
Q 2128 388 2347 550 
Q 2566 713 2694 1069 
z
M 847 1978 
L 2700 1978 
Q 2663 2397 2488 2606 
Q 2219 2931 1791 2931 
Q 1403 2931 1139 2672 
Q 875 2413 847 1978 
z
" transform="scale(0.015625)"/>
        <path id="ArialMT-64" d="M 2575 0 
L 2575 419 
Q 2259 -75 1647 -75 
Q 1250 -75 917 144 
Q 584 363 401 755 
Q 219 1147 219 1656 
Q 219 2153 384 2558 
Q 550 2963 881 3178 
Q 1213 3394 1622 3394 
Q 1922 3394 2156 3267 
Q 2391 3141 2538 2938 
L 2538 4581 
L 3097 4581 
L 3097 0 
L 2575 0 
z
M 797 1656 
Q 797 1019 1065 703 
Q 1334 388 1700 388 
Q 2069 388 2326 689 
Q 2584 991 2584 1609 
Q 2584 2291 2321 2609 
Q 2059 2928 1675 2928 
Q 1300 2928 1048 2622 
Q 797 2316 797 1656 
z
" transform="scale(0.015625)"/>
       </defs>
       <use xlink:href="#ArialMT-75"/>
       <use xlink:href="#ArialMT-6e" x="55.615234"/>
       <use xlink:href="#ArialMT-70" x="111.230469"/>
       <use xlink:href="#ArialMT-75" x="166.845703"/>
       <use xlink:href="#ArialMT-6e" x="222.460938"/>
       <use xlink:href="#ArialMT-69" x="278.076172"/>
       <use xlink:href="#ArialMT-73" x="300.292969"/>
       <use xlink:href="#ArialMT-68" x="350.292969"/>
       <use xlink:href="#ArialMT-65" x="405.908203"/>
       <use xlink:href="#ArialMT-64" x="461.523438"/>
      </g>
     </g>
    </g>
    <g id="xtick_2">
     <g id="line2d_2">
      <g>
       <use xlink:href="#madeb7abb8f" x="101.7" y="115.344" style="stroke: #000000"/>
      </g>
     </g>
     <g id="text_2">
      <!-- punished -->
      <g transform="translate(81.40625 129.501812) scale(0.1 -0.1)">
       <use xlink:href="#ArialMT-70"/>
       <use xlink:href="#ArialMT-75" x="55.615234"/>
       <use xlink:href="#ArialMT-6e" x="111.230469"/>
       <use xlink:href="#ArialMT-69" x="166.845703"/>
       <use xlink:href="#ArialMT-73" x="189.0625"/>
       <use xlink:href="#ArialMT-68" x="239.0625"/>
       <use xlink:href="#ArialMT-65" x="294.677734"/>
       <use xlink:href="#ArialMT-64" x="350.292969"/>
      </g>
     </g>
    </g>
   </g>
   <g id="matplotlib.axis_2">
    <g id="ytick_1">
     <g id="line2d_3">
      <defs>
       <path id="me36af67008" d="M 0 0 
L -3.5 0 
" style="stroke: #000000"/>
      </defs>
      <g>
       <use xlink:href="#me36af67008" x="18" y="115.344" style="stroke: #000000"/>
      </g>
     </g>
     <g id="text_3">
      <!-- 0.00 -->
      <g transform="translate(-8.460938 118.922906) scale(0.1 -0.1)">
       <defs>
        <path id="ArialMT-30" d="M 266 2259 
Q 266 3072 433 3567 
Q 600 4063 929 4331 
Q 1259 4600 1759 4600 
Q 2128 4600 2406 4451 
Q 2684 4303 2865 4023 
Q 3047 3744 3150 3342 
Q 3253 2941 3253 2259 
Q 3253 1453 3087 958 
Q 2922 463 2592 192 
Q 2263 -78 1759 -78 
Q 1097 -78 719 397 
Q 266 969 266 2259 
z
M 844 2259 
Q 844 1131 1108 757 
Q 1372 384 1759 384 
Q 2147 384 2411 759 
Q 2675 1134 2675 2259 
Q 2675 3391 2411 3762 
Q 2147 4134 1753 4134 
Q 1366 4134 1134 3806 
Q 844 3388 844 2259 
z
" transform="scale(0.015625)"/>
        <path id="ArialMT-2e" d="M 581 0 
L 581 641 
L 1222 641 
L 1222 0 
L 581 0 
z
" transform="scale(0.015625)"/>
       </defs>
       <use xlink:href="#ArialMT-30"/>
       <use xlink:href="#ArialMT-2e" x="55.615234"/>
       <use xlink:href="#ArialMT-30" x="83.398438"/>
       <use xlink:href="#ArialMT-30" x="139.013672"/>
      </g>
     </g>
    </g>
    <g id="ytick_2">
     <g id="line2d_4">
      <g>
       <use xlink:href="#me36af67008" x="18" y="90.396" style="stroke: #000000"/>
      </g>
     </g>
     <g id="text_4">
      <!-- 0.25 -->
      <g transform="translate(-8.460938 93.974906) scale(0.1 -0.1)">
       <defs>
        <path id="ArialMT-32" d="M 3222 541 
L 3222 0 
L 194 0 
Q 188 203 259 391 
Q 375 700 629 1000 
Q 884 1300 1366 1694 
Q 2113 2306 2375 2664 
Q 2638 3022 2638 3341 
Q 2638 3675 2398 3904 
Q 2159 4134 1775 4134 
Q 1369 4134 1125 3890 
Q 881 3647 878 3216 
L 300 3275 
Q 359 3922 746 4261 
Q 1134 4600 1788 4600 
Q 2447 4600 2831 4234 
Q 3216 3869 3216 3328 
Q 3216 3053 3103 2787 
Q 2991 2522 2730 2228 
Q 2469 1934 1863 1422 
Q 1356 997 1212 845 
Q 1069 694 975 541 
L 3222 541 
z
" transform="scale(0.015625)"/>
        <path id="ArialMT-35" d="M 266 1200 
L 856 1250 
Q 922 819 1161 601 
Q 1400 384 1738 384 
Q 2144 384 2425 690 
Q 2706 997 2706 1503 
Q 2706 1984 2436 2262 
Q 2166 2541 1728 2541 
Q 1456 2541 1237 2417 
Q 1019 2294 894 2097 
L 366 2166 
L 809 4519 
L 3088 4519 
L 3088 3981 
L 1259 3981 
L 1013 2750 
Q 1425 3038 1878 3038 
Q 2478 3038 2890 2622 
Q 3303 2206 3303 1553 
Q 3303 931 2941 478 
Q 2500 -78 1738 -78 
Q 1113 -78 717 272 
Q 322 622 266 1200 
z
" transform="scale(0.015625)"/>
       </defs>
       <use xlink:href="#ArialMT-30"/>
       <use xlink:href="#ArialMT-2e" x="55.615234"/>
       <use xlink:href="#ArialMT-32" x="83.398438"/>
       <use xlink:href="#ArialMT-35" x="139.013672"/>
      </g>
     </g>
    </g>
    <g id="ytick_3">
     <g id="line2d_5">
      <g>
       <use xlink:href="#me36af67008" x="18" y="65.448" style="stroke: #000000"/>
      </g>
     </g>
     <g id="text_5">
      <!-- 0.50 -->
      <g transform="translate(-8.460938 69.026906) scale(0.1 -0.1)">
       <use xlink:href="#ArialMT-30"/>
       <use xlink:href="#ArialMT-2e" x="55.615234"/>
       <use xlink:href="#ArialMT-35" x="83.398438"/>
       <use xlink:href="#ArialMT-30" x="139.013672"/>
      </g>
     </g>
    </g>
    <g id="ytick_4">
     <g id="line2d_6">
      <g>
       <use xlink:href="#me36af67008" x="18" y="40.5" style="stroke: #000000"/>
      </g>
     </g>
     <g id="text_6">
      <!-- 0.75 -->
      <g transform="translate(-8.460938 44.078906) scale(0.1 -0.1)">
       <defs>
        <path id="ArialMT-37" d="M 303 3981 
L 303 4522 
L 3269 4522 
L 3269 4084 
Q 2831 3619 2401 2847 
Q 1972 2075 1738 1259 
Q 1569 684 1522 0 
L 944 0 
Q 953 541 1156 1306 
Q 1359 2072 1739 2783 
Q 2119 3494 2547 3981 
L 303 3981 
z
" transform="scale(0.015625)"/>
       </defs>
       <use xlink:href="#ArialMT-30"/>
       <use xlink:href="#ArialMT-2e" x="55.615234"/>
       <use xlink:href="#ArialMT-37" x="83.398438"/>
       <use xlink:href="#ArialMT-35" x="139.013672"/>
      </g>
     </g>
    </g>
    <g id="ytick_5">
     <g id="line2d_7">
      <g>
       <use xlink:href="#me36af67008" x="18" y="15.552" style="stroke: #000000"/>
      </g>
     </g>
     <g id="text_7">
      <!-- 1.00 -->
      <g transform="translate(-8.460938 19.130906) scale(0.1 -0.1)">
       <defs>
        <path id="ArialMT-31" d="M 2384 0 
L 1822 0 
L 1822 3584 
Q 1619 3391 1289 3197 
Q 959 3003 697 2906 
L 697 3450 
Q 1169 3672 1522 3987 
Q 1875 4303 2022 4600 
L 2384 4600 
L 2384 0 
z
" transform="scale(0.015625)"/>
       </defs>
       <use xlink:href="#ArialMT-31"/>
       <use xlink:href="#ArialMT-2e" x="55.615234"/>
       <use xlink:href="#ArialMT-30" x="83.398438"/>
       <use xlink:href="#ArialMT-30" x="139.013672"/>
      </g>
     </g>
    </g>
    <g id="text_8">
     <!-- stay probability -->
     <g transform="translate(-14.565625 98.795656) rotate(-90) scale(0.1 -0.1)">
      <defs>
       <path id="ArialMT-74" d="M 1650 503 
L 1731 6 
Q 1494 -44 1306 -44 
Q 1000 -44 831 53 
Q 663 150 594 308 
Q 525 466 525 972 
L 525 2881 
L 113 2881 
L 113 3319 
L 525 3319 
L 525 4141 
L 1084 4478 
L 1084 3319 
L 1650 3319 
L 1650 2881 
L 1084 2881 
L 1084 941 
Q 1084 700 1114 631 
Q 1144 563 1211 522 
Q 1278 481 1403 481 
Q 1497 481 1650 503 
z
" transform="scale(0.015625)"/>
       <path id="ArialMT-61" d="M 2588 409 
Q 2275 144 1986 34 
Q 1697 -75 1366 -75 
Q 819 -75 525 192 
Q 231 459 231 875 
Q 231 1119 342 1320 
Q 453 1522 633 1644 
Q 813 1766 1038 1828 
Q 1203 1872 1538 1913 
Q 2219 1994 2541 2106 
Q 2544 2222 2544 2253 
Q 2544 2597 2384 2738 
Q 2169 2928 1744 2928 
Q 1347 2928 1158 2789 
Q 969 2650 878 2297 
L 328 2372 
Q 403 2725 575 2942 
Q 747 3159 1072 3276 
Q 1397 3394 1825 3394 
Q 2250 3394 2515 3294 
Q 2781 3194 2906 3042 
Q 3031 2891 3081 2659 
Q 3109 2516 3109 2141 
L 3109 1391 
Q 3109 606 3145 398 
Q 3181 191 3288 0 
L 2700 0 
Q 2613 175 2588 409 
z
M 2541 1666 
Q 2234 1541 1622 1453 
Q 1275 1403 1131 1340 
Q 988 1278 909 1158 
Q 831 1038 831 891 
Q 831 666 1001 516 
Q 1172 366 1500 366 
Q 1825 366 2078 508 
Q 2331 650 2450 897 
Q 2541 1088 2541 1459 
L 2541 1666 
z
" transform="scale(0.015625)"/>
       <path id="ArialMT-79" d="M 397 -1278 
L 334 -750 
Q 519 -800 656 -800 
Q 844 -800 956 -737 
Q 1069 -675 1141 -563 
Q 1194 -478 1313 -144 
Q 1328 -97 1363 -6 
L 103 3319 
L 709 3319 
L 1400 1397 
Q 1534 1031 1641 628 
Q 1738 1016 1872 1384 
L 2581 3319 
L 3144 3319 
L 1881 -56 
Q 1678 -603 1566 -809 
Q 1416 -1088 1222 -1217 
Q 1028 -1347 759 -1347 
Q 597 -1347 397 -1278 
z
" transform="scale(0.015625)"/>
       <path id="ArialMT-20" transform="scale(0.015625)"/>
       <path id="ArialMT-72" d="M 416 0 
L 416 3319 
L 922 3319 
L 922 2816 
Q 1116 3169 1280 3281 
Q 1444 3394 1641 3394 
Q 1925 3394 2219 3213 
L 2025 2691 
Q 1819 2813 1613 2813 
Q 1428 2813 1281 2702 
Q 1134 2591 1072 2394 
Q 978 2094 978 1738 
L 978 0 
L 416 0 
z
" transform="scale(0.015625)"/>
       <path id="ArialMT-6f" d="M 213 1659 
Q 213 2581 725 3025 
Q 1153 3394 1769 3394 
Q 2453 3394 2887 2945 
Q 3322 2497 3322 1706 
Q 3322 1066 3130 698 
Q 2938 331 2570 128 
Q 2203 -75 1769 -75 
Q 1072 -75 642 372 
Q 213 819 213 1659 
z
M 791 1659 
Q 791 1022 1069 705 
Q 1347 388 1769 388 
Q 2188 388 2466 706 
Q 2744 1025 2744 1678 
Q 2744 2294 2464 2611 
Q 2184 2928 1769 2928 
Q 1347 2928 1069 2612 
Q 791 2297 791 1659 
z
" transform="scale(0.015625)"/>
       <path id="ArialMT-62" d="M 941 0 
L 419 0 
L 419 4581 
L 981 4581 
L 981 2947 
Q 1338 3394 1891 3394 
Q 2197 3394 2470 3270 
Q 2744 3147 2920 2923 
Q 3097 2700 3197 2384 
Q 3297 2069 3297 1709 
Q 3297 856 2875 390 
Q 2453 -75 1863 -75 
Q 1275 -75 941 416 
L 941 0 
z
M 934 1684 
Q 934 1088 1097 822 
Q 1363 388 1816 388 
Q 2184 388 2453 708 
Q 2722 1028 2722 1663 
Q 2722 2313 2464 2622 
Q 2206 2931 1841 2931 
Q 1472 2931 1203 2611 
Q 934 2291 934 1684 
z
" transform="scale(0.015625)"/>
       <path id="ArialMT-6c" d="M 409 0 
L 409 4581 
L 972 4581 
L 972 0 
L 409 0 
z
" transform="scale(0.015625)"/>
      </defs>
      <use xlink:href="#ArialMT-73"/>
      <use xlink:href="#ArialMT-74" x="50"/>
      <use xlink:href="#ArialMT-61" x="77.783203"/>
      <use xlink:href="#ArialMT-79" x="133.398438"/>
      <use xlink:href="#ArialMT-20" x="183.398438"/>
      <use xlink:href="#ArialMT-70" x="211.181641"/>
      <use xlink:href="#ArialMT-72" x="266.796875"/>
      <use xlink:href="#ArialMT-6f" x="300.097656"/>
      <use xlink:href="#ArialMT-62" x="355.712891"/>
      <use xlink:href="#ArialMT-61" x="411.328125"/>
      <use xlink:href="#ArialMT-62" x="466.943359"/>
      <use xlink:href="#ArialMT-69" x="522.558594"/>
      <use xlink:href="#ArialMT-6c" x="544.775391"/>
      <use xlink:href="#ArialMT-69" x="566.992188"/>
      <use xlink:href="#ArialMT-74" x="589.208984"/>
      <use xlink:href="#ArialMT-79" x="616.992188"/>
     </g>
    </g>
   </g>
   <g id="PathCollection_1">
    <defs>
     <path id="C0_0_cfa5a91877" d="M 0 3.5 
C 0.928211 3.5 1.81853 3.131218 2.474874 2.474874 
C 3.131218 1.81853 3.5 0.928211 3.5 -0 
C 3.5 -0.928211 3.131218 -1.81853 2.474874 -2.474874 
C 1.81853 -3.131218 0.928211 -3.5 0 -3.5 
C -0.928211 -3.5 -1.81853 -3.131218 -2.474874 -2.474874 
C -3.131218 -1.81853 -3.5 -0.928211 -3.5 0 
C -3.5 0.928211 -3.131218 1.81853 -2.474874 2.474874 
C -1.81853 3.131218 -0.928211 3.5 0 3.5 
z
"/>
    </defs>
    <g clip-path="url(#p690395af0b)">
     <use xlink:href="#C0_0_cfa5a91877" x="35.969281" y="17.54784" style="fill: #174263; fill-opacity: 0.45"/>
    </g>
    <g clip-path="url(#p690395af0b)">
     <use xlink:href="#C0_0_cfa5a91877" x="33.776395" y="15.552" style="fill: #174263; fill-opacity: 0.45"/>
    </g>
    <g clip-path="url(#p690395af0b)">
     <use xlink:href="#C0_0_cfa5a91877" x="37.347075" y="15.552" style="fill: #174263; fill-opacity: 0.45"/>
    </g>
    <g clip-path="url(#p690395af0b)">
     <use xlink:href="#C0_0_cfa5a91877" x="34.811076" y="22.53744" style="fill: #174263; fill-opacity: 0.45"/>
    </g>
    <g clip-path="url(#p690395af0b)">
     <use xlink:href="#C0_0_cfa5a91877" x="33.495918" y="19.54368" style="fill: #174263; fill-opacity: 0.45"/>
    </g>
    <g clip-path="url(#p690395af0b)">
     <use xlink:href="#C0_0_cfa5a91877" x="35.373397" y="15.552" style="fill: #174263; fill-opacity: 0.45"/>
    </g>
    <g clip-path="url(#p690395af0b)">
     <use xlink:href="#C0_0_cfa5a91877" x="32.60123" y="45.4896" style="fill: #174263; fill-opacity: 0.45"/>
    </g>
    <g clip-path="url(#p690395af0b)">
     <use xlink:href="#C0_0_cfa5a91877" x="33.922644" y="18.54576" style="fill: #174263; fill-opacity: 0.45"/>
    </g>
    <g clip-path="url(#p690395af0b)">
     <use xlink:href="#C0_0_cfa5a91877" x="33.32826" y="17.54784" style="fill: #174263; fill-opacity: 0.45"/>
    </g>
    <g clip-path="url(#p690395af0b)">
     <use xlink:href="#C0_0_cfa5a91877" x="34.291081" y="21.53952" style="fill: #174263; fill-opacity: 0.45"/>
    </g>
    <g clip-path="url(#p690395af0b)">
     <use xlink:href="#C0_0_cfa5a91877" x="35.789189" y="15.552" style="fill: #174263; fill-opacity: 0.45"/>
    </g>
    <g clip-path="url(#p690395af0b)">
     <use xlink:href="#C0_0_cfa5a91877" x="33.206204" y="15.552" style="fill: #174263; fill-opacity: 0.45"/>
    </g>
    <g clip-path="url(#p690395af0b)">
     <use xlink:href="#C0_0_cfa5a91877" x="37.454472" y="15.552" style="fill: #174263; fill-opacity: 0.45"/>
    </g>
    <g clip-path="url(#p690395af0b)">
     <use xlink:href="#C0_0_cfa5a91877" x="32.655878" y="26.52912" style="fill: #174263; fill-opacity: 0.45"/>
    </g>
    <g clip-path="url(#p690395af0b)">
     <use xlink:href="#C0_0_cfa5a91877" x="36.99135" y="15.552" style="fill: #174263; fill-opacity: 0.45"/>
    </g>
    <g clip-path="url(#p690395af0b)">
     <use xlink:href="#C0_0_cfa5a91877" x="35.480805" y="45.4896" style="fill: #174263; fill-opacity: 0.45"/>
    </g>
    <g clip-path="url(#p690395af0b)">
     <use xlink:href="#C0_0_cfa5a91877" x="32.69192" y="15.552" style="fill: #174263; fill-opacity: 0.45"/>
    </g>
    <g clip-path="url(#p690395af0b)">
     <use xlink:href="#C0_0_cfa5a91877" x="37.319745" y="25.5312" style="fill: #174263; fill-opacity: 0.45"/>
    </g>
    <g clip-path="url(#p690395af0b)">
     <use xlink:href="#C0_0_cfa5a91877" x="34.089773" y="18.54576" style="fill: #174263; fill-opacity: 0.45"/>
    </g>
    <g clip-path="url(#p690395af0b)">
     <use xlink:href="#C0_0_cfa5a91877" x="34.779465" y="15.552" style="fill: #174263; fill-opacity: 0.45"/>
    </g>
    <g clip-path="url(#p690395af0b)">
     <use xlink:href="#C0_0_cfa5a91877" x="37.061871" y="15.552" style="fill: #174263; fill-opacity: 0.45"/>
    </g>
    <g clip-path="url(#p690395af0b)">
     <use xlink:href="#C0_0_cfa5a91877" x="33.612462" y="15.552" style="fill: #174263; fill-opacity: 0.45"/>
    </g>
    <g clip-path="url(#p690395af0b)">
     <use xlink:href="#C0_0_cfa5a91877" x="36.859027" y="43.49376" style="fill: #174263; fill-opacity: 0.45"/>
    </g>
    <g clip-path="url(#p690395af0b)">
     <use xlink:href="#C0_0_cfa5a91877" x="33.890657" y="15.552" style="fill: #174263; fill-opacity: 0.45"/>
    </g>
    <g clip-path="url(#p690395af0b)">
     <use xlink:href="#C0_0_cfa5a91877" x="32.951046" y="17.54784" style="fill: #174263; fill-opacity: 0.45"/>
    </g>
    <g clip-path="url(#p690395af0b)">
     <use xlink:href="#C0_0_cfa5a91877" x="34.190055" y="15.552" style="fill: #174263; fill-opacity: 0.45"/>
    </g>
    <g clip-path="url(#p690395af0b)">
     <use xlink:href="#C0_0_cfa5a91877" x="33.826403" y="15.552" style="fill: #174263; fill-opacity: 0.45"/>
    </g>
    <g clip-path="url(#p690395af0b)">
     <use xlink:href="#C0_0_cfa5a91877" x="32.122723" y="15.552" style="fill: #174263; fill-opacity: 0.45"/>
    </g>
    <g clip-path="url(#p690395af0b)">
     <use xlink:href="#C0_0_cfa5a91877" x="36.80286" y="17.54784" style="fill: #174263; fill-opacity: 0.45"/>
    </g>
    <g clip-path="url(#p690395af0b)">
     <use xlink:href="#C0_0_cfa5a91877" x="36.958689" y="15.552" style="fill: #174263; fill-opacity: 0.45"/>
    </g>
    <g clip-path="url(#p690395af0b)">
     <use xlink:href="#C0_0_cfa5a91877" x="35.486463" y="15.552" style="fill: #174263; fill-opacity: 0.45"/>
    </g>
    <g clip-path="url(#p690395af0b)">
     <use xlink:href="#C0_0_cfa5a91877" x="35.03843" y="22.53744" style="fill: #174263; fill-opacity: 0.45"/>
    </g>
    <g clip-path="url(#p690395af0b)">
     <use xlink:href="#C0_0_cfa5a91877" x="36.518209" y="17.54784" style="fill: #174263; fill-opacity: 0.45"/>
    </g>
    <g clip-path="url(#p690395af0b)">
     <use xlink:href="#C0_0_cfa5a91877" x="35.531822" y="24.53328" style="fill: #174263; fill-opacity: 0.45"/>
    </g>
    <g clip-path="url(#p690395af0b)">
     <use xlink:href="#C0_0_cfa5a91877" x="36.518041" y="15.552" style="fill: #174263; fill-opacity: 0.45"/>
    </g>
    <g clip-path="url(#p690395af0b)">
     <use xlink:href="#C0_0_cfa5a91877" x="36.68573" y="15.552" style="fill: #174263; fill-opacity: 0.45"/>
    </g>
    <g clip-path="url(#p690395af0b)">
     <use xlink:href="#C0_0_cfa5a91877" x="36.039116" y="21.53952" style="fill: #174263; fill-opacity: 0.45"/>
    </g>
    <g clip-path="url(#p690395af0b)">
     <use xlink:href="#C0_0_cfa5a91877" x="34.00314" y="23.53536" style="fill: #174263; fill-opacity: 0.45"/>
    </g>
   </g>
   <g id="PathCollection_2">
    <defs>
     <path id="C1_0_1d86a2817b" d="M 0 3.5 
C 0.928211 3.5 1.81853 3.131218 2.474874 2.474874 
C 3.131218 1.81853 3.5 0.928211 3.5 -0 
C 3.5 -0.928211 3.131218 -1.81853 2.474874 -2.474874 
C 1.81853 -3.131218 0.928211 -3.5 0 -3.5 
C -0.928211 -3.5 -1.81853 -3.131218 -2.474874 -2.474874 
C -3.131218 -1.81853 -3.5 -0.928211 -3.5 0 
C -3.5 0.928211 -3.131218 1.81853 -2.474874 2.474874 
C -1.81853 3.131218 -0.928211 3.5 0 3.5 
z
"/>
    </defs>
    <g clip-path="url(#p690395af0b)">
     <use xlink:href="#C1_0_1d86a2817b" x="56.112897" y="15.552" style="fill: #d75728; fill-opacity: 0.45"/>
    </g>
    <g clip-path="url(#p690395af0b)">
     <use xlink:href="#C1_0_1d86a2817b" x="57.321364" y="115.344" style="fill: #d75728; fill-opacity: 0.45"/>
    </g>
    <g clip-path="url(#p690395af0b)">
     <use xlink:href="#C1_0_1d86a2817b" x="56.117156" y="22.53744" style="fill: #d75728; fill-opacity: 0.45"/>
    </g>
    <g clip-path="url(#p690395af0b)">
     <use xlink:href="#C1_0_1d86a2817b" x="54.973786" y="115.344" style="fill: #d75728; fill-opacity: 0.45"/>
    </g>
    <g clip-path="url(#p690395af0b)">
     <use xlink:href="#C1_0_1d86a2817b" x="55.635167" y="115.344" style="fill: #d75728; fill-opacity: 0.45"/>
    </g>
    <g clip-path="url(#p690395af0b)">
     <use xlink:href="#C1_0_1d86a2817b" x="55.899432" y="115.344" style="fill: #d75728; fill-opacity: 0.45"/>
    </g>
    <g clip-path="url(#p690395af0b)">
     <use xlink:href="#C1_0_1d86a2817b" x="59.802879" y="25.5312" style="fill: #d75728; fill-opacity: 0.45"/>
    </g>
    <g clip-path="url(#p690395af0b)">
     <use xlink:href="#C1_0_1d86a2817b" x="59.321545" y="115.344" style="fill: #d75728; fill-opacity: 0.45"/>
    </g>
    <g clip-path="url(#p690395af0b)">
     <use xlink:href="#C1_0_1d86a2817b" x="58.330038" y="115.344" style="fill: #d75728; fill-opacity: 0.45"/>
    </g>
    <g clip-path="url(#p690395af0b)">
     <use xlink:href="#C1_0_1d86a2817b" x="59.181697" y="95.3856" style="fill: #d75728; fill-opacity: 0.45"/>
    </g>
    <g clip-path="url(#p690395af0b)">
     <use xlink:href="#C1_0_1d86a2817b" x="55.449064" y="23.53536" style="fill: #d75728; fill-opacity: 0.45"/>
    </g>
    <g clip-path="url(#p690395af0b)">
     <use xlink:href="#C1_0_1d86a2817b" x="56.44171" y="91.39392" style="fill: #d75728; fill-opacity: 0.45"/>
    </g>
    <g clip-path="url(#p690395af0b)">
     <use xlink:href="#C1_0_1d86a2817b" x="56.83386" y="115.344" style="fill: #d75728; fill-opacity: 0.45"/>
    </g>
    <g clip-path="url(#p690395af0b)">
     <use xlink:href="#C1_0_1d86a2817b" x="59.170681" y="102.37104" style="fill: #d75728; fill-opacity: 0.45"/>
    </g>
    <g clip-path="url(#p690395af0b)">
     <use xlink:href="#C1_0_1d86a2817b" x="59.04393" y="115.344" style="fill: #d75728; fill-opacity: 0.45"/>
    </g>
    <g clip-path="url(#p690395af0b)">
     <use xlink:href="#C1_0_1d86a2817b" x="56.787628" y="115.344" style="fill: #d75728; fill-opacity: 0.45"/>
    </g>
    <g clip-path="url(#p690395af0b)">
     <use xlink:href="#C1_0_1d86a2817b" x="56.126545" y="99.37728" style="fill: #d75728; fill-opacity: 0.45"/>
    </g>
    <g clip-path="url(#p690395af0b)">
     <use xlink:href="#C1_0_1d86a2817b" x="55.537311" y="15.552" style="fill: #d75728; fill-opacity: 0.45"/>
    </g>
    <g clip-path="url(#p690395af0b)">
     <use xlink:href="#C1_0_1d86a2817b" x="59.662718" y="15.552" style="fill: #d75728; fill-opacity: 0.45"/>
    </g>
    <g clip-path="url(#p690395af0b)">
     <use xlink:href="#C1_0_1d86a2817b" x="58.192635" y="115.344" style="fill: #d75728; fill-opacity: 0.45"/>
    </g>
    <g clip-path="url(#p690395af0b)">
     <use xlink:href="#C1_0_1d86a2817b" x="57.736761" y="115.344" style="fill: #d75728; fill-opacity: 0.45"/>
    </g>
    <g clip-path="url(#p690395af0b)">
     <use xlink:href="#C1_0_1d86a2817b" x="55.503901" y="27.52704" style="fill: #d75728; fill-opacity: 0.45"/>
    </g>
    <g clip-path="url(#p690395af0b)">
     <use xlink:href="#C1_0_1d86a2817b" x="56.860835" y="33.51456" style="fill: #d75728; fill-opacity: 0.45"/>
    </g>
    <g clip-path="url(#p690395af0b)">
     <use xlink:href="#C1_0_1d86a2817b" x="57.460054" y="32.51664" style="fill: #d75728; fill-opacity: 0.45"/>
    </g>
    <g clip-path="url(#p690395af0b)">
     <use xlink:href="#C1_0_1d86a2817b" x="55.205168" y="115.344" style="fill: #d75728; fill-opacity: 0.45"/>
    </g>
    <g clip-path="url(#p690395af0b)">
     <use xlink:href="#C1_0_1d86a2817b" x="57.56876" y="115.344" style="fill: #d75728; fill-opacity: 0.45"/>
    </g>
    <g clip-path="url(#p690395af0b)">
     <use xlink:href="#C1_0_1d86a2817b" x="59.725645" y="102.37104" style="fill: #d75728; fill-opacity: 0.45"/>
    </g>
    <g clip-path="url(#p690395af0b)">
     <use xlink:href="#C1_0_1d86a2817b" x="57.565401" y="104.36688" style="fill: #d75728; fill-opacity: 0.45"/>
    </g>
    <g clip-path="url(#p690395af0b)">
     <use xlink:href="#C1_0_1d86a2817b" x="55.553468" y="107.36064" style="fill: #d75728; fill-opacity: 0.45"/>
    </g>
    <g clip-path="url(#p690395af0b)">
     <use xlink:href="#C1_0_1d86a2817b" x="57.038323" y="115.344" style="fill: #d75728; fill-opacity: 0.45"/>
    </g>
    <g clip-path="url(#p690395af0b)">
     <use xlink:href="#C1_0_1d86a2817b" x="54.939399" y="115.344" style="fill: #d75728; fill-opacity: 0.45"/>
    </g>
    <g clip-path="url(#p690395af0b)">
     <use xlink:href="#C1_0_1d86a2817b" x="57.668051" y="100.3752" style="fill: #d75728; fill-opacity: 0.45"/>
    </g>
    <g clip-path="url(#p690395af0b)">
     <use xlink:href="#C1_0_1d86a2817b" x="58.563898" y="115.344" style="fill: #d75728; fill-opacity: 0.45"/>
    </g>
    <g clip-path="url(#p690395af0b)">
     <use xlink:href="#C1_0_1d86a2817b" x="56.601235" y="100.3752" style="fill: #d75728; fill-opacity: 0.45"/>
    </g>
    <g clip-path="url(#p690395af0b)">
     <use xlink:href="#C1_0_1d86a2817b" x="54.745389" y="102.37104" style="fill: #d75728; fill-opacity: 0.45"/>
    </g>
    <g clip-path="url(#p690395af0b)">
     <use xlink:href="#C1_0_1d86a2817b" x="54.788548" y="115.344" style="fill: #d75728; fill-opacity: 0.45"/>
    </g>
    <g clip-path="url(#p690395af0b)">
     <use xlink:href="#C1_0_1d86a2817b" x="58.42761" y="108.35856" style="fill: #d75728; fill-opacity: 0.45"/>
    </g>
    <g clip-path="url(#p690395af0b)">
     <use xlink:href="#C1_0_1d86a2817b" x="58.073011" y="108.35856" style="fill: #d75728; fill-opacity: 0.45"/>
    </g>
   </g>
   <g id="PathCollection_3">
    <defs>
     <path id="C2_0_719e6b7d3f" d="M 0 3.5 
C 0.928211 3.5 1.81853 3.131218 2.474874 2.474874 
C 3.131218 1.81853 3.5 0.928211 3.5 -0 
C 3.5 -0.928211 3.131218 -1.81853 2.474874 -2.474874 
C 1.81853 -3.131218 0.928211 -3.5 0 -3.5 
C -0.928211 -3.5 -1.81853 -3.131218 -2.474874 -2.474874 
C -3.131218 -1.81853 -3.5 -0.928211 -3.5 0 
C -3.5 0.928211 -3.131218 1.81853 -2.474874 2.474874 
C -1.81853 3.131218 -0.928211 3.5 0 3.5 
z
"/>
    </defs>
    <g clip-path="url(#p690395af0b)">
     <use xlink:href="#C2_0_719e6b7d3f" x="91.804151" y="38.50416" style="fill: #174263; fill-opacity: 0.45"/>
    </g>
    <g clip-path="url(#p690395af0b)">
     <use xlink:href="#C2_0_719e6b7d3f" x="88.929321" y="99.37728" style="fill: #174263; fill-opacity: 0.45"/>
    </g>
    <g clip-path="url(#p690395af0b)">
     <use xlink:href="#C2_0_719e6b7d3f" x="88.440031" y="115.344" style="fill: #174263; fill-opacity: 0.45"/>
    </g>
    <g clip-path="url(#p690395af0b)">
     <use xlink:href="#C2_0_719e6b7d3f" x="91.108793" y="115.344" style="fill: #174263; fill-opacity: 0.45"/>
    </g>
    <g clip-path="url(#p690395af0b)">
     <use xlink:href="#C2_0_719e6b7d3f" x="91.412073" y="115.344" style="fill: #174263; fill-opacity: 0.45"/>
    </g>
    <g clip-path="url(#p690395af0b)">
     <use xlink:href="#C2_0_719e6b7d3f" x="91.621768" y="113.34816" style="fill: #174263; fill-opacity: 0.45"/>
    </g>
    <g clip-path="url(#p690395af0b)">
     <use xlink:href="#C2_0_719e6b7d3f" x="91.535148" y="33.51456" style="fill: #174263; fill-opacity: 0.45"/>
    </g>
    <g clip-path="url(#p690395af0b)">
     <use xlink:href="#C2_0_719e6b7d3f" x="91.575804" y="110.3544" style="fill: #174263; fill-opacity: 0.45"/>
    </g>
    <g clip-path="url(#p690395af0b)">
     <use xlink:href="#C2_0_719e6b7d3f" x="90.592197" y="115.344" style="fill: #174263; fill-opacity: 0.45"/>
    </g>
    <g clip-path="url(#p690395af0b)">
     <use xlink:href="#C2_0_719e6b7d3f" x="90.284611" y="101.37312" style="fill: #174263; fill-opacity: 0.45"/>
    </g>
    <g clip-path="url(#p690395af0b)">
     <use xlink:href="#C2_0_719e6b7d3f" x="90.030622" y="64.45008" style="fill: #174263; fill-opacity: 0.45"/>
    </g>
    <g clip-path="url(#p690395af0b)">
     <use xlink:href="#C2_0_719e6b7d3f" x="88.268325" y="84.40848" style="fill: #174263; fill-opacity: 0.45"/>
    </g>
    <g clip-path="url(#p690395af0b)">
     <use xlink:href="#C2_0_719e6b7d3f" x="87.991387" y="104.36688" style="fill: #174263; fill-opacity: 0.45"/>
    </g>
    <g clip-path="url(#p690395af0b)">
     <use xlink:href="#C2_0_719e6b7d3f" x="92.08556" y="82.41264" style="fill: #174263; fill-opacity: 0.45"/>
    </g>
    <g clip-path="url(#p690395af0b)">
     <use xlink:href="#C2_0_719e6b7d3f" x="88.522975" y="107.36064" style="fill: #174263; fill-opacity: 0.45"/>
    </g>
    <g clip-path="url(#p690395af0b)">
     <use xlink:href="#C2_0_719e6b7d3f" x="88.550351" y="115.344" style="fill: #174263; fill-opacity: 0.45"/>
    </g>
    <g clip-path="url(#p690395af0b)">
     <use xlink:href="#C2_0_719e6b7d3f" x="89.352874" y="83.41056" style="fill: #174263; fill-opacity: 0.45"/>
    </g>
    <g clip-path="url(#p690395af0b)">
     <use xlink:href="#C2_0_719e6b7d3f" x="93.12305" y="102.37104" style="fill: #174263; fill-opacity: 0.45"/>
    </g>
    <g clip-path="url(#p690395af0b)">
     <use xlink:href="#C2_0_719e6b7d3f" x="89.182558" y="110.3544" style="fill: #174263; fill-opacity: 0.45"/>
    </g>
    <g clip-path="url(#p690395af0b)">
     <use xlink:href="#C2_0_719e6b7d3f" x="88.467126" y="109.35648" style="fill: #174263; fill-opacity: 0.45"/>
    </g>
    <g clip-path="url(#p690395af0b)">
     <use xlink:href="#C2_0_719e6b7d3f" x="91.767705" y="100.3752" style="fill: #174263; fill-opacity: 0.45"/>
    </g>
    <g clip-path="url(#p690395af0b)">
     <use xlink:href="#C2_0_719e6b7d3f" x="88.248476" y="79.41888" style="fill: #174263; fill-opacity: 0.45"/>
    </g>
    <g clip-path="url(#p690395af0b)">
     <use xlink:href="#C2_0_719e6b7d3f" x="90.487745" y="101.37312" style="fill: #174263; fill-opacity: 0.45"/>
    </g>
    <g clip-path="url(#p690395af0b)">
     <use xlink:href="#C2_0_719e6b7d3f" x="90.115043" y="50.4792" style="fill: #174263; fill-opacity: 0.45"/>
    </g>
    <g clip-path="url(#p690395af0b)">
     <use xlink:href="#C2_0_719e6b7d3f" x="89.708372" y="115.344" style="fill: #174263; fill-opacity: 0.45"/>
    </g>
    <g clip-path="url(#p690395af0b)">
     <use xlink:href="#C2_0_719e6b7d3f" x="90.254466" y="112.35024" style="fill: #174263; fill-opacity: 0.45"/>
    </g>
    <g clip-path="url(#p690395af0b)">
     <use xlink:href="#C2_0_719e6b7d3f" x="89.428403" y="115.344" style="fill: #174263; fill-opacity: 0.45"/>
    </g>
    <g clip-path="url(#p690395af0b)">
     <use xlink:href="#C2_0_719e6b7d3f" x="93.035001" y="115.344" style="fill: #174263; fill-opacity: 0.45"/>
    </g>
    <g clip-path="url(#p690395af0b)">
     <use xlink:href="#C2_0_719e6b7d3f" x="90.564673" y="112.35024" style="fill: #174263; fill-opacity: 0.45"/>
    </g>
    <g clip-path="url(#p690395af0b)">
     <use xlink:href="#C2_0_719e6b7d3f" x="92.306324" y="112.35024" style="fill: #174263; fill-opacity: 0.45"/>
    </g>
    <g clip-path="url(#p690395af0b)">
     <use xlink:href="#C2_0_719e6b7d3f" x="89.167229" y="115.344" style="fill: #174263; fill-opacity: 0.45"/>
    </g>
    <g clip-path="url(#p690395af0b)">
     <use xlink:href="#C2_0_719e6b7d3f" x="92.347448" y="102.37104" style="fill: #174263; fill-opacity: 0.45"/>
    </g>
    <g clip-path="url(#p690395af0b)">
     <use xlink:href="#C2_0_719e6b7d3f" x="91.40275" y="108.35856" style="fill: #174263; fill-opacity: 0.45"/>
    </g>
    <g clip-path="url(#p690395af0b)">
     <use xlink:href="#C2_0_719e6b7d3f" x="89.881242" y="115.344" style="fill: #174263; fill-opacity: 0.45"/>
    </g>
    <g clip-path="url(#p690395af0b)">
     <use xlink:href="#C2_0_719e6b7d3f" x="92.739286" y="115.344" style="fill: #174263; fill-opacity: 0.45"/>
    </g>
    <g clip-path="url(#p690395af0b)">
     <use xlink:href="#C2_0_719e6b7d3f" x="92.256498" y="112.35024" style="fill: #174263; fill-opacity: 0.45"/>
    </g>
    <g clip-path="url(#p690395af0b)">
     <use xlink:href="#C2_0_719e6b7d3f" x="89.265345" y="115.344" style="fill: #174263; fill-opacity: 0.45"/>
    </g>
    <g clip-path="url(#p690395af0b)">
     <use xlink:href="#C2_0_719e6b7d3f" x="90.319119" y="104.36688" style="fill: #174263; fill-opacity: 0.45"/>
    </g>
   </g>
   <g id="PathCollection_4">
    <defs>
     <path id="C3_0_5f5dc02ef9" d="M 0 3.5 
C 0.928211 3.5 1.81853 3.131218 2.474874 2.474874 
C 3.131218 1.81853 3.5 0.928211 3.5 -0 
C 3.5 -0.928211 3.131218 -1.81853 2.474874 -2.474874 
C 1.81853 -3.131218 0.928211 -3.5 0 -3.5 
C -0.928211 -3.5 -1.81853 -3.131218 -2.474874 -2.474874 
C -3.131218 -1.81853 -3.5 -0.928211 -3.5 0 
C -3.5 0.928211 -3.131218 1.81853 -2.474874 2.474874 
C -1.81853 3.131218 -0.928211 3.5 0 3.5 
z
"/>
    </defs>
    <g clip-path="url(#p690395af0b)">
     <use xlink:href="#C3_0_5f5dc02ef9" x="113.875491" y="15.552" style="fill: #d75728; fill-opacity: 0.45"/>
    </g>
    <g clip-path="url(#p690395af0b)">
     <use xlink:href="#C3_0_5f5dc02ef9" x="113.082165" y="20.5416" style="fill: #d75728; fill-opacity: 0.45"/>
    </g>
    <g clip-path="url(#p690395af0b)">
     <use xlink:href="#C3_0_5f5dc02ef9" x="113.986528" y="80.4168" style="fill: #d75728; fill-opacity: 0.45"/>
    </g>
    <g clip-path="url(#p690395af0b)">
     <use xlink:href="#C3_0_5f5dc02ef9" x="110.794938" y="15.552" style="fill: #d75728; fill-opacity: 0.45"/>
    </g>
    <g clip-path="url(#p690395af0b)">
     <use xlink:href="#C3_0_5f5dc02ef9" x="115.22915" y="15.552" style="fill: #d75728; fill-opacity: 0.45"/>
    </g>
    <g clip-path="url(#p690395af0b)">
     <use xlink:href="#C3_0_5f5dc02ef9" x="114.403676" y="30.5208" style="fill: #d75728; fill-opacity: 0.45"/>
    </g>
    <g clip-path="url(#p690395af0b)">
     <use xlink:href="#C3_0_5f5dc02ef9" x="114.671251" y="48.48336" style="fill: #d75728; fill-opacity: 0.45"/>
    </g>
    <g clip-path="url(#p690395af0b)">
     <use xlink:href="#C3_0_5f5dc02ef9" x="111.444303" y="77.42304" style="fill: #d75728; fill-opacity: 0.45"/>
    </g>
    <g clip-path="url(#p690395af0b)">
     <use xlink:href="#C3_0_5f5dc02ef9" x="112.572991" y="33.51456" style="fill: #d75728; fill-opacity: 0.45"/>
    </g>
    <g clip-path="url(#p690395af0b)">
     <use xlink:href="#C3_0_5f5dc02ef9" x="115.437796" y="33.51456" style="fill: #d75728; fill-opacity: 0.45"/>
    </g>
    <g clip-path="url(#p690395af0b)">
     <use xlink:href="#C3_0_5f5dc02ef9" x="112.024959" y="41.49792" style="fill: #d75728; fill-opacity: 0.45"/>
    </g>
    <g clip-path="url(#p690395af0b)">
     <use xlink:href="#C3_0_5f5dc02ef9" x="115.53457" y="15.552" style="fill: #d75728; fill-opacity: 0.45"/>
    </g>
    <g clip-path="url(#p690395af0b)">
     <use xlink:href="#C3_0_5f5dc02ef9" x="114.165565" y="21.53952" style="fill: #d75728; fill-opacity: 0.45"/>
    </g>
    <g clip-path="url(#p690395af0b)">
     <use xlink:href="#C3_0_5f5dc02ef9" x="110.762565" y="39.50208" style="fill: #d75728; fill-opacity: 0.45"/>
    </g>
    <g clip-path="url(#p690395af0b)">
     <use xlink:href="#C3_0_5f5dc02ef9" x="111.678363" y="28.52496" style="fill: #d75728; fill-opacity: 0.45"/>
    </g>
    <g clip-path="url(#p690395af0b)">
     <use xlink:href="#C3_0_5f5dc02ef9" x="110.194885" y="34.51248" style="fill: #d75728; fill-opacity: 0.45"/>
    </g>
    <g clip-path="url(#p690395af0b)">
     <use xlink:href="#C3_0_5f5dc02ef9" x="113.026076" y="30.5208" style="fill: #d75728; fill-opacity: 0.45"/>
    </g>
    <g clip-path="url(#p690395af0b)">
     <use xlink:href="#C3_0_5f5dc02ef9" x="110.6643" y="86.40432" style="fill: #d75728; fill-opacity: 0.45"/>
    </g>
    <g clip-path="url(#p690395af0b)">
     <use xlink:href="#C3_0_5f5dc02ef9" x="112.663549" y="115.344" style="fill: #d75728; fill-opacity: 0.45"/>
    </g>
    <g clip-path="url(#p690395af0b)">
     <use xlink:href="#C3_0_5f5dc02ef9" x="113.072364" y="15.552" style="fill: #d75728; fill-opacity: 0.45"/>
    </g>
    <g clip-path="url(#p690395af0b)">
     <use xlink:href="#C3_0_5f5dc02ef9" x="111.834479" y="35.5104" style="fill: #d75728; fill-opacity: 0.45"/>
    </g>
    <g clip-path="url(#p690395af0b)">
     <use xlink:href="#C3_0_5f5dc02ef9" x="111.003469" y="23.53536" style="fill: #d75728; fill-opacity: 0.45"/>
    </g>
    <g clip-path="url(#p690395af0b)">
     <use xlink:href="#C3_0_5f5dc02ef9" x="111.314236" y="105.3648" style="fill: #d75728; fill-opacity: 0.45"/>
    </g>
    <g clip-path="url(#p690395af0b)">
     <use xlink:href="#C3_0_5f5dc02ef9" x="114.419263" y="38.50416" style="fill: #d75728; fill-opacity: 0.45"/>
    </g>
    <g clip-path="url(#p690395af0b)">
     <use xlink:href="#C3_0_5f5dc02ef9" x="115.099081" y="21.53952" style="fill: #d75728; fill-opacity: 0.45"/>
    </g>
    <g clip-path="url(#p690395af0b)">
     <use xlink:href="#C3_0_5f5dc02ef9" x="110.589508" y="23.53536" style="fill: #d75728; fill-opacity: 0.45"/>
    </g>
    <g clip-path="url(#p690395af0b)">
     <use xlink:href="#C3_0_5f5dc02ef9" x="111.729708" y="35.5104" style="fill: #d75728; fill-opacity: 0.45"/>
    </g>
    <g clip-path="url(#p690395af0b)">
     <use xlink:href="#C3_0_5f5dc02ef9" x="114.001298" y="21.53952" style="fill: #d75728; fill-opacity: 0.45"/>
    </g>
    <g clip-path="url(#p690395af0b)">
     <use xlink:href="#C3_0_5f5dc02ef9" x="112.770205" y="33.51456" style="fill: #d75728; fill-opacity: 0.45"/>
    </g>
    <g clip-path="url(#p690395af0b)">
     <use xlink:href="#C3_0_5f5dc02ef9" x="110.507406" y="23.53536" style="fill: #d75728; fill-opacity: 0.45"/>
    </g>
    <g clip-path="url(#p690395af0b)">
     <use xlink:href="#C3_0_5f5dc02ef9" x="112.476337" y="21.53952" style="fill: #d75728; fill-opacity: 0.45"/>
    </g>
    <g clip-path="url(#p690395af0b)">
     <use xlink:href="#C3_0_5f5dc02ef9" x="110.418295" y="23.53536" style="fill: #d75728; fill-opacity: 0.45"/>
    </g>
    <g clip-path="url(#p690395af0b)">
     <use xlink:href="#C3_0_5f5dc02ef9" x="115.535129" y="15.552" style="fill: #d75728; fill-opacity: 0.45"/>
    </g>
    <g clip-path="url(#p690395af0b)">
     <use xlink:href="#C3_0_5f5dc02ef9" x="112.250327" y="21.53952" style="fill: #d75728; fill-opacity: 0.45"/>
    </g>
    <g clip-path="url(#p690395af0b)">
     <use xlink:href="#C3_0_5f5dc02ef9" x="115.265375" y="15.552" style="fill: #d75728; fill-opacity: 0.45"/>
    </g>
    <g clip-path="url(#p690395af0b)">
     <use xlink:href="#C3_0_5f5dc02ef9" x="114.993465" y="23.53536" style="fill: #d75728; fill-opacity: 0.45"/>
    </g>
    <g clip-path="url(#p690395af0b)">
     <use xlink:href="#C3_0_5f5dc02ef9" x="111.514785" y="32.51664" style="fill: #d75728; fill-opacity: 0.45"/>
    </g>
    <g clip-path="url(#p690395af0b)">
     <use xlink:href="#C3_0_5f5dc02ef9" x="114.179783" y="32.51664" style="fill: #d75728; fill-opacity: 0.45"/>
    </g>
   </g>
   <g id="line2d_8">
    <path d="M 33.2055 21.371464 
L 36.2745 21.371464 
M 34.74 21.371464 
L 34.74 18.766338 
M 33.2055 18.766338 
L 36.2745 18.766338 
" clip-path="url(#p690395af0b)" style="fill: none; stroke: #333333; stroke-width: 2.5; stroke-linecap: square"/>
   </g>
   <g id="line2d_9">
    <path d="M 89.0055 104.166342 
L 92.0745 104.166342 
M 90.54 104.166342 
L 90.54 97.161802 
M 89.0055 97.161802 
L 92.0745 97.161802 
" clip-path="url(#p690395af0b)" style="fill: none; stroke: #333333; stroke-width: 2.5; stroke-linecap: square"/>
   </g>
   <g id="line2d_10">
    <path d="M 55.5255 95.486888 
L 58.5945 95.486888 
M 57.06 95.486888 
L 57.06 83.204228 
M 55.5255 83.204228 
L 58.5945 83.204228 
" clip-path="url(#p690395af0b)" style="fill: none; stroke: #333333; stroke-width: 2.5; stroke-linecap: square"/>
   </g>
   <g id="line2d_11">
    <path d="M 111.3255 39.500493 
L 114.3945 39.500493 
M 112.86 39.500493 
L 112.86 31.467785 
M 111.3255 31.467785 
L 114.3945 31.467785 
" clip-path="url(#p690395af0b)" style="fill: none; stroke: #333333; stroke-width: 2.5; stroke-linecap: square"/>
   </g>
   <g id="patch_15">
    <path d="M 18 115.344 
L 18 15.552 
" style="fill: none; stroke: #000000; stroke-linejoin: miter; stroke-linecap: square"/>
   </g>
   <g id="patch_16">
    <path d="M 18 115.344 
L 129.6 115.344 
" style="fill: none; stroke: #000000; stroke-linejoin: miter; stroke-linecap: square"/>
   </g>
   <g id="PathCollection_5">
    <defs>
     <path id="mad323e6cf9" d="M 0 3 
C 0.795609 3 1.55874 2.683901 2.12132 2.12132 
C 2.683901 1.55874 3 0.795609 3 0 
C 3 -0.795609 2.683901 -1.55874 2.12132 -2.12132 
C 1.55874 -2.683901 0.795609 -3 0 -3 
C -0.795609 -3 -1.55874 -2.683901 -2.12132 -2.12132 
C -2.683901 -1.55874 -3 -0.795609 -3 0 
C -3 0.795609 -2.683901 1.55874 -2.12132 2.12132 
C -1.55874 2.683901 -0.795609 3 0 3 
z
"/>
    </defs>
    <g clip-path="url(#p690395af0b)">
     <use xlink:href="#mad323e6cf9" x="34.74" y="20.068901" style="fill: #333333"/>
    </g>
   </g>
   <g id="PathCollection_6">
    <g clip-path="url(#p690395af0b)">
     <use xlink:href="#mad323e6cf9" x="57.06" y="89.345558" style="fill: #333333"/>
    </g>
   </g>
   <g id="PathCollection_7">
    <g clip-path="url(#p690395af0b)">
     <use xlink:href="#mad323e6cf9" x="90.54" y="100.664072" style="fill: #333333"/>
    </g>
   </g>
   <g id="PathCollection_8">
    <g clip-path="url(#p690395af0b)">
     <use xlink:href="#mad323e6cf9" x="112.86" y="35.484139" style="fill: #333333"/>
    </g>
   </g>
   <g id="line2d_12"/>
   <g id="line2d_13"/>
  </g>
 </g>
 <defs>
  <clipPath id="p690395af0b">
   <rect x="18" y="15.552" width="111.6" height="99.792"/>
  </clipPath>
 </defs>
</svg>
