<?xml version="1.0" encoding="utf-8" standalone="no"?>
<!DOCTYPE svg PUBLIC "-//W3C//DTD SVG 1.1//EN"
  "http://www.w3.org/Graphics/SVG/1.1/DTD/svg11.dtd">
<svg xmlns:xlink="http://www.w3.org/1999/xlink" width="144pt" height="129.6pt" viewBox="0 0 144 129.6" xmlns="http://www.w3.org/2000/svg" version="1.1">
 <metadata>
  <rdf:RDF xmlns:dc="http://purl.org/dc/elements/1.1/" xmlns:cc="http://creativecommons.org/ns#" xmlns:rdf="http://www.w3.org/1999/02/22-rdf-syntax-ns#">
   <cc:Work>
    <dc:type rdf:resource="http://purl.org/dc/dcmitype/StillImage"/>
    <dc:date>2025-04-14T00:19:48.992558</dc:date>
    <dc:format>image/svg+xml</dc:format>
    <dc:creator>
     <cc:Agent>
      <dc:title>Matplotlib v3.7.1, https://matplotlib.org/</dc:title>
     </cc:Agent>
    </dc:creator>
   </cc:Work>
  </rdf:RDF>
 </metadata>
 <defs>
  <style type="text/css">*{stroke-linejoin: round; stroke-linecap: butt}</style>
 </defs>
 <g id="figure_1">
  <g id="patch_1">
   <path d="M 0 129.6 
L 144 129.6 
L 144 0 
L 0 0 
L 0 129.6 
z
" style="fill: none"/>
  </g>
  <g id="axes_1">
   <g id="patch_2">
    <path d="M 18 115.344 
L 129.6 115.344 
L 129.6 15.552 
L 18 15.552 
L 18 115.344 
z
" style="fill: none"/>
   </g>
   <g id="PolyCollection_1">
    <path d="M 34.791044 100.651795 
L 34.688956 100.651795 
L 34.670533 99.668447 
L 34.647866 98.6851 
L 34.62091 97.701752 
L 34.589984 96.718404 
L 34.555835 95.735056 
L 34.519663 94.751708 
L 34.483093 93.768361 
L 34.448074 92.785013 
L 34.41672 91.801665 
L 34.391105 90.818317 
L 34.37304 89.83497 
L 34.363857 88.851622 
L 34.364253 87.868274 
L 34.374198 86.884926 
L 34.392938 85.901578 
L 34.419095 84.918231 
L 34.450829 83.934883 
L 34.486054 82.951535 
L 34.522661 81.968187 
L 34.558723 80.98484 
L 34.592648 80.001492 
L 34.623271 79.018144 
L 34.649882 78.034796 
L 34.672196 77.051448 
L 34.690283 76.068101 
L 34.704473 75.084753 
L 34.715258 74.101405 
L 34.723208 73.118057 
L 34.728893 72.134709 
L 34.73284 71.151362 
L 34.735501 70.168014 
L 34.737244 69.184666 
L 34.738353 68.201318 
L 34.739035 67.217971 
L 34.739438 66.234623 
L 34.739659 65.251275 
L 34.739755 64.267927 
L 34.73975 63.284579 
L 34.73964 62.301232 
L 34.739387 61.317884 
L 34.738913 60.334536 
L 34.738085 59.351188 
L 34.736691 58.367841 
L 34.734416 57.384493 
L 34.730807 56.401145 
L 34.725235 55.417797 
L 34.716865 54.434449 
L 34.704633 53.451102 
L 34.687241 52.467754 
L 34.66319 51.484406 
L 34.630845 50.501058 
L 34.588544 49.517711 
L 34.534756 48.534363 
L 34.468262 47.551015 
L 34.388341 46.567667 
L 34.294928 45.584319 
L 34.188706 44.600972 
L 34.07109 43.617624 
L 33.944075 42.634276 
L 33.809946 41.650928 
L 33.670863 40.667581 
L 33.528352 39.684233 
L 33.382778 38.700885 
L 33.232874 37.717537 
L 33.075386 36.734189 
L 32.904911 35.750842 
L 32.713949 34.767494 
L 32.493202 33.784146 
L 32.232098 32.800798 
L 31.91953 31.817451 
L 31.544786 30.834103 
L 31.098652 29.850755 
L 30.574662 28.867407 
L 29.970453 27.884059 
L 29.289129 26.900712 
L 28.540511 25.917364 
L 27.742064 24.934016 
L 26.919244 23.950668 
L 26.105051 22.96732 
L 25.338562 21.983973 
L 24.662424 21.000625 
L 24.119407 20.017277 
L 23.748349 19.033929 
L 23.58 18.050582 
L 23.633362 17.067234 
L 23.913117 16.083886 
L 24.408605 15.100538 
L 25.094569 14.11719 
L 25.933614 13.133843 
L 26.880005 12.150495 
L 27.884257 11.167147 
L 28.897835 10.183799 
L 29.87731 9.200452 
L 30.787484 8.217104 
L 31.603197 7.233756 
L 32.309755 6.250408 
L 32.902181 5.26706 
L 33.383585 4.283713 
L 33.763047 3.300365 
L 35.716953 3.300365 
L 35.716953 3.300365 
L 36.096415 4.283713 
L 36.577819 5.26706 
L 37.170245 6.250408 
L 37.876803 7.233756 
L 38.692516 8.217104 
L 39.60269 9.200452 
L 40.582165 10.183799 
L 41.595743 11.167147 
L 42.599995 12.150495 
L 43.546386 13.133843 
L 44.385431 14.11719 
L 45.071395 15.100538 
L 45.566883 16.083886 
L 45.846638 17.067234 
L 45.9 18.050582 
L 45.731651 19.033929 
L 45.360593 20.017277 
L 44.817576 21.000625 
L 44.141438 21.983973 
L 43.374949 22.96732 
L 42.560756 23.950668 
L 41.737936 24.934016 
L 40.939489 25.917364 
L 40.190871 26.900712 
L 39.509547 27.884059 
L 38.905338 28.867407 
L 38.381348 29.850755 
L 37.935214 30.834103 
L 37.56047 31.817451 
L 37.247902 32.800798 
L 36.986798 33.784146 
L 36.766051 34.767494 
L 36.575089 35.750842 
L 36.404614 36.734189 
L 36.247126 37.717537 
L 36.097222 38.700885 
L 35.951648 39.684233 
L 35.809137 40.667581 
L 35.670054 41.650928 
L 35.535925 42.634276 
L 35.40891 43.617624 
L 35.291294 44.600972 
L 35.185072 45.584319 
L 35.091659 46.567667 
L 35.011738 47.551015 
L 34.945244 48.534363 
L 34.891456 49.517711 
L 34.849155 50.501058 
L 34.81681 51.484406 
L 34.792759 52.467754 
L 34.775367 53.451102 
L 34.763135 54.434449 
L 34.754765 55.417797 
L 34.749193 56.401145 
L 34.745584 57.384493 
L 34.743309 58.367841 
L 34.741915 59.351188 
L 34.741087 60.334536 
L 34.740613 61.317884 
L 34.74036 62.301232 
L 34.74025 63.284579 
L 34.740245 64.267927 
L 34.740341 65.251275 
L 34.740562 66.234623 
L 34.740965 67.217971 
L 34.741647 68.201318 
L 34.742756 69.184666 
L 34.744499 70.168014 
L 34.74716 71.151362 
L 34.751107 72.134709 
L 34.756792 73.118057 
L 34.764742 74.101405 
L 34.775527 75.084753 
L 34.789717 76.068101 
L 34.807804 77.051448 
L 34.830118 78.034796 
L 34.856729 79.018144 
L 34.887352 80.001492 
L 34.921277 80.98484 
L 34.957339 81.968187 
L 34.993946 82.951535 
L 35.029171 83.934883 
L 35.060905 84.918231 
L 35.087062 85.901578 
L 35.105802 86.884926 
L 35.115747 87.868274 
L 35.116143 88.851622 
L 35.10696 89.83497 
L 35.088895 90.818317 
L 35.06328 91.801665 
L 35.031926 92.785013 
L 34.996907 93.768361 
L 34.960337 94.751708 
L 34.924165 95.735056 
L 34.890016 96.718404 
L 34.85909 97.701752 
L 34.832134 98.6851 
L 34.809467 99.668447 
L 34.791044 100.651795 
z
" clip-path="url(#p445b0247f4)" style="fill: #20415a; fill-opacity: 0.35"/>
   </g>
   <g id="PolyCollection_2">
    <path d="M 57.893722 151.777952 
L 56.226278 151.777952 
L 56.041208 150.033913 
L 55.825483 148.289873 
L 55.576551 146.545834 
L 55.292219 144.801794 
L 54.970791 143.057755 
L 54.611215 141.313715 
L 54.213225 139.569676 
L 53.777479 137.825637 
L 53.305664 136.081597 
L 52.800593 134.337558 
L 52.266249 132.593518 
L 51.7078 130.849479 
L 51.131559 129.105439 
L 50.5449 127.3614 
L 49.956115 125.617361 
L 49.374227 123.873321 
L 48.808755 122.129282 
L 48.269445 120.385242 
L 47.765968 118.641203 
L 47.307606 116.897163 
L 46.902938 115.153124 
L 46.55953 113.409085 
L 46.283658 111.665045 
L 46.08007 109.921006 
L 45.951791 108.176966 
L 45.9 106.432927 
L 45.923966 104.688887 
L 46.021054 102.944848 
L 46.186806 101.200808 
L 46.415088 99.456769 
L 46.69829 97.71273 
L 47.027592 95.96869 
L 47.393254 94.224651 
L 47.784943 92.480611 
L 48.192069 90.736572 
L 48.604119 88.992532 
L 49.01098 87.248493 
L 49.403228 85.504454 
L 49.772389 83.760414 
L 50.111144 82.016375 
L 50.413495 80.272335 
L 50.674863 78.528296 
L 50.892144 76.784256 
L 51.063709 75.040217 
L 51.189346 73.296177 
L 51.270171 71.552138 
L 51.308496 69.808099 
L 51.307663 68.064059 
L 51.271869 66.32002 
L 51.205959 64.57598 
L 51.115229 62.831941 
L 51.005222 61.087901 
L 50.881534 59.343862 
L 50.749631 57.599823 
L 50.614694 55.855783 
L 50.481484 54.111744 
L 50.354233 52.367704 
L 50.236573 50.623665 
L 50.131495 48.879625 
L 50.041342 47.135586 
L 49.967832 45.391546 
L 49.912115 43.647507 
L 49.874844 41.903468 
L 49.856274 40.159428 
L 49.856367 38.415389 
L 49.874898 36.671349 
L 49.911556 34.92731 
L 49.966033 33.18327 
L 50.038094 31.439231 
L 50.127615 29.695192 
L 50.234604 27.951152 
L 50.359181 26.207113 
L 50.501544 24.463073 
L 50.661903 22.719034 
L 50.8404 20.974994 
L 51.037027 19.230955 
L 51.251535 17.486915 
L 51.483358 15.742876 
L 51.731548 13.998837 
L 51.99474 12.254797 
L 52.271134 10.510758 
L 52.558512 8.766718 
L 52.854284 7.022679 
L 53.155553 5.278639 
L 53.459209 3.5346 
L 53.762031 1.790561 
L 54.060799 0.046521 
L 54.352405 -1.697518 
L 54.633963 -3.441558 
L 54.902893 -5.185597 
L 55.157002 -6.929637 
L 55.394531 -8.673676 
L 55.61419 -10.417715 
L 55.815158 -12.161755 
L 55.997079 -13.905794 
L 56.160019 -15.649834 
L 56.304427 -17.393873 
L 56.431074 -19.137913 
L 56.540991 -20.881952 
L 57.579009 -20.881952 
L 57.579009 -20.881952 
L 57.688926 -19.137913 
L 57.815573 -17.393873 
L 57.959981 -15.649834 
L 58.122921 -13.905794 
L 58.304842 -12.161755 
L 58.50581 -10.417715 
L 58.725469 -8.673676 
L 58.962998 -6.929637 
L 59.217107 -5.185597 
L 59.486037 -3.441558 
L 59.767595 -1.697518 
L 60.059201 0.046521 
L 60.357969 1.790561 
L 60.660791 3.5346 
L 60.964447 5.278639 
L 61.265716 7.022679 
L 61.561488 8.766718 
L 61.848866 10.510758 
L 62.12526 12.254797 
L 62.388452 13.998837 
L 62.636642 15.742876 
L 62.868465 17.486915 
L 63.082973 19.230955 
L 63.2796 20.974994 
L 63.458097 22.719034 
L 63.618456 24.463073 
L 63.760819 26.207113 
L 63.885396 27.951152 
L 63.992385 29.695192 
L 64.081906 31.439231 
L 64.153967 33.18327 
L 64.208444 34.92731 
L 64.245102 36.671349 
L 64.263633 38.415389 
L 64.263726 40.159428 
L 64.245156 41.903468 
L 64.207885 43.647507 
L 64.152168 45.391546 
L 64.078658 47.135586 
L 63.988505 48.879625 
L 63.883427 50.623665 
L 63.765767 52.367704 
L 63.638516 54.111744 
L 63.505306 55.855783 
L 63.370369 57.599823 
L 63.238466 59.343862 
L 63.114778 61.087901 
L 63.004771 62.831941 
L 62.914041 64.57598 
L 62.848131 66.32002 
L 62.812337 68.064059 
L 62.811504 69.808099 
L 62.849829 71.552138 
L 62.930654 73.296177 
L 63.056291 75.040217 
L 63.227856 76.784256 
L 63.445137 78.528296 
L 63.706505 80.272335 
L 64.008856 82.016375 
L 64.347611 83.760414 
L 64.716772 85.504454 
L 65.10902 87.248493 
L 65.515881 88.992532 
L 65.927931 90.736572 
L 66.335057 92.480611 
L 66.726746 94.224651 
L 67.092408 95.96869 
L 67.42171 97.71273 
L 67.704912 99.456769 
L 67.933194 101.200808 
L 68.098946 102.944848 
L 68.196034 104.688887 
L 68.22 106.432927 
L 68.168209 108.176966 
L 68.03993 109.921006 
L 67.836342 111.665045 
L 67.56047 113.409085 
L 67.217062 115.153124 
L 66.812394 116.897163 
L 66.354032 118.641203 
L 65.850555 120.385242 
L 65.311245 122.129282 
L 64.745773 123.873321 
L 64.163885 125.617361 
L 63.5751 127.3614 
L 62.988441 129.105439 
L 62.4122 130.849479 
L 61.853751 132.593518 
L 61.319407 134.337558 
L 60.814336 136.081597 
L 60.342521 137.825637 
L 59.906775 139.569676 
L 59.508785 141.313715 
L 59.149209 143.057755 
L 58.827781 144.801794 
L 58.543449 146.545834 
L 58.294517 148.289873 
L 58.078792 150.033913 
L 57.893722 151.777952 
z
" clip-path="url(#p445b0247f4)" style="fill: #c1613e; fill-opacity: 0.35"/>
   </g>
   <g id="PolyCollection_3">
    <path d="M 91.379185 138.152134 
L 89.700815 138.152134 
L 89.470196 136.824483 
L 89.193246 135.496833 
L 88.865679 134.169183 
L 88.484172 132.841532 
L 88.046754 131.513882 
L 87.553174 130.186231 
L 87.005244 128.858581 
L 86.407098 127.530931 
L 85.765354 126.20328 
L 85.089131 124.87563 
L 84.389929 123.54798 
L 83.681329 122.220329 
L 82.97855 120.892679 
L 82.297862 119.565028 
L 81.655886 118.237378 
L 81.068847 116.909728 
L 80.551801 115.582077 
L 80.117914 114.254427 
L 79.777831 112.926777 
L 79.539186 111.599126 
L 79.40629 110.271476 
L 79.38 108.943825 
L 79.45779 107.616175 
L 79.633999 106.288525 
L 79.900238 104.960874 
L 80.245899 103.633224 
L 80.658758 102.305574 
L 81.125582 100.977923 
L 81.632741 99.650273 
L 82.16675 98.322622 
L 82.714745 96.994972 
L 83.264853 95.667322 
L 83.806462 94.339671 
L 84.330385 93.012021 
L 84.828941 91.68437 
L 85.295951 90.35672 
L 85.726685 89.02907 
L 86.117762 87.701419 
L 86.46704 86.373769 
L 86.773491 85.046119 
L 87.037084 83.718468 
L 87.258674 82.390818 
L 87.439903 81.063167 
L 87.583113 79.735517 
L 87.691256 78.407867 
L 87.767811 77.080216 
L 87.816698 75.752566 
L 87.842168 74.424916 
L 87.848704 73.097265 
L 87.840892 71.769615 
L 87.823296 70.441964 
L 87.800328 69.114314 
L 87.776117 67.786664 
L 87.754398 66.459013 
L 87.738411 65.131363 
L 87.730829 63.803713 
L 87.733717 62.476062 
L 87.74851 61.148412 
L 87.776033 59.820761 
L 87.81654 58.493111 
L 87.869773 57.165461 
L 87.935039 55.83781 
L 88.011291 54.51016 
L 88.097214 53.18251 
L 88.191301 51.854859 
L 88.291933 50.527209 
L 88.397442 49.199558 
L 88.506165 47.871908 
L 88.616504 46.544258 
L 88.726959 45.216607 
L 88.836175 43.888957 
L 88.94297 42.561306 
L 89.046368 41.233656 
L 89.145615 39.906006 
L 89.240193 38.578355 
L 89.329822 37.250705 
L 89.414444 35.923055 
L 89.494201 34.595404 
L 89.569397 33.267754 
L 89.640451 31.940103 
L 89.707843 30.612453 
L 89.772066 29.284803 
L 89.83357 27.957152 
L 89.892724 26.629502 
L 89.949785 25.301852 
L 90.004887 23.974201 
L 90.058035 22.646551 
L 90.10912 21.3189 
L 90.157946 19.99125 
L 90.204256 18.6636 
L 90.247771 17.335949 
L 90.288221 16.008299 
L 90.325377 14.680649 
L 90.359074 13.352998 
L 90.389224 12.025348 
L 90.415829 10.697697 
L 90.438969 9.370047 
L 90.458806 8.042397 
L 90.475561 6.714746 
L 90.604439 6.714746 
L 90.604439 6.714746 
L 90.621194 8.042397 
L 90.641031 9.370047 
L 90.664171 10.697697 
L 90.690776 12.025348 
L 90.720926 13.352998 
L 90.754623 14.680649 
L 90.791779 16.008299 
L 90.832229 17.335949 
L 90.875744 18.6636 
L 90.922054 19.99125 
L 90.97088 21.3189 
L 91.021965 22.646551 
L 91.075113 23.974201 
L 91.130215 25.301852 
L 91.187276 26.629502 
L 91.24643 27.957152 
L 91.307934 29.284803 
L 91.372157 30.612453 
L 91.439549 31.940103 
L 91.510603 33.267754 
L 91.585799 34.595404 
L 91.665556 35.923055 
L 91.750178 37.250705 
L 91.839807 38.578355 
L 91.934385 39.906006 
L 92.033632 41.233656 
L 92.13703 42.561306 
L 92.243825 43.888957 
L 92.353041 45.216607 
L 92.463496 46.544258 
L 92.573835 47.871908 
L 92.682558 49.199558 
L 92.788067 50.527209 
L 92.888699 51.854859 
L 92.982786 53.18251 
L 93.068709 54.51016 
L 93.144961 55.83781 
L 93.210227 57.165461 
L 93.26346 58.493111 
L 93.303967 59.820761 
L 93.33149 61.148412 
L 93.346283 62.476062 
L 93.349171 63.803713 
L 93.341589 65.131363 
L 93.325602 66.459013 
L 93.303883 67.786664 
L 93.279672 69.114314 
L 93.256704 70.441964 
L 93.239108 71.769615 
L 93.231296 73.097265 
L 93.237832 74.424916 
L 93.263302 75.752566 
L 93.312189 77.080216 
L 93.388744 78.407867 
L 93.496887 79.735517 
L 93.640097 81.063167 
L 93.821326 82.390818 
L 94.042916 83.718468 
L 94.306509 85.046119 
L 94.61296 86.373769 
L 94.962238 87.701419 
L 95.353315 89.02907 
L 95.784049 90.35672 
L 96.251059 91.68437 
L 96.749615 93.012021 
L 97.273538 94.339671 
L 97.815147 95.667322 
L 98.365255 96.994972 
L 98.91325 98.322622 
L 99.447259 99.650273 
L 99.954418 100.977923 
L 100.421242 102.305574 
L 100.834101 103.633224 
L 101.179762 104.960874 
L 101.446001 106.288525 
L 101.62221 107.616175 
L 101.7 108.943825 
L 101.67371 110.271476 
L 101.540814 111.599126 
L 101.302169 112.926777 
L 100.962086 114.254427 
L 100.528199 115.582077 
L 100.011153 116.909728 
L 99.424114 118.237378 
L 98.782138 119.565028 
L 98.10145 120.892679 
L 97.398671 122.220329 
L 96.690071 123.54798 
L 95.990869 124.87563 
L 95.314646 126.20328 
L 94.672902 127.530931 
L 94.074756 128.858581 
L 93.526826 130.186231 
L 93.033246 131.513882 
L 92.595828 132.841532 
L 92.214321 134.169183 
L 91.886754 135.496833 
L 91.609804 136.824483 
L 91.379185 138.152134 
z
" clip-path="url(#p445b0247f4)" style="fill: #20415a; fill-opacity: 0.35"/>
   </g>
   <g id="PolyCollection_4">
    <path d="M 113.047989 144.799502 
L 112.672011 144.799502 
L 112.626884 143.196441 
L 112.57419 141.593381 
L 112.513524 139.99032 
L 112.44467 138.38726 
L 112.367648 136.784199 
L 112.282753 135.181138 
L 112.190579 133.578078 
L 112.092035 131.975017 
L 111.988339 130.371956 
L 111.880993 128.768896 
L 111.771745 127.165835 
L 111.662527 125.562774 
L 111.555381 123.959714 
L 111.452372 122.356653 
L 111.355501 120.753592 
L 111.266614 119.150532 
L 111.18732 117.547471 
L 111.118921 115.94441 
L 111.062358 114.34135 
L 111.018178 112.738289 
L 110.98652 111.135228 
L 110.967115 109.532168 
L 110.959319 107.929107 
L 110.96214 106.326047 
L 110.974294 104.722986 
L 110.994254 103.119925 
L 111.020315 101.516865 
L 111.050649 99.913804 
L 111.083369 98.310743 
L 111.116585 96.707683 
L 111.148456 95.104622 
L 111.177251 93.501561 
L 111.201385 91.898501 
L 111.219471 90.29544 
L 111.230344 88.692379 
L 111.233092 87.089319 
L 111.227057 85.486258 
L 111.21183 83.883197 
L 111.187219 82.280137 
L 111.153206 80.677076 
L 111.109874 79.074016 
L 111.057327 77.470955 
L 110.995591 75.867894 
L 110.92452 74.264834 
L 110.843698 72.661773 
L 110.752364 71.058712 
L 110.64935 69.455652 
L 110.533058 67.852591 
L 110.401472 66.24953 
L 110.252209 64.64647 
L 110.082608 63.043409 
L 109.889861 61.440348 
L 109.67117 59.837288 
L 109.423928 58.234227 
L 109.145913 56.631166 
L 108.835483 55.028106 
L 108.491757 53.425045 
L 108.114779 51.821984 
L 107.705658 50.218924 
L 107.266657 48.615863 
L 106.801261 47.012803 
L 106.314185 45.409742 
L 105.811349 43.806681 
L 105.299801 42.203621 
L 104.787598 40.60056 
L 104.283651 38.997499 
L 103.797519 37.394439 
L 103.339179 35.791378 
L 102.918751 34.188317 
L 102.546209 32.585257 
L 102.231058 30.982196 
L 101.982012 29.379135 
L 101.806663 27.776075 
L 101.711176 26.173014 
L 101.7 24.569953 
L 101.775645 22.966893 
L 101.938507 21.363832 
L 102.186777 19.760772 
L 102.516444 18.157711 
L 102.921385 16.55465 
L 103.393554 14.95159 
L 103.923265 13.348529 
L 104.499543 11.745468 
L 105.110539 10.142408 
L 105.743977 8.539347 
L 106.387613 6.936286 
L 107.029674 5.333226 
L 107.659257 3.730165 
L 108.266664 2.127104 
L 108.843662 0.524044 
L 109.383651 -1.079017 
L 109.881743 -2.682078 
L 110.33475 -4.285138 
L 110.741103 -5.888199 
L 111.100695 -7.49126 
L 111.414683 -9.09432 
L 111.685257 -10.697381 
L 111.915395 -12.300441 
L 112.108627 -13.903502 
L 113.611373 -13.903502 
L 113.611373 -13.903502 
L 113.804605 -12.300441 
L 114.034743 -10.697381 
L 114.305317 -9.09432 
L 114.619305 -7.49126 
L 114.978897 -5.888199 
L 115.38525 -4.285138 
L 115.838257 -2.682078 
L 116.336349 -1.079017 
L 116.876338 0.524044 
L 117.453336 2.127104 
L 118.060743 3.730165 
L 118.690326 5.333226 
L 119.332387 6.936286 
L 119.976023 8.539347 
L 120.609461 10.142408 
L 121.220457 11.745468 
L 121.796735 13.348529 
L 122.326446 14.95159 
L 122.798615 16.55465 
L 123.203556 18.157711 
L 123.533223 19.760772 
L 123.781493 21.363832 
L 123.944355 22.966893 
L 124.02 24.569953 
L 124.008824 26.173014 
L 123.913337 27.776075 
L 123.737988 29.379135 
L 123.488942 30.982196 
L 123.173791 32.585257 
L 122.801249 34.188317 
L 122.380821 35.791378 
L 121.922481 37.394439 
L 121.436349 38.997499 
L 120.932402 40.60056 
L 120.420199 42.203621 
L 119.908651 43.806681 
L 119.405815 45.409742 
L 118.918739 47.012803 
L 118.453343 48.615863 
L 118.014342 50.218924 
L 117.605221 51.821984 
L 117.228243 53.425045 
L 116.884517 55.028106 
L 116.574087 56.631166 
L 116.296072 58.234227 
L 116.04883 59.837288 
L 115.830139 61.440348 
L 115.637392 63.043409 
L 115.467791 64.64647 
L 115.318528 66.24953 
L 115.186942 67.852591 
L 115.07065 69.455652 
L 114.967636 71.058712 
L 114.876302 72.661773 
L 114.79548 74.264834 
L 114.724409 75.867894 
L 114.662673 77.470955 
L 114.610126 79.074016 
L 114.566794 80.677076 
L 114.532781 82.280137 
L 114.50817 83.883197 
L 114.492943 85.486258 
L 114.486908 87.089319 
L 114.489656 88.692379 
L 114.500529 90.29544 
L 114.518615 91.898501 
L 114.542749 93.501561 
L 114.571544 95.104622 
L 114.603415 96.707683 
L 114.636631 98.310743 
L 114.669351 99.913804 
L 114.699685 101.516865 
L 114.725746 103.119925 
L 114.745706 104.722986 
L 114.75786 106.326047 
L 114.760681 107.929107 
L 114.752885 109.532168 
L 114.73348 111.135228 
L 114.701822 112.738289 
L 114.657642 114.34135 
L 114.601079 115.94441 
L 114.53268 117.547471 
L 114.453386 119.150532 
L 114.364499 120.753592 
L 114.267628 122.356653 
L 114.164619 123.959714 
L 114.057473 125.562774 
L 113.948255 127.165835 
L 113.839007 128.768896 
L 113.731661 130.371956 
L 113.627965 131.975017 
L 113.529421 133.578078 
L 113.437247 135.181138 
L 113.352352 136.784199 
L 113.27533 138.38726 
L 113.206476 139.99032 
L 113.14581 141.593381 
L 113.093116 143.196441 
L 113.047989 144.799502 
z
" clip-path="url(#p445b0247f4)" style="fill: #c1613e; fill-opacity: 0.35"/>
   </g>
   <g id="patch_3">
    <path d="M 23.58 115.344 
L 45.9 115.344 
L 45.9 21.828392 
L 23.58 21.828392 
L 23.58 115.344 
z
" clip-path="url(#p445b0247f4)" style="fill: none"/>
   </g>
   <g id="patch_4">
    <path d="M 79.38 115.344 
L 101.7 115.344 
L 101.7 95.910821 
L 79.38 95.910821 
L 79.38 115.344 
z
" clip-path="url(#p445b0247f4)" style="fill: none"/>
   </g>
   <g id="patch_5">
    <path d="M 45.9 115.344 
L 68.22 115.344 
L 68.22 73.904059 
L 45.9 73.904059 
L 45.9 115.344 
z
" clip-path="url(#p445b0247f4)" style="fill: none"/>
   </g>
   <g id="patch_6">
    <path d="M 101.7 115.344 
L 124.02 115.344 
L 124.02 40.5 
L 101.7 40.5 
L 101.7 115.344 
z
" clip-path="url(#p445b0247f4)" style="fill: none"/>
   </g>
   <g id="patch_7">
    <path d="M 45.9 115.344 
L 45.9 115.344 
L 45.9 115.344 
L 45.9 115.344 
z
" clip-path="url(#p445b0247f4)" style="fill: #3274a1"/>
   </g>
   <g id="patch_8">
    <path d="M 45.9 115.344 
L 45.9 115.344 
L 45.9 115.344 
L 45.9 115.344 
z
" clip-path="url(#p445b0247f4)" style="fill: #e1812c"/>
   </g>
   <g id="patch_9">
    <path d="M 23.58 115.344 
L 45.9 115.344 
L 45.9 21.828392 
L 23.58 21.828392 
z
" clip-path="url(#p445b0247f4)" style="fill: #20415a; opacity: 0.3; stroke: #000000; stroke-linejoin: miter"/>
   </g>
   <g id="patch_10">
    <path d="M 79.38 115.344 
L 101.7 115.344 
L 101.7 95.910821 
L 79.38 95.910821 
z
" clip-path="url(#p445b0247f4)" style="fill: #20415a; opacity: 0.3; stroke: #000000; stroke-linejoin: miter"/>
   </g>
   <g id="patch_11">
    <path d="M 45.9 115.344 
L 68.22 115.344 
L 68.22 73.904059 
L 45.9 73.904059 
z
" clip-path="url(#p445b0247f4)" style="fill: #c1613e; opacity: 0.3; stroke: #000000; stroke-linejoin: miter"/>
   </g>
   <g id="patch_12">
    <path d="M 101.7 115.344 
L 124.02 115.344 
L 124.02 40.5 
L 101.7 40.5 
z
" clip-path="url(#p445b0247f4)" style="fill: #c1613e; opacity: 0.3; stroke: #000000; stroke-linejoin: miter"/>
   </g>
   <g id="patch_13">
    <path d="M 45.9 115.344 
L 45.9 115.344 
L 45.9 115.344 
L 45.9 115.344 
z
" clip-path="url(#p445b0247f4)" style="fill: #20415a; opacity: 0.3; stroke: #000000; stroke-linejoin: miter"/>
   </g>
   <g id="patch_14">
    <path d="M 45.9 115.344 
L 45.9 115.344 
L 45.9 115.344 
L 45.9 115.344 
z
" clip-path="url(#p445b0247f4)" style="fill: #c1613e; opacity: 0.3; stroke: #000000; stroke-linejoin: miter"/>
   </g>
   <g id="matplotlib.axis_1">
    <g id="xtick_1">
     <g id="line2d_1">
      <defs>
       <path id="mddf629a2dd" d="M 0 0 
L 0 3.5 
" style="stroke: #000000"/>
      </defs>
      <g>
       <use xlink:href="#mddf629a2dd" x="45.9" y="115.344" style="stroke: #000000"/>
      </g>
     </g>
     <g id="text_1">
      <!-- reward -->
      <g transform="translate(30.617969 129.501812) scale(0.1 -0.1)">
       <defs>
        <path id="ArialMT-72" d="M 416 0 
L 416 3319 
L 922 3319 
L 922 2816 
Q 1116 3169 1280 3281 
Q 1444 3394 1641 3394 
Q 1925 3394 2219 3213 
L 2025 2691 
Q 1819 2813 1613 2813 
Q 1428 2813 1281 2702 
Q 1134 2591 1072 2394 
Q 978 2094 978 1738 
L 978 0 
L 416 0 
z
" transform="scale(0.015625)"/>
        <path id="ArialMT-65" d="M 2694 1069 
L 3275 997 
Q 3138 488 2766 206 
Q 2394 -75 1816 -75 
Q 1088 -75 661 373 
Q 234 822 234 1631 
Q 234 2469 665 2931 
Q 1097 3394 1784 3394 
Q 2450 3394 2872 2941 
Q 3294 2488 3294 1666 
Q 3294 1616 3291 1516 
L 816 1516 
Q 847 969 1125 678 
Q 1403 388 1819 388 
Q 2128 388 2347 550 
Q 2566 713 2694 1069 
z
M 847 1978 
L 2700 1978 
Q 2663 2397 2488 2606 
Q 2219 2931 1791 2931 
Q 1403 2931 1139 2672 
Q 875 2413 847 1978 
z
" transform="scale(0.015625)"/>
        <path id="ArialMT-77" d="M 1034 0 
L 19 3319 
L 600 3319 
L 1128 1403 
L 1325 691 
Q 1338 744 1497 1375 
L 2025 3319 
L 2603 3319 
L 3100 1394 
L 3266 759 
L 3456 1400 
L 4025 3319 
L 4572 3319 
L 3534 0 
L 2950 0 
L 2422 1988 
L 2294 2553 
L 1622 0 
L 1034 0 
z
" transform="scale(0.015625)"/>
        <path id="ArialMT-61" d="M 2588 409 
Q 2275 144 1986 34 
Q 1697 -75 1366 -75 
Q 819 -75 525 192 
Q 231 459 231 875 
Q 231 1119 342 1320 
Q 453 1522 633 1644 
Q 813 1766 1038 1828 
Q 1203 1872 1538 1913 
Q 2219 1994 2541 2106 
Q 2544 2222 2544 2253 
Q 2544 2597 2384 2738 
Q 2169 2928 1744 2928 
Q 1347 2928 1158 2789 
Q 969 2650 878 2297 
L 328 2372 
Q 403 2725 575 2942 
Q 747 3159 1072 3276 
Q 1397 3394 1825 3394 
Q 2250 3394 2515 3294 
Q 2781 3194 2906 3042 
Q 3031 2891 3081 2659 
Q 3109 2516 3109 2141 
L 3109 1391 
Q 3109 606 3145 398 
Q 3181 191 3288 0 
L 2700 0 
Q 2613 175 2588 409 
z
M 2541 1666 
Q 2234 1541 1622 1453 
Q 1275 1403 1131 1340 
Q 988 1278 909 1158 
Q 831 1038 831 891 
Q 831 666 1001 516 
Q 1172 366 1500 366 
Q 1825 366 2078 508 
Q 2331 650 2450 897 
Q 2541 1088 2541 1459 
L 2541 1666 
z
" transform="scale(0.015625)"/>
        <path id="ArialMT-64" d="M 2575 0 
L 2575 419 
Q 2259 -75 1647 -75 
Q 1250 -75 917 144 
Q 584 363 401 755 
Q 219 1147 219 1656 
Q 219 2153 384 2558 
Q 550 2963 881 3178 
Q 1213 3394 1622 3394 
Q 1922 3394 2156 3267 
Q 2391 3141 2538 2938 
L 2538 4581 
L 3097 4581 
L 3097 0 
L 2575 0 
z
M 797 1656 
Q 797 1019 1065 703 
Q 1334 388 1700 388 
Q 2069 388 2326 689 
Q 2584 991 2584 1609 
Q 2584 2291 2321 2609 
Q 2059 2928 1675 2928 
Q 1300 2928 1048 2622 
Q 797 2316 797 1656 
z
" transform="scale(0.015625)"/>
       </defs>
       <use xlink:href="#ArialMT-72"/>
       <use xlink:href="#ArialMT-65" x="33.300781"/>
       <use xlink:href="#ArialMT-77" x="88.916016"/>
       <use xlink:href="#ArialMT-61" x="161.132812"/>
       <use xlink:href="#ArialMT-72" x="216.748047"/>
       <use xlink:href="#ArialMT-64" x="250.048828"/>
      </g>
     </g>
    </g>
    <g id="xtick_2">
     <g id="line2d_2">
      <g>
       <use xlink:href="#mddf629a2dd" x="101.7" y="115.344" style="stroke: #000000"/>
      </g>
     </g>
     <g id="text_2">
      <!-- unrewarded -->
      <g transform="translate(75.296094 129.501812) scale(0.1 -0.1)">
       <defs>
        <path id="ArialMT-75" d="M 2597 0 
L 2597 488 
Q 2209 -75 1544 -75 
Q 1250 -75 995 37 
Q 741 150 617 320 
Q 494 491 444 738 
Q 409 903 409 1263 
L 409 3319 
L 972 3319 
L 972 1478 
Q 972 1038 1006 884 
Q 1059 663 1231 536 
Q 1403 409 1656 409 
Q 1909 409 2131 539 
Q 2353 669 2445 892 
Q 2538 1116 2538 1541 
L 2538 3319 
L 3100 3319 
L 3100 0 
L 2597 0 
z
" transform="scale(0.015625)"/>
        <path id="ArialMT-6e" d="M 422 0 
L 422 3319 
L 928 3319 
L 928 2847 
Q 1294 3394 1984 3394 
Q 2284 3394 2536 3286 
Q 2788 3178 2913 3003 
Q 3038 2828 3088 2588 
Q 3119 2431 3119 2041 
L 3119 0 
L 2556 0 
L 2556 2019 
Q 2556 2363 2490 2533 
Q 2425 2703 2258 2804 
Q 2091 2906 1866 2906 
Q 1506 2906 1245 2678 
Q 984 2450 984 1813 
L 984 0 
L 422 0 
z
" transform="scale(0.015625)"/>
       </defs>
       <use xlink:href="#ArialMT-75"/>
       <use xlink:href="#ArialMT-6e" x="55.615234"/>
       <use xlink:href="#ArialMT-72" x="111.230469"/>
       <use xlink:href="#ArialMT-65" x="144.53125"/>
       <use xlink:href="#ArialMT-77" x="200.146484"/>
       <use xlink:href="#ArialMT-61" x="272.363281"/>
       <use xlink:href="#ArialMT-72" x="327.978516"/>
       <use xlink:href="#ArialMT-64" x="361.279297"/>
       <use xlink:href="#ArialMT-65" x="416.894531"/>
       <use xlink:href="#ArialMT-64" x="472.509766"/>
      </g>
     </g>
    </g>
   </g>
   <g id="matplotlib.axis_2">
    <g id="ytick_1">
     <g id="line2d_3">
      <defs>
       <path id="m42d515622e" d="M 0 0 
L -3.5 0 
" style="stroke: #000000"/>
      </defs>
      <g>
       <use xlink:href="#m42d515622e" x="18" y="115.344" style="stroke: #000000"/>
      </g>
     </g>
     <g id="text_3">
      <!-- 0.00 -->
      <g transform="translate(-8.460938 118.922906) scale(0.1 -0.1)">
       <defs>
        <path id="ArialMT-30" d="M 266 2259 
Q 266 3072 433 3567 
Q 600 4063 929 4331 
Q 1259 4600 1759 4600 
Q 2128 4600 2406 4451 
Q 2684 4303 2865 4023 
Q 3047 3744 3150 3342 
Q 3253 2941 3253 2259 
Q 3253 1453 3087 958 
Q 2922 463 2592 192 
Q 2263 -78 1759 -78 
Q 1097 -78 719 397 
Q 266 969 266 2259 
z
M 844 2259 
Q 844 1131 1108 757 
Q 1372 384 1759 384 
Q 2147 384 2411 759 
Q 2675 1134 2675 2259 
Q 2675 3391 2411 3762 
Q 2147 4134 1753 4134 
Q 1366 4134 1134 3806 
Q 844 3388 844 2259 
z
" transform="scale(0.015625)"/>
        <path id="ArialMT-2e" d="M 581 0 
L 581 641 
L 1222 641 
L 1222 0 
L 581 0 
z
" transform="scale(0.015625)"/>
       </defs>
       <use xlink:href="#ArialMT-30"/>
       <use xlink:href="#ArialMT-2e" x="55.615234"/>
       <use xlink:href="#ArialMT-30" x="83.398438"/>
       <use xlink:href="#ArialMT-30" x="139.013672"/>
      </g>
     </g>
    </g>
    <g id="ytick_2">
     <g id="line2d_4">
      <g>
       <use xlink:href="#m42d515622e" x="18" y="90.396" style="stroke: #000000"/>
      </g>
     </g>
     <g id="text_4">
      <!-- 0.25 -->
      <g transform="translate(-8.460938 93.974906) scale(0.1 -0.1)">
       <defs>
        <path id="ArialMT-32" d="M 3222 541 
L 3222 0 
L 194 0 
Q 188 203 259 391 
Q 375 700 629 1000 
Q 884 1300 1366 1694 
Q 2113 2306 2375 2664 
Q 2638 3022 2638 3341 
Q 2638 3675 2398 3904 
Q 2159 4134 1775 4134 
Q 1369 4134 1125 3890 
Q 881 3647 878 3216 
L 300 3275 
Q 359 3922 746 4261 
Q 1134 4600 1788 4600 
Q 2447 4600 2831 4234 
Q 3216 3869 3216 3328 
Q 3216 3053 3103 2787 
Q 2991 2522 2730 2228 
Q 2469 1934 1863 1422 
Q 1356 997 1212 845 
Q 1069 694 975 541 
L 3222 541 
z
" transform="scale(0.015625)"/>
        <path id="ArialMT-35" d="M 266 1200 
L 856 1250 
Q 922 819 1161 601 
Q 1400 384 1738 384 
Q 2144 384 2425 690 
Q 2706 997 2706 1503 
Q 2706 1984 2436 2262 
Q 2166 2541 1728 2541 
Q 1456 2541 1237 2417 
Q 1019 2294 894 2097 
L 366 2166 
L 809 4519 
L 3088 4519 
L 3088 3981 
L 1259 3981 
L 1013 2750 
Q 1425 3038 1878 3038 
Q 2478 3038 2890 2622 
Q 3303 2206 3303 1553 
Q 3303 931 2941 478 
Q 2500 -78 1738 -78 
Q 1113 -78 717 272 
Q 322 622 266 1200 
z
" transform="scale(0.015625)"/>
       </defs>
       <use xlink:href="#ArialMT-30"/>
       <use xlink:href="#ArialMT-2e" x="55.615234"/>
       <use xlink:href="#ArialMT-32" x="83.398438"/>
       <use xlink:href="#ArialMT-35" x="139.013672"/>
      </g>
     </g>
    </g>
    <g id="ytick_3">
     <g id="line2d_5">
      <g>
       <use xlink:href="#m42d515622e" x="18" y="65.448" style="stroke: #000000"/>
      </g>
     </g>
     <g id="text_5">
      <!-- 0.50 -->
      <g transform="translate(-8.460938 69.026906) scale(0.1 -0.1)">
       <use xlink:href="#ArialMT-30"/>
       <use xlink:href="#ArialMT-2e" x="55.615234"/>
       <use xlink:href="#ArialMT-35" x="83.398438"/>
       <use xlink:href="#ArialMT-30" x="139.013672"/>
      </g>
     </g>
    </g>
    <g id="ytick_4">
     <g id="line2d_6">
      <g>
       <use xlink:href="#m42d515622e" x="18" y="40.5" style="stroke: #000000"/>
      </g>
     </g>
     <g id="text_6">
      <!-- 0.75 -->
      <g transform="translate(-8.460938 44.078906) scale(0.1 -0.1)">
       <defs>
        <path id="ArialMT-37" d="M 303 3981 
L 303 4522 
L 3269 4522 
L 3269 4084 
Q 2831 3619 2401 2847 
Q 1972 2075 1738 1259 
Q 1569 684 1522 0 
L 944 0 
Q 953 541 1156 1306 
Q 1359 2072 1739 2783 
Q 2119 3494 2547 3981 
L 303 3981 
z
" transform="scale(0.015625)"/>
       </defs>
       <use xlink:href="#ArialMT-30"/>
       <use xlink:href="#ArialMT-2e" x="55.615234"/>
       <use xlink:href="#ArialMT-37" x="83.398438"/>
       <use xlink:href="#ArialMT-35" x="139.013672"/>
      </g>
     </g>
    </g>
    <g id="ytick_5">
     <g id="line2d_7">
      <g>
       <use xlink:href="#m42d515622e" x="18" y="15.552" style="stroke: #000000"/>
      </g>
     </g>
     <g id="text_7">
      <!-- 1.00 -->
      <g transform="translate(-8.460938 19.130906) scale(0.1 -0.1)">
       <defs>
        <path id="ArialMT-31" d="M 2384 0 
L 1822 0 
L 1822 3584 
Q 1619 3391 1289 3197 
Q 959 3003 697 2906 
L 697 3450 
Q 1169 3672 1522 3987 
Q 1875 4303 2022 4600 
L 2384 4600 
L 2384 0 
z
" transform="scale(0.015625)"/>
       </defs>
       <use xlink:href="#ArialMT-31"/>
       <use xlink:href="#ArialMT-2e" x="55.615234"/>
       <use xlink:href="#ArialMT-30" x="83.398438"/>
       <use xlink:href="#ArialMT-30" x="139.013672"/>
      </g>
     </g>
    </g>
    <g id="text_8">
     <!-- stay probability -->
     <g transform="translate(-14.565625 98.795656) rotate(-90) scale(0.1 -0.1)">
      <defs>
       <path id="ArialMT-73" d="M 197 991 
L 753 1078 
Q 800 744 1014 566 
Q 1228 388 1613 388 
Q 2000 388 2187 545 
Q 2375 703 2375 916 
Q 2375 1106 2209 1216 
Q 2094 1291 1634 1406 
Q 1016 1563 777 1677 
Q 538 1791 414 1992 
Q 291 2194 291 2438 
Q 291 2659 392 2848 
Q 494 3038 669 3163 
Q 800 3259 1026 3326 
Q 1253 3394 1513 3394 
Q 1903 3394 2198 3281 
Q 2494 3169 2634 2976 
Q 2775 2784 2828 2463 
L 2278 2388 
Q 2241 2644 2061 2787 
Q 1881 2931 1553 2931 
Q 1166 2931 1000 2803 
Q 834 2675 834 2503 
Q 834 2394 903 2306 
Q 972 2216 1119 2156 
Q 1203 2125 1616 2013 
Q 2213 1853 2448 1751 
Q 2684 1650 2818 1456 
Q 2953 1263 2953 975 
Q 2953 694 2789 445 
Q 2625 197 2315 61 
Q 2006 -75 1616 -75 
Q 969 -75 630 194 
Q 291 463 197 991 
z
" transform="scale(0.015625)"/>
       <path id="ArialMT-74" d="M 1650 503 
L 1731 6 
Q 1494 -44 1306 -44 
Q 1000 -44 831 53 
Q 663 150 594 308 
Q 525 466 525 972 
L 525 2881 
L 113 2881 
L 113 3319 
L 525 3319 
L 525 4141 
L 1084 4478 
L 1084 3319 
L 1650 3319 
L 1650 2881 
L 1084 2881 
L 1084 941 
Q 1084 700 1114 631 
Q 1144 563 1211 522 
Q 1278 481 1403 481 
Q 1497 481 1650 503 
z
" transform="scale(0.015625)"/>
       <path id="ArialMT-79" d="M 397 -1278 
L 334 -750 
Q 519 -800 656 -800 
Q 844 -800 956 -737 
Q 1069 -675 1141 -563 
Q 1194 -478 1313 -144 
Q 1328 -97 1363 -6 
L 103 3319 
L 709 3319 
L 1400 1397 
Q 1534 1031 1641 628 
Q 1738 1016 1872 1384 
L 2581 3319 
L 3144 3319 
L 1881 -56 
Q 1678 -603 1566 -809 
Q 1416 -1088 1222 -1217 
Q 1028 -1347 759 -1347 
Q 597 -1347 397 -1278 
z
" transform="scale(0.015625)"/>
       <path id="ArialMT-20" transform="scale(0.015625)"/>
       <path id="ArialMT-70" d="M 422 -1272 
L 422 3319 
L 934 3319 
L 934 2888 
Q 1116 3141 1344 3267 
Q 1572 3394 1897 3394 
Q 2322 3394 2647 3175 
Q 2972 2956 3137 2557 
Q 3303 2159 3303 1684 
Q 3303 1175 3120 767 
Q 2938 359 2589 142 
Q 2241 -75 1856 -75 
Q 1575 -75 1351 44 
Q 1128 163 984 344 
L 984 -1272 
L 422 -1272 
z
M 931 1641 
Q 931 1000 1190 694 
Q 1450 388 1819 388 
Q 2194 388 2461 705 
Q 2728 1022 2728 1688 
Q 2728 2322 2467 2637 
Q 2206 2953 1844 2953 
Q 1484 2953 1207 2617 
Q 931 2281 931 1641 
z
" transform="scale(0.015625)"/>
       <path id="ArialMT-6f" d="M 213 1659 
Q 213 2581 725 3025 
Q 1153 3394 1769 3394 
Q 2453 3394 2887 2945 
Q 3322 2497 3322 1706 
Q 3322 1066 3130 698 
Q 2938 331 2570 128 
Q 2203 -75 1769 -75 
Q 1072 -75 642 372 
Q 213 819 213 1659 
z
M 791 1659 
Q 791 1022 1069 705 
Q 1347 388 1769 388 
Q 2188 388 2466 706 
Q 2744 1025 2744 1678 
Q 2744 2294 2464 2611 
Q 2184 2928 1769 2928 
Q 1347 2928 1069 2612 
Q 791 2297 791 1659 
z
" transform="scale(0.015625)"/>
       <path id="ArialMT-62" d="M 941 0 
L 419 0 
L 419 4581 
L 981 4581 
L 981 2947 
Q 1338 3394 1891 3394 
Q 2197 3394 2470 3270 
Q 2744 3147 2920 2923 
Q 3097 2700 3197 2384 
Q 3297 2069 3297 1709 
Q 3297 856 2875 390 
Q 2453 -75 1863 -75 
Q 1275 -75 941 416 
L 941 0 
z
M 934 1684 
Q 934 1088 1097 822 
Q 1363 388 1816 388 
Q 2184 388 2453 708 
Q 2722 1028 2722 1663 
Q 2722 2313 2464 2622 
Q 2206 2931 1841 2931 
Q 1472 2931 1203 2611 
Q 934 2291 934 1684 
z
" transform="scale(0.015625)"/>
       <path id="ArialMT-69" d="M 425 3934 
L 425 4581 
L 988 4581 
L 988 3934 
L 425 3934 
z
M 425 0 
L 425 3319 
L 988 3319 
L 988 0 
L 425 0 
z
" transform="scale(0.015625)"/>
       <path id="ArialMT-6c" d="M 409 0 
L 409 4581 
L 972 4581 
L 972 0 
L 409 0 
z
" transform="scale(0.015625)"/>
      </defs>
      <use xlink:href="#ArialMT-73"/>
      <use xlink:href="#ArialMT-74" x="50"/>
      <use xlink:href="#ArialMT-61" x="77.783203"/>
      <use xlink:href="#ArialMT-79" x="133.398438"/>
      <use xlink:href="#ArialMT-20" x="183.398438"/>
      <use xlink:href="#ArialMT-70" x="211.181641"/>
      <use xlink:href="#ArialMT-72" x="266.796875"/>
      <use xlink:href="#ArialMT-6f" x="300.097656"/>
      <use xlink:href="#ArialMT-62" x="355.712891"/>
      <use xlink:href="#ArialMT-61" x="411.328125"/>
      <use xlink:href="#ArialMT-62" x="466.943359"/>
      <use xlink:href="#ArialMT-69" x="522.558594"/>
      <use xlink:href="#ArialMT-6c" x="544.775391"/>
      <use xlink:href="#ArialMT-69" x="566.992188"/>
      <use xlink:href="#ArialMT-74" x="589.208984"/>
      <use xlink:href="#ArialMT-79" x="616.992188"/>
     </g>
    </g>
   </g>
   <g id="PathCollection_1">
    <defs>
     <path id="C0_0_d7a6d40d14" d="M 0 3.5 
C 0.928211 3.5 1.81853 3.131218 2.474874 2.474874 
C 3.131218 1.81853 3.5 0.928211 3.5 -0 
C 3.5 -0.928211 3.131218 -1.81853 2.474874 -2.474874 
C 1.81853 -3.131218 0.928211 -3.5 0 -3.5 
C -0.928211 -3.5 -1.81853 -3.131218 -2.474874 -2.474874 
C -3.131218 -1.81853 -3.5 -0.928211 -3.5 0 
C -3.5 0.928211 -3.131218 1.81853 -2.474874 2.474874 
C -1.81853 3.131218 -0.928211 3.5 0 3.5 
z
"/>
    </defs>
    <g clip-path="url(#p445b0247f4)">
     <use xlink:href="#C0_0_d7a6d40d14" x="34.79051" y="15.552" style="fill: #174263; fill-opacity: 0.45"/>
    </g>
    <g clip-path="url(#p445b0247f4)">
     <use xlink:href="#C0_0_d7a6d40d14" x="32.380448" y="15.552" style="fill: #174263; fill-opacity: 0.45"/>
    </g>
    <g clip-path="url(#p445b0247f4)">
     <use xlink:href="#C0_0_d7a6d40d14" x="33.899556" y="24.53328" style="fill: #174263; fill-opacity: 0.45"/>
    </g>
    <g clip-path="url(#p445b0247f4)">
     <use xlink:href="#C0_0_d7a6d40d14" x="34.81117" y="15.552" style="fill: #174263; fill-opacity: 0.45"/>
    </g>
    <g clip-path="url(#p445b0247f4)">
     <use xlink:href="#C0_0_d7a6d40d14" x="32.386906" y="15.552" style="fill: #174263; fill-opacity: 0.45"/>
    </g>
    <g clip-path="url(#p445b0247f4)">
     <use xlink:href="#C0_0_d7a6d40d14" x="34.012633" y="17.54784" style="fill: #174263; fill-opacity: 0.45"/>
    </g>
    <g clip-path="url(#p445b0247f4)">
     <use xlink:href="#C0_0_d7a6d40d14" x="32.960771" y="15.552" style="fill: #174263; fill-opacity: 0.45"/>
    </g>
    <g clip-path="url(#p445b0247f4)">
     <use xlink:href="#C0_0_d7a6d40d14" x="36.91588" y="29.52288" style="fill: #174263; fill-opacity: 0.45"/>
    </g>
    <g clip-path="url(#p445b0247f4)">
     <use xlink:href="#C0_0_d7a6d40d14" x="32.328835" y="15.552" style="fill: #174263; fill-opacity: 0.45"/>
    </g>
    <g clip-path="url(#p445b0247f4)">
     <use xlink:href="#C0_0_d7a6d40d14" x="34.612223" y="15.552" style="fill: #174263; fill-opacity: 0.45"/>
    </g>
    <g clip-path="url(#p445b0247f4)">
     <use xlink:href="#C0_0_d7a6d40d14" x="36.3604" y="17.54784" style="fill: #174263; fill-opacity: 0.45"/>
    </g>
    <g clip-path="url(#p445b0247f4)">
     <use xlink:href="#C0_0_d7a6d40d14" x="32.777394" y="23.53536" style="fill: #174263; fill-opacity: 0.45"/>
    </g>
    <g clip-path="url(#p445b0247f4)">
     <use xlink:href="#C0_0_d7a6d40d14" x="33.828941" y="18.54576" style="fill: #174263; fill-opacity: 0.45"/>
    </g>
    <g clip-path="url(#p445b0247f4)">
     <use xlink:href="#C0_0_d7a6d40d14" x="36.553983" y="15.552" style="fill: #174263; fill-opacity: 0.45"/>
    </g>
    <g clip-path="url(#p445b0247f4)">
     <use xlink:href="#C0_0_d7a6d40d14" x="34.157008" y="15.552" style="fill: #174263; fill-opacity: 0.45"/>
    </g>
    <g clip-path="url(#p445b0247f4)">
     <use xlink:href="#C0_0_d7a6d40d14" x="36.835551" y="88.40016" style="fill: #174263; fill-opacity: 0.45"/>
    </g>
    <g clip-path="url(#p445b0247f4)">
     <use xlink:href="#C0_0_d7a6d40d14" x="33.640899" y="18.54576" style="fill: #174263; fill-opacity: 0.45"/>
    </g>
    <g clip-path="url(#p445b0247f4)">
     <use xlink:href="#C0_0_d7a6d40d14" x="34.594104" y="15.552" style="fill: #174263; fill-opacity: 0.45"/>
    </g>
    <g clip-path="url(#p445b0247f4)">
     <use xlink:href="#C0_0_d7a6d40d14" x="32.490941" y="37.50624" style="fill: #174263; fill-opacity: 0.45"/>
    </g>
    <g clip-path="url(#p445b0247f4)">
     <use xlink:href="#C0_0_d7a6d40d14" x="33.973112" y="38.50416" style="fill: #174263; fill-opacity: 0.45"/>
    </g>
    <g clip-path="url(#p445b0247f4)">
     <use xlink:href="#C0_0_d7a6d40d14" x="33.424139" y="25.5312" style="fill: #174263; fill-opacity: 0.45"/>
    </g>
    <g clip-path="url(#p445b0247f4)">
     <use xlink:href="#C0_0_d7a6d40d14" x="35.347009" y="24.53328" style="fill: #174263; fill-opacity: 0.45"/>
    </g>
    <g clip-path="url(#p445b0247f4)">
     <use xlink:href="#C0_0_d7a6d40d14" x="34.798526" y="19.54368" style="fill: #174263; fill-opacity: 0.45"/>
    </g>
    <g clip-path="url(#p445b0247f4)">
     <use xlink:href="#C0_0_d7a6d40d14" x="37.095072" y="17.54784" style="fill: #174263; fill-opacity: 0.45"/>
    </g>
    <g clip-path="url(#p445b0247f4)">
     <use xlink:href="#C0_0_d7a6d40d14" x="34.008509" y="17.54784" style="fill: #174263; fill-opacity: 0.45"/>
    </g>
    <g clip-path="url(#p445b0247f4)">
     <use xlink:href="#C0_0_d7a6d40d14" x="34.88328" y="19.54368" style="fill: #174263; fill-opacity: 0.45"/>
    </g>
    <g clip-path="url(#p445b0247f4)">
     <use xlink:href="#C0_0_d7a6d40d14" x="32.361467" y="34.51248" style="fill: #174263; fill-opacity: 0.45"/>
    </g>
    <g clip-path="url(#p445b0247f4)">
     <use xlink:href="#C0_0_d7a6d40d14" x="37.316348" y="18.54576" style="fill: #174263; fill-opacity: 0.45"/>
    </g>
    <g clip-path="url(#p445b0247f4)">
     <use xlink:href="#C0_0_d7a6d40d14" x="32.597482" y="20.5416" style="fill: #174263; fill-opacity: 0.45"/>
    </g>
    <g clip-path="url(#p445b0247f4)">
     <use xlink:href="#C0_0_d7a6d40d14" x="33.822028" y="26.52912" style="fill: #174263; fill-opacity: 0.45"/>
    </g>
    <g clip-path="url(#p445b0247f4)">
     <use xlink:href="#C0_0_d7a6d40d14" x="32.676287" y="18.54576" style="fill: #174263; fill-opacity: 0.45"/>
    </g>
    <g clip-path="url(#p445b0247f4)">
     <use xlink:href="#C0_0_d7a6d40d14" x="32.536423" y="15.552" style="fill: #174263; fill-opacity: 0.45"/>
    </g>
    <g clip-path="url(#p445b0247f4)">
     <use xlink:href="#C0_0_d7a6d40d14" x="37.460811" y="15.552" style="fill: #174263; fill-opacity: 0.45"/>
    </g>
    <g clip-path="url(#p445b0247f4)">
     <use xlink:href="#C0_0_d7a6d40d14" x="36.845243" y="15.552" style="fill: #174263; fill-opacity: 0.45"/>
    </g>
    <g clip-path="url(#p445b0247f4)">
     <use xlink:href="#C0_0_d7a6d40d14" x="32.263298" y="18.54576" style="fill: #174263; fill-opacity: 0.45"/>
    </g>
    <g clip-path="url(#p445b0247f4)">
     <use xlink:href="#C0_0_d7a6d40d14" x="37.423546" y="15.552" style="fill: #174263; fill-opacity: 0.45"/>
    </g>
    <g clip-path="url(#p445b0247f4)">
     <use xlink:href="#C0_0_d7a6d40d14" x="36.6852" y="18.54576" style="fill: #174263; fill-opacity: 0.45"/>
    </g>
    <g clip-path="url(#p445b0247f4)">
     <use xlink:href="#C0_0_d7a6d40d14" x="33.583724" y="17.54784" style="fill: #174263; fill-opacity: 0.45"/>
    </g>
   </g>
   <g id="PathCollection_2">
    <defs>
     <path id="C1_0_91efd04e58" d="M 0 3.5 
C 0.928211 3.5 1.81853 3.131218 2.474874 2.474874 
C 3.131218 1.81853 3.5 0.928211 3.5 -0 
C 3.5 -0.928211 3.131218 -1.81853 2.474874 -2.474874 
C 1.81853 -3.131218 0.928211 -3.5 0 -3.5 
C -0.928211 -3.5 -1.81853 -3.131218 -2.474874 -2.474874 
C -3.131218 -1.81853 -3.5 -0.928211 -3.5 0 
C -3.5 0.928211 -3.131218 1.81853 -2.474874 2.474874 
C -1.81853 3.131218 -0.928211 3.5 0 3.5 
z
"/>
    </defs>
    <g clip-path="url(#p445b0247f4)">
     <use xlink:href="#C1_0_91efd04e58" x="58.37725" y="15.552" style="fill: #d75728; fill-opacity: 0.45"/>
    </g>
    <g clip-path="url(#p445b0247f4)">
     <use xlink:href="#C1_0_91efd04e58" x="59.107097" y="48.48336" style="fill: #d75728; fill-opacity: 0.45"/>
    </g>
    <g clip-path="url(#p445b0247f4)">
     <use xlink:href="#C1_0_91efd04e58" x="55.322317" y="89.39808" style="fill: #d75728; fill-opacity: 0.45"/>
    </g>
    <g clip-path="url(#p445b0247f4)">
     <use xlink:href="#C1_0_91efd04e58" x="54.864753" y="15.552" style="fill: #d75728; fill-opacity: 0.45"/>
    </g>
    <g clip-path="url(#p445b0247f4)">
     <use xlink:href="#C1_0_91efd04e58" x="58.782239" y="115.344" style="fill: #d75728; fill-opacity: 0.45"/>
    </g>
    <g clip-path="url(#p445b0247f4)">
     <use xlink:href="#C1_0_91efd04e58" x="59.597138" y="98.37936" style="fill: #d75728; fill-opacity: 0.45"/>
    </g>
    <g clip-path="url(#p445b0247f4)">
     <use xlink:href="#C1_0_91efd04e58" x="55.719719" y="104.36688" style="fill: #d75728; fill-opacity: 0.45"/>
    </g>
    <g clip-path="url(#p445b0247f4)">
     <use xlink:href="#C1_0_91efd04e58" x="56.932852" y="48.48336" style="fill: #d75728; fill-opacity: 0.45"/>
    </g>
    <g clip-path="url(#p445b0247f4)">
     <use xlink:href="#C1_0_91efd04e58" x="54.473373" y="40.5" style="fill: #d75728; fill-opacity: 0.45"/>
    </g>
    <g clip-path="url(#p445b0247f4)">
     <use xlink:href="#C1_0_91efd04e58" x="57.093615" y="101.37312" style="fill: #d75728; fill-opacity: 0.45"/>
    </g>
    <g clip-path="url(#p445b0247f4)">
     <use xlink:href="#C1_0_91efd04e58" x="58.5952" y="115.344" style="fill: #d75728; fill-opacity: 0.45"/>
    </g>
    <g clip-path="url(#p445b0247f4)">
     <use xlink:href="#C1_0_91efd04e58" x="58.724105" y="67.44384" style="fill: #d75728; fill-opacity: 0.45"/>
    </g>
    <g clip-path="url(#p445b0247f4)">
     <use xlink:href="#C1_0_91efd04e58" x="58.948966" y="15.552" style="fill: #d75728; fill-opacity: 0.45"/>
    </g>
    <g clip-path="url(#p445b0247f4)">
     <use xlink:href="#C1_0_91efd04e58" x="55.262897" y="65.448" style="fill: #d75728; fill-opacity: 0.45"/>
    </g>
    <g clip-path="url(#p445b0247f4)">
     <use xlink:href="#C1_0_91efd04e58" x="59.449107" y="115.344" style="fill: #d75728; fill-opacity: 0.45"/>
    </g>
    <g clip-path="url(#p445b0247f4)">
     <use xlink:href="#C1_0_91efd04e58" x="58.729409" y="107.36064" style="fill: #d75728; fill-opacity: 0.45"/>
    </g>
    <g clip-path="url(#p445b0247f4)">
     <use xlink:href="#C1_0_91efd04e58" x="59.460269" y="100.3752" style="fill: #d75728; fill-opacity: 0.45"/>
    </g>
    <g clip-path="url(#p445b0247f4)">
     <use xlink:href="#C1_0_91efd04e58" x="56.459399" y="48.48336" style="fill: #d75728; fill-opacity: 0.45"/>
    </g>
    <g clip-path="url(#p445b0247f4)">
     <use xlink:href="#C1_0_91efd04e58" x="59.229194" y="102.37104" style="fill: #d75728; fill-opacity: 0.45"/>
    </g>
    <g clip-path="url(#p445b0247f4)">
     <use xlink:href="#C1_0_91efd04e58" x="55.848404" y="34.51248" style="fill: #d75728; fill-opacity: 0.45"/>
    </g>
    <g clip-path="url(#p445b0247f4)">
     <use xlink:href="#C1_0_91efd04e58" x="57.378572" y="97.38144" style="fill: #d75728; fill-opacity: 0.45"/>
    </g>
    <g clip-path="url(#p445b0247f4)">
     <use xlink:href="#C1_0_91efd04e58" x="59.040816" y="15.552" style="fill: #d75728; fill-opacity: 0.45"/>
    </g>
    <g clip-path="url(#p445b0247f4)">
     <use xlink:href="#C1_0_91efd04e58" x="55.834511" y="44.49168" style="fill: #d75728; fill-opacity: 0.45"/>
    </g>
    <g clip-path="url(#p445b0247f4)">
     <use xlink:href="#C1_0_91efd04e58" x="55.85921" y="115.344" style="fill: #d75728; fill-opacity: 0.45"/>
    </g>
    <g clip-path="url(#p445b0247f4)">
     <use xlink:href="#C1_0_91efd04e58" x="59.365214" y="101.37312" style="fill: #d75728; fill-opacity: 0.45"/>
    </g>
    <g clip-path="url(#p445b0247f4)">
     <use xlink:href="#C1_0_91efd04e58" x="54.568748" y="15.552" style="fill: #d75728; fill-opacity: 0.45"/>
    </g>
    <g clip-path="url(#p445b0247f4)">
     <use xlink:href="#C1_0_91efd04e58" x="56.09075" y="44.49168" style="fill: #d75728; fill-opacity: 0.45"/>
    </g>
    <g clip-path="url(#p445b0247f4)">
     <use xlink:href="#C1_0_91efd04e58" x="57.082602" y="62.45424" style="fill: #d75728; fill-opacity: 0.45"/>
    </g>
    <g clip-path="url(#p445b0247f4)">
     <use xlink:href="#C1_0_91efd04e58" x="55.803401" y="15.552" style="fill: #d75728; fill-opacity: 0.45"/>
    </g>
    <g clip-path="url(#p445b0247f4)">
     <use xlink:href="#C1_0_91efd04e58" x="54.669518" y="27.52704" style="fill: #d75728; fill-opacity: 0.45"/>
    </g>
    <g clip-path="url(#p445b0247f4)">
     <use xlink:href="#C1_0_91efd04e58" x="57.357279" y="103.36896" style="fill: #d75728; fill-opacity: 0.45"/>
    </g>
    <g clip-path="url(#p445b0247f4)">
     <use xlink:href="#C1_0_91efd04e58" x="54.621964" y="115.344" style="fill: #d75728; fill-opacity: 0.45"/>
    </g>
    <g clip-path="url(#p445b0247f4)">
     <use xlink:href="#C1_0_91efd04e58" x="55.850057" y="115.344" style="fill: #d75728; fill-opacity: 0.45"/>
    </g>
    <g clip-path="url(#p445b0247f4)">
     <use xlink:href="#C1_0_91efd04e58" x="54.629799" y="115.344" style="fill: #d75728; fill-opacity: 0.45"/>
    </g>
    <g clip-path="url(#p445b0247f4)">
     <use xlink:href="#C1_0_91efd04e58" x="57.720544" y="108.35856" style="fill: #d75728; fill-opacity: 0.45"/>
    </g>
    <g clip-path="url(#p445b0247f4)">
     <use xlink:href="#C1_0_91efd04e58" x="57.154698" y="115.344" style="fill: #d75728; fill-opacity: 0.45"/>
    </g>
    <g clip-path="url(#p445b0247f4)">
     <use xlink:href="#C1_0_91efd04e58" x="58.283765" y="48.48336" style="fill: #d75728; fill-opacity: 0.45"/>
    </g>
    <g clip-path="url(#p445b0247f4)">
     <use xlink:href="#C1_0_91efd04e58" x="57.326576" y="97.38144" style="fill: #d75728; fill-opacity: 0.45"/>
    </g>
   </g>
   <g id="PathCollection_3">
    <defs>
     <path id="C2_0_1e9b0e87ce" d="M 0 3.5 
C 0.928211 3.5 1.81853 3.131218 2.474874 2.474874 
C 3.131218 1.81853 3.5 0.928211 3.5 -0 
C 3.5 -0.928211 3.131218 -1.81853 2.474874 -2.474874 
C 1.81853 -3.131218 0.928211 -3.5 0 -3.5 
C -0.928211 -3.5 -1.81853 -3.131218 -2.474874 -2.474874 
C -3.131218 -1.81853 -3.5 -0.928211 -3.5 0 
C -3.5 0.928211 -3.131218 1.81853 -2.474874 2.474874 
C -1.81853 3.131218 -0.928211 3.5 0 3.5 
z
"/>
    </defs>
    <g clip-path="url(#p445b0247f4)">
     <use xlink:href="#C2_0_1e9b0e87ce" x="91.26163" y="29.52288" style="fill: #174263; fill-opacity: 0.45"/>
    </g>
    <g clip-path="url(#p445b0247f4)">
     <use xlink:href="#C2_0_1e9b0e87ce" x="91.823097" y="114.34608" style="fill: #174263; fill-opacity: 0.45"/>
    </g>
    <g clip-path="url(#p445b0247f4)">
     <use xlink:href="#C2_0_1e9b0e87ce" x="90.344512" y="109.35648" style="fill: #174263; fill-opacity: 0.45"/>
    </g>
    <g clip-path="url(#p445b0247f4)">
     <use xlink:href="#C2_0_1e9b0e87ce" x="93.004864" y="111.35232" style="fill: #174263; fill-opacity: 0.45"/>
    </g>
    <g clip-path="url(#p445b0247f4)">
     <use xlink:href="#C2_0_1e9b0e87ce" x="92.012803" y="101.37312" style="fill: #174263; fill-opacity: 0.45"/>
    </g>
    <g clip-path="url(#p445b0247f4)">
     <use xlink:href="#C2_0_1e9b0e87ce" x="93.014808" y="115.344" style="fill: #174263; fill-opacity: 0.45"/>
    </g>
    <g clip-path="url(#p445b0247f4)">
     <use xlink:href="#C2_0_1e9b0e87ce" x="87.774739" y="115.344" style="fill: #174263; fill-opacity: 0.45"/>
    </g>
    <g clip-path="url(#p445b0247f4)">
     <use xlink:href="#C2_0_1e9b0e87ce" x="92.728067" y="70.4376" style="fill: #174263; fill-opacity: 0.45"/>
    </g>
    <g clip-path="url(#p445b0247f4)">
     <use xlink:href="#C2_0_1e9b0e87ce" x="91.173357" y="47.48544" style="fill: #174263; fill-opacity: 0.45"/>
    </g>
    <g clip-path="url(#p445b0247f4)">
     <use xlink:href="#C2_0_1e9b0e87ce" x="92.534938" y="115.344" style="fill: #174263; fill-opacity: 0.45"/>
    </g>
    <g clip-path="url(#p445b0247f4)">
     <use xlink:href="#C2_0_1e9b0e87ce" x="89.73276" y="115.344" style="fill: #174263; fill-opacity: 0.45"/>
    </g>
    <g clip-path="url(#p445b0247f4)">
     <use xlink:href="#C2_0_1e9b0e87ce" x="92.553627" y="106.36272" style="fill: #174263; fill-opacity: 0.45"/>
    </g>
    <g clip-path="url(#p445b0247f4)">
     <use xlink:href="#C2_0_1e9b0e87ce" x="88.890999" y="88.40016" style="fill: #174263; fill-opacity: 0.45"/>
    </g>
    <g clip-path="url(#p445b0247f4)">
     <use xlink:href="#C2_0_1e9b0e87ce" x="89.29488" y="99.37728" style="fill: #174263; fill-opacity: 0.45"/>
    </g>
    <g clip-path="url(#p445b0247f4)">
     <use xlink:href="#C2_0_1e9b0e87ce" x="88.614927" y="105.3648" style="fill: #174263; fill-opacity: 0.45"/>
    </g>
    <g clip-path="url(#p445b0247f4)">
     <use xlink:href="#C2_0_1e9b0e87ce" x="89.923391" y="78.42096" style="fill: #174263; fill-opacity: 0.45"/>
    </g>
    <g clip-path="url(#p445b0247f4)">
     <use xlink:href="#C2_0_1e9b0e87ce" x="91.026091" y="91.39392" style="fill: #174263; fill-opacity: 0.45"/>
    </g>
    <g clip-path="url(#p445b0247f4)">
     <use xlink:href="#C2_0_1e9b0e87ce" x="92.283597" y="63.45216" style="fill: #174263; fill-opacity: 0.45"/>
    </g>
    <g clip-path="url(#p445b0247f4)">
     <use xlink:href="#C2_0_1e9b0e87ce" x="92.140086" y="115.344" style="fill: #174263; fill-opacity: 0.45"/>
    </g>
    <g clip-path="url(#p445b0247f4)">
     <use xlink:href="#C2_0_1e9b0e87ce" x="93.137832" y="56.46672" style="fill: #174263; fill-opacity: 0.45"/>
    </g>
    <g clip-path="url(#p445b0247f4)">
     <use xlink:href="#C2_0_1e9b0e87ce" x="88.546736" y="99.37728" style="fill: #174263; fill-opacity: 0.45"/>
    </g>
    <g clip-path="url(#p445b0247f4)">
     <use xlink:href="#C2_0_1e9b0e87ce" x="89.736945" y="106.36272" style="fill: #174263; fill-opacity: 0.45"/>
    </g>
    <g clip-path="url(#p445b0247f4)">
     <use xlink:href="#C2_0_1e9b0e87ce" x="88.460503" y="107.36064" style="fill: #174263; fill-opacity: 0.45"/>
    </g>
    <g clip-path="url(#p445b0247f4)">
     <use xlink:href="#C2_0_1e9b0e87ce" x="91.987701" y="115.344" style="fill: #174263; fill-opacity: 0.45"/>
    </g>
    <g clip-path="url(#p445b0247f4)">
     <use xlink:href="#C2_0_1e9b0e87ce" x="89.752584" y="109.35648" style="fill: #174263; fill-opacity: 0.45"/>
    </g>
    <g clip-path="url(#p445b0247f4)">
     <use xlink:href="#C2_0_1e9b0e87ce" x="90.604533" y="47.48544" style="fill: #174263; fill-opacity: 0.45"/>
    </g>
    <g clip-path="url(#p445b0247f4)">
     <use xlink:href="#C2_0_1e9b0e87ce" x="88.111477" y="105.3648" style="fill: #174263; fill-opacity: 0.45"/>
    </g>
    <g clip-path="url(#p445b0247f4)">
     <use xlink:href="#C2_0_1e9b0e87ce" x="93.148738" y="106.36272" style="fill: #174263; fill-opacity: 0.45"/>
    </g>
    <g clip-path="url(#p445b0247f4)">
     <use xlink:href="#C2_0_1e9b0e87ce" x="93.310933" y="64.45008" style="fill: #174263; fill-opacity: 0.45"/>
    </g>
    <g clip-path="url(#p445b0247f4)">
     <use xlink:href="#C2_0_1e9b0e87ce" x="88.010568" y="98.37936" style="fill: #174263; fill-opacity: 0.45"/>
    </g>
    <g clip-path="url(#p445b0247f4)">
     <use xlink:href="#C2_0_1e9b0e87ce" x="89.846748" y="112.35024" style="fill: #174263; fill-opacity: 0.45"/>
    </g>
    <g clip-path="url(#p445b0247f4)">
     <use xlink:href="#C2_0_1e9b0e87ce" x="89.974254" y="109.35648" style="fill: #174263; fill-opacity: 0.45"/>
    </g>
    <g clip-path="url(#p445b0247f4)">
     <use xlink:href="#C2_0_1e9b0e87ce" x="92.501942" y="115.344" style="fill: #174263; fill-opacity: 0.45"/>
    </g>
    <g clip-path="url(#p445b0247f4)">
     <use xlink:href="#C2_0_1e9b0e87ce" x="91.02593" y="115.344" style="fill: #174263; fill-opacity: 0.45"/>
    </g>
    <g clip-path="url(#p445b0247f4)">
     <use xlink:href="#C2_0_1e9b0e87ce" x="89.006162" y="115.344" style="fill: #174263; fill-opacity: 0.45"/>
    </g>
    <g clip-path="url(#p445b0247f4)">
     <use xlink:href="#C2_0_1e9b0e87ce" x="92.64577" y="112.35024" style="fill: #174263; fill-opacity: 0.45"/>
    </g>
    <g clip-path="url(#p445b0247f4)">
     <use xlink:href="#C2_0_1e9b0e87ce" x="88.824072" y="62.45424" style="fill: #174263; fill-opacity: 0.45"/>
    </g>
    <g clip-path="url(#p445b0247f4)">
     <use xlink:href="#C2_0_1e9b0e87ce" x="92.365198" y="92.39184" style="fill: #174263; fill-opacity: 0.45"/>
    </g>
   </g>
   <g id="PathCollection_4">
    <defs>
     <path id="C3_0_acad97aa4b" d="M 0 3.5 
C 0.928211 3.5 1.81853 3.131218 2.474874 2.474874 
C 3.131218 1.81853 3.5 0.928211 3.5 -0 
C 3.5 -0.928211 3.131218 -1.81853 2.474874 -2.474874 
C 1.81853 -3.131218 0.928211 -3.5 0 -3.5 
C -0.928211 -3.5 -1.81853 -3.131218 -2.474874 -2.474874 
C -3.131218 -1.81853 -3.5 -0.928211 -3.5 0 
C -3.5 0.928211 -3.131218 1.81853 -2.474874 2.474874 
C -1.81853 3.131218 -0.928211 3.5 0 3.5 
z
"/>
    </defs>
    <g clip-path="url(#p445b0247f4)">
     <use xlink:href="#C3_0_acad97aa4b" x="112.183583" y="15.552" style="fill: #d75728; fill-opacity: 0.45"/>
    </g>
    <g clip-path="url(#p445b0247f4)">
     <use xlink:href="#C3_0_acad97aa4b" x="112.79875" y="15.552" style="fill: #d75728; fill-opacity: 0.45"/>
    </g>
    <g clip-path="url(#p445b0247f4)">
     <use xlink:href="#C3_0_acad97aa4b" x="110.664544" y="35.5104" style="fill: #d75728; fill-opacity: 0.45"/>
    </g>
    <g clip-path="url(#p445b0247f4)">
     <use xlink:href="#C3_0_acad97aa4b" x="111.405789" y="115.344" style="fill: #d75728; fill-opacity: 0.45"/>
    </g>
    <g clip-path="url(#p445b0247f4)">
     <use xlink:href="#C3_0_acad97aa4b" x="113.640353" y="15.552" style="fill: #d75728; fill-opacity: 0.45"/>
    </g>
    <g clip-path="url(#p445b0247f4)">
     <use xlink:href="#C3_0_acad97aa4b" x="110.304397" y="24.53328" style="fill: #d75728; fill-opacity: 0.45"/>
    </g>
    <g clip-path="url(#p445b0247f4)">
     <use xlink:href="#C3_0_acad97aa4b" x="115.197794" y="15.552" style="fill: #d75728; fill-opacity: 0.45"/>
    </g>
    <g clip-path="url(#p445b0247f4)">
     <use xlink:href="#C3_0_acad97aa4b" x="113.608654" y="38.50416" style="fill: #d75728; fill-opacity: 0.45"/>
    </g>
    <g clip-path="url(#p445b0247f4)">
     <use xlink:href="#C3_0_acad97aa4b" x="113.1038" y="35.5104" style="fill: #d75728; fill-opacity: 0.45"/>
    </g>
    <g clip-path="url(#p445b0247f4)">
     <use xlink:href="#C3_0_acad97aa4b" x="112.893006" y="25.5312" style="fill: #d75728; fill-opacity: 0.45"/>
    </g>
    <g clip-path="url(#p445b0247f4)">
     <use xlink:href="#C3_0_acad97aa4b" x="113.78294" y="23.53536" style="fill: #d75728; fill-opacity: 0.45"/>
    </g>
    <g clip-path="url(#p445b0247f4)">
     <use xlink:href="#C3_0_acad97aa4b" x="110.610393" y="33.51456" style="fill: #d75728; fill-opacity: 0.45"/>
    </g>
    <g clip-path="url(#p445b0247f4)">
     <use xlink:href="#C3_0_acad97aa4b" x="110.639162" y="71.43552" style="fill: #d75728; fill-opacity: 0.45"/>
    </g>
    <g clip-path="url(#p445b0247f4)">
     <use xlink:href="#C3_0_acad97aa4b" x="112.719727" y="15.552" style="fill: #d75728; fill-opacity: 0.45"/>
    </g>
    <g clip-path="url(#p445b0247f4)">
     <use xlink:href="#C3_0_acad97aa4b" x="113.921264" y="26.52912" style="fill: #d75728; fill-opacity: 0.45"/>
    </g>
    <g clip-path="url(#p445b0247f4)">
     <use xlink:href="#C3_0_acad97aa4b" x="112.970833" y="69.43968" style="fill: #d75728; fill-opacity: 0.45"/>
    </g>
    <g clip-path="url(#p445b0247f4)">
     <use xlink:href="#C3_0_acad97aa4b" x="115.607888" y="15.552" style="fill: #d75728; fill-opacity: 0.45"/>
    </g>
    <g clip-path="url(#p445b0247f4)">
     <use xlink:href="#C3_0_acad97aa4b" x="112.528606" y="15.552" style="fill: #d75728; fill-opacity: 0.45"/>
    </g>
    <g clip-path="url(#p445b0247f4)">
     <use xlink:href="#C3_0_acad97aa4b" x="115.493534" y="24.53328" style="fill: #d75728; fill-opacity: 0.45"/>
    </g>
    <g clip-path="url(#p445b0247f4)">
     <use xlink:href="#C3_0_acad97aa4b" x="111.413864" y="35.5104" style="fill: #d75728; fill-opacity: 0.45"/>
    </g>
    <g clip-path="url(#p445b0247f4)">
     <use xlink:href="#C3_0_acad97aa4b" x="112.122804" y="24.53328" style="fill: #d75728; fill-opacity: 0.45"/>
    </g>
    <g clip-path="url(#p445b0247f4)">
     <use xlink:href="#C3_0_acad97aa4b" x="113.170052" y="115.344" style="fill: #d75728; fill-opacity: 0.45"/>
    </g>
    <g clip-path="url(#p445b0247f4)">
     <use xlink:href="#C3_0_acad97aa4b" x="112.829498" y="98.37936" style="fill: #d75728; fill-opacity: 0.45"/>
    </g>
    <g clip-path="url(#p445b0247f4)">
     <use xlink:href="#C3_0_acad97aa4b" x="112.386308" y="15.552" style="fill: #d75728; fill-opacity: 0.45"/>
    </g>
    <g clip-path="url(#p445b0247f4)">
     <use xlink:href="#C3_0_acad97aa4b" x="111.97134" y="38.50416" style="fill: #d75728; fill-opacity: 0.45"/>
    </g>
    <g clip-path="url(#p445b0247f4)">
     <use xlink:href="#C3_0_acad97aa4b" x="112.107112" y="41.49792" style="fill: #d75728; fill-opacity: 0.45"/>
    </g>
    <g clip-path="url(#p445b0247f4)">
     <use xlink:href="#C3_0_acad97aa4b" x="113.616859" y="115.344" style="fill: #d75728; fill-opacity: 0.45"/>
    </g>
    <g clip-path="url(#p445b0247f4)">
     <use xlink:href="#C3_0_acad97aa4b" x="113.58178" y="51.47712" style="fill: #d75728; fill-opacity: 0.45"/>
    </g>
    <g clip-path="url(#p445b0247f4)">
     <use xlink:href="#C3_0_acad97aa4b" x="112.891034" y="65.448" style="fill: #d75728; fill-opacity: 0.45"/>
    </g>
    <g clip-path="url(#p445b0247f4)">
     <use xlink:href="#C3_0_acad97aa4b" x="110.475817" y="94.38768" style="fill: #d75728; fill-opacity: 0.45"/>
    </g>
    <g clip-path="url(#p445b0247f4)">
     <use xlink:href="#C3_0_acad97aa4b" x="111.026305" y="44.49168" style="fill: #d75728; fill-opacity: 0.45"/>
    </g>
    <g clip-path="url(#p445b0247f4)">
     <use xlink:href="#C3_0_acad97aa4b" x="114.309745" y="15.552" style="fill: #d75728; fill-opacity: 0.45"/>
    </g>
    <g clip-path="url(#p445b0247f4)">
     <use xlink:href="#C3_0_acad97aa4b" x="112.526808" y="20.5416" style="fill: #d75728; fill-opacity: 0.45"/>
    </g>
    <g clip-path="url(#p445b0247f4)">
     <use xlink:href="#C3_0_acad97aa4b" x="112.256613" y="20.5416" style="fill: #d75728; fill-opacity: 0.45"/>
    </g>
    <g clip-path="url(#p445b0247f4)">
     <use xlink:href="#C3_0_acad97aa4b" x="112.403009" y="21.53952" style="fill: #d75728; fill-opacity: 0.45"/>
    </g>
    <g clip-path="url(#p445b0247f4)">
     <use xlink:href="#C3_0_acad97aa4b" x="111.647291" y="26.52912" style="fill: #d75728; fill-opacity: 0.45"/>
    </g>
    <g clip-path="url(#p445b0247f4)">
     <use xlink:href="#C3_0_acad97aa4b" x="114.123647" y="27.52704" style="fill: #d75728; fill-opacity: 0.45"/>
    </g>
    <g clip-path="url(#p445b0247f4)">
     <use xlink:href="#C3_0_acad97aa4b" x="114.639231" y="33.51456" style="fill: #d75728; fill-opacity: 0.45"/>
    </g>
   </g>
   <g id="line2d_8">
    <path d="M 33.2055 23.885366 
L 36.2745 23.885366 
M 34.74 23.885366 
L 34.74 19.771417 
M 33.2055 19.771417 
L 36.2745 19.771417 
" clip-path="url(#p445b0247f4)" style="fill: none; stroke: #333333; stroke-width: 2.5; stroke-linecap: square"/>
   </g>
   <g id="line2d_9">
    <path d="M 89.0055 99.740168 
L 92.0745 99.740168 
M 90.54 99.740168 
L 90.54 92.081474 
M 89.0055 92.081474 
L 92.0745 92.081474 
" clip-path="url(#p445b0247f4)" style="fill: none; stroke: #333333; stroke-width: 2.5; stroke-linecap: square"/>
   </g>
   <g id="line2d_10">
    <path d="M 55.5255 80.021097 
L 58.5945 80.021097 
M 57.06 80.021097 
L 57.06 67.787021 
M 55.5255 67.787021 
L 58.5945 67.787021 
" clip-path="url(#p445b0247f4)" style="fill: none; stroke: #333333; stroke-width: 2.5; stroke-linecap: square"/>
   </g>
   <g id="line2d_11">
    <path d="M 111.3255 45.445399 
L 114.3945 45.445399 
M 112.86 45.445399 
L 112.86 35.554601 
M 111.3255 35.554601 
L 114.3945 35.554601 
" clip-path="url(#p445b0247f4)" style="fill: none; stroke: #333333; stroke-width: 2.5; stroke-linecap: square"/>
   </g>
   <g id="patch_15">
    <path d="M 18 115.344 
L 18 15.552 
" style="fill: none; stroke: #000000; stroke-linejoin: miter; stroke-linecap: square"/>
   </g>
   <g id="patch_16">
    <path d="M 18 115.344 
L 129.6 115.344 
" style="fill: none; stroke: #000000; stroke-linejoin: miter; stroke-linecap: square"/>
   </g>
   <g id="PathCollection_5">
    <defs>
     <path id="m57229575a4" d="M 0 3 
C 0.795609 3 1.55874 2.683901 2.12132 2.12132 
C 2.683901 1.55874 3 0.795609 3 0 
C 3 -0.795609 2.683901 -1.55874 2.12132 -2.12132 
C 1.55874 -2.683901 0.795609 -3 0 -3 
C -0.795609 -3 -1.55874 -2.683901 -2.12132 -2.12132 
C -2.683901 -1.55874 -3 -0.795609 -3 0 
C -3 0.795609 -2.683901 1.55874 -2.12132 2.12132 
C -1.55874 2.683901 -0.795609 3 0 3 
z
"/>
    </defs>
    <g clip-path="url(#p445b0247f4)">
     <use xlink:href="#m57229575a4" x="34.74" y="21.828392" style="fill: #333333"/>
    </g>
   </g>
   <g id="PathCollection_6">
    <g clip-path="url(#p445b0247f4)">
     <use xlink:href="#m57229575a4" x="57.06" y="73.904059" style="fill: #333333"/>
    </g>
   </g>
   <g id="PathCollection_7">
    <g clip-path="url(#p445b0247f4)">
     <use xlink:href="#m57229575a4" x="90.54" y="95.910821" style="fill: #333333"/>
    </g>
   </g>
   <g id="PathCollection_8">
    <g clip-path="url(#p445b0247f4)">
     <use xlink:href="#m57229575a4" x="112.86" y="40.5" style="fill: #333333"/>
    </g>
   </g>
   <g id="line2d_12"/>
   <g id="line2d_13"/>
  </g>
 </g>
 <defs>
  <clipPath id="p445b0247f4">
   <rect x="18" y="15.552" width="111.6" height="99.792"/>
  </clipPath>
 </defs>
</svg>
