<?xml version="1.0" encoding="utf-8" standalone="no"?>
<!DOCTYPE svg PUBLIC "-//W3C//DTD SVG 1.1//EN"
  "http://www.w3.org/Graphics/SVG/1.1/DTD/svg11.dtd">
<svg xmlns:xlink="http://www.w3.org/1999/xlink" width="144pt" height="129.6pt" viewBox="0 0 144 129.6" xmlns="http://www.w3.org/2000/svg" version="1.1">
 <metadata>
  <rdf:RDF xmlns:dc="http://purl.org/dc/elements/1.1/" xmlns:cc="http://creativecommons.org/ns#" xmlns:rdf="http://www.w3.org/1999/02/22-rdf-syntax-ns#">
   <cc:Work>
    <dc:type rdf:resource="http://purl.org/dc/dcmitype/StillImage"/>
    <dc:date>2025-04-14T00:19:48.650868</dc:date>
    <dc:format>image/svg+xml</dc:format>
    <dc:creator>
     <cc:Agent>
      <dc:title>Matplotlib v3.7.1, https://matplotlib.org/</dc:title>
     </cc:Agent>
    </dc:creator>
   </cc:Work>
  </rdf:RDF>
 </metadata>
 <defs>
  <style type="text/css">*{stroke-linejoin: round; stroke-linecap: butt}</style>
 </defs>
 <g id="figure_1">
  <g id="patch_1">
   <path d="M 0 129.6 
L 144 129.6 
L 144 0 
L 0 0 
L 0 129.6 
z
" style="fill: none"/>
  </g>
  <g id="axes_1">
   <g id="patch_2">
    <path d="M 18 115.344 
L 129.6 115.344 
L 129.6 15.552 
L 18 15.552 
L 18 115.344 
z
" style="fill: none"/>
   </g>
   <g id="PolyCollection_1">
    <path d="M 34.798995 59.314065 
L 34.681005 59.314065 
L 34.662566 58.792863 
L 34.640012 58.271661 
L 34.612972 57.750459 
L 34.581207 57.229256 
L 34.544662 56.708054 
L 34.503514 56.186852 
L 34.458204 55.66565 
L 34.409465 55.144448 
L 34.358323 54.623246 
L 34.30608 54.102044 
L 34.254266 53.580842 
L 34.204578 53.05964 
L 34.158785 52.538437 
L 34.118634 52.017235 
L 34.085735 51.496033 
L 34.061464 50.974831 
L 34.046861 50.453629 
L 34.042563 49.932427 
L 34.048756 49.411225 
L 34.065163 48.890023 
L 34.091059 48.36882 
L 34.125323 47.847618 
L 34.166515 47.326416 
L 34.212962 46.805214 
L 34.262869 46.284012 
L 34.314419 45.76281 
L 34.365865 45.241608 
L 34.41561 44.720406 
L 34.462268 44.199203 
L 34.504687 43.678001 
L 34.541969 43.156799 
L 34.57345 42.635597 
L 34.598678 42.114395 
L 34.617377 41.593193 
L 34.629406 41.071991 
L 34.634722 40.550789 
L 34.63336 40.029587 
L 34.625413 39.508384 
L 34.61103 38.987182 
L 34.590428 38.46598 
L 34.563904 37.944778 
L 34.53186 37.423576 
L 34.494814 36.902374 
L 34.453406 36.381172 
L 34.408395 35.85997 
L 34.360623 35.338767 
L 34.310973 34.817565 
L 34.260297 34.296363 
L 34.209325 33.775161 
L 34.158565 33.253959 
L 34.108188 32.732757 
L 34.05792 32.211555 
L 34.006934 31.690353 
L 33.953758 31.16915 
L 33.896212 30.647948 
L 33.831367 30.126746 
L 33.755548 29.605544 
L 33.66437 29.084342 
L 33.552829 28.56314 
L 33.415429 28.041938 
L 33.246357 27.520736 
L 33.039708 26.999533 
L 32.789742 26.478331 
L 32.491185 25.957129 
L 32.139567 25.435927 
L 31.731578 24.914725 
L 31.265466 24.393523 
L 30.741428 23.872321 
L 30.162011 23.351119 
L 29.53247 22.829917 
L 28.861071 22.308714 
L 28.159272 21.787512 
L 27.441757 21.26631 
L 26.726245 20.745108 
L 26.033063 20.223906 
L 25.384432 19.702704 
L 24.803491 19.181502 
L 24.313084 18.6603 
L 23.934386 18.139097 
L 23.685479 17.617895 
L 23.58 17.096693 
L 23.62601 16.575491 
L 23.8252 16.054289 
L 24.172552 15.533087 
L 24.656493 15.011885 
L 25.259565 14.490683 
L 25.959543 13.96948 
L 26.730898 13.448278 
L 27.546475 12.927076 
L 28.379198 12.405874 
L 29.203671 11.884672 
L 29.997519 11.36347 
L 30.742369 10.842268 
L 31.424431 10.321066 
L 32.034664 9.799864 
L 32.568569 9.278661 
L 33.025687 8.757459 
L 33.408886 8.236257 
L 33.723551 7.715055 
L 35.756449 7.715055 
L 35.756449 7.715055 
L 36.071114 8.236257 
L 36.454313 8.757459 
L 36.911431 9.278661 
L 37.445336 9.799864 
L 38.055569 10.321066 
L 38.737631 10.842268 
L 39.482481 11.36347 
L 40.276329 11.884672 
L 41.100802 12.405874 
L 41.933525 12.927076 
L 42.749102 13.448278 
L 43.520457 13.96948 
L 44.220435 14.490683 
L 44.823507 15.011885 
L 45.307448 15.533087 
L 45.6548 16.054289 
L 45.85399 16.575491 
L 45.9 17.096693 
L 45.794521 17.617895 
L 45.545614 18.139097 
L 45.166916 18.6603 
L 44.676509 19.181502 
L 44.095568 19.702704 
L 43.446937 20.223906 
L 42.753755 20.745108 
L 42.038243 21.26631 
L 41.320728 21.787512 
L 40.618929 22.308714 
L 39.94753 22.829917 
L 39.317989 23.351119 
L 38.738572 23.872321 
L 38.214534 24.393523 
L 37.748422 24.914725 
L 37.340433 25.435927 
L 36.988815 25.957129 
L 36.690258 26.478331 
L 36.440292 26.999533 
L 36.233643 27.520736 
L 36.064571 28.041938 
L 35.927171 28.56314 
L 35.81563 29.084342 
L 35.724452 29.605544 
L 35.648633 30.126746 
L 35.583788 30.647948 
L 35.526242 31.16915 
L 35.473066 31.690353 
L 35.42208 32.211555 
L 35.371812 32.732757 
L 35.321435 33.253959 
L 35.270675 33.775161 
L 35.219703 34.296363 
L 35.169027 34.817565 
L 35.119377 35.338767 
L 35.071605 35.85997 
L 35.026594 36.381172 
L 34.985186 36.902374 
L 34.94814 37.423576 
L 34.916096 37.944778 
L 34.889572 38.46598 
L 34.86897 38.987182 
L 34.854587 39.508384 
L 34.84664 40.029587 
L 34.845278 40.550789 
L 34.850594 41.071991 
L 34.862623 41.593193 
L 34.881322 42.114395 
L 34.90655 42.635597 
L 34.938031 43.156799 
L 34.975313 43.678001 
L 35.017732 44.199203 
L 35.06439 44.720406 
L 35.114135 45.241608 
L 35.165581 45.76281 
L 35.217131 46.284012 
L 35.267038 46.805214 
L 35.313485 47.326416 
L 35.354677 47.847618 
L 35.388941 48.36882 
L 35.414837 48.890023 
L 35.431244 49.411225 
L 35.437437 49.932427 
L 35.433139 50.453629 
L 35.418536 50.974831 
L 35.394265 51.496033 
L 35.361366 52.017235 
L 35.321215 52.538437 
L 35.275422 53.05964 
L 35.225734 53.580842 
L 35.17392 54.102044 
L 35.121677 54.623246 
L 35.070535 55.144448 
L 35.021796 55.66565 
L 34.976486 56.186852 
L 34.935338 56.708054 
L 34.898793 57.229256 
L 34.867028 57.750459 
L 34.839988 58.271661 
L 34.817434 58.792863 
L 34.798995 59.314065 
z
" clip-path="url(#pc70347e823)" style="fill: #20415a; fill-opacity: 0.35"/>
   </g>
   <g id="PolyCollection_2">
    <path d="M 58.19114 150.866231 
L 55.92886 150.866231 
L 55.684139 149.14061 
L 55.401584 147.41499 
L 55.078999 145.689369 
L 54.714904 143.963748 
L 54.30872 142.238127 
L 53.860941 140.512506 
L 53.373288 138.786885 
L 52.848823 137.061265 
L 52.29202 135.335644 
L 51.708776 133.610023 
L 51.106358 131.884402 
L 50.49328 130.158781 
L 49.879113 128.43316 
L 49.274226 126.70754 
L 48.689478 124.981919 
L 48.135859 123.256298 
L 47.624113 121.530677 
L 47.16435 119.805056 
L 46.765677 118.079435 
L 46.435862 116.353815 
L 46.181052 114.628194 
L 46.005567 112.902573 
L 45.911765 111.176952 
L 45.9 109.451331 
L 45.968671 107.72571 
L 46.114344 106.00009 
L 46.331949 104.274469 
L 46.615039 102.548848 
L 46.95608 100.823227 
L 47.346771 99.097606 
L 47.778359 97.371985 
L 48.241949 95.646365 
L 48.728775 93.920744 
L 49.230439 92.195123 
L 49.739099 90.469502 
L 50.247613 88.743881 
L 50.74962 87.01826 
L 51.239593 85.29264 
L 51.712833 83.567019 
L 52.165451 81.841398 
L 52.594304 80.115777 
L 52.996938 78.390156 
L 53.371505 76.664535 
L 53.716692 74.938915 
L 54.031643 73.213294 
L 54.3159 71.487673 
L 54.569339 69.762052 
L 54.792131 68.036431 
L 54.984694 66.31081 
L 55.147669 64.58519 
L 55.281889 62.859569 
L 55.388362 61.133948 
L 55.468246 59.408327 
L 55.522838 57.682706 
L 55.553553 55.957085 
L 55.561912 54.231465 
L 55.549532 52.505844 
L 55.518113 50.780223 
L 55.469432 49.054602 
L 55.405346 47.328981 
L 55.327785 45.60336 
L 55.238763 43.87774 
L 55.140385 42.152119 
L 55.034846 40.426498 
L 54.924447 38.700877 
L 54.811583 36.975256 
L 54.698745 35.249635 
L 54.588499 33.524015 
L 54.483455 31.798394 
L 54.38623 30.072773 
L 54.29939 28.347152 
L 54.225392 26.621531 
L 54.166503 24.89591 
L 54.124734 23.17029 
L 54.101755 21.444669 
L 54.098827 19.719048 
L 54.116746 17.993427 
L 54.155792 16.267806 
L 54.215708 14.542185 
L 54.295698 12.816565 
L 54.394445 11.090944 
L 54.510157 9.365323 
L 54.640631 7.639702 
L 54.78334 5.914081 
L 54.935521 4.18846 
L 55.09429 2.46284 
L 55.256736 0.737219 
L 55.420032 -0.988402 
L 55.58152 -2.714023 
L 55.738796 -4.439644 
L 55.889766 -6.165265 
L 56.032692 -7.890885 
L 56.166216 -9.616506 
L 56.289364 -11.342127 
L 56.401532 -13.067748 
L 56.502463 -14.793369 
L 56.592209 -16.51899 
L 56.671081 -18.24461 
L 56.739607 -19.970231 
L 57.380393 -19.970231 
L 57.380393 -19.970231 
L 57.448919 -18.24461 
L 57.527791 -16.51899 
L 57.617537 -14.793369 
L 57.718468 -13.067748 
L 57.830636 -11.342127 
L 57.953784 -9.616506 
L 58.087308 -7.890885 
L 58.230234 -6.165265 
L 58.381204 -4.439644 
L 58.53848 -2.714023 
L 58.699968 -0.988402 
L 58.863264 0.737219 
L 59.02571 2.46284 
L 59.184479 4.18846 
L 59.33666 5.914081 
L 59.479369 7.639702 
L 59.609843 9.365323 
L 59.725555 11.090944 
L 59.824302 12.816565 
L 59.904292 14.542185 
L 59.964208 16.267806 
L 60.003254 17.993427 
L 60.021173 19.719048 
L 60.018245 21.444669 
L 59.995266 23.17029 
L 59.953497 24.89591 
L 59.894608 26.621531 
L 59.82061 28.347152 
L 59.73377 30.072773 
L 59.636545 31.798394 
L 59.531501 33.524015 
L 59.421255 35.249635 
L 59.308417 36.975256 
L 59.195553 38.700877 
L 59.085154 40.426498 
L 58.979615 42.152119 
L 58.881237 43.87774 
L 58.792215 45.60336 
L 58.714654 47.328981 
L 58.650568 49.054602 
L 58.601887 50.780223 
L 58.570468 52.505844 
L 58.558088 54.231465 
L 58.566447 55.957085 
L 58.597162 57.682706 
L 58.651754 59.408327 
L 58.731638 61.133948 
L 58.838111 62.859569 
L 58.972331 64.58519 
L 59.135306 66.31081 
L 59.327869 68.036431 
L 59.550661 69.762052 
L 59.8041 71.487673 
L 60.088357 73.213294 
L 60.403308 74.938915 
L 60.748495 76.664535 
L 61.123062 78.390156 
L 61.525696 80.115777 
L 61.954549 81.841398 
L 62.407167 83.567019 
L 62.880407 85.29264 
L 63.37038 87.01826 
L 63.872387 88.743881 
L 64.380901 90.469502 
L 64.889561 92.195123 
L 65.391225 93.920744 
L 65.878051 95.646365 
L 66.341641 97.371985 
L 66.773229 99.097606 
L 67.16392 100.823227 
L 67.504961 102.548848 
L 67.788051 104.274469 
L 68.005656 106.00009 
L 68.151329 107.72571 
L 68.22 109.451331 
L 68.208235 111.176952 
L 68.114433 112.902573 
L 67.938948 114.628194 
L 67.684138 116.353815 
L 67.354323 118.079435 
L 66.95565 119.805056 
L 66.495887 121.530677 
L 65.984141 123.256298 
L 65.430522 124.981919 
L 64.845774 126.70754 
L 64.240887 128.43316 
L 63.62672 130.158781 
L 63.013642 131.884402 
L 62.411224 133.610023 
L 61.82798 135.335644 
L 61.271177 137.061265 
L 60.746712 138.786885 
L 60.259059 140.512506 
L 59.81128 142.238127 
L 59.405096 143.963748 
L 59.041001 145.689369 
L 58.718416 147.41499 
L 58.435861 149.14061 
L 58.19114 150.866231 
z
" clip-path="url(#pc70347e823)" style="fill: #c1613e; fill-opacity: 0.35"/>
   </g>
   <g id="PolyCollection_3">
    <path d="M 91.450577 136.075801 
L 89.629423 136.075801 
L 89.345298 134.729617 
L 88.997381 133.383432 
L 88.579646 132.037248 
L 88.088055 130.691064 
L 87.521348 129.34488 
L 86.881777 127.998695 
L 86.175705 126.652511 
L 85.413974 125.306327 
L 84.611971 123.960143 
L 83.789313 122.613958 
L 82.969149 121.267774 
L 82.177083 119.92159 
L 81.439773 118.575406 
L 80.783341 117.229221 
L 80.231696 115.883037 
L 79.804955 114.536853 
L 79.518099 113.190668 
L 79.38 111.844484 
L 79.392916 110.4983 
L 79.552488 109.152116 
L 79.848231 107.805931 
L 80.264446 106.459747 
L 80.781456 105.113563 
L 81.377022 103.767379 
L 82.027808 102.421194 
L 82.71076 101.07501 
L 83.404301 99.728826 
L 84.089262 98.382642 
L 84.749528 97.036457 
L 85.372383 95.690273 
L 85.948596 94.344089 
L 86.47228 92.997905 
L 86.940588 91.65172 
L 87.353302 90.305536 
L 87.712359 88.959352 
L 88.021352 87.613168 
L 88.285059 86.266983 
L 88.508991 84.920799 
L 88.698998 83.574615 
L 88.86093 82.22843 
L 89.000362 80.882246 
L 89.122374 79.536062 
L 89.231402 78.189878 
L 89.331142 76.843693 
L 89.424506 75.497509 
L 89.513635 74.151325 
L 89.599944 72.805141 
L 89.684203 71.458956 
L 89.766643 70.112772 
L 89.847073 68.766588 
L 89.924999 67.420404 
L 89.999747 66.074219 
L 90.070566 64.728035 
L 90.136722 63.381851 
L 90.197564 62.035667 
L 90.252569 60.689482 
L 90.301369 59.343298 
L 90.343752 57.997114 
L 90.379641 56.65093 
L 90.409068 55.304745 
L 90.432133 53.958561 
L 90.448959 52.612377 
L 90.459657 51.266192 
L 90.464287 49.920008 
L 90.462847 48.573824 
L 90.455263 47.22764 
L 90.441408 45.881455 
L 90.421136 44.535271 
L 90.394333 43.189087 
L 90.360982 41.842903 
L 90.321238 40.496718 
L 90.275494 39.150534 
L 90.224447 37.80435 
L 90.169142 36.458166 
L 90.110984 35.111981 
L 90.051718 33.765797 
L 89.993375 32.419613 
L 89.938174 31.073429 
L 89.888398 29.727244 
L 89.846243 28.38106 
L 89.813667 27.034876 
L 89.792239 25.688692 
L 89.783018 24.342507 
L 89.786467 22.996323 
L 89.802414 21.650139 
L 89.830069 20.303954 
L 89.868088 18.95777 
L 89.914682 17.611586 
L 89.967754 16.265402 
L 90.02506 14.919217 
L 90.084359 13.573033 
L 90.143557 12.226849 
L 90.200819 10.880665 
L 90.254652 9.53448 
L 90.303946 8.188296 
L 90.347983 6.842112 
L 90.386411 5.495928 
L 90.419198 4.149743 
L 90.446572 2.803559 
L 90.633428 2.803559 
L 90.633428 2.803559 
L 90.660802 4.149743 
L 90.693589 5.495928 
L 90.732017 6.842112 
L 90.776054 8.188296 
L 90.825348 9.53448 
L 90.879181 10.880665 
L 90.936443 12.226849 
L 90.995641 13.573033 
L 91.05494 14.919217 
L 91.112246 16.265402 
L 91.165318 17.611586 
L 91.211912 18.95777 
L 91.249931 20.303954 
L 91.277586 21.650139 
L 91.293533 22.996323 
L 91.296982 24.342507 
L 91.287761 25.688692 
L 91.266333 27.034876 
L 91.233757 28.38106 
L 91.191602 29.727244 
L 91.141826 31.073429 
L 91.086625 32.419613 
L 91.028282 33.765797 
L 90.969016 35.111981 
L 90.910858 36.458166 
L 90.855553 37.80435 
L 90.804506 39.150534 
L 90.758762 40.496718 
L 90.719018 41.842903 
L 90.685667 43.189087 
L 90.658864 44.535271 
L 90.638592 45.881455 
L 90.624737 47.22764 
L 90.617153 48.573824 
L 90.615713 49.920008 
L 90.620343 51.266192 
L 90.631041 52.612377 
L 90.647867 53.958561 
L 90.670932 55.304745 
L 90.700359 56.65093 
L 90.736248 57.997114 
L 90.778631 59.343298 
L 90.827431 60.689482 
L 90.882436 62.035667 
L 90.943278 63.381851 
L 91.009434 64.728035 
L 91.080253 66.074219 
L 91.155001 67.420404 
L 91.232927 68.766588 
L 91.313357 70.112772 
L 91.395797 71.458956 
L 91.480056 72.805141 
L 91.566365 74.151325 
L 91.655494 75.497509 
L 91.748858 76.843693 
L 91.848598 78.189878 
L 91.957626 79.536062 
L 92.079638 80.882246 
L 92.21907 82.22843 
L 92.381002 83.574615 
L 92.571009 84.920799 
L 92.794941 86.266983 
L 93.058648 87.613168 
L 93.367641 88.959352 
L 93.726698 90.305536 
L 94.139412 91.65172 
L 94.60772 92.997905 
L 95.131404 94.344089 
L 95.707617 95.690273 
L 96.330472 97.036457 
L 96.990738 98.382642 
L 97.675699 99.728826 
L 98.36924 101.07501 
L 99.052192 102.421194 
L 99.702978 103.767379 
L 100.298544 105.113563 
L 100.815554 106.459747 
L 101.231769 107.805931 
L 101.527512 109.152116 
L 101.687084 110.4983 
L 101.7 111.844484 
L 101.561901 113.190668 
L 101.275045 114.536853 
L 100.848304 115.883037 
L 100.296659 117.229221 
L 99.640227 118.575406 
L 98.902917 119.92159 
L 98.110851 121.267774 
L 97.290687 122.613958 
L 96.468029 123.960143 
L 95.666026 125.306327 
L 94.904295 126.652511 
L 94.198223 127.998695 
L 93.558652 129.34488 
L 92.991945 130.691064 
L 92.500354 132.037248 
L 92.082619 133.383432 
L 91.734702 134.729617 
L 91.450577 136.075801 
z
" clip-path="url(#pc70347e823)" style="fill: #20415a; fill-opacity: 0.35"/>
   </g>
   <g id="PolyCollection_4">
    <path d="M 113.029541 143.343436 
L 112.690459 143.343436 
L 112.648693 141.769791 
L 112.599876 140.196146 
L 112.543705 138.622501 
L 112.480101 137.048855 
L 112.409254 135.47521 
L 112.331666 133.901565 
L 112.248173 132.32792 
L 112.159955 130.754275 
L 112.068522 129.18063 
L 111.975675 127.606984 
L 111.883448 126.033339 
L 111.794029 124.459694 
L 111.709658 122.886049 
L 111.632524 121.312404 
L 111.564653 119.738758 
L 111.507805 118.165113 
L 111.46338 116.591468 
L 111.432351 115.017823 
L 111.415211 113.444178 
L 111.411962 111.870533 
L 111.422117 110.296887 
L 111.444741 108.723242 
L 111.478504 107.149597 
L 111.521753 105.575952 
L 111.572597 104.002307 
L 111.628987 102.428662 
L 111.6888 100.855016 
L 111.749915 99.281371 
L 111.810279 97.707726 
L 111.867965 96.134081 
L 111.921212 94.560436 
L 111.968468 92.986791 
L 112.00841 91.413145 
L 112.03997 89.8395 
L 112.062342 88.265855 
L 112.074986 86.69221 
L 112.077624 85.118565 
L 112.070219 83.544919 
L 112.052944 81.971274 
L 112.026137 80.397629 
L 111.990238 78.823984 
L 111.945717 77.250339 
L 111.892983 75.676694 
L 111.832293 74.103048 
L 111.763661 72.529403 
L 111.686769 70.955758 
L 111.600892 69.382113 
L 111.504853 67.808468 
L 111.396998 66.234823 
L 111.2752 64.661177 
L 111.136909 63.087532 
L 110.979228 61.513887 
L 110.799022 59.940242 
L 110.593058 58.366597 
L 110.358168 56.792952 
L 110.091421 55.219306 
L 109.790318 53.645661 
L 109.452972 52.072016 
L 109.0783 50.498371 
L 108.666189 48.924726 
L 108.217663 47.351081 
L 107.735011 45.777435 
L 107.221895 44.20379 
L 106.683425 42.630145 
L 106.126179 41.0565 
L 105.558179 39.482855 
L 104.988806 37.909209 
L 104.428645 36.335564 
L 103.88925 34.761919 
L 103.382846 33.188274 
L 102.921945 31.614629 
L 102.518916 30.040984 
L 102.185488 28.467338 
L 101.932252 26.893693 
L 101.768147 25.320048 
L 101.7 23.746403 
L 101.732124 22.172758 
L 101.866023 20.599113 
L 102.100224 19.025467 
L 102.430257 17.451822 
L 102.848784 15.878177 
L 103.345889 14.304532 
L 103.909493 12.730887 
L 104.525893 11.157242 
L 105.18036 9.583596 
L 105.85779 8.009951 
L 106.543334 6.436306 
L 107.22299 4.862661 
L 107.884109 3.289016 
L 108.515795 1.71537 
L 109.109178 0.141725 
L 109.657559 -1.43192 
L 110.15642 -3.005565 
L 110.603332 -4.57921 
L 110.99776 -6.152855 
L 111.3408 -7.726501 
L 111.63488 -9.300146 
L 111.883433 -10.873791 
L 112.090584 -12.447436 
L 113.629416 -12.447436 
L 113.629416 -12.447436 
L 113.836567 -10.873791 
L 114.08512 -9.300146 
L 114.3792 -7.726501 
L 114.72224 -6.152855 
L 115.116668 -4.57921 
L 115.56358 -3.005565 
L 116.062441 -1.43192 
L 116.610822 0.141725 
L 117.204205 1.71537 
L 117.835891 3.289016 
L 118.49701 4.862661 
L 119.176666 6.436306 
L 119.86221 8.009951 
L 120.53964 9.583596 
L 121.194107 11.157242 
L 121.810507 12.730887 
L 122.374111 14.304532 
L 122.871216 15.878177 
L 123.289743 17.451822 
L 123.619776 19.025467 
L 123.853977 20.599113 
L 123.987876 22.172758 
L 124.02 23.746403 
L 123.951853 25.320048 
L 123.787748 26.893693 
L 123.534512 28.467338 
L 123.201084 30.040984 
L 122.798055 31.614629 
L 122.337154 33.188274 
L 121.83075 34.761919 
L 121.291355 36.335564 
L 120.731194 37.909209 
L 120.161821 39.482855 
L 119.593821 41.0565 
L 119.036575 42.630145 
L 118.498105 44.20379 
L 117.984989 45.777435 
L 117.502337 47.351081 
L 117.053811 48.924726 
L 116.6417 50.498371 
L 116.267028 52.072016 
L 115.929682 53.645661 
L 115.628579 55.219306 
L 115.361832 56.792952 
L 115.126942 58.366597 
L 114.920978 59.940242 
L 114.740772 61.513887 
L 114.583091 63.087532 
L 114.4448 64.661177 
L 114.323002 66.234823 
L 114.215147 67.808468 
L 114.119108 69.382113 
L 114.033231 70.955758 
L 113.956339 72.529403 
L 113.887707 74.103048 
L 113.827017 75.676694 
L 113.774283 77.250339 
L 113.729762 78.823984 
L 113.693863 80.397629 
L 113.667056 81.971274 
L 113.649781 83.544919 
L 113.642376 85.118565 
L 113.645014 86.69221 
L 113.657658 88.265855 
L 113.68003 89.8395 
L 113.71159 91.413145 
L 113.751532 92.986791 
L 113.798788 94.560436 
L 113.852035 96.134081 
L 113.909721 97.707726 
L 113.970085 99.281371 
L 114.0312 100.855016 
L 114.091013 102.428662 
L 114.147403 104.002307 
L 114.198247 105.575952 
L 114.241496 107.149597 
L 114.275259 108.723242 
L 114.297883 110.296887 
L 114.308038 111.870533 
L 114.304789 113.444178 
L 114.287649 115.017823 
L 114.25662 116.591468 
L 114.212195 118.165113 
L 114.155347 119.738758 
L 114.087476 121.312404 
L 114.010342 122.886049 
L 113.925971 124.459694 
L 113.836552 126.033339 
L 113.744325 127.606984 
L 113.651478 129.18063 
L 113.560045 130.754275 
L 113.471827 132.32792 
L 113.388334 133.901565 
L 113.310746 135.47521 
L 113.239899 137.048855 
L 113.176295 138.622501 
L 113.120124 140.196146 
L 113.071307 141.769791 
L 113.029541 143.343436 
z
" clip-path="url(#pc70347e823)" style="fill: #c1613e; fill-opacity: 0.35"/>
   </g>
   <g id="patch_3">
    <path d="M 23.58 115.344 
L 45.9 115.344 
L 45.9 19.753768 
L 23.58 19.753768 
L 23.58 115.344 
z
" clip-path="url(#pc70347e823)" style="fill: none"/>
   </g>
   <g id="patch_4">
    <path d="M 79.38 115.344 
L 101.7 115.344 
L 101.7 103.474004 
L 79.38 103.474004 
L 79.38 115.344 
z
" clip-path="url(#pc70347e823)" style="fill: none"/>
   </g>
   <g id="patch_5">
    <path d="M 45.9 115.344 
L 68.22 115.344 
L 68.22 89.739474 
L 45.9 89.739474 
L 45.9 115.344 
z
" clip-path="url(#pc70347e823)" style="fill: none"/>
   </g>
   <g id="patch_6">
    <path d="M 101.7 115.344 
L 124.02 115.344 
L 124.02 36.166926 
L 101.7 36.166926 
L 101.7 115.344 
z
" clip-path="url(#pc70347e823)" style="fill: none"/>
   </g>
   <g id="patch_7">
    <path d="M 45.9 115.344 
L 45.9 115.344 
L 45.9 115.344 
L 45.9 115.344 
z
" clip-path="url(#pc70347e823)" style="fill: #3274a1"/>
   </g>
   <g id="patch_8">
    <path d="M 45.9 115.344 
L 45.9 115.344 
L 45.9 115.344 
L 45.9 115.344 
z
" clip-path="url(#pc70347e823)" style="fill: #e1812c"/>
   </g>
   <g id="patch_9">
    <path d="M 23.58 115.344 
L 45.9 115.344 
L 45.9 19.753768 
L 23.58 19.753768 
z
" clip-path="url(#pc70347e823)" style="fill: #20415a; opacity: 0.3; stroke: #000000; stroke-linejoin: miter"/>
   </g>
   <g id="patch_10">
    <path d="M 79.38 115.344 
L 101.7 115.344 
L 101.7 103.474004 
L 79.38 103.474004 
z
" clip-path="url(#pc70347e823)" style="fill: #20415a; opacity: 0.3; stroke: #000000; stroke-linejoin: miter"/>
   </g>
   <g id="patch_11">
    <path d="M 45.9 115.344 
L 68.22 115.344 
L 68.22 89.739474 
L 45.9 89.739474 
z
" clip-path="url(#pc70347e823)" style="fill: #c1613e; opacity: 0.3; stroke: #000000; stroke-linejoin: miter"/>
   </g>
   <g id="patch_12">
    <path d="M 101.7 115.344 
L 124.02 115.344 
L 124.02 36.166926 
L 101.7 36.166926 
z
" clip-path="url(#pc70347e823)" style="fill: #c1613e; opacity: 0.3; stroke: #000000; stroke-linejoin: miter"/>
   </g>
   <g id="patch_13">
    <path d="M 45.9 115.344 
L 45.9 115.344 
L 45.9 115.344 
L 45.9 115.344 
z
" clip-path="url(#pc70347e823)" style="fill: #20415a; opacity: 0.3; stroke: #000000; stroke-linejoin: miter"/>
   </g>
   <g id="patch_14">
    <path d="M 45.9 115.344 
L 45.9 115.344 
L 45.9 115.344 
L 45.9 115.344 
z
" clip-path="url(#pc70347e823)" style="fill: #c1613e; opacity: 0.3; stroke: #000000; stroke-linejoin: miter"/>
   </g>
   <g id="matplotlib.axis_1">
    <g id="xtick_1">
     <g id="line2d_1">
      <defs>
       <path id="m35d48955f7" d="M 0 0 
L 0 3.5 
" style="stroke: #000000"/>
      </defs>
      <g>
       <use xlink:href="#m35d48955f7" x="45.9" y="115.344" style="stroke: #000000"/>
      </g>
     </g>
     <g id="text_1">
      <!-- reward -->
      <g transform="translate(30.617969 129.501812) scale(0.1 -0.1)">
       <defs>
        <path id="ArialMT-72" d="M 416 0 
L 416 3319 
L 922 3319 
L 922 2816 
Q 1116 3169 1280 3281 
Q 1444 3394 1641 3394 
Q 1925 3394 2219 3213 
L 2025 2691 
Q 1819 2813 1613 2813 
Q 1428 2813 1281 2702 
Q 1134 2591 1072 2394 
Q 978 2094 978 1738 
L 978 0 
L 416 0 
z
" transform="scale(0.015625)"/>
        <path id="ArialMT-65" d="M 2694 1069 
L 3275 997 
Q 3138 488 2766 206 
Q 2394 -75 1816 -75 
Q 1088 -75 661 373 
Q 234 822 234 1631 
Q 234 2469 665 2931 
Q 1097 3394 1784 3394 
Q 2450 3394 2872 2941 
Q 3294 2488 3294 1666 
Q 3294 1616 3291 1516 
L 816 1516 
Q 847 969 1125 678 
Q 1403 388 1819 388 
Q 2128 388 2347 550 
Q 2566 713 2694 1069 
z
M 847 1978 
L 2700 1978 
Q 2663 2397 2488 2606 
Q 2219 2931 1791 2931 
Q 1403 2931 1139 2672 
Q 875 2413 847 1978 
z
" transform="scale(0.015625)"/>
        <path id="ArialMT-77" d="M 1034 0 
L 19 3319 
L 600 3319 
L 1128 1403 
L 1325 691 
Q 1338 744 1497 1375 
L 2025 3319 
L 2603 3319 
L 3100 1394 
L 3266 759 
L 3456 1400 
L 4025 3319 
L 4572 3319 
L 3534 0 
L 2950 0 
L 2422 1988 
L 2294 2553 
L 1622 0 
L 1034 0 
z
" transform="scale(0.015625)"/>
        <path id="ArialMT-61" d="M 2588 409 
Q 2275 144 1986 34 
Q 1697 -75 1366 -75 
Q 819 -75 525 192 
Q 231 459 231 875 
Q 231 1119 342 1320 
Q 453 1522 633 1644 
Q 813 1766 1038 1828 
Q 1203 1872 1538 1913 
Q 2219 1994 2541 2106 
Q 2544 2222 2544 2253 
Q 2544 2597 2384 2738 
Q 2169 2928 1744 2928 
Q 1347 2928 1158 2789 
Q 969 2650 878 2297 
L 328 2372 
Q 403 2725 575 2942 
Q 747 3159 1072 3276 
Q 1397 3394 1825 3394 
Q 2250 3394 2515 3294 
Q 2781 3194 2906 3042 
Q 3031 2891 3081 2659 
Q 3109 2516 3109 2141 
L 3109 1391 
Q 3109 606 3145 398 
Q 3181 191 3288 0 
L 2700 0 
Q 2613 175 2588 409 
z
M 2541 1666 
Q 2234 1541 1622 1453 
Q 1275 1403 1131 1340 
Q 988 1278 909 1158 
Q 831 1038 831 891 
Q 831 666 1001 516 
Q 1172 366 1500 366 
Q 1825 366 2078 508 
Q 2331 650 2450 897 
Q 2541 1088 2541 1459 
L 2541 1666 
z
" transform="scale(0.015625)"/>
        <path id="ArialMT-64" d="M 2575 0 
L 2575 419 
Q 2259 -75 1647 -75 
Q 1250 -75 917 144 
Q 584 363 401 755 
Q 219 1147 219 1656 
Q 219 2153 384 2558 
Q 550 2963 881 3178 
Q 1213 3394 1622 3394 
Q 1922 3394 2156 3267 
Q 2391 3141 2538 2938 
L 2538 4581 
L 3097 4581 
L 3097 0 
L 2575 0 
z
M 797 1656 
Q 797 1019 1065 703 
Q 1334 388 1700 388 
Q 2069 388 2326 689 
Q 2584 991 2584 1609 
Q 2584 2291 2321 2609 
Q 2059 2928 1675 2928 
Q 1300 2928 1048 2622 
Q 797 2316 797 1656 
z
" transform="scale(0.015625)"/>
       </defs>
       <use xlink:href="#ArialMT-72"/>
       <use xlink:href="#ArialMT-65" x="33.300781"/>
       <use xlink:href="#ArialMT-77" x="88.916016"/>
       <use xlink:href="#ArialMT-61" x="161.132812"/>
       <use xlink:href="#ArialMT-72" x="216.748047"/>
       <use xlink:href="#ArialMT-64" x="250.048828"/>
      </g>
     </g>
    </g>
    <g id="xtick_2">
     <g id="line2d_2">
      <g>
       <use xlink:href="#m35d48955f7" x="101.7" y="115.344" style="stroke: #000000"/>
      </g>
     </g>
     <g id="text_2">
      <!-- unrewarded -->
      <g transform="translate(75.296094 129.501812) scale(0.1 -0.1)">
       <defs>
        <path id="ArialMT-75" d="M 2597 0 
L 2597 488 
Q 2209 -75 1544 -75 
Q 1250 -75 995 37 
Q 741 150 617 320 
Q 494 491 444 738 
Q 409 903 409 1263 
L 409 3319 
L 972 3319 
L 972 1478 
Q 972 1038 1006 884 
Q 1059 663 1231 536 
Q 1403 409 1656 409 
Q 1909 409 2131 539 
Q 2353 669 2445 892 
Q 2538 1116 2538 1541 
L 2538 3319 
L 3100 3319 
L 3100 0 
L 2597 0 
z
" transform="scale(0.015625)"/>
        <path id="ArialMT-6e" d="M 422 0 
L 422 3319 
L 928 3319 
L 928 2847 
Q 1294 3394 1984 3394 
Q 2284 3394 2536 3286 
Q 2788 3178 2913 3003 
Q 3038 2828 3088 2588 
Q 3119 2431 3119 2041 
L 3119 0 
L 2556 0 
L 2556 2019 
Q 2556 2363 2490 2533 
Q 2425 2703 2258 2804 
Q 2091 2906 1866 2906 
Q 1506 2906 1245 2678 
Q 984 2450 984 1813 
L 984 0 
L 422 0 
z
" transform="scale(0.015625)"/>
       </defs>
       <use xlink:href="#ArialMT-75"/>
       <use xlink:href="#ArialMT-6e" x="55.615234"/>
       <use xlink:href="#ArialMT-72" x="111.230469"/>
       <use xlink:href="#ArialMT-65" x="144.53125"/>
       <use xlink:href="#ArialMT-77" x="200.146484"/>
       <use xlink:href="#ArialMT-61" x="272.363281"/>
       <use xlink:href="#ArialMT-72" x="327.978516"/>
       <use xlink:href="#ArialMT-64" x="361.279297"/>
       <use xlink:href="#ArialMT-65" x="416.894531"/>
       <use xlink:href="#ArialMT-64" x="472.509766"/>
      </g>
     </g>
    </g>
   </g>
   <g id="matplotlib.axis_2">
    <g id="ytick_1">
     <g id="line2d_3">
      <defs>
       <path id="m40d155339c" d="M 0 0 
L -3.5 0 
" style="stroke: #000000"/>
      </defs>
      <g>
       <use xlink:href="#m40d155339c" x="18" y="115.344" style="stroke: #000000"/>
      </g>
     </g>
     <g id="text_3">
      <!-- 0.00 -->
      <g transform="translate(-8.460938 118.922906) scale(0.1 -0.1)">
       <defs>
        <path id="ArialMT-30" d="M 266 2259 
Q 266 3072 433 3567 
Q 600 4063 929 4331 
Q 1259 4600 1759 4600 
Q 2128 4600 2406 4451 
Q 2684 4303 2865 4023 
Q 3047 3744 3150 3342 
Q 3253 2941 3253 2259 
Q 3253 1453 3087 958 
Q 2922 463 2592 192 
Q 2263 -78 1759 -78 
Q 1097 -78 719 397 
Q 266 969 266 2259 
z
M 844 2259 
Q 844 1131 1108 757 
Q 1372 384 1759 384 
Q 2147 384 2411 759 
Q 2675 1134 2675 2259 
Q 2675 3391 2411 3762 
Q 2147 4134 1753 4134 
Q 1366 4134 1134 3806 
Q 844 3388 844 2259 
z
" transform="scale(0.015625)"/>
        <path id="ArialMT-2e" d="M 581 0 
L 581 641 
L 1222 641 
L 1222 0 
L 581 0 
z
" transform="scale(0.015625)"/>
       </defs>
       <use xlink:href="#ArialMT-30"/>
       <use xlink:href="#ArialMT-2e" x="55.615234"/>
       <use xlink:href="#ArialMT-30" x="83.398438"/>
       <use xlink:href="#ArialMT-30" x="139.013672"/>
      </g>
     </g>
    </g>
    <g id="ytick_2">
     <g id="line2d_4">
      <g>
       <use xlink:href="#m40d155339c" x="18" y="90.396" style="stroke: #000000"/>
      </g>
     </g>
     <g id="text_4">
      <!-- 0.25 -->
      <g transform="translate(-8.460938 93.974906) scale(0.1 -0.1)">
       <defs>
        <path id="ArialMT-32" d="M 3222 541 
L 3222 0 
L 194 0 
Q 188 203 259 391 
Q 375 700 629 1000 
Q 884 1300 1366 1694 
Q 2113 2306 2375 2664 
Q 2638 3022 2638 3341 
Q 2638 3675 2398 3904 
Q 2159 4134 1775 4134 
Q 1369 4134 1125 3890 
Q 881 3647 878 3216 
L 300 3275 
Q 359 3922 746 4261 
Q 1134 4600 1788 4600 
Q 2447 4600 2831 4234 
Q 3216 3869 3216 3328 
Q 3216 3053 3103 2787 
Q 2991 2522 2730 2228 
Q 2469 1934 1863 1422 
Q 1356 997 1212 845 
Q 1069 694 975 541 
L 3222 541 
z
" transform="scale(0.015625)"/>
        <path id="ArialMT-35" d="M 266 1200 
L 856 1250 
Q 922 819 1161 601 
Q 1400 384 1738 384 
Q 2144 384 2425 690 
Q 2706 997 2706 1503 
Q 2706 1984 2436 2262 
Q 2166 2541 1728 2541 
Q 1456 2541 1237 2417 
Q 1019 2294 894 2097 
L 366 2166 
L 809 4519 
L 3088 4519 
L 3088 3981 
L 1259 3981 
L 1013 2750 
Q 1425 3038 1878 3038 
Q 2478 3038 2890 2622 
Q 3303 2206 3303 1553 
Q 3303 931 2941 478 
Q 2500 -78 1738 -78 
Q 1113 -78 717 272 
Q 322 622 266 1200 
z
" transform="scale(0.015625)"/>
       </defs>
       <use xlink:href="#ArialMT-30"/>
       <use xlink:href="#ArialMT-2e" x="55.615234"/>
       <use xlink:href="#ArialMT-32" x="83.398438"/>
       <use xlink:href="#ArialMT-35" x="139.013672"/>
      </g>
     </g>
    </g>
    <g id="ytick_3">
     <g id="line2d_5">
      <g>
       <use xlink:href="#m40d155339c" x="18" y="65.448" style="stroke: #000000"/>
      </g>
     </g>
     <g id="text_5">
      <!-- 0.50 -->
      <g transform="translate(-8.460938 69.026906) scale(0.1 -0.1)">
       <use xlink:href="#ArialMT-30"/>
       <use xlink:href="#ArialMT-2e" x="55.615234"/>
       <use xlink:href="#ArialMT-35" x="83.398438"/>
       <use xlink:href="#ArialMT-30" x="139.013672"/>
      </g>
     </g>
    </g>
    <g id="ytick_4">
     <g id="line2d_6">
      <g>
       <use xlink:href="#m40d155339c" x="18" y="40.5" style="stroke: #000000"/>
      </g>
     </g>
     <g id="text_6">
      <!-- 0.75 -->
      <g transform="translate(-8.460938 44.078906) scale(0.1 -0.1)">
       <defs>
        <path id="ArialMT-37" d="M 303 3981 
L 303 4522 
L 3269 4522 
L 3269 4084 
Q 2831 3619 2401 2847 
Q 1972 2075 1738 1259 
Q 1569 684 1522 0 
L 944 0 
Q 953 541 1156 1306 
Q 1359 2072 1739 2783 
Q 2119 3494 2547 3981 
L 303 3981 
z
" transform="scale(0.015625)"/>
       </defs>
       <use xlink:href="#ArialMT-30"/>
       <use xlink:href="#ArialMT-2e" x="55.615234"/>
       <use xlink:href="#ArialMT-37" x="83.398438"/>
       <use xlink:href="#ArialMT-35" x="139.013672"/>
      </g>
     </g>
    </g>
    <g id="ytick_5">
     <g id="line2d_7">
      <g>
       <use xlink:href="#m40d155339c" x="18" y="15.552" style="stroke: #000000"/>
      </g>
     </g>
     <g id="text_7">
      <!-- 1.00 -->
      <g transform="translate(-8.460938 19.130906) scale(0.1 -0.1)">
       <defs>
        <path id="ArialMT-31" d="M 2384 0 
L 1822 0 
L 1822 3584 
Q 1619 3391 1289 3197 
Q 959 3003 697 2906 
L 697 3450 
Q 1169 3672 1522 3987 
Q 1875 4303 2022 4600 
L 2384 4600 
L 2384 0 
z
" transform="scale(0.015625)"/>
       </defs>
       <use xlink:href="#ArialMT-31"/>
       <use xlink:href="#ArialMT-2e" x="55.615234"/>
       <use xlink:href="#ArialMT-30" x="83.398438"/>
       <use xlink:href="#ArialMT-30" x="139.013672"/>
      </g>
     </g>
    </g>
    <g id="text_8">
     <!-- stay probability -->
     <g transform="translate(-14.565625 98.795656) rotate(-90) scale(0.1 -0.1)">
      <defs>
       <path id="ArialMT-73" d="M 197 991 
L 753 1078 
Q 800 744 1014 566 
Q 1228 388 1613 388 
Q 2000 388 2187 545 
Q 2375 703 2375 916 
Q 2375 1106 2209 1216 
Q 2094 1291 1634 1406 
Q 1016 1563 777 1677 
Q 538 1791 414 1992 
Q 291 2194 291 2438 
Q 291 2659 392 2848 
Q 494 3038 669 3163 
Q 800 3259 1026 3326 
Q 1253 3394 1513 3394 
Q 1903 3394 2198 3281 
Q 2494 3169 2634 2976 
Q 2775 2784 2828 2463 
L 2278 2388 
Q 2241 2644 2061 2787 
Q 1881 2931 1553 2931 
Q 1166 2931 1000 2803 
Q 834 2675 834 2503 
Q 834 2394 903 2306 
Q 972 2216 1119 2156 
Q 1203 2125 1616 2013 
Q 2213 1853 2448 1751 
Q 2684 1650 2818 1456 
Q 2953 1263 2953 975 
Q 2953 694 2789 445 
Q 2625 197 2315 61 
Q 2006 -75 1616 -75 
Q 969 -75 630 194 
Q 291 463 197 991 
z
" transform="scale(0.015625)"/>
       <path id="ArialMT-74" d="M 1650 503 
L 1731 6 
Q 1494 -44 1306 -44 
Q 1000 -44 831 53 
Q 663 150 594 308 
Q 525 466 525 972 
L 525 2881 
L 113 2881 
L 113 3319 
L 525 3319 
L 525 4141 
L 1084 4478 
L 1084 3319 
L 1650 3319 
L 1650 2881 
L 1084 2881 
L 1084 941 
Q 1084 700 1114 631 
Q 1144 563 1211 522 
Q 1278 481 1403 481 
Q 1497 481 1650 503 
z
" transform="scale(0.015625)"/>
       <path id="ArialMT-79" d="M 397 -1278 
L 334 -750 
Q 519 -800 656 -800 
Q 844 -800 956 -737 
Q 1069 -675 1141 -563 
Q 1194 -478 1313 -144 
Q 1328 -97 1363 -6 
L 103 3319 
L 709 3319 
L 1400 1397 
Q 1534 1031 1641 628 
Q 1738 1016 1872 1384 
L 2581 3319 
L 3144 3319 
L 1881 -56 
Q 1678 -603 1566 -809 
Q 1416 -1088 1222 -1217 
Q 1028 -1347 759 -1347 
Q 597 -1347 397 -1278 
z
" transform="scale(0.015625)"/>
       <path id="ArialMT-20" transform="scale(0.015625)"/>
       <path id="ArialMT-70" d="M 422 -1272 
L 422 3319 
L 934 3319 
L 934 2888 
Q 1116 3141 1344 3267 
Q 1572 3394 1897 3394 
Q 2322 3394 2647 3175 
Q 2972 2956 3137 2557 
Q 3303 2159 3303 1684 
Q 3303 1175 3120 767 
Q 2938 359 2589 142 
Q 2241 -75 1856 -75 
Q 1575 -75 1351 44 
Q 1128 163 984 344 
L 984 -1272 
L 422 -1272 
z
M 931 1641 
Q 931 1000 1190 694 
Q 1450 388 1819 388 
Q 2194 388 2461 705 
Q 2728 1022 2728 1688 
Q 2728 2322 2467 2637 
Q 2206 2953 1844 2953 
Q 1484 2953 1207 2617 
Q 931 2281 931 1641 
z
" transform="scale(0.015625)"/>
       <path id="ArialMT-6f" d="M 213 1659 
Q 213 2581 725 3025 
Q 1153 3394 1769 3394 
Q 2453 3394 2887 2945 
Q 3322 2497 3322 1706 
Q 3322 1066 3130 698 
Q 2938 331 2570 128 
Q 2203 -75 1769 -75 
Q 1072 -75 642 372 
Q 213 819 213 1659 
z
M 791 1659 
Q 791 1022 1069 705 
Q 1347 388 1769 388 
Q 2188 388 2466 706 
Q 2744 1025 2744 1678 
Q 2744 2294 2464 2611 
Q 2184 2928 1769 2928 
Q 1347 2928 1069 2612 
Q 791 2297 791 1659 
z
" transform="scale(0.015625)"/>
       <path id="ArialMT-62" d="M 941 0 
L 419 0 
L 419 4581 
L 981 4581 
L 981 2947 
Q 1338 3394 1891 3394 
Q 2197 3394 2470 3270 
Q 2744 3147 2920 2923 
Q 3097 2700 3197 2384 
Q 3297 2069 3297 1709 
Q 3297 856 2875 390 
Q 2453 -75 1863 -75 
Q 1275 -75 941 416 
L 941 0 
z
M 934 1684 
Q 934 1088 1097 822 
Q 1363 388 1816 388 
Q 2184 388 2453 708 
Q 2722 1028 2722 1663 
Q 2722 2313 2464 2622 
Q 2206 2931 1841 2931 
Q 1472 2931 1203 2611 
Q 934 2291 934 1684 
z
" transform="scale(0.015625)"/>
       <path id="ArialMT-69" d="M 425 3934 
L 425 4581 
L 988 4581 
L 988 3934 
L 425 3934 
z
M 425 0 
L 425 3319 
L 988 3319 
L 988 0 
L 425 0 
z
" transform="scale(0.015625)"/>
       <path id="ArialMT-6c" d="M 409 0 
L 409 4581 
L 972 4581 
L 972 0 
L 409 0 
z
" transform="scale(0.015625)"/>
      </defs>
      <use xlink:href="#ArialMT-73"/>
      <use xlink:href="#ArialMT-74" x="50"/>
      <use xlink:href="#ArialMT-61" x="77.783203"/>
      <use xlink:href="#ArialMT-79" x="133.398438"/>
      <use xlink:href="#ArialMT-20" x="183.398438"/>
      <use xlink:href="#ArialMT-70" x="211.181641"/>
      <use xlink:href="#ArialMT-72" x="266.796875"/>
      <use xlink:href="#ArialMT-6f" x="300.097656"/>
      <use xlink:href="#ArialMT-62" x="355.712891"/>
      <use xlink:href="#ArialMT-61" x="411.328125"/>
      <use xlink:href="#ArialMT-62" x="466.943359"/>
      <use xlink:href="#ArialMT-69" x="522.558594"/>
      <use xlink:href="#ArialMT-6c" x="544.775391"/>
      <use xlink:href="#ArialMT-69" x="566.992188"/>
      <use xlink:href="#ArialMT-74" x="589.208984"/>
      <use xlink:href="#ArialMT-79" x="616.992188"/>
     </g>
    </g>
   </g>
   <g id="PathCollection_1">
    <defs>
     <path id="C0_0_21ed76713d" d="M 0 3.5 
C 0.928211 3.5 1.81853 3.131218 2.474874 2.474874 
C 3.131218 1.81853 3.5 0.928211 3.5 -0 
C 3.5 -0.928211 3.131218 -1.81853 2.474874 -2.474874 
C 1.81853 -3.131218 0.928211 -3.5 0 -3.5 
C -0.928211 -3.5 -1.81853 -3.131218 -2.474874 -2.474874 
C -3.131218 -1.81853 -3.5 -0.928211 -3.5 0 
C -3.5 0.928211 -3.131218 1.81853 -2.474874 2.474874 
C -1.81853 3.131218 -0.928211 3.5 0 3.5 
z
"/>
    </defs>
    <g clip-path="url(#pc70347e823)">
     <use xlink:href="#C0_0_21ed76713d" x="36.008472" y="17.54784" style="fill: #174263; fill-opacity: 0.45"/>
    </g>
    <g clip-path="url(#pc70347e823)">
     <use xlink:href="#C0_0_21ed76713d" x="36.373713" y="17.54784" style="fill: #174263; fill-opacity: 0.45"/>
    </g>
    <g clip-path="url(#pc70347e823)">
     <use xlink:href="#C0_0_21ed76713d" x="34.846477" y="17.54784" style="fill: #174263; fill-opacity: 0.45"/>
    </g>
    <g clip-path="url(#pc70347e823)">
     <use xlink:href="#C0_0_21ed76713d" x="35.027502" y="15.552" style="fill: #174263; fill-opacity: 0.45"/>
    </g>
    <g clip-path="url(#pc70347e823)">
     <use xlink:href="#C0_0_21ed76713d" x="36.950124" y="21.53952" style="fill: #174263; fill-opacity: 0.45"/>
    </g>
    <g clip-path="url(#pc70347e823)">
     <use xlink:href="#C0_0_21ed76713d" x="37.16863" y="18.54576" style="fill: #174263; fill-opacity: 0.45"/>
    </g>
    <g clip-path="url(#pc70347e823)">
     <use xlink:href="#C0_0_21ed76713d" x="36.781456" y="22.53744" style="fill: #174263; fill-opacity: 0.45"/>
    </g>
    <g clip-path="url(#pc70347e823)">
     <use xlink:href="#C0_0_21ed76713d" x="33.375494" y="18.54576" style="fill: #174263; fill-opacity: 0.45"/>
    </g>
    <g clip-path="url(#pc70347e823)">
     <use xlink:href="#C0_0_21ed76713d" x="32.535196" y="15.552" style="fill: #174263; fill-opacity: 0.45"/>
    </g>
    <g clip-path="url(#pc70347e823)">
     <use xlink:href="#C0_0_21ed76713d" x="33.404421" y="18.54576" style="fill: #174263; fill-opacity: 0.45"/>
    </g>
    <g clip-path="url(#pc70347e823)">
     <use xlink:href="#C0_0_21ed76713d" x="35.276553" y="15.552" style="fill: #174263; fill-opacity: 0.45"/>
    </g>
    <g clip-path="url(#pc70347e823)">
     <use xlink:href="#C0_0_21ed76713d" x="36.793027" y="15.552" style="fill: #174263; fill-opacity: 0.45"/>
    </g>
    <g clip-path="url(#pc70347e823)">
     <use xlink:href="#C0_0_21ed76713d" x="35.469696" y="17.54784" style="fill: #174263; fill-opacity: 0.45"/>
    </g>
    <g clip-path="url(#pc70347e823)">
     <use xlink:href="#C0_0_21ed76713d" x="36.706222" y="48.48336" style="fill: #174263; fill-opacity: 0.45"/>
    </g>
    <g clip-path="url(#pc70347e823)">
     <use xlink:href="#C0_0_21ed76713d" x="36.193649" y="19.54368" style="fill: #174263; fill-opacity: 0.45"/>
    </g>
    <g clip-path="url(#pc70347e823)">
     <use xlink:href="#C0_0_21ed76713d" x="33.15399" y="51.47712" style="fill: #174263; fill-opacity: 0.45"/>
    </g>
    <g clip-path="url(#pc70347e823)">
     <use xlink:href="#C0_0_21ed76713d" x="35.6838" y="15.552" style="fill: #174263; fill-opacity: 0.45"/>
    </g>
    <g clip-path="url(#pc70347e823)">
     <use xlink:href="#C0_0_21ed76713d" x="33.157818" y="32.51664" style="fill: #174263; fill-opacity: 0.45"/>
    </g>
    <g clip-path="url(#pc70347e823)">
     <use xlink:href="#C0_0_21ed76713d" x="35.068765" y="18.54576" style="fill: #174263; fill-opacity: 0.45"/>
    </g>
    <g clip-path="url(#pc70347e823)">
     <use xlink:href="#C0_0_21ed76713d" x="34.033799" y="15.552" style="fill: #174263; fill-opacity: 0.45"/>
    </g>
    <g clip-path="url(#pc70347e823)">
     <use xlink:href="#C0_0_21ed76713d" x="34.553793" y="15.552" style="fill: #174263; fill-opacity: 0.45"/>
    </g>
    <g clip-path="url(#pc70347e823)">
     <use xlink:href="#C0_0_21ed76713d" x="37.195091" y="15.552" style="fill: #174263; fill-opacity: 0.45"/>
    </g>
    <g clip-path="url(#pc70347e823)">
     <use xlink:href="#C0_0_21ed76713d" x="36.324246" y="28.52496" style="fill: #174263; fill-opacity: 0.45"/>
    </g>
    <g clip-path="url(#pc70347e823)">
     <use xlink:href="#C0_0_21ed76713d" x="34.626476" y="22.53744" style="fill: #174263; fill-opacity: 0.45"/>
    </g>
    <g clip-path="url(#pc70347e823)">
     <use xlink:href="#C0_0_21ed76713d" x="36.097335" y="15.552" style="fill: #174263; fill-opacity: 0.45"/>
    </g>
    <g clip-path="url(#pc70347e823)">
     <use xlink:href="#C0_0_21ed76713d" x="36.972673" y="15.552" style="fill: #174263; fill-opacity: 0.45"/>
    </g>
    <g clip-path="url(#pc70347e823)">
     <use xlink:href="#C0_0_21ed76713d" x="33.13288" y="20.5416" style="fill: #174263; fill-opacity: 0.45"/>
    </g>
    <g clip-path="url(#pc70347e823)">
     <use xlink:href="#C0_0_21ed76713d" x="35.405491" y="15.552" style="fill: #174263; fill-opacity: 0.45"/>
    </g>
    <g clip-path="url(#pc70347e823)">
     <use xlink:href="#C0_0_21ed76713d" x="34.901827" y="17.54784" style="fill: #174263; fill-opacity: 0.45"/>
    </g>
    <g clip-path="url(#pc70347e823)">
     <use xlink:href="#C0_0_21ed76713d" x="33.167584" y="15.552" style="fill: #174263; fill-opacity: 0.45"/>
    </g>
    <g clip-path="url(#pc70347e823)">
     <use xlink:href="#C0_0_21ed76713d" x="32.947722" y="15.552" style="fill: #174263; fill-opacity: 0.45"/>
    </g>
    <g clip-path="url(#pc70347e823)">
     <use xlink:href="#C0_0_21ed76713d" x="33.391813" y="21.53952" style="fill: #174263; fill-opacity: 0.45"/>
    </g>
    <g clip-path="url(#pc70347e823)">
     <use xlink:href="#C0_0_21ed76713d" x="34.063122" y="17.54784" style="fill: #174263; fill-opacity: 0.45"/>
    </g>
    <g clip-path="url(#pc70347e823)">
     <use xlink:href="#C0_0_21ed76713d" x="34.113638" y="17.54784" style="fill: #174263; fill-opacity: 0.45"/>
    </g>
    <g clip-path="url(#pc70347e823)">
     <use xlink:href="#C0_0_21ed76713d" x="36.334177" y="15.552" style="fill: #174263; fill-opacity: 0.45"/>
    </g>
    <g clip-path="url(#pc70347e823)">
     <use xlink:href="#C0_0_21ed76713d" x="33.04525" y="15.552" style="fill: #174263; fill-opacity: 0.45"/>
    </g>
    <g clip-path="url(#pc70347e823)">
     <use xlink:href="#C0_0_21ed76713d" x="34.748064" y="15.552" style="fill: #174263; fill-opacity: 0.45"/>
    </g>
    <g clip-path="url(#pc70347e823)">
     <use xlink:href="#C0_0_21ed76713d" x="34.407435" y="15.552" style="fill: #174263; fill-opacity: 0.45"/>
    </g>
   </g>
   <g id="PathCollection_2">
    <defs>
     <path id="C1_0_0c433aa884" d="M 0 3.5 
C 0.928211 3.5 1.81853 3.131218 2.474874 2.474874 
C 3.131218 1.81853 3.5 0.928211 3.5 -0 
C 3.5 -0.928211 3.131218 -1.81853 2.474874 -2.474874 
C 1.81853 -3.131218 0.928211 -3.5 0 -3.5 
C -0.928211 -3.5 -1.81853 -3.131218 -2.474874 -2.474874 
C -3.131218 -1.81853 -3.5 -0.928211 -3.5 0 
C -3.5 0.928211 -3.131218 1.81853 -2.474874 2.474874 
C -1.81853 3.131218 -0.928211 3.5 0 3.5 
z
"/>
    </defs>
    <g clip-path="url(#pc70347e823)">
     <use xlink:href="#C1_0_0c433aa884" x="56.11204" y="15.552" style="fill: #d75728; fill-opacity: 0.45"/>
    </g>
    <g clip-path="url(#pc70347e823)">
     <use xlink:href="#C1_0_0c433aa884" x="58.343098" y="115.344" style="fill: #d75728; fill-opacity: 0.45"/>
    </g>
    <g clip-path="url(#pc70347e823)">
     <use xlink:href="#C1_0_0c433aa884" x="54.526309" y="15.552" style="fill: #d75728; fill-opacity: 0.45"/>
    </g>
    <g clip-path="url(#pc70347e823)">
     <use xlink:href="#C1_0_0c433aa884" x="56.15043" y="100.3752" style="fill: #d75728; fill-opacity: 0.45"/>
    </g>
    <g clip-path="url(#pc70347e823)">
     <use xlink:href="#C1_0_0c433aa884" x="56.328246" y="115.344" style="fill: #d75728; fill-opacity: 0.45"/>
    </g>
    <g clip-path="url(#pc70347e823)">
     <use xlink:href="#C1_0_0c433aa884" x="54.898711" y="115.344" style="fill: #d75728; fill-opacity: 0.45"/>
    </g>
    <g clip-path="url(#pc70347e823)">
     <use xlink:href="#C1_0_0c433aa884" x="58.170438" y="15.552" style="fill: #d75728; fill-opacity: 0.45"/>
    </g>
    <g clip-path="url(#pc70347e823)">
     <use xlink:href="#C1_0_0c433aa884" x="58.765332" y="110.3544" style="fill: #d75728; fill-opacity: 0.45"/>
    </g>
    <g clip-path="url(#pc70347e823)">
     <use xlink:href="#C1_0_0c433aa884" x="58.22762" y="115.344" style="fill: #d75728; fill-opacity: 0.45"/>
    </g>
    <g clip-path="url(#pc70347e823)">
     <use xlink:href="#C1_0_0c433aa884" x="54.906162" y="87.40224" style="fill: #d75728; fill-opacity: 0.45"/>
    </g>
    <g clip-path="url(#pc70347e823)">
     <use xlink:href="#C1_0_0c433aa884" x="57.480761" y="15.552" style="fill: #d75728; fill-opacity: 0.45"/>
    </g>
    <g clip-path="url(#pc70347e823)">
     <use xlink:href="#C1_0_0c433aa884" x="59.029076" y="99.37728" style="fill: #d75728; fill-opacity: 0.45"/>
    </g>
    <g clip-path="url(#pc70347e823)">
     <use xlink:href="#C1_0_0c433aa884" x="57.725696" y="107.36064" style="fill: #d75728; fill-opacity: 0.45"/>
    </g>
    <g clip-path="url(#pc70347e823)">
     <use xlink:href="#C1_0_0c433aa884" x="54.856546" y="77.42304" style="fill: #d75728; fill-opacity: 0.45"/>
    </g>
    <g clip-path="url(#pc70347e823)">
     <use xlink:href="#C1_0_0c433aa884" x="55.247018" y="108.35856" style="fill: #d75728; fill-opacity: 0.45"/>
    </g>
    <g clip-path="url(#pc70347e823)">
     <use xlink:href="#C1_0_0c433aa884" x="56.626391" y="115.344" style="fill: #d75728; fill-opacity: 0.45"/>
    </g>
    <g clip-path="url(#pc70347e823)">
     <use xlink:href="#C1_0_0c433aa884" x="58.73121" y="102.37104" style="fill: #d75728; fill-opacity: 0.45"/>
    </g>
    <g clip-path="url(#pc70347e823)">
     <use xlink:href="#C1_0_0c433aa884" x="55.799543" y="22.53744" style="fill: #d75728; fill-opacity: 0.45"/>
    </g>
    <g clip-path="url(#pc70347e823)">
     <use xlink:href="#C1_0_0c433aa884" x="59.078321" y="15.552" style="fill: #d75728; fill-opacity: 0.45"/>
    </g>
    <g clip-path="url(#pc70347e823)">
     <use xlink:href="#C1_0_0c433aa884" x="54.476209" y="115.344" style="fill: #d75728; fill-opacity: 0.45"/>
    </g>
    <g clip-path="url(#pc70347e823)">
     <use xlink:href="#C1_0_0c433aa884" x="59.658865" y="86.40432" style="fill: #d75728; fill-opacity: 0.45"/>
    </g>
    <g clip-path="url(#pc70347e823)">
     <use xlink:href="#C1_0_0c433aa884" x="56.572528" y="90.396" style="fill: #d75728; fill-opacity: 0.45"/>
    </g>
    <g clip-path="url(#pc70347e823)">
     <use xlink:href="#C1_0_0c433aa884" x="55.730646" y="37.50624" style="fill: #d75728; fill-opacity: 0.45"/>
    </g>
    <g clip-path="url(#pc70347e823)">
     <use xlink:href="#C1_0_0c433aa884" x="56.514614" y="44.49168" style="fill: #d75728; fill-opacity: 0.45"/>
    </g>
    <g clip-path="url(#pc70347e823)">
     <use xlink:href="#C1_0_0c433aa884" x="55.212926" y="115.344" style="fill: #d75728; fill-opacity: 0.45"/>
    </g>
    <g clip-path="url(#pc70347e823)">
     <use xlink:href="#C1_0_0c433aa884" x="59.233299" y="88.40016" style="fill: #d75728; fill-opacity: 0.45"/>
    </g>
    <g clip-path="url(#pc70347e823)">
     <use xlink:href="#C1_0_0c433aa884" x="59.176237" y="115.344" style="fill: #d75728; fill-opacity: 0.45"/>
    </g>
    <g clip-path="url(#pc70347e823)">
     <use xlink:href="#C1_0_0c433aa884" x="58.082133" y="106.36272" style="fill: #d75728; fill-opacity: 0.45"/>
    </g>
    <g clip-path="url(#pc70347e823)">
     <use xlink:href="#C1_0_0c433aa884" x="57.72623" y="115.344" style="fill: #d75728; fill-opacity: 0.45"/>
    </g>
    <g clip-path="url(#pc70347e823)">
     <use xlink:href="#C1_0_0c433aa884" x="58.401256" y="115.344" style="fill: #d75728; fill-opacity: 0.45"/>
    </g>
    <g clip-path="url(#pc70347e823)">
     <use xlink:href="#C1_0_0c433aa884" x="58.977349" y="115.344" style="fill: #d75728; fill-opacity: 0.45"/>
    </g>
    <g clip-path="url(#pc70347e823)">
     <use xlink:href="#C1_0_0c433aa884" x="57.531768" y="115.344" style="fill: #d75728; fill-opacity: 0.45"/>
    </g>
    <g clip-path="url(#pc70347e823)">
     <use xlink:href="#C1_0_0c433aa884" x="57.364347" y="115.344" style="fill: #d75728; fill-opacity: 0.45"/>
    </g>
    <g clip-path="url(#pc70347e823)">
     <use xlink:href="#C1_0_0c433aa884" x="59.754689" y="115.344" style="fill: #d75728; fill-opacity: 0.45"/>
    </g>
    <g clip-path="url(#pc70347e823)">
     <use xlink:href="#C1_0_0c433aa884" x="55.771604" y="115.344" style="fill: #d75728; fill-opacity: 0.45"/>
    </g>
    <g clip-path="url(#pc70347e823)">
     <use xlink:href="#C1_0_0c433aa884" x="57.887986" y="115.344" style="fill: #d75728; fill-opacity: 0.45"/>
    </g>
    <g clip-path="url(#pc70347e823)">
     <use xlink:href="#C1_0_0c433aa884" x="55.472174" y="102.37104" style="fill: #d75728; fill-opacity: 0.45"/>
    </g>
    <g clip-path="url(#pc70347e823)">
     <use xlink:href="#C1_0_0c433aa884" x="56.108622" y="115.344" style="fill: #d75728; fill-opacity: 0.45"/>
    </g>
   </g>
   <g id="PathCollection_3">
    <defs>
     <path id="C2_0_e428a55428" d="M 0 3.5 
C 0.928211 3.5 1.81853 3.131218 2.474874 2.474874 
C 3.131218 1.81853 3.5 0.928211 3.5 -0 
C 3.5 -0.928211 3.131218 -1.81853 2.474874 -2.474874 
C 1.81853 -3.131218 0.928211 -3.5 0 -3.5 
C -0.928211 -3.5 -1.81853 -3.131218 -2.474874 -2.474874 
C -3.131218 -1.81853 -3.5 -0.928211 -3.5 0 
C -3.5 0.928211 -3.131218 1.81853 -2.474874 2.474874 
C -1.81853 3.131218 -0.928211 3.5 0 3.5 
z
"/>
    </defs>
    <g clip-path="url(#pc70347e823)">
     <use xlink:href="#C2_0_e428a55428" x="89.734" y="24.53328" style="fill: #174263; fill-opacity: 0.45"/>
    </g>
    <g clip-path="url(#pc70347e823)">
     <use xlink:href="#C2_0_e428a55428" x="92.900033" y="111.35232" style="fill: #174263; fill-opacity: 0.45"/>
    </g>
    <g clip-path="url(#pc70347e823)">
     <use xlink:href="#C2_0_e428a55428" x="92.166516" y="115.344" style="fill: #174263; fill-opacity: 0.45"/>
    </g>
    <g clip-path="url(#pc70347e823)">
     <use xlink:href="#C2_0_e428a55428" x="93.154205" y="115.344" style="fill: #174263; fill-opacity: 0.45"/>
    </g>
    <g clip-path="url(#pc70347e823)">
     <use xlink:href="#C2_0_e428a55428" x="91.04501" y="115.344" style="fill: #174263; fill-opacity: 0.45"/>
    </g>
    <g clip-path="url(#pc70347e823)">
     <use xlink:href="#C2_0_e428a55428" x="89.262743" y="112.35024" style="fill: #174263; fill-opacity: 0.45"/>
    </g>
    <g clip-path="url(#pc70347e823)">
     <use xlink:href="#C2_0_e428a55428" x="93.011451" y="23.53536" style="fill: #174263; fill-opacity: 0.45"/>
    </g>
    <g clip-path="url(#pc70347e823)">
     <use xlink:href="#C2_0_e428a55428" x="88.099846" y="111.35232" style="fill: #174263; fill-opacity: 0.45"/>
    </g>
    <g clip-path="url(#pc70347e823)">
     <use xlink:href="#C2_0_e428a55428" x="93.03734" y="111.35232" style="fill: #174263; fill-opacity: 0.45"/>
    </g>
    <g clip-path="url(#pc70347e823)">
     <use xlink:href="#C2_0_e428a55428" x="88.649015" y="112.35024" style="fill: #174263; fill-opacity: 0.45"/>
    </g>
    <g clip-path="url(#pc70347e823)">
     <use xlink:href="#C2_0_e428a55428" x="93.169265" y="85.4064" style="fill: #174263; fill-opacity: 0.45"/>
    </g>
    <g clip-path="url(#pc70347e823)">
     <use xlink:href="#C2_0_e428a55428" x="90.3309" y="80.4168" style="fill: #174263; fill-opacity: 0.45"/>
    </g>
    <g clip-path="url(#pc70347e823)">
     <use xlink:href="#C2_0_e428a55428" x="88.034908" y="110.3544" style="fill: #174263; fill-opacity: 0.45"/>
    </g>
    <g clip-path="url(#pc70347e823)">
     <use xlink:href="#C2_0_e428a55428" x="91.411815" y="96.38352" style="fill: #174263; fill-opacity: 0.45"/>
    </g>
    <g clip-path="url(#pc70347e823)">
     <use xlink:href="#C2_0_e428a55428" x="88.232596" y="102.37104" style="fill: #174263; fill-opacity: 0.45"/>
    </g>
    <g clip-path="url(#pc70347e823)">
     <use xlink:href="#C2_0_e428a55428" x="91.061815" y="115.344" style="fill: #174263; fill-opacity: 0.45"/>
    </g>
    <g clip-path="url(#pc70347e823)">
     <use xlink:href="#C2_0_e428a55428" x="91.834412" y="102.37104" style="fill: #174263; fill-opacity: 0.45"/>
    </g>
    <g clip-path="url(#pc70347e823)">
     <use xlink:href="#C2_0_e428a55428" x="90.709362" y="99.37728" style="fill: #174263; fill-opacity: 0.45"/>
    </g>
    <g clip-path="url(#pc70347e823)">
     <use xlink:href="#C2_0_e428a55428" x="90.706077" y="115.344" style="fill: #174263; fill-opacity: 0.45"/>
    </g>
    <g clip-path="url(#pc70347e823)">
     <use xlink:href="#C2_0_e428a55428" x="87.932694" y="115.344" style="fill: #174263; fill-opacity: 0.45"/>
    </g>
    <g clip-path="url(#pc70347e823)">
     <use xlink:href="#C2_0_e428a55428" x="90.676399" y="108.35856" style="fill: #174263; fill-opacity: 0.45"/>
    </g>
    <g clip-path="url(#pc70347e823)">
     <use xlink:href="#C2_0_e428a55428" x="88.777544" y="98.37936" style="fill: #174263; fill-opacity: 0.45"/>
    </g>
    <g clip-path="url(#pc70347e823)">
     <use xlink:href="#C2_0_e428a55428" x="89.218982" y="109.35648" style="fill: #174263; fill-opacity: 0.45"/>
    </g>
    <g clip-path="url(#pc70347e823)">
     <use xlink:href="#C2_0_e428a55428" x="91.052475" y="72.43344" style="fill: #174263; fill-opacity: 0.45"/>
    </g>
    <g clip-path="url(#pc70347e823)">
     <use xlink:href="#C2_0_e428a55428" x="88.174484" y="111.35232" style="fill: #174263; fill-opacity: 0.45"/>
    </g>
    <g clip-path="url(#pc70347e823)">
     <use xlink:href="#C2_0_e428a55428" x="93.039383" y="112.35024" style="fill: #174263; fill-opacity: 0.45"/>
    </g>
    <g clip-path="url(#pc70347e823)">
     <use xlink:href="#C2_0_e428a55428" x="91.000523" y="111.35232" style="fill: #174263; fill-opacity: 0.45"/>
    </g>
    <g clip-path="url(#pc70347e823)">
     <use xlink:href="#C2_0_e428a55428" x="91.513331" y="115.344" style="fill: #174263; fill-opacity: 0.45"/>
    </g>
    <g clip-path="url(#pc70347e823)">
     <use xlink:href="#C2_0_e428a55428" x="93.182981" y="109.35648" style="fill: #174263; fill-opacity: 0.45"/>
    </g>
    <g clip-path="url(#pc70347e823)">
     <use xlink:href="#C2_0_e428a55428" x="88.064853" y="115.344" style="fill: #174263; fill-opacity: 0.45"/>
    </g>
    <g clip-path="url(#pc70347e823)">
     <use xlink:href="#C2_0_e428a55428" x="89.374699" y="112.35024" style="fill: #174263; fill-opacity: 0.45"/>
    </g>
    <g clip-path="url(#pc70347e823)">
     <use xlink:href="#C2_0_e428a55428" x="90.010583" y="101.37312" style="fill: #174263; fill-opacity: 0.45"/>
    </g>
    <g clip-path="url(#pc70347e823)">
     <use xlink:href="#C2_0_e428a55428" x="93.059048" y="115.344" style="fill: #174263; fill-opacity: 0.45"/>
    </g>
    <g clip-path="url(#pc70347e823)">
     <use xlink:href="#C2_0_e428a55428" x="90.695423" y="112.35024" style="fill: #174263; fill-opacity: 0.45"/>
    </g>
    <g clip-path="url(#pc70347e823)">
     <use xlink:href="#C2_0_e428a55428" x="88.463387" y="111.35232" style="fill: #174263; fill-opacity: 0.45"/>
    </g>
    <g clip-path="url(#pc70347e823)">
     <use xlink:href="#C2_0_e428a55428" x="93.00932" y="115.344" style="fill: #174263; fill-opacity: 0.45"/>
    </g>
    <g clip-path="url(#pc70347e823)">
     <use xlink:href="#C2_0_e428a55428" x="91.736437" y="115.344" style="fill: #174263; fill-opacity: 0.45"/>
    </g>
    <g clip-path="url(#pc70347e823)">
     <use xlink:href="#C2_0_e428a55428" x="88.848255" y="109.35648" style="fill: #174263; fill-opacity: 0.45"/>
    </g>
   </g>
   <g id="PathCollection_4">
    <defs>
     <path id="C3_0_998fd61577" d="M 0 3.5 
C 0.928211 3.5 1.81853 3.131218 2.474874 2.474874 
C 3.131218 1.81853 3.5 0.928211 3.5 -0 
C 3.5 -0.928211 3.131218 -1.81853 2.474874 -2.474874 
C 1.81853 -3.131218 0.928211 -3.5 0 -3.5 
C -0.928211 -3.5 -1.81853 -3.131218 -2.474874 -2.474874 
C -3.131218 -1.81853 -3.5 -0.928211 -3.5 0 
C -3.5 0.928211 -3.131218 1.81853 -2.474874 2.474874 
C -1.81853 3.131218 -0.928211 3.5 0 3.5 
z
"/>
    </defs>
    <g clip-path="url(#pc70347e823)">
     <use xlink:href="#C3_0_998fd61577" x="112.625933" y="19.54368" style="fill: #d75728; fill-opacity: 0.45"/>
    </g>
    <g clip-path="url(#pc70347e823)">
     <use xlink:href="#C3_0_998fd61577" x="115.49441" y="32.51664" style="fill: #d75728; fill-opacity: 0.45"/>
    </g>
    <g clip-path="url(#pc70347e823)">
     <use xlink:href="#C3_0_998fd61577" x="115.438741" y="115.344" style="fill: #d75728; fill-opacity: 0.45"/>
    </g>
    <g clip-path="url(#pc70347e823)">
     <use xlink:href="#C3_0_998fd61577" x="114.119392" y="15.552" style="fill: #d75728; fill-opacity: 0.45"/>
    </g>
    <g clip-path="url(#pc70347e823)">
     <use xlink:href="#C3_0_998fd61577" x="110.524961" y="34.51248" style="fill: #d75728; fill-opacity: 0.45"/>
    </g>
    <g clip-path="url(#pc70347e823)">
     <use xlink:href="#C3_0_998fd61577" x="115.13168" y="22.53744" style="fill: #d75728; fill-opacity: 0.45"/>
    </g>
    <g clip-path="url(#pc70347e823)">
     <use xlink:href="#C3_0_998fd61577" x="111.88523" y="15.552" style="fill: #d75728; fill-opacity: 0.45"/>
    </g>
    <g clip-path="url(#pc70347e823)">
     <use xlink:href="#C3_0_998fd61577" x="111.701133" y="15.552" style="fill: #d75728; fill-opacity: 0.45"/>
    </g>
    <g clip-path="url(#pc70347e823)">
     <use xlink:href="#C3_0_998fd61577" x="111.70906" y="15.552" style="fill: #d75728; fill-opacity: 0.45"/>
    </g>
    <g clip-path="url(#pc70347e823)">
     <use xlink:href="#C3_0_998fd61577" x="114.063906" y="47.48544" style="fill: #d75728; fill-opacity: 0.45"/>
    </g>
    <g clip-path="url(#pc70347e823)">
     <use xlink:href="#C3_0_998fd61577" x="114.586121" y="65.448" style="fill: #d75728; fill-opacity: 0.45"/>
    </g>
    <g clip-path="url(#pc70347e823)">
     <use xlink:href="#C3_0_998fd61577" x="115.037102" y="21.53952" style="fill: #d75728; fill-opacity: 0.45"/>
    </g>
    <g clip-path="url(#pc70347e823)">
     <use xlink:href="#C3_0_998fd61577" x="114.938468" y="15.552" style="fill: #d75728; fill-opacity: 0.45"/>
    </g>
    <g clip-path="url(#pc70347e823)">
     <use xlink:href="#C3_0_998fd61577" x="115.132044" y="36.50832" style="fill: #d75728; fill-opacity: 0.45"/>
    </g>
    <g clip-path="url(#pc70347e823)">
     <use xlink:href="#C3_0_998fd61577" x="112.474928" y="26.52912" style="fill: #d75728; fill-opacity: 0.45"/>
    </g>
    <g clip-path="url(#pc70347e823)">
     <use xlink:href="#C3_0_998fd61577" x="114.136699" y="34.51248" style="fill: #d75728; fill-opacity: 0.45"/>
    </g>
    <g clip-path="url(#pc70347e823)">
     <use xlink:href="#C3_0_998fd61577" x="110.686824" y="21.53952" style="fill: #d75728; fill-opacity: 0.45"/>
    </g>
    <g clip-path="url(#pc70347e823)">
     <use xlink:href="#C3_0_998fd61577" x="110.671843" y="115.344" style="fill: #d75728; fill-opacity: 0.45"/>
    </g>
    <g clip-path="url(#pc70347e823)">
     <use xlink:href="#C3_0_998fd61577" x="115.037681" y="97.38144" style="fill: #d75728; fill-opacity: 0.45"/>
    </g>
    <g clip-path="url(#pc70347e823)">
     <use xlink:href="#C3_0_998fd61577" x="113.546557" y="20.5416" style="fill: #d75728; fill-opacity: 0.45"/>
    </g>
    <g clip-path="url(#pc70347e823)">
     <use xlink:href="#C3_0_998fd61577" x="110.821966" y="40.5" style="fill: #d75728; fill-opacity: 0.45"/>
    </g>
    <g clip-path="url(#pc70347e823)">
     <use xlink:href="#C3_0_998fd61577" x="111.817998" y="29.52288" style="fill: #d75728; fill-opacity: 0.45"/>
    </g>
    <g clip-path="url(#pc70347e823)">
     <use xlink:href="#C3_0_998fd61577" x="115.013537" y="115.344" style="fill: #d75728; fill-opacity: 0.45"/>
    </g>
    <g clip-path="url(#pc70347e823)">
     <use xlink:href="#C3_0_998fd61577" x="115.637676" y="68.44176" style="fill: #d75728; fill-opacity: 0.45"/>
    </g>
    <g clip-path="url(#pc70347e823)">
     <use xlink:href="#C3_0_998fd61577" x="115.446898" y="15.552" style="fill: #d75728; fill-opacity: 0.45"/>
    </g>
    <g clip-path="url(#pc70347e823)">
     <use xlink:href="#C3_0_998fd61577" x="111.789047" y="24.53328" style="fill: #d75728; fill-opacity: 0.45"/>
    </g>
    <g clip-path="url(#pc70347e823)">
     <use xlink:href="#C3_0_998fd61577" x="113.397143" y="32.51664" style="fill: #d75728; fill-opacity: 0.45"/>
    </g>
    <g clip-path="url(#pc70347e823)">
     <use xlink:href="#C3_0_998fd61577" x="115.265128" y="15.552" style="fill: #d75728; fill-opacity: 0.45"/>
    </g>
    <g clip-path="url(#pc70347e823)">
     <use xlink:href="#C3_0_998fd61577" x="113.605275" y="22.53744" style="fill: #d75728; fill-opacity: 0.45"/>
    </g>
    <g clip-path="url(#pc70347e823)">
     <use xlink:href="#C3_0_998fd61577" x="113.068681" y="15.552" style="fill: #d75728; fill-opacity: 0.45"/>
    </g>
    <g clip-path="url(#pc70347e823)">
     <use xlink:href="#C3_0_998fd61577" x="114.899561" y="20.5416" style="fill: #d75728; fill-opacity: 0.45"/>
    </g>
    <g clip-path="url(#pc70347e823)">
     <use xlink:href="#C3_0_998fd61577" x="113.004918" y="44.49168" style="fill: #d75728; fill-opacity: 0.45"/>
    </g>
    <g clip-path="url(#pc70347e823)">
     <use xlink:href="#C3_0_998fd61577" x="114.997566" y="23.53536" style="fill: #d75728; fill-opacity: 0.45"/>
    </g>
    <g clip-path="url(#pc70347e823)">
     <use xlink:href="#C3_0_998fd61577" x="112.49801" y="32.51664" style="fill: #d75728; fill-opacity: 0.45"/>
    </g>
    <g clip-path="url(#pc70347e823)">
     <use xlink:href="#C3_0_998fd61577" x="111.82617" y="22.53744" style="fill: #d75728; fill-opacity: 0.45"/>
    </g>
    <g clip-path="url(#pc70347e823)">
     <use xlink:href="#C3_0_998fd61577" x="112.981743" y="24.53328" style="fill: #d75728; fill-opacity: 0.45"/>
    </g>
    <g clip-path="url(#pc70347e823)">
     <use xlink:href="#C3_0_998fd61577" x="113.060905" y="21.53952" style="fill: #d75728; fill-opacity: 0.45"/>
    </g>
    <g clip-path="url(#pc70347e823)">
     <use xlink:href="#C3_0_998fd61577" x="112.433289" y="15.552" style="fill: #d75728; fill-opacity: 0.45"/>
    </g>
   </g>
   <g id="line2d_8">
    <path d="M 33.2055 21.069544 
L 36.2745 21.069544 
M 34.74 21.069544 
L 34.74 18.437993 
M 33.2055 18.437993 
L 36.2745 18.437993 
" clip-path="url(#pc70347e823)" style="fill: none; stroke: #333333; stroke-width: 2.5; stroke-linecap: square"/>
   </g>
   <g id="line2d_9">
    <path d="M 89.0055 106.954747 
L 92.0745 106.954747 
M 90.54 106.954747 
L 90.54 99.993261 
M 89.0055 99.993261 
L 92.0745 99.993261 
" clip-path="url(#pc70347e823)" style="fill: none; stroke: #333333; stroke-width: 2.5; stroke-linecap: square"/>
   </g>
   <g id="line2d_10">
    <path d="M 55.5255 95.70344 
L 58.5945 95.70344 
M 57.06 95.70344 
L 57.06 83.775508 
M 55.5255 83.775508 
L 58.5945 83.775508 
" clip-path="url(#pc70347e823)" style="fill: none; stroke: #333333; stroke-width: 2.5; stroke-linecap: square"/>
   </g>
   <g id="line2d_11">
    <path d="M 111.3255 40.867861 
L 114.3945 40.867861 
M 112.86 40.867861 
L 112.86 31.465992 
M 111.3255 31.465992 
L 114.3945 31.465992 
" clip-path="url(#pc70347e823)" style="fill: none; stroke: #333333; stroke-width: 2.5; stroke-linecap: square"/>
   </g>
   <g id="patch_15">
    <path d="M 18 115.344 
L 18 15.552 
" style="fill: none; stroke: #000000; stroke-linejoin: miter; stroke-linecap: square"/>
   </g>
   <g id="patch_16">
    <path d="M 18 115.344 
L 129.6 115.344 
" style="fill: none; stroke: #000000; stroke-linejoin: miter; stroke-linecap: square"/>
   </g>
   <g id="PathCollection_5">
    <defs>
     <path id="m9bc2507956" d="M 0 3 
C 0.795609 3 1.55874 2.683901 2.12132 2.12132 
C 2.683901 1.55874 3 0.795609 3 0 
C 3 -0.795609 2.683901 -1.55874 2.12132 -2.12132 
C 1.55874 -2.683901 0.795609 -3 0 -3 
C -0.795609 -3 -1.55874 -2.683901 -2.12132 -2.12132 
C -2.683901 -1.55874 -3 -0.795609 -3 0 
C -3 0.795609 -2.683901 1.55874 -2.12132 2.12132 
C -1.55874 2.683901 -0.795609 3 0 3 
z
"/>
    </defs>
    <g clip-path="url(#pc70347e823)">
     <use xlink:href="#m9bc2507956" x="34.74" y="19.753768" style="fill: #333333"/>
    </g>
   </g>
   <g id="PathCollection_6">
    <g clip-path="url(#pc70347e823)">
     <use xlink:href="#m9bc2507956" x="57.06" y="89.739474" style="fill: #333333"/>
    </g>
   </g>
   <g id="PathCollection_7">
    <g clip-path="url(#pc70347e823)">
     <use xlink:href="#m9bc2507956" x="90.54" y="103.474004" style="fill: #333333"/>
    </g>
   </g>
   <g id="PathCollection_8">
    <g clip-path="url(#pc70347e823)">
     <use xlink:href="#m9bc2507956" x="112.86" y="36.166926" style="fill: #333333"/>
    </g>
   </g>
   <g id="line2d_12"/>
   <g id="line2d_13"/>
  </g>
 </g>
 <defs>
  <clipPath id="pc70347e823">
   <rect x="18" y="15.552" width="111.6" height="99.792"/>
  </clipPath>
 </defs>
</svg>
