<?xml version="1.0" encoding="utf-8" standalone="no"?>
<!DOCTYPE svg PUBLIC "-//W3C//DTD SVG 1.1//EN"
  "http://www.w3.org/Graphics/SVG/1.1/DTD/svg11.dtd">
<svg xmlns:xlink="http://www.w3.org/1999/xlink" width="144pt" height="129.6pt" viewBox="0 0 144 129.6" xmlns="http://www.w3.org/2000/svg" version="1.1">
 <metadata>
  <rdf:RDF xmlns:dc="http://purl.org/dc/elements/1.1/" xmlns:cc="http://creativecommons.org/ns#" xmlns:rdf="http://www.w3.org/1999/02/22-rdf-syntax-ns#">
   <cc:Work>
    <dc:type rdf:resource="http://purl.org/dc/dcmitype/StillImage"/>
    <dc:date>2025-04-14T00:19:47.151139</dc:date>
    <dc:format>image/svg+xml</dc:format>
    <dc:creator>
     <cc:Agent>
      <dc:title>Matplotlib v3.7.1, https://matplotlib.org/</dc:title>
     </cc:Agent>
    </dc:creator>
   </cc:Work>
  </rdf:RDF>
 </metadata>
 <defs>
  <style type="text/css">*{stroke-linejoin: round; stroke-linecap: butt}</style>
 </defs>
 <g id="figure_1">
  <g id="patch_1">
   <path d="M 0 129.6 
L 144 129.6 
L 144 0 
L 0 0 
L 0 129.6 
z
" style="fill: none"/>
  </g>
  <g id="axes_1">
   <g id="patch_2">
    <path d="M 18 115.344 
L 129.6 115.344 
L 129.6 15.552 
L 18 15.552 
L 18 115.344 
z
" style="fill: none"/>
   </g>
   <g id="PolyCollection_1">
    <path d="M 34.783376 77.781312 
L 34.696624 77.781312 
L 34.681555 77.058394 
L 34.663098 76.335476 
L 34.641179 75.612559 
L 34.615968 74.889641 
L 34.587923 74.166723 
L 34.557805 73.443805 
L 34.526653 72.720887 
L 34.495714 71.997969 
L 34.466331 71.275052 
L 34.439802 70.552134 
L 34.417223 69.829216 
L 34.399343 69.106298 
L 34.386465 68.38338 
L 34.378395 67.660463 
L 34.37447 66.937545 
L 34.373665 66.214627 
L 34.374754 65.491709 
L 34.376508 64.768791 
L 34.377903 64.045873 
L 34.378287 63.322956 
L 34.377496 62.600038 
L 34.375876 61.87712 
L 34.374227 61.154202 
L 34.37367 60.431284 
L 34.375455 59.708367 
L 34.38076 58.985449 
L 34.390496 58.262531 
L 34.405165 57.539613 
L 34.424784 56.816695 
L 34.448882 56.093777 
L 34.47657 55.37086 
L 34.506663 54.647942 
L 34.537829 53.925024 
L 34.568742 53.202106 
L 34.598218 52.479188 
L 34.625309 51.756271 
L 34.649355 51.033353 
L 34.669995 50.310435 
L 34.687137 49.587517 
L 34.700904 48.864599 
L 34.711562 48.141681 
L 34.719452 47.418764 
L 34.724919 46.695846 
L 34.728258 45.972928 
L 34.729665 45.25001 
L 34.729206 44.527092 
L 34.726796 43.804175 
L 34.72218 43.081257 
L 34.714937 42.358339 
L 34.704469 41.635421 
L 34.690018 40.912503 
L 34.670666 40.189585 
L 34.645349 39.466668 
L 34.612856 38.74375 
L 34.571825 38.020832 
L 34.520718 37.297914 
L 34.457771 36.574996 
L 34.380932 35.852079 
L 34.287766 35.129161 
L 34.175363 34.406243 
L 34.040242 33.683325 
L 33.878293 32.960407 
L 33.684765 32.237489 
L 33.454337 31.514572 
L 33.181281 30.791654 
L 32.859742 30.068736 
L 32.484125 29.345818 
L 32.049605 28.6229 
L 31.552719 27.899983 
L 30.99203 27.177065 
L 30.368824 26.454147 
L 29.687778 25.731229 
L 28.957556 25.008311 
L 28.191238 24.285393 
L 27.406503 23.562476 
L 26.625482 22.839558 
L 25.874197 22.11664 
L 25.18153 21.393722 
L 24.577721 20.670804 
L 24.092445 19.947887 
L 23.752598 19.224969 
L 23.58 18.502051 
L 23.589254 17.779133 
L 23.786052 17.056215 
L 24.16618 16.333297 
L 24.715393 15.61038 
L 25.410265 14.887462 
L 26.219926 14.164544 
L 27.108524 13.441626 
L 28.038115 12.718708 
L 28.971623 11.995791 
L 29.875523 11.272873 
L 30.721964 10.549955 
L 31.490121 9.827037 
L 32.166721 9.104119 
L 32.745777 8.381201 
L 33.227705 7.658284 
L 33.617998 6.935366 
L 33.925729 6.212448 
L 35.554271 6.212448 
L 35.554271 6.212448 
L 35.862002 6.935366 
L 36.252295 7.658284 
L 36.734223 8.381201 
L 37.313279 9.104119 
L 37.989879 9.827037 
L 38.758036 10.549955 
L 39.604477 11.272873 
L 40.508377 11.995791 
L 41.441885 12.718708 
L 42.371476 13.441626 
L 43.260074 14.164544 
L 44.069735 14.887462 
L 44.764607 15.61038 
L 45.31382 16.333297 
L 45.693948 17.056215 
L 45.890746 17.779133 
L 45.9 18.502051 
L 45.727402 19.224969 
L 45.387555 19.947887 
L 44.902279 20.670804 
L 44.29847 21.393722 
L 43.605803 22.11664 
L 42.854518 22.839558 
L 42.073497 23.562476 
L 41.288762 24.285393 
L 40.522444 25.008311 
L 39.792222 25.731229 
L 39.111176 26.454147 
L 38.48797 27.177065 
L 37.927281 27.899983 
L 37.430395 28.6229 
L 36.995875 29.345818 
L 36.620258 30.068736 
L 36.298719 30.791654 
L 36.025663 31.514572 
L 35.795235 32.237489 
L 35.601707 32.960407 
L 35.439758 33.683325 
L 35.304637 34.406243 
L 35.192234 35.129161 
L 35.099068 35.852079 
L 35.022229 36.574996 
L 34.959282 37.297914 
L 34.908175 38.020832 
L 34.867144 38.74375 
L 34.834651 39.466668 
L 34.809334 40.189585 
L 34.789982 40.912503 
L 34.775531 41.635421 
L 34.765063 42.358339 
L 34.75782 43.081257 
L 34.753204 43.804175 
L 34.750794 44.527092 
L 34.750335 45.25001 
L 34.751742 45.972928 
L 34.755081 46.695846 
L 34.760548 47.418764 
L 34.768438 48.141681 
L 34.779096 48.864599 
L 34.792863 49.587517 
L 34.810005 50.310435 
L 34.830645 51.033353 
L 34.854691 51.756271 
L 34.881782 52.479188 
L 34.911258 53.202106 
L 34.942171 53.925024 
L 34.973337 54.647942 
L 35.00343 55.37086 
L 35.031118 56.093777 
L 35.055216 56.816695 
L 35.074835 57.539613 
L 35.089504 58.262531 
L 35.09924 58.985449 
L 35.104545 59.708367 
L 35.10633 60.431284 
L 35.105773 61.154202 
L 35.104124 61.87712 
L 35.102504 62.600038 
L 35.101713 63.322956 
L 35.102097 64.045873 
L 35.103492 64.768791 
L 35.105246 65.491709 
L 35.106335 66.214627 
L 35.10553 66.937545 
L 35.101605 67.660463 
L 35.093535 68.38338 
L 35.080657 69.106298 
L 35.062777 69.829216 
L 35.040198 70.552134 
L 35.013669 71.275052 
L 34.984286 71.997969 
L 34.953347 72.720887 
L 34.922195 73.443805 
L 34.892077 74.166723 
L 34.864032 74.889641 
L 34.838821 75.612559 
L 34.816902 76.335476 
L 34.798445 77.058394 
L 34.783376 77.781312 
z
" clip-path="url(#p75f3f8567a)" style="fill: #20415a; fill-opacity: 0.35"/>
   </g>
   <g id="PolyCollection_2">
    <path d="M 57.999922 148.801967 
L 56.120078 148.801967 
L 55.903298 147.118049 
L 55.64997 145.43413 
L 55.357338 143.750212 
L 55.023241 142.066293 
L 54.646318 140.382375 
L 54.226195 138.698456 
L 53.763677 137.014538 
L 53.260887 135.330619 
L 52.721387 133.646701 
L 52.150229 131.962782 
L 51.553949 130.278864 
L 50.940483 128.594945 
L 50.31902 126.911027 
L 49.699765 125.227108 
L 49.093646 123.543189 
L 48.511961 121.859271 
L 47.965983 120.175352 
L 47.466543 118.491434 
L 47.023612 116.807515 
L 46.645908 115.123597 
L 46.340542 113.439678 
L 46.112729 111.75576 
L 45.965584 110.071841 
L 45.9 108.387923 
L 45.914629 106.704004 
L 46.005962 105.020086 
L 46.168501 103.336167 
L 46.395007 101.652248 
L 46.676829 99.96833 
L 47.004268 98.284411 
L 47.366978 96.600493 
L 47.754374 94.916574 
L 48.156028 93.232656 
L 48.562034 91.548737 
L 48.963323 89.864819 
L 49.351924 88.1809 
L 49.721155 86.496982 
L 50.065743 84.813063 
L 50.38187 83.129145 
L 50.667152 81.445226 
L 50.920558 79.761308 
L 51.142273 78.077389 
L 51.333529 76.39347 
L 51.496398 74.709552 
L 51.633584 73.025633 
L 51.748197 71.341715 
L 51.843553 69.657796 
L 51.922982 67.973878 
L 51.989669 66.289959 
L 52.046523 64.606041 
L 52.096079 62.922122 
L 52.140442 61.238204 
L 52.181257 59.554285 
L 52.21971 57.870367 
L 52.25656 56.186448 
L 52.292189 54.50253 
L 52.326666 52.818611 
L 52.359825 51.134692 
L 52.391351 49.450774 
L 52.420863 47.766855 
L 52.448003 46.082937 
L 52.472508 44.399018 
L 52.494289 42.7151 
L 52.513484 41.031181 
L 52.530508 39.347263 
L 52.546079 37.663344 
L 52.561236 35.979426 
L 52.577323 34.295507 
L 52.595965 32.611589 
L 52.619018 30.92767 
L 52.648501 29.243752 
L 52.686511 27.559833 
L 52.735123 25.875914 
L 52.796289 24.191996 
L 52.871727 22.508077 
L 52.962823 20.824159 
L 53.070536 19.14024 
L 53.195328 17.456322 
L 53.337117 15.772403 
L 53.49525 14.088485 
L 53.668514 12.404566 
L 53.855172 10.720648 
L 54.053025 9.036729 
L 54.259505 7.352811 
L 54.471775 5.668892 
L 54.686848 3.984973 
L 54.901708 2.301055 
L 55.113428 0.617136 
L 55.319276 -1.066782 
L 55.516807 -2.750701 
L 55.703937 -4.434619 
L 55.878987 -6.118538 
L 56.040716 -7.802456 
L 56.188318 -9.486375 
L 56.321409 -11.170293 
L 56.439991 -12.854212 
L 56.544406 -14.53813 
L 56.635276 -16.222049 
L 56.713449 -17.905967 
L 57.406551 -17.905967 
L 57.406551 -17.905967 
L 57.484724 -16.222049 
L 57.575594 -14.53813 
L 57.680009 -12.854212 
L 57.798591 -11.170293 
L 57.931682 -9.486375 
L 58.079284 -7.802456 
L 58.241013 -6.118538 
L 58.416063 -4.434619 
L 58.603193 -2.750701 
L 58.800724 -1.066782 
L 59.006572 0.617136 
L 59.218292 2.301055 
L 59.433152 3.984973 
L 59.648225 5.668892 
L 59.860495 7.352811 
L 60.066975 9.036729 
L 60.264828 10.720648 
L 60.451486 12.404566 
L 60.62475 14.088485 
L 60.782883 15.772403 
L 60.924672 17.456322 
L 61.049464 19.14024 
L 61.157177 20.824159 
L 61.248273 22.508077 
L 61.323711 24.191996 
L 61.384877 25.875914 
L 61.433489 27.559833 
L 61.471499 29.243752 
L 61.500982 30.92767 
L 61.524035 32.611589 
L 61.542677 34.295507 
L 61.558764 35.979426 
L 61.573921 37.663344 
L 61.589492 39.347263 
L 61.606516 41.031181 
L 61.625711 42.7151 
L 61.647492 44.399018 
L 61.671997 46.082937 
L 61.699137 47.766855 
L 61.728649 49.450774 
L 61.760175 51.134692 
L 61.793334 52.818611 
L 61.827811 54.50253 
L 61.86344 56.186448 
L 61.90029 57.870367 
L 61.938743 59.554285 
L 61.979558 61.238204 
L 62.023921 62.922122 
L 62.073477 64.606041 
L 62.130331 66.289959 
L 62.197018 67.973878 
L 62.276447 69.657796 
L 62.371803 71.341715 
L 62.486416 73.025633 
L 62.623602 74.709552 
L 62.786471 76.39347 
L 62.977727 78.077389 
L 63.199442 79.761308 
L 63.452848 81.445226 
L 63.73813 83.129145 
L 64.054257 84.813063 
L 64.398845 86.496982 
L 64.768076 88.1809 
L 65.156677 89.864819 
L 65.557966 91.548737 
L 65.963972 93.232656 
L 66.365626 94.916574 
L 66.753022 96.600493 
L 67.115732 98.284411 
L 67.443171 99.96833 
L 67.724993 101.652248 
L 67.951499 103.336167 
L 68.114038 105.020086 
L 68.205371 106.704004 
L 68.22 108.387923 
L 68.154416 110.071841 
L 68.007271 111.75576 
L 67.779458 113.439678 
L 67.474092 115.123597 
L 67.096388 116.807515 
L 66.653457 118.491434 
L 66.154017 120.175352 
L 65.608039 121.859271 
L 65.026354 123.543189 
L 64.420235 125.227108 
L 63.80098 126.911027 
L 63.179517 128.594945 
L 62.566051 130.278864 
L 61.969771 131.962782 
L 61.398613 133.646701 
L 60.859113 135.330619 
L 60.356323 137.014538 
L 59.893805 138.698456 
L 59.473682 140.382375 
L 59.096759 142.066293 
L 58.762662 143.750212 
L 58.47003 145.43413 
L 58.216702 147.118049 
L 57.999922 148.801967 
z
" clip-path="url(#p75f3f8567a)" style="fill: #c1613e; fill-opacity: 0.35"/>
   </g>
   <g id="PolyCollection_3">
    <path d="M 91.292617 136.785533 
L 89.787383 136.785533 
L 89.576988 135.535891 
L 89.323075 134.286248 
L 89.021201 133.036606 
L 88.667707 131.786964 
L 88.260083 130.537322 
L 87.79733 129.287679 
L 87.280302 128.038037 
L 86.711983 126.788395 
L 86.097682 125.538752 
L 85.44511 124.28911 
L 84.764316 123.039468 
L 84.067471 121.789826 
L 83.368511 120.540183 
L 82.682622 119.290541 
L 82.02563 118.040899 
L 81.413305 116.791256 
L 80.860635 115.541614 
L 80.381118 114.291972 
L 79.986133 113.04233 
L 79.684413 111.792687 
L 79.481678 110.543045 
L 79.380442 109.293403 
L 79.38 108.04376 
L 79.476594 106.794118 
L 79.66374 105.544476 
L 79.932674 104.294834 
L 80.272891 103.045191 
L 80.672724 101.795549 
L 81.119921 100.545907 
L 81.602192 99.296264 
L 82.107674 98.046622 
L 82.625319 96.79698 
L 83.145168 95.547338 
L 83.658524 94.297695 
L 84.15803 93.048053 
L 84.637661 91.798411 
L 85.092648 90.548769 
L 85.519368 89.299126 
L 85.915195 88.049484 
L 86.278356 86.799842 
L 86.607791 85.550199 
L 86.903035 84.300557 
L 87.164112 83.050915 
L 87.391474 81.801273 
L 87.585943 80.55163 
L 87.748688 79.301988 
L 87.881201 78.052346 
L 87.985294 76.802703 
L 88.06308 75.553061 
L 88.116967 74.303419 
L 88.149627 73.053777 
L 88.163965 71.804134 
L 88.163075 70.554492 
L 88.150179 69.30485 
L 88.128559 68.055207 
L 88.101485 66.805565 
L 88.072125 65.555923 
L 88.043471 64.306281 
L 88.01825 63.056638 
L 87.998855 61.806996 
L 87.987281 60.557354 
L 87.985077 59.307711 
L 87.993321 58.058069 
L 88.012615 56.808427 
L 88.043104 55.558785 
L 88.084516 54.309142 
L 88.13622 53.0595 
L 88.19731 51.809858 
L 88.26668 50.560216 
L 88.343118 49.310573 
L 88.425388 48.060931 
L 88.5123 46.811289 
L 88.602768 45.561646 
L 88.695845 44.312004 
L 88.790741 43.062362 
L 88.886817 41.81272 
L 88.983566 40.563077 
L 89.080581 39.313435 
L 89.177517 38.063793 
L 89.274049 36.81415 
L 89.369837 35.564508 
L 89.4645 34.314866 
L 89.557597 33.065224 
L 89.64863 31.815581 
L 89.737044 30.565939 
L 89.822254 29.316297 
L 89.903668 28.066654 
L 89.980716 26.817012 
L 90.05289 25.56737 
L 90.119761 24.317728 
L 90.181012 23.068085 
L 90.23645 21.818443 
L 90.28601 20.568801 
L 90.32976 19.319158 
L 90.367885 18.069516 
L 90.400675 16.819874 
L 90.428505 15.570232 
L 90.451811 14.320589 
L 90.471065 13.070947 
L 90.608935 13.070947 
L 90.608935 13.070947 
L 90.628189 14.320589 
L 90.651495 15.570232 
L 90.679325 16.819874 
L 90.712115 18.069516 
L 90.75024 19.319158 
L 90.79399 20.568801 
L 90.84355 21.818443 
L 90.898988 23.068085 
L 90.960239 24.317728 
L 91.02711 25.56737 
L 91.099284 26.817012 
L 91.176332 28.066654 
L 91.257746 29.316297 
L 91.342956 30.565939 
L 91.43137 31.815581 
L 91.522403 33.065224 
L 91.6155 34.314866 
L 91.710163 35.564508 
L 91.805951 36.81415 
L 91.902483 38.063793 
L 91.999419 39.313435 
L 92.096434 40.563077 
L 92.193183 41.81272 
L 92.289259 43.062362 
L 92.384155 44.312004 
L 92.477232 45.561646 
L 92.5677 46.811289 
L 92.654612 48.060931 
L 92.736882 49.310573 
L 92.81332 50.560216 
L 92.88269 51.809858 
L 92.94378 53.0595 
L 92.995484 54.309142 
L 93.036896 55.558785 
L 93.067385 56.808427 
L 93.086679 58.058069 
L 93.094923 59.307711 
L 93.092719 60.557354 
L 93.081145 61.806996 
L 93.06175 63.056638 
L 93.036529 64.306281 
L 93.007875 65.555923 
L 92.978515 66.805565 
L 92.951441 68.055207 
L 92.929821 69.30485 
L 92.916925 70.554492 
L 92.916035 71.804134 
L 92.930373 73.053777 
L 92.963033 74.303419 
L 93.01692 75.553061 
L 93.094706 76.802703 
L 93.198799 78.052346 
L 93.331312 79.301988 
L 93.494057 80.55163 
L 93.688526 81.801273 
L 93.915888 83.050915 
L 94.176965 84.300557 
L 94.472209 85.550199 
L 94.801644 86.799842 
L 95.164805 88.049484 
L 95.560632 89.299126 
L 95.987352 90.548769 
L 96.442339 91.798411 
L 96.92197 93.048053 
L 97.421476 94.297695 
L 97.934832 95.547338 
L 98.454681 96.79698 
L 98.972326 98.046622 
L 99.477808 99.296264 
L 99.960079 100.545907 
L 100.407276 101.795549 
L 100.807109 103.045191 
L 101.147326 104.294834 
L 101.41626 105.544476 
L 101.603406 106.794118 
L 101.7 108.04376 
L 101.699558 109.293403 
L 101.598322 110.543045 
L 101.395587 111.792687 
L 101.093867 113.04233 
L 100.698882 114.291972 
L 100.219365 115.541614 
L 99.666695 116.791256 
L 99.05437 118.040899 
L 98.397378 119.290541 
L 97.711489 120.540183 
L 97.012529 121.789826 
L 96.315684 123.039468 
L 95.63489 124.28911 
L 94.982318 125.538752 
L 94.368017 126.788395 
L 93.799698 128.038037 
L 93.28267 129.287679 
L 92.819917 130.537322 
L 92.412293 131.786964 
L 92.058799 133.036606 
L 91.756925 134.286248 
L 91.503012 135.535891 
L 91.292617 136.785533 
z
" clip-path="url(#p75f3f8567a)" style="fill: #20415a; fill-opacity: 0.35"/>
   </g>
   <g id="PolyCollection_4">
    <path d="M 112.922287 139.978308 
L 112.797713 139.978308 
L 112.779871 138.472645 
L 112.758312 136.966982 
L 112.732683 135.461319 
L 112.702707 133.955656 
L 112.668218 132.449994 
L 112.629183 130.944331 
L 112.585725 129.438668 
L 112.538133 127.933005 
L 112.486863 126.427343 
L 112.432521 124.92168 
L 112.37583 123.416017 
L 112.317592 121.910354 
L 112.258628 120.404691 
L 112.199713 118.899029 
L 112.141516 117.393366 
L 112.084537 115.887703 
L 112.029062 114.38204 
L 111.975131 112.876378 
L 111.922535 111.370715 
L 111.870836 109.865052 
L 111.819413 108.359389 
L 111.767531 106.853726 
L 111.714429 105.348064 
L 111.65941 103.842401 
L 111.601935 102.336738 
L 111.5417 100.831075 
L 111.478694 99.325413 
L 111.413226 97.81975 
L 111.345918 96.314087 
L 111.277673 94.808424 
L 111.209607 93.302761 
L 111.142959 91.797099 
L 111.079004 90.291436 
L 111.018946 88.785773 
L 110.963835 87.28011 
L 110.914494 85.774448 
L 110.871473 84.268785 
L 110.835021 82.763122 
L 110.805081 81.257459 
L 110.781307 79.751796 
L 110.763078 78.246134 
L 110.749529 76.740471 
L 110.739565 75.234808 
L 110.731873 73.729145 
L 110.72492 72.223483 
L 110.716941 70.71782 
L 110.70592 69.212157 
L 110.689566 67.706494 
L 110.665293 66.200831 
L 110.630214 64.695169 
L 110.581143 63.189506 
L 110.514627 61.683843 
L 110.426998 60.17818 
L 110.31445 58.672517 
L 110.17315 57.166855 
L 109.999365 55.661192 
L 109.789623 54.155529 
L 109.540888 52.649866 
L 109.25075 51.144204 
L 108.917628 49.638541 
L 108.540978 48.132878 
L 108.12149 46.627215 
L 107.661273 45.121552 
L 107.164016 43.61589 
L 106.6351 42.110227 
L 106.081661 40.604564 
L 105.512582 39.098901 
L 104.938402 37.593239 
L 104.371128 36.087576 
L 103.82395 34.581913 
L 103.310861 33.07625 
L 102.846176 31.570587 
L 102.443983 30.064925 
L 102.117543 28.559262 
L 101.878663 27.053599 
L 101.737097 25.547936 
L 101.7 24.042274 
L 101.771482 22.536611 
L 101.9523 21.030948 
L 102.239715 19.525285 
L 102.62753 18.019622 
L 103.10632 16.51396 
L 103.663839 15.008297 
L 104.285584 13.502634 
L 104.955479 11.996971 
L 105.656626 10.491309 
L 106.372087 8.985646 
L 107.085625 7.479983 
L 107.78237 5.97432 
L 108.449365 4.468657 
L 109.075957 2.962995 
L 109.654027 1.457332 
L 110.178061 -0.048331 
L 110.645055 -1.553994 
L 111.054306 -3.059656 
L 111.407093 -4.565319 
L 111.706303 -6.070982 
L 111.956023 -7.576645 
L 112.161145 -9.082308 
L 113.558855 -9.082308 
L 113.558855 -9.082308 
L 113.763977 -7.576645 
L 114.013697 -6.070982 
L 114.312907 -4.565319 
L 114.665694 -3.059656 
L 115.074945 -1.553994 
L 115.541939 -0.048331 
L 116.065973 1.457332 
L 116.644043 2.962995 
L 117.270635 4.468657 
L 117.93763 5.97432 
L 118.634375 7.479983 
L 119.347913 8.985646 
L 120.063374 10.491309 
L 120.764521 11.996971 
L 121.434416 13.502634 
L 122.056161 15.008297 
L 122.61368 16.51396 
L 123.09247 18.019622 
L 123.480285 19.525285 
L 123.7677 21.030948 
L 123.948518 22.536611 
L 124.02 24.042274 
L 123.982903 25.547936 
L 123.841337 27.053599 
L 123.602457 28.559262 
L 123.276017 30.064925 
L 122.873824 31.570587 
L 122.409139 33.07625 
L 121.89605 34.581913 
L 121.348872 36.087576 
L 120.781598 37.593239 
L 120.207418 39.098901 
L 119.638339 40.604564 
L 119.0849 42.110227 
L 118.555984 43.61589 
L 118.058727 45.121552 
L 117.59851 46.627215 
L 117.179022 48.132878 
L 116.802372 49.638541 
L 116.46925 51.144204 
L 116.179112 52.649866 
L 115.930377 54.155529 
L 115.720635 55.661192 
L 115.54685 57.166855 
L 115.40555 58.672517 
L 115.293002 60.17818 
L 115.205373 61.683843 
L 115.138857 63.189506 
L 115.089786 64.695169 
L 115.054707 66.200831 
L 115.030434 67.706494 
L 115.01408 69.212157 
L 115.003059 70.71782 
L 114.99508 72.223483 
L 114.988127 73.729145 
L 114.980435 75.234808 
L 114.970471 76.740471 
L 114.956922 78.246134 
L 114.938693 79.751796 
L 114.914919 81.257459 
L 114.884979 82.763122 
L 114.848527 84.268785 
L 114.805506 85.774448 
L 114.756165 87.28011 
L 114.701054 88.785773 
L 114.640996 90.291436 
L 114.577041 91.797099 
L 114.510393 93.302761 
L 114.442327 94.808424 
L 114.374082 96.314087 
L 114.306774 97.81975 
L 114.241306 99.325413 
L 114.1783 100.831075 
L 114.118065 102.336738 
L 114.06059 103.842401 
L 114.005571 105.348064 
L 113.952469 106.853726 
L 113.900587 108.359389 
L 113.849164 109.865052 
L 113.797465 111.370715 
L 113.744869 112.876378 
L 113.690938 114.38204 
L 113.635463 115.887703 
L 113.578484 117.393366 
L 113.520287 118.899029 
L 113.461372 120.404691 
L 113.402408 121.910354 
L 113.34417 123.416017 
L 113.287479 124.92168 
L 113.233137 126.427343 
L 113.181867 127.933005 
L 113.134275 129.438668 
L 113.090817 130.944331 
L 113.051782 132.449994 
L 113.017293 133.955656 
L 112.987317 135.461319 
L 112.961688 136.966982 
L 112.940129 138.472645 
L 112.922287 139.978308 
z
" clip-path="url(#p75f3f8567a)" style="fill: #c1613e; fill-opacity: 0.35"/>
   </g>
   <g id="patch_3">
    <path d="M 23.58 115.344 
L 45.9 115.344 
L 45.9 20.98512 
L 23.58 20.98512 
L 23.58 115.344 
z
" clip-path="url(#p75f3f8567a)" style="fill: none"/>
   </g>
   <g id="patch_4">
    <path d="M 79.38 115.344 
L 101.7 115.344 
L 101.7 95.651712 
L 79.38 95.651712 
L 79.38 115.344 
z
" clip-path="url(#p75f3f8567a)" style="fill: none"/>
   </g>
   <g id="patch_5">
    <path d="M 45.9 115.344 
L 68.22 115.344 
L 68.22 80.904672 
L 45.9 80.904672 
L 45.9 115.344 
z
" clip-path="url(#p75f3f8567a)" style="fill: none"/>
   </g>
   <g id="patch_6">
    <path d="M 101.7 115.344 
L 124.02 115.344 
L 124.02 37.861056 
L 101.7 37.861056 
L 101.7 115.344 
z
" clip-path="url(#p75f3f8567a)" style="fill: none"/>
   </g>
   <g id="patch_7">
    <path d="M 45.9 115.344 
L 45.9 115.344 
L 45.9 115.344 
L 45.9 115.344 
z
" clip-path="url(#p75f3f8567a)" style="fill: #3274a1"/>
   </g>
   <g id="patch_8">
    <path d="M 45.9 115.344 
L 45.9 115.344 
L 45.9 115.344 
L 45.9 115.344 
z
" clip-path="url(#p75f3f8567a)" style="fill: #e1812c"/>
   </g>
   <g id="patch_9">
    <path d="M 23.58 115.344 
L 45.9 115.344 
L 45.9 20.98512 
L 23.58 20.98512 
z
" clip-path="url(#p75f3f8567a)" style="fill: #20415a; opacity: 0.3; stroke: #000000; stroke-linejoin: miter"/>
   </g>
   <g id="patch_10">
    <path d="M 79.38 115.344 
L 101.7 115.344 
L 101.7 95.651712 
L 79.38 95.651712 
z
" clip-path="url(#p75f3f8567a)" style="fill: #20415a; opacity: 0.3; stroke: #000000; stroke-linejoin: miter"/>
   </g>
   <g id="patch_11">
    <path d="M 45.9 115.344 
L 68.22 115.344 
L 68.22 80.904672 
L 45.9 80.904672 
z
" clip-path="url(#p75f3f8567a)" style="fill: #c1613e; opacity: 0.3; stroke: #000000; stroke-linejoin: miter"/>
   </g>
   <g id="patch_12">
    <path d="M 101.7 115.344 
L 124.02 115.344 
L 124.02 37.861056 
L 101.7 37.861056 
z
" clip-path="url(#p75f3f8567a)" style="fill: #c1613e; opacity: 0.3; stroke: #000000; stroke-linejoin: miter"/>
   </g>
   <g id="patch_13">
    <path d="M 45.9 115.344 
L 45.9 115.344 
L 45.9 115.344 
L 45.9 115.344 
z
" clip-path="url(#p75f3f8567a)" style="fill: #20415a; opacity: 0.3; stroke: #000000; stroke-linejoin: miter"/>
   </g>
   <g id="patch_14">
    <path d="M 45.9 115.344 
L 45.9 115.344 
L 45.9 115.344 
L 45.9 115.344 
z
" clip-path="url(#p75f3f8567a)" style="fill: #c1613e; opacity: 0.3; stroke: #000000; stroke-linejoin: miter"/>
   </g>
   <g id="matplotlib.axis_1">
    <g id="xtick_1">
     <g id="line2d_1">
      <defs>
       <path id="mcb55803f39" d="M 0 0 
L 0 3.5 
" style="stroke: #000000"/>
      </defs>
      <g>
       <use xlink:href="#mcb55803f39" x="45.9" y="115.344" style="stroke: #000000"/>
      </g>
     </g>
     <g id="text_1">
      <!-- reward -->
      <g transform="translate(30.617969 129.501812) scale(0.1 -0.1)">
       <defs>
        <path id="ArialMT-72" d="M 416 0 
L 416 3319 
L 922 3319 
L 922 2816 
Q 1116 3169 1280 3281 
Q 1444 3394 1641 3394 
Q 1925 3394 2219 3213 
L 2025 2691 
Q 1819 2813 1613 2813 
Q 1428 2813 1281 2702 
Q 1134 2591 1072 2394 
Q 978 2094 978 1738 
L 978 0 
L 416 0 
z
" transform="scale(0.015625)"/>
        <path id="ArialMT-65" d="M 2694 1069 
L 3275 997 
Q 3138 488 2766 206 
Q 2394 -75 1816 -75 
Q 1088 -75 661 373 
Q 234 822 234 1631 
Q 234 2469 665 2931 
Q 1097 3394 1784 3394 
Q 2450 3394 2872 2941 
Q 3294 2488 3294 1666 
Q 3294 1616 3291 1516 
L 816 1516 
Q 847 969 1125 678 
Q 1403 388 1819 388 
Q 2128 388 2347 550 
Q 2566 713 2694 1069 
z
M 847 1978 
L 2700 1978 
Q 2663 2397 2488 2606 
Q 2219 2931 1791 2931 
Q 1403 2931 1139 2672 
Q 875 2413 847 1978 
z
" transform="scale(0.015625)"/>
        <path id="ArialMT-77" d="M 1034 0 
L 19 3319 
L 600 3319 
L 1128 1403 
L 1325 691 
Q 1338 744 1497 1375 
L 2025 3319 
L 2603 3319 
L 3100 1394 
L 3266 759 
L 3456 1400 
L 4025 3319 
L 4572 3319 
L 3534 0 
L 2950 0 
L 2422 1988 
L 2294 2553 
L 1622 0 
L 1034 0 
z
" transform="scale(0.015625)"/>
        <path id="ArialMT-61" d="M 2588 409 
Q 2275 144 1986 34 
Q 1697 -75 1366 -75 
Q 819 -75 525 192 
Q 231 459 231 875 
Q 231 1119 342 1320 
Q 453 1522 633 1644 
Q 813 1766 1038 1828 
Q 1203 1872 1538 1913 
Q 2219 1994 2541 2106 
Q 2544 2222 2544 2253 
Q 2544 2597 2384 2738 
Q 2169 2928 1744 2928 
Q 1347 2928 1158 2789 
Q 969 2650 878 2297 
L 328 2372 
Q 403 2725 575 2942 
Q 747 3159 1072 3276 
Q 1397 3394 1825 3394 
Q 2250 3394 2515 3294 
Q 2781 3194 2906 3042 
Q 3031 2891 3081 2659 
Q 3109 2516 3109 2141 
L 3109 1391 
Q 3109 606 3145 398 
Q 3181 191 3288 0 
L 2700 0 
Q 2613 175 2588 409 
z
M 2541 1666 
Q 2234 1541 1622 1453 
Q 1275 1403 1131 1340 
Q 988 1278 909 1158 
Q 831 1038 831 891 
Q 831 666 1001 516 
Q 1172 366 1500 366 
Q 1825 366 2078 508 
Q 2331 650 2450 897 
Q 2541 1088 2541 1459 
L 2541 1666 
z
" transform="scale(0.015625)"/>
        <path id="ArialMT-64" d="M 2575 0 
L 2575 419 
Q 2259 -75 1647 -75 
Q 1250 -75 917 144 
Q 584 363 401 755 
Q 219 1147 219 1656 
Q 219 2153 384 2558 
Q 550 2963 881 3178 
Q 1213 3394 1622 3394 
Q 1922 3394 2156 3267 
Q 2391 3141 2538 2938 
L 2538 4581 
L 3097 4581 
L 3097 0 
L 2575 0 
z
M 797 1656 
Q 797 1019 1065 703 
Q 1334 388 1700 388 
Q 2069 388 2326 689 
Q 2584 991 2584 1609 
Q 2584 2291 2321 2609 
Q 2059 2928 1675 2928 
Q 1300 2928 1048 2622 
Q 797 2316 797 1656 
z
" transform="scale(0.015625)"/>
       </defs>
       <use xlink:href="#ArialMT-72"/>
       <use xlink:href="#ArialMT-65" x="33.300781"/>
       <use xlink:href="#ArialMT-77" x="88.916016"/>
       <use xlink:href="#ArialMT-61" x="161.132812"/>
       <use xlink:href="#ArialMT-72" x="216.748047"/>
       <use xlink:href="#ArialMT-64" x="250.048828"/>
      </g>
     </g>
    </g>
    <g id="xtick_2">
     <g id="line2d_2">
      <g>
       <use xlink:href="#mcb55803f39" x="101.7" y="115.344" style="stroke: #000000"/>
      </g>
     </g>
     <g id="text_2">
      <!-- unrewarded -->
      <g transform="translate(75.296094 129.501812) scale(0.1 -0.1)">
       <defs>
        <path id="ArialMT-75" d="M 2597 0 
L 2597 488 
Q 2209 -75 1544 -75 
Q 1250 -75 995 37 
Q 741 150 617 320 
Q 494 491 444 738 
Q 409 903 409 1263 
L 409 3319 
L 972 3319 
L 972 1478 
Q 972 1038 1006 884 
Q 1059 663 1231 536 
Q 1403 409 1656 409 
Q 1909 409 2131 539 
Q 2353 669 2445 892 
Q 2538 1116 2538 1541 
L 2538 3319 
L 3100 3319 
L 3100 0 
L 2597 0 
z
" transform="scale(0.015625)"/>
        <path id="ArialMT-6e" d="M 422 0 
L 422 3319 
L 928 3319 
L 928 2847 
Q 1294 3394 1984 3394 
Q 2284 3394 2536 3286 
Q 2788 3178 2913 3003 
Q 3038 2828 3088 2588 
Q 3119 2431 3119 2041 
L 3119 0 
L 2556 0 
L 2556 2019 
Q 2556 2363 2490 2533 
Q 2425 2703 2258 2804 
Q 2091 2906 1866 2906 
Q 1506 2906 1245 2678 
Q 984 2450 984 1813 
L 984 0 
L 422 0 
z
" transform="scale(0.015625)"/>
       </defs>
       <use xlink:href="#ArialMT-75"/>
       <use xlink:href="#ArialMT-6e" x="55.615234"/>
       <use xlink:href="#ArialMT-72" x="111.230469"/>
       <use xlink:href="#ArialMT-65" x="144.53125"/>
       <use xlink:href="#ArialMT-77" x="200.146484"/>
       <use xlink:href="#ArialMT-61" x="272.363281"/>
       <use xlink:href="#ArialMT-72" x="327.978516"/>
       <use xlink:href="#ArialMT-64" x="361.279297"/>
       <use xlink:href="#ArialMT-65" x="416.894531"/>
       <use xlink:href="#ArialMT-64" x="472.509766"/>
      </g>
     </g>
    </g>
   </g>
   <g id="matplotlib.axis_2">
    <g id="ytick_1">
     <g id="line2d_3">
      <defs>
       <path id="me4a1079126" d="M 0 0 
L -3.5 0 
" style="stroke: #000000"/>
      </defs>
      <g>
       <use xlink:href="#me4a1079126" x="18" y="115.344" style="stroke: #000000"/>
      </g>
     </g>
     <g id="text_3">
      <!-- 0.00 -->
      <g transform="translate(-8.460938 118.922906) scale(0.1 -0.1)">
       <defs>
        <path id="ArialMT-30" d="M 266 2259 
Q 266 3072 433 3567 
Q 600 4063 929 4331 
Q 1259 4600 1759 4600 
Q 2128 4600 2406 4451 
Q 2684 4303 2865 4023 
Q 3047 3744 3150 3342 
Q 3253 2941 3253 2259 
Q 3253 1453 3087 958 
Q 2922 463 2592 192 
Q 2263 -78 1759 -78 
Q 1097 -78 719 397 
Q 266 969 266 2259 
z
M 844 2259 
Q 844 1131 1108 757 
Q 1372 384 1759 384 
Q 2147 384 2411 759 
Q 2675 1134 2675 2259 
Q 2675 3391 2411 3762 
Q 2147 4134 1753 4134 
Q 1366 4134 1134 3806 
Q 844 3388 844 2259 
z
" transform="scale(0.015625)"/>
        <path id="ArialMT-2e" d="M 581 0 
L 581 641 
L 1222 641 
L 1222 0 
L 581 0 
z
" transform="scale(0.015625)"/>
       </defs>
       <use xlink:href="#ArialMT-30"/>
       <use xlink:href="#ArialMT-2e" x="55.615234"/>
       <use xlink:href="#ArialMT-30" x="83.398438"/>
       <use xlink:href="#ArialMT-30" x="139.013672"/>
      </g>
     </g>
    </g>
    <g id="ytick_2">
     <g id="line2d_4">
      <g>
       <use xlink:href="#me4a1079126" x="18" y="90.396" style="stroke: #000000"/>
      </g>
     </g>
     <g id="text_4">
      <!-- 0.25 -->
      <g transform="translate(-8.460938 93.974906) scale(0.1 -0.1)">
       <defs>
        <path id="ArialMT-32" d="M 3222 541 
L 3222 0 
L 194 0 
Q 188 203 259 391 
Q 375 700 629 1000 
Q 884 1300 1366 1694 
Q 2113 2306 2375 2664 
Q 2638 3022 2638 3341 
Q 2638 3675 2398 3904 
Q 2159 4134 1775 4134 
Q 1369 4134 1125 3890 
Q 881 3647 878 3216 
L 300 3275 
Q 359 3922 746 4261 
Q 1134 4600 1788 4600 
Q 2447 4600 2831 4234 
Q 3216 3869 3216 3328 
Q 3216 3053 3103 2787 
Q 2991 2522 2730 2228 
Q 2469 1934 1863 1422 
Q 1356 997 1212 845 
Q 1069 694 975 541 
L 3222 541 
z
" transform="scale(0.015625)"/>
        <path id="ArialMT-35" d="M 266 1200 
L 856 1250 
Q 922 819 1161 601 
Q 1400 384 1738 384 
Q 2144 384 2425 690 
Q 2706 997 2706 1503 
Q 2706 1984 2436 2262 
Q 2166 2541 1728 2541 
Q 1456 2541 1237 2417 
Q 1019 2294 894 2097 
L 366 2166 
L 809 4519 
L 3088 4519 
L 3088 3981 
L 1259 3981 
L 1013 2750 
Q 1425 3038 1878 3038 
Q 2478 3038 2890 2622 
Q 3303 2206 3303 1553 
Q 3303 931 2941 478 
Q 2500 -78 1738 -78 
Q 1113 -78 717 272 
Q 322 622 266 1200 
z
" transform="scale(0.015625)"/>
       </defs>
       <use xlink:href="#ArialMT-30"/>
       <use xlink:href="#ArialMT-2e" x="55.615234"/>
       <use xlink:href="#ArialMT-32" x="83.398438"/>
       <use xlink:href="#ArialMT-35" x="139.013672"/>
      </g>
     </g>
    </g>
    <g id="ytick_3">
     <g id="line2d_5">
      <g>
       <use xlink:href="#me4a1079126" x="18" y="65.448" style="stroke: #000000"/>
      </g>
     </g>
     <g id="text_5">
      <!-- 0.50 -->
      <g transform="translate(-8.460938 69.026906) scale(0.1 -0.1)">
       <use xlink:href="#ArialMT-30"/>
       <use xlink:href="#ArialMT-2e" x="55.615234"/>
       <use xlink:href="#ArialMT-35" x="83.398438"/>
       <use xlink:href="#ArialMT-30" x="139.013672"/>
      </g>
     </g>
    </g>
    <g id="ytick_4">
     <g id="line2d_6">
      <g>
       <use xlink:href="#me4a1079126" x="18" y="40.5" style="stroke: #000000"/>
      </g>
     </g>
     <g id="text_6">
      <!-- 0.75 -->
      <g transform="translate(-8.460938 44.078906) scale(0.1 -0.1)">
       <defs>
        <path id="ArialMT-37" d="M 303 3981 
L 303 4522 
L 3269 4522 
L 3269 4084 
Q 2831 3619 2401 2847 
Q 1972 2075 1738 1259 
Q 1569 684 1522 0 
L 944 0 
Q 953 541 1156 1306 
Q 1359 2072 1739 2783 
Q 2119 3494 2547 3981 
L 303 3981 
z
" transform="scale(0.015625)"/>
       </defs>
       <use xlink:href="#ArialMT-30"/>
       <use xlink:href="#ArialMT-2e" x="55.615234"/>
       <use xlink:href="#ArialMT-37" x="83.398438"/>
       <use xlink:href="#ArialMT-35" x="139.013672"/>
      </g>
     </g>
    </g>
    <g id="ytick_5">
     <g id="line2d_7">
      <g>
       <use xlink:href="#me4a1079126" x="18" y="15.552" style="stroke: #000000"/>
      </g>
     </g>
     <g id="text_7">
      <!-- 1.00 -->
      <g transform="translate(-8.460938 19.130906) scale(0.1 -0.1)">
       <defs>
        <path id="ArialMT-31" d="M 2384 0 
L 1822 0 
L 1822 3584 
Q 1619 3391 1289 3197 
Q 959 3003 697 2906 
L 697 3450 
Q 1169 3672 1522 3987 
Q 1875 4303 2022 4600 
L 2384 4600 
L 2384 0 
z
" transform="scale(0.015625)"/>
       </defs>
       <use xlink:href="#ArialMT-31"/>
       <use xlink:href="#ArialMT-2e" x="55.615234"/>
       <use xlink:href="#ArialMT-30" x="83.398438"/>
       <use xlink:href="#ArialMT-30" x="139.013672"/>
      </g>
     </g>
    </g>
    <g id="text_8">
     <!-- stay probability -->
     <g transform="translate(-14.565625 98.795656) rotate(-90) scale(0.1 -0.1)">
      <defs>
       <path id="ArialMT-73" d="M 197 991 
L 753 1078 
Q 800 744 1014 566 
Q 1228 388 1613 388 
Q 2000 388 2187 545 
Q 2375 703 2375 916 
Q 2375 1106 2209 1216 
Q 2094 1291 1634 1406 
Q 1016 1563 777 1677 
Q 538 1791 414 1992 
Q 291 2194 291 2438 
Q 291 2659 392 2848 
Q 494 3038 669 3163 
Q 800 3259 1026 3326 
Q 1253 3394 1513 3394 
Q 1903 3394 2198 3281 
Q 2494 3169 2634 2976 
Q 2775 2784 2828 2463 
L 2278 2388 
Q 2241 2644 2061 2787 
Q 1881 2931 1553 2931 
Q 1166 2931 1000 2803 
Q 834 2675 834 2503 
Q 834 2394 903 2306 
Q 972 2216 1119 2156 
Q 1203 2125 1616 2013 
Q 2213 1853 2448 1751 
Q 2684 1650 2818 1456 
Q 2953 1263 2953 975 
Q 2953 694 2789 445 
Q 2625 197 2315 61 
Q 2006 -75 1616 -75 
Q 969 -75 630 194 
Q 291 463 197 991 
z
" transform="scale(0.015625)"/>
       <path id="ArialMT-74" d="M 1650 503 
L 1731 6 
Q 1494 -44 1306 -44 
Q 1000 -44 831 53 
Q 663 150 594 308 
Q 525 466 525 972 
L 525 2881 
L 113 2881 
L 113 3319 
L 525 3319 
L 525 4141 
L 1084 4478 
L 1084 3319 
L 1650 3319 
L 1650 2881 
L 1084 2881 
L 1084 941 
Q 1084 700 1114 631 
Q 1144 563 1211 522 
Q 1278 481 1403 481 
Q 1497 481 1650 503 
z
" transform="scale(0.015625)"/>
       <path id="ArialMT-79" d="M 397 -1278 
L 334 -750 
Q 519 -800 656 -800 
Q 844 -800 956 -737 
Q 1069 -675 1141 -563 
Q 1194 -478 1313 -144 
Q 1328 -97 1363 -6 
L 103 3319 
L 709 3319 
L 1400 1397 
Q 1534 1031 1641 628 
Q 1738 1016 1872 1384 
L 2581 3319 
L 3144 3319 
L 1881 -56 
Q 1678 -603 1566 -809 
Q 1416 -1088 1222 -1217 
Q 1028 -1347 759 -1347 
Q 597 -1347 397 -1278 
z
" transform="scale(0.015625)"/>
       <path id="ArialMT-20" transform="scale(0.015625)"/>
       <path id="ArialMT-70" d="M 422 -1272 
L 422 3319 
L 934 3319 
L 934 2888 
Q 1116 3141 1344 3267 
Q 1572 3394 1897 3394 
Q 2322 3394 2647 3175 
Q 2972 2956 3137 2557 
Q 3303 2159 3303 1684 
Q 3303 1175 3120 767 
Q 2938 359 2589 142 
Q 2241 -75 1856 -75 
Q 1575 -75 1351 44 
Q 1128 163 984 344 
L 984 -1272 
L 422 -1272 
z
M 931 1641 
Q 931 1000 1190 694 
Q 1450 388 1819 388 
Q 2194 388 2461 705 
Q 2728 1022 2728 1688 
Q 2728 2322 2467 2637 
Q 2206 2953 1844 2953 
Q 1484 2953 1207 2617 
Q 931 2281 931 1641 
z
" transform="scale(0.015625)"/>
       <path id="ArialMT-6f" d="M 213 1659 
Q 213 2581 725 3025 
Q 1153 3394 1769 3394 
Q 2453 3394 2887 2945 
Q 3322 2497 3322 1706 
Q 3322 1066 3130 698 
Q 2938 331 2570 128 
Q 2203 -75 1769 -75 
Q 1072 -75 642 372 
Q 213 819 213 1659 
z
M 791 1659 
Q 791 1022 1069 705 
Q 1347 388 1769 388 
Q 2188 388 2466 706 
Q 2744 1025 2744 1678 
Q 2744 2294 2464 2611 
Q 2184 2928 1769 2928 
Q 1347 2928 1069 2612 
Q 791 2297 791 1659 
z
" transform="scale(0.015625)"/>
       <path id="ArialMT-62" d="M 941 0 
L 419 0 
L 419 4581 
L 981 4581 
L 981 2947 
Q 1338 3394 1891 3394 
Q 2197 3394 2470 3270 
Q 2744 3147 2920 2923 
Q 3097 2700 3197 2384 
Q 3297 2069 3297 1709 
Q 3297 856 2875 390 
Q 2453 -75 1863 -75 
Q 1275 -75 941 416 
L 941 0 
z
M 934 1684 
Q 934 1088 1097 822 
Q 1363 388 1816 388 
Q 2184 388 2453 708 
Q 2722 1028 2722 1663 
Q 2722 2313 2464 2622 
Q 2206 2931 1841 2931 
Q 1472 2931 1203 2611 
Q 934 2291 934 1684 
z
" transform="scale(0.015625)"/>
       <path id="ArialMT-69" d="M 425 3934 
L 425 4581 
L 988 4581 
L 988 3934 
L 425 3934 
z
M 425 0 
L 425 3319 
L 988 3319 
L 988 0 
L 425 0 
z
" transform="scale(0.015625)"/>
       <path id="ArialMT-6c" d="M 409 0 
L 409 4581 
L 972 4581 
L 972 0 
L 409 0 
z
" transform="scale(0.015625)"/>
      </defs>
      <use xlink:href="#ArialMT-73"/>
      <use xlink:href="#ArialMT-74" x="50"/>
      <use xlink:href="#ArialMT-61" x="77.783203"/>
      <use xlink:href="#ArialMT-79" x="133.398438"/>
      <use xlink:href="#ArialMT-20" x="183.398438"/>
      <use xlink:href="#ArialMT-70" x="211.181641"/>
      <use xlink:href="#ArialMT-72" x="266.796875"/>
      <use xlink:href="#ArialMT-6f" x="300.097656"/>
      <use xlink:href="#ArialMT-62" x="355.712891"/>
      <use xlink:href="#ArialMT-61" x="411.328125"/>
      <use xlink:href="#ArialMT-62" x="466.943359"/>
      <use xlink:href="#ArialMT-69" x="522.558594"/>
      <use xlink:href="#ArialMT-6c" x="544.775391"/>
      <use xlink:href="#ArialMT-69" x="566.992188"/>
      <use xlink:href="#ArialMT-74" x="589.208984"/>
      <use xlink:href="#ArialMT-79" x="616.992188"/>
     </g>
    </g>
   </g>
   <g id="PathCollection_1">
    <defs>
     <path id="C0_0_c144281f99" d="M 0 3.5 
C 0.928211 3.5 1.81853 3.131218 2.474874 2.474874 
C 3.131218 1.81853 3.5 0.928211 3.5 -0 
C 3.5 -0.928211 3.131218 -1.81853 2.474874 -2.474874 
C 1.81853 -3.131218 0.928211 -3.5 0 -3.5 
C -0.928211 -3.5 -1.81853 -3.131218 -2.474874 -2.474874 
C -3.131218 -1.81853 -3.5 -0.928211 -3.5 0 
C -3.5 0.928211 -3.131218 1.81853 -2.474874 2.474874 
C -1.81853 3.131218 -0.928211 3.5 0 3.5 
z
"/>
    </defs>
    <g clip-path="url(#p75f3f8567a)">
     <use xlink:href="#C0_0_c144281f99" x="35.371531" y="22.53744" style="fill: #174263; fill-opacity: 0.45"/>
    </g>
    <g clip-path="url(#p75f3f8567a)">
     <use xlink:href="#C0_0_c144281f99" x="37.43806" y="15.552" style="fill: #174263; fill-opacity: 0.45"/>
    </g>
    <g clip-path="url(#p75f3f8567a)">
     <use xlink:href="#C0_0_c144281f99" x="37.312832" y="20.5416" style="fill: #174263; fill-opacity: 0.45"/>
    </g>
    <g clip-path="url(#p75f3f8567a)">
     <use xlink:href="#C0_0_c144281f99" x="34.270965" y="15.552" style="fill: #174263; fill-opacity: 0.45"/>
    </g>
    <g clip-path="url(#p75f3f8567a)">
     <use xlink:href="#C0_0_c144281f99" x="34.357975" y="18.54576" style="fill: #174263; fill-opacity: 0.45"/>
    </g>
    <g clip-path="url(#p75f3f8567a)">
     <use xlink:href="#C0_0_c144281f99" x="32.033367" y="31.51872" style="fill: #174263; fill-opacity: 0.45"/>
    </g>
    <g clip-path="url(#p75f3f8567a)">
     <use xlink:href="#C0_0_c144281f99" x="37.249218" y="26.52912" style="fill: #174263; fill-opacity: 0.45"/>
    </g>
    <g clip-path="url(#p75f3f8567a)">
     <use xlink:href="#C0_0_c144281f99" x="35.41491" y="24.53328" style="fill: #174263; fill-opacity: 0.45"/>
    </g>
    <g clip-path="url(#p75f3f8567a)">
     <use xlink:href="#C0_0_c144281f99" x="37.100283" y="68.44176" style="fill: #174263; fill-opacity: 0.45"/>
    </g>
    <g clip-path="url(#p75f3f8567a)">
     <use xlink:href="#C0_0_c144281f99" x="37.237615" y="17.54784" style="fill: #174263; fill-opacity: 0.45"/>
    </g>
    <g clip-path="url(#p75f3f8567a)">
     <use xlink:href="#C0_0_c144281f99" x="34.663993" y="23.53536" style="fill: #174263; fill-opacity: 0.45"/>
    </g>
    <g clip-path="url(#p75f3f8567a)">
     <use xlink:href="#C0_0_c144281f99" x="37.196114" y="15.552" style="fill: #174263; fill-opacity: 0.45"/>
    </g>
    <g clip-path="url(#p75f3f8567a)">
     <use xlink:href="#C0_0_c144281f99" x="33.658636" y="15.552" style="fill: #174263; fill-opacity: 0.45"/>
    </g>
    <g clip-path="url(#p75f3f8567a)">
     <use xlink:href="#C0_0_c144281f99" x="32.528658" y="21.53952" style="fill: #174263; fill-opacity: 0.45"/>
    </g>
    <g clip-path="url(#p75f3f8567a)">
     <use xlink:href="#C0_0_c144281f99" x="32.001355" y="19.54368" style="fill: #174263; fill-opacity: 0.45"/>
    </g>
    <g clip-path="url(#p75f3f8567a)">
     <use xlink:href="#C0_0_c144281f99" x="34.206303" y="15.552" style="fill: #174263; fill-opacity: 0.45"/>
    </g>
    <g clip-path="url(#p75f3f8567a)">
     <use xlink:href="#C0_0_c144281f99" x="36.048035" y="18.54576" style="fill: #174263; fill-opacity: 0.45"/>
    </g>
    <g clip-path="url(#p75f3f8567a)">
     <use xlink:href="#C0_0_c144281f99" x="33.167023" y="17.54784" style="fill: #174263; fill-opacity: 0.45"/>
    </g>
    <g clip-path="url(#p75f3f8567a)">
     <use xlink:href="#C0_0_c144281f99" x="32.920974" y="15.552" style="fill: #174263; fill-opacity: 0.45"/>
    </g>
    <g clip-path="url(#p75f3f8567a)">
     <use xlink:href="#C0_0_c144281f99" x="34.103207" y="20.5416" style="fill: #174263; fill-opacity: 0.45"/>
    </g>
    <g clip-path="url(#p75f3f8567a)">
     <use xlink:href="#C0_0_c144281f99" x="34.275654" y="58.46256" style="fill: #174263; fill-opacity: 0.45"/>
    </g>
    <g clip-path="url(#p75f3f8567a)">
     <use xlink:href="#C0_0_c144281f99" x="36.835896" y="15.552" style="fill: #174263; fill-opacity: 0.45"/>
    </g>
    <g clip-path="url(#p75f3f8567a)">
     <use xlink:href="#C0_0_c144281f99" x="37.327955" y="18.54576" style="fill: #174263; fill-opacity: 0.45"/>
    </g>
    <g clip-path="url(#p75f3f8567a)">
     <use xlink:href="#C0_0_c144281f99" x="37.098371" y="15.552" style="fill: #174263; fill-opacity: 0.45"/>
    </g>
    <g clip-path="url(#p75f3f8567a)">
     <use xlink:href="#C0_0_c144281f99" x="32.62082" y="17.54784" style="fill: #174263; fill-opacity: 0.45"/>
    </g>
    <g clip-path="url(#p75f3f8567a)">
     <use xlink:href="#C0_0_c144281f99" x="37.348966" y="15.552" style="fill: #174263; fill-opacity: 0.45"/>
    </g>
    <g clip-path="url(#p75f3f8567a)">
     <use xlink:href="#C0_0_c144281f99" x="34.192458" y="15.552" style="fill: #174263; fill-opacity: 0.45"/>
    </g>
    <g clip-path="url(#p75f3f8567a)">
     <use xlink:href="#C0_0_c144281f99" x="33.732922" y="21.53952" style="fill: #174263; fill-opacity: 0.45"/>
    </g>
    <g clip-path="url(#p75f3f8567a)">
     <use xlink:href="#C0_0_c144281f99" x="36.06805" y="15.552" style="fill: #174263; fill-opacity: 0.45"/>
    </g>
    <g clip-path="url(#p75f3f8567a)">
     <use xlink:href="#C0_0_c144281f99" x="34.880748" y="15.552" style="fill: #174263; fill-opacity: 0.45"/>
    </g>
    <g clip-path="url(#p75f3f8567a)">
     <use xlink:href="#C0_0_c144281f99" x="32.048946" y="17.54784" style="fill: #174263; fill-opacity: 0.45"/>
    </g>
    <g clip-path="url(#p75f3f8567a)">
     <use xlink:href="#C0_0_c144281f99" x="35.031422" y="15.552" style="fill: #174263; fill-opacity: 0.45"/>
    </g>
    <g clip-path="url(#p75f3f8567a)">
     <use xlink:href="#C0_0_c144281f99" x="34.781075" y="17.54784" style="fill: #174263; fill-opacity: 0.45"/>
    </g>
    <g clip-path="url(#p75f3f8567a)">
     <use xlink:href="#C0_0_c144281f99" x="36.614874" y="21.53952" style="fill: #174263; fill-opacity: 0.45"/>
    </g>
    <g clip-path="url(#p75f3f8567a)">
     <use xlink:href="#C0_0_c144281f99" x="36.600244" y="17.54784" style="fill: #174263; fill-opacity: 0.45"/>
    </g>
    <g clip-path="url(#p75f3f8567a)">
     <use xlink:href="#C0_0_c144281f99" x="33.909536" y="20.5416" style="fill: #174263; fill-opacity: 0.45"/>
    </g>
    <g clip-path="url(#p75f3f8567a)">
     <use xlink:href="#C0_0_c144281f99" x="35.179882" y="18.54576" style="fill: #174263; fill-opacity: 0.45"/>
    </g>
    <g clip-path="url(#p75f3f8567a)">
     <use xlink:href="#C0_0_c144281f99" x="33.202178" y="26.52912" style="fill: #174263; fill-opacity: 0.45"/>
    </g>
    <g clip-path="url(#p75f3f8567a)">
     <use xlink:href="#C0_0_c144281f99" x="34.621534" y="17.54784" style="fill: #174263; fill-opacity: 0.45"/>
    </g>
    <g clip-path="url(#p75f3f8567a)">
     <use xlink:href="#C0_0_c144281f99" x="35.408583" y="23.53536" style="fill: #174263; fill-opacity: 0.45"/>
    </g>
    <g clip-path="url(#p75f3f8567a)">
     <use xlink:href="#C0_0_c144281f99" x="36.773152" y="21.53952" style="fill: #174263; fill-opacity: 0.45"/>
    </g>
    <g clip-path="url(#p75f3f8567a)">
     <use xlink:href="#C0_0_c144281f99" x="34.481852" y="15.552" style="fill: #174263; fill-opacity: 0.45"/>
    </g>
    <g clip-path="url(#p75f3f8567a)">
     <use xlink:href="#C0_0_c144281f99" x="35.700259" y="17.54784" style="fill: #174263; fill-opacity: 0.45"/>
    </g>
    <g clip-path="url(#p75f3f8567a)">
     <use xlink:href="#C0_0_c144281f99" x="36.16438" y="18.54576" style="fill: #174263; fill-opacity: 0.45"/>
    </g>
    <g clip-path="url(#p75f3f8567a)">
     <use xlink:href="#C0_0_c144281f99" x="31.980483" y="20.5416" style="fill: #174263; fill-opacity: 0.45"/>
    </g>
   </g>
   <g id="PathCollection_2">
    <defs>
     <path id="C1_0_27c3719bd0" d="M 0 3.5 
C 0.928211 3.5 1.81853 3.131218 2.474874 2.474874 
C 3.131218 1.81853 3.5 0.928211 3.5 -0 
C 3.5 -0.928211 3.131218 -1.81853 2.474874 -2.474874 
C 1.81853 -3.131218 0.928211 -3.5 0 -3.5 
C -0.928211 -3.5 -1.81853 -3.131218 -2.474874 -2.474874 
C -3.131218 -1.81853 -3.5 -0.928211 -3.5 0 
C -3.5 0.928211 -3.131218 1.81853 -2.474874 2.474874 
C -1.81853 3.131218 -0.928211 3.5 0 3.5 
z
"/>
    </defs>
    <g clip-path="url(#p75f3f8567a)">
     <use xlink:href="#C1_0_27c3719bd0" x="54.53048" y="50.4792" style="fill: #d75728; fill-opacity: 0.45"/>
    </g>
    <g clip-path="url(#p75f3f8567a)">
     <use xlink:href="#C1_0_27c3719bd0" x="58.60373" y="15.552" style="fill: #d75728; fill-opacity: 0.45"/>
    </g>
    <g clip-path="url(#p75f3f8567a)">
     <use xlink:href="#C1_0_27c3719bd0" x="55.745427" y="97.38144" style="fill: #d75728; fill-opacity: 0.45"/>
    </g>
    <g clip-path="url(#p75f3f8567a)">
     <use xlink:href="#C1_0_27c3719bd0" x="55.306746" y="77.42304" style="fill: #d75728; fill-opacity: 0.45"/>
    </g>
    <g clip-path="url(#p75f3f8567a)">
     <use xlink:href="#C1_0_27c3719bd0" x="57.022343" y="15.552" style="fill: #d75728; fill-opacity: 0.45"/>
    </g>
    <g clip-path="url(#p75f3f8567a)">
     <use xlink:href="#C1_0_27c3719bd0" x="56.477687" y="44.49168" style="fill: #d75728; fill-opacity: 0.45"/>
    </g>
    <g clip-path="url(#p75f3f8567a)">
     <use xlink:href="#C1_0_27c3719bd0" x="58.270275" y="34.51248" style="fill: #d75728; fill-opacity: 0.45"/>
    </g>
    <g clip-path="url(#p75f3f8567a)">
     <use xlink:href="#C1_0_27c3719bd0" x="58.277819" y="59.46048" style="fill: #d75728; fill-opacity: 0.45"/>
    </g>
    <g clip-path="url(#p75f3f8567a)">
     <use xlink:href="#C1_0_27c3719bd0" x="55.808567" y="71.43552" style="fill: #d75728; fill-opacity: 0.45"/>
    </g>
    <g clip-path="url(#p75f3f8567a)">
     <use xlink:href="#C1_0_27c3719bd0" x="57.960416" y="115.344" style="fill: #d75728; fill-opacity: 0.45"/>
    </g>
    <g clip-path="url(#p75f3f8567a)">
     <use xlink:href="#C1_0_27c3719bd0" x="58.206173" y="71.43552" style="fill: #d75728; fill-opacity: 0.45"/>
    </g>
    <g clip-path="url(#p75f3f8567a)">
     <use xlink:href="#C1_0_27c3719bd0" x="59.778209" y="115.344" style="fill: #d75728; fill-opacity: 0.45"/>
    </g>
    <g clip-path="url(#p75f3f8567a)">
     <use xlink:href="#C1_0_27c3719bd0" x="55.643843" y="115.344" style="fill: #d75728; fill-opacity: 0.45"/>
    </g>
    <g clip-path="url(#p75f3f8567a)">
     <use xlink:href="#C1_0_27c3719bd0" x="54.376975" y="15.552" style="fill: #d75728; fill-opacity: 0.45"/>
    </g>
    <g clip-path="url(#p75f3f8567a)">
     <use xlink:href="#C1_0_27c3719bd0" x="56.903999" y="48.48336" style="fill: #d75728; fill-opacity: 0.45"/>
    </g>
    <g clip-path="url(#p75f3f8567a)">
     <use xlink:href="#C1_0_27c3719bd0" x="56.906307" y="42.49584" style="fill: #d75728; fill-opacity: 0.45"/>
    </g>
    <g clip-path="url(#p75f3f8567a)">
     <use xlink:href="#C1_0_27c3719bd0" x="56.279522" y="115.344" style="fill: #d75728; fill-opacity: 0.45"/>
    </g>
    <g clip-path="url(#p75f3f8567a)">
     <use xlink:href="#C1_0_27c3719bd0" x="54.993763" y="115.344" style="fill: #d75728; fill-opacity: 0.45"/>
    </g>
    <g clip-path="url(#p75f3f8567a)">
     <use xlink:href="#C1_0_27c3719bd0" x="58.681433" y="98.37936" style="fill: #d75728; fill-opacity: 0.45"/>
    </g>
    <g clip-path="url(#p75f3f8567a)">
     <use xlink:href="#C1_0_27c3719bd0" x="58.613686" y="102.37104" style="fill: #d75728; fill-opacity: 0.45"/>
    </g>
    <g clip-path="url(#p75f3f8567a)">
     <use xlink:href="#C1_0_27c3719bd0" x="57.91672" y="25.5312" style="fill: #d75728; fill-opacity: 0.45"/>
    </g>
    <g clip-path="url(#p75f3f8567a)">
     <use xlink:href="#C1_0_27c3719bd0" x="59.00072" y="115.344" style="fill: #d75728; fill-opacity: 0.45"/>
    </g>
    <g clip-path="url(#p75f3f8567a)">
     <use xlink:href="#C1_0_27c3719bd0" x="57.612302" y="15.552" style="fill: #d75728; fill-opacity: 0.45"/>
    </g>
    <g clip-path="url(#p75f3f8567a)">
     <use xlink:href="#C1_0_27c3719bd0" x="55.617396" y="90.396" style="fill: #d75728; fill-opacity: 0.45"/>
    </g>
    <g clip-path="url(#p75f3f8567a)">
     <use xlink:href="#C1_0_27c3719bd0" x="55.865917" y="28.52496" style="fill: #d75728; fill-opacity: 0.45"/>
    </g>
    <g clip-path="url(#p75f3f8567a)">
     <use xlink:href="#C1_0_27c3719bd0" x="55.444075" y="115.344" style="fill: #d75728; fill-opacity: 0.45"/>
    </g>
    <g clip-path="url(#p75f3f8567a)">
     <use xlink:href="#C1_0_27c3719bd0" x="56.445278" y="68.44176" style="fill: #d75728; fill-opacity: 0.45"/>
    </g>
    <g clip-path="url(#p75f3f8567a)">
     <use xlink:href="#C1_0_27c3719bd0" x="56.795204" y="62.45424" style="fill: #d75728; fill-opacity: 0.45"/>
    </g>
    <g clip-path="url(#p75f3f8567a)">
     <use xlink:href="#C1_0_27c3719bd0" x="54.758058" y="109.35648" style="fill: #d75728; fill-opacity: 0.45"/>
    </g>
    <g clip-path="url(#p75f3f8567a)">
     <use xlink:href="#C1_0_27c3719bd0" x="59.654132" y="115.344" style="fill: #d75728; fill-opacity: 0.45"/>
    </g>
    <g clip-path="url(#p75f3f8567a)">
     <use xlink:href="#C1_0_27c3719bd0" x="57.733934" y="115.344" style="fill: #d75728; fill-opacity: 0.45"/>
    </g>
    <g clip-path="url(#p75f3f8567a)">
     <use xlink:href="#C1_0_27c3719bd0" x="57.145798" y="104.36688" style="fill: #d75728; fill-opacity: 0.45"/>
    </g>
    <g clip-path="url(#p75f3f8567a)">
     <use xlink:href="#C1_0_27c3719bd0" x="55.123598" y="108.35856" style="fill: #d75728; fill-opacity: 0.45"/>
    </g>
    <g clip-path="url(#p75f3f8567a)">
     <use xlink:href="#C1_0_27c3719bd0" x="56.980635" y="15.552" style="fill: #d75728; fill-opacity: 0.45"/>
    </g>
    <g clip-path="url(#p75f3f8567a)">
     <use xlink:href="#C1_0_27c3719bd0" x="56.079082" y="102.37104" style="fill: #d75728; fill-opacity: 0.45"/>
    </g>
    <g clip-path="url(#p75f3f8567a)">
     <use xlink:href="#C1_0_27c3719bd0" x="59.761366" y="109.35648" style="fill: #d75728; fill-opacity: 0.45"/>
    </g>
    <g clip-path="url(#p75f3f8567a)">
     <use xlink:href="#C1_0_27c3719bd0" x="54.934968" y="115.344" style="fill: #d75728; fill-opacity: 0.45"/>
    </g>
    <g clip-path="url(#p75f3f8567a)">
     <use xlink:href="#C1_0_27c3719bd0" x="58.030904" y="100.3752" style="fill: #d75728; fill-opacity: 0.45"/>
    </g>
    <g clip-path="url(#p75f3f8567a)">
     <use xlink:href="#C1_0_27c3719bd0" x="55.126254" y="102.37104" style="fill: #d75728; fill-opacity: 0.45"/>
    </g>
    <g clip-path="url(#p75f3f8567a)">
     <use xlink:href="#C1_0_27c3719bd0" x="57.882979" y="106.36272" style="fill: #d75728; fill-opacity: 0.45"/>
    </g>
    <g clip-path="url(#p75f3f8567a)">
     <use xlink:href="#C1_0_27c3719bd0" x="56.16361" y="65.448" style="fill: #d75728; fill-opacity: 0.45"/>
    </g>
    <g clip-path="url(#p75f3f8567a)">
     <use xlink:href="#C1_0_27c3719bd0" x="58.771183" y="115.344" style="fill: #d75728; fill-opacity: 0.45"/>
    </g>
    <g clip-path="url(#p75f3f8567a)">
     <use xlink:href="#C1_0_27c3719bd0" x="54.938518" y="106.36272" style="fill: #d75728; fill-opacity: 0.45"/>
    </g>
    <g clip-path="url(#p75f3f8567a)">
     <use xlink:href="#C1_0_27c3719bd0" x="55.845219" y="115.344" style="fill: #d75728; fill-opacity: 0.45"/>
    </g>
    <g clip-path="url(#p75f3f8567a)">
     <use xlink:href="#C1_0_27c3719bd0" x="57.455447" y="90.396" style="fill: #d75728; fill-opacity: 0.45"/>
    </g>
   </g>
   <g id="PathCollection_3">
    <defs>
     <path id="C2_0_32c2fc0432" d="M 0 3.5 
C 0.928211 3.5 1.81853 3.131218 2.474874 2.474874 
C 3.131218 1.81853 3.5 0.928211 3.5 -0 
C 3.5 -0.928211 3.131218 -1.81853 2.474874 -2.474874 
C 1.81853 -3.131218 0.928211 -3.5 0 -3.5 
C -0.928211 -3.5 -1.81853 -3.131218 -2.474874 -2.474874 
C -3.131218 -1.81853 -3.5 -0.928211 -3.5 0 
C -3.5 0.928211 -3.131218 1.81853 -2.474874 2.474874 
C -1.81853 3.131218 -0.928211 3.5 0 3.5 
z
"/>
    </defs>
    <g clip-path="url(#p75f3f8567a)">
     <use xlink:href="#C2_0_32c2fc0432" x="88.056008" y="55.4688" style="fill: #174263; fill-opacity: 0.45"/>
    </g>
    <g clip-path="url(#p75f3f8567a)">
     <use xlink:href="#C2_0_32c2fc0432" x="91.465937" y="108.35856" style="fill: #174263; fill-opacity: 0.45"/>
    </g>
    <g clip-path="url(#p75f3f8567a)">
     <use xlink:href="#C2_0_32c2fc0432" x="88.226067" y="102.37104" style="fill: #174263; fill-opacity: 0.45"/>
    </g>
    <g clip-path="url(#p75f3f8567a)">
     <use xlink:href="#C2_0_32c2fc0432" x="92.666791" y="57.46464" style="fill: #174263; fill-opacity: 0.45"/>
    </g>
    <g clip-path="url(#p75f3f8567a)">
     <use xlink:href="#C2_0_32c2fc0432" x="89.43087" y="106.36272" style="fill: #174263; fill-opacity: 0.45"/>
    </g>
    <g clip-path="url(#p75f3f8567a)">
     <use xlink:href="#C2_0_32c2fc0432" x="88.122612" y="41.49792" style="fill: #174263; fill-opacity: 0.45"/>
    </g>
    <g clip-path="url(#p75f3f8567a)">
     <use xlink:href="#C2_0_32c2fc0432" x="92.740879" y="34.51248" style="fill: #174263; fill-opacity: 0.45"/>
    </g>
    <g clip-path="url(#p75f3f8567a)">
     <use xlink:href="#C2_0_32c2fc0432" x="92.258919" y="56.46672" style="fill: #174263; fill-opacity: 0.45"/>
    </g>
    <g clip-path="url(#p75f3f8567a)">
     <use xlink:href="#C2_0_32c2fc0432" x="88.653248" y="67.44384" style="fill: #174263; fill-opacity: 0.45"/>
    </g>
    <g clip-path="url(#p75f3f8567a)">
     <use xlink:href="#C2_0_32c2fc0432" x="92.711221" y="78.42096" style="fill: #174263; fill-opacity: 0.45"/>
    </g>
    <g clip-path="url(#p75f3f8567a)">
     <use xlink:href="#C2_0_32c2fc0432" x="88.520267" y="87.40224" style="fill: #174263; fill-opacity: 0.45"/>
    </g>
    <g clip-path="url(#p75f3f8567a)">
     <use xlink:href="#C2_0_32c2fc0432" x="89.81998" y="115.344" style="fill: #174263; fill-opacity: 0.45"/>
    </g>
    <g clip-path="url(#p75f3f8567a)">
     <use xlink:href="#C2_0_32c2fc0432" x="91.709894" y="112.35024" style="fill: #174263; fill-opacity: 0.45"/>
    </g>
    <g clip-path="url(#p75f3f8567a)">
     <use xlink:href="#C2_0_32c2fc0432" x="90.98371" y="109.35648" style="fill: #174263; fill-opacity: 0.45"/>
    </g>
    <g clip-path="url(#p75f3f8567a)">
     <use xlink:href="#C2_0_32c2fc0432" x="91.69274" y="61.45632" style="fill: #174263; fill-opacity: 0.45"/>
    </g>
    <g clip-path="url(#p75f3f8567a)">
     <use xlink:href="#C2_0_32c2fc0432" x="92.391151" y="47.48544" style="fill: #174263; fill-opacity: 0.45"/>
    </g>
    <g clip-path="url(#p75f3f8567a)">
     <use xlink:href="#C2_0_32c2fc0432" x="88.180035" y="106.36272" style="fill: #174263; fill-opacity: 0.45"/>
    </g>
    <g clip-path="url(#p75f3f8567a)">
     <use xlink:href="#C2_0_32c2fc0432" x="92.995051" y="96.38352" style="fill: #174263; fill-opacity: 0.45"/>
    </g>
    <g clip-path="url(#p75f3f8567a)">
     <use xlink:href="#C2_0_32c2fc0432" x="89.743677" y="108.35856" style="fill: #174263; fill-opacity: 0.45"/>
    </g>
    <g clip-path="url(#p75f3f8567a)">
     <use xlink:href="#C2_0_32c2fc0432" x="91.418717" y="103.36896" style="fill: #174263; fill-opacity: 0.45"/>
    </g>
    <g clip-path="url(#p75f3f8567a)">
     <use xlink:href="#C2_0_32c2fc0432" x="89.158775" y="70.4376" style="fill: #174263; fill-opacity: 0.45"/>
    </g>
    <g clip-path="url(#p75f3f8567a)">
     <use xlink:href="#C2_0_32c2fc0432" x="91.679135" y="115.344" style="fill: #174263; fill-opacity: 0.45"/>
    </g>
    <g clip-path="url(#p75f3f8567a)">
     <use xlink:href="#C2_0_32c2fc0432" x="89.539191" y="87.40224" style="fill: #174263; fill-opacity: 0.45"/>
    </g>
    <g clip-path="url(#p75f3f8567a)">
     <use xlink:href="#C2_0_32c2fc0432" x="92.640057" y="101.37312" style="fill: #174263; fill-opacity: 0.45"/>
    </g>
    <g clip-path="url(#p75f3f8567a)">
     <use xlink:href="#C2_0_32c2fc0432" x="90.350848" y="90.396" style="fill: #174263; fill-opacity: 0.45"/>
    </g>
    <g clip-path="url(#p75f3f8567a)">
     <use xlink:href="#C2_0_32c2fc0432" x="92.115739" y="106.36272" style="fill: #174263; fill-opacity: 0.45"/>
    </g>
    <g clip-path="url(#p75f3f8567a)">
     <use xlink:href="#C2_0_32c2fc0432" x="91.110043" y="106.36272" style="fill: #174263; fill-opacity: 0.45"/>
    </g>
    <g clip-path="url(#p75f3f8567a)">
     <use xlink:href="#C2_0_32c2fc0432" x="90.591035" y="115.344" style="fill: #174263; fill-opacity: 0.45"/>
    </g>
    <g clip-path="url(#p75f3f8567a)">
     <use xlink:href="#C2_0_32c2fc0432" x="88.492469" y="115.344" style="fill: #174263; fill-opacity: 0.45"/>
    </g>
    <g clip-path="url(#p75f3f8567a)">
     <use xlink:href="#C2_0_32c2fc0432" x="91.085007" y="110.3544" style="fill: #174263; fill-opacity: 0.45"/>
    </g>
    <g clip-path="url(#p75f3f8567a)">
     <use xlink:href="#C2_0_32c2fc0432" x="92.739483" y="115.344" style="fill: #174263; fill-opacity: 0.45"/>
    </g>
    <g clip-path="url(#p75f3f8567a)">
     <use xlink:href="#C2_0_32c2fc0432" x="91.515173" y="111.35232" style="fill: #174263; fill-opacity: 0.45"/>
    </g>
    <g clip-path="url(#p75f3f8567a)">
     <use xlink:href="#C2_0_32c2fc0432" x="90.503146" y="111.35232" style="fill: #174263; fill-opacity: 0.45"/>
    </g>
    <g clip-path="url(#p75f3f8567a)">
     <use xlink:href="#C2_0_32c2fc0432" x="89.509287" y="93.38976" style="fill: #174263; fill-opacity: 0.45"/>
    </g>
    <g clip-path="url(#p75f3f8567a)">
     <use xlink:href="#C2_0_32c2fc0432" x="92.541137" y="95.3856" style="fill: #174263; fill-opacity: 0.45"/>
    </g>
    <g clip-path="url(#p75f3f8567a)">
     <use xlink:href="#C2_0_32c2fc0432" x="93.02483" y="115.344" style="fill: #174263; fill-opacity: 0.45"/>
    </g>
    <g clip-path="url(#p75f3f8567a)">
     <use xlink:href="#C2_0_32c2fc0432" x="92.041404" y="115.344" style="fill: #174263; fill-opacity: 0.45"/>
    </g>
    <g clip-path="url(#p75f3f8567a)">
     <use xlink:href="#C2_0_32c2fc0432" x="87.99105" y="104.36688" style="fill: #174263; fill-opacity: 0.45"/>
    </g>
    <g clip-path="url(#p75f3f8567a)">
     <use xlink:href="#C2_0_32c2fc0432" x="89.654709" y="98.37936" style="fill: #174263; fill-opacity: 0.45"/>
    </g>
    <g clip-path="url(#p75f3f8567a)">
     <use xlink:href="#C2_0_32c2fc0432" x="93.08554" y="112.35024" style="fill: #174263; fill-opacity: 0.45"/>
    </g>
    <g clip-path="url(#p75f3f8567a)">
     <use xlink:href="#C2_0_32c2fc0432" x="89.827408" y="102.37104" style="fill: #174263; fill-opacity: 0.45"/>
    </g>
    <g clip-path="url(#p75f3f8567a)">
     <use xlink:href="#C2_0_32c2fc0432" x="92.231045" y="112.35024" style="fill: #174263; fill-opacity: 0.45"/>
    </g>
    <g clip-path="url(#p75f3f8567a)">
     <use xlink:href="#C2_0_32c2fc0432" x="91.469512" y="115.344" style="fill: #174263; fill-opacity: 0.45"/>
    </g>
    <g clip-path="url(#p75f3f8567a)">
     <use xlink:href="#C2_0_32c2fc0432" x="90.750531" y="111.35232" style="fill: #174263; fill-opacity: 0.45"/>
    </g>
    <g clip-path="url(#p75f3f8567a)">
     <use xlink:href="#C2_0_32c2fc0432" x="92.924783" y="115.344" style="fill: #174263; fill-opacity: 0.45"/>
    </g>
   </g>
   <g id="PathCollection_4">
    <defs>
     <path id="C3_0_62e20b935f" d="M 0 3.5 
C 0.928211 3.5 1.81853 3.131218 2.474874 2.474874 
C 3.131218 1.81853 3.5 0.928211 3.5 -0 
C 3.5 -0.928211 3.131218 -1.81853 2.474874 -2.474874 
C 1.81853 -3.131218 0.928211 -3.5 0 -3.5 
C -0.928211 -3.5 -1.81853 -3.131218 -2.474874 -2.474874 
C -3.131218 -1.81853 -3.5 -0.928211 -3.5 0 
C -3.5 0.928211 -3.131218 1.81853 -2.474874 2.474874 
C -1.81853 3.131218 -0.928211 3.5 0 3.5 
z
"/>
    </defs>
    <g clip-path="url(#p75f3f8567a)">
     <use xlink:href="#C3_0_62e20b935f" x="115.388051" y="27.52704" style="fill: #d75728; fill-opacity: 0.45"/>
    </g>
    <g clip-path="url(#p75f3f8567a)">
     <use xlink:href="#C3_0_62e20b935f" x="111.837507" y="115.344" style="fill: #d75728; fill-opacity: 0.45"/>
    </g>
    <g clip-path="url(#p75f3f8567a)">
     <use xlink:href="#C3_0_62e20b935f" x="114.348228" y="27.52704" style="fill: #d75728; fill-opacity: 0.45"/>
    </g>
    <g clip-path="url(#p75f3f8567a)">
     <use xlink:href="#C3_0_62e20b935f" x="112.151443" y="33.51456" style="fill: #d75728; fill-opacity: 0.45"/>
    </g>
    <g clip-path="url(#p75f3f8567a)">
     <use xlink:href="#C3_0_62e20b935f" x="114.490748" y="90.396" style="fill: #d75728; fill-opacity: 0.45"/>
    </g>
    <g clip-path="url(#p75f3f8567a)">
     <use xlink:href="#C3_0_62e20b935f" x="110.159633" y="52.47504" style="fill: #d75728; fill-opacity: 0.45"/>
    </g>
    <g clip-path="url(#p75f3f8567a)">
     <use xlink:href="#C3_0_62e20b935f" x="111.890525" y="73.43136" style="fill: #d75728; fill-opacity: 0.45"/>
    </g>
    <g clip-path="url(#p75f3f8567a)">
     <use xlink:href="#C3_0_62e20b935f" x="111.487066" y="48.48336" style="fill: #d75728; fill-opacity: 0.45"/>
    </g>
    <g clip-path="url(#p75f3f8567a)">
     <use xlink:href="#C3_0_62e20b935f" x="113.927181" y="62.45424" style="fill: #d75728; fill-opacity: 0.45"/>
    </g>
    <g clip-path="url(#p75f3f8567a)">
     <use xlink:href="#C3_0_62e20b935f" x="113.206272" y="20.5416" style="fill: #d75728; fill-opacity: 0.45"/>
    </g>
    <g clip-path="url(#p75f3f8567a)">
     <use xlink:href="#C3_0_62e20b935f" x="113.394838" y="28.52496" style="fill: #d75728; fill-opacity: 0.45"/>
    </g>
    <g clip-path="url(#p75f3f8567a)">
     <use xlink:href="#C3_0_62e20b935f" x="114.043219" y="15.552" style="fill: #d75728; fill-opacity: 0.45"/>
    </g>
    <g clip-path="url(#p75f3f8567a)">
     <use xlink:href="#C3_0_62e20b935f" x="113.130796" y="15.552" style="fill: #d75728; fill-opacity: 0.45"/>
    </g>
    <g clip-path="url(#p75f3f8567a)">
     <use xlink:href="#C3_0_62e20b935f" x="110.458244" y="15.552" style="fill: #d75728; fill-opacity: 0.45"/>
    </g>
    <g clip-path="url(#p75f3f8567a)">
     <use xlink:href="#C3_0_62e20b935f" x="114.101856" y="32.51664" style="fill: #d75728; fill-opacity: 0.45"/>
    </g>
    <g clip-path="url(#p75f3f8567a)">
     <use xlink:href="#C3_0_62e20b935f" x="110.408416" y="22.53744" style="fill: #d75728; fill-opacity: 0.45"/>
    </g>
    <g clip-path="url(#p75f3f8567a)">
     <use xlink:href="#C3_0_62e20b935f" x="111.849356" y="27.52704" style="fill: #d75728; fill-opacity: 0.45"/>
    </g>
    <g clip-path="url(#p75f3f8567a)">
     <use xlink:href="#C3_0_62e20b935f" x="110.987995" y="37.50624" style="fill: #d75728; fill-opacity: 0.45"/>
    </g>
    <g clip-path="url(#p75f3f8567a)">
     <use xlink:href="#C3_0_62e20b935f" x="113.133486" y="22.53744" style="fill: #d75728; fill-opacity: 0.45"/>
    </g>
    <g clip-path="url(#p75f3f8567a)">
     <use xlink:href="#C3_0_62e20b935f" x="114.156563" y="26.52912" style="fill: #d75728; fill-opacity: 0.45"/>
    </g>
    <g clip-path="url(#p75f3f8567a)">
     <use xlink:href="#C3_0_62e20b935f" x="115.010541" y="86.40432" style="fill: #d75728; fill-opacity: 0.45"/>
    </g>
    <g clip-path="url(#p75f3f8567a)">
     <use xlink:href="#C3_0_62e20b935f" x="110.855441" y="40.5" style="fill: #d75728; fill-opacity: 0.45"/>
    </g>
    <g clip-path="url(#p75f3f8567a)">
     <use xlink:href="#C3_0_62e20b935f" x="112.413581" y="87.40224" style="fill: #d75728; fill-opacity: 0.45"/>
    </g>
    <g clip-path="url(#p75f3f8567a)">
     <use xlink:href="#C3_0_62e20b935f" x="113.372497" y="27.52704" style="fill: #d75728; fill-opacity: 0.45"/>
    </g>
    <g clip-path="url(#p75f3f8567a)">
     <use xlink:href="#C3_0_62e20b935f" x="110.760107" y="22.53744" style="fill: #d75728; fill-opacity: 0.45"/>
    </g>
    <g clip-path="url(#p75f3f8567a)">
     <use xlink:href="#C3_0_62e20b935f" x="112.684427" y="15.552" style="fill: #d75728; fill-opacity: 0.45"/>
    </g>
    <g clip-path="url(#p75f3f8567a)">
     <use xlink:href="#C3_0_62e20b935f" x="113.479568" y="65.448" style="fill: #d75728; fill-opacity: 0.45"/>
    </g>
    <g clip-path="url(#p75f3f8567a)">
     <use xlink:href="#C3_0_62e20b935f" x="111.129587" y="75.4272" style="fill: #d75728; fill-opacity: 0.45"/>
    </g>
    <g clip-path="url(#p75f3f8567a)">
     <use xlink:href="#C3_0_62e20b935f" x="112.039471" y="35.5104" style="fill: #d75728; fill-opacity: 0.45"/>
    </g>
    <g clip-path="url(#p75f3f8567a)">
     <use xlink:href="#C3_0_62e20b935f" x="115.404962" y="15.552" style="fill: #d75728; fill-opacity: 0.45"/>
    </g>
    <g clip-path="url(#p75f3f8567a)">
     <use xlink:href="#C3_0_62e20b935f" x="112.459608" y="15.552" style="fill: #d75728; fill-opacity: 0.45"/>
    </g>
    <g clip-path="url(#p75f3f8567a)">
     <use xlink:href="#C3_0_62e20b935f" x="113.170482" y="29.52288" style="fill: #d75728; fill-opacity: 0.45"/>
    </g>
    <g clip-path="url(#p75f3f8567a)">
     <use xlink:href="#C3_0_62e20b935f" x="110.388396" y="15.552" style="fill: #d75728; fill-opacity: 0.45"/>
    </g>
    <g clip-path="url(#p75f3f8567a)">
     <use xlink:href="#C3_0_62e20b935f" x="114.603889" y="106.36272" style="fill: #d75728; fill-opacity: 0.45"/>
    </g>
    <g clip-path="url(#p75f3f8567a)">
     <use xlink:href="#C3_0_62e20b935f" x="110.444546" y="22.53744" style="fill: #d75728; fill-opacity: 0.45"/>
    </g>
    <g clip-path="url(#p75f3f8567a)">
     <use xlink:href="#C3_0_62e20b935f" x="113.926134" y="24.53328" style="fill: #d75728; fill-opacity: 0.45"/>
    </g>
    <g clip-path="url(#p75f3f8567a)">
     <use xlink:href="#C3_0_62e20b935f" x="111.402279" y="22.53744" style="fill: #d75728; fill-opacity: 0.45"/>
    </g>
    <g clip-path="url(#p75f3f8567a)">
     <use xlink:href="#C3_0_62e20b935f" x="114.138389" y="38.50416" style="fill: #d75728; fill-opacity: 0.45"/>
    </g>
    <g clip-path="url(#p75f3f8567a)">
     <use xlink:href="#C3_0_62e20b935f" x="113.830774" y="40.5" style="fill: #d75728; fill-opacity: 0.45"/>
    </g>
    <g clip-path="url(#p75f3f8567a)">
     <use xlink:href="#C3_0_62e20b935f" x="113.490596" y="20.5416" style="fill: #d75728; fill-opacity: 0.45"/>
    </g>
    <g clip-path="url(#p75f3f8567a)">
     <use xlink:href="#C3_0_62e20b935f" x="115.543898" y="25.5312" style="fill: #d75728; fill-opacity: 0.45"/>
    </g>
    <g clip-path="url(#p75f3f8567a)">
     <use xlink:href="#C3_0_62e20b935f" x="114.772266" y="27.52704" style="fill: #d75728; fill-opacity: 0.45"/>
    </g>
    <g clip-path="url(#p75f3f8567a)">
     <use xlink:href="#C3_0_62e20b935f" x="115.187577" y="15.552" style="fill: #d75728; fill-opacity: 0.45"/>
    </g>
    <g clip-path="url(#p75f3f8567a)">
     <use xlink:href="#C3_0_62e20b935f" x="110.287686" y="15.552" style="fill: #d75728; fill-opacity: 0.45"/>
    </g>
    <g clip-path="url(#p75f3f8567a)">
     <use xlink:href="#C3_0_62e20b935f" x="112.945616" y="15.552" style="fill: #d75728; fill-opacity: 0.45"/>
    </g>
   </g>
   <g id="line2d_8">
    <path d="M 33.2055 22.475621 
L 36.2745 22.475621 
M 34.74 22.475621 
L 34.74 19.494619 
M 33.2055 19.494619 
L 36.2745 19.494619 
" clip-path="url(#p75f3f8567a)" style="fill: none; stroke: #333333; stroke-width: 2.5; stroke-linecap: square"/>
   </g>
   <g id="line2d_9">
    <path d="M 89.0055 99.073571 
L 92.0745 99.073571 
M 90.54 99.073571 
L 90.54 92.229853 
M 89.0055 92.229853 
L 92.0745 92.229853 
" clip-path="url(#p75f3f8567a)" style="fill: none; stroke: #333333; stroke-width: 2.5; stroke-linecap: square"/>
   </g>
   <g id="line2d_10">
    <path d="M 55.5255 86.244236 
L 58.5945 86.244236 
M 57.06 86.244236 
L 57.06 75.565108 
M 55.5255 75.565108 
L 58.5945 75.565108 
" clip-path="url(#p75f3f8567a)" style="fill: none; stroke: #333333; stroke-width: 2.5; stroke-linecap: square"/>
   </g>
   <g id="line2d_11">
    <path d="M 111.3255 41.79245 
L 114.3945 41.79245 
M 112.86 41.79245 
L 112.86 33.929662 
M 111.3255 33.929662 
L 114.3945 33.929662 
" clip-path="url(#p75f3f8567a)" style="fill: none; stroke: #333333; stroke-width: 2.5; stroke-linecap: square"/>
   </g>
   <g id="patch_15">
    <path d="M 18 115.344 
L 18 15.552 
" style="fill: none; stroke: #000000; stroke-linejoin: miter; stroke-linecap: square"/>
   </g>
   <g id="patch_16">
    <path d="M 18 115.344 
L 129.6 115.344 
" style="fill: none; stroke: #000000; stroke-linejoin: miter; stroke-linecap: square"/>
   </g>
   <g id="PathCollection_5">
    <defs>
     <path id="m3985e6f566" d="M 0 3 
C 0.795609 3 1.55874 2.683901 2.12132 2.12132 
C 2.683901 1.55874 3 0.795609 3 0 
C 3 -0.795609 2.683901 -1.55874 2.12132 -2.12132 
C 1.55874 -2.683901 0.795609 -3 0 -3 
C -0.795609 -3 -1.55874 -2.683901 -2.12132 -2.12132 
C -2.683901 -1.55874 -3 -0.795609 -3 0 
C -3 0.795609 -2.683901 1.55874 -2.12132 2.12132 
C -1.55874 2.683901 -0.795609 3 0 3 
z
"/>
    </defs>
    <g clip-path="url(#p75f3f8567a)">
     <use xlink:href="#m3985e6f566" x="34.74" y="20.98512" style="fill: #333333"/>
    </g>
   </g>
   <g id="PathCollection_6">
    <g clip-path="url(#p75f3f8567a)">
     <use xlink:href="#m3985e6f566" x="57.06" y="80.904672" style="fill: #333333"/>
    </g>
   </g>
   <g id="PathCollection_7">
    <g clip-path="url(#p75f3f8567a)">
     <use xlink:href="#m3985e6f566" x="90.54" y="95.651712" style="fill: #333333"/>
    </g>
   </g>
   <g id="PathCollection_8">
    <g clip-path="url(#p75f3f8567a)">
     <use xlink:href="#m3985e6f566" x="112.86" y="37.861056" style="fill: #333333"/>
    </g>
   </g>
   <g id="line2d_12"/>
   <g id="line2d_13"/>
  </g>
 </g>
 <defs>
  <clipPath id="p75f3f8567a">
   <rect x="18" y="15.552" width="111.6" height="99.792"/>
  </clipPath>
 </defs>
</svg>
