<?xml version="1.0" encoding="utf-8" standalone="no"?>
<!DOCTYPE svg PUBLIC "-//W3C//DTD SVG 1.1//EN"
  "http://www.w3.org/Graphics/SVG/1.1/DTD/svg11.dtd">
<svg xmlns:xlink="http://www.w3.org/1999/xlink" width="144pt" height="129.6pt" viewBox="0 0 144 129.6" xmlns="http://www.w3.org/2000/svg" version="1.1">
 <metadata>
  <rdf:RDF xmlns:dc="http://purl.org/dc/elements/1.1/" xmlns:cc="http://creativecommons.org/ns#" xmlns:rdf="http://www.w3.org/1999/02/22-rdf-syntax-ns#">
   <cc:Work>
    <dc:type rdf:resource="http://purl.org/dc/dcmitype/StillImage"/>
    <dc:date>2025-04-14T00:19:46.811503</dc:date>
    <dc:format>image/svg+xml</dc:format>
    <dc:creator>
     <cc:Agent>
      <dc:title>Matplotlib v3.7.1, https://matplotlib.org/</dc:title>
     </cc:Agent>
    </dc:creator>
   </cc:Work>
  </rdf:RDF>
 </metadata>
 <defs>
  <style type="text/css">*{stroke-linejoin: round; stroke-linecap: butt}</style>
 </defs>
 <g id="figure_1">
  <g id="patch_1">
   <path d="M 0 129.6 
L 144 129.6 
L 144 0 
L 0 0 
L 0 129.6 
z
" style="fill: none"/>
  </g>
  <g id="axes_1">
   <g id="patch_2">
    <path d="M 18 115.344 
L 129.6 115.344 
L 129.6 15.552 
L 18 15.552 
L 18 115.344 
z
" style="fill: none"/>
   </g>
   <g id="PolyCollection_1">
    <path d="M 34.786586 106.147551 
L 34.693414 106.147551 
L 34.677443 105.093498 
L 34.657948 104.039445 
L 34.634876 102.985392 
L 34.608443 101.931339 
L 34.579184 100.877286 
L 34.547981 99.823232 
L 34.516046 98.769179 
L 34.484863 97.715126 
L 34.456083 96.661073 
L 34.431388 95.60702 
L 34.412327 94.552967 
L 34.400155 93.498913 
L 34.395694 92.44486 
L 34.399237 91.390807 
L 34.41051 90.336754 
L 34.428696 89.282701 
L 34.452519 88.228648 
L 34.480367 87.174594 
L 34.510445 86.120541 
L 34.540927 85.066488 
L 34.570088 84.012435 
L 34.596403 82.958382 
L 34.61861 81.904329 
L 34.635734 80.850276 
L 34.647081 79.796222 
L 34.652221 78.742169 
L 34.650968 77.688116 
L 34.643365 76.634063 
L 34.62969 75.58001 
L 34.61047 74.525957 
L 34.586503 73.471903 
L 34.558868 72.41785 
L 34.528921 71.363797 
L 34.498248 70.309744 
L 34.468593 69.255691 
L 34.441727 68.201638 
L 34.419306 67.147584 
L 34.402703 66.093531 
L 34.392852 65.039478 
L 34.390127 63.985425 
L 34.394269 62.931372 
L 34.404377 61.877319 
L 34.41897 60.823266 
L 34.436104 59.769212 
L 34.453544 58.715159 
L 34.468948 57.661106 
L 34.480064 56.607053 
L 34.484897 55.553 
L 34.481839 54.498947 
L 34.469749 53.444893 
L 34.447971 52.39084 
L 34.416303 51.336787 
L 34.374912 50.282734 
L 34.324226 49.228681 
L 34.264787 48.174628 
L 34.197121 47.120574 
L 34.121597 46.066521 
L 34.03831 45.012468 
L 33.946969 43.958415 
L 33.846802 42.904362 
L 33.736444 41.850309 
L 33.613816 40.796256 
L 33.475979 39.742202 
L 33.31898 38.688149 
L 33.137704 37.634096 
L 32.925791 36.580043 
L 32.675665 35.52599 
L 32.378767 34.471937 
L 32.02604 33.417883 
L 31.608711 32.36383 
L 31.119385 31.309777 
L 30.553395 30.255724 
L 29.910287 29.201671 
L 29.195271 28.147618 
L 28.420414 27.093564 
L 27.605326 26.039511 
L 26.77712 24.985458 
L 25.969484 23.931405 
L 25.220801 22.877352 
L 24.571418 21.823299 
L 24.060283 20.769246 
L 23.721321 19.715192 
L 23.58 18.661139 
L 23.650541 17.607086 
L 23.934201 16.553033 
L 24.418878 15.49898 
L 25.08013 14.444927 
L 25.883473 13.390873 
L 26.787656 12.33682 
L 27.748455 11.282767 
L 28.722494 10.228714 
L 29.670622 9.174661 
L 30.560488 8.120608 
L 31.368104 7.066554 
L 32.078345 6.012501 
L 32.684514 4.958448 
L 33.187172 3.904395 
L 33.592528 2.850342 
L 33.910648 1.796289 
L 35.569352 1.796289 
L 35.569352 1.796289 
L 35.887472 2.850342 
L 36.292828 3.904395 
L 36.795486 4.958448 
L 37.401655 6.012501 
L 38.111896 7.066554 
L 38.919512 8.120608 
L 39.809378 9.174661 
L 40.757506 10.228714 
L 41.731545 11.282767 
L 42.692344 12.33682 
L 43.596527 13.390873 
L 44.39987 14.444927 
L 45.061122 15.49898 
L 45.545799 16.553033 
L 45.829459 17.607086 
L 45.9 18.661139 
L 45.758679 19.715192 
L 45.419717 20.769246 
L 44.908582 21.823299 
L 44.259199 22.877352 
L 43.510516 23.931405 
L 42.70288 24.985458 
L 41.874674 26.039511 
L 41.059586 27.093564 
L 40.284729 28.147618 
L 39.569713 29.201671 
L 38.926605 30.255724 
L 38.360615 31.309777 
L 37.871289 32.36383 
L 37.45396 33.417883 
L 37.101233 34.471937 
L 36.804335 35.52599 
L 36.554209 36.580043 
L 36.342296 37.634096 
L 36.16102 38.688149 
L 36.004021 39.742202 
L 35.866184 40.796256 
L 35.743556 41.850309 
L 35.633198 42.904362 
L 35.533031 43.958415 
L 35.44169 45.012468 
L 35.358403 46.066521 
L 35.282879 47.120574 
L 35.215213 48.174628 
L 35.155774 49.228681 
L 35.105088 50.282734 
L 35.063697 51.336787 
L 35.032029 52.39084 
L 35.010251 53.444893 
L 34.998161 54.498947 
L 34.995103 55.553 
L 34.999936 56.607053 
L 35.011052 57.661106 
L 35.026456 58.715159 
L 35.043896 59.769212 
L 35.06103 60.823266 
L 35.075623 61.877319 
L 35.085731 62.931372 
L 35.089873 63.985425 
L 35.087148 65.039478 
L 35.077297 66.093531 
L 35.060694 67.147584 
L 35.038273 68.201638 
L 35.011407 69.255691 
L 34.981752 70.309744 
L 34.951079 71.363797 
L 34.921132 72.41785 
L 34.893497 73.471903 
L 34.86953 74.525957 
L 34.85031 75.58001 
L 34.836635 76.634063 
L 34.829032 77.688116 
L 34.827779 78.742169 
L 34.832919 79.796222 
L 34.844266 80.850276 
L 34.86139 81.904329 
L 34.883597 82.958382 
L 34.909912 84.012435 
L 34.939073 85.066488 
L 34.969555 86.120541 
L 34.999633 87.174594 
L 35.027481 88.228648 
L 35.051304 89.282701 
L 35.06949 90.336754 
L 35.080763 91.390807 
L 35.084306 92.44486 
L 35.079845 93.498913 
L 35.067673 94.552967 
L 35.048612 95.60702 
L 35.023917 96.661073 
L 34.995137 97.715126 
L 34.963954 98.769179 
L 34.932019 99.823232 
L 34.900816 100.877286 
L 34.871557 101.931339 
L 34.845124 102.985392 
L 34.822052 104.039445 
L 34.802557 105.093498 
L 34.786586 106.147551 
z
" clip-path="url(#pf671548161)" style="fill: #20415a; fill-opacity: 0.35"/>
   </g>
   <g id="PolyCollection_2">
    <path d="M 58.221808 147.717493 
L 55.898192 147.717493 
L 55.633826 146.055483 
L 55.327083 144.393473 
L 54.975685 142.731463 
L 54.578325 141.069453 
L 54.134911 139.407443 
L 53.64677 137.745433 
L 53.116824 136.083423 
L 52.549691 134.421413 
L 51.951718 132.759403 
L 51.330918 131.097393 
L 50.696808 129.435384 
L 50.060144 127.773374 
L 49.432566 126.111364 
L 48.826158 124.449354 
L 48.252956 122.787344 
L 47.724415 121.125334 
L 47.250887 119.463324 
L 46.841129 117.801314 
L 46.501885 116.139304 
L 46.237563 114.477294 
L 46.050038 112.815284 
L 45.938593 111.153274 
L 45.9 109.491264 
L 45.928741 107.829254 
L 46.017354 106.167244 
L 46.156869 104.505234 
L 46.337318 102.843224 
L 46.548276 101.181214 
L 46.779393 99.519204 
L 47.020888 97.857194 
L 47.263981 96.195184 
L 47.50122 94.533174 
L 47.726713 92.871164 
L 47.936237 91.209154 
L 48.12724 89.547144 
L 48.298742 87.885134 
L 48.451146 86.223125 
L 48.585993 84.561115 
L 48.705671 82.899105 
L 48.813114 81.237095 
L 48.911503 79.575085 
L 49.003998 77.913075 
L 49.093512 76.251065 
L 49.182531 74.589055 
L 49.273001 72.927045 
L 49.366261 71.265035 
L 49.463041 69.603025 
L 49.56349 67.941015 
L 49.667255 66.279005 
L 49.773575 64.616995 
L 49.881392 62.954985 
L 49.989469 61.292975 
L 50.096502 59.630965 
L 50.201224 57.968955 
L 50.302497 56.306945 
L 50.399392 54.644935 
L 50.491242 52.982925 
L 50.577696 51.320915 
L 50.658743 49.658905 
L 50.734734 47.996895 
L 50.806382 46.334885 
L 50.874754 44.672875 
L 50.941245 43.010866 
L 51.007546 41.348856 
L 51.07559 39.686846 
L 51.147489 38.024836 
L 51.225459 36.362826 
L 51.311731 34.700816 
L 51.408462 33.038806 
L 51.517632 31.376796 
L 51.640954 29.714786 
L 51.77978 28.052776 
L 51.935032 26.390766 
L 52.107134 24.728756 
L 52.295978 23.066746 
L 52.500908 21.404736 
L 52.72073 19.742726 
L 52.953744 18.080716 
L 53.197806 16.418706 
L 53.450401 14.756696 
L 53.70874 13.094686 
L 53.969861 11.432676 
L 54.230738 9.770666 
L 54.488389 8.108656 
L 54.739974 6.446646 
L 54.982886 4.784636 
L 55.214827 3.122626 
L 55.433861 1.460616 
L 55.638455 -0.201393 
L 55.827499 -1.863403 
L 56.000297 -3.525413 
L 56.156562 -5.187423 
L 56.296371 -6.849433 
L 56.420134 -8.511443 
L 56.528536 -10.173453 
L 56.622482 -11.835463 
L 56.703044 -13.497473 
L 56.771403 -15.159483 
L 56.828798 -16.821493 
L 57.291202 -16.821493 
L 57.291202 -16.821493 
L 57.348597 -15.159483 
L 57.416956 -13.497473 
L 57.497518 -11.835463 
L 57.591464 -10.173453 
L 57.699866 -8.511443 
L 57.823629 -6.849433 
L 57.963438 -5.187423 
L 58.119703 -3.525413 
L 58.292501 -1.863403 
L 58.481545 -0.201393 
L 58.686139 1.460616 
L 58.905173 3.122626 
L 59.137114 4.784636 
L 59.380026 6.446646 
L 59.631611 8.108656 
L 59.889262 9.770666 
L 60.150139 11.432676 
L 60.41126 13.094686 
L 60.669599 14.756696 
L 60.922194 16.418706 
L 61.166256 18.080716 
L 61.39927 19.742726 
L 61.619092 21.404736 
L 61.824022 23.066746 
L 62.012866 24.728756 
L 62.184968 26.390766 
L 62.34022 28.052776 
L 62.479046 29.714786 
L 62.602368 31.376796 
L 62.711538 33.038806 
L 62.808269 34.700816 
L 62.894541 36.362826 
L 62.972511 38.024836 
L 63.04441 39.686846 
L 63.112454 41.348856 
L 63.178755 43.010866 
L 63.245246 44.672875 
L 63.313618 46.334885 
L 63.385266 47.996895 
L 63.461257 49.658905 
L 63.542304 51.320915 
L 63.628758 52.982925 
L 63.720608 54.644935 
L 63.817503 56.306945 
L 63.918776 57.968955 
L 64.023498 59.630965 
L 64.130531 61.292975 
L 64.238608 62.954985 
L 64.346425 64.616995 
L 64.452745 66.279005 
L 64.55651 67.941015 
L 64.656959 69.603025 
L 64.753739 71.265035 
L 64.846999 72.927045 
L 64.937469 74.589055 
L 65.026488 76.251065 
L 65.116002 77.913075 
L 65.208497 79.575085 
L 65.306886 81.237095 
L 65.414329 82.899105 
L 65.534007 84.561115 
L 65.668854 86.223125 
L 65.821258 87.885134 
L 65.99276 89.547144 
L 66.183763 91.209154 
L 66.393287 92.871164 
L 66.61878 94.533174 
L 66.856019 96.195184 
L 67.099112 97.857194 
L 67.340607 99.519204 
L 67.571724 101.181214 
L 67.782682 102.843224 
L 67.963131 104.505234 
L 68.102646 106.167244 
L 68.191259 107.829254 
L 68.22 109.491264 
L 68.181407 111.153274 
L 68.069962 112.815284 
L 67.882437 114.477294 
L 67.618115 116.139304 
L 67.278871 117.801314 
L 66.869113 119.463324 
L 66.395585 121.125334 
L 65.867044 122.787344 
L 65.293842 124.449354 
L 64.687434 126.111364 
L 64.059856 127.773374 
L 63.423192 129.435384 
L 62.789082 131.097393 
L 62.168282 132.759403 
L 61.570309 134.421413 
L 61.003176 136.083423 
L 60.47323 137.745433 
L 59.985089 139.407443 
L 59.541675 141.069453 
L 59.144315 142.731463 
L 58.792917 144.393473 
L 58.486174 146.055483 
L 58.221808 147.717493 
z
" clip-path="url(#pf671548161)" style="fill: #c1613e; fill-opacity: 0.35"/>
   </g>
   <g id="PolyCollection_3">
    <path d="M 91.545186 140.387677 
L 89.534814 140.387677 
L 89.27063 138.974544 
L 88.956338 137.561412 
L 88.587991 136.148279 
L 88.162836 134.735146 
L 87.679721 133.322013 
L 87.139491 131.90888 
L 86.545324 130.495747 
L 85.902993 129.082614 
L 85.220997 127.669481 
L 84.510544 126.256349 
L 83.785358 124.843216 
L 83.061313 123.430083 
L 82.35588 122.01695 
L 81.687423 120.603817 
L 81.074379 119.190684 
L 80.534365 117.777551 
L 80.083281 116.364418 
L 79.734464 114.951286 
L 79.497966 113.538153 
L 79.38 112.12502 
L 79.382609 110.711887 
L 79.503573 109.298754 
L 79.736571 107.885621 
L 80.071572 106.472488 
L 80.495435 105.059355 
L 80.992665 103.646223 
L 81.546259 102.23309 
L 82.138595 100.819957 
L 82.752287 99.406824 
L 83.370953 97.993691 
L 83.979856 96.580558 
L 84.566376 95.167425 
L 85.12031 93.754292 
L 85.63398 92.34116 
L 86.102184 90.928027 
L 86.522002 89.514894 
L 86.89249 88.101761 
L 87.214315 86.688628 
L 87.489346 85.275495 
L 87.720269 83.862362 
L 87.910224 82.449229 
L 88.062515 81.036097 
L 88.180391 79.622964 
L 88.266912 78.209831 
L 88.32489 76.796698 
L 88.356904 75.383565 
L 88.36536 73.970432 
L 88.352595 72.557299 
L 88.320986 71.144166 
L 88.273058 69.731034 
L 88.211571 68.317901 
L 88.139569 66.904768 
L 88.06039 65.491635 
L 87.977631 64.078502 
L 87.895071 62.665369 
L 87.816559 61.252236 
L 87.745871 59.839103 
L 87.686561 58.425971 
L 87.641803 57.012838 
L 87.61425 55.599705 
L 87.605915 54.186572 
L 87.618081 52.773439 
L 87.651254 51.360306 
L 87.705154 49.947173 
L 87.778757 48.53404 
L 87.870365 47.120908 
L 87.977718 45.707775 
L 88.098131 44.294642 
L 88.228645 42.881509 
L 88.366184 41.468376 
L 88.507709 40.055243 
L 88.650359 38.64211 
L 88.791563 37.228977 
L 88.929136 35.815845 
L 89.061325 34.402712 
L 89.186843 32.989579 
L 89.304853 31.576446 
L 89.414937 30.163313 
L 89.517037 28.75018 
L 89.61138 27.337047 
L 89.698404 25.923914 
L 89.778674 24.510782 
L 89.852809 23.097649 
L 89.921419 21.684516 
L 89.98506 20.271383 
L 90.0442 18.85825 
L 90.099206 17.445117 
L 90.150339 16.031984 
L 90.197772 14.618851 
L 90.241603 13.205719 
L 90.281882 11.792586 
L 90.318636 10.379453 
L 90.351891 8.96632 
L 90.381691 7.553187 
L 90.408114 6.140054 
L 90.431277 4.726921 
L 90.451341 3.313788 
L 90.468504 1.900656 
L 90.482998 0.487523 
L 90.597002 0.487523 
L 90.597002 0.487523 
L 90.611496 1.900656 
L 90.628659 3.313788 
L 90.648723 4.726921 
L 90.671886 6.140054 
L 90.698309 7.553187 
L 90.728109 8.96632 
L 90.761364 10.379453 
L 90.798118 11.792586 
L 90.838397 13.205719 
L 90.882228 14.618851 
L 90.929661 16.031984 
L 90.980794 17.445117 
L 91.0358 18.85825 
L 91.09494 20.271383 
L 91.158581 21.684516 
L 91.227191 23.097649 
L 91.301326 24.510782 
L 91.381596 25.923914 
L 91.46862 27.337047 
L 91.562963 28.75018 
L 91.665063 30.163313 
L 91.775147 31.576446 
L 91.893157 32.989579 
L 92.018675 34.402712 
L 92.150864 35.815845 
L 92.288437 37.228977 
L 92.429641 38.64211 
L 92.572291 40.055243 
L 92.713816 41.468376 
L 92.851355 42.881509 
L 92.981869 44.294642 
L 93.102282 45.707775 
L 93.209635 47.120908 
L 93.301243 48.53404 
L 93.374846 49.947173 
L 93.428746 51.360306 
L 93.461919 52.773439 
L 93.474085 54.186572 
L 93.46575 55.599705 
L 93.438197 57.012838 
L 93.393439 58.425971 
L 93.334129 59.839103 
L 93.263441 61.252236 
L 93.184929 62.665369 
L 93.102369 64.078502 
L 93.01961 65.491635 
L 92.940431 66.904768 
L 92.868429 68.317901 
L 92.806942 69.731034 
L 92.759014 71.144166 
L 92.727405 72.557299 
L 92.71464 73.970432 
L 92.723096 75.383565 
L 92.75511 76.796698 
L 92.813088 78.209831 
L 92.899609 79.622964 
L 93.017485 81.036097 
L 93.169776 82.449229 
L 93.359731 83.862362 
L 93.590654 85.275495 
L 93.865685 86.688628 
L 94.18751 88.101761 
L 94.557998 89.514894 
L 94.977816 90.928027 
L 95.44602 92.34116 
L 95.95969 93.754292 
L 96.513624 95.167425 
L 97.100144 96.580558 
L 97.709047 97.993691 
L 98.327713 99.406824 
L 98.941405 100.819957 
L 99.533741 102.23309 
L 100.087335 103.646223 
L 100.584565 105.059355 
L 101.008428 106.472488 
L 101.343429 107.885621 
L 101.576427 109.298754 
L 101.697391 110.711887 
L 101.7 112.12502 
L 101.582034 113.538153 
L 101.345536 114.951286 
L 100.996719 116.364418 
L 100.545635 117.777551 
L 100.005621 119.190684 
L 99.392577 120.603817 
L 98.72412 122.01695 
L 98.018687 123.430083 
L 97.294642 124.843216 
L 96.569456 126.256349 
L 95.859003 127.669481 
L 95.177007 129.082614 
L 94.534676 130.495747 
L 93.940509 131.90888 
L 93.400279 133.322013 
L 92.917164 134.735146 
L 92.492009 136.148279 
L 92.123662 137.561412 
L 91.80937 138.974544 
L 91.545186 140.387677 
z
" clip-path="url(#pf671548161)" style="fill: #20415a; fill-opacity: 0.35"/>
   </g>
   <g id="PolyCollection_4">
    <path d="M 112.923039 133.907377 
L 112.796961 133.907377 
L 112.780591 132.463879 
L 112.761276 131.020381 
L 112.738846 129.576884 
L 112.713204 128.133386 
L 112.684341 126.689888 
L 112.65234 125.246391 
L 112.617368 123.802893 
L 112.579662 122.359395 
L 112.539497 120.915897 
L 112.497149 119.4724 
L 112.452835 118.028902 
L 112.406664 116.585404 
L 112.358573 115.141907 
L 112.308281 113.698409 
L 112.255242 112.254911 
L 112.198639 110.811413 
L 112.137383 109.367916 
L 112.070166 107.924418 
L 111.99553 106.48092 
L 111.911976 105.037423 
L 111.8181 103.593925 
L 111.71274 102.150427 
L 111.595139 100.706929 
L 111.465086 99.263432 
L 111.323042 97.819934 
L 111.17023 96.376436 
L 111.008668 94.932939 
L 110.841151 93.489441 
L 110.671166 92.045943 
L 110.502749 90.602445 
L 110.340291 89.158948 
L 110.188298 87.71545 
L 110.051123 86.271952 
L 109.932698 84.828455 
L 109.836274 83.384957 
L 109.764189 81.941459 
L 109.717689 80.497961 
L 109.696811 79.054464 
L 109.700336 77.610966 
L 109.725811 76.167468 
L 109.769647 74.723971 
L 109.827285 73.280473 
L 109.893401 71.836975 
L 109.962163 70.393477 
L 110.027493 68.94998 
L 110.083344 67.506482 
L 110.12395 66.062984 
L 110.144055 64.619487 
L 110.139089 63.175989 
L 110.105308 61.732491 
L 110.039865 60.288993 
L 109.940833 58.845496 
L 109.807177 57.401998 
L 109.638676 55.9585 
L 109.435816 54.515003 
L 109.19966 53.071505 
L 108.9317 51.628007 
L 108.633727 50.184509 
L 108.307711 48.741012 
L 107.955721 47.297514 
L 107.579877 45.854016 
L 107.182368 44.410519 
L 106.765513 42.967021 
L 106.331876 41.523523 
L 105.884433 40.080025 
L 105.426759 38.636528 
L 104.963227 37.19303 
L 104.499198 35.749532 
L 104.041159 34.306035 
L 103.596794 32.862537 
L 103.174961 31.419039 
L 102.785548 29.975541 
L 102.43921 28.532044 
L 102.146981 27.088546 
L 101.919774 25.645048 
L 101.76781 24.201551 
L 101.7 22.758053 
L 101.723339 21.314555 
L 101.84236 19.871057 
L 102.058698 18.42756 
L 102.370816 16.984062 
L 102.77391 15.540564 
L 103.260022 14.097067 
L 103.818358 12.653569 
L 104.435783 11.210071 
L 105.097461 9.766573 
L 105.78759 8.323076 
L 106.490177 6.879578 
L 107.189788 5.43608 
L 107.872225 3.992583 
L 108.525081 2.549085 
L 109.13815 1.105587 
L 109.703662 -0.337911 
L 110.216353 -1.781408 
L 110.67339 -3.224906 
L 111.074151 -4.668404 
L 111.419928 -6.111901 
L 111.713553 -7.555399 
L 111.959006 -8.998897 
L 113.760994 -8.998897 
L 113.760994 -8.998897 
L 114.006447 -7.555399 
L 114.300072 -6.111901 
L 114.645849 -4.668404 
L 115.04661 -3.224906 
L 115.503647 -1.781408 
L 116.016338 -0.337911 
L 116.58185 1.105587 
L 117.194919 2.549085 
L 117.847775 3.992583 
L 118.530212 5.43608 
L 119.229823 6.879578 
L 119.93241 8.323076 
L 120.622539 9.766573 
L 121.284217 11.210071 
L 121.901642 12.653569 
L 122.459978 14.097067 
L 122.94609 15.540564 
L 123.349184 16.984062 
L 123.661302 18.42756 
L 123.87764 19.871057 
L 123.996661 21.314555 
L 124.02 22.758053 
L 123.95219 24.201551 
L 123.800226 25.645048 
L 123.573019 27.088546 
L 123.28079 28.532044 
L 122.934452 29.975541 
L 122.545039 31.419039 
L 122.123206 32.862537 
L 121.678841 34.306035 
L 121.220802 35.749532 
L 120.756773 37.19303 
L 120.293241 38.636528 
L 119.835567 40.080025 
L 119.388124 41.523523 
L 118.954487 42.967021 
L 118.537632 44.410519 
L 118.140123 45.854016 
L 117.764279 47.297514 
L 117.412289 48.741012 
L 117.086273 50.184509 
L 116.7883 51.628007 
L 116.52034 53.071505 
L 116.284184 54.515003 
L 116.081324 55.9585 
L 115.912823 57.401998 
L 115.779167 58.845496 
L 115.680135 60.288993 
L 115.614692 61.732491 
L 115.580911 63.175989 
L 115.575945 64.619487 
L 115.59605 66.062984 
L 115.636656 67.506482 
L 115.692507 68.94998 
L 115.757837 70.393477 
L 115.826599 71.836975 
L 115.892715 73.280473 
L 115.950353 74.723971 
L 115.994189 76.167468 
L 116.019664 77.610966 
L 116.023189 79.054464 
L 116.002311 80.497961 
L 115.955811 81.941459 
L 115.883726 83.384957 
L 115.787302 84.828455 
L 115.668877 86.271952 
L 115.531702 87.71545 
L 115.379709 89.158948 
L 115.217251 90.602445 
L 115.048834 92.045943 
L 114.878849 93.489441 
L 114.711332 94.932939 
L 114.54977 96.376436 
L 114.396958 97.819934 
L 114.254914 99.263432 
L 114.124861 100.706929 
L 114.00726 102.150427 
L 113.9019 103.593925 
L 113.808024 105.037423 
L 113.72447 106.48092 
L 113.649834 107.924418 
L 113.582617 109.367916 
L 113.521361 110.811413 
L 113.464758 112.254911 
L 113.411719 113.698409 
L 113.361427 115.141907 
L 113.313336 116.585404 
L 113.267165 118.028902 
L 113.222851 119.4724 
L 113.180503 120.915897 
L 113.140338 122.359395 
L 113.102632 123.802893 
L 113.06766 125.246391 
L 113.035659 126.689888 
L 113.006796 128.133386 
L 112.981154 129.576884 
L 112.958724 131.020381 
L 112.939409 132.463879 
L 112.923039 133.907377 
z
" clip-path="url(#pf671548161)" style="fill: #c1613e; fill-opacity: 0.35"/>
   </g>
   <g id="patch_3">
    <path d="M 23.58 115.344 
L 45.9 115.344 
L 45.9 23.340644 
L 23.58 23.340644 
L 23.58 115.344 
z
" clip-path="url(#pf671548161)" style="fill: none"/>
   </g>
   <g id="patch_4">
    <path d="M 79.38 115.344 
L 101.7 115.344 
L 101.7 96.018427 
L 79.38 96.018427 
L 79.38 115.344 
z
" clip-path="url(#pf671548161)" style="fill: none"/>
   </g>
   <g id="patch_5">
    <path d="M 45.9 115.344 
L 68.22 115.344 
L 68.22 80.027368 
L 45.9 80.027368 
L 45.9 115.344 
z
" clip-path="url(#pf671548161)" style="fill: none"/>
   </g>
   <g id="patch_6">
    <path d="M 101.7 115.344 
L 124.02 115.344 
L 124.02 37.749635 
L 101.7 37.749635 
L 101.7 115.344 
z
" clip-path="url(#pf671548161)" style="fill: none"/>
   </g>
   <g id="patch_7">
    <path d="M 45.9 115.344 
L 45.9 115.344 
L 45.9 115.344 
L 45.9 115.344 
z
" clip-path="url(#pf671548161)" style="fill: #3274a1"/>
   </g>
   <g id="patch_8">
    <path d="M 45.9 115.344 
L 45.9 115.344 
L 45.9 115.344 
L 45.9 115.344 
z
" clip-path="url(#pf671548161)" style="fill: #e1812c"/>
   </g>
   <g id="patch_9">
    <path d="M 23.58 115.344 
L 45.9 115.344 
L 45.9 23.340644 
L 23.58 23.340644 
z
" clip-path="url(#pf671548161)" style="fill: #20415a; opacity: 0.3; stroke: #000000; stroke-linejoin: miter"/>
   </g>
   <g id="patch_10">
    <path d="M 79.38 115.344 
L 101.7 115.344 
L 101.7 96.018427 
L 79.38 96.018427 
z
" clip-path="url(#pf671548161)" style="fill: #20415a; opacity: 0.3; stroke: #000000; stroke-linejoin: miter"/>
   </g>
   <g id="patch_11">
    <path d="M 45.9 115.344 
L 68.22 115.344 
L 68.22 80.027368 
L 45.9 80.027368 
z
" clip-path="url(#pf671548161)" style="fill: #c1613e; opacity: 0.3; stroke: #000000; stroke-linejoin: miter"/>
   </g>
   <g id="patch_12">
    <path d="M 101.7 115.344 
L 124.02 115.344 
L 124.02 37.749635 
L 101.7 37.749635 
z
" clip-path="url(#pf671548161)" style="fill: #c1613e; opacity: 0.3; stroke: #000000; stroke-linejoin: miter"/>
   </g>
   <g id="patch_13">
    <path d="M 45.9 115.344 
L 45.9 115.344 
L 45.9 115.344 
L 45.9 115.344 
z
" clip-path="url(#pf671548161)" style="fill: #20415a; opacity: 0.3; stroke: #000000; stroke-linejoin: miter"/>
   </g>
   <g id="patch_14">
    <path d="M 45.9 115.344 
L 45.9 115.344 
L 45.9 115.344 
L 45.9 115.344 
z
" clip-path="url(#pf671548161)" style="fill: #c1613e; opacity: 0.3; stroke: #000000; stroke-linejoin: miter"/>
   </g>
   <g id="matplotlib.axis_1">
    <g id="xtick_1">
     <g id="line2d_1">
      <defs>
       <path id="m99c650a80b" d="M 0 0 
L 0 3.5 
" style="stroke: #000000"/>
      </defs>
      <g>
       <use xlink:href="#m99c650a80b" x="45.9" y="115.344" style="stroke: #000000"/>
      </g>
     </g>
     <g id="text_1">
      <!-- unpunished -->
      <g transform="translate(20.045312 129.501812) scale(0.1 -0.1)">
       <defs>
        <path id="ArialMT-75" d="M 2597 0 
L 2597 488 
Q 2209 -75 1544 -75 
Q 1250 -75 995 37 
Q 741 150 617 320 
Q 494 491 444 738 
Q 409 903 409 1263 
L 409 3319 
L 972 3319 
L 972 1478 
Q 972 1038 1006 884 
Q 1059 663 1231 536 
Q 1403 409 1656 409 
Q 1909 409 2131 539 
Q 2353 669 2445 892 
Q 2538 1116 2538 1541 
L 2538 3319 
L 3100 3319 
L 3100 0 
L 2597 0 
z
" transform="scale(0.015625)"/>
        <path id="ArialMT-6e" d="M 422 0 
L 422 3319 
L 928 3319 
L 928 2847 
Q 1294 3394 1984 3394 
Q 2284 3394 2536 3286 
Q 2788 3178 2913 3003 
Q 3038 2828 3088 2588 
Q 3119 2431 3119 2041 
L 3119 0 
L 2556 0 
L 2556 2019 
Q 2556 2363 2490 2533 
Q 2425 2703 2258 2804 
Q 2091 2906 1866 2906 
Q 1506 2906 1245 2678 
Q 984 2450 984 1813 
L 984 0 
L 422 0 
z
" transform="scale(0.015625)"/>
        <path id="ArialMT-70" d="M 422 -1272 
L 422 3319 
L 934 3319 
L 934 2888 
Q 1116 3141 1344 3267 
Q 1572 3394 1897 3394 
Q 2322 3394 2647 3175 
Q 2972 2956 3137 2557 
Q 3303 2159 3303 1684 
Q 3303 1175 3120 767 
Q 2938 359 2589 142 
Q 2241 -75 1856 -75 
Q 1575 -75 1351 44 
Q 1128 163 984 344 
L 984 -1272 
L 422 -1272 
z
M 931 1641 
Q 931 1000 1190 694 
Q 1450 388 1819 388 
Q 2194 388 2461 705 
Q 2728 1022 2728 1688 
Q 2728 2322 2467 2637 
Q 2206 2953 1844 2953 
Q 1484 2953 1207 2617 
Q 931 2281 931 1641 
z
" transform="scale(0.015625)"/>
        <path id="ArialMT-69" d="M 425 3934 
L 425 4581 
L 988 4581 
L 988 3934 
L 425 3934 
z
M 425 0 
L 425 3319 
L 988 3319 
L 988 0 
L 425 0 
z
" transform="scale(0.015625)"/>
        <path id="ArialMT-73" d="M 197 991 
L 753 1078 
Q 800 744 1014 566 
Q 1228 388 1613 388 
Q 2000 388 2187 545 
Q 2375 703 2375 916 
Q 2375 1106 2209 1216 
Q 2094 1291 1634 1406 
Q 1016 1563 777 1677 
Q 538 1791 414 1992 
Q 291 2194 291 2438 
Q 291 2659 392 2848 
Q 494 3038 669 3163 
Q 800 3259 1026 3326 
Q 1253 3394 1513 3394 
Q 1903 3394 2198 3281 
Q 2494 3169 2634 2976 
Q 2775 2784 2828 2463 
L 2278 2388 
Q 2241 2644 2061 2787 
Q 1881 2931 1553 2931 
Q 1166 2931 1000 2803 
Q 834 2675 834 2503 
Q 834 2394 903 2306 
Q 972 2216 1119 2156 
Q 1203 2125 1616 2013 
Q 2213 1853 2448 1751 
Q 2684 1650 2818 1456 
Q 2953 1263 2953 975 
Q 2953 694 2789 445 
Q 2625 197 2315 61 
Q 2006 -75 1616 -75 
Q 969 -75 630 194 
Q 291 463 197 991 
z
" transform="scale(0.015625)"/>
        <path id="ArialMT-68" d="M 422 0 
L 422 4581 
L 984 4581 
L 984 2938 
Q 1378 3394 1978 3394 
Q 2347 3394 2619 3248 
Q 2891 3103 3008 2847 
Q 3125 2591 3125 2103 
L 3125 0 
L 2563 0 
L 2563 2103 
Q 2563 2525 2380 2717 
Q 2197 2909 1863 2909 
Q 1613 2909 1392 2779 
Q 1172 2650 1078 2428 
Q 984 2206 984 1816 
L 984 0 
L 422 0 
z
" transform="scale(0.015625)"/>
        <path id="ArialMT-65" d="M 2694 1069 
L 3275 997 
Q 3138 488 2766 206 
Q 2394 -75 1816 -75 
Q 1088 -75 661 373 
Q 234 822 234 1631 
Q 234 2469 665 2931 
Q 1097 3394 1784 3394 
Q 2450 3394 2872 2941 
Q 3294 2488 3294 1666 
Q 3294 1616 3291 1516 
L 816 1516 
Q 847 969 1125 678 
Q 1403 388 1819 388 
Q 2128 388 2347 550 
Q 2566 713 2694 1069 
z
M 847 1978 
L 2700 1978 
Q 2663 2397 2488 2606 
Q 2219 2931 1791 2931 
Q 1403 2931 1139 2672 
Q 875 2413 847 1978 
z
" transform="scale(0.015625)"/>
        <path id="ArialMT-64" d="M 2575 0 
L 2575 419 
Q 2259 -75 1647 -75 
Q 1250 -75 917 144 
Q 584 363 401 755 
Q 219 1147 219 1656 
Q 219 2153 384 2558 
Q 550 2963 881 3178 
Q 1213 3394 1622 3394 
Q 1922 3394 2156 3267 
Q 2391 3141 2538 2938 
L 2538 4581 
L 3097 4581 
L 3097 0 
L 2575 0 
z
M 797 1656 
Q 797 1019 1065 703 
Q 1334 388 1700 388 
Q 2069 388 2326 689 
Q 2584 991 2584 1609 
Q 2584 2291 2321 2609 
Q 2059 2928 1675 2928 
Q 1300 2928 1048 2622 
Q 797 2316 797 1656 
z
" transform="scale(0.015625)"/>
       </defs>
       <use xlink:href="#ArialMT-75"/>
       <use xlink:href="#ArialMT-6e" x="55.615234"/>
       <use xlink:href="#ArialMT-70" x="111.230469"/>
       <use xlink:href="#ArialMT-75" x="166.845703"/>
       <use xlink:href="#ArialMT-6e" x="222.460938"/>
       <use xlink:href="#ArialMT-69" x="278.076172"/>
       <use xlink:href="#ArialMT-73" x="300.292969"/>
       <use xlink:href="#ArialMT-68" x="350.292969"/>
       <use xlink:href="#ArialMT-65" x="405.908203"/>
       <use xlink:href="#ArialMT-64" x="461.523438"/>
      </g>
     </g>
    </g>
    <g id="xtick_2">
     <g id="line2d_2">
      <g>
       <use xlink:href="#m99c650a80b" x="101.7" y="115.344" style="stroke: #000000"/>
      </g>
     </g>
     <g id="text_2">
      <!-- punished -->
      <g transform="translate(81.40625 129.501812) scale(0.1 -0.1)">
       <use xlink:href="#ArialMT-70"/>
       <use xlink:href="#ArialMT-75" x="55.615234"/>
       <use xlink:href="#ArialMT-6e" x="111.230469"/>
       <use xlink:href="#ArialMT-69" x="166.845703"/>
       <use xlink:href="#ArialMT-73" x="189.0625"/>
       <use xlink:href="#ArialMT-68" x="239.0625"/>
       <use xlink:href="#ArialMT-65" x="294.677734"/>
       <use xlink:href="#ArialMT-64" x="350.292969"/>
      </g>
     </g>
    </g>
   </g>
   <g id="matplotlib.axis_2">
    <g id="ytick_1">
     <g id="line2d_3">
      <defs>
       <path id="m0bea00e13a" d="M 0 0 
L -3.5 0 
" style="stroke: #000000"/>
      </defs>
      <g>
       <use xlink:href="#m0bea00e13a" x="18" y="115.344" style="stroke: #000000"/>
      </g>
     </g>
     <g id="text_3">
      <!-- 0.00 -->
      <g transform="translate(-8.460938 118.922906) scale(0.1 -0.1)">
       <defs>
        <path id="ArialMT-30" d="M 266 2259 
Q 266 3072 433 3567 
Q 600 4063 929 4331 
Q 1259 4600 1759 4600 
Q 2128 4600 2406 4451 
Q 2684 4303 2865 4023 
Q 3047 3744 3150 3342 
Q 3253 2941 3253 2259 
Q 3253 1453 3087 958 
Q 2922 463 2592 192 
Q 2263 -78 1759 -78 
Q 1097 -78 719 397 
Q 266 969 266 2259 
z
M 844 2259 
Q 844 1131 1108 757 
Q 1372 384 1759 384 
Q 2147 384 2411 759 
Q 2675 1134 2675 2259 
Q 2675 3391 2411 3762 
Q 2147 4134 1753 4134 
Q 1366 4134 1134 3806 
Q 844 3388 844 2259 
z
" transform="scale(0.015625)"/>
        <path id="ArialMT-2e" d="M 581 0 
L 581 641 
L 1222 641 
L 1222 0 
L 581 0 
z
" transform="scale(0.015625)"/>
       </defs>
       <use xlink:href="#ArialMT-30"/>
       <use xlink:href="#ArialMT-2e" x="55.615234"/>
       <use xlink:href="#ArialMT-30" x="83.398438"/>
       <use xlink:href="#ArialMT-30" x="139.013672"/>
      </g>
     </g>
    </g>
    <g id="ytick_2">
     <g id="line2d_4">
      <g>
       <use xlink:href="#m0bea00e13a" x="18" y="90.396" style="stroke: #000000"/>
      </g>
     </g>
     <g id="text_4">
      <!-- 0.25 -->
      <g transform="translate(-8.460938 93.974906) scale(0.1 -0.1)">
       <defs>
        <path id="ArialMT-32" d="M 3222 541 
L 3222 0 
L 194 0 
Q 188 203 259 391 
Q 375 700 629 1000 
Q 884 1300 1366 1694 
Q 2113 2306 2375 2664 
Q 2638 3022 2638 3341 
Q 2638 3675 2398 3904 
Q 2159 4134 1775 4134 
Q 1369 4134 1125 3890 
Q 881 3647 878 3216 
L 300 3275 
Q 359 3922 746 4261 
Q 1134 4600 1788 4600 
Q 2447 4600 2831 4234 
Q 3216 3869 3216 3328 
Q 3216 3053 3103 2787 
Q 2991 2522 2730 2228 
Q 2469 1934 1863 1422 
Q 1356 997 1212 845 
Q 1069 694 975 541 
L 3222 541 
z
" transform="scale(0.015625)"/>
        <path id="ArialMT-35" d="M 266 1200 
L 856 1250 
Q 922 819 1161 601 
Q 1400 384 1738 384 
Q 2144 384 2425 690 
Q 2706 997 2706 1503 
Q 2706 1984 2436 2262 
Q 2166 2541 1728 2541 
Q 1456 2541 1237 2417 
Q 1019 2294 894 2097 
L 366 2166 
L 809 4519 
L 3088 4519 
L 3088 3981 
L 1259 3981 
L 1013 2750 
Q 1425 3038 1878 3038 
Q 2478 3038 2890 2622 
Q 3303 2206 3303 1553 
Q 3303 931 2941 478 
Q 2500 -78 1738 -78 
Q 1113 -78 717 272 
Q 322 622 266 1200 
z
" transform="scale(0.015625)"/>
       </defs>
       <use xlink:href="#ArialMT-30"/>
       <use xlink:href="#ArialMT-2e" x="55.615234"/>
       <use xlink:href="#ArialMT-32" x="83.398438"/>
       <use xlink:href="#ArialMT-35" x="139.013672"/>
      </g>
     </g>
    </g>
    <g id="ytick_3">
     <g id="line2d_5">
      <g>
       <use xlink:href="#m0bea00e13a" x="18" y="65.448" style="stroke: #000000"/>
      </g>
     </g>
     <g id="text_5">
      <!-- 0.50 -->
      <g transform="translate(-8.460938 69.026906) scale(0.1 -0.1)">
       <use xlink:href="#ArialMT-30"/>
       <use xlink:href="#ArialMT-2e" x="55.615234"/>
       <use xlink:href="#ArialMT-35" x="83.398438"/>
       <use xlink:href="#ArialMT-30" x="139.013672"/>
      </g>
     </g>
    </g>
    <g id="ytick_4">
     <g id="line2d_6">
      <g>
       <use xlink:href="#m0bea00e13a" x="18" y="40.5" style="stroke: #000000"/>
      </g>
     </g>
     <g id="text_6">
      <!-- 0.75 -->
      <g transform="translate(-8.460938 44.078906) scale(0.1 -0.1)">
       <defs>
        <path id="ArialMT-37" d="M 303 3981 
L 303 4522 
L 3269 4522 
L 3269 4084 
Q 2831 3619 2401 2847 
Q 1972 2075 1738 1259 
Q 1569 684 1522 0 
L 944 0 
Q 953 541 1156 1306 
Q 1359 2072 1739 2783 
Q 2119 3494 2547 3981 
L 303 3981 
z
" transform="scale(0.015625)"/>
       </defs>
       <use xlink:href="#ArialMT-30"/>
       <use xlink:href="#ArialMT-2e" x="55.615234"/>
       <use xlink:href="#ArialMT-37" x="83.398438"/>
       <use xlink:href="#ArialMT-35" x="139.013672"/>
      </g>
     </g>
    </g>
    <g id="ytick_5">
     <g id="line2d_7">
      <g>
       <use xlink:href="#m0bea00e13a" x="18" y="15.552" style="stroke: #000000"/>
      </g>
     </g>
     <g id="text_7">
      <!-- 1.00 -->
      <g transform="translate(-8.460938 19.130906) scale(0.1 -0.1)">
       <defs>
        <path id="ArialMT-31" d="M 2384 0 
L 1822 0 
L 1822 3584 
Q 1619 3391 1289 3197 
Q 959 3003 697 2906 
L 697 3450 
Q 1169 3672 1522 3987 
Q 1875 4303 2022 4600 
L 2384 4600 
L 2384 0 
z
" transform="scale(0.015625)"/>
       </defs>
       <use xlink:href="#ArialMT-31"/>
       <use xlink:href="#ArialMT-2e" x="55.615234"/>
       <use xlink:href="#ArialMT-30" x="83.398438"/>
       <use xlink:href="#ArialMT-30" x="139.013672"/>
      </g>
     </g>
    </g>
    <g id="text_8">
     <!-- stay probability -->
     <g transform="translate(-14.565625 98.795656) rotate(-90) scale(0.1 -0.1)">
      <defs>
       <path id="ArialMT-74" d="M 1650 503 
L 1731 6 
Q 1494 -44 1306 -44 
Q 1000 -44 831 53 
Q 663 150 594 308 
Q 525 466 525 972 
L 525 2881 
L 113 2881 
L 113 3319 
L 525 3319 
L 525 4141 
L 1084 4478 
L 1084 3319 
L 1650 3319 
L 1650 2881 
L 1084 2881 
L 1084 941 
Q 1084 700 1114 631 
Q 1144 563 1211 522 
Q 1278 481 1403 481 
Q 1497 481 1650 503 
z
" transform="scale(0.015625)"/>
       <path id="ArialMT-61" d="M 2588 409 
Q 2275 144 1986 34 
Q 1697 -75 1366 -75 
Q 819 -75 525 192 
Q 231 459 231 875 
Q 231 1119 342 1320 
Q 453 1522 633 1644 
Q 813 1766 1038 1828 
Q 1203 1872 1538 1913 
Q 2219 1994 2541 2106 
Q 2544 2222 2544 2253 
Q 2544 2597 2384 2738 
Q 2169 2928 1744 2928 
Q 1347 2928 1158 2789 
Q 969 2650 878 2297 
L 328 2372 
Q 403 2725 575 2942 
Q 747 3159 1072 3276 
Q 1397 3394 1825 3394 
Q 2250 3394 2515 3294 
Q 2781 3194 2906 3042 
Q 3031 2891 3081 2659 
Q 3109 2516 3109 2141 
L 3109 1391 
Q 3109 606 3145 398 
Q 3181 191 3288 0 
L 2700 0 
Q 2613 175 2588 409 
z
M 2541 1666 
Q 2234 1541 1622 1453 
Q 1275 1403 1131 1340 
Q 988 1278 909 1158 
Q 831 1038 831 891 
Q 831 666 1001 516 
Q 1172 366 1500 366 
Q 1825 366 2078 508 
Q 2331 650 2450 897 
Q 2541 1088 2541 1459 
L 2541 1666 
z
" transform="scale(0.015625)"/>
       <path id="ArialMT-79" d="M 397 -1278 
L 334 -750 
Q 519 -800 656 -800 
Q 844 -800 956 -737 
Q 1069 -675 1141 -563 
Q 1194 -478 1313 -144 
Q 1328 -97 1363 -6 
L 103 3319 
L 709 3319 
L 1400 1397 
Q 1534 1031 1641 628 
Q 1738 1016 1872 1384 
L 2581 3319 
L 3144 3319 
L 1881 -56 
Q 1678 -603 1566 -809 
Q 1416 -1088 1222 -1217 
Q 1028 -1347 759 -1347 
Q 597 -1347 397 -1278 
z
" transform="scale(0.015625)"/>
       <path id="ArialMT-20" transform="scale(0.015625)"/>
       <path id="ArialMT-72" d="M 416 0 
L 416 3319 
L 922 3319 
L 922 2816 
Q 1116 3169 1280 3281 
Q 1444 3394 1641 3394 
Q 1925 3394 2219 3213 
L 2025 2691 
Q 1819 2813 1613 2813 
Q 1428 2813 1281 2702 
Q 1134 2591 1072 2394 
Q 978 2094 978 1738 
L 978 0 
L 416 0 
z
" transform="scale(0.015625)"/>
       <path id="ArialMT-6f" d="M 213 1659 
Q 213 2581 725 3025 
Q 1153 3394 1769 3394 
Q 2453 3394 2887 2945 
Q 3322 2497 3322 1706 
Q 3322 1066 3130 698 
Q 2938 331 2570 128 
Q 2203 -75 1769 -75 
Q 1072 -75 642 372 
Q 213 819 213 1659 
z
M 791 1659 
Q 791 1022 1069 705 
Q 1347 388 1769 388 
Q 2188 388 2466 706 
Q 2744 1025 2744 1678 
Q 2744 2294 2464 2611 
Q 2184 2928 1769 2928 
Q 1347 2928 1069 2612 
Q 791 2297 791 1659 
z
" transform="scale(0.015625)"/>
       <path id="ArialMT-62" d="M 941 0 
L 419 0 
L 419 4581 
L 981 4581 
L 981 2947 
Q 1338 3394 1891 3394 
Q 2197 3394 2470 3270 
Q 2744 3147 2920 2923 
Q 3097 2700 3197 2384 
Q 3297 2069 3297 1709 
Q 3297 856 2875 390 
Q 2453 -75 1863 -75 
Q 1275 -75 941 416 
L 941 0 
z
M 934 1684 
Q 934 1088 1097 822 
Q 1363 388 1816 388 
Q 2184 388 2453 708 
Q 2722 1028 2722 1663 
Q 2722 2313 2464 2622 
Q 2206 2931 1841 2931 
Q 1472 2931 1203 2611 
Q 934 2291 934 1684 
z
" transform="scale(0.015625)"/>
       <path id="ArialMT-6c" d="M 409 0 
L 409 4581 
L 972 4581 
L 972 0 
L 409 0 
z
" transform="scale(0.015625)"/>
      </defs>
      <use xlink:href="#ArialMT-73"/>
      <use xlink:href="#ArialMT-74" x="50"/>
      <use xlink:href="#ArialMT-61" x="77.783203"/>
      <use xlink:href="#ArialMT-79" x="133.398438"/>
      <use xlink:href="#ArialMT-20" x="183.398438"/>
      <use xlink:href="#ArialMT-70" x="211.181641"/>
      <use xlink:href="#ArialMT-72" x="266.796875"/>
      <use xlink:href="#ArialMT-6f" x="300.097656"/>
      <use xlink:href="#ArialMT-62" x="355.712891"/>
      <use xlink:href="#ArialMT-61" x="411.328125"/>
      <use xlink:href="#ArialMT-62" x="466.943359"/>
      <use xlink:href="#ArialMT-69" x="522.558594"/>
      <use xlink:href="#ArialMT-6c" x="544.775391"/>
      <use xlink:href="#ArialMT-69" x="566.992188"/>
      <use xlink:href="#ArialMT-74" x="589.208984"/>
      <use xlink:href="#ArialMT-79" x="616.992188"/>
     </g>
    </g>
   </g>
   <g id="PathCollection_1">
    <defs>
     <path id="C0_0_c6a1a55033" d="M 0 3.5 
C 0.928211 3.5 1.81853 3.131218 2.474874 2.474874 
C 3.131218 1.81853 3.5 0.928211 3.5 -0 
C 3.5 -0.928211 3.131218 -1.81853 2.474874 -2.474874 
C 1.81853 -3.131218 0.928211 -3.5 0 -3.5 
C -0.928211 -3.5 -1.81853 -3.131218 -2.474874 -2.474874 
C -3.131218 -1.81853 -3.5 -0.928211 -3.5 0 
C -3.5 0.928211 -3.131218 1.81853 -2.474874 2.474874 
C -1.81853 3.131218 -0.928211 3.5 0 3.5 
z
"/>
    </defs>
    <g clip-path="url(#pf671548161)">
     <use xlink:href="#C0_0_c6a1a55033" x="36.104192" y="22.53744" style="fill: #174263; fill-opacity: 0.45"/>
    </g>
    <g clip-path="url(#pf671548161)">
     <use xlink:href="#C0_0_c6a1a55033" x="32.276879" y="20.5416" style="fill: #174263; fill-opacity: 0.45"/>
    </g>
    <g clip-path="url(#pf671548161)">
     <use xlink:href="#C0_0_c6a1a55033" x="35.561886" y="34.51248" style="fill: #174263; fill-opacity: 0.45"/>
    </g>
    <g clip-path="url(#pf671548161)">
     <use xlink:href="#C0_0_c6a1a55033" x="34.958228" y="17.54784" style="fill: #174263; fill-opacity: 0.45"/>
    </g>
    <g clip-path="url(#pf671548161)">
     <use xlink:href="#C0_0_c6a1a55033" x="35.761899" y="15.552" style="fill: #174263; fill-opacity: 0.45"/>
    </g>
    <g clip-path="url(#pf671548161)">
     <use xlink:href="#C0_0_c6a1a55033" x="37.499464" y="18.54576" style="fill: #174263; fill-opacity: 0.45"/>
    </g>
    <g clip-path="url(#pf671548161)">
     <use xlink:href="#C0_0_c6a1a55033" x="33.196014" y="15.552" style="fill: #174263; fill-opacity: 0.45"/>
    </g>
    <g clip-path="url(#pf671548161)">
     <use xlink:href="#C0_0_c6a1a55033" x="32.131799" y="36.50832" style="fill: #174263; fill-opacity: 0.45"/>
    </g>
    <g clip-path="url(#pf671548161)">
     <use xlink:href="#C0_0_c6a1a55033" x="36.410898" y="15.552" style="fill: #174263; fill-opacity: 0.45"/>
    </g>
    <g clip-path="url(#pf671548161)">
     <use xlink:href="#C0_0_c6a1a55033" x="35.828284" y="64.45008" style="fill: #174263; fill-opacity: 0.45"/>
    </g>
    <g clip-path="url(#pf671548161)">
     <use xlink:href="#C0_0_c6a1a55033" x="32.98174" y="17.54784" style="fill: #174263; fill-opacity: 0.45"/>
    </g>
    <g clip-path="url(#pf671548161)">
     <use xlink:href="#C0_0_c6a1a55033" x="33.881751" y="15.552" style="fill: #174263; fill-opacity: 0.45"/>
    </g>
    <g clip-path="url(#pf671548161)">
     <use xlink:href="#C0_0_c6a1a55033" x="34.021268" y="17.54784" style="fill: #174263; fill-opacity: 0.45"/>
    </g>
    <g clip-path="url(#pf671548161)">
     <use xlink:href="#C0_0_c6a1a55033" x="33.181789" y="17.54784" style="fill: #174263; fill-opacity: 0.45"/>
    </g>
    <g clip-path="url(#pf671548161)">
     <use xlink:href="#C0_0_c6a1a55033" x="37.378041" y="17.54784" style="fill: #174263; fill-opacity: 0.45"/>
    </g>
    <g clip-path="url(#pf671548161)">
     <use xlink:href="#C0_0_c6a1a55033" x="37.104498" y="27.52704" style="fill: #174263; fill-opacity: 0.45"/>
    </g>
    <g clip-path="url(#pf671548161)">
     <use xlink:href="#C0_0_c6a1a55033" x="37.446024" y="25.5312" style="fill: #174263; fill-opacity: 0.45"/>
    </g>
    <g clip-path="url(#pf671548161)">
     <use xlink:href="#C0_0_c6a1a55033" x="32.534808" y="17.54784" style="fill: #174263; fill-opacity: 0.45"/>
    </g>
    <g clip-path="url(#pf671548161)">
     <use xlink:href="#C0_0_c6a1a55033" x="34.153682" y="17.54784" style="fill: #174263; fill-opacity: 0.45"/>
    </g>
    <g clip-path="url(#pf671548161)">
     <use xlink:href="#C0_0_c6a1a55033" x="35.814111" y="24.53328" style="fill: #174263; fill-opacity: 0.45"/>
    </g>
    <g clip-path="url(#pf671548161)">
     <use xlink:href="#C0_0_c6a1a55033" x="36.28578" y="44.49168" style="fill: #174263; fill-opacity: 0.45"/>
    </g>
    <g clip-path="url(#pf671548161)">
     <use xlink:href="#C0_0_c6a1a55033" x="35.004586" y="21.53952" style="fill: #174263; fill-opacity: 0.45"/>
    </g>
    <g clip-path="url(#pf671548161)">
     <use xlink:href="#C0_0_c6a1a55033" x="34.52888" y="31.51872" style="fill: #174263; fill-opacity: 0.45"/>
    </g>
    <g clip-path="url(#pf671548161)">
     <use xlink:href="#C0_0_c6a1a55033" x="37.397402" y="92.39184" style="fill: #174263; fill-opacity: 0.45"/>
    </g>
    <g clip-path="url(#pf671548161)">
     <use xlink:href="#C0_0_c6a1a55033" x="35.086002" y="18.54576" style="fill: #174263; fill-opacity: 0.45"/>
    </g>
    <g clip-path="url(#pf671548161)">
     <use xlink:href="#C0_0_c6a1a55033" x="35.843538" y="15.552" style="fill: #174263; fill-opacity: 0.45"/>
    </g>
    <g clip-path="url(#pf671548161)">
     <use xlink:href="#C0_0_c6a1a55033" x="36.648429" y="17.54784" style="fill: #174263; fill-opacity: 0.45"/>
    </g>
    <g clip-path="url(#pf671548161)">
     <use xlink:href="#C0_0_c6a1a55033" x="37.333683" y="23.53536" style="fill: #174263; fill-opacity: 0.45"/>
    </g>
    <g clip-path="url(#pf671548161)">
     <use xlink:href="#C0_0_c6a1a55033" x="32.341713" y="19.54368" style="fill: #174263; fill-opacity: 0.45"/>
    </g>
    <g clip-path="url(#pf671548161)">
     <use xlink:href="#C0_0_c6a1a55033" x="36.87962" y="20.5416" style="fill: #174263; fill-opacity: 0.45"/>
    </g>
    <g clip-path="url(#pf671548161)">
     <use xlink:href="#C0_0_c6a1a55033" x="32.50647" y="15.552" style="fill: #174263; fill-opacity: 0.45"/>
    </g>
    <g clip-path="url(#pf671548161)">
     <use xlink:href="#C0_0_c6a1a55033" x="32.596793" y="20.5416" style="fill: #174263; fill-opacity: 0.45"/>
    </g>
    <g clip-path="url(#pf671548161)">
     <use xlink:href="#C0_0_c6a1a55033" x="33.295314" y="17.54784" style="fill: #174263; fill-opacity: 0.45"/>
    </g>
    <g clip-path="url(#pf671548161)">
     <use xlink:href="#C0_0_c6a1a55033" x="33.852165" y="15.552" style="fill: #174263; fill-opacity: 0.45"/>
    </g>
    <g clip-path="url(#pf671548161)">
     <use xlink:href="#C0_0_c6a1a55033" x="36.60031" y="15.552" style="fill: #174263; fill-opacity: 0.45"/>
    </g>
    <g clip-path="url(#pf671548161)">
     <use xlink:href="#C0_0_c6a1a55033" x="33.705124" y="18.54576" style="fill: #174263; fill-opacity: 0.45"/>
    </g>
    <g clip-path="url(#pf671548161)">
     <use xlink:href="#C0_0_c6a1a55033" x="37.451529" y="17.54784" style="fill: #174263; fill-opacity: 0.45"/>
    </g>
    <g clip-path="url(#pf671548161)">
     <use xlink:href="#C0_0_c6a1a55033" x="32.26235" y="19.54368" style="fill: #174263; fill-opacity: 0.45"/>
    </g>
    <g clip-path="url(#pf671548161)">
     <use xlink:href="#C0_0_c6a1a55033" x="36.494723" y="17.54784" style="fill: #174263; fill-opacity: 0.45"/>
    </g>
    <g clip-path="url(#pf671548161)">
     <use xlink:href="#C0_0_c6a1a55033" x="35.610077" y="15.552" style="fill: #174263; fill-opacity: 0.45"/>
    </g>
    <g clip-path="url(#pf671548161)">
     <use xlink:href="#C0_0_c6a1a55033" x="33.811987" y="18.54576" style="fill: #174263; fill-opacity: 0.45"/>
    </g>
   </g>
   <g id="PathCollection_2">
    <defs>
     <path id="C1_0_bff84d5959" d="M 0 3.5 
C 0.928211 3.5 1.81853 3.131218 2.474874 2.474874 
C 3.131218 1.81853 3.5 0.928211 3.5 -0 
C 3.5 -0.928211 3.131218 -1.81853 2.474874 -2.474874 
C 1.81853 -3.131218 0.928211 -3.5 0 -3.5 
C -0.928211 -3.5 -1.81853 -3.131218 -2.474874 -2.474874 
C -3.131218 -1.81853 -3.5 -0.928211 -3.5 0 
C -3.5 0.928211 -3.131218 1.81853 -2.474874 2.474874 
C -1.81853 3.131218 -0.928211 3.5 0 3.5 
z
"/>
    </defs>
    <g clip-path="url(#pf671548161)">
     <use xlink:href="#C1_0_bff84d5959" x="57.328503" y="48.48336" style="fill: #d75728; fill-opacity: 0.45"/>
    </g>
    <g clip-path="url(#pf671548161)">
     <use xlink:href="#C1_0_bff84d5959" x="57.780614" y="15.552" style="fill: #d75728; fill-opacity: 0.45"/>
    </g>
    <g clip-path="url(#pf671548161)">
     <use xlink:href="#C1_0_bff84d5959" x="59.784479" y="40.5" style="fill: #d75728; fill-opacity: 0.45"/>
    </g>
    <g clip-path="url(#pf671548161)">
     <use xlink:href="#C1_0_bff84d5959" x="56.931386" y="86.40432" style="fill: #d75728; fill-opacity: 0.45"/>
    </g>
    <g clip-path="url(#pf671548161)">
     <use xlink:href="#C1_0_bff84d5959" x="55.367799" y="22.53744" style="fill: #d75728; fill-opacity: 0.45"/>
    </g>
    <g clip-path="url(#pf671548161)">
     <use xlink:href="#C1_0_bff84d5959" x="56.247098" y="15.552" style="fill: #d75728; fill-opacity: 0.45"/>
    </g>
    <g clip-path="url(#pf671548161)">
     <use xlink:href="#C1_0_bff84d5959" x="56.050057" y="115.344" style="fill: #d75728; fill-opacity: 0.45"/>
    </g>
    <g clip-path="url(#pf671548161)">
     <use xlink:href="#C1_0_bff84d5959" x="58.867043" y="58.46256" style="fill: #d75728; fill-opacity: 0.45"/>
    </g>
    <g clip-path="url(#pf671548161)">
     <use xlink:href="#C1_0_bff84d5959" x="59.809609" y="65.448" style="fill: #d75728; fill-opacity: 0.45"/>
    </g>
    <g clip-path="url(#pf671548161)">
     <use xlink:href="#C1_0_bff84d5959" x="58.712124" y="53.47296" style="fill: #d75728; fill-opacity: 0.45"/>
    </g>
    <g clip-path="url(#pf671548161)">
     <use xlink:href="#C1_0_bff84d5959" x="55.745422" y="28.52496" style="fill: #d75728; fill-opacity: 0.45"/>
    </g>
    <g clip-path="url(#pf671548161)">
     <use xlink:href="#C1_0_bff84d5959" x="57.187996" y="86.40432" style="fill: #d75728; fill-opacity: 0.45"/>
    </g>
    <g clip-path="url(#pf671548161)">
     <use xlink:href="#C1_0_bff84d5959" x="56.165221" y="115.344" style="fill: #d75728; fill-opacity: 0.45"/>
    </g>
    <g clip-path="url(#pf671548161)">
     <use xlink:href="#C1_0_bff84d5959" x="59.407812" y="115.344" style="fill: #d75728; fill-opacity: 0.45"/>
    </g>
    <g clip-path="url(#pf671548161)">
     <use xlink:href="#C1_0_bff84d5959" x="59.229226" y="115.344" style="fill: #d75728; fill-opacity: 0.45"/>
    </g>
    <g clip-path="url(#pf671548161)">
     <use xlink:href="#C1_0_bff84d5959" x="54.328956" y="50.4792" style="fill: #d75728; fill-opacity: 0.45"/>
    </g>
    <g clip-path="url(#pf671548161)">
     <use xlink:href="#C1_0_bff84d5959" x="55.420609" y="32.51664" style="fill: #d75728; fill-opacity: 0.45"/>
    </g>
    <g clip-path="url(#pf671548161)">
     <use xlink:href="#C1_0_bff84d5959" x="58.497496" y="79.41888" style="fill: #d75728; fill-opacity: 0.45"/>
    </g>
    <g clip-path="url(#pf671548161)">
     <use xlink:href="#C1_0_bff84d5959" x="58.928264" y="104.36688" style="fill: #d75728; fill-opacity: 0.45"/>
    </g>
    <g clip-path="url(#pf671548161)">
     <use xlink:href="#C1_0_bff84d5959" x="58.722104" y="102.37104" style="fill: #d75728; fill-opacity: 0.45"/>
    </g>
    <g clip-path="url(#pf671548161)">
     <use xlink:href="#C1_0_bff84d5959" x="56.712064" y="32.51664" style="fill: #d75728; fill-opacity: 0.45"/>
    </g>
    <g clip-path="url(#pf671548161)">
     <use xlink:href="#C1_0_bff84d5959" x="59.037468" y="86.40432" style="fill: #d75728; fill-opacity: 0.45"/>
    </g>
    <g clip-path="url(#pf671548161)">
     <use xlink:href="#C1_0_bff84d5959" x="58.754229" y="73.43136" style="fill: #d75728; fill-opacity: 0.45"/>
    </g>
    <g clip-path="url(#pf671548161)">
     <use xlink:href="#C1_0_bff84d5959" x="58.740447" y="56.46672" style="fill: #d75728; fill-opacity: 0.45"/>
    </g>
    <g clip-path="url(#pf671548161)">
     <use xlink:href="#C1_0_bff84d5959" x="55.398722" y="74.42928" style="fill: #d75728; fill-opacity: 0.45"/>
    </g>
    <g clip-path="url(#pf671548161)">
     <use xlink:href="#C1_0_bff84d5959" x="55.305473" y="115.344" style="fill: #d75728; fill-opacity: 0.45"/>
    </g>
    <g clip-path="url(#pf671548161)">
     <use xlink:href="#C1_0_bff84d5959" x="56.304662" y="28.52496" style="fill: #d75728; fill-opacity: 0.45"/>
    </g>
    <g clip-path="url(#pf671548161)">
     <use xlink:href="#C1_0_bff84d5959" x="58.144795" y="110.3544" style="fill: #d75728; fill-opacity: 0.45"/>
    </g>
    <g clip-path="url(#pf671548161)">
     <use xlink:href="#C1_0_bff84d5959" x="56.475865" y="115.344" style="fill: #d75728; fill-opacity: 0.45"/>
    </g>
    <g clip-path="url(#pf671548161)">
     <use xlink:href="#C1_0_bff84d5959" x="59.123958" y="74.42928" style="fill: #d75728; fill-opacity: 0.45"/>
    </g>
    <g clip-path="url(#pf671548161)">
     <use xlink:href="#C1_0_bff84d5959" x="54.516399" y="115.344" style="fill: #d75728; fill-opacity: 0.45"/>
    </g>
    <g clip-path="url(#pf671548161)">
     <use xlink:href="#C1_0_bff84d5959" x="59.348695" y="107.36064" style="fill: #d75728; fill-opacity: 0.45"/>
    </g>
    <g clip-path="url(#pf671548161)">
     <use xlink:href="#C1_0_bff84d5959" x="56.083016" y="115.344" style="fill: #d75728; fill-opacity: 0.45"/>
    </g>
    <g clip-path="url(#pf671548161)">
     <use xlink:href="#C1_0_bff84d5959" x="55.202378" y="73.43136" style="fill: #d75728; fill-opacity: 0.45"/>
    </g>
    <g clip-path="url(#pf671548161)">
     <use xlink:href="#C1_0_bff84d5959" x="58.123473" y="115.344" style="fill: #d75728; fill-opacity: 0.45"/>
    </g>
    <g clip-path="url(#pf671548161)">
     <use xlink:href="#C1_0_bff84d5959" x="56.058516" y="78.42096" style="fill: #d75728; fill-opacity: 0.45"/>
    </g>
    <g clip-path="url(#pf671548161)">
     <use xlink:href="#C1_0_bff84d5959" x="59.378743" y="115.344" style="fill: #d75728; fill-opacity: 0.45"/>
    </g>
    <g clip-path="url(#pf671548161)">
     <use xlink:href="#C1_0_bff84d5959" x="59.618537" y="115.344" style="fill: #d75728; fill-opacity: 0.45"/>
    </g>
    <g clip-path="url(#pf671548161)">
     <use xlink:href="#C1_0_bff84d5959" x="59.670578" y="115.344" style="fill: #d75728; fill-opacity: 0.45"/>
    </g>
    <g clip-path="url(#pf671548161)">
     <use xlink:href="#C1_0_bff84d5959" x="55.569336" y="95.3856" style="fill: #d75728; fill-opacity: 0.45"/>
    </g>
    <g clip-path="url(#pf671548161)">
     <use xlink:href="#C1_0_bff84d5959" x="55.705593" y="115.344" style="fill: #d75728; fill-opacity: 0.45"/>
    </g>
   </g>
   <g id="PathCollection_3">
    <defs>
     <path id="C2_0_0d87f18221" d="M 0 3.5 
C 0.928211 3.5 1.81853 3.131218 2.474874 2.474874 
C 3.131218 1.81853 3.5 0.928211 3.5 -0 
C 3.5 -0.928211 3.131218 -1.81853 2.474874 -2.474874 
C 1.81853 -3.131218 0.928211 -3.5 0 -3.5 
C -0.928211 -3.5 -1.81853 -3.131218 -2.474874 -2.474874 
C -3.131218 -1.81853 -3.5 -0.928211 -3.5 0 
C -3.5 0.928211 -3.131218 1.81853 -2.474874 2.474874 
C -1.81853 3.131218 -0.928211 3.5 0 3.5 
z
"/>
    </defs>
    <g clip-path="url(#pf671548161)">
     <use xlink:href="#C2_0_0d87f18221" x="92.768511" y="59.46048" style="fill: #174263; fill-opacity: 0.45"/>
    </g>
    <g clip-path="url(#pf671548161)">
     <use xlink:href="#C2_0_0d87f18221" x="92.117563" y="84.40848" style="fill: #174263; fill-opacity: 0.45"/>
    </g>
    <g clip-path="url(#pf671548161)">
     <use xlink:href="#C2_0_0d87f18221" x="90.158794" y="25.5312" style="fill: #174263; fill-opacity: 0.45"/>
    </g>
    <g clip-path="url(#pf671548161)">
     <use xlink:href="#C2_0_0d87f18221" x="93.22532" y="110.3544" style="fill: #174263; fill-opacity: 0.45"/>
    </g>
    <g clip-path="url(#pf671548161)">
     <use xlink:href="#C2_0_0d87f18221" x="91.6654" y="46.48752" style="fill: #174263; fill-opacity: 0.45"/>
    </g>
    <g clip-path="url(#pf671548161)">
     <use xlink:href="#C2_0_0d87f18221" x="91.334255" y="115.344" style="fill: #174263; fill-opacity: 0.45"/>
    </g>
    <g clip-path="url(#pf671548161)">
     <use xlink:href="#C2_0_0d87f18221" x="91.059768" y="115.344" style="fill: #174263; fill-opacity: 0.45"/>
    </g>
    <g clip-path="url(#pf671548161)">
     <use xlink:href="#C2_0_0d87f18221" x="88.366106" y="54.47088" style="fill: #174263; fill-opacity: 0.45"/>
    </g>
    <g clip-path="url(#pf671548161)">
     <use xlink:href="#C2_0_0d87f18221" x="88.862063" y="65.448" style="fill: #174263; fill-opacity: 0.45"/>
    </g>
    <g clip-path="url(#pf671548161)">
     <use xlink:href="#C2_0_0d87f18221" x="92.918631" y="52.47504" style="fill: #174263; fill-opacity: 0.45"/>
    </g>
    <g clip-path="url(#pf671548161)">
     <use xlink:href="#C2_0_0d87f18221" x="92.490849" y="82.41264" style="fill: #174263; fill-opacity: 0.45"/>
    </g>
    <g clip-path="url(#pf671548161)">
     <use xlink:href="#C2_0_0d87f18221" x="88.634761" y="57.46464" style="fill: #174263; fill-opacity: 0.45"/>
    </g>
    <g clip-path="url(#pf671548161)">
     <use xlink:href="#C2_0_0d87f18221" x="90.340628" y="108.35856" style="fill: #174263; fill-opacity: 0.45"/>
    </g>
    <g clip-path="url(#pf671548161)">
     <use xlink:href="#C2_0_0d87f18221" x="90.519998" y="115.344" style="fill: #174263; fill-opacity: 0.45"/>
    </g>
    <g clip-path="url(#pf671548161)">
     <use xlink:href="#C2_0_0d87f18221" x="91.69826" y="112.35024" style="fill: #174263; fill-opacity: 0.45"/>
    </g>
    <g clip-path="url(#pf671548161)">
     <use xlink:href="#C2_0_0d87f18221" x="91.207247" y="50.4792" style="fill: #174263; fill-opacity: 0.45"/>
    </g>
    <g clip-path="url(#pf671548161)">
     <use xlink:href="#C2_0_0d87f18221" x="88.801315" y="42.49584" style="fill: #174263; fill-opacity: 0.45"/>
    </g>
    <g clip-path="url(#pf671548161)">
     <use xlink:href="#C2_0_0d87f18221" x="92.848797" y="115.344" style="fill: #174263; fill-opacity: 0.45"/>
    </g>
    <g clip-path="url(#pf671548161)">
     <use xlink:href="#C2_0_0d87f18221" x="91.686222" y="115.344" style="fill: #174263; fill-opacity: 0.45"/>
    </g>
    <g clip-path="url(#pf671548161)">
     <use xlink:href="#C2_0_0d87f18221" x="90.924187" y="110.3544" style="fill: #174263; fill-opacity: 0.45"/>
    </g>
    <g clip-path="url(#pf671548161)">
     <use xlink:href="#C2_0_0d87f18221" x="91.108874" y="83.41056" style="fill: #174263; fill-opacity: 0.45"/>
    </g>
    <g clip-path="url(#pf671548161)">
     <use xlink:href="#C2_0_0d87f18221" x="90.299019" y="101.37312" style="fill: #174263; fill-opacity: 0.45"/>
    </g>
    <g clip-path="url(#pf671548161)">
     <use xlink:href="#C2_0_0d87f18221" x="91.451607" y="109.35648" style="fill: #174263; fill-opacity: 0.45"/>
    </g>
    <g clip-path="url(#pf671548161)">
     <use xlink:href="#C2_0_0d87f18221" x="91.812662" y="105.3648" style="fill: #174263; fill-opacity: 0.45"/>
    </g>
    <g clip-path="url(#pf671548161)">
     <use xlink:href="#C2_0_0d87f18221" x="92.050403" y="110.3544" style="fill: #174263; fill-opacity: 0.45"/>
    </g>
    <g clip-path="url(#pf671548161)">
     <use xlink:href="#C2_0_0d87f18221" x="92.023673" y="115.344" style="fill: #174263; fill-opacity: 0.45"/>
    </g>
    <g clip-path="url(#pf671548161)">
     <use xlink:href="#C2_0_0d87f18221" x="90.660262" y="99.37728" style="fill: #174263; fill-opacity: 0.45"/>
    </g>
    <g clip-path="url(#pf671548161)">
     <use xlink:href="#C2_0_0d87f18221" x="91.995237" y="115.344" style="fill: #174263; fill-opacity: 0.45"/>
    </g>
    <g clip-path="url(#pf671548161)">
     <use xlink:href="#C2_0_0d87f18221" x="90.825918" y="115.344" style="fill: #174263; fill-opacity: 0.45"/>
    </g>
    <g clip-path="url(#pf671548161)">
     <use xlink:href="#C2_0_0d87f18221" x="89.959683" y="115.344" style="fill: #174263; fill-opacity: 0.45"/>
    </g>
    <g clip-path="url(#pf671548161)">
     <use xlink:href="#C2_0_0d87f18221" x="89.389399" y="112.35024" style="fill: #174263; fill-opacity: 0.45"/>
    </g>
    <g clip-path="url(#pf671548161)">
     <use xlink:href="#C2_0_0d87f18221" x="91.272128" y="111.35232" style="fill: #174263; fill-opacity: 0.45"/>
    </g>
    <g clip-path="url(#pf671548161)">
     <use xlink:href="#C2_0_0d87f18221" x="88.463374" y="115.344" style="fill: #174263; fill-opacity: 0.45"/>
    </g>
    <g clip-path="url(#pf671548161)">
     <use xlink:href="#C2_0_0d87f18221" x="88.944087" y="107.36064" style="fill: #174263; fill-opacity: 0.45"/>
    </g>
    <g clip-path="url(#pf671548161)">
     <use xlink:href="#C2_0_0d87f18221" x="88.114442" y="115.344" style="fill: #174263; fill-opacity: 0.45"/>
    </g>
    <g clip-path="url(#pf671548161)">
     <use xlink:href="#C2_0_0d87f18221" x="91.200001" y="110.3544" style="fill: #174263; fill-opacity: 0.45"/>
    </g>
    <g clip-path="url(#pf671548161)">
     <use xlink:href="#C2_0_0d87f18221" x="90.923058" y="107.36064" style="fill: #174263; fill-opacity: 0.45"/>
    </g>
    <g clip-path="url(#pf671548161)">
     <use xlink:href="#C2_0_0d87f18221" x="88.093481" y="105.3648" style="fill: #174263; fill-opacity: 0.45"/>
    </g>
    <g clip-path="url(#pf671548161)">
     <use xlink:href="#C2_0_0d87f18221" x="88.355076" y="115.344" style="fill: #174263; fill-opacity: 0.45"/>
    </g>
    <g clip-path="url(#pf671548161)">
     <use xlink:href="#C2_0_0d87f18221" x="91.058386" y="111.35232" style="fill: #174263; fill-opacity: 0.45"/>
    </g>
    <g clip-path="url(#pf671548161)">
     <use xlink:href="#C2_0_0d87f18221" x="90.583741" y="115.344" style="fill: #174263; fill-opacity: 0.45"/>
    </g>
   </g>
   <g id="PathCollection_4">
    <defs>
     <path id="C3_0_85531f38c7" d="M 0 3.5 
C 0.928211 3.5 1.81853 3.131218 2.474874 2.474874 
C 3.131218 1.81853 3.5 0.928211 3.5 -0 
C 3.5 -0.928211 3.131218 -1.81853 2.474874 -2.474874 
C 1.81853 -3.131218 0.928211 -3.5 0 -3.5 
C -0.928211 -3.5 -1.81853 -3.131218 -2.474874 -2.474874 
C -3.131218 -1.81853 -3.5 -0.928211 -3.5 0 
C -3.5 0.928211 -3.131218 1.81853 -2.474874 2.474874 
C -1.81853 3.131218 -0.928211 3.5 0 3.5 
z
"/>
    </defs>
    <g clip-path="url(#pf671548161)">
     <use xlink:href="#C3_0_85531f38c7" x="110.665387" y="36.50832" style="fill: #d75728; fill-opacity: 0.45"/>
    </g>
    <g clip-path="url(#pf671548161)">
     <use xlink:href="#C3_0_85531f38c7" x="112.95123" y="85.4064" style="fill: #d75728; fill-opacity: 0.45"/>
    </g>
    <g clip-path="url(#pf671548161)">
     <use xlink:href="#C3_0_85531f38c7" x="111.930579" y="40.5" style="fill: #d75728; fill-opacity: 0.45"/>
    </g>
    <g clip-path="url(#pf671548161)">
     <use xlink:href="#C3_0_85531f38c7" x="111.575134" y="22.53744" style="fill: #d75728; fill-opacity: 0.45"/>
    </g>
    <g clip-path="url(#pf671548161)">
     <use xlink:href="#C3_0_85531f38c7" x="113.169035" y="29.52288" style="fill: #d75728; fill-opacity: 0.45"/>
    </g>
    <g clip-path="url(#pf671548161)">
     <use xlink:href="#C3_0_85531f38c7" x="111.185678" y="109.35648" style="fill: #d75728; fill-opacity: 0.45"/>
    </g>
    <g clip-path="url(#pf671548161)">
     <use xlink:href="#C3_0_85531f38c7" x="110.977188" y="22.53744" style="fill: #d75728; fill-opacity: 0.45"/>
    </g>
    <g clip-path="url(#pf671548161)">
     <use xlink:href="#C3_0_85531f38c7" x="110.101298" y="41.49792" style="fill: #d75728; fill-opacity: 0.45"/>
    </g>
    <g clip-path="url(#pf671548161)">
     <use xlink:href="#C3_0_85531f38c7" x="114.82882" y="36.50832" style="fill: #d75728; fill-opacity: 0.45"/>
    </g>
    <g clip-path="url(#pf671548161)">
     <use xlink:href="#C3_0_85531f38c7" x="110.426089" y="79.41888" style="fill: #d75728; fill-opacity: 0.45"/>
    </g>
    <g clip-path="url(#pf671548161)">
     <use xlink:href="#C3_0_85531f38c7" x="110.350073" y="58.46256" style="fill: #d75728; fill-opacity: 0.45"/>
    </g>
    <g clip-path="url(#pf671548161)">
     <use xlink:href="#C3_0_85531f38c7" x="110.569973" y="21.53952" style="fill: #d75728; fill-opacity: 0.45"/>
    </g>
    <g clip-path="url(#pf671548161)">
     <use xlink:href="#C3_0_85531f38c7" x="110.485786" y="15.552" style="fill: #d75728; fill-opacity: 0.45"/>
    </g>
    <g clip-path="url(#pf671548161)">
     <use xlink:href="#C3_0_85531f38c7" x="110.273363" y="15.552" style="fill: #d75728; fill-opacity: 0.45"/>
    </g>
    <g clip-path="url(#pf671548161)">
     <use xlink:href="#C3_0_85531f38c7" x="114.014748" y="15.552" style="fill: #d75728; fill-opacity: 0.45"/>
    </g>
    <g clip-path="url(#pf671548161)">
     <use xlink:href="#C3_0_85531f38c7" x="112.27934" y="26.52912" style="fill: #d75728; fill-opacity: 0.45"/>
    </g>
    <g clip-path="url(#pf671548161)">
     <use xlink:href="#C3_0_85531f38c7" x="113.755086" y="25.5312" style="fill: #d75728; fill-opacity: 0.45"/>
    </g>
    <g clip-path="url(#pf671548161)">
     <use xlink:href="#C3_0_85531f38c7" x="114.887919" y="23.53536" style="fill: #d75728; fill-opacity: 0.45"/>
    </g>
    <g clip-path="url(#pf671548161)">
     <use xlink:href="#C3_0_85531f38c7" x="112.599069" y="21.53952" style="fill: #d75728; fill-opacity: 0.45"/>
    </g>
    <g clip-path="url(#pf671548161)">
     <use xlink:href="#C3_0_85531f38c7" x="114.613483" y="32.51664" style="fill: #d75728; fill-opacity: 0.45"/>
    </g>
    <g clip-path="url(#pf671548161)">
     <use xlink:href="#C3_0_85531f38c7" x="112.014225" y="75.4272" style="fill: #d75728; fill-opacity: 0.45"/>
    </g>
    <g clip-path="url(#pf671548161)">
     <use xlink:href="#C3_0_85531f38c7" x="111.816047" y="84.40848" style="fill: #d75728; fill-opacity: 0.45"/>
    </g>
    <g clip-path="url(#pf671548161)">
     <use xlink:href="#C3_0_85531f38c7" x="114.184667" y="15.552" style="fill: #d75728; fill-opacity: 0.45"/>
    </g>
    <g clip-path="url(#pf671548161)">
     <use xlink:href="#C3_0_85531f38c7" x="111.773291" y="77.42304" style="fill: #d75728; fill-opacity: 0.45"/>
    </g>
    <g clip-path="url(#pf671548161)">
     <use xlink:href="#C3_0_85531f38c7" x="112.651243" y="48.48336" style="fill: #d75728; fill-opacity: 0.45"/>
    </g>
    <g clip-path="url(#pf671548161)">
     <use xlink:href="#C3_0_85531f38c7" x="114.860433" y="15.552" style="fill: #d75728; fill-opacity: 0.45"/>
    </g>
    <g clip-path="url(#pf671548161)">
     <use xlink:href="#C3_0_85531f38c7" x="114.983637" y="44.49168" style="fill: #d75728; fill-opacity: 0.45"/>
    </g>
    <g clip-path="url(#pf671548161)">
     <use xlink:href="#C3_0_85531f38c7" x="110.133284" y="35.5104" style="fill: #d75728; fill-opacity: 0.45"/>
    </g>
    <g clip-path="url(#pf671548161)">
     <use xlink:href="#C3_0_85531f38c7" x="113.997496" y="15.552" style="fill: #d75728; fill-opacity: 0.45"/>
    </g>
    <g clip-path="url(#pf671548161)">
     <use xlink:href="#C3_0_85531f38c7" x="110.516363" y="48.48336" style="fill: #d75728; fill-opacity: 0.45"/>
    </g>
    <g clip-path="url(#pf671548161)">
     <use xlink:href="#C3_0_85531f38c7" x="110.412729" y="15.552" style="fill: #d75728; fill-opacity: 0.45"/>
    </g>
    <g clip-path="url(#pf671548161)">
     <use xlink:href="#C3_0_85531f38c7" x="110.308438" y="15.552" style="fill: #d75728; fill-opacity: 0.45"/>
    </g>
    <g clip-path="url(#pf671548161)">
     <use xlink:href="#C3_0_85531f38c7" x="113.852553" y="20.5416" style="fill: #d75728; fill-opacity: 0.45"/>
    </g>
    <g clip-path="url(#pf671548161)">
     <use xlink:href="#C3_0_85531f38c7" x="113.156917" y="86.40432" style="fill: #d75728; fill-opacity: 0.45"/>
    </g>
    <g clip-path="url(#pf671548161)">
     <use xlink:href="#C3_0_85531f38c7" x="114.302122" y="24.53328" style="fill: #d75728; fill-opacity: 0.45"/>
    </g>
    <g clip-path="url(#pf671548161)">
     <use xlink:href="#C3_0_85531f38c7" x="114.283592" y="72.43344" style="fill: #d75728; fill-opacity: 0.45"/>
    </g>
    <g clip-path="url(#pf671548161)">
     <use xlink:href="#C3_0_85531f38c7" x="113.388723" y="15.552" style="fill: #d75728; fill-opacity: 0.45"/>
    </g>
    <g clip-path="url(#pf671548161)">
     <use xlink:href="#C3_0_85531f38c7" x="112.413707" y="15.552" style="fill: #d75728; fill-opacity: 0.45"/>
    </g>
    <g clip-path="url(#pf671548161)">
     <use xlink:href="#C3_0_85531f38c7" x="113.711999" y="15.552" style="fill: #d75728; fill-opacity: 0.45"/>
    </g>
    <g clip-path="url(#pf671548161)">
     <use xlink:href="#C3_0_85531f38c7" x="113.844582" y="15.552" style="fill: #d75728; fill-opacity: 0.45"/>
    </g>
    <g clip-path="url(#pf671548161)">
     <use xlink:href="#C3_0_85531f38c7" x="110.352287" y="29.52288" style="fill: #d75728; fill-opacity: 0.45"/>
    </g>
   </g>
   <g id="line2d_8">
    <path d="M 33.2055 25.598093 
L 36.2745 25.598093 
M 34.74 25.598093 
L 34.74 21.083195 
M 33.2055 21.083195 
L 36.2745 21.083195 
" clip-path="url(#pf671548161)" style="fill: none; stroke: #333333; stroke-width: 2.5; stroke-linecap: square"/>
   </g>
   <g id="line2d_9">
    <path d="M 89.0055 100.128343 
L 92.0745 100.128343 
M 90.54 100.128343 
L 90.54 91.908511 
M 89.0055 91.908511 
L 92.0745 91.908511 
" clip-path="url(#pf671548161)" style="fill: none; stroke: #333333; stroke-width: 2.5; stroke-linecap: square"/>
   </g>
   <g id="line2d_10">
    <path d="M 55.5255 85.340179 
L 58.5945 85.340179 
M 57.06 85.340179 
L 57.06 74.714556 
M 55.5255 74.714556 
L 58.5945 74.714556 
" clip-path="url(#pf671548161)" style="fill: none; stroke: #333333; stroke-width: 2.5; stroke-linecap: square"/>
   </g>
   <g id="line2d_11">
    <path d="M 111.3255 41.778681 
L 114.3945 41.778681 
M 112.86 41.778681 
L 112.86 33.720589 
M 111.3255 33.720589 
L 114.3945 33.720589 
" clip-path="url(#pf671548161)" style="fill: none; stroke: #333333; stroke-width: 2.5; stroke-linecap: square"/>
   </g>
   <g id="patch_15">
    <path d="M 18 115.344 
L 18 15.552 
" style="fill: none; stroke: #000000; stroke-linejoin: miter; stroke-linecap: square"/>
   </g>
   <g id="patch_16">
    <path d="M 18 115.344 
L 129.6 115.344 
" style="fill: none; stroke: #000000; stroke-linejoin: miter; stroke-linecap: square"/>
   </g>
   <g id="PathCollection_5">
    <defs>
     <path id="m866011a4c5" d="M 0 3 
C 0.795609 3 1.55874 2.683901 2.12132 2.12132 
C 2.683901 1.55874 3 0.795609 3 0 
C 3 -0.795609 2.683901 -1.55874 2.12132 -2.12132 
C 1.55874 -2.683901 0.795609 -3 0 -3 
C -0.795609 -3 -1.55874 -2.683901 -2.12132 -2.12132 
C -2.683901 -1.55874 -3 -0.795609 -3 0 
C -3 0.795609 -2.683901 1.55874 -2.12132 2.12132 
C -1.55874 2.683901 -0.795609 3 0 3 
z
"/>
    </defs>
    <g clip-path="url(#pf671548161)">
     <use xlink:href="#m866011a4c5" x="34.74" y="23.340644" style="fill: #333333"/>
    </g>
   </g>
   <g id="PathCollection_6">
    <g clip-path="url(#pf671548161)">
     <use xlink:href="#m866011a4c5" x="57.06" y="80.027368" style="fill: #333333"/>
    </g>
   </g>
   <g id="PathCollection_7">
    <g clip-path="url(#pf671548161)">
     <use xlink:href="#m866011a4c5" x="90.54" y="96.018427" style="fill: #333333"/>
    </g>
   </g>
   <g id="PathCollection_8">
    <g clip-path="url(#pf671548161)">
     <use xlink:href="#m866011a4c5" x="112.86" y="37.749635" style="fill: #333333"/>
    </g>
   </g>
   <g id="line2d_12"/>
   <g id="line2d_13"/>
  </g>
 </g>
 <defs>
  <clipPath id="pf671548161">
   <rect x="18" y="15.552" width="111.6" height="99.792"/>
  </clipPath>
 </defs>
</svg>
