<?xml version="1.0" encoding="utf-8" standalone="no"?>
<!DOCTYPE svg PUBLIC "-//W3C//DTD SVG 1.1//EN"
  "http://www.w3.org/Graphics/SVG/1.1/DTD/svg11.dtd">
<svg xmlns:xlink="http://www.w3.org/1999/xlink" width="144pt" height="129.6pt" viewBox="0 0 144 129.6" xmlns="http://www.w3.org/2000/svg" version="1.1">
 <metadata>
  <rdf:RDF xmlns:dc="http://purl.org/dc/elements/1.1/" xmlns:cc="http://creativecommons.org/ns#" xmlns:rdf="http://www.w3.org/1999/02/22-rdf-syntax-ns#">
   <cc:Work>
    <dc:type rdf:resource="http://purl.org/dc/dcmitype/StillImage"/>
    <dc:date>2025-04-14T00:19:47.579359</dc:date>
    <dc:format>image/svg+xml</dc:format>
    <dc:creator>
     <cc:Agent>
      <dc:title>Matplotlib v3.7.1, https://matplotlib.org/</dc:title>
     </cc:Agent>
    </dc:creator>
   </cc:Work>
  </rdf:RDF>
 </metadata>
 <defs>
  <style type="text/css">*{stroke-linejoin: round; stroke-linecap: butt}</style>
 </defs>
 <g id="figure_1">
  <g id="patch_1">
   <path d="M 0 129.6 
L 144 129.6 
L 144 0 
L 0 0 
L 0 129.6 
z
" style="fill: none"/>
  </g>
  <g id="axes_1">
   <g id="patch_2">
    <path d="M 18 115.344 
L 129.6 115.344 
L 129.6 15.552 
L 18 15.552 
L 18 115.344 
z
" style="fill: none"/>
   </g>
   <g id="PolyCollection_1">
    <path d="M 34.783291 92.717193 
L 34.696709 92.717193 
L 34.679887 91.83366 
L 34.658949 90.950128 
L 34.633884 90.066595 
L 34.605095 89.183062 
L 34.573464 88.299529 
L 34.540375 87.415996 
L 34.507645 86.532464 
L 34.477386 85.648931 
L 34.451789 84.765398 
L 34.432862 83.881865 
L 34.422177 82.998333 
L 34.420651 82.1148 
L 34.428416 81.231267 
L 34.444802 80.347734 
L 34.468431 79.464201 
L 34.497408 78.580669 
L 34.529574 77.697136 
L 34.562763 76.813603 
L 34.595044 75.93007 
L 34.624881 75.046537 
L 34.651226 74.163005 
L 34.673526 73.279472 
L 34.691666 72.395939 
L 34.705875 71.512406 
L 34.716604 70.628873 
L 34.724425 69.745341 
L 34.729932 68.861808 
L 34.733681 67.978275 
L 34.736148 67.094742 
L 34.73772 66.211209 
L 34.73869 65.327677 
L 34.739269 64.444144 
L 34.739604 63.560611 
L 34.739792 62.677078 
L 34.739893 61.793545 
L 34.739947 60.910013 
L 34.739974 60.02648 
L 34.739987 59.142947 
L 34.739991 58.259414 
L 34.739989 57.375882 
L 34.739981 56.492349 
L 34.739961 55.608816 
L 34.73992 54.725283 
L 34.739839 53.84175 
L 34.739684 52.958218 
L 34.739398 52.074685 
L 34.738884 51.191152 
L 34.737989 50.307619 
L 34.736478 49.424086 
L 34.734004 48.540554 
L 34.730075 47.657021 
L 34.724025 46.773488 
L 34.714994 45.889955 
L 34.701925 45.006422 
L 34.683598 44.12289 
L 34.65869 43.239357 
L 34.625888 42.355824 
L 34.584035 41.472291 
L 34.532287 40.588758 
L 34.470269 39.705226 
L 34.398169 38.821693 
L 34.316737 37.93816 
L 34.227144 37.054627 
L 34.130664 36.171095 
L 34.028188 35.287562 
L 33.919585 34.404029 
L 33.802971 33.520496 
L 33.673995 32.636963 
L 33.525245 31.753431 
L 33.345939 30.869898 
L 33.122036 29.986365 
L 32.836918 29.102832 
L 32.47273 28.219299 
L 32.01241 27.335767 
L 31.442333 26.452234 
L 30.755334 25.568701 
L 29.95377 24.685168 
L 29.052087 23.801635 
L 28.07836 22.918103 
L 27.074251 22.03457 
L 26.093017 21.151037 
L 25.195489 20.267504 
L 24.444318 19.383971 
L 23.897151 18.500439 
L 23.599724 17.616906 
L 23.58 16.733373 
L 23.844347 15.84984 
L 24.376487 14.966307 
L 25.139418 14.082775 
L 26.080002 13.199242 
L 27.135401 12.315709 
L 28.240298 11.432176 
L 29.333721 10.548644 
L 30.364497 9.665111 
L 31.29472 8.781578 
L 32.101027 7.898045 
L 32.773879 7.014512 
L 33.31536 6.13098 
L 33.736131 5.247447 
L 35.743869 5.247447 
L 35.743869 5.247447 
L 36.16464 6.13098 
L 36.706121 7.014512 
L 37.378973 7.898045 
L 38.18528 8.781578 
L 39.115503 9.665111 
L 40.146279 10.548644 
L 41.239702 11.432176 
L 42.344599 12.315709 
L 43.399998 13.199242 
L 44.340582 14.082775 
L 45.103513 14.966307 
L 45.635653 15.84984 
L 45.9 16.733373 
L 45.880276 17.616906 
L 45.582849 18.500439 
L 45.035682 19.383971 
L 44.284511 20.267504 
L 43.386983 21.151037 
L 42.405749 22.03457 
L 41.40164 22.918103 
L 40.427913 23.801635 
L 39.52623 24.685168 
L 38.724666 25.568701 
L 38.037667 26.452234 
L 37.46759 27.335767 
L 37.00727 28.219299 
L 36.643082 29.102832 
L 36.357964 29.986365 
L 36.134061 30.869898 
L 35.954755 31.753431 
L 35.806005 32.636963 
L 35.677029 33.520496 
L 35.560415 34.404029 
L 35.451812 35.287562 
L 35.349336 36.171095 
L 35.252856 37.054627 
L 35.163263 37.93816 
L 35.081831 38.821693 
L 35.009731 39.705226 
L 34.947713 40.588758 
L 34.895965 41.472291 
L 34.854112 42.355824 
L 34.82131 43.239357 
L 34.796402 44.12289 
L 34.778075 45.006422 
L 34.765006 45.889955 
L 34.755975 46.773488 
L 34.749925 47.657021 
L 34.745996 48.540554 
L 34.743522 49.424086 
L 34.742011 50.307619 
L 34.741116 51.191152 
L 34.740602 52.074685 
L 34.740316 52.958218 
L 34.740161 53.84175 
L 34.74008 54.725283 
L 34.740039 55.608816 
L 34.740019 56.492349 
L 34.740011 57.375882 
L 34.740009 58.259414 
L 34.740013 59.142947 
L 34.740026 60.02648 
L 34.740053 60.910013 
L 34.740107 61.793545 
L 34.740208 62.677078 
L 34.740396 63.560611 
L 34.740731 64.444144 
L 34.74131 65.327677 
L 34.74228 66.211209 
L 34.743852 67.094742 
L 34.746319 67.978275 
L 34.750068 68.861808 
L 34.755575 69.745341 
L 34.763396 70.628873 
L 34.774125 71.512406 
L 34.788334 72.395939 
L 34.806474 73.279472 
L 34.828774 74.163005 
L 34.855119 75.046537 
L 34.884956 75.93007 
L 34.917237 76.813603 
L 34.950426 77.697136 
L 34.982592 78.580669 
L 35.011569 79.464201 
L 35.035198 80.347734 
L 35.051584 81.231267 
L 35.059349 82.1148 
L 35.057823 82.998333 
L 35.047138 83.881865 
L 35.028211 84.765398 
L 35.002614 85.648931 
L 34.972355 86.532464 
L 34.939625 87.415996 
L 34.906536 88.299529 
L 34.874905 89.183062 
L 34.846116 90.066595 
L 34.821051 90.950128 
L 34.800113 91.83366 
L 34.783291 92.717193 
z
" clip-path="url(#pf39b2b7a39)" style="fill: #20415a; fill-opacity: 0.35"/>
   </g>
   <g id="PolyCollection_2">
    <path d="M 58.236675 146.570721 
L 55.883325 146.570721 
L 55.608867 144.931878 
L 55.289331 143.293035 
L 54.922227 141.654192 
L 54.506147 140.015349 
L 54.041038 138.376506 
L 53.52844 136.737664 
L 52.971685 135.098821 
L 52.376017 133.459978 
L 51.748633 131.821135 
L 51.098608 130.182292 
L 50.436721 128.543449 
L 49.775156 126.904607 
L 49.127104 125.265764 
L 48.506277 123.626921 
L 47.926356 121.988078 
L 47.400408 120.349235 
L 46.940311 118.710392 
L 46.556214 117.07155 
L 46.256083 115.432707 
L 46.045352 113.793864 
L 45.926704 112.155021 
L 45.9 110.516178 
L 45.962357 108.877335 
L 46.108362 107.238492 
L 46.330414 105.59965 
L 46.619154 103.960807 
L 46.963967 102.321964 
L 47.353507 100.683121 
L 47.776225 99.044278 
L 48.220855 97.405435 
L 48.676843 95.766593 
L 49.13469 94.12775 
L 49.58621 92.488907 
L 50.024682 90.850064 
L 50.444913 89.211221 
L 50.843204 87.572378 
L 51.217253 85.933536 
L 51.565988 84.294693 
L 51.889363 82.65585 
L 52.18812 81.017007 
L 52.463556 79.378164 
L 52.717286 77.739321 
L 52.951026 76.100478 
L 53.166413 74.461636 
L 53.364857 72.822793 
L 53.547444 71.18395 
L 53.714872 69.545107 
L 53.867448 67.906264 
L 54.00511 66.267421 
L 54.127502 64.628579 
L 54.234057 62.989736 
L 54.32412 61.350893 
L 54.397066 59.71205 
L 54.452422 58.073207 
L 54.489981 56.434364 
L 54.509901 54.795522 
L 54.512771 53.156679 
L 54.499658 51.517836 
L 54.472123 49.878993 
L 54.432199 48.24015 
L 54.382355 46.601307 
L 54.325417 44.962464 
L 54.264486 43.323622 
L 54.202832 41.684779 
L 54.14378 40.045936 
L 54.090596 38.407093 
L 54.046376 36.76825 
L 54.013939 35.129407 
L 53.995733 33.490565 
L 53.993758 31.851722 
L 54.009505 30.212879 
L 54.043914 28.574036 
L 54.09736 26.935193 
L 54.169644 25.29635 
L 54.260024 23.657508 
L 54.367253 22.018665 
L 54.489633 20.379822 
L 54.625098 18.740979 
L 54.771286 17.102136 
L 54.925642 15.463293 
L 55.085506 13.82445 
L 55.248207 12.185608 
L 55.411156 10.546765 
L 55.57192 8.907922 
L 55.728296 7.269079 
L 55.878358 5.630236 
L 56.020503 3.991393 
L 56.153464 2.352551 
L 56.276323 0.713708 
L 56.388499 -0.925135 
L 56.489728 -2.563978 
L 56.580031 -4.202821 
L 56.659678 -5.841664 
L 56.729142 -7.480506 
L 56.789054 -9.119349 
L 56.840161 -10.758192 
L 56.883282 -12.397035 
L 56.919271 -14.035878 
L 56.948983 -15.674721 
L 57.171017 -15.674721 
L 57.171017 -15.674721 
L 57.200729 -14.035878 
L 57.236718 -12.397035 
L 57.279839 -10.758192 
L 57.330946 -9.119349 
L 57.390858 -7.480506 
L 57.460322 -5.841664 
L 57.539969 -4.202821 
L 57.630272 -2.563978 
L 57.731501 -0.925135 
L 57.843677 0.713708 
L 57.966536 2.352551 
L 58.099497 3.991393 
L 58.241642 5.630236 
L 58.391704 7.269079 
L 58.54808 8.907922 
L 58.708844 10.546765 
L 58.871793 12.185608 
L 59.034494 13.82445 
L 59.194358 15.463293 
L 59.348714 17.102136 
L 59.494902 18.740979 
L 59.630367 20.379822 
L 59.752747 22.018665 
L 59.859976 23.657508 
L 59.950356 25.29635 
L 60.02264 26.935193 
L 60.076086 28.574036 
L 60.110495 30.212879 
L 60.126242 31.851722 
L 60.124267 33.490565 
L 60.106061 35.129407 
L 60.073624 36.76825 
L 60.029404 38.407093 
L 59.97622 40.045936 
L 59.917168 41.684779 
L 59.855514 43.323622 
L 59.794583 44.962464 
L 59.737645 46.601307 
L 59.687801 48.24015 
L 59.647877 49.878993 
L 59.620342 51.517836 
L 59.607229 53.156679 
L 59.610099 54.795522 
L 59.630019 56.434364 
L 59.667578 58.073207 
L 59.722934 59.71205 
L 59.79588 61.350893 
L 59.885943 62.989736 
L 59.992498 64.628579 
L 60.11489 66.267421 
L 60.252552 67.906264 
L 60.405128 69.545107 
L 60.572556 71.18395 
L 60.755143 72.822793 
L 60.953587 74.461636 
L 61.168974 76.100478 
L 61.402714 77.739321 
L 61.656444 79.378164 
L 61.93188 81.017007 
L 62.230637 82.65585 
L 62.554012 84.294693 
L 62.902747 85.933536 
L 63.276796 87.572378 
L 63.675087 89.211221 
L 64.095318 90.850064 
L 64.53379 92.488907 
L 64.98531 94.12775 
L 65.443157 95.766593 
L 65.899145 97.405435 
L 66.343775 99.044278 
L 66.766493 100.683121 
L 67.156033 102.321964 
L 67.500846 103.960807 
L 67.789586 105.59965 
L 68.011638 107.238492 
L 68.157643 108.877335 
L 68.22 110.516178 
L 68.193296 112.155021 
L 68.074648 113.793864 
L 67.863917 115.432707 
L 67.563786 117.07155 
L 67.179689 118.710392 
L 66.719592 120.349235 
L 66.193644 121.988078 
L 65.613723 123.626921 
L 64.992896 125.265764 
L 64.344844 126.904607 
L 63.683279 128.543449 
L 63.021392 130.182292 
L 62.371367 131.821135 
L 61.743983 133.459978 
L 61.148315 135.098821 
L 60.59156 136.737664 
L 60.078962 138.376506 
L 59.613853 140.015349 
L 59.197773 141.654192 
L 58.830669 143.293035 
L 58.511133 144.931878 
L 58.236675 146.570721 
z
" clip-path="url(#pf39b2b7a39)" style="fill: #c1613e; fill-opacity: 0.35"/>
   </g>
   <g id="PolyCollection_3">
    <path d="M 91.446364 138.44696 
L 89.633636 138.44696 
L 89.365395 137.022633 
L 89.03957 135.598307 
L 88.650748 134.17398 
L 88.195068 132.749654 
L 87.670839 131.325327 
L 87.079148 129.901001 
L 86.424376 128.476674 
L 85.714574 127.052348 
L 84.961618 125.628021 
L 84.181109 124.203695 
L 83.391971 122.779369 
L 82.615752 121.355042 
L 81.875646 119.930716 
L 81.195285 118.506389 
L 80.597403 117.082063 
L 80.102457 115.657736 
L 79.727338 114.23341 
L 79.484267 112.809083 
L 79.38 111.384757 
L 79.415388 109.96043 
L 79.585353 108.536104 
L 79.879264 107.111778 
L 80.281687 105.687451 
L 80.77342 104.263125 
L 81.332739 102.838798 
L 81.936724 101.414472 
L 82.56257 99.990145 
L 83.188778 98.565819 
L 83.796147 97.141492 
L 84.368518 95.717166 
L 84.893235 94.292839 
L 85.361331 92.868513 
L 85.767467 91.444187 
L 86.109652 90.01986 
L 86.388814 88.595534 
L 86.608266 87.171207 
L 86.773133 85.746881 
L 86.88978 84.322554 
L 86.965286 82.898228 
L 87.006995 81.473901 
L 87.022155 80.049575 
L 87.017652 78.625248 
L 86.999835 77.200922 
L 86.974421 75.776596 
L 86.946465 74.352269 
L 86.920375 72.927943 
L 86.899948 71.503616 
L 86.888424 70.07929 
L 86.888531 68.654963 
L 86.902523 67.230637 
L 86.932199 65.80631 
L 86.978909 64.381984 
L 87.043545 62.957657 
L 87.126525 61.533331 
L 87.227774 60.109004 
L 87.346716 58.684678 
L 87.482264 57.260352 
L 87.63284 55.836025 
L 87.7964 54.411699 
L 87.970487 52.987372 
L 88.152295 51.563046 
L 88.338761 50.138719 
L 88.526662 48.714393 
L 88.712729 47.290066 
L 88.893763 45.86574 
L 89.066757 44.441413 
L 89.229012 43.017087 
L 89.378234 41.592761 
L 89.512629 40.168434 
L 89.630964 38.744108 
L 89.732606 37.319781 
L 89.817538 35.895455 
L 89.886335 34.471128 
L 89.940117 33.046802 
L 89.980475 31.622475 
L 90.009374 30.198149 
L 90.029031 28.773822 
L 90.0418 27.349496 
L 90.050032 25.92517 
L 90.055961 24.500843 
L 90.061591 23.076517 
L 90.068604 21.65219 
L 90.078303 20.227864 
L 90.09157 18.803537 
L 90.108863 17.379211 
L 90.130244 15.954884 
L 90.155418 14.530558 
L 90.183808 13.106231 
L 90.21463 11.681905 
L 90.246978 10.257579 
L 90.279905 8.833252 
L 90.312499 7.408926 
L 90.343938 5.984599 
L 90.373538 4.560273 
L 90.400775 3.135946 
L 90.425297 1.71162 
L 90.446917 0.287293 
L 90.465596 -1.137033 
L 90.481421 -2.56136 
L 90.598579 -2.56136 
L 90.598579 -2.56136 
L 90.614404 -1.137033 
L 90.633083 0.287293 
L 90.654703 1.71162 
L 90.679225 3.135946 
L 90.706462 4.560273 
L 90.736062 5.984599 
L 90.767501 7.408926 
L 90.800095 8.833252 
L 90.833022 10.257579 
L 90.86537 11.681905 
L 90.896192 13.106231 
L 90.924582 14.530558 
L 90.949756 15.954884 
L 90.971137 17.379211 
L 90.98843 18.803537 
L 91.001697 20.227864 
L 91.011396 21.65219 
L 91.018409 23.076517 
L 91.024039 24.500843 
L 91.029968 25.92517 
L 91.0382 27.349496 
L 91.050969 28.773822 
L 91.070626 30.198149 
L 91.099525 31.622475 
L 91.139883 33.046802 
L 91.193665 34.471128 
L 91.262462 35.895455 
L 91.347394 37.319781 
L 91.449036 38.744108 
L 91.567371 40.168434 
L 91.701766 41.592761 
L 91.850988 43.017087 
L 92.013243 44.441413 
L 92.186237 45.86574 
L 92.367271 47.290066 
L 92.553338 48.714393 
L 92.741239 50.138719 
L 92.927705 51.563046 
L 93.109513 52.987372 
L 93.2836 54.411699 
L 93.44716 55.836025 
L 93.597736 57.260352 
L 93.733284 58.684678 
L 93.852226 60.109004 
L 93.953475 61.533331 
L 94.036455 62.957657 
L 94.101091 64.381984 
L 94.147801 65.80631 
L 94.177477 67.230637 
L 94.191469 68.654963 
L 94.191576 70.07929 
L 94.180052 71.503616 
L 94.159625 72.927943 
L 94.133535 74.352269 
L 94.105579 75.776596 
L 94.080165 77.200922 
L 94.062348 78.625248 
L 94.057845 80.049575 
L 94.073005 81.473901 
L 94.114714 82.898228 
L 94.19022 84.322554 
L 94.306867 85.746881 
L 94.471734 87.171207 
L 94.691186 88.595534 
L 94.970348 90.01986 
L 95.312533 91.444187 
L 95.718669 92.868513 
L 96.186765 94.292839 
L 96.711482 95.717166 
L 97.283853 97.141492 
L 97.891222 98.565819 
L 98.51743 99.990145 
L 99.143276 101.414472 
L 99.747261 102.838798 
L 100.30658 104.263125 
L 100.798313 105.687451 
L 101.200736 107.111778 
L 101.494647 108.536104 
L 101.664612 109.96043 
L 101.7 111.384757 
L 101.595733 112.809083 
L 101.352662 114.23341 
L 100.977543 115.657736 
L 100.482597 117.082063 
L 99.884715 118.506389 
L 99.204354 119.930716 
L 98.464248 121.355042 
L 97.688029 122.779369 
L 96.898891 124.203695 
L 96.118382 125.628021 
L 95.365426 127.052348 
L 94.655624 128.476674 
L 94.000852 129.901001 
L 93.409161 131.325327 
L 92.884932 132.749654 
L 92.429252 134.17398 
L 92.04043 135.598307 
L 91.714605 137.022633 
L 91.446364 138.44696 
z
" clip-path="url(#pf39b2b7a39)" style="fill: #20415a; fill-opacity: 0.35"/>
   </g>
   <g id="PolyCollection_4">
    <path d="M 112.932526 139.815476 
L 112.787474 139.815476 
L 112.7663 138.313103 
L 112.740577 136.81073 
L 112.709827 135.308356 
L 112.673659 133.805983 
L 112.631809 132.30361 
L 112.58418 130.801237 
L 112.530879 129.298863 
L 112.472243 127.79649 
L 112.408858 126.294117 
L 112.341563 124.791744 
L 112.271441 123.28937 
L 112.199789 121.786997 
L 112.12808 120.284624 
L 112.057901 118.782251 
L 111.990889 117.279877 
L 111.928654 115.777504 
L 111.872702 114.275131 
L 111.824357 112.772758 
L 111.784694 111.270384 
L 111.754472 109.768011 
L 111.734089 108.265638 
L 111.723549 106.763265 
L 111.722442 105.260891 
L 111.729953 103.758518 
L 111.744873 102.256145 
L 111.765642 100.753772 
L 111.790403 99.251398 
L 111.817068 97.749025 
L 111.843401 96.246652 
L 111.86711 94.744279 
L 111.885937 93.241905 
L 111.897761 91.739532 
L 111.900683 90.237159 
L 111.893112 88.734785 
L 111.873831 87.232412 
L 111.842052 85.730039 
L 111.797439 84.227666 
L 111.740119 82.725292 
L 111.670656 81.222919 
L 111.59001 79.720546 
L 111.499461 78.218173 
L 111.400516 76.715799 
L 111.294793 75.213426 
L 111.183895 73.711053 
L 111.069266 72.20868 
L 110.95206 70.706306 
L 110.833006 69.203933 
L 110.7123 67.70156 
L 110.589521 66.199187 
L 110.46358 64.696813 
L 110.332723 63.19444 
L 110.194562 61.692067 
L 110.046172 60.189694 
L 109.884211 58.68732 
L 109.705092 57.184947 
L 109.505166 55.682574 
L 109.28093 54.180201 
L 109.029229 52.677827 
L 108.747455 51.175454 
L 108.433723 49.673081 
L 108.087032 48.170708 
L 107.70739 46.668334 
L 107.295922 45.165961 
L 106.854955 43.663588 
L 106.38807 42.161215 
L 105.900155 40.658841 
L 105.397413 39.156468 
L 104.887366 37.654095 
L 104.378806 36.151721 
L 103.881707 34.649348 
L 103.407072 33.146975 
L 102.966699 31.644602 
L 102.572864 30.142228 
L 102.237911 28.639855 
L 101.973758 27.137482 
L 101.791336 25.635109 
L 101.7 24.132735 
L 101.706935 22.630362 
L 101.81663 21.127989 
L 102.03045 19.625616 
L 102.346362 18.123242 
L 102.758854 16.620869 
L 103.259065 15.118496 
L 103.835124 13.616123 
L 104.472691 12.113749 
L 105.155656 10.611376 
L 105.866943 9.109003 
L 106.589357 7.60663 
L 107.306408 6.104256 
L 108.003049 4.601883 
L 108.666283 3.09951 
L 109.285587 1.597137 
L 109.853154 0.094763 
L 110.363943 -1.40761 
L 110.815552 -2.909983 
L 111.207955 -4.412356 
L 111.543132 -5.91473 
L 111.82464 -7.417103 
L 112.057164 -8.919476 
L 113.662836 -8.919476 
L 113.662836 -8.919476 
L 113.89536 -7.417103 
L 114.176868 -5.91473 
L 114.512045 -4.412356 
L 114.904448 -2.909983 
L 115.356057 -1.40761 
L 115.866846 0.094763 
L 116.434413 1.597137 
L 117.053717 3.09951 
L 117.716951 4.601883 
L 118.413592 6.104256 
L 119.130643 7.60663 
L 119.853057 9.109003 
L 120.564344 10.611376 
L 121.247309 12.113749 
L 121.884876 13.616123 
L 122.460935 15.118496 
L 122.961146 16.620869 
L 123.373638 18.123242 
L 123.68955 19.625616 
L 123.90337 21.127989 
L 124.013065 22.630362 
L 124.02 24.132735 
L 123.928664 25.635109 
L 123.746242 27.137482 
L 123.482089 28.639855 
L 123.147136 30.142228 
L 122.753301 31.644602 
L 122.312928 33.146975 
L 121.838293 34.649348 
L 121.341194 36.151721 
L 120.832634 37.654095 
L 120.322587 39.156468 
L 119.819845 40.658841 
L 119.33193 42.161215 
L 118.865045 43.663588 
L 118.424078 45.165961 
L 118.01261 46.668334 
L 117.632968 48.170708 
L 117.286277 49.673081 
L 116.972545 51.175454 
L 116.690771 52.677827 
L 116.43907 54.180201 
L 116.214834 55.682574 
L 116.014908 57.184947 
L 115.835789 58.68732 
L 115.673828 60.189694 
L 115.525438 61.692067 
L 115.387277 63.19444 
L 115.25642 64.696813 
L 115.130479 66.199187 
L 115.0077 67.70156 
L 114.886994 69.203933 
L 114.76794 70.706306 
L 114.650734 72.20868 
L 114.536105 73.711053 
L 114.425207 75.213426 
L 114.319484 76.715799 
L 114.220539 78.218173 
L 114.12999 79.720546 
L 114.049344 81.222919 
L 113.979881 82.725292 
L 113.922561 84.227666 
L 113.877948 85.730039 
L 113.846169 87.232412 
L 113.826888 88.734785 
L 113.819317 90.237159 
L 113.822239 91.739532 
L 113.834063 93.241905 
L 113.85289 94.744279 
L 113.876599 96.246652 
L 113.902932 97.749025 
L 113.929597 99.251398 
L 113.954358 100.753772 
L 113.975127 102.256145 
L 113.990047 103.758518 
L 113.997558 105.260891 
L 113.996451 106.763265 
L 113.985911 108.265638 
L 113.965528 109.768011 
L 113.935306 111.270384 
L 113.895643 112.772758 
L 113.847298 114.275131 
L 113.791346 115.777504 
L 113.729111 117.279877 
L 113.662099 118.782251 
L 113.59192 120.284624 
L 113.520211 121.786997 
L 113.448559 123.28937 
L 113.378437 124.791744 
L 113.311142 126.294117 
L 113.247757 127.79649 
L 113.189121 129.298863 
L 113.13582 130.801237 
L 113.088191 132.30361 
L 113.046341 133.805983 
L 113.010173 135.308356 
L 112.979423 136.81073 
L 112.9537 138.313103 
L 112.932526 139.815476 
z
" clip-path="url(#pf39b2b7a39)" style="fill: #c1613e; fill-opacity: 0.35"/>
   </g>
   <g id="patch_3">
    <path d="M 23.58 115.344 
L 45.9 115.344 
L 45.9 19.787075 
L 23.58 19.787075 
L 23.58 115.344 
z
" clip-path="url(#pf39b2b7a39)" style="fill: none"/>
   </g>
   <g id="patch_4">
    <path d="M 79.38 115.344 
L 101.7 115.344 
L 101.7 95.726353 
L 79.38 95.726353 
L 79.38 115.344 
z
" clip-path="url(#pf39b2b7a39)" style="fill: none"/>
   </g>
   <g id="patch_5">
    <path d="M 45.9 115.344 
L 68.22 115.344 
L 68.22 90.079586 
L 45.9 90.079586 
L 45.9 115.344 
z
" clip-path="url(#pf39b2b7a39)" style="fill: none"/>
   </g>
   <g id="patch_6">
    <path d="M 101.7 115.344 
L 124.02 115.344 
L 124.02 36.191906 
L 101.7 36.191906 
L 101.7 115.344 
z
" clip-path="url(#pf39b2b7a39)" style="fill: none"/>
   </g>
   <g id="patch_7">
    <path d="M 45.9 115.344 
L 45.9 115.344 
L 45.9 115.344 
L 45.9 115.344 
z
" clip-path="url(#pf39b2b7a39)" style="fill: #3274a1"/>
   </g>
   <g id="patch_8">
    <path d="M 45.9 115.344 
L 45.9 115.344 
L 45.9 115.344 
L 45.9 115.344 
z
" clip-path="url(#pf39b2b7a39)" style="fill: #e1812c"/>
   </g>
   <g id="patch_9">
    <path d="M 23.58 115.344 
L 45.9 115.344 
L 45.9 19.787075 
L 23.58 19.787075 
z
" clip-path="url(#pf39b2b7a39)" style="fill: #20415a; opacity: 0.3; stroke: #000000; stroke-linejoin: miter"/>
   </g>
   <g id="patch_10">
    <path d="M 79.38 115.344 
L 101.7 115.344 
L 101.7 95.726353 
L 79.38 95.726353 
z
" clip-path="url(#pf39b2b7a39)" style="fill: #20415a; opacity: 0.3; stroke: #000000; stroke-linejoin: miter"/>
   </g>
   <g id="patch_11">
    <path d="M 45.9 115.344 
L 68.22 115.344 
L 68.22 90.079586 
L 45.9 90.079586 
z
" clip-path="url(#pf39b2b7a39)" style="fill: #c1613e; opacity: 0.3; stroke: #000000; stroke-linejoin: miter"/>
   </g>
   <g id="patch_12">
    <path d="M 101.7 115.344 
L 124.02 115.344 
L 124.02 36.191906 
L 101.7 36.191906 
z
" clip-path="url(#pf39b2b7a39)" style="fill: #c1613e; opacity: 0.3; stroke: #000000; stroke-linejoin: miter"/>
   </g>
   <g id="patch_13">
    <path d="M 45.9 115.344 
L 45.9 115.344 
L 45.9 115.344 
L 45.9 115.344 
z
" clip-path="url(#pf39b2b7a39)" style="fill: #20415a; opacity: 0.3; stroke: #000000; stroke-linejoin: miter"/>
   </g>
   <g id="patch_14">
    <path d="M 45.9 115.344 
L 45.9 115.344 
L 45.9 115.344 
L 45.9 115.344 
z
" clip-path="url(#pf39b2b7a39)" style="fill: #c1613e; opacity: 0.3; stroke: #000000; stroke-linejoin: miter"/>
   </g>
   <g id="matplotlib.axis_1">
    <g id="xtick_1">
     <g id="line2d_1">
      <defs>
       <path id="m488e9e0573" d="M 0 0 
L 0 3.5 
" style="stroke: #000000"/>
      </defs>
      <g>
       <use xlink:href="#m488e9e0573" x="45.9" y="115.344" style="stroke: #000000"/>
      </g>
     </g>
     <g id="text_1">
      <!-- reward -->
      <g transform="translate(30.617969 129.501812) scale(0.1 -0.1)">
       <defs>
        <path id="ArialMT-72" d="M 416 0 
L 416 3319 
L 922 3319 
L 922 2816 
Q 1116 3169 1280 3281 
Q 1444 3394 1641 3394 
Q 1925 3394 2219 3213 
L 2025 2691 
Q 1819 2813 1613 2813 
Q 1428 2813 1281 2702 
Q 1134 2591 1072 2394 
Q 978 2094 978 1738 
L 978 0 
L 416 0 
z
" transform="scale(0.015625)"/>
        <path id="ArialMT-65" d="M 2694 1069 
L 3275 997 
Q 3138 488 2766 206 
Q 2394 -75 1816 -75 
Q 1088 -75 661 373 
Q 234 822 234 1631 
Q 234 2469 665 2931 
Q 1097 3394 1784 3394 
Q 2450 3394 2872 2941 
Q 3294 2488 3294 1666 
Q 3294 1616 3291 1516 
L 816 1516 
Q 847 969 1125 678 
Q 1403 388 1819 388 
Q 2128 388 2347 550 
Q 2566 713 2694 1069 
z
M 847 1978 
L 2700 1978 
Q 2663 2397 2488 2606 
Q 2219 2931 1791 2931 
Q 1403 2931 1139 2672 
Q 875 2413 847 1978 
z
" transform="scale(0.015625)"/>
        <path id="ArialMT-77" d="M 1034 0 
L 19 3319 
L 600 3319 
L 1128 1403 
L 1325 691 
Q 1338 744 1497 1375 
L 2025 3319 
L 2603 3319 
L 3100 1394 
L 3266 759 
L 3456 1400 
L 4025 3319 
L 4572 3319 
L 3534 0 
L 2950 0 
L 2422 1988 
L 2294 2553 
L 1622 0 
L 1034 0 
z
" transform="scale(0.015625)"/>
        <path id="ArialMT-61" d="M 2588 409 
Q 2275 144 1986 34 
Q 1697 -75 1366 -75 
Q 819 -75 525 192 
Q 231 459 231 875 
Q 231 1119 342 1320 
Q 453 1522 633 1644 
Q 813 1766 1038 1828 
Q 1203 1872 1538 1913 
Q 2219 1994 2541 2106 
Q 2544 2222 2544 2253 
Q 2544 2597 2384 2738 
Q 2169 2928 1744 2928 
Q 1347 2928 1158 2789 
Q 969 2650 878 2297 
L 328 2372 
Q 403 2725 575 2942 
Q 747 3159 1072 3276 
Q 1397 3394 1825 3394 
Q 2250 3394 2515 3294 
Q 2781 3194 2906 3042 
Q 3031 2891 3081 2659 
Q 3109 2516 3109 2141 
L 3109 1391 
Q 3109 606 3145 398 
Q 3181 191 3288 0 
L 2700 0 
Q 2613 175 2588 409 
z
M 2541 1666 
Q 2234 1541 1622 1453 
Q 1275 1403 1131 1340 
Q 988 1278 909 1158 
Q 831 1038 831 891 
Q 831 666 1001 516 
Q 1172 366 1500 366 
Q 1825 366 2078 508 
Q 2331 650 2450 897 
Q 2541 1088 2541 1459 
L 2541 1666 
z
" transform="scale(0.015625)"/>
        <path id="ArialMT-64" d="M 2575 0 
L 2575 419 
Q 2259 -75 1647 -75 
Q 1250 -75 917 144 
Q 584 363 401 755 
Q 219 1147 219 1656 
Q 219 2153 384 2558 
Q 550 2963 881 3178 
Q 1213 3394 1622 3394 
Q 1922 3394 2156 3267 
Q 2391 3141 2538 2938 
L 2538 4581 
L 3097 4581 
L 3097 0 
L 2575 0 
z
M 797 1656 
Q 797 1019 1065 703 
Q 1334 388 1700 388 
Q 2069 388 2326 689 
Q 2584 991 2584 1609 
Q 2584 2291 2321 2609 
Q 2059 2928 1675 2928 
Q 1300 2928 1048 2622 
Q 797 2316 797 1656 
z
" transform="scale(0.015625)"/>
       </defs>
       <use xlink:href="#ArialMT-72"/>
       <use xlink:href="#ArialMT-65" x="33.300781"/>
       <use xlink:href="#ArialMT-77" x="88.916016"/>
       <use xlink:href="#ArialMT-61" x="161.132812"/>
       <use xlink:href="#ArialMT-72" x="216.748047"/>
       <use xlink:href="#ArialMT-64" x="250.048828"/>
      </g>
     </g>
    </g>
    <g id="xtick_2">
     <g id="line2d_2">
      <g>
       <use xlink:href="#m488e9e0573" x="101.7" y="115.344" style="stroke: #000000"/>
      </g>
     </g>
     <g id="text_2">
      <!-- unrewarded -->
      <g transform="translate(75.296094 129.501812) scale(0.1 -0.1)">
       <defs>
        <path id="ArialMT-75" d="M 2597 0 
L 2597 488 
Q 2209 -75 1544 -75 
Q 1250 -75 995 37 
Q 741 150 617 320 
Q 494 491 444 738 
Q 409 903 409 1263 
L 409 3319 
L 972 3319 
L 972 1478 
Q 972 1038 1006 884 
Q 1059 663 1231 536 
Q 1403 409 1656 409 
Q 1909 409 2131 539 
Q 2353 669 2445 892 
Q 2538 1116 2538 1541 
L 2538 3319 
L 3100 3319 
L 3100 0 
L 2597 0 
z
" transform="scale(0.015625)"/>
        <path id="ArialMT-6e" d="M 422 0 
L 422 3319 
L 928 3319 
L 928 2847 
Q 1294 3394 1984 3394 
Q 2284 3394 2536 3286 
Q 2788 3178 2913 3003 
Q 3038 2828 3088 2588 
Q 3119 2431 3119 2041 
L 3119 0 
L 2556 0 
L 2556 2019 
Q 2556 2363 2490 2533 
Q 2425 2703 2258 2804 
Q 2091 2906 1866 2906 
Q 1506 2906 1245 2678 
Q 984 2450 984 1813 
L 984 0 
L 422 0 
z
" transform="scale(0.015625)"/>
       </defs>
       <use xlink:href="#ArialMT-75"/>
       <use xlink:href="#ArialMT-6e" x="55.615234"/>
       <use xlink:href="#ArialMT-72" x="111.230469"/>
       <use xlink:href="#ArialMT-65" x="144.53125"/>
       <use xlink:href="#ArialMT-77" x="200.146484"/>
       <use xlink:href="#ArialMT-61" x="272.363281"/>
       <use xlink:href="#ArialMT-72" x="327.978516"/>
       <use xlink:href="#ArialMT-64" x="361.279297"/>
       <use xlink:href="#ArialMT-65" x="416.894531"/>
       <use xlink:href="#ArialMT-64" x="472.509766"/>
      </g>
     </g>
    </g>
   </g>
   <g id="matplotlib.axis_2">
    <g id="ytick_1">
     <g id="line2d_3">
      <defs>
       <path id="m6c12d22b86" d="M 0 0 
L -3.5 0 
" style="stroke: #000000"/>
      </defs>
      <g>
       <use xlink:href="#m6c12d22b86" x="18" y="115.344" style="stroke: #000000"/>
      </g>
     </g>
     <g id="text_3">
      <!-- 0.00 -->
      <g transform="translate(-8.460938 118.922906) scale(0.1 -0.1)">
       <defs>
        <path id="ArialMT-30" d="M 266 2259 
Q 266 3072 433 3567 
Q 600 4063 929 4331 
Q 1259 4600 1759 4600 
Q 2128 4600 2406 4451 
Q 2684 4303 2865 4023 
Q 3047 3744 3150 3342 
Q 3253 2941 3253 2259 
Q 3253 1453 3087 958 
Q 2922 463 2592 192 
Q 2263 -78 1759 -78 
Q 1097 -78 719 397 
Q 266 969 266 2259 
z
M 844 2259 
Q 844 1131 1108 757 
Q 1372 384 1759 384 
Q 2147 384 2411 759 
Q 2675 1134 2675 2259 
Q 2675 3391 2411 3762 
Q 2147 4134 1753 4134 
Q 1366 4134 1134 3806 
Q 844 3388 844 2259 
z
" transform="scale(0.015625)"/>
        <path id="ArialMT-2e" d="M 581 0 
L 581 641 
L 1222 641 
L 1222 0 
L 581 0 
z
" transform="scale(0.015625)"/>
       </defs>
       <use xlink:href="#ArialMT-30"/>
       <use xlink:href="#ArialMT-2e" x="55.615234"/>
       <use xlink:href="#ArialMT-30" x="83.398438"/>
       <use xlink:href="#ArialMT-30" x="139.013672"/>
      </g>
     </g>
    </g>
    <g id="ytick_2">
     <g id="line2d_4">
      <g>
       <use xlink:href="#m6c12d22b86" x="18" y="90.396" style="stroke: #000000"/>
      </g>
     </g>
     <g id="text_4">
      <!-- 0.25 -->
      <g transform="translate(-8.460938 93.974906) scale(0.1 -0.1)">
       <defs>
        <path id="ArialMT-32" d="M 3222 541 
L 3222 0 
L 194 0 
Q 188 203 259 391 
Q 375 700 629 1000 
Q 884 1300 1366 1694 
Q 2113 2306 2375 2664 
Q 2638 3022 2638 3341 
Q 2638 3675 2398 3904 
Q 2159 4134 1775 4134 
Q 1369 4134 1125 3890 
Q 881 3647 878 3216 
L 300 3275 
Q 359 3922 746 4261 
Q 1134 4600 1788 4600 
Q 2447 4600 2831 4234 
Q 3216 3869 3216 3328 
Q 3216 3053 3103 2787 
Q 2991 2522 2730 2228 
Q 2469 1934 1863 1422 
Q 1356 997 1212 845 
Q 1069 694 975 541 
L 3222 541 
z
" transform="scale(0.015625)"/>
        <path id="ArialMT-35" d="M 266 1200 
L 856 1250 
Q 922 819 1161 601 
Q 1400 384 1738 384 
Q 2144 384 2425 690 
Q 2706 997 2706 1503 
Q 2706 1984 2436 2262 
Q 2166 2541 1728 2541 
Q 1456 2541 1237 2417 
Q 1019 2294 894 2097 
L 366 2166 
L 809 4519 
L 3088 4519 
L 3088 3981 
L 1259 3981 
L 1013 2750 
Q 1425 3038 1878 3038 
Q 2478 3038 2890 2622 
Q 3303 2206 3303 1553 
Q 3303 931 2941 478 
Q 2500 -78 1738 -78 
Q 1113 -78 717 272 
Q 322 622 266 1200 
z
" transform="scale(0.015625)"/>
       </defs>
       <use xlink:href="#ArialMT-30"/>
       <use xlink:href="#ArialMT-2e" x="55.615234"/>
       <use xlink:href="#ArialMT-32" x="83.398438"/>
       <use xlink:href="#ArialMT-35" x="139.013672"/>
      </g>
     </g>
    </g>
    <g id="ytick_3">
     <g id="line2d_5">
      <g>
       <use xlink:href="#m6c12d22b86" x="18" y="65.448" style="stroke: #000000"/>
      </g>
     </g>
     <g id="text_5">
      <!-- 0.50 -->
      <g transform="translate(-8.460938 69.026906) scale(0.1 -0.1)">
       <use xlink:href="#ArialMT-30"/>
       <use xlink:href="#ArialMT-2e" x="55.615234"/>
       <use xlink:href="#ArialMT-35" x="83.398438"/>
       <use xlink:href="#ArialMT-30" x="139.013672"/>
      </g>
     </g>
    </g>
    <g id="ytick_4">
     <g id="line2d_6">
      <g>
       <use xlink:href="#m6c12d22b86" x="18" y="40.5" style="stroke: #000000"/>
      </g>
     </g>
     <g id="text_6">
      <!-- 0.75 -->
      <g transform="translate(-8.460938 44.078906) scale(0.1 -0.1)">
       <defs>
        <path id="ArialMT-37" d="M 303 3981 
L 303 4522 
L 3269 4522 
L 3269 4084 
Q 2831 3619 2401 2847 
Q 1972 2075 1738 1259 
Q 1569 684 1522 0 
L 944 0 
Q 953 541 1156 1306 
Q 1359 2072 1739 2783 
Q 2119 3494 2547 3981 
L 303 3981 
z
" transform="scale(0.015625)"/>
       </defs>
       <use xlink:href="#ArialMT-30"/>
       <use xlink:href="#ArialMT-2e" x="55.615234"/>
       <use xlink:href="#ArialMT-37" x="83.398438"/>
       <use xlink:href="#ArialMT-35" x="139.013672"/>
      </g>
     </g>
    </g>
    <g id="ytick_5">
     <g id="line2d_7">
      <g>
       <use xlink:href="#m6c12d22b86" x="18" y="15.552" style="stroke: #000000"/>
      </g>
     </g>
     <g id="text_7">
      <!-- 1.00 -->
      <g transform="translate(-8.460938 19.130906) scale(0.1 -0.1)">
       <defs>
        <path id="ArialMT-31" d="M 2384 0 
L 1822 0 
L 1822 3584 
Q 1619 3391 1289 3197 
Q 959 3003 697 2906 
L 697 3450 
Q 1169 3672 1522 3987 
Q 1875 4303 2022 4600 
L 2384 4600 
L 2384 0 
z
" transform="scale(0.015625)"/>
       </defs>
       <use xlink:href="#ArialMT-31"/>
       <use xlink:href="#ArialMT-2e" x="55.615234"/>
       <use xlink:href="#ArialMT-30" x="83.398438"/>
       <use xlink:href="#ArialMT-30" x="139.013672"/>
      </g>
     </g>
    </g>
    <g id="text_8">
     <!-- stay probability -->
     <g transform="translate(-14.565625 98.795656) rotate(-90) scale(0.1 -0.1)">
      <defs>
       <path id="ArialMT-73" d="M 197 991 
L 753 1078 
Q 800 744 1014 566 
Q 1228 388 1613 388 
Q 2000 388 2187 545 
Q 2375 703 2375 916 
Q 2375 1106 2209 1216 
Q 2094 1291 1634 1406 
Q 1016 1563 777 1677 
Q 538 1791 414 1992 
Q 291 2194 291 2438 
Q 291 2659 392 2848 
Q 494 3038 669 3163 
Q 800 3259 1026 3326 
Q 1253 3394 1513 3394 
Q 1903 3394 2198 3281 
Q 2494 3169 2634 2976 
Q 2775 2784 2828 2463 
L 2278 2388 
Q 2241 2644 2061 2787 
Q 1881 2931 1553 2931 
Q 1166 2931 1000 2803 
Q 834 2675 834 2503 
Q 834 2394 903 2306 
Q 972 2216 1119 2156 
Q 1203 2125 1616 2013 
Q 2213 1853 2448 1751 
Q 2684 1650 2818 1456 
Q 2953 1263 2953 975 
Q 2953 694 2789 445 
Q 2625 197 2315 61 
Q 2006 -75 1616 -75 
Q 969 -75 630 194 
Q 291 463 197 991 
z
" transform="scale(0.015625)"/>
       <path id="ArialMT-74" d="M 1650 503 
L 1731 6 
Q 1494 -44 1306 -44 
Q 1000 -44 831 53 
Q 663 150 594 308 
Q 525 466 525 972 
L 525 2881 
L 113 2881 
L 113 3319 
L 525 3319 
L 525 4141 
L 1084 4478 
L 1084 3319 
L 1650 3319 
L 1650 2881 
L 1084 2881 
L 1084 941 
Q 1084 700 1114 631 
Q 1144 563 1211 522 
Q 1278 481 1403 481 
Q 1497 481 1650 503 
z
" transform="scale(0.015625)"/>
       <path id="ArialMT-79" d="M 397 -1278 
L 334 -750 
Q 519 -800 656 -800 
Q 844 -800 956 -737 
Q 1069 -675 1141 -563 
Q 1194 -478 1313 -144 
Q 1328 -97 1363 -6 
L 103 3319 
L 709 3319 
L 1400 1397 
Q 1534 1031 1641 628 
Q 1738 1016 1872 1384 
L 2581 3319 
L 3144 3319 
L 1881 -56 
Q 1678 -603 1566 -809 
Q 1416 -1088 1222 -1217 
Q 1028 -1347 759 -1347 
Q 597 -1347 397 -1278 
z
" transform="scale(0.015625)"/>
       <path id="ArialMT-20" transform="scale(0.015625)"/>
       <path id="ArialMT-70" d="M 422 -1272 
L 422 3319 
L 934 3319 
L 934 2888 
Q 1116 3141 1344 3267 
Q 1572 3394 1897 3394 
Q 2322 3394 2647 3175 
Q 2972 2956 3137 2557 
Q 3303 2159 3303 1684 
Q 3303 1175 3120 767 
Q 2938 359 2589 142 
Q 2241 -75 1856 -75 
Q 1575 -75 1351 44 
Q 1128 163 984 344 
L 984 -1272 
L 422 -1272 
z
M 931 1641 
Q 931 1000 1190 694 
Q 1450 388 1819 388 
Q 2194 388 2461 705 
Q 2728 1022 2728 1688 
Q 2728 2322 2467 2637 
Q 2206 2953 1844 2953 
Q 1484 2953 1207 2617 
Q 931 2281 931 1641 
z
" transform="scale(0.015625)"/>
       <path id="ArialMT-6f" d="M 213 1659 
Q 213 2581 725 3025 
Q 1153 3394 1769 3394 
Q 2453 3394 2887 2945 
Q 3322 2497 3322 1706 
Q 3322 1066 3130 698 
Q 2938 331 2570 128 
Q 2203 -75 1769 -75 
Q 1072 -75 642 372 
Q 213 819 213 1659 
z
M 791 1659 
Q 791 1022 1069 705 
Q 1347 388 1769 388 
Q 2188 388 2466 706 
Q 2744 1025 2744 1678 
Q 2744 2294 2464 2611 
Q 2184 2928 1769 2928 
Q 1347 2928 1069 2612 
Q 791 2297 791 1659 
z
" transform="scale(0.015625)"/>
       <path id="ArialMT-62" d="M 941 0 
L 419 0 
L 419 4581 
L 981 4581 
L 981 2947 
Q 1338 3394 1891 3394 
Q 2197 3394 2470 3270 
Q 2744 3147 2920 2923 
Q 3097 2700 3197 2384 
Q 3297 2069 3297 1709 
Q 3297 856 2875 390 
Q 2453 -75 1863 -75 
Q 1275 -75 941 416 
L 941 0 
z
M 934 1684 
Q 934 1088 1097 822 
Q 1363 388 1816 388 
Q 2184 388 2453 708 
Q 2722 1028 2722 1663 
Q 2722 2313 2464 2622 
Q 2206 2931 1841 2931 
Q 1472 2931 1203 2611 
Q 934 2291 934 1684 
z
" transform="scale(0.015625)"/>
       <path id="ArialMT-69" d="M 425 3934 
L 425 4581 
L 988 4581 
L 988 3934 
L 425 3934 
z
M 425 0 
L 425 3319 
L 988 3319 
L 988 0 
L 425 0 
z
" transform="scale(0.015625)"/>
       <path id="ArialMT-6c" d="M 409 0 
L 409 4581 
L 972 4581 
L 972 0 
L 409 0 
z
" transform="scale(0.015625)"/>
      </defs>
      <use xlink:href="#ArialMT-73"/>
      <use xlink:href="#ArialMT-74" x="50"/>
      <use xlink:href="#ArialMT-61" x="77.783203"/>
      <use xlink:href="#ArialMT-79" x="133.398438"/>
      <use xlink:href="#ArialMT-20" x="183.398438"/>
      <use xlink:href="#ArialMT-70" x="211.181641"/>
      <use xlink:href="#ArialMT-72" x="266.796875"/>
      <use xlink:href="#ArialMT-6f" x="300.097656"/>
      <use xlink:href="#ArialMT-62" x="355.712891"/>
      <use xlink:href="#ArialMT-61" x="411.328125"/>
      <use xlink:href="#ArialMT-62" x="466.943359"/>
      <use xlink:href="#ArialMT-69" x="522.558594"/>
      <use xlink:href="#ArialMT-6c" x="544.775391"/>
      <use xlink:href="#ArialMT-69" x="566.992188"/>
      <use xlink:href="#ArialMT-74" x="589.208984"/>
      <use xlink:href="#ArialMT-79" x="616.992188"/>
     </g>
    </g>
   </g>
   <g id="PathCollection_1">
    <defs>
     <path id="C0_0_4412895e83" d="M 0 3.5 
C 0.928211 3.5 1.81853 3.131218 2.474874 2.474874 
C 3.131218 1.81853 3.5 0.928211 3.5 -0 
C 3.5 -0.928211 3.131218 -1.81853 2.474874 -2.474874 
C 1.81853 -3.131218 0.928211 -3.5 0 -3.5 
C -0.928211 -3.5 -1.81853 -3.131218 -2.474874 -2.474874 
C -3.131218 -1.81853 -3.5 -0.928211 -3.5 0 
C -3.5 0.928211 -3.131218 1.81853 -2.474874 2.474874 
C -1.81853 3.131218 -0.928211 3.5 0 3.5 
z
"/>
    </defs>
    <g clip-path="url(#pf39b2b7a39)">
     <use xlink:href="#C0_0_4412895e83" x="33.030818" y="17.54784" style="fill: #174263; fill-opacity: 0.45"/>
    </g>
    <g clip-path="url(#pf39b2b7a39)">
     <use xlink:href="#C0_0_4412895e83" x="34.053674" y="17.54784" style="fill: #174263; fill-opacity: 0.45"/>
    </g>
    <g clip-path="url(#pf39b2b7a39)">
     <use xlink:href="#C0_0_4412895e83" x="36.600905" y="23.53536" style="fill: #174263; fill-opacity: 0.45"/>
    </g>
    <g clip-path="url(#pf39b2b7a39)">
     <use xlink:href="#C0_0_4412895e83" x="33.827226" y="17.54784" style="fill: #174263; fill-opacity: 0.45"/>
    </g>
    <g clip-path="url(#pf39b2b7a39)">
     <use xlink:href="#C0_0_4412895e83" x="35.213643" y="15.552" style="fill: #174263; fill-opacity: 0.45"/>
    </g>
    <g clip-path="url(#pf39b2b7a39)">
     <use xlink:href="#C0_0_4412895e83" x="32.412194" y="15.552" style="fill: #174263; fill-opacity: 0.45"/>
    </g>
    <g clip-path="url(#pf39b2b7a39)">
     <use xlink:href="#C0_0_4412895e83" x="36.523228" y="17.54784" style="fill: #174263; fill-opacity: 0.45"/>
    </g>
    <g clip-path="url(#pf39b2b7a39)">
     <use xlink:href="#C0_0_4412895e83" x="33.044758" y="19.54368" style="fill: #174263; fill-opacity: 0.45"/>
    </g>
    <g clip-path="url(#pf39b2b7a39)">
     <use xlink:href="#C0_0_4412895e83" x="34.160742" y="19.54368" style="fill: #174263; fill-opacity: 0.45"/>
    </g>
    <g clip-path="url(#pf39b2b7a39)">
     <use xlink:href="#C0_0_4412895e83" x="32.86334" y="82.41264" style="fill: #174263; fill-opacity: 0.45"/>
    </g>
    <g clip-path="url(#pf39b2b7a39)">
     <use xlink:href="#C0_0_4412895e83" x="35.199015" y="17.54784" style="fill: #174263; fill-opacity: 0.45"/>
    </g>
    <g clip-path="url(#pf39b2b7a39)">
     <use xlink:href="#C0_0_4412895e83" x="36.979091" y="15.552" style="fill: #174263; fill-opacity: 0.45"/>
    </g>
    <g clip-path="url(#pf39b2b7a39)">
     <use xlink:href="#C0_0_4412895e83" x="36.788306" y="15.552" style="fill: #174263; fill-opacity: 0.45"/>
    </g>
    <g clip-path="url(#pf39b2b7a39)">
     <use xlink:href="#C0_0_4412895e83" x="35.357807" y="15.552" style="fill: #174263; fill-opacity: 0.45"/>
    </g>
    <g clip-path="url(#pf39b2b7a39)">
     <use xlink:href="#C0_0_4412895e83" x="33.171601" y="21.53952" style="fill: #174263; fill-opacity: 0.45"/>
    </g>
    <g clip-path="url(#pf39b2b7a39)">
     <use xlink:href="#C0_0_4412895e83" x="36.094068" y="31.51872" style="fill: #174263; fill-opacity: 0.45"/>
    </g>
    <g clip-path="url(#pf39b2b7a39)">
     <use xlink:href="#C0_0_4412895e83" x="36.839086" y="27.52704" style="fill: #174263; fill-opacity: 0.45"/>
    </g>
    <g clip-path="url(#pf39b2b7a39)">
     <use xlink:href="#C0_0_4412895e83" x="36.108645" y="17.54784" style="fill: #174263; fill-opacity: 0.45"/>
    </g>
    <g clip-path="url(#pf39b2b7a39)">
     <use xlink:href="#C0_0_4412895e83" x="34.304963" y="15.552" style="fill: #174263; fill-opacity: 0.45"/>
    </g>
    <g clip-path="url(#pf39b2b7a39)">
     <use xlink:href="#C0_0_4412895e83" x="37.018595" y="19.54368" style="fill: #174263; fill-opacity: 0.45"/>
    </g>
    <g clip-path="url(#pf39b2b7a39)">
     <use xlink:href="#C0_0_4412895e83" x="36.481536" y="33.51456" style="fill: #174263; fill-opacity: 0.45"/>
    </g>
    <g clip-path="url(#pf39b2b7a39)">
     <use xlink:href="#C0_0_4412895e83" x="33.799218" y="15.552" style="fill: #174263; fill-opacity: 0.45"/>
    </g>
    <g clip-path="url(#pf39b2b7a39)">
     <use xlink:href="#C0_0_4412895e83" x="36.793007" y="17.54784" style="fill: #174263; fill-opacity: 0.45"/>
    </g>
    <g clip-path="url(#pf39b2b7a39)">
     <use xlink:href="#C0_0_4412895e83" x="35.610048" y="15.552" style="fill: #174263; fill-opacity: 0.45"/>
    </g>
    <g clip-path="url(#pf39b2b7a39)">
     <use xlink:href="#C0_0_4412895e83" x="34.823093" y="18.54576" style="fill: #174263; fill-opacity: 0.45"/>
    </g>
    <g clip-path="url(#pf39b2b7a39)">
     <use xlink:href="#C0_0_4412895e83" x="34.628424" y="18.54576" style="fill: #174263; fill-opacity: 0.45"/>
    </g>
    <g clip-path="url(#pf39b2b7a39)">
     <use xlink:href="#C0_0_4412895e83" x="32.416101" y="19.54368" style="fill: #174263; fill-opacity: 0.45"/>
    </g>
    <g clip-path="url(#pf39b2b7a39)">
     <use xlink:href="#C0_0_4412895e83" x="33.732024" y="17.54784" style="fill: #174263; fill-opacity: 0.45"/>
    </g>
    <g clip-path="url(#pf39b2b7a39)">
     <use xlink:href="#C0_0_4412895e83" x="32.912108" y="15.552" style="fill: #174263; fill-opacity: 0.45"/>
    </g>
    <g clip-path="url(#pf39b2b7a39)">
     <use xlink:href="#C0_0_4412895e83" x="34.265965" y="18.54576" style="fill: #174263; fill-opacity: 0.45"/>
    </g>
    <g clip-path="url(#pf39b2b7a39)">
     <use xlink:href="#C0_0_4412895e83" x="32.677391" y="15.552" style="fill: #174263; fill-opacity: 0.45"/>
    </g>
    <g clip-path="url(#pf39b2b7a39)">
     <use xlink:href="#C0_0_4412895e83" x="36.523101" y="15.552" style="fill: #174263; fill-opacity: 0.45"/>
    </g>
    <g clip-path="url(#pf39b2b7a39)">
     <use xlink:href="#C0_0_4412895e83" x="34.309542" y="15.552" style="fill: #174263; fill-opacity: 0.45"/>
    </g>
    <g clip-path="url(#pf39b2b7a39)">
     <use xlink:href="#C0_0_4412895e83" x="35.001782" y="15.552" style="fill: #174263; fill-opacity: 0.45"/>
    </g>
    <g clip-path="url(#pf39b2b7a39)">
     <use xlink:href="#C0_0_4412895e83" x="37.055886" y="15.552" style="fill: #174263; fill-opacity: 0.45"/>
    </g>
    <g clip-path="url(#pf39b2b7a39)">
     <use xlink:href="#C0_0_4412895e83" x="36.139123" y="15.552" style="fill: #174263; fill-opacity: 0.45"/>
    </g>
    <g clip-path="url(#pf39b2b7a39)">
     <use xlink:href="#C0_0_4412895e83" x="34.677159" y="17.54784" style="fill: #174263; fill-opacity: 0.45"/>
    </g>
    <g clip-path="url(#pf39b2b7a39)">
     <use xlink:href="#C0_0_4412895e83" x="32.692664" y="17.54784" style="fill: #174263; fill-opacity: 0.45"/>
    </g>
    <g clip-path="url(#pf39b2b7a39)">
     <use xlink:href="#C0_0_4412895e83" x="35.492014" y="17.54784" style="fill: #174263; fill-opacity: 0.45"/>
    </g>
    <g clip-path="url(#pf39b2b7a39)">
     <use xlink:href="#C0_0_4412895e83" x="35.68589" y="15.552" style="fill: #174263; fill-opacity: 0.45"/>
    </g>
    <g clip-path="url(#pf39b2b7a39)">
     <use xlink:href="#C0_0_4412895e83" x="36.543464" y="15.552" style="fill: #174263; fill-opacity: 0.45"/>
    </g>
   </g>
   <g id="PathCollection_2">
    <defs>
     <path id="C1_0_f0cd78936e" d="M 0 3.5 
C 0.928211 3.5 1.81853 3.131218 2.474874 2.474874 
C 3.131218 1.81853 3.5 0.928211 3.5 -0 
C 3.5 -0.928211 3.131218 -1.81853 2.474874 -2.474874 
C 1.81853 -3.131218 0.928211 -3.5 0 -3.5 
C -0.928211 -3.5 -1.81853 -3.131218 -2.474874 -2.474874 
C -3.131218 -1.81853 -3.5 -0.928211 -3.5 0 
C -3.5 0.928211 -3.131218 1.81853 -2.474874 2.474874 
C -1.81853 3.131218 -0.928211 3.5 0 3.5 
z
"/>
    </defs>
    <g clip-path="url(#pf39b2b7a39)">
     <use xlink:href="#C1_0_f0cd78936e" x="59.563474" y="109.35648" style="fill: #d75728; fill-opacity: 0.45"/>
    </g>
    <g clip-path="url(#pf39b2b7a39)">
     <use xlink:href="#C1_0_f0cd78936e" x="57.429731" y="26.52912" style="fill: #d75728; fill-opacity: 0.45"/>
    </g>
    <g clip-path="url(#pf39b2b7a39)">
     <use xlink:href="#C1_0_f0cd78936e" x="59.088457" y="45.4896" style="fill: #d75728; fill-opacity: 0.45"/>
    </g>
    <g clip-path="url(#pf39b2b7a39)">
     <use xlink:href="#C1_0_f0cd78936e" x="59.750493" y="90.396" style="fill: #d75728; fill-opacity: 0.45"/>
    </g>
    <g clip-path="url(#pf39b2b7a39)">
     <use xlink:href="#C1_0_f0cd78936e" x="56.404191" y="93.38976" style="fill: #d75728; fill-opacity: 0.45"/>
    </g>
    <g clip-path="url(#pf39b2b7a39)">
     <use xlink:href="#C1_0_f0cd78936e" x="56.669296" y="15.552" style="fill: #d75728; fill-opacity: 0.45"/>
    </g>
    <g clip-path="url(#pf39b2b7a39)">
     <use xlink:href="#C1_0_f0cd78936e" x="55.017829" y="115.344" style="fill: #d75728; fill-opacity: 0.45"/>
    </g>
    <g clip-path="url(#pf39b2b7a39)">
     <use xlink:href="#C1_0_f0cd78936e" x="58.842549" y="27.52704" style="fill: #d75728; fill-opacity: 0.45"/>
    </g>
    <g clip-path="url(#pf39b2b7a39)">
     <use xlink:href="#C1_0_f0cd78936e" x="55.542121" y="90.396" style="fill: #d75728; fill-opacity: 0.45"/>
    </g>
    <g clip-path="url(#pf39b2b7a39)">
     <use xlink:href="#C1_0_f0cd78936e" x="56.360977" y="71.43552" style="fill: #d75728; fill-opacity: 0.45"/>
    </g>
    <g clip-path="url(#pf39b2b7a39)">
     <use xlink:href="#C1_0_f0cd78936e" x="59.306784" y="22.53744" style="fill: #d75728; fill-opacity: 0.45"/>
    </g>
    <g clip-path="url(#pf39b2b7a39)">
     <use xlink:href="#C1_0_f0cd78936e" x="57.133191" y="82.41264" style="fill: #d75728; fill-opacity: 0.45"/>
    </g>
    <g clip-path="url(#pf39b2b7a39)">
     <use xlink:href="#C1_0_f0cd78936e" x="57.526143" y="115.344" style="fill: #d75728; fill-opacity: 0.45"/>
    </g>
    <g clip-path="url(#pf39b2b7a39)">
     <use xlink:href="#C1_0_f0cd78936e" x="58.225453" y="115.344" style="fill: #d75728; fill-opacity: 0.45"/>
    </g>
    <g clip-path="url(#pf39b2b7a39)">
     <use xlink:href="#C1_0_f0cd78936e" x="58.807388" y="115.344" style="fill: #d75728; fill-opacity: 0.45"/>
    </g>
    <g clip-path="url(#pf39b2b7a39)">
     <use xlink:href="#C1_0_f0cd78936e" x="56.590333" y="72.43344" style="fill: #d75728; fill-opacity: 0.45"/>
    </g>
    <g clip-path="url(#pf39b2b7a39)">
     <use xlink:href="#C1_0_f0cd78936e" x="57.296902" y="37.50624" style="fill: #d75728; fill-opacity: 0.45"/>
    </g>
    <g clip-path="url(#pf39b2b7a39)">
     <use xlink:href="#C1_0_f0cd78936e" x="55.536" y="115.344" style="fill: #d75728; fill-opacity: 0.45"/>
    </g>
    <g clip-path="url(#pf39b2b7a39)">
     <use xlink:href="#C1_0_f0cd78936e" x="58.662075" y="108.35856" style="fill: #d75728; fill-opacity: 0.45"/>
    </g>
    <g clip-path="url(#pf39b2b7a39)">
     <use xlink:href="#C1_0_f0cd78936e" x="55.892683" y="115.344" style="fill: #d75728; fill-opacity: 0.45"/>
    </g>
    <g clip-path="url(#pf39b2b7a39)">
     <use xlink:href="#C1_0_f0cd78936e" x="55.562356" y="30.5208" style="fill: #d75728; fill-opacity: 0.45"/>
    </g>
    <g clip-path="url(#pf39b2b7a39)">
     <use xlink:href="#C1_0_f0cd78936e" x="55.92156" y="105.3648" style="fill: #d75728; fill-opacity: 0.45"/>
    </g>
    <g clip-path="url(#pf39b2b7a39)">
     <use xlink:href="#C1_0_f0cd78936e" x="54.67832" y="115.344" style="fill: #d75728; fill-opacity: 0.45"/>
    </g>
    <g clip-path="url(#pf39b2b7a39)">
     <use xlink:href="#C1_0_f0cd78936e" x="58.136204" y="42.49584" style="fill: #d75728; fill-opacity: 0.45"/>
    </g>
    <g clip-path="url(#pf39b2b7a39)">
     <use xlink:href="#C1_0_f0cd78936e" x="55.428036" y="115.344" style="fill: #d75728; fill-opacity: 0.45"/>
    </g>
    <g clip-path="url(#pf39b2b7a39)">
     <use xlink:href="#C1_0_f0cd78936e" x="57.980155" y="115.344" style="fill: #d75728; fill-opacity: 0.45"/>
    </g>
    <g clip-path="url(#pf39b2b7a39)">
     <use xlink:href="#C1_0_f0cd78936e" x="58.037106" y="73.43136" style="fill: #d75728; fill-opacity: 0.45"/>
    </g>
    <g clip-path="url(#pf39b2b7a39)">
     <use xlink:href="#C1_0_f0cd78936e" x="58.141768" y="115.344" style="fill: #d75728; fill-opacity: 0.45"/>
    </g>
    <g clip-path="url(#pf39b2b7a39)">
     <use xlink:href="#C1_0_f0cd78936e" x="57.121546" y="115.344" style="fill: #d75728; fill-opacity: 0.45"/>
    </g>
    <g clip-path="url(#pf39b2b7a39)">
     <use xlink:href="#C1_0_f0cd78936e" x="54.90289" y="103.36896" style="fill: #d75728; fill-opacity: 0.45"/>
    </g>
    <g clip-path="url(#pf39b2b7a39)">
     <use xlink:href="#C1_0_f0cd78936e" x="58.396722" y="115.344" style="fill: #d75728; fill-opacity: 0.45"/>
    </g>
    <g clip-path="url(#pf39b2b7a39)">
     <use xlink:href="#C1_0_f0cd78936e" x="57.310615" y="115.344" style="fill: #d75728; fill-opacity: 0.45"/>
    </g>
    <g clip-path="url(#pf39b2b7a39)">
     <use xlink:href="#C1_0_f0cd78936e" x="57.799566" y="100.3752" style="fill: #d75728; fill-opacity: 0.45"/>
    </g>
    <g clip-path="url(#pf39b2b7a39)">
     <use xlink:href="#C1_0_f0cd78936e" x="54.851067" y="94.38768" style="fill: #d75728; fill-opacity: 0.45"/>
    </g>
    <g clip-path="url(#pf39b2b7a39)">
     <use xlink:href="#C1_0_f0cd78936e" x="57.422475" y="115.344" style="fill: #d75728; fill-opacity: 0.45"/>
    </g>
    <g clip-path="url(#pf39b2b7a39)">
     <use xlink:href="#C1_0_f0cd78936e" x="56.990242" y="68.44176" style="fill: #d75728; fill-opacity: 0.45"/>
    </g>
    <g clip-path="url(#pf39b2b7a39)">
     <use xlink:href="#C1_0_f0cd78936e" x="54.923489" y="105.3648" style="fill: #d75728; fill-opacity: 0.45"/>
    </g>
    <g clip-path="url(#pf39b2b7a39)">
     <use xlink:href="#C1_0_f0cd78936e" x="57.054934" y="115.344" style="fill: #d75728; fill-opacity: 0.45"/>
    </g>
    <g clip-path="url(#pf39b2b7a39)">
     <use xlink:href="#C1_0_f0cd78936e" x="55.939129" y="115.344" style="fill: #d75728; fill-opacity: 0.45"/>
    </g>
    <g clip-path="url(#pf39b2b7a39)">
     <use xlink:href="#C1_0_f0cd78936e" x="57.122027" y="115.344" style="fill: #d75728; fill-opacity: 0.45"/>
    </g>
    <g clip-path="url(#pf39b2b7a39)">
     <use xlink:href="#C1_0_f0cd78936e" x="56.002249" y="115.344" style="fill: #d75728; fill-opacity: 0.45"/>
    </g>
   </g>
   <g id="PathCollection_3">
    <defs>
     <path id="C2_0_c3709cb300" d="M 0 3.5 
C 0.928211 3.5 1.81853 3.131218 2.474874 2.474874 
C 3.131218 1.81853 3.5 0.928211 3.5 -0 
C 3.5 -0.928211 3.131218 -1.81853 2.474874 -2.474874 
C 1.81853 -3.131218 0.928211 -3.5 0 -3.5 
C -0.928211 -3.5 -1.81853 -3.131218 -2.474874 -2.474874 
C -3.131218 -1.81853 -3.5 -0.928211 -3.5 0 
C -3.5 0.928211 -3.131218 1.81853 -2.474874 2.474874 
C -1.81853 3.131218 -0.928211 3.5 0 3.5 
z
"/>
    </defs>
    <g clip-path="url(#pf39b2b7a39)">
     <use xlink:href="#C2_0_c3709cb300" x="88.991685" y="50.4792" style="fill: #174263; fill-opacity: 0.45"/>
    </g>
    <g clip-path="url(#pf39b2b7a39)">
     <use xlink:href="#C2_0_c3709cb300" x="87.86571" y="78.42096" style="fill: #174263; fill-opacity: 0.45"/>
    </g>
    <g clip-path="url(#pf39b2b7a39)">
     <use xlink:href="#C2_0_c3709cb300" x="89.458352" y="51.47712" style="fill: #174263; fill-opacity: 0.45"/>
    </g>
    <g clip-path="url(#pf39b2b7a39)">
     <use xlink:href="#C2_0_c3709cb300" x="92.819333" y="99.37728" style="fill: #174263; fill-opacity: 0.45"/>
    </g>
    <g clip-path="url(#pf39b2b7a39)">
     <use xlink:href="#C2_0_c3709cb300" x="93.258884" y="92.39184" style="fill: #174263; fill-opacity: 0.45"/>
    </g>
    <g clip-path="url(#pf39b2b7a39)">
     <use xlink:href="#C2_0_c3709cb300" x="90.364136" y="115.344" style="fill: #174263; fill-opacity: 0.45"/>
    </g>
    <g clip-path="url(#pf39b2b7a39)">
     <use xlink:href="#C2_0_c3709cb300" x="92.511369" y="111.35232" style="fill: #174263; fill-opacity: 0.45"/>
    </g>
    <g clip-path="url(#pf39b2b7a39)">
     <use xlink:href="#C2_0_c3709cb300" x="92.406689" y="65.448" style="fill: #174263; fill-opacity: 0.45"/>
    </g>
    <g clip-path="url(#pf39b2b7a39)">
     <use xlink:href="#C2_0_c3709cb300" x="90.906852" y="78.42096" style="fill: #174263; fill-opacity: 0.45"/>
    </g>
    <g clip-path="url(#pf39b2b7a39)">
     <use xlink:href="#C2_0_c3709cb300" x="93.009957" y="62.45424" style="fill: #174263; fill-opacity: 0.45"/>
    </g>
    <g clip-path="url(#pf39b2b7a39)">
     <use xlink:href="#C2_0_c3709cb300" x="88.795473" y="69.43968" style="fill: #174263; fill-opacity: 0.45"/>
    </g>
    <g clip-path="url(#pf39b2b7a39)">
     <use xlink:href="#C2_0_c3709cb300" x="92.225131" y="69.43968" style="fill: #174263; fill-opacity: 0.45"/>
    </g>
    <g clip-path="url(#pf39b2b7a39)">
     <use xlink:href="#C2_0_c3709cb300" x="88.385029" y="115.344" style="fill: #174263; fill-opacity: 0.45"/>
    </g>
    <g clip-path="url(#pf39b2b7a39)">
     <use xlink:href="#C2_0_c3709cb300" x="92.14582" y="115.344" style="fill: #174263; fill-opacity: 0.45"/>
    </g>
    <g clip-path="url(#pf39b2b7a39)">
     <use xlink:href="#C2_0_c3709cb300" x="92.720241" y="108.35856" style="fill: #174263; fill-opacity: 0.45"/>
    </g>
    <g clip-path="url(#pf39b2b7a39)">
     <use xlink:href="#C2_0_c3709cb300" x="89.628961" y="61.45632" style="fill: #174263; fill-opacity: 0.45"/>
    </g>
    <g clip-path="url(#pf39b2b7a39)">
     <use xlink:href="#C2_0_c3709cb300" x="90.411847" y="57.46464" style="fill: #174263; fill-opacity: 0.45"/>
    </g>
    <g clip-path="url(#pf39b2b7a39)">
     <use xlink:href="#C2_0_c3709cb300" x="92.147109" y="102.37104" style="fill: #174263; fill-opacity: 0.45"/>
    </g>
    <g clip-path="url(#pf39b2b7a39)">
     <use xlink:href="#C2_0_c3709cb300" x="92.465178" y="115.344" style="fill: #174263; fill-opacity: 0.45"/>
    </g>
    <g clip-path="url(#pf39b2b7a39)">
     <use xlink:href="#C2_0_c3709cb300" x="91.068981" y="105.3648" style="fill: #174263; fill-opacity: 0.45"/>
    </g>
    <g clip-path="url(#pf39b2b7a39)">
     <use xlink:href="#C2_0_c3709cb300" x="90.148435" y="80.4168" style="fill: #174263; fill-opacity: 0.45"/>
    </g>
    <g clip-path="url(#pf39b2b7a39)">
     <use xlink:href="#C2_0_c3709cb300" x="88.911771" y="108.35856" style="fill: #174263; fill-opacity: 0.45"/>
    </g>
    <g clip-path="url(#pf39b2b7a39)">
     <use xlink:href="#C2_0_c3709cb300" x="88.593206" y="111.35232" style="fill: #174263; fill-opacity: 0.45"/>
    </g>
    <g clip-path="url(#pf39b2b7a39)">
     <use xlink:href="#C2_0_c3709cb300" x="90.371594" y="115.344" style="fill: #174263; fill-opacity: 0.45"/>
    </g>
    <g clip-path="url(#pf39b2b7a39)">
     <use xlink:href="#C2_0_c3709cb300" x="93.128804" y="110.3544" style="fill: #174263; fill-opacity: 0.45"/>
    </g>
    <g clip-path="url(#pf39b2b7a39)">
     <use xlink:href="#C2_0_c3709cb300" x="91.064748" y="115.344" style="fill: #174263; fill-opacity: 0.45"/>
    </g>
    <g clip-path="url(#pf39b2b7a39)">
     <use xlink:href="#C2_0_c3709cb300" x="87.901771" y="108.35856" style="fill: #174263; fill-opacity: 0.45"/>
    </g>
    <g clip-path="url(#pf39b2b7a39)">
     <use xlink:href="#C2_0_c3709cb300" x="93.144342" y="110.3544" style="fill: #174263; fill-opacity: 0.45"/>
    </g>
    <g clip-path="url(#pf39b2b7a39)">
     <use xlink:href="#C2_0_c3709cb300" x="89.871648" y="111.35232" style="fill: #174263; fill-opacity: 0.45"/>
    </g>
    <g clip-path="url(#pf39b2b7a39)">
     <use xlink:href="#C2_0_c3709cb300" x="91.309124" y="112.35024" style="fill: #174263; fill-opacity: 0.45"/>
    </g>
    <g clip-path="url(#pf39b2b7a39)">
     <use xlink:href="#C2_0_c3709cb300" x="90.389884" y="112.35024" style="fill: #174263; fill-opacity: 0.45"/>
    </g>
    <g clip-path="url(#pf39b2b7a39)">
     <use xlink:href="#C2_0_c3709cb300" x="88.769717" y="115.344" style="fill: #174263; fill-opacity: 0.45"/>
    </g>
    <g clip-path="url(#pf39b2b7a39)">
     <use xlink:href="#C2_0_c3709cb300" x="90.919021" y="115.344" style="fill: #174263; fill-opacity: 0.45"/>
    </g>
    <g clip-path="url(#pf39b2b7a39)">
     <use xlink:href="#C2_0_c3709cb300" x="92.045151" y="104.36688" style="fill: #174263; fill-opacity: 0.45"/>
    </g>
    <g clip-path="url(#pf39b2b7a39)">
     <use xlink:href="#C2_0_c3709cb300" x="92.253239" y="20.5416" style="fill: #174263; fill-opacity: 0.45"/>
    </g>
    <g clip-path="url(#pf39b2b7a39)">
     <use xlink:href="#C2_0_c3709cb300" x="88.821948" y="112.35024" style="fill: #174263; fill-opacity: 0.45"/>
    </g>
    <g clip-path="url(#pf39b2b7a39)">
     <use xlink:href="#C2_0_c3709cb300" x="89.207476" y="85.4064" style="fill: #174263; fill-opacity: 0.45"/>
    </g>
    <g clip-path="url(#pf39b2b7a39)">
     <use xlink:href="#C2_0_c3709cb300" x="92.035902" y="115.344" style="fill: #174263; fill-opacity: 0.45"/>
    </g>
    <g clip-path="url(#pf39b2b7a39)">
     <use xlink:href="#C2_0_c3709cb300" x="92.468928" y="111.35232" style="fill: #174263; fill-opacity: 0.45"/>
    </g>
    <g clip-path="url(#pf39b2b7a39)">
     <use xlink:href="#C2_0_c3709cb300" x="91.953888" y="111.35232" style="fill: #174263; fill-opacity: 0.45"/>
    </g>
    <g clip-path="url(#pf39b2b7a39)">
     <use xlink:href="#C2_0_c3709cb300" x="90.691507" y="112.35024" style="fill: #174263; fill-opacity: 0.45"/>
    </g>
   </g>
   <g id="PathCollection_4">
    <defs>
     <path id="C3_0_d99e915992" d="M 0 3.5 
C 0.928211 3.5 1.81853 3.131218 2.474874 2.474874 
C 3.131218 1.81853 3.5 0.928211 3.5 -0 
C 3.5 -0.928211 3.131218 -1.81853 2.474874 -2.474874 
C 1.81853 -3.131218 0.928211 -3.5 0 -3.5 
C -0.928211 -3.5 -1.81853 -3.131218 -2.474874 -2.474874 
C -3.131218 -1.81853 -3.5 -0.928211 -3.5 0 
C -3.5 0.928211 -3.131218 1.81853 -2.474874 2.474874 
C -1.81853 3.131218 -0.928211 3.5 0 3.5 
z
"/>
    </defs>
    <g clip-path="url(#pf39b2b7a39)">
     <use xlink:href="#C3_0_d99e915992" x="115.450908" y="26.52912" style="fill: #d75728; fill-opacity: 0.45"/>
    </g>
    <g clip-path="url(#pf39b2b7a39)">
     <use xlink:href="#C3_0_d99e915992" x="113.533126" y="77.42304" style="fill: #d75728; fill-opacity: 0.45"/>
    </g>
    <g clip-path="url(#pf39b2b7a39)">
     <use xlink:href="#C3_0_d99e915992" x="111.264222" y="37.50624" style="fill: #d75728; fill-opacity: 0.45"/>
    </g>
    <g clip-path="url(#pf39b2b7a39)">
     <use xlink:href="#C3_0_d99e915992" x="110.515861" y="38.50416" style="fill: #d75728; fill-opacity: 0.45"/>
    </g>
    <g clip-path="url(#pf39b2b7a39)">
     <use xlink:href="#C3_0_d99e915992" x="113.279499" y="32.51664" style="fill: #d75728; fill-opacity: 0.45"/>
    </g>
    <g clip-path="url(#pf39b2b7a39)">
     <use xlink:href="#C3_0_d99e915992" x="114.369737" y="107.36064" style="fill: #d75728; fill-opacity: 0.45"/>
    </g>
    <g clip-path="url(#pf39b2b7a39)">
     <use xlink:href="#C3_0_d99e915992" x="113.259174" y="15.552" style="fill: #d75728; fill-opacity: 0.45"/>
    </g>
    <g clip-path="url(#pf39b2b7a39)">
     <use xlink:href="#C3_0_d99e915992" x="111.787099" y="62.45424" style="fill: #d75728; fill-opacity: 0.45"/>
    </g>
    <g clip-path="url(#pf39b2b7a39)">
     <use xlink:href="#C3_0_d99e915992" x="110.320452" y="22.53744" style="fill: #d75728; fill-opacity: 0.45"/>
    </g>
    <g clip-path="url(#pf39b2b7a39)">
     <use xlink:href="#C3_0_d99e915992" x="114.904325" y="45.4896" style="fill: #d75728; fill-opacity: 0.45"/>
    </g>
    <g clip-path="url(#pf39b2b7a39)">
     <use xlink:href="#C3_0_d99e915992" x="113.678531" y="53.47296" style="fill: #d75728; fill-opacity: 0.45"/>
    </g>
    <g clip-path="url(#pf39b2b7a39)">
     <use xlink:href="#C3_0_d99e915992" x="110.255678" y="15.552" style="fill: #d75728; fill-opacity: 0.45"/>
    </g>
    <g clip-path="url(#pf39b2b7a39)">
     <use xlink:href="#C3_0_d99e915992" x="114.674428" y="21.53952" style="fill: #d75728; fill-opacity: 0.45"/>
    </g>
    <g clip-path="url(#pf39b2b7a39)">
     <use xlink:href="#C3_0_d99e915992" x="115.382602" y="24.53328" style="fill: #d75728; fill-opacity: 0.45"/>
    </g>
    <g clip-path="url(#pf39b2b7a39)">
     <use xlink:href="#C3_0_d99e915992" x="110.246448" y="15.552" style="fill: #d75728; fill-opacity: 0.45"/>
    </g>
    <g clip-path="url(#pf39b2b7a39)">
     <use xlink:href="#C3_0_d99e915992" x="115.046416" y="65.448" style="fill: #d75728; fill-opacity: 0.45"/>
    </g>
    <g clip-path="url(#pf39b2b7a39)">
     <use xlink:href="#C3_0_d99e915992" x="112.465752" y="48.48336" style="fill: #d75728; fill-opacity: 0.45"/>
    </g>
    <g clip-path="url(#pf39b2b7a39)">
     <use xlink:href="#C3_0_d99e915992" x="114.434448" y="25.5312" style="fill: #d75728; fill-opacity: 0.45"/>
    </g>
    <g clip-path="url(#pf39b2b7a39)">
     <use xlink:href="#C3_0_d99e915992" x="110.274424" y="15.552" style="fill: #d75728; fill-opacity: 0.45"/>
    </g>
    <g clip-path="url(#pf39b2b7a39)">
     <use xlink:href="#C3_0_d99e915992" x="111.999459" y="23.53536" style="fill: #d75728; fill-opacity: 0.45"/>
    </g>
    <g clip-path="url(#pf39b2b7a39)">
     <use xlink:href="#C3_0_d99e915992" x="110.273853" y="98.37936" style="fill: #d75728; fill-opacity: 0.45"/>
    </g>
    <g clip-path="url(#pf39b2b7a39)">
     <use xlink:href="#C3_0_d99e915992" x="113.864142" y="34.51248" style="fill: #d75728; fill-opacity: 0.45"/>
    </g>
    <g clip-path="url(#pf39b2b7a39)">
     <use xlink:href="#C3_0_d99e915992" x="114.356945" y="15.552" style="fill: #d75728; fill-opacity: 0.45"/>
    </g>
    <g clip-path="url(#pf39b2b7a39)">
     <use xlink:href="#C3_0_d99e915992" x="114.726746" y="26.52912" style="fill: #d75728; fill-opacity: 0.45"/>
    </g>
    <g clip-path="url(#pf39b2b7a39)">
     <use xlink:href="#C3_0_d99e915992" x="112.797682" y="40.5" style="fill: #d75728; fill-opacity: 0.45"/>
    </g>
    <g clip-path="url(#pf39b2b7a39)">
     <use xlink:href="#C3_0_d99e915992" x="114.235556" y="15.552" style="fill: #d75728; fill-opacity: 0.45"/>
    </g>
    <g clip-path="url(#pf39b2b7a39)">
     <use xlink:href="#C3_0_d99e915992" x="112.231055" y="35.5104" style="fill: #d75728; fill-opacity: 0.45"/>
    </g>
    <g clip-path="url(#pf39b2b7a39)">
     <use xlink:href="#C3_0_d99e915992" x="110.462096" y="23.53536" style="fill: #d75728; fill-opacity: 0.45"/>
    </g>
    <g clip-path="url(#pf39b2b7a39)">
     <use xlink:href="#C3_0_d99e915992" x="112.803325" y="15.552" style="fill: #d75728; fill-opacity: 0.45"/>
    </g>
    <g clip-path="url(#pf39b2b7a39)">
     <use xlink:href="#C3_0_d99e915992" x="111.110877" y="65.448" style="fill: #d75728; fill-opacity: 0.45"/>
    </g>
    <g clip-path="url(#pf39b2b7a39)">
     <use xlink:href="#C3_0_d99e915992" x="110.077989" y="21.53952" style="fill: #d75728; fill-opacity: 0.45"/>
    </g>
    <g clip-path="url(#pf39b2b7a39)">
     <use xlink:href="#C3_0_d99e915992" x="114.512873" y="33.51456" style="fill: #d75728; fill-opacity: 0.45"/>
    </g>
    <g clip-path="url(#pf39b2b7a39)">
     <use xlink:href="#C3_0_d99e915992" x="114.158085" y="27.52704" style="fill: #d75728; fill-opacity: 0.45"/>
    </g>
    <g clip-path="url(#pf39b2b7a39)">
     <use xlink:href="#C3_0_d99e915992" x="110.474246" y="21.53952" style="fill: #d75728; fill-opacity: 0.45"/>
    </g>
    <g clip-path="url(#pf39b2b7a39)">
     <use xlink:href="#C3_0_d99e915992" x="114.411879" y="115.344" style="fill: #d75728; fill-opacity: 0.45"/>
    </g>
    <g clip-path="url(#pf39b2b7a39)">
     <use xlink:href="#C3_0_d99e915992" x="115.051893" y="34.51248" style="fill: #d75728; fill-opacity: 0.45"/>
    </g>
    <g clip-path="url(#pf39b2b7a39)">
     <use xlink:href="#C3_0_d99e915992" x="114.222385" y="15.552" style="fill: #d75728; fill-opacity: 0.45"/>
    </g>
    <g clip-path="url(#pf39b2b7a39)">
     <use xlink:href="#C3_0_d99e915992" x="112.080246" y="15.552" style="fill: #d75728; fill-opacity: 0.45"/>
    </g>
    <g clip-path="url(#pf39b2b7a39)">
     <use xlink:href="#C3_0_d99e915992" x="111.731051" y="15.552" style="fill: #d75728; fill-opacity: 0.45"/>
    </g>
    <g clip-path="url(#pf39b2b7a39)">
     <use xlink:href="#C3_0_d99e915992" x="112.168813" y="15.552" style="fill: #d75728; fill-opacity: 0.45"/>
    </g>
    <g clip-path="url(#pf39b2b7a39)">
     <use xlink:href="#C3_0_d99e915992" x="114.36995" y="21.53952" style="fill: #d75728; fill-opacity: 0.45"/>
    </g>
   </g>
   <g id="line2d_8">
    <path d="M 33.2055 21.478155 
L 36.2745 21.478155 
M 34.74 21.478155 
L 34.74 18.095996 
M 33.2055 18.095996 
L 36.2745 18.095996 
" clip-path="url(#pf39b2b7a39)" style="fill: none; stroke: #333333; stroke-width: 2.5; stroke-linecap: square"/>
   </g>
   <g id="line2d_9">
    <path d="M 89.0055 99.517778 
L 92.0745 99.517778 
M 90.54 99.517778 
L 90.54 91.934928 
M 89.0055 91.934928 
L 92.0745 91.934928 
" clip-path="url(#pf39b2b7a39)" style="fill: none; stroke: #333333; stroke-width: 2.5; stroke-linecap: square"/>
   </g>
   <g id="line2d_10">
    <path d="M 55.5255 95.204201 
L 58.5945 95.204201 
M 57.06 95.204201 
L 57.06 84.954972 
M 55.5255 84.954972 
L 58.5945 84.954972 
" clip-path="url(#pf39b2b7a39)" style="fill: none; stroke: #333333; stroke-width: 2.5; stroke-linecap: square"/>
   </g>
   <g id="line2d_11">
    <path d="M 111.3255 40.207918 
L 114.3945 40.207918 
M 112.86 40.207918 
L 112.86 32.175894 
M 111.3255 32.175894 
L 114.3945 32.175894 
" clip-path="url(#pf39b2b7a39)" style="fill: none; stroke: #333333; stroke-width: 2.5; stroke-linecap: square"/>
   </g>
   <g id="patch_15">
    <path d="M 18 115.344 
L 18 15.552 
" style="fill: none; stroke: #000000; stroke-linejoin: miter; stroke-linecap: square"/>
   </g>
   <g id="patch_16">
    <path d="M 18 115.344 
L 129.6 115.344 
" style="fill: none; stroke: #000000; stroke-linejoin: miter; stroke-linecap: square"/>
   </g>
   <g id="PathCollection_5">
    <defs>
     <path id="m7277d55c73" d="M 0 3 
C 0.795609 3 1.55874 2.683901 2.12132 2.12132 
C 2.683901 1.55874 3 0.795609 3 0 
C 3 -0.795609 2.683901 -1.55874 2.12132 -2.12132 
C 1.55874 -2.683901 0.795609 -3 0 -3 
C -0.795609 -3 -1.55874 -2.683901 -2.12132 -2.12132 
C -2.683901 -1.55874 -3 -0.795609 -3 0 
C -3 0.795609 -2.683901 1.55874 -2.12132 2.12132 
C -1.55874 2.683901 -0.795609 3 0 3 
z
"/>
    </defs>
    <g clip-path="url(#pf39b2b7a39)">
     <use xlink:href="#m7277d55c73" x="34.74" y="19.787075" style="fill: #333333"/>
    </g>
   </g>
   <g id="PathCollection_6">
    <g clip-path="url(#pf39b2b7a39)">
     <use xlink:href="#m7277d55c73" x="57.06" y="90.079586" style="fill: #333333"/>
    </g>
   </g>
   <g id="PathCollection_7">
    <g clip-path="url(#pf39b2b7a39)">
     <use xlink:href="#m7277d55c73" x="90.54" y="95.726353" style="fill: #333333"/>
    </g>
   </g>
   <g id="PathCollection_8">
    <g clip-path="url(#pf39b2b7a39)">
     <use xlink:href="#m7277d55c73" x="112.86" y="36.191906" style="fill: #333333"/>
    </g>
   </g>
   <g id="line2d_12"/>
   <g id="line2d_13"/>
  </g>
 </g>
 <defs>
  <clipPath id="pf39b2b7a39">
   <rect x="18" y="15.552" width="111.6" height="99.792"/>
  </clipPath>
 </defs>
</svg>
