<?xml version="1.0" encoding="utf-8" standalone="no"?>
<!DOCTYPE svg PUBLIC "-//W3C//DTD SVG 1.1//EN"
  "http://www.w3.org/Graphics/SVG/1.1/DTD/svg11.dtd">
<svg xmlns:xlink="http://www.w3.org/1999/xlink" width="144pt" height="129.6pt" viewBox="0 0 144 129.6" xmlns="http://www.w3.org/2000/svg" version="1.1">
 <metadata>
  <rdf:RDF xmlns:dc="http://purl.org/dc/elements/1.1/" xmlns:cc="http://creativecommons.org/ns#" xmlns:rdf="http://www.w3.org/1999/02/22-rdf-syntax-ns#">
   <cc:Work>
    <dc:type rdf:resource="http://purl.org/dc/dcmitype/StillImage"/>
    <dc:date>2025-04-14T00:19:46.466046</dc:date>
    <dc:format>image/svg+xml</dc:format>
    <dc:creator>
     <cc:Agent>
      <dc:title>Matplotlib v3.7.1, https://matplotlib.org/</dc:title>
     </cc:Agent>
    </dc:creator>
   </cc:Work>
  </rdf:RDF>
 </metadata>
 <defs>
  <style type="text/css">*{stroke-linejoin: round; stroke-linecap: butt}</style>
 </defs>
 <g id="figure_1">
  <g id="patch_1">
   <path d="M 0 129.6 
L 144 129.6 
L 144 0 
L 0 0 
L 0 129.6 
z
" style="fill: none"/>
  </g>
  <g id="axes_1">
   <g id="patch_2">
    <path d="M 18 115.344 
L 129.6 115.344 
L 129.6 15.552 
L 18 15.552 
L 18 115.344 
z
" style="fill: none"/>
   </g>
   <g id="PolyCollection_1">
    <path d="M 34.80022 67.637524 
L 34.67978 67.637524 
L 34.660237 67.018731 
L 34.636119 66.399938 
L 34.606957 65.781145 
L 34.572419 65.162353 
L 34.532369 64.54356 
L 34.486919 63.924767 
L 34.436475 63.305974 
L 34.381761 62.687181 
L 34.323821 62.068389 
L 34.264005 61.449596 
L 34.203912 60.830803 
L 34.145324 60.21201 
L 34.09011 59.593217 
L 34.04012 58.974425 
L 33.997082 58.355632 
L 33.962498 57.736839 
L 33.937557 57.118046 
L 33.923078 56.499253 
L 33.919467 55.880461 
L 33.92671 55.261668 
L 33.944392 54.642875 
L 33.971732 54.024082 
L 34.007643 53.405289 
L 34.050797 52.786497 
L 34.099701 52.167704 
L 34.152774 51.548911 
L 34.208416 50.930118 
L 34.26508 50.311325 
L 34.32133 49.692532 
L 34.375888 49.07374 
L 34.427676 48.454947 
L 34.475834 47.836154 
L 34.519739 47.217361 
L 34.558999 46.598568 
L 34.593439 45.979776 
L 34.623075 45.360983 
L 34.648085 44.74219 
L 34.668763 44.123397 
L 34.685481 43.504604 
L 34.698646 42.885812 
L 34.708652 42.267019 
L 34.715848 41.648226 
L 34.720495 41.029433 
L 34.722733 40.41064 
L 34.722547 39.791848 
L 34.719736 39.173055 
L 34.713876 38.554262 
L 34.704287 37.935469 
L 34.689999 37.316676 
L 34.669715 36.697884 
L 34.641776 36.079091 
L 34.604137 35.460298 
L 34.554346 34.841505 
L 34.489533 34.222712 
L 34.406421 33.60392 
L 34.301354 32.985127 
L 34.170342 32.366334 
L 34.009143 31.747541 
L 33.813367 31.128748 
L 33.578611 30.509956 
L 33.300636 29.891163 
L 32.975571 29.27237 
L 32.600163 28.653577 
L 32.172056 28.034784 
L 31.69011 27.415992 
L 31.154734 26.797199 
L 30.568236 26.178406 
L 29.935148 25.559613 
L 29.262517 24.94082 
L 28.560101 24.322028 
L 27.840455 23.703235 
L 27.118844 23.084442 
L 26.412962 22.465649 
L 25.742424 21.846856 
L 25.128038 21.228063 
L 24.590858 20.609271 
L 24.151075 19.990478 
L 23.826822 19.371685 
L 23.632963 18.752892 
L 23.58 18.134099 
L 23.673187 17.515307 
L 23.911964 16.896514 
L 24.289773 16.277721 
L 24.794303 15.658928 
L 25.408152 15.040135 
L 26.109869 14.421343 
L 26.875263 13.80255 
L 27.678891 13.183757 
L 28.495555 12.564964 
L 29.301713 11.946171 
L 30.076651 11.327379 
L 30.803354 10.708586 
L 31.469028 10.089793 
L 32.06525 9.471 
L 32.587796 8.852207 
L 33.036196 8.233415 
L 33.413103 7.614622 
L 33.723552 6.995829 
L 33.974199 6.377036 
L 35.505801 6.377036 
L 35.505801 6.377036 
L 35.756448 6.995829 
L 36.066897 7.614622 
L 36.443804 8.233415 
L 36.892204 8.852207 
L 37.41475 9.471 
L 38.010972 10.089793 
L 38.676646 10.708586 
L 39.403349 11.327379 
L 40.178287 11.946171 
L 40.984445 12.564964 
L 41.801109 13.183757 
L 42.604737 13.80255 
L 43.370131 14.421343 
L 44.071848 15.040135 
L 44.685697 15.658928 
L 45.190227 16.277721 
L 45.568036 16.896514 
L 45.806813 17.515307 
L 45.9 18.134099 
L 45.847037 18.752892 
L 45.653178 19.371685 
L 45.328925 19.990478 
L 44.889142 20.609271 
L 44.351962 21.228063 
L 43.737576 21.846856 
L 43.067038 22.465649 
L 42.361156 23.084442 
L 41.639545 23.703235 
L 40.919899 24.322028 
L 40.217483 24.94082 
L 39.544852 25.559613 
L 38.911764 26.178406 
L 38.325266 26.797199 
L 37.78989 27.415992 
L 37.307944 28.034784 
L 36.879837 28.653577 
L 36.504429 29.27237 
L 36.179364 29.891163 
L 35.901389 30.509956 
L 35.666633 31.128748 
L 35.470857 31.747541 
L 35.309658 32.366334 
L 35.178646 32.985127 
L 35.073579 33.60392 
L 34.990467 34.222712 
L 34.925654 34.841505 
L 34.875863 35.460298 
L 34.838224 36.079091 
L 34.810285 36.697884 
L 34.790001 37.316676 
L 34.775713 37.935469 
L 34.766124 38.554262 
L 34.760264 39.173055 
L 34.757453 39.791848 
L 34.757267 40.41064 
L 34.759505 41.029433 
L 34.764152 41.648226 
L 34.771348 42.267019 
L 34.781354 42.885812 
L 34.794519 43.504604 
L 34.811237 44.123397 
L 34.831915 44.74219 
L 34.856925 45.360983 
L 34.886561 45.979776 
L 34.921001 46.598568 
L 34.960261 47.217361 
L 35.004166 47.836154 
L 35.052324 48.454947 
L 35.104112 49.07374 
L 35.15867 49.692532 
L 35.21492 50.311325 
L 35.271584 50.930118 
L 35.327226 51.548911 
L 35.380299 52.167704 
L 35.429203 52.786497 
L 35.472357 53.405289 
L 35.508268 54.024082 
L 35.535608 54.642875 
L 35.55329 55.261668 
L 35.560533 55.880461 
L 35.556922 56.499253 
L 35.542443 57.118046 
L 35.517502 57.736839 
L 35.482918 58.355632 
L 35.43988 58.974425 
L 35.38989 59.593217 
L 35.334676 60.21201 
L 35.276088 60.830803 
L 35.215995 61.449596 
L 35.156179 62.068389 
L 35.098239 62.687181 
L 35.043525 63.305974 
L 34.993081 63.924767 
L 34.947631 64.54356 
L 34.907581 65.162353 
L 34.873043 65.781145 
L 34.843881 66.399938 
L 34.819763 67.018731 
L 34.80022 67.637524 
z
" clip-path="url(#p05be610583)" style="fill: #20415a; fill-opacity: 0.35"/>
   </g>
   <g id="PolyCollection_2">
    <path d="M 58.096401 149.375391 
L 56.023599 149.375391 
L 55.789459 147.679888 
L 55.517131 145.984385 
L 55.204068 144.288882 
L 54.848426 142.59338 
L 54.449267 140.897877 
L 54.006751 139.202374 
L 53.52232 137.506871 
L 52.998823 135.811368 
L 52.440614 134.115865 
L 51.853573 132.420362 
L 51.245063 130.72486 
L 50.623803 129.029357 
L 49.999672 127.333854 
L 49.38343 125.638351 
L 48.786384 123.942848 
L 48.219994 122.247345 
L 47.695462 120.551843 
L 47.223302 118.85634 
L 46.812931 117.160837 
L 46.472303 115.465334 
L 46.207598 113.769831 
L 46.022989 112.074328 
L 45.920508 110.378825 
L 45.9 108.683323 
L 45.959181 106.98782 
L 46.093783 105.292317 
L 46.297779 103.596814 
L 46.56367 101.901311 
L 46.882819 100.205808 
L 47.245805 98.510306 
L 47.642778 96.814803 
L 48.063801 95.1193 
L 48.499162 93.423797 
L 48.939636 91.728294 
L 49.376708 90.032791 
L 49.802728 88.337288 
L 50.211029 86.641786 
L 50.595982 84.946283 
L 50.953016 83.25078 
L 51.278601 81.555277 
L 51.570204 79.859774 
L 51.826227 78.164271 
L 52.045932 76.468769 
L 52.229361 74.773266 
L 52.377255 73.077763 
L 52.490975 71.38226 
L 52.572421 69.686757 
L 52.62396 67.991254 
L 52.648352 66.295751 
L 52.648673 64.600249 
L 52.628243 62.904746 
L 52.590548 61.209243 
L 52.539162 59.51374 
L 52.477665 57.818237 
L 52.409568 56.122734 
L 52.33823 54.427231 
L 52.26679 52.731729 
L 52.198108 51.036226 
L 52.13471 49.340723 
L 52.07876 47.64522 
L 52.032046 45.949717 
L 51.995978 44.254214 
L 51.971616 42.558712 
L 51.959703 40.863209 
L 51.960721 39.167706 
L 51.974944 37.472203 
L 52.002505 35.7767 
L 52.04345 34.081197 
L 52.097786 32.385694 
L 52.165522 30.690192 
L 52.246684 28.994689 
L 52.341314 27.299186 
L 52.449459 25.603683 
L 52.571129 23.90818 
L 52.706258 22.212677 
L 52.854646 20.517175 
L 53.015909 18.821672 
L 53.189428 17.126169 
L 53.37431 15.430666 
L 53.569369 13.735163 
L 53.773116 12.03966 
L 53.983784 10.344157 
L 54.199356 8.648655 
L 54.417628 6.953152 
L 54.636275 5.257649 
L 54.852927 3.562146 
L 55.065258 1.866643 
L 55.271064 0.17114 
L 55.46834 -1.524362 
L 55.655341 -3.219865 
L 55.830632 -4.915368 
L 55.993119 -6.610871 
L 56.142066 -8.306374 
L 56.277087 -10.001877 
L 56.398129 -11.69738 
L 56.505444 -13.392882 
L 56.599541 -15.088385 
L 56.681143 -16.783888 
L 56.751138 -18.479391 
L 57.368862 -18.479391 
L 57.368862 -18.479391 
L 57.438857 -16.783888 
L 57.520459 -15.088385 
L 57.614556 -13.392882 
L 57.721871 -11.69738 
L 57.842913 -10.001877 
L 57.977934 -8.306374 
L 58.126881 -6.610871 
L 58.289368 -4.915368 
L 58.464659 -3.219865 
L 58.65166 -1.524362 
L 58.848936 0.17114 
L 59.054742 1.866643 
L 59.267073 3.562146 
L 59.483725 5.257649 
L 59.702372 6.953152 
L 59.920644 8.648655 
L 60.136216 10.344157 
L 60.346884 12.03966 
L 60.550631 13.735163 
L 60.74569 15.430666 
L 60.930572 17.126169 
L 61.104091 18.821672 
L 61.265354 20.517175 
L 61.413742 22.212677 
L 61.548871 23.90818 
L 61.670541 25.603683 
L 61.778686 27.299186 
L 61.873316 28.994689 
L 61.954478 30.690192 
L 62.022214 32.385694 
L 62.07655 34.081197 
L 62.117495 35.7767 
L 62.145056 37.472203 
L 62.159279 39.167706 
L 62.160297 40.863209 
L 62.148384 42.558712 
L 62.124022 44.254214 
L 62.087954 45.949717 
L 62.04124 47.64522 
L 61.98529 49.340723 
L 61.921892 51.036226 
L 61.85321 52.731729 
L 61.78177 54.427231 
L 61.710432 56.122734 
L 61.642335 57.818237 
L 61.580838 59.51374 
L 61.529452 61.209243 
L 61.491757 62.904746 
L 61.471327 64.600249 
L 61.471648 66.295751 
L 61.49604 67.991254 
L 61.547579 69.686757 
L 61.629025 71.38226 
L 61.742745 73.077763 
L 61.890639 74.773266 
L 62.074068 76.468769 
L 62.293773 78.164271 
L 62.549796 79.859774 
L 62.841399 81.555277 
L 63.166984 83.25078 
L 63.524018 84.946283 
L 63.908971 86.641786 
L 64.317272 88.337288 
L 64.743292 90.032791 
L 65.180364 91.728294 
L 65.620838 93.423797 
L 66.056199 95.1193 
L 66.477222 96.814803 
L 66.874195 98.510306 
L 67.237181 100.205808 
L 67.55633 101.901311 
L 67.822221 103.596814 
L 68.026217 105.292317 
L 68.160819 106.98782 
L 68.22 108.683323 
L 68.199492 110.378825 
L 68.097011 112.074328 
L 67.912402 113.769831 
L 67.647697 115.465334 
L 67.307069 117.160837 
L 66.896698 118.85634 
L 66.424538 120.551843 
L 65.900006 122.247345 
L 65.333616 123.942848 
L 64.73657 125.638351 
L 64.120328 127.333854 
L 63.496197 129.029357 
L 62.874937 130.72486 
L 62.266427 132.420362 
L 61.679386 134.115865 
L 61.121177 135.811368 
L 60.59768 137.506871 
L 60.113249 139.202374 
L 59.670733 140.897877 
L 59.271574 142.59338 
L 58.915932 144.288882 
L 58.602869 145.984385 
L 58.330541 147.679888 
L 58.096401 149.375391 
z
" clip-path="url(#p05be610583)" style="fill: #c1613e; fill-opacity: 0.35"/>
   </g>
   <g id="PolyCollection_3">
    <path d="M 91.329369 135.987848 
L 89.750631 135.987848 
L 89.537383 134.804721 
L 89.281899 133.621593 
L 88.980251 132.438466 
L 88.629319 131.255338 
L 88.227113 130.072211 
L 87.773083 128.889083 
L 87.268402 127.705956 
L 86.716187 126.522828 
L 86.121632 125.339701 
L 85.492032 124.156574 
L 84.836687 122.973446 
L 84.166672 121.790319 
L 83.494486 120.607191 
L 82.83359 119.424064 
L 82.197861 118.240936 
L 81.601006 117.057809 
L 81.055965 115.874682 
L 80.574349 114.691554 
L 80.165959 113.508427 
L 79.838407 112.325299 
L 79.596879 111.142172 
L 79.444025 109.959044 
L 79.38 108.775917 
L 79.40263 107.59279 
L 79.507673 106.409662 
L 79.689161 105.226535 
L 79.939775 104.043407 
L 80.251231 102.86028 
L 80.614642 101.677152 
L 81.020843 100.494025 
L 81.460662 99.310898 
L 81.925128 98.12777 
L 82.405628 96.944643 
L 82.894015 95.761515 
L 83.38268 94.578388 
L 83.864604 93.39526 
L 84.333397 92.212133 
L 84.783334 91.029005 
L 85.209398 89.845878 
L 85.607331 88.662751 
L 85.973677 87.479623 
L 86.305838 86.296496 
L 86.602109 85.113368 
L 86.861705 83.930241 
L 87.084757 82.747113 
L 87.272285 81.563986 
L 87.426138 80.380859 
L 87.548897 79.197731 
L 87.643754 78.014604 
L 87.714362 76.831476 
L 87.764672 75.648349 
L 87.798758 74.465221 
L 87.820646 73.282094 
L 87.834159 72.098967 
L 87.842775 70.915839 
L 87.849525 69.732712 
L 87.856921 68.549584 
L 87.866916 67.366457 
L 87.880912 66.183329 
L 87.89979 65.000202 
L 87.923976 63.817075 
L 87.953518 62.633947 
L 87.988182 61.45082 
L 88.027545 60.267692 
L 88.071082 59.084565 
L 88.118246 57.901437 
L 88.168527 56.71831 
L 88.221502 55.535182 
L 88.276854 54.352055 
L 88.334394 53.168928 
L 88.39405 51.9858 
L 88.45586 50.802673 
L 88.519952 49.619545 
L 88.586517 48.436418 
L 88.655782 47.25329 
L 88.727977 46.070163 
L 88.803302 44.887036 
L 88.881895 43.703908 
L 88.963801 42.520781 
L 89.048942 41.337653 
L 89.137098 40.154526 
L 89.227889 38.971398 
L 89.320773 37.788271 
L 89.41505 36.605144 
L 89.509885 35.422016 
L 89.604336 34.238889 
L 89.697393 33.055761 
L 89.788027 31.872634 
L 89.875238 30.689506 
L 89.958105 29.506379 
L 90.035824 28.323252 
L 90.107751 27.140124 
L 90.173417 25.956997 
L 90.232547 24.773869 
L 90.285052 23.590742 
L 90.331023 22.407614 
L 90.370709 21.224487 
L 90.404486 20.041359 
L 90.432826 18.858232 
L 90.647174 18.858232 
L 90.647174 18.858232 
L 90.675514 20.041359 
L 90.709291 21.224487 
L 90.748977 22.407614 
L 90.794948 23.590742 
L 90.847453 24.773869 
L 90.906583 25.956997 
L 90.972249 27.140124 
L 91.044176 28.323252 
L 91.121895 29.506379 
L 91.204762 30.689506 
L 91.291973 31.872634 
L 91.382607 33.055761 
L 91.475664 34.238889 
L 91.570115 35.422016 
L 91.66495 36.605144 
L 91.759227 37.788271 
L 91.852111 38.971398 
L 91.942902 40.154526 
L 92.031058 41.337653 
L 92.116199 42.520781 
L 92.198105 43.703908 
L 92.276698 44.887036 
L 92.352023 46.070163 
L 92.424218 47.25329 
L 92.493483 48.436418 
L 92.560048 49.619545 
L 92.62414 50.802673 
L 92.68595 51.9858 
L 92.745606 53.168928 
L 92.803146 54.352055 
L 92.858498 55.535182 
L 92.911473 56.71831 
L 92.961754 57.901437 
L 93.008918 59.084565 
L 93.052455 60.267692 
L 93.091818 61.45082 
L 93.126482 62.633947 
L 93.156024 63.817075 
L 93.18021 65.000202 
L 93.199088 66.183329 
L 93.213084 67.366457 
L 93.223079 68.549584 
L 93.230475 69.732712 
L 93.237225 70.915839 
L 93.245841 72.098967 
L 93.259354 73.282094 
L 93.281242 74.465221 
L 93.315328 75.648349 
L 93.365638 76.831476 
L 93.436246 78.014604 
L 93.531103 79.197731 
L 93.653862 80.380859 
L 93.807715 81.563986 
L 93.995243 82.747113 
L 94.218295 83.930241 
L 94.477891 85.113368 
L 94.774162 86.296496 
L 95.106323 87.479623 
L 95.472669 88.662751 
L 95.870602 89.845878 
L 96.296666 91.029005 
L 96.746603 92.212133 
L 97.215396 93.39526 
L 97.69732 94.578388 
L 98.185985 95.761515 
L 98.674372 96.944643 
L 99.154872 98.12777 
L 99.619338 99.310898 
L 100.059157 100.494025 
L 100.465358 101.677152 
L 100.828769 102.86028 
L 101.140225 104.043407 
L 101.390839 105.226535 
L 101.572327 106.409662 
L 101.67737 107.59279 
L 101.7 108.775917 
L 101.635975 109.959044 
L 101.483121 111.142172 
L 101.241593 112.325299 
L 100.914041 113.508427 
L 100.505651 114.691554 
L 100.024035 115.874682 
L 99.478994 117.057809 
L 98.882139 118.240936 
L 98.24641 119.424064 
L 97.585514 120.607191 
L 96.913328 121.790319 
L 96.243313 122.973446 
L 95.587968 124.156574 
L 94.958368 125.339701 
L 94.363813 126.522828 
L 93.811598 127.705956 
L 93.306917 128.889083 
L 92.852887 130.072211 
L 92.450681 131.255338 
L 92.099749 132.438466 
L 91.798101 133.621593 
L 91.542617 134.804721 
L 91.329369 135.987848 
z
" clip-path="url(#p05be610583)" style="fill: #20415a; fill-opacity: 0.35"/>
   </g>
   <g id="PolyCollection_4">
    <path d="M 112.983375 143.064742 
L 112.736625 143.064742 
L 112.704082 141.496727 
L 112.665221 139.928712 
L 112.619451 138.360697 
L 112.566283 136.792682 
L 112.50538 135.224667 
L 112.436596 133.656652 
L 112.360017 132.088637 
L 112.275994 130.520622 
L 112.185168 128.952607 
L 112.088479 127.384592 
L 111.987164 125.816577 
L 111.882733 124.248562 
L 111.776938 122.680547 
L 111.671712 121.112532 
L 111.569104 119.544517 
L 111.471194 117.976502 
L 111.380006 116.408487 
L 111.297409 114.840472 
L 111.225022 113.272457 
L 111.164126 111.704442 
L 111.115582 110.136427 
L 111.07977 108.568412 
L 111.056541 107.000397 
L 111.045204 105.432382 
L 111.04453 103.864367 
L 111.052788 102.296352 
L 111.067815 100.728337 
L 111.087104 99.160322 
L 111.107925 97.592307 
L 111.12745 96.024292 
L 111.142906 94.456277 
L 111.151713 92.888262 
L 111.151627 91.320247 
L 111.140858 89.752232 
L 111.118171 88.184217 
L 111.082947 86.616202 
L 111.035211 85.048187 
L 110.975622 83.480172 
L 110.905414 81.912157 
L 110.826308 80.344142 
L 110.740387 78.776127 
L 110.649941 77.208112 
L 110.557298 75.640097 
L 110.464641 74.072082 
L 110.373823 72.504067 
L 110.286199 70.936052 
L 110.202466 69.368037 
L 110.122534 67.800022 
L 110.04543 66.232007 
L 109.969248 64.663993 
L 109.891141 63.095978 
L 109.807371 61.527963 
L 109.713412 59.959948 
L 109.604112 58.391933 
L 109.473904 56.823918 
L 109.317082 55.255903 
L 109.128098 53.687888 
L 108.901907 52.119873 
L 108.634315 50.551858 
L 108.322331 48.983843 
L 107.964486 47.415828 
L 107.561122 45.847813 
L 107.1146 44.279798 
L 106.629438 42.711783 
L 106.112342 41.143768 
L 105.572139 39.575753 
L 105.019587 38.007738 
L 104.467081 36.439723 
L 103.928258 34.871708 
L 103.417506 33.303693 
L 102.949421 31.735678 
L 102.538211 30.167663 
L 102.1971 28.599648 
L 101.937742 27.031633 
L 101.769701 25.463618 
L 101.7 23.895603 
L 101.73279 22.327588 
L 101.869137 20.759573 
L 102.106964 19.191558 
L 102.441126 17.623543 
L 102.863644 16.055528 
L 103.36406 14.487513 
L 103.92991 12.919498 
L 104.547276 11.351483 
L 105.201393 9.783468 
L 105.877264 8.215453 
L 106.560268 6.647438 
L 107.236697 5.079423 
L 107.894223 3.511408 
L 108.52226 1.943393 
L 109.112203 0.375378 
L 109.657557 -1.192637 
L 110.153936 -2.760652 
L 110.598975 -4.328667 
L 110.992139 -5.896682 
L 111.334479 -7.464697 
L 111.628339 -9.032712 
L 111.877055 -10.600727 
L 112.084647 -12.168742 
L 113.635353 -12.168742 
L 113.635353 -12.168742 
L 113.842945 -10.600727 
L 114.091661 -9.032712 
L 114.385521 -7.464697 
L 114.727861 -5.896682 
L 115.121025 -4.328667 
L 115.566064 -2.760652 
L 116.062443 -1.192637 
L 116.607797 0.375378 
L 117.19774 1.943393 
L 117.825777 3.511408 
L 118.483303 5.079423 
L 119.159732 6.647438 
L 119.842736 8.215453 
L 120.518607 9.783468 
L 121.172724 11.351483 
L 121.79009 12.919498 
L 122.35594 14.487513 
L 122.856356 16.055528 
L 123.278874 17.623543 
L 123.613036 19.191558 
L 123.850863 20.759573 
L 123.98721 22.327588 
L 124.02 23.895603 
L 123.950299 25.463618 
L 123.782258 27.031633 
L 123.5229 28.599648 
L 123.181789 30.167663 
L 122.770579 31.735678 
L 122.302494 33.303693 
L 121.791742 34.871708 
L 121.252919 36.439723 
L 120.700413 38.007738 
L 120.147861 39.575753 
L 119.607658 41.143768 
L 119.090562 42.711783 
L 118.6054 44.279798 
L 118.158878 45.847813 
L 117.755514 47.415828 
L 117.397669 48.983843 
L 117.085685 50.551858 
L 116.818093 52.119873 
L 116.591902 53.687888 
L 116.402918 55.255903 
L 116.246096 56.823918 
L 116.115888 58.391933 
L 116.006588 59.959948 
L 115.912629 61.527963 
L 115.828859 63.095978 
L 115.750752 64.663993 
L 115.67457 66.232007 
L 115.597466 67.800022 
L 115.517534 69.368037 
L 115.433801 70.936052 
L 115.346177 72.504067 
L 115.255359 74.072082 
L 115.162702 75.640097 
L 115.070059 77.208112 
L 114.979613 78.776127 
L 114.893692 80.344142 
L 114.814586 81.912157 
L 114.744378 83.480172 
L 114.684789 85.048187 
L 114.637053 86.616202 
L 114.601829 88.184217 
L 114.579142 89.752232 
L 114.568373 91.320247 
L 114.568287 92.888262 
L 114.577094 94.456277 
L 114.59255 96.024292 
L 114.612075 97.592307 
L 114.632896 99.160322 
L 114.652185 100.728337 
L 114.667212 102.296352 
L 114.67547 103.864367 
L 114.674796 105.432382 
L 114.663459 107.000397 
L 114.64023 108.568412 
L 114.604418 110.136427 
L 114.555874 111.704442 
L 114.494978 113.272457 
L 114.422591 114.840472 
L 114.339994 116.408487 
L 114.248806 117.976502 
L 114.150896 119.544517 
L 114.048288 121.112532 
L 113.943062 122.680547 
L 113.837267 124.248562 
L 113.732836 125.816577 
L 113.631521 127.384592 
L 113.534832 128.952607 
L 113.444006 130.520622 
L 113.359983 132.088637 
L 113.283404 133.656652 
L 113.21462 135.224667 
L 113.153717 136.792682 
L 113.100549 138.360697 
L 113.054779 139.928712 
L 113.015918 141.496727 
L 112.983375 143.064742 
z
" clip-path="url(#p05be610583)" style="fill: #c1613e; fill-opacity: 0.35"/>
   </g>
   <g id="patch_3">
    <path d="M 23.58 115.344 
L 45.9 115.344 
L 45.9 21.140352 
L 23.58 21.140352 
L 23.58 115.344 
z
" clip-path="url(#p05be610583)" style="fill: none"/>
   </g>
   <g id="patch_4">
    <path d="M 79.38 115.344 
L 101.7 115.344 
L 101.7 95.984352 
L 79.38 95.984352 
L 79.38 115.344 
z
" clip-path="url(#p05be610583)" style="fill: none"/>
   </g>
   <g id="patch_5">
    <path d="M 45.9 115.344 
L 68.22 115.344 
L 68.22 81.392544 
L 45.9 81.392544 
L 45.9 115.344 
z
" clip-path="url(#p05be610583)" style="fill: none"/>
   </g>
   <g id="patch_6">
    <path d="M 101.7 115.344 
L 124.02 115.344 
L 124.02 39.9456 
L 101.7 39.9456 
L 101.7 115.344 
z
" clip-path="url(#p05be610583)" style="fill: none"/>
   </g>
   <g id="patch_7">
    <path d="M 45.9 115.344 
L 45.9 115.344 
L 45.9 115.344 
L 45.9 115.344 
z
" clip-path="url(#p05be610583)" style="fill: #3274a1"/>
   </g>
   <g id="patch_8">
    <path d="M 45.9 115.344 
L 45.9 115.344 
L 45.9 115.344 
L 45.9 115.344 
z
" clip-path="url(#p05be610583)" style="fill: #e1812c"/>
   </g>
   <g id="patch_9">
    <path d="M 23.58 115.344 
L 45.9 115.344 
L 45.9 21.140352 
L 23.58 21.140352 
z
" clip-path="url(#p05be610583)" style="fill: #20415a; opacity: 0.3; stroke: #000000; stroke-linejoin: miter"/>
   </g>
   <g id="patch_10">
    <path d="M 79.38 115.344 
L 101.7 115.344 
L 101.7 95.984352 
L 79.38 95.984352 
z
" clip-path="url(#p05be610583)" style="fill: #20415a; opacity: 0.3; stroke: #000000; stroke-linejoin: miter"/>
   </g>
   <g id="patch_11">
    <path d="M 45.9 115.344 
L 68.22 115.344 
L 68.22 81.392544 
L 45.9 81.392544 
z
" clip-path="url(#p05be610583)" style="fill: #c1613e; opacity: 0.3; stroke: #000000; stroke-linejoin: miter"/>
   </g>
   <g id="patch_12">
    <path d="M 101.7 115.344 
L 124.02 115.344 
L 124.02 39.9456 
L 101.7 39.9456 
z
" clip-path="url(#p05be610583)" style="fill: #c1613e; opacity: 0.3; stroke: #000000; stroke-linejoin: miter"/>
   </g>
   <g id="patch_13">
    <path d="M 45.9 115.344 
L 45.9 115.344 
L 45.9 115.344 
L 45.9 115.344 
z
" clip-path="url(#p05be610583)" style="fill: #20415a; opacity: 0.3; stroke: #000000; stroke-linejoin: miter"/>
   </g>
   <g id="patch_14">
    <path d="M 45.9 115.344 
L 45.9 115.344 
L 45.9 115.344 
L 45.9 115.344 
z
" clip-path="url(#p05be610583)" style="fill: #c1613e; opacity: 0.3; stroke: #000000; stroke-linejoin: miter"/>
   </g>
   <g id="matplotlib.axis_1">
    <g id="xtick_1">
     <g id="line2d_1">
      <defs>
       <path id="ma1afbb599c" d="M 0 0 
L 0 3.5 
" style="stroke: #000000"/>
      </defs>
      <g>
       <use xlink:href="#ma1afbb599c" x="45.9" y="115.344" style="stroke: #000000"/>
      </g>
     </g>
     <g id="text_1">
      <!-- unpunished -->
      <g transform="translate(20.045312 129.501812) scale(0.1 -0.1)">
       <defs>
        <path id="ArialMT-75" d="M 2597 0 
L 2597 488 
Q 2209 -75 1544 -75 
Q 1250 -75 995 37 
Q 741 150 617 320 
Q 494 491 444 738 
Q 409 903 409 1263 
L 409 3319 
L 972 3319 
L 972 1478 
Q 972 1038 1006 884 
Q 1059 663 1231 536 
Q 1403 409 1656 409 
Q 1909 409 2131 539 
Q 2353 669 2445 892 
Q 2538 1116 2538 1541 
L 2538 3319 
L 3100 3319 
L 3100 0 
L 2597 0 
z
" transform="scale(0.015625)"/>
        <path id="ArialMT-6e" d="M 422 0 
L 422 3319 
L 928 3319 
L 928 2847 
Q 1294 3394 1984 3394 
Q 2284 3394 2536 3286 
Q 2788 3178 2913 3003 
Q 3038 2828 3088 2588 
Q 3119 2431 3119 2041 
L 3119 0 
L 2556 0 
L 2556 2019 
Q 2556 2363 2490 2533 
Q 2425 2703 2258 2804 
Q 2091 2906 1866 2906 
Q 1506 2906 1245 2678 
Q 984 2450 984 1813 
L 984 0 
L 422 0 
z
" transform="scale(0.015625)"/>
        <path id="ArialMT-70" d="M 422 -1272 
L 422 3319 
L 934 3319 
L 934 2888 
Q 1116 3141 1344 3267 
Q 1572 3394 1897 3394 
Q 2322 3394 2647 3175 
Q 2972 2956 3137 2557 
Q 3303 2159 3303 1684 
Q 3303 1175 3120 767 
Q 2938 359 2589 142 
Q 2241 -75 1856 -75 
Q 1575 -75 1351 44 
Q 1128 163 984 344 
L 984 -1272 
L 422 -1272 
z
M 931 1641 
Q 931 1000 1190 694 
Q 1450 388 1819 388 
Q 2194 388 2461 705 
Q 2728 1022 2728 1688 
Q 2728 2322 2467 2637 
Q 2206 2953 1844 2953 
Q 1484 2953 1207 2617 
Q 931 2281 931 1641 
z
" transform="scale(0.015625)"/>
        <path id="ArialMT-69" d="M 425 3934 
L 425 4581 
L 988 4581 
L 988 3934 
L 425 3934 
z
M 425 0 
L 425 3319 
L 988 3319 
L 988 0 
L 425 0 
z
" transform="scale(0.015625)"/>
        <path id="ArialMT-73" d="M 197 991 
L 753 1078 
Q 800 744 1014 566 
Q 1228 388 1613 388 
Q 2000 388 2187 545 
Q 2375 703 2375 916 
Q 2375 1106 2209 1216 
Q 2094 1291 1634 1406 
Q 1016 1563 777 1677 
Q 538 1791 414 1992 
Q 291 2194 291 2438 
Q 291 2659 392 2848 
Q 494 3038 669 3163 
Q 800 3259 1026 3326 
Q 1253 3394 1513 3394 
Q 1903 3394 2198 3281 
Q 2494 3169 2634 2976 
Q 2775 2784 2828 2463 
L 2278 2388 
Q 2241 2644 2061 2787 
Q 1881 2931 1553 2931 
Q 1166 2931 1000 2803 
Q 834 2675 834 2503 
Q 834 2394 903 2306 
Q 972 2216 1119 2156 
Q 1203 2125 1616 2013 
Q 2213 1853 2448 1751 
Q 2684 1650 2818 1456 
Q 2953 1263 2953 975 
Q 2953 694 2789 445 
Q 2625 197 2315 61 
Q 2006 -75 1616 -75 
Q 969 -75 630 194 
Q 291 463 197 991 
z
" transform="scale(0.015625)"/>
        <path id="ArialMT-68" d="M 422 0 
L 422 4581 
L 984 4581 
L 984 2938 
Q 1378 3394 1978 3394 
Q 2347 3394 2619 3248 
Q 2891 3103 3008 2847 
Q 3125 2591 3125 2103 
L 3125 0 
L 2563 0 
L 2563 2103 
Q 2563 2525 2380 2717 
Q 2197 2909 1863 2909 
Q 1613 2909 1392 2779 
Q 1172 2650 1078 2428 
Q 984 2206 984 1816 
L 984 0 
L 422 0 
z
" transform="scale(0.015625)"/>
        <path id="ArialMT-65" d="M 2694 1069 
L 3275 997 
Q 3138 488 2766 206 
Q 2394 -75 1816 -75 
Q 1088 -75 661 373 
Q 234 822 234 1631 
Q 234 2469 665 2931 
Q 1097 3394 1784 3394 
Q 2450 3394 2872 2941 
Q 3294 2488 3294 1666 
Q 3294 1616 3291 1516 
L 816 1516 
Q 847 969 1125 678 
Q 1403 388 1819 388 
Q 2128 388 2347 550 
Q 2566 713 2694 1069 
z
M 847 1978 
L 2700 1978 
Q 2663 2397 2488 2606 
Q 2219 2931 1791 2931 
Q 1403 2931 1139 2672 
Q 875 2413 847 1978 
z
" transform="scale(0.015625)"/>
        <path id="ArialMT-64" d="M 2575 0 
L 2575 419 
Q 2259 -75 1647 -75 
Q 1250 -75 917 144 
Q 584 363 401 755 
Q 219 1147 219 1656 
Q 219 2153 384 2558 
Q 550 2963 881 3178 
Q 1213 3394 1622 3394 
Q 1922 3394 2156 3267 
Q 2391 3141 2538 2938 
L 2538 4581 
L 3097 4581 
L 3097 0 
L 2575 0 
z
M 797 1656 
Q 797 1019 1065 703 
Q 1334 388 1700 388 
Q 2069 388 2326 689 
Q 2584 991 2584 1609 
Q 2584 2291 2321 2609 
Q 2059 2928 1675 2928 
Q 1300 2928 1048 2622 
Q 797 2316 797 1656 
z
" transform="scale(0.015625)"/>
       </defs>
       <use xlink:href="#ArialMT-75"/>
       <use xlink:href="#ArialMT-6e" x="55.615234"/>
       <use xlink:href="#ArialMT-70" x="111.230469"/>
       <use xlink:href="#ArialMT-75" x="166.845703"/>
       <use xlink:href="#ArialMT-6e" x="222.460938"/>
       <use xlink:href="#ArialMT-69" x="278.076172"/>
       <use xlink:href="#ArialMT-73" x="300.292969"/>
       <use xlink:href="#ArialMT-68" x="350.292969"/>
       <use xlink:href="#ArialMT-65" x="405.908203"/>
       <use xlink:href="#ArialMT-64" x="461.523438"/>
      </g>
     </g>
    </g>
    <g id="xtick_2">
     <g id="line2d_2">
      <g>
       <use xlink:href="#ma1afbb599c" x="101.7" y="115.344" style="stroke: #000000"/>
      </g>
     </g>
     <g id="text_2">
      <!-- punished -->
      <g transform="translate(81.40625 129.501812) scale(0.1 -0.1)">
       <use xlink:href="#ArialMT-70"/>
       <use xlink:href="#ArialMT-75" x="55.615234"/>
       <use xlink:href="#ArialMT-6e" x="111.230469"/>
       <use xlink:href="#ArialMT-69" x="166.845703"/>
       <use xlink:href="#ArialMT-73" x="189.0625"/>
       <use xlink:href="#ArialMT-68" x="239.0625"/>
       <use xlink:href="#ArialMT-65" x="294.677734"/>
       <use xlink:href="#ArialMT-64" x="350.292969"/>
      </g>
     </g>
    </g>
   </g>
   <g id="matplotlib.axis_2">
    <g id="ytick_1">
     <g id="line2d_3">
      <defs>
       <path id="mf4ac716ea5" d="M 0 0 
L -3.5 0 
" style="stroke: #000000"/>
      </defs>
      <g>
       <use xlink:href="#mf4ac716ea5" x="18" y="115.344" style="stroke: #000000"/>
      </g>
     </g>
     <g id="text_3">
      <!-- 0.00 -->
      <g transform="translate(-8.460938 118.922906) scale(0.1 -0.1)">
       <defs>
        <path id="ArialMT-30" d="M 266 2259 
Q 266 3072 433 3567 
Q 600 4063 929 4331 
Q 1259 4600 1759 4600 
Q 2128 4600 2406 4451 
Q 2684 4303 2865 4023 
Q 3047 3744 3150 3342 
Q 3253 2941 3253 2259 
Q 3253 1453 3087 958 
Q 2922 463 2592 192 
Q 2263 -78 1759 -78 
Q 1097 -78 719 397 
Q 266 969 266 2259 
z
M 844 2259 
Q 844 1131 1108 757 
Q 1372 384 1759 384 
Q 2147 384 2411 759 
Q 2675 1134 2675 2259 
Q 2675 3391 2411 3762 
Q 2147 4134 1753 4134 
Q 1366 4134 1134 3806 
Q 844 3388 844 2259 
z
" transform="scale(0.015625)"/>
        <path id="ArialMT-2e" d="M 581 0 
L 581 641 
L 1222 641 
L 1222 0 
L 581 0 
z
" transform="scale(0.015625)"/>
       </defs>
       <use xlink:href="#ArialMT-30"/>
       <use xlink:href="#ArialMT-2e" x="55.615234"/>
       <use xlink:href="#ArialMT-30" x="83.398438"/>
       <use xlink:href="#ArialMT-30" x="139.013672"/>
      </g>
     </g>
    </g>
    <g id="ytick_2">
     <g id="line2d_4">
      <g>
       <use xlink:href="#mf4ac716ea5" x="18" y="90.396" style="stroke: #000000"/>
      </g>
     </g>
     <g id="text_4">
      <!-- 0.25 -->
      <g transform="translate(-8.460938 93.974906) scale(0.1 -0.1)">
       <defs>
        <path id="ArialMT-32" d="M 3222 541 
L 3222 0 
L 194 0 
Q 188 203 259 391 
Q 375 700 629 1000 
Q 884 1300 1366 1694 
Q 2113 2306 2375 2664 
Q 2638 3022 2638 3341 
Q 2638 3675 2398 3904 
Q 2159 4134 1775 4134 
Q 1369 4134 1125 3890 
Q 881 3647 878 3216 
L 300 3275 
Q 359 3922 746 4261 
Q 1134 4600 1788 4600 
Q 2447 4600 2831 4234 
Q 3216 3869 3216 3328 
Q 3216 3053 3103 2787 
Q 2991 2522 2730 2228 
Q 2469 1934 1863 1422 
Q 1356 997 1212 845 
Q 1069 694 975 541 
L 3222 541 
z
" transform="scale(0.015625)"/>
        <path id="ArialMT-35" d="M 266 1200 
L 856 1250 
Q 922 819 1161 601 
Q 1400 384 1738 384 
Q 2144 384 2425 690 
Q 2706 997 2706 1503 
Q 2706 1984 2436 2262 
Q 2166 2541 1728 2541 
Q 1456 2541 1237 2417 
Q 1019 2294 894 2097 
L 366 2166 
L 809 4519 
L 3088 4519 
L 3088 3981 
L 1259 3981 
L 1013 2750 
Q 1425 3038 1878 3038 
Q 2478 3038 2890 2622 
Q 3303 2206 3303 1553 
Q 3303 931 2941 478 
Q 2500 -78 1738 -78 
Q 1113 -78 717 272 
Q 322 622 266 1200 
z
" transform="scale(0.015625)"/>
       </defs>
       <use xlink:href="#ArialMT-30"/>
       <use xlink:href="#ArialMT-2e" x="55.615234"/>
       <use xlink:href="#ArialMT-32" x="83.398438"/>
       <use xlink:href="#ArialMT-35" x="139.013672"/>
      </g>
     </g>
    </g>
    <g id="ytick_3">
     <g id="line2d_5">
      <g>
       <use xlink:href="#mf4ac716ea5" x="18" y="65.448" style="stroke: #000000"/>
      </g>
     </g>
     <g id="text_5">
      <!-- 0.50 -->
      <g transform="translate(-8.460938 69.026906) scale(0.1 -0.1)">
       <use xlink:href="#ArialMT-30"/>
       <use xlink:href="#ArialMT-2e" x="55.615234"/>
       <use xlink:href="#ArialMT-35" x="83.398438"/>
       <use xlink:href="#ArialMT-30" x="139.013672"/>
      </g>
     </g>
    </g>
    <g id="ytick_4">
     <g id="line2d_6">
      <g>
       <use xlink:href="#mf4ac716ea5" x="18" y="40.5" style="stroke: #000000"/>
      </g>
     </g>
     <g id="text_6">
      <!-- 0.75 -->
      <g transform="translate(-8.460938 44.078906) scale(0.1 -0.1)">
       <defs>
        <path id="ArialMT-37" d="M 303 3981 
L 303 4522 
L 3269 4522 
L 3269 4084 
Q 2831 3619 2401 2847 
Q 1972 2075 1738 1259 
Q 1569 684 1522 0 
L 944 0 
Q 953 541 1156 1306 
Q 1359 2072 1739 2783 
Q 2119 3494 2547 3981 
L 303 3981 
z
" transform="scale(0.015625)"/>
       </defs>
       <use xlink:href="#ArialMT-30"/>
       <use xlink:href="#ArialMT-2e" x="55.615234"/>
       <use xlink:href="#ArialMT-37" x="83.398438"/>
       <use xlink:href="#ArialMT-35" x="139.013672"/>
      </g>
     </g>
    </g>
    <g id="ytick_5">
     <g id="line2d_7">
      <g>
       <use xlink:href="#mf4ac716ea5" x="18" y="15.552" style="stroke: #000000"/>
      </g>
     </g>
     <g id="text_7">
      <!-- 1.00 -->
      <g transform="translate(-8.460938 19.130906) scale(0.1 -0.1)">
       <defs>
        <path id="ArialMT-31" d="M 2384 0 
L 1822 0 
L 1822 3584 
Q 1619 3391 1289 3197 
Q 959 3003 697 2906 
L 697 3450 
Q 1169 3672 1522 3987 
Q 1875 4303 2022 4600 
L 2384 4600 
L 2384 0 
z
" transform="scale(0.015625)"/>
       </defs>
       <use xlink:href="#ArialMT-31"/>
       <use xlink:href="#ArialMT-2e" x="55.615234"/>
       <use xlink:href="#ArialMT-30" x="83.398438"/>
       <use xlink:href="#ArialMT-30" x="139.013672"/>
      </g>
     </g>
    </g>
    <g id="text_8">
     <!-- stay probability -->
     <g transform="translate(-14.565625 98.795656) rotate(-90) scale(0.1 -0.1)">
      <defs>
       <path id="ArialMT-74" d="M 1650 503 
L 1731 6 
Q 1494 -44 1306 -44 
Q 1000 -44 831 53 
Q 663 150 594 308 
Q 525 466 525 972 
L 525 2881 
L 113 2881 
L 113 3319 
L 525 3319 
L 525 4141 
L 1084 4478 
L 1084 3319 
L 1650 3319 
L 1650 2881 
L 1084 2881 
L 1084 941 
Q 1084 700 1114 631 
Q 1144 563 1211 522 
Q 1278 481 1403 481 
Q 1497 481 1650 503 
z
" transform="scale(0.015625)"/>
       <path id="ArialMT-61" d="M 2588 409 
Q 2275 144 1986 34 
Q 1697 -75 1366 -75 
Q 819 -75 525 192 
Q 231 459 231 875 
Q 231 1119 342 1320 
Q 453 1522 633 1644 
Q 813 1766 1038 1828 
Q 1203 1872 1538 1913 
Q 2219 1994 2541 2106 
Q 2544 2222 2544 2253 
Q 2544 2597 2384 2738 
Q 2169 2928 1744 2928 
Q 1347 2928 1158 2789 
Q 969 2650 878 2297 
L 328 2372 
Q 403 2725 575 2942 
Q 747 3159 1072 3276 
Q 1397 3394 1825 3394 
Q 2250 3394 2515 3294 
Q 2781 3194 2906 3042 
Q 3031 2891 3081 2659 
Q 3109 2516 3109 2141 
L 3109 1391 
Q 3109 606 3145 398 
Q 3181 191 3288 0 
L 2700 0 
Q 2613 175 2588 409 
z
M 2541 1666 
Q 2234 1541 1622 1453 
Q 1275 1403 1131 1340 
Q 988 1278 909 1158 
Q 831 1038 831 891 
Q 831 666 1001 516 
Q 1172 366 1500 366 
Q 1825 366 2078 508 
Q 2331 650 2450 897 
Q 2541 1088 2541 1459 
L 2541 1666 
z
" transform="scale(0.015625)"/>
       <path id="ArialMT-79" d="M 397 -1278 
L 334 -750 
Q 519 -800 656 -800 
Q 844 -800 956 -737 
Q 1069 -675 1141 -563 
Q 1194 -478 1313 -144 
Q 1328 -97 1363 -6 
L 103 3319 
L 709 3319 
L 1400 1397 
Q 1534 1031 1641 628 
Q 1738 1016 1872 1384 
L 2581 3319 
L 3144 3319 
L 1881 -56 
Q 1678 -603 1566 -809 
Q 1416 -1088 1222 -1217 
Q 1028 -1347 759 -1347 
Q 597 -1347 397 -1278 
z
" transform="scale(0.015625)"/>
       <path id="ArialMT-20" transform="scale(0.015625)"/>
       <path id="ArialMT-72" d="M 416 0 
L 416 3319 
L 922 3319 
L 922 2816 
Q 1116 3169 1280 3281 
Q 1444 3394 1641 3394 
Q 1925 3394 2219 3213 
L 2025 2691 
Q 1819 2813 1613 2813 
Q 1428 2813 1281 2702 
Q 1134 2591 1072 2394 
Q 978 2094 978 1738 
L 978 0 
L 416 0 
z
" transform="scale(0.015625)"/>
       <path id="ArialMT-6f" d="M 213 1659 
Q 213 2581 725 3025 
Q 1153 3394 1769 3394 
Q 2453 3394 2887 2945 
Q 3322 2497 3322 1706 
Q 3322 1066 3130 698 
Q 2938 331 2570 128 
Q 2203 -75 1769 -75 
Q 1072 -75 642 372 
Q 213 819 213 1659 
z
M 791 1659 
Q 791 1022 1069 705 
Q 1347 388 1769 388 
Q 2188 388 2466 706 
Q 2744 1025 2744 1678 
Q 2744 2294 2464 2611 
Q 2184 2928 1769 2928 
Q 1347 2928 1069 2612 
Q 791 2297 791 1659 
z
" transform="scale(0.015625)"/>
       <path id="ArialMT-62" d="M 941 0 
L 419 0 
L 419 4581 
L 981 4581 
L 981 2947 
Q 1338 3394 1891 3394 
Q 2197 3394 2470 3270 
Q 2744 3147 2920 2923 
Q 3097 2700 3197 2384 
Q 3297 2069 3297 1709 
Q 3297 856 2875 390 
Q 2453 -75 1863 -75 
Q 1275 -75 941 416 
L 941 0 
z
M 934 1684 
Q 934 1088 1097 822 
Q 1363 388 1816 388 
Q 2184 388 2453 708 
Q 2722 1028 2722 1663 
Q 2722 2313 2464 2622 
Q 2206 2931 1841 2931 
Q 1472 2931 1203 2611 
Q 934 2291 934 1684 
z
" transform="scale(0.015625)"/>
       <path id="ArialMT-6c" d="M 409 0 
L 409 4581 
L 972 4581 
L 972 0 
L 409 0 
z
" transform="scale(0.015625)"/>
      </defs>
      <use xlink:href="#ArialMT-73"/>
      <use xlink:href="#ArialMT-74" x="50"/>
      <use xlink:href="#ArialMT-61" x="77.783203"/>
      <use xlink:href="#ArialMT-79" x="133.398438"/>
      <use xlink:href="#ArialMT-20" x="183.398438"/>
      <use xlink:href="#ArialMT-70" x="211.181641"/>
      <use xlink:href="#ArialMT-72" x="266.796875"/>
      <use xlink:href="#ArialMT-6f" x="300.097656"/>
      <use xlink:href="#ArialMT-62" x="355.712891"/>
      <use xlink:href="#ArialMT-61" x="411.328125"/>
      <use xlink:href="#ArialMT-62" x="466.943359"/>
      <use xlink:href="#ArialMT-69" x="522.558594"/>
      <use xlink:href="#ArialMT-6c" x="544.775391"/>
      <use xlink:href="#ArialMT-69" x="566.992188"/>
      <use xlink:href="#ArialMT-74" x="589.208984"/>
      <use xlink:href="#ArialMT-79" x="616.992188"/>
     </g>
    </g>
   </g>
   <g id="PathCollection_1">
    <defs>
     <path id="C0_0_83fd8a84de" d="M 0 3.5 
C 0.928211 3.5 1.81853 3.131218 2.474874 2.474874 
C 3.131218 1.81853 3.5 0.928211 3.5 -0 
C 3.5 -0.928211 3.131218 -1.81853 2.474874 -2.474874 
C 1.81853 -3.131218 0.928211 -3.5 0 -3.5 
C -0.928211 -3.5 -1.81853 -3.131218 -2.474874 -2.474874 
C -3.131218 -1.81853 -3.5 -0.928211 -3.5 0 
C -3.5 0.928211 -3.131218 1.81853 -2.474874 2.474874 
C -1.81853 3.131218 -0.928211 3.5 0 3.5 
z
"/>
    </defs>
    <g clip-path="url(#p05be610583)">
     <use xlink:href="#C0_0_83fd8a84de" x="35.621972" y="17.54784" style="fill: #174263; fill-opacity: 0.45"/>
    </g>
    <g clip-path="url(#p05be610583)">
     <use xlink:href="#C0_0_83fd8a84de" x="37.082571" y="21.53952" style="fill: #174263; fill-opacity: 0.45"/>
    </g>
    <g clip-path="url(#p05be610583)">
     <use xlink:href="#C0_0_83fd8a84de" x="35.279941" y="17.54784" style="fill: #174263; fill-opacity: 0.45"/>
    </g>
    <g clip-path="url(#p05be610583)">
     <use xlink:href="#C0_0_83fd8a84de" x="35.076418" y="17.54784" style="fill: #174263; fill-opacity: 0.45"/>
    </g>
    <g clip-path="url(#p05be610583)">
     <use xlink:href="#C0_0_83fd8a84de" x="36.572601" y="18.54576" style="fill: #174263; fill-opacity: 0.45"/>
    </g>
    <g clip-path="url(#p05be610583)">
     <use xlink:href="#C0_0_83fd8a84de" x="34.605155" y="58.46256" style="fill: #174263; fill-opacity: 0.45"/>
    </g>
    <g clip-path="url(#p05be610583)">
     <use xlink:href="#C0_0_83fd8a84de" x="35.722018" y="56.46672" style="fill: #174263; fill-opacity: 0.45"/>
    </g>
    <g clip-path="url(#p05be610583)">
     <use xlink:href="#C0_0_83fd8a84de" x="34.860327" y="19.54368" style="fill: #174263; fill-opacity: 0.45"/>
    </g>
    <g clip-path="url(#p05be610583)">
     <use xlink:href="#C0_0_83fd8a84de" x="33.989118" y="52.47504" style="fill: #174263; fill-opacity: 0.45"/>
    </g>
    <g clip-path="url(#p05be610583)">
     <use xlink:href="#C0_0_83fd8a84de" x="34.137486" y="15.552" style="fill: #174263; fill-opacity: 0.45"/>
    </g>
    <g clip-path="url(#p05be610583)">
     <use xlink:href="#C0_0_83fd8a84de" x="34.991148" y="15.552" style="fill: #174263; fill-opacity: 0.45"/>
    </g>
    <g clip-path="url(#p05be610583)">
     <use xlink:href="#C0_0_83fd8a84de" x="31.973107" y="17.54784" style="fill: #174263; fill-opacity: 0.45"/>
    </g>
    <g clip-path="url(#p05be610583)">
     <use xlink:href="#C0_0_83fd8a84de" x="33.354712" y="15.552" style="fill: #174263; fill-opacity: 0.45"/>
    </g>
    <g clip-path="url(#p05be610583)">
     <use xlink:href="#C0_0_83fd8a84de" x="33.892576" y="20.5416" style="fill: #174263; fill-opacity: 0.45"/>
    </g>
    <g clip-path="url(#p05be610583)">
     <use xlink:href="#C0_0_83fd8a84de" x="36.694037" y="26.52912" style="fill: #174263; fill-opacity: 0.45"/>
    </g>
    <g clip-path="url(#p05be610583)">
     <use xlink:href="#C0_0_83fd8a84de" x="35.083344" y="18.54576" style="fill: #174263; fill-opacity: 0.45"/>
    </g>
    <g clip-path="url(#p05be610583)">
     <use xlink:href="#C0_0_83fd8a84de" x="32.208729" y="15.552" style="fill: #174263; fill-opacity: 0.45"/>
    </g>
    <g clip-path="url(#p05be610583)">
     <use xlink:href="#C0_0_83fd8a84de" x="36.639102" y="15.552" style="fill: #174263; fill-opacity: 0.45"/>
    </g>
    <g clip-path="url(#p05be610583)">
     <use xlink:href="#C0_0_83fd8a84de" x="34.363347" y="20.5416" style="fill: #174263; fill-opacity: 0.45"/>
    </g>
    <g clip-path="url(#p05be610583)">
     <use xlink:href="#C0_0_83fd8a84de" x="32.836504" y="21.53952" style="fill: #174263; fill-opacity: 0.45"/>
    </g>
    <g clip-path="url(#p05be610583)">
     <use xlink:href="#C0_0_83fd8a84de" x="37.522824" y="21.53952" style="fill: #174263; fill-opacity: 0.45"/>
    </g>
    <g clip-path="url(#p05be610583)">
     <use xlink:href="#C0_0_83fd8a84de" x="33.937327" y="24.53328" style="fill: #174263; fill-opacity: 0.45"/>
    </g>
    <g clip-path="url(#p05be610583)">
     <use xlink:href="#C0_0_83fd8a84de" x="37.256474" y="22.53744" style="fill: #174263; fill-opacity: 0.45"/>
    </g>
    <g clip-path="url(#p05be610583)">
     <use xlink:href="#C0_0_83fd8a84de" x="33.828549" y="18.54576" style="fill: #174263; fill-opacity: 0.45"/>
    </g>
    <g clip-path="url(#p05be610583)">
     <use xlink:href="#C0_0_83fd8a84de" x="34.466369" y="17.54784" style="fill: #174263; fill-opacity: 0.45"/>
    </g>
    <g clip-path="url(#p05be610583)">
     <use xlink:href="#C0_0_83fd8a84de" x="35.516211" y="18.54576" style="fill: #174263; fill-opacity: 0.45"/>
    </g>
    <g clip-path="url(#p05be610583)">
     <use xlink:href="#C0_0_83fd8a84de" x="36.656233" y="17.54784" style="fill: #174263; fill-opacity: 0.45"/>
    </g>
    <g clip-path="url(#p05be610583)">
     <use xlink:href="#C0_0_83fd8a84de" x="32.100539" y="15.552" style="fill: #174263; fill-opacity: 0.45"/>
    </g>
    <g clip-path="url(#p05be610583)">
     <use xlink:href="#C0_0_83fd8a84de" x="35.389369" y="18.54576" style="fill: #174263; fill-opacity: 0.45"/>
    </g>
    <g clip-path="url(#p05be610583)">
     <use xlink:href="#C0_0_83fd8a84de" x="32.832442" y="18.54576" style="fill: #174263; fill-opacity: 0.45"/>
    </g>
    <g clip-path="url(#p05be610583)">
     <use xlink:href="#C0_0_83fd8a84de" x="34.847445" y="15.552" style="fill: #174263; fill-opacity: 0.45"/>
    </g>
    <g clip-path="url(#p05be610583)">
     <use xlink:href="#C0_0_83fd8a84de" x="35.917796" y="19.54368" style="fill: #174263; fill-opacity: 0.45"/>
    </g>
    <g clip-path="url(#p05be610583)">
     <use xlink:href="#C0_0_83fd8a84de" x="36.15025" y="18.54576" style="fill: #174263; fill-opacity: 0.45"/>
    </g>
    <g clip-path="url(#p05be610583)">
     <use xlink:href="#C0_0_83fd8a84de" x="35.610438" y="18.54576" style="fill: #174263; fill-opacity: 0.45"/>
    </g>
    <g clip-path="url(#p05be610583)">
     <use xlink:href="#C0_0_83fd8a84de" x="35.52755" y="22.53744" style="fill: #174263; fill-opacity: 0.45"/>
    </g>
    <g clip-path="url(#p05be610583)">
     <use xlink:href="#C0_0_83fd8a84de" x="32.106567" y="15.552" style="fill: #174263; fill-opacity: 0.45"/>
    </g>
    <g clip-path="url(#p05be610583)">
     <use xlink:href="#C0_0_83fd8a84de" x="36.364147" y="15.552" style="fill: #174263; fill-opacity: 0.45"/>
    </g>
    <g clip-path="url(#p05be610583)">
     <use xlink:href="#C0_0_83fd8a84de" x="36.943712" y="25.5312" style="fill: #174263; fill-opacity: 0.45"/>
    </g>
    <g clip-path="url(#p05be610583)">
     <use xlink:href="#C0_0_83fd8a84de" x="34.468064" y="15.552" style="fill: #174263; fill-opacity: 0.45"/>
    </g>
    <g clip-path="url(#p05be610583)">
     <use xlink:href="#C0_0_83fd8a84de" x="36.163676" y="15.552" style="fill: #174263; fill-opacity: 0.45"/>
    </g>
    <g clip-path="url(#p05be610583)">
     <use xlink:href="#C0_0_83fd8a84de" x="33.768143" y="21.53952" style="fill: #174263; fill-opacity: 0.45"/>
    </g>
    <g clip-path="url(#p05be610583)">
     <use xlink:href="#C0_0_83fd8a84de" x="33.268193" y="22.53744" style="fill: #174263; fill-opacity: 0.45"/>
    </g>
    <g clip-path="url(#p05be610583)">
     <use xlink:href="#C0_0_83fd8a84de" x="35.71969" y="15.552" style="fill: #174263; fill-opacity: 0.45"/>
    </g>
    <g clip-path="url(#p05be610583)">
     <use xlink:href="#C0_0_83fd8a84de" x="32.283087" y="17.54784" style="fill: #174263; fill-opacity: 0.45"/>
    </g>
    <g clip-path="url(#p05be610583)">
     <use xlink:href="#C0_0_83fd8a84de" x="37.189156" y="15.552" style="fill: #174263; fill-opacity: 0.45"/>
    </g>
   </g>
   <g id="PathCollection_2">
    <defs>
     <path id="C1_0_b8231e7128" d="M 0 3.5 
C 0.928211 3.5 1.81853 3.131218 2.474874 2.474874 
C 3.131218 1.81853 3.5 0.928211 3.5 -0 
C 3.5 -0.928211 3.131218 -1.81853 2.474874 -2.474874 
C 1.81853 -3.131218 0.928211 -3.5 0 -3.5 
C -0.928211 -3.5 -1.81853 -3.131218 -2.474874 -2.474874 
C -3.131218 -1.81853 -3.5 -0.928211 -3.5 0 
C -3.5 0.928211 -3.131218 1.81853 -2.474874 2.474874 
C -1.81853 3.131218 -0.928211 3.5 0 3.5 
z
"/>
    </defs>
    <g clip-path="url(#p05be610583)">
     <use xlink:href="#C1_0_b8231e7128" x="54.364724" y="29.52288" style="fill: #d75728; fill-opacity: 0.45"/>
    </g>
    <g clip-path="url(#p05be610583)">
     <use xlink:href="#C1_0_b8231e7128" x="54.964306" y="15.552" style="fill: #d75728; fill-opacity: 0.45"/>
    </g>
    <g clip-path="url(#p05be610583)">
     <use xlink:href="#C1_0_b8231e7128" x="55.286889" y="98.37936" style="fill: #d75728; fill-opacity: 0.45"/>
    </g>
    <g clip-path="url(#p05be610583)">
     <use xlink:href="#C1_0_b8231e7128" x="57.116775" y="90.396" style="fill: #d75728; fill-opacity: 0.45"/>
    </g>
    <g clip-path="url(#p05be610583)">
     <use xlink:href="#C1_0_b8231e7128" x="56.015894" y="19.54368" style="fill: #d75728; fill-opacity: 0.45"/>
    </g>
    <g clip-path="url(#p05be610583)">
     <use xlink:href="#C1_0_b8231e7128" x="56.157875" y="51.47712" style="fill: #d75728; fill-opacity: 0.45"/>
    </g>
    <g clip-path="url(#p05be610583)">
     <use xlink:href="#C1_0_b8231e7128" x="57.726827" y="44.49168" style="fill: #d75728; fill-opacity: 0.45"/>
    </g>
    <g clip-path="url(#p05be610583)">
     <use xlink:href="#C1_0_b8231e7128" x="56.46264" y="45.4896" style="fill: #d75728; fill-opacity: 0.45"/>
    </g>
    <g clip-path="url(#p05be610583)">
     <use xlink:href="#C1_0_b8231e7128" x="57.88776" y="48.48336" style="fill: #d75728; fill-opacity: 0.45"/>
    </g>
    <g clip-path="url(#p05be610583)">
     <use xlink:href="#C1_0_b8231e7128" x="54.374441" y="79.41888" style="fill: #d75728; fill-opacity: 0.45"/>
    </g>
    <g clip-path="url(#p05be610583)">
     <use xlink:href="#C1_0_b8231e7128" x="56.332999" y="115.344" style="fill: #d75728; fill-opacity: 0.45"/>
    </g>
    <g clip-path="url(#p05be610583)">
     <use xlink:href="#C1_0_b8231e7128" x="56.496926" y="110.3544" style="fill: #d75728; fill-opacity: 0.45"/>
    </g>
    <g clip-path="url(#p05be610583)">
     <use xlink:href="#C1_0_b8231e7128" x="57.306993" y="115.344" style="fill: #d75728; fill-opacity: 0.45"/>
    </g>
    <g clip-path="url(#p05be610583)">
     <use xlink:href="#C1_0_b8231e7128" x="55.339144" y="108.35856" style="fill: #d75728; fill-opacity: 0.45"/>
    </g>
    <g clip-path="url(#p05be610583)">
     <use xlink:href="#C1_0_b8231e7128" x="58.785153" y="40.5" style="fill: #d75728; fill-opacity: 0.45"/>
    </g>
    <g clip-path="url(#p05be610583)">
     <use xlink:href="#C1_0_b8231e7128" x="55.667858" y="39.50208" style="fill: #d75728; fill-opacity: 0.45"/>
    </g>
    <g clip-path="url(#p05be610583)">
     <use xlink:href="#C1_0_b8231e7128" x="59.664912" y="98.37936" style="fill: #d75728; fill-opacity: 0.45"/>
    </g>
    <g clip-path="url(#p05be610583)">
     <use xlink:href="#C1_0_b8231e7128" x="58.230162" y="108.35856" style="fill: #d75728; fill-opacity: 0.45"/>
    </g>
    <g clip-path="url(#p05be610583)">
     <use xlink:href="#C1_0_b8231e7128" x="56.427853" y="95.3856" style="fill: #d75728; fill-opacity: 0.45"/>
    </g>
    <g clip-path="url(#p05be610583)">
     <use xlink:href="#C1_0_b8231e7128" x="55.166763" y="108.35856" style="fill: #d75728; fill-opacity: 0.45"/>
    </g>
    <g clip-path="url(#p05be610583)">
     <use xlink:href="#C1_0_b8231e7128" x="59.013991" y="28.52496" style="fill: #d75728; fill-opacity: 0.45"/>
    </g>
    <g clip-path="url(#p05be610583)">
     <use xlink:href="#C1_0_b8231e7128" x="58.176356" y="111.35232" style="fill: #d75728; fill-opacity: 0.45"/>
    </g>
    <g clip-path="url(#p05be610583)">
     <use xlink:href="#C1_0_b8231e7128" x="54.303206" y="15.552" style="fill: #d75728; fill-opacity: 0.45"/>
    </g>
    <g clip-path="url(#p05be610583)">
     <use xlink:href="#C1_0_b8231e7128" x="57.632048" y="109.35648" style="fill: #d75728; fill-opacity: 0.45"/>
    </g>
    <g clip-path="url(#p05be610583)">
     <use xlink:href="#C1_0_b8231e7128" x="58.544095" y="15.552" style="fill: #d75728; fill-opacity: 0.45"/>
    </g>
    <g clip-path="url(#p05be610583)">
     <use xlink:href="#C1_0_b8231e7128" x="56.198079" y="115.344" style="fill: #d75728; fill-opacity: 0.45"/>
    </g>
    <g clip-path="url(#p05be610583)">
     <use xlink:href="#C1_0_b8231e7128" x="54.58247" y="65.448" style="fill: #d75728; fill-opacity: 0.45"/>
    </g>
    <g clip-path="url(#p05be610583)">
     <use xlink:href="#C1_0_b8231e7128" x="57.089498" y="101.37312" style="fill: #d75728; fill-opacity: 0.45"/>
    </g>
    <g clip-path="url(#p05be610583)">
     <use xlink:href="#C1_0_b8231e7128" x="59.829831" y="115.344" style="fill: #d75728; fill-opacity: 0.45"/>
    </g>
    <g clip-path="url(#p05be610583)">
     <use xlink:href="#C1_0_b8231e7128" x="59.79722" y="115.344" style="fill: #d75728; fill-opacity: 0.45"/>
    </g>
    <g clip-path="url(#p05be610583)">
     <use xlink:href="#C1_0_b8231e7128" x="55.290695" y="115.344" style="fill: #d75728; fill-opacity: 0.45"/>
    </g>
    <g clip-path="url(#p05be610583)">
     <use xlink:href="#C1_0_b8231e7128" x="55.235505" y="109.35648" style="fill: #d75728; fill-opacity: 0.45"/>
    </g>
    <g clip-path="url(#p05be610583)">
     <use xlink:href="#C1_0_b8231e7128" x="56.636148" y="115.344" style="fill: #d75728; fill-opacity: 0.45"/>
    </g>
    <g clip-path="url(#p05be610583)">
     <use xlink:href="#C1_0_b8231e7128" x="59.19937" y="15.552" style="fill: #d75728; fill-opacity: 0.45"/>
    </g>
    <g clip-path="url(#p05be610583)">
     <use xlink:href="#C1_0_b8231e7128" x="57.483877" y="87.40224" style="fill: #d75728; fill-opacity: 0.45"/>
    </g>
    <g clip-path="url(#p05be610583)">
     <use xlink:href="#C1_0_b8231e7128" x="54.547566" y="115.344" style="fill: #d75728; fill-opacity: 0.45"/>
    </g>
    <g clip-path="url(#p05be610583)">
     <use xlink:href="#C1_0_b8231e7128" x="55.651276" y="115.344" style="fill: #d75728; fill-opacity: 0.45"/>
    </g>
    <g clip-path="url(#p05be610583)">
     <use xlink:href="#C1_0_b8231e7128" x="58.501271" y="115.344" style="fill: #d75728; fill-opacity: 0.45"/>
    </g>
    <g clip-path="url(#p05be610583)">
     <use xlink:href="#C1_0_b8231e7128" x="56.762748" y="48.48336" style="fill: #d75728; fill-opacity: 0.45"/>
    </g>
    <g clip-path="url(#p05be610583)">
     <use xlink:href="#C1_0_b8231e7128" x="58.182006" y="115.344" style="fill: #d75728; fill-opacity: 0.45"/>
    </g>
    <g clip-path="url(#p05be610583)">
     <use xlink:href="#C1_0_b8231e7128" x="55.133631" y="60.4584" style="fill: #d75728; fill-opacity: 0.45"/>
    </g>
    <g clip-path="url(#p05be610583)">
     <use xlink:href="#C1_0_b8231e7128" x="56.911897" y="90.396" style="fill: #d75728; fill-opacity: 0.45"/>
    </g>
    <g clip-path="url(#p05be610583)">
     <use xlink:href="#C1_0_b8231e7128" x="57.829825" y="115.344" style="fill: #d75728; fill-opacity: 0.45"/>
    </g>
    <g clip-path="url(#p05be610583)">
     <use xlink:href="#C1_0_b8231e7128" x="58.988006" y="115.344" style="fill: #d75728; fill-opacity: 0.45"/>
    </g>
    <g clip-path="url(#p05be610583)">
     <use xlink:href="#C1_0_b8231e7128" x="55.571737" y="72.43344" style="fill: #d75728; fill-opacity: 0.45"/>
    </g>
   </g>
   <g id="PathCollection_3">
    <defs>
     <path id="C2_0_6cba9bf9f6" d="M 0 3.5 
C 0.928211 3.5 1.81853 3.131218 2.474874 2.474874 
C 3.131218 1.81853 3.5 0.928211 3.5 -0 
C 3.5 -0.928211 3.131218 -1.81853 2.474874 -2.474874 
C 1.81853 -3.131218 0.928211 -3.5 0 -3.5 
C -0.928211 -3.5 -1.81853 -3.131218 -2.474874 -2.474874 
C -3.131218 -1.81853 -3.5 -0.928211 -3.5 0 
C -3.5 0.928211 -3.131218 1.81853 -2.474874 2.474874 
C -1.81853 3.131218 -0.928211 3.5 0 3.5 
z
"/>
    </defs>
    <g clip-path="url(#p05be610583)">
     <use xlink:href="#C2_0_6cba9bf9f6" x="90.64447" y="68.44176" style="fill: #174263; fill-opacity: 0.45"/>
    </g>
    <g clip-path="url(#p05be610583)">
     <use xlink:href="#C2_0_6cba9bf9f6" x="88.130272" y="110.3544" style="fill: #174263; fill-opacity: 0.45"/>
    </g>
    <g clip-path="url(#p05be610583)">
     <use xlink:href="#C2_0_6cba9bf9f6" x="90.365227" y="98.37936" style="fill: #174263; fill-opacity: 0.45"/>
    </g>
    <g clip-path="url(#p05be610583)">
     <use xlink:href="#C2_0_6cba9bf9f6" x="87.941281" y="65.448" style="fill: #174263; fill-opacity: 0.45"/>
    </g>
    <g clip-path="url(#p05be610583)">
     <use xlink:href="#C2_0_6cba9bf9f6" x="89.675238" y="115.344" style="fill: #174263; fill-opacity: 0.45"/>
    </g>
    <g clip-path="url(#p05be610583)">
     <use xlink:href="#C2_0_6cba9bf9f6" x="92.627979" y="51.47712" style="fill: #174263; fill-opacity: 0.45"/>
    </g>
    <g clip-path="url(#p05be610583)">
     <use xlink:href="#C2_0_6cba9bf9f6" x="90.676802" y="53.47296" style="fill: #174263; fill-opacity: 0.45"/>
    </g>
    <g clip-path="url(#p05be610583)">
     <use xlink:href="#C2_0_6cba9bf9f6" x="93.16027" y="56.46672" style="fill: #174263; fill-opacity: 0.45"/>
    </g>
    <g clip-path="url(#p05be610583)">
     <use xlink:href="#C2_0_6cba9bf9f6" x="88.355156" y="77.42304" style="fill: #174263; fill-opacity: 0.45"/>
    </g>
    <g clip-path="url(#p05be610583)">
     <use xlink:href="#C2_0_6cba9bf9f6" x="88.522056" y="83.41056" style="fill: #174263; fill-opacity: 0.45"/>
    </g>
    <g clip-path="url(#p05be610583)">
     <use xlink:href="#C2_0_6cba9bf9f6" x="93.105021" y="68.44176" style="fill: #174263; fill-opacity: 0.45"/>
    </g>
    <g clip-path="url(#p05be610583)">
     <use xlink:href="#C2_0_6cba9bf9f6" x="88.45569" y="115.344" style="fill: #174263; fill-opacity: 0.45"/>
    </g>
    <g clip-path="url(#p05be610583)">
     <use xlink:href="#C2_0_6cba9bf9f6" x="90.692854" y="115.344" style="fill: #174263; fill-opacity: 0.45"/>
    </g>
    <g clip-path="url(#p05be610583)">
     <use xlink:href="#C2_0_6cba9bf9f6" x="92.384877" y="102.37104" style="fill: #174263; fill-opacity: 0.45"/>
    </g>
    <g clip-path="url(#p05be610583)">
     <use xlink:href="#C2_0_6cba9bf9f6" x="92.601763" y="40.5" style="fill: #174263; fill-opacity: 0.45"/>
    </g>
    <g clip-path="url(#p05be610583)">
     <use xlink:href="#C2_0_6cba9bf9f6" x="92.023324" y="39.50208" style="fill: #174263; fill-opacity: 0.45"/>
    </g>
    <g clip-path="url(#p05be610583)">
     <use xlink:href="#C2_0_6cba9bf9f6" x="91.141469" y="108.35856" style="fill: #174263; fill-opacity: 0.45"/>
    </g>
    <g clip-path="url(#p05be610583)">
     <use xlink:href="#C2_0_6cba9bf9f6" x="91.228873" y="115.344" style="fill: #174263; fill-opacity: 0.45"/>
    </g>
    <g clip-path="url(#p05be610583)">
     <use xlink:href="#C2_0_6cba9bf9f6" x="89.559042" y="110.3544" style="fill: #174263; fill-opacity: 0.45"/>
    </g>
    <g clip-path="url(#p05be610583)">
     <use xlink:href="#C2_0_6cba9bf9f6" x="91.425232" y="115.344" style="fill: #174263; fill-opacity: 0.45"/>
    </g>
    <g clip-path="url(#p05be610583)">
     <use xlink:href="#C2_0_6cba9bf9f6" x="93.094304" y="70.4376" style="fill: #174263; fill-opacity: 0.45"/>
    </g>
    <g clip-path="url(#p05be610583)">
     <use xlink:href="#C2_0_6cba9bf9f6" x="88.760635" y="92.39184" style="fill: #174263; fill-opacity: 0.45"/>
    </g>
    <g clip-path="url(#p05be610583)">
     <use xlink:href="#C2_0_6cba9bf9f6" x="89.104375" y="100.3752" style="fill: #174263; fill-opacity: 0.45"/>
    </g>
    <g clip-path="url(#p05be610583)">
     <use xlink:href="#C2_0_6cba9bf9f6" x="89.750812" y="99.37728" style="fill: #174263; fill-opacity: 0.45"/>
    </g>
    <g clip-path="url(#p05be610583)">
     <use xlink:href="#C2_0_6cba9bf9f6" x="90.733617" y="97.38144" style="fill: #174263; fill-opacity: 0.45"/>
    </g>
    <g clip-path="url(#p05be610583)">
     <use xlink:href="#C2_0_6cba9bf9f6" x="89.245293" y="94.38768" style="fill: #174263; fill-opacity: 0.45"/>
    </g>
    <g clip-path="url(#p05be610583)">
     <use xlink:href="#C2_0_6cba9bf9f6" x="90.420699" y="104.36688" style="fill: #174263; fill-opacity: 0.45"/>
    </g>
    <g clip-path="url(#p05be610583)">
     <use xlink:href="#C2_0_6cba9bf9f6" x="88.987658" y="113.34816" style="fill: #174263; fill-opacity: 0.45"/>
    </g>
    <g clip-path="url(#p05be610583)">
     <use xlink:href="#C2_0_6cba9bf9f6" x="88.403872" y="110.3544" style="fill: #174263; fill-opacity: 0.45"/>
    </g>
    <g clip-path="url(#p05be610583)">
     <use xlink:href="#C2_0_6cba9bf9f6" x="89.669086" y="108.35856" style="fill: #174263; fill-opacity: 0.45"/>
    </g>
    <g clip-path="url(#p05be610583)">
     <use xlink:href="#C2_0_6cba9bf9f6" x="90.823449" y="109.35648" style="fill: #174263; fill-opacity: 0.45"/>
    </g>
    <g clip-path="url(#p05be610583)">
     <use xlink:href="#C2_0_6cba9bf9f6" x="93.205252" y="105.3648" style="fill: #174263; fill-opacity: 0.45"/>
    </g>
    <g clip-path="url(#p05be610583)">
     <use xlink:href="#C2_0_6cba9bf9f6" x="90.771386" y="112.35024" style="fill: #174263; fill-opacity: 0.45"/>
    </g>
    <g clip-path="url(#p05be610583)">
     <use xlink:href="#C2_0_6cba9bf9f6" x="89.169834" y="112.35024" style="fill: #174263; fill-opacity: 0.45"/>
    </g>
    <g clip-path="url(#p05be610583)">
     <use xlink:href="#C2_0_6cba9bf9f6" x="89.909672" y="99.37728" style="fill: #174263; fill-opacity: 0.45"/>
    </g>
    <g clip-path="url(#p05be610583)">
     <use xlink:href="#C2_0_6cba9bf9f6" x="88.12201" y="106.36272" style="fill: #174263; fill-opacity: 0.45"/>
    </g>
    <g clip-path="url(#p05be610583)">
     <use xlink:href="#C2_0_6cba9bf9f6" x="90.482473" y="115.344" style="fill: #174263; fill-opacity: 0.45"/>
    </g>
    <g clip-path="url(#p05be610583)">
     <use xlink:href="#C2_0_6cba9bf9f6" x="91.428393" y="101.37312" style="fill: #174263; fill-opacity: 0.45"/>
    </g>
    <g clip-path="url(#p05be610583)">
     <use xlink:href="#C2_0_6cba9bf9f6" x="91.227193" y="94.38768" style="fill: #174263; fill-opacity: 0.45"/>
    </g>
    <g clip-path="url(#p05be610583)">
     <use xlink:href="#C2_0_6cba9bf9f6" x="91.427247" y="115.344" style="fill: #174263; fill-opacity: 0.45"/>
    </g>
    <g clip-path="url(#p05be610583)">
     <use xlink:href="#C2_0_6cba9bf9f6" x="89.127186" y="91.39392" style="fill: #174263; fill-opacity: 0.45"/>
    </g>
    <g clip-path="url(#p05be610583)">
     <use xlink:href="#C2_0_6cba9bf9f6" x="87.94606" y="115.344" style="fill: #174263; fill-opacity: 0.45"/>
    </g>
    <g clip-path="url(#p05be610583)">
     <use xlink:href="#C2_0_6cba9bf9f6" x="90.870635" y="115.344" style="fill: #174263; fill-opacity: 0.45"/>
    </g>
    <g clip-path="url(#p05be610583)">
     <use xlink:href="#C2_0_6cba9bf9f6" x="90.261178" y="115.344" style="fill: #174263; fill-opacity: 0.45"/>
    </g>
    <g clip-path="url(#p05be610583)">
     <use xlink:href="#C2_0_6cba9bf9f6" x="88.473838" y="108.35856" style="fill: #174263; fill-opacity: 0.45"/>
    </g>
   </g>
   <g id="PathCollection_4">
    <defs>
     <path id="C3_0_52ab5326fb" d="M 0 3.5 
C 0.928211 3.5 1.81853 3.131218 2.474874 2.474874 
C 3.131218 1.81853 3.5 0.928211 3.5 -0 
C 3.5 -0.928211 3.131218 -1.81853 2.474874 -2.474874 
C 1.81853 -3.131218 0.928211 -3.5 0 -3.5 
C -0.928211 -3.5 -1.81853 -3.131218 -2.474874 -2.474874 
C -3.131218 -1.81853 -3.5 -0.928211 -3.5 0 
C -3.5 0.928211 -3.131218 1.81853 -2.474874 2.474874 
C -1.81853 3.131218 -0.928211 3.5 0 3.5 
z
"/>
    </defs>
    <g clip-path="url(#p05be610583)">
     <use xlink:href="#C3_0_52ab5326fb" x="112.03619" y="26.52912" style="fill: #d75728; fill-opacity: 0.45"/>
    </g>
    <g clip-path="url(#p05be610583)">
     <use xlink:href="#C3_0_52ab5326fb" x="110.258374" y="115.344" style="fill: #d75728; fill-opacity: 0.45"/>
    </g>
    <g clip-path="url(#p05be610583)">
     <use xlink:href="#C3_0_52ab5326fb" x="112.367364" y="27.52704" style="fill: #d75728; fill-opacity: 0.45"/>
    </g>
    <g clip-path="url(#p05be610583)">
     <use xlink:href="#C3_0_52ab5326fb" x="113.061661" y="19.54368" style="fill: #d75728; fill-opacity: 0.45"/>
    </g>
    <g clip-path="url(#p05be610583)">
     <use xlink:href="#C3_0_52ab5326fb" x="112.52901" y="106.36272" style="fill: #d75728; fill-opacity: 0.45"/>
    </g>
    <g clip-path="url(#p05be610583)">
     <use xlink:href="#C3_0_52ab5326fb" x="113.320873" y="63.45216" style="fill: #d75728; fill-opacity: 0.45"/>
    </g>
    <g clip-path="url(#p05be610583)">
     <use xlink:href="#C3_0_52ab5326fb" x="112.016113" y="61.45632" style="fill: #d75728; fill-opacity: 0.45"/>
    </g>
    <g clip-path="url(#p05be610583)">
     <use xlink:href="#C3_0_52ab5326fb" x="110.367184" y="29.52288" style="fill: #d75728; fill-opacity: 0.45"/>
    </g>
    <g clip-path="url(#p05be610583)">
     <use xlink:href="#C3_0_52ab5326fb" x="111.380089" y="73.43136" style="fill: #d75728; fill-opacity: 0.45"/>
    </g>
    <g clip-path="url(#p05be610583)">
     <use xlink:href="#C3_0_52ab5326fb" x="110.575929" y="15.552" style="fill: #d75728; fill-opacity: 0.45"/>
    </g>
    <g clip-path="url(#p05be610583)">
     <use xlink:href="#C3_0_52ab5326fb" x="113.065007" y="30.5208" style="fill: #d75728; fill-opacity: 0.45"/>
    </g>
    <g clip-path="url(#p05be610583)">
     <use xlink:href="#C3_0_52ab5326fb" x="111.239549" y="15.552" style="fill: #d75728; fill-opacity: 0.45"/>
    </g>
    <g clip-path="url(#p05be610583)">
     <use xlink:href="#C3_0_52ab5326fb" x="112.006763" y="22.53744" style="fill: #d75728; fill-opacity: 0.45"/>
    </g>
    <g clip-path="url(#p05be610583)">
     <use xlink:href="#C3_0_52ab5326fb" x="112.94402" y="20.5416" style="fill: #d75728; fill-opacity: 0.45"/>
    </g>
    <g clip-path="url(#p05be610583)">
     <use xlink:href="#C3_0_52ab5326fb" x="112.736578" y="36.50832" style="fill: #d75728; fill-opacity: 0.45"/>
    </g>
    <g clip-path="url(#p05be610583)">
     <use xlink:href="#C3_0_52ab5326fb" x="110.496163" y="29.52288" style="fill: #d75728; fill-opacity: 0.45"/>
    </g>
    <g clip-path="url(#p05be610583)">
     <use xlink:href="#C3_0_52ab5326fb" x="115.412981" y="22.53744" style="fill: #d75728; fill-opacity: 0.45"/>
    </g>
    <g clip-path="url(#p05be610583)">
     <use xlink:href="#C3_0_52ab5326fb" x="112.062815" y="15.552" style="fill: #d75728; fill-opacity: 0.45"/>
    </g>
    <g clip-path="url(#p05be610583)">
     <use xlink:href="#C3_0_52ab5326fb" x="111.41683" y="27.52704" style="fill: #d75728; fill-opacity: 0.45"/>
    </g>
    <g clip-path="url(#p05be610583)">
     <use xlink:href="#C3_0_52ab5326fb" x="112.086434" y="21.53952" style="fill: #d75728; fill-opacity: 0.45"/>
    </g>
    <g clip-path="url(#p05be610583)">
     <use xlink:href="#C3_0_52ab5326fb" x="113.656248" y="101.37312" style="fill: #d75728; fill-opacity: 0.45"/>
    </g>
    <g clip-path="url(#p05be610583)">
     <use xlink:href="#C3_0_52ab5326fb" x="112.10286" y="15.552" style="fill: #d75728; fill-opacity: 0.45"/>
    </g>
    <g clip-path="url(#p05be610583)">
     <use xlink:href="#C3_0_52ab5326fb" x="110.633988" y="99.37728" style="fill: #d75728; fill-opacity: 0.45"/>
    </g>
    <g clip-path="url(#p05be610583)">
     <use xlink:href="#C3_0_52ab5326fb" x="112.222476" y="23.53536" style="fill: #d75728; fill-opacity: 0.45"/>
    </g>
    <g clip-path="url(#p05be610583)">
     <use xlink:href="#C3_0_52ab5326fb" x="115.030104" y="28.52496" style="fill: #d75728; fill-opacity: 0.45"/>
    </g>
    <g clip-path="url(#p05be610583)">
     <use xlink:href="#C3_0_52ab5326fb" x="111.180252" y="15.552" style="fill: #d75728; fill-opacity: 0.45"/>
    </g>
    <g clip-path="url(#p05be610583)">
     <use xlink:href="#C3_0_52ab5326fb" x="115.102924" y="75.4272" style="fill: #d75728; fill-opacity: 0.45"/>
    </g>
    <g clip-path="url(#p05be610583)">
     <use xlink:href="#C3_0_52ab5326fb" x="110.815277" y="45.4896" style="fill: #d75728; fill-opacity: 0.45"/>
    </g>
    <g clip-path="url(#p05be610583)">
     <use xlink:href="#C3_0_52ab5326fb" x="115.636472" y="30.5208" style="fill: #d75728; fill-opacity: 0.45"/>
    </g>
    <g clip-path="url(#p05be610583)">
     <use xlink:href="#C3_0_52ab5326fb" x="114.02515" y="15.552" style="fill: #d75728; fill-opacity: 0.45"/>
    </g>
    <g clip-path="url(#p05be610583)">
     <use xlink:href="#C3_0_52ab5326fb" x="114.100153" y="15.552" style="fill: #d75728; fill-opacity: 0.45"/>
    </g>
    <g clip-path="url(#p05be610583)">
     <use xlink:href="#C3_0_52ab5326fb" x="114.519665" y="30.5208" style="fill: #d75728; fill-opacity: 0.45"/>
    </g>
    <g clip-path="url(#p05be610583)">
     <use xlink:href="#C3_0_52ab5326fb" x="114.436065" y="32.51664" style="fill: #d75728; fill-opacity: 0.45"/>
    </g>
    <g clip-path="url(#p05be610583)">
     <use xlink:href="#C3_0_52ab5326fb" x="110.439787" y="115.344" style="fill: #d75728; fill-opacity: 0.45"/>
    </g>
    <g clip-path="url(#p05be610583)">
     <use xlink:href="#C3_0_52ab5326fb" x="111.183883" y="59.46048" style="fill: #d75728; fill-opacity: 0.45"/>
    </g>
    <g clip-path="url(#p05be610583)">
     <use xlink:href="#C3_0_52ab5326fb" x="114.141087" y="15.552" style="fill: #d75728; fill-opacity: 0.45"/>
    </g>
    <g clip-path="url(#p05be610583)">
     <use xlink:href="#C3_0_52ab5326fb" x="112.277917" y="15.552" style="fill: #d75728; fill-opacity: 0.45"/>
    </g>
    <g clip-path="url(#p05be610583)">
     <use xlink:href="#C3_0_52ab5326fb" x="110.944517" y="27.52704" style="fill: #d75728; fill-opacity: 0.45"/>
    </g>
    <g clip-path="url(#p05be610583)">
     <use xlink:href="#C3_0_52ab5326fb" x="112.747378" y="74.42928" style="fill: #d75728; fill-opacity: 0.45"/>
    </g>
    <g clip-path="url(#p05be610583)">
     <use xlink:href="#C3_0_52ab5326fb" x="110.529106" y="21.53952" style="fill: #d75728; fill-opacity: 0.45"/>
    </g>
    <g clip-path="url(#p05be610583)">
     <use xlink:href="#C3_0_52ab5326fb" x="113.505429" y="58.46256" style="fill: #d75728; fill-opacity: 0.45"/>
    </g>
    <g clip-path="url(#p05be610583)">
     <use xlink:href="#C3_0_52ab5326fb" x="112.999506" y="38.50416" style="fill: #d75728; fill-opacity: 0.45"/>
    </g>
    <g clip-path="url(#p05be610583)">
     <use xlink:href="#C3_0_52ab5326fb" x="114.303263" y="15.552" style="fill: #d75728; fill-opacity: 0.45"/>
    </g>
    <g clip-path="url(#p05be610583)">
     <use xlink:href="#C3_0_52ab5326fb" x="112.897407" y="15.552" style="fill: #d75728; fill-opacity: 0.45"/>
    </g>
    <g clip-path="url(#p05be610583)">
     <use xlink:href="#C3_0_52ab5326fb" x="113.609225" y="29.52288" style="fill: #d75728; fill-opacity: 0.45"/>
    </g>
   </g>
   <g id="line2d_8">
    <path d="M 33.2055 22.604586 
L 36.2745 22.604586 
M 34.74 22.604586 
L 34.74 19.676118 
M 33.2055 19.676118 
L 36.2745 19.676118 
" clip-path="url(#p05be610583)" style="fill: none; stroke: #333333; stroke-width: 2.5; stroke-linecap: square"/>
   </g>
   <g id="line2d_9">
    <path d="M 89.0055 99.278908 
L 92.0745 99.278908 
M 90.54 99.278908 
L 90.54 92.689796 
M 89.0055 92.689796 
L 92.0745 92.689796 
" clip-path="url(#p05be610583)" style="fill: none; stroke: #333333; stroke-width: 2.5; stroke-linecap: square"/>
   </g>
   <g id="line2d_10">
    <path d="M 55.5255 86.823621 
L 58.5945 86.823621 
M 57.06 86.823621 
L 57.06 75.961467 
M 55.5255 75.961467 
L 58.5945 75.961467 
" clip-path="url(#p05be610583)" style="fill: none; stroke: #333333; stroke-width: 2.5; stroke-linecap: square"/>
   </g>
   <g id="line2d_11">
    <path d="M 111.3255 44.369559 
L 114.3945 44.369559 
M 112.86 44.369559 
L 112.86 35.521641 
M 111.3255 35.521641 
L 114.3945 35.521641 
" clip-path="url(#p05be610583)" style="fill: none; stroke: #333333; stroke-width: 2.5; stroke-linecap: square"/>
   </g>
   <g id="patch_15">
    <path d="M 18 115.344 
L 18 15.552 
" style="fill: none; stroke: #000000; stroke-linejoin: miter; stroke-linecap: square"/>
   </g>
   <g id="patch_16">
    <path d="M 18 115.344 
L 129.6 115.344 
" style="fill: none; stroke: #000000; stroke-linejoin: miter; stroke-linecap: square"/>
   </g>
   <g id="PathCollection_5">
    <defs>
     <path id="me7ea88ee45" d="M 0 3 
C 0.795609 3 1.55874 2.683901 2.12132 2.12132 
C 2.683901 1.55874 3 0.795609 3 0 
C 3 -0.795609 2.683901 -1.55874 2.12132 -2.12132 
C 1.55874 -2.683901 0.795609 -3 0 -3 
C -0.795609 -3 -1.55874 -2.683901 -2.12132 -2.12132 
C -2.683901 -1.55874 -3 -0.795609 -3 0 
C -3 0.795609 -2.683901 1.55874 -2.12132 2.12132 
C -1.55874 2.683901 -0.795609 3 0 3 
z
"/>
    </defs>
    <g clip-path="url(#p05be610583)">
     <use xlink:href="#me7ea88ee45" x="34.74" y="21.140352" style="fill: #333333"/>
    </g>
   </g>
   <g id="PathCollection_6">
    <g clip-path="url(#p05be610583)">
     <use xlink:href="#me7ea88ee45" x="57.06" y="81.392544" style="fill: #333333"/>
    </g>
   </g>
   <g id="PathCollection_7">
    <g clip-path="url(#p05be610583)">
     <use xlink:href="#me7ea88ee45" x="90.54" y="95.984352" style="fill: #333333"/>
    </g>
   </g>
   <g id="PathCollection_8">
    <g clip-path="url(#p05be610583)">
     <use xlink:href="#me7ea88ee45" x="112.86" y="39.9456" style="fill: #333333"/>
    </g>
   </g>
   <g id="line2d_12"/>
   <g id="line2d_13"/>
  </g>
 </g>
 <defs>
  <clipPath id="p05be610583">
   <rect x="18" y="15.552" width="111.6" height="99.792"/>
  </clipPath>
 </defs>
</svg>
