<?xml version="1.0" encoding="utf-8" standalone="no"?>
<!DOCTYPE svg PUBLIC "-//W3C//DTD SVG 1.1//EN"
  "http://www.w3.org/Graphics/SVG/1.1/DTD/svg11.dtd">
<svg xmlns:xlink="http://www.w3.org/1999/xlink" width="144pt" height="129.6pt" viewBox="0 0 144 129.6" xmlns="http://www.w3.org/2000/svg" version="1.1">
 <metadata>
  <rdf:RDF xmlns:dc="http://purl.org/dc/elements/1.1/" xmlns:cc="http://creativecommons.org/ns#" xmlns:rdf="http://www.w3.org/1999/02/22-rdf-syntax-ns#">
   <cc:Work>
    <dc:type rdf:resource="http://purl.org/dc/dcmitype/StillImage"/>
    <dc:date>2025-04-14T00:19:48.291813</dc:date>
    <dc:format>image/svg+xml</dc:format>
    <dc:creator>
     <cc:Agent>
      <dc:title>Matplotlib v3.7.1, https://matplotlib.org/</dc:title>
     </cc:Agent>
    </dc:creator>
   </cc:Work>
  </rdf:RDF>
 </metadata>
 <defs>
  <style type="text/css">*{stroke-linejoin: round; stroke-linecap: butt}</style>
 </defs>
 <g id="figure_1">
  <g id="patch_1">
   <path d="M 0 129.6 
L 144 129.6 
L 144 0 
L 0 0 
L 0 129.6 
z
" style="fill: none"/>
  </g>
  <g id="axes_1">
   <g id="patch_2">
    <path d="M 18 115.344 
L 129.6 115.344 
L 129.6 15.552 
L 18 15.552 
L 18 115.344 
z
" style="fill: none"/>
   </g>
   <g id="PolyCollection_1">
    <path d="M 34.850232 115.578279 
L 34.629768 115.578279 
L 34.600799 114.363946 
L 34.566742 113.149614 
L 34.527447 111.935281 
L 34.482983 110.720948 
L 34.433677 109.506615 
L 34.380149 108.292282 
L 34.323327 107.077949 
L 34.264443 105.863616 
L 34.205003 104.649283 
L 34.146732 103.43495 
L 34.091491 102.220617 
L 34.041177 101.006284 
L 33.997608 99.791951 
L 33.9624 98.577619 
L 33.936855 97.363286 
L 33.921854 96.148953 
L 33.91778 94.93462 
L 33.92448 93.720287 
L 33.941244 92.505954 
L 33.966841 91.291621 
L 33.999579 90.077288 
L 34.037396 88.862955 
L 34.077973 87.648622 
L 34.11886 86.434289 
L 34.157602 85.219956 
L 34.191858 84.005624 
L 34.219508 82.791291 
L 34.23873 81.576958 
L 34.248065 80.362625 
L 34.246445 79.148292 
L 34.233203 77.933959 
L 34.20806 76.719626 
L 34.171093 75.505293 
L 34.122693 74.29096 
L 34.063513 73.076627 
L 33.994419 71.862294 
L 33.916435 70.647961 
L 33.830703 69.433629 
L 33.738445 68.219296 
L 33.640936 67.004963 
L 33.539488 65.79063 
L 33.435436 64.576297 
L 33.330127 63.361964 
L 33.224914 62.147631 
L 33.121131 60.933298 
L 33.02007 59.718965 
L 32.922934 58.504632 
L 32.830775 57.290299 
L 32.744416 56.075966 
L 32.664351 54.861634 
L 32.590644 53.647301 
L 32.522809 52.432968 
L 32.459706 51.218635 
L 32.399436 50.004302 
L 32.339267 48.789969 
L 32.275587 47.575636 
L 32.203903 46.361303 
L 32.118884 45.14697 
L 32.014473 43.932637 
L 31.884065 42.718304 
L 31.720758 41.503971 
L 31.51768 40.289639 
L 31.268385 39.075306 
L 30.967323 37.860973 
L 30.610342 36.64664 
L 30.19522 35.432307 
L 29.722172 34.217974 
L 29.194303 33.003641 
L 28.617951 31.789308 
L 28.002874 30.574975 
L 27.362228 29.360642 
L 26.712319 28.146309 
L 26.072095 26.931976 
L 25.462392 25.717644 
L 24.904962 24.503311 
L 24.421335 23.288978 
L 24.031592 22.074645 
L 23.753148 20.860312 
L 23.599637 19.645979 
L 23.58 18.431646 
L 23.69786 17.217313 
L 23.951244 16.00298 
L 24.332673 14.788647 
L 24.829631 13.574314 
L 25.425348 12.359981 
L 26.099852 11.145649 
L 26.831179 9.931316 
L 27.596646 8.716983 
L 28.374085 7.50265 
L 29.142943 6.288317 
L 29.885168 5.073984 
L 30.585852 3.859651 
L 31.233586 2.645318 
L 31.820557 1.430985 
L 32.342406 0.216652 
L 32.797883 -0.997681 
L 33.188381 -2.212014 
L 33.517377 -3.426346 
L 33.789865 -4.640679 
L 35.690135 -4.640679 
L 35.690135 -4.640679 
L 35.962623 -3.426346 
L 36.291619 -2.212014 
L 36.682117 -0.997681 
L 37.137594 0.216652 
L 37.659443 1.430985 
L 38.246414 2.645318 
L 38.894148 3.859651 
L 39.594832 5.073984 
L 40.337057 6.288317 
L 41.105915 7.50265 
L 41.883354 8.716983 
L 42.648821 9.931316 
L 43.380148 11.145649 
L 44.054652 12.359981 
L 44.650369 13.574314 
L 45.147327 14.788647 
L 45.528756 16.00298 
L 45.78214 17.217313 
L 45.9 18.431646 
L 45.880363 19.645979 
L 45.726852 20.860312 
L 45.448408 22.074645 
L 45.058665 23.288978 
L 44.575038 24.503311 
L 44.017608 25.717644 
L 43.407905 26.931976 
L 42.767681 28.146309 
L 42.117772 29.360642 
L 41.477126 30.574975 
L 40.862049 31.789308 
L 40.285697 33.003641 
L 39.757828 34.217974 
L 39.28478 35.432307 
L 38.869658 36.64664 
L 38.512677 37.860973 
L 38.211615 39.075306 
L 37.96232 40.289639 
L 37.759242 41.503971 
L 37.595935 42.718304 
L 37.465527 43.932637 
L 37.361116 45.14697 
L 37.276097 46.361303 
L 37.204413 47.575636 
L 37.140733 48.789969 
L 37.080564 50.004302 
L 37.020294 51.218635 
L 36.957191 52.432968 
L 36.889356 53.647301 
L 36.815649 54.861634 
L 36.735584 56.075966 
L 36.649225 57.290299 
L 36.557066 58.504632 
L 36.45993 59.718965 
L 36.358869 60.933298 
L 36.255086 62.147631 
L 36.149873 63.361964 
L 36.044564 64.576297 
L 35.940512 65.79063 
L 35.839064 67.004963 
L 35.741555 68.219296 
L 35.649297 69.433629 
L 35.563565 70.647961 
L 35.485581 71.862294 
L 35.416487 73.076627 
L 35.357307 74.29096 
L 35.308907 75.505293 
L 35.27194 76.719626 
L 35.246797 77.933959 
L 35.233555 79.148292 
L 35.231935 80.362625 
L 35.24127 81.576958 
L 35.260492 82.791291 
L 35.288142 84.005624 
L 35.322398 85.219956 
L 35.36114 86.434289 
L 35.402027 87.648622 
L 35.442604 88.862955 
L 35.480421 90.077288 
L 35.513159 91.291621 
L 35.538756 92.505954 
L 35.55552 93.720287 
L 35.56222 94.93462 
L 35.558146 96.148953 
L 35.543145 97.363286 
L 35.5176 98.577619 
L 35.482392 99.791951 
L 35.438823 101.006284 
L 35.388509 102.220617 
L 35.333268 103.43495 
L 35.274997 104.649283 
L 35.215557 105.863616 
L 35.156673 107.077949 
L 35.099851 108.292282 
L 35.046323 109.506615 
L 34.997017 110.720948 
L 34.952553 111.935281 
L 34.913258 113.149614 
L 34.879201 114.363946 
L 34.850232 115.578279 
z
" clip-path="url(#pb899fcee51)" style="fill: #20415a; fill-opacity: 0.35"/>
   </g>
   <g id="PolyCollection_2">
    <path d="M 57.962607 150.429144 
L 56.157393 150.429144 
L 55.956752 148.712353 
L 55.723528 146.995562 
L 55.455354 145.278771 
L 55.150353 143.561981 
L 54.807288 141.84519 
L 54.425717 140.128399 
L 54.006126 138.411608 
L 53.55004 136.694818 
L 53.060111 134.978027 
L 52.540154 133.261236 
L 51.995141 131.544445 
L 51.431142 129.827654 
L 50.855217 128.110864 
L 50.275243 126.394073 
L 49.699712 124.677282 
L 49.137471 122.960491 
L 48.597452 121.2437 
L 48.088375 119.52691 
L 47.618458 117.810119 
L 47.195141 116.093328 
L 46.824838 114.376537 
L 46.512734 112.659747 
L 46.262629 110.942956 
L 46.076846 109.226165 
L 45.956195 107.509374 
L 45.9 105.792583 
L 45.906183 104.075793 
L 45.971392 102.359002 
L 46.091176 100.642211 
L 46.260182 98.92542 
L 46.472373 97.208629 
L 46.721249 95.491839 
L 47.000065 93.775048 
L 47.30203 92.058257 
L 47.620491 90.341466 
L 47.949082 88.624676 
L 48.281846 86.907885 
L 48.613321 85.191094 
L 48.938603 83.474303 
L 49.253364 81.757512 
L 49.553859 80.040722 
L 49.836903 78.323931 
L 50.099835 76.60714 
L 50.340467 74.890349 
L 50.557039 73.173559 
L 50.748161 71.456768 
L 50.91277 69.739977 
L 51.050096 68.023186 
L 51.159641 66.306395 
L 51.241168 64.589605 
L 51.294712 62.872814 
L 51.320602 61.156023 
L 51.319496 59.439232 
L 51.292425 57.722441 
L 51.240836 56.005651 
L 51.166641 54.28886 
L 51.072251 52.572069 
L 50.960599 50.855278 
L 50.835146 49.138488 
L 50.699861 47.421697 
L 50.559173 45.704906 
L 50.417902 43.988115 
L 50.281155 42.271324 
L 50.1542 40.554534 
L 50.042323 38.837743 
L 49.950665 37.120952 
L 49.884054 35.404161 
L 49.846842 33.687371 
L 49.842741 31.97058 
L 49.874692 30.253789 
L 49.944746 28.536998 
L 50.053983 26.820207 
L 50.20247 25.103417 
L 50.389255 23.386626 
L 50.612397 21.669835 
L 50.869046 19.953044 
L 51.155543 18.236253 
L 51.467561 16.519463 
L 51.800259 14.802672 
L 52.148455 13.085881 
L 52.506801 11.36909 
L 52.869962 9.6523 
L 53.232775 7.935509 
L 53.5904 6.218718 
L 53.93844 4.501927 
L 54.273044 2.785136 
L 54.590972 1.068346 
L 54.889639 -0.648445 
L 55.167125 -2.365236 
L 55.422163 -4.082027 
L 55.6541 -5.798818 
L 55.862848 -7.515608 
L 56.04881 -9.232399 
L 56.212806 -10.94919 
L 56.355992 -12.665981 
L 56.479775 -14.382771 
L 56.585738 -16.099562 
L 56.675565 -17.816353 
L 56.750977 -19.533144 
L 57.369023 -19.533144 
L 57.369023 -19.533144 
L 57.444435 -17.816353 
L 57.534262 -16.099562 
L 57.640225 -14.382771 
L 57.764008 -12.665981 
L 57.907194 -10.94919 
L 58.07119 -9.232399 
L 58.257152 -7.515608 
L 58.4659 -5.798818 
L 58.697837 -4.082027 
L 58.952875 -2.365236 
L 59.230361 -0.648445 
L 59.529028 1.068346 
L 59.846956 2.785136 
L 60.18156 4.501927 
L 60.5296 6.218718 
L 60.887225 7.935509 
L 61.250038 9.6523 
L 61.613199 11.36909 
L 61.971545 13.085881 
L 62.319741 14.802672 
L 62.652439 16.519463 
L 62.964457 18.236253 
L 63.250954 19.953044 
L 63.507603 21.669835 
L 63.730745 23.386626 
L 63.91753 25.103417 
L 64.066017 26.820207 
L 64.175254 28.536998 
L 64.245308 30.253789 
L 64.277259 31.97058 
L 64.273158 33.687371 
L 64.235946 35.404161 
L 64.169335 37.120952 
L 64.077677 38.837743 
L 63.9658 40.554534 
L 63.838845 42.271324 
L 63.702098 43.988115 
L 63.560827 45.704906 
L 63.420139 47.421697 
L 63.284854 49.138488 
L 63.159401 50.855278 
L 63.047749 52.572069 
L 62.953359 54.28886 
L 62.879164 56.005651 
L 62.827575 57.722441 
L 62.800504 59.439232 
L 62.799398 61.156023 
L 62.825288 62.872814 
L 62.878832 64.589605 
L 62.960359 66.306395 
L 63.069904 68.023186 
L 63.20723 69.739977 
L 63.371839 71.456768 
L 63.562961 73.173559 
L 63.779533 74.890349 
L 64.020165 76.60714 
L 64.283097 78.323931 
L 64.566141 80.040722 
L 64.866636 81.757512 
L 65.181397 83.474303 
L 65.506679 85.191094 
L 65.838154 86.907885 
L 66.170918 88.624676 
L 66.499509 90.341466 
L 66.81797 92.058257 
L 67.119935 93.775048 
L 67.398751 95.491839 
L 67.647627 97.208629 
L 67.859818 98.92542 
L 68.028824 100.642211 
L 68.148608 102.359002 
L 68.213817 104.075793 
L 68.22 105.792583 
L 68.163805 107.509374 
L 68.043154 109.226165 
L 67.857371 110.942956 
L 67.607266 112.659747 
L 67.295162 114.376537 
L 66.924859 116.093328 
L 66.501542 117.810119 
L 66.031625 119.52691 
L 65.522548 121.2437 
L 64.982529 122.960491 
L 64.420288 124.677282 
L 63.844757 126.394073 
L 63.264783 128.110864 
L 62.688858 129.827654 
L 62.124859 131.544445 
L 61.579846 133.261236 
L 61.059889 134.978027 
L 60.56996 136.694818 
L 60.113874 138.411608 
L 59.694283 140.128399 
L 59.312712 141.84519 
L 58.969647 143.561981 
L 58.664646 145.278771 
L 58.396472 146.995562 
L 58.163248 148.712353 
L 57.962607 150.429144 
z
" clip-path="url(#pb899fcee51)" style="fill: #c1613e; fill-opacity: 0.35"/>
   </g>
   <g id="PolyCollection_3">
    <path d="M 91.51907 143.452047 
L 89.56093 143.452047 
L 89.308656 141.896368 
L 89.009518 140.340689 
L 88.659938 138.785009 
L 88.257425 137.22933 
L 87.800935 135.673651 
L 87.291208 134.117971 
L 86.731059 132.562292 
L 86.125583 131.006612 
L 85.48225 129.450933 
L 84.81086 127.895254 
L 84.123343 126.339574 
L 83.433393 124.783895 
L 82.755946 123.228216 
L 82.106529 121.672536 
L 81.500498 120.116857 
L 80.952241 118.561178 
L 80.474379 117.005498 
L 80.077037 115.449819 
L 79.767252 113.89414 
L 79.548547 112.33846 
L 79.420742 110.782781 
L 79.38 109.227102 
L 79.419115 107.671422 
L 79.528033 106.115743 
L 79.694559 104.560064 
L 79.905188 103.004384 
L 80.14602 101.448705 
L 80.40365 99.893026 
L 80.666004 98.337346 
L 80.923022 96.781667 
L 81.167168 95.225988 
L 81.393716 93.670308 
L 81.600815 92.114629 
L 81.789325 90.55895 
L 81.962465 89.00327 
L 82.125309 87.447591 
L 82.284171 85.891912 
L 82.445956 84.336232 
L 82.617511 82.780553 
L 82.805049 81.224874 
L 83.013663 79.669194 
L 83.246981 78.113515 
L 83.506962 76.557836 
L 83.79384 75.002156 
L 84.106197 73.446477 
L 84.44115 71.890798 
L 84.794622 70.335118 
L 85.161652 68.779439 
L 85.536728 67.22376 
L 85.914108 65.66808 
L 86.288097 64.112401 
L 86.653282 62.556722 
L 87.004699 61.001042 
L 87.337948 59.445363 
L 87.64925 57.889684 
L 87.935461 56.334004 
L 88.194059 54.778325 
L 88.423113 53.222646 
L 88.62125 51.666966 
L 88.787622 50.111287 
L 88.921893 48.555608 
L 89.024238 46.999928 
L 89.09535 45.444249 
L 89.136467 43.88857 
L 89.149389 42.33289 
L 89.136496 40.777211 
L 89.100746 39.221532 
L 89.045656 37.665852 
L 88.975244 36.110173 
L 88.893946 34.554494 
L 88.8065 32.998814 
L 88.71779 31.443135 
L 88.632682 29.887456 
L 88.55583 28.331776 
L 88.491493 26.776097 
L 88.443353 25.220418 
L 88.414363 23.664738 
L 88.40662 22.109059 
L 88.421296 20.55338 
L 88.458603 18.9977 
L 88.517823 17.442021 
L 88.597381 15.886342 
L 88.694959 14.330662 
L 88.807656 12.774983 
L 88.93216 11.219304 
L 89.064935 9.663624 
L 89.20241 8.107945 
L 89.341143 6.552266 
L 89.477972 4.996586 
L 89.61013 3.440907 
L 89.735323 1.885228 
L 89.851775 0.329548 
L 89.958238 -1.226131 
L 90.053968 -2.781811 
L 90.138685 -4.33749 
L 90.212503 -5.893169 
L 90.275864 -7.448849 
L 90.329455 -9.004528 
L 90.374134 -10.560207 
L 90.705866 -10.560207 
L 90.705866 -10.560207 
L 90.750545 -9.004528 
L 90.804136 -7.448849 
L 90.867497 -5.893169 
L 90.941315 -4.33749 
L 91.026032 -2.781811 
L 91.121762 -1.226131 
L 91.228225 0.329548 
L 91.344677 1.885228 
L 91.46987 3.440907 
L 91.602028 4.996586 
L 91.738857 6.552266 
L 91.87759 8.107945 
L 92.015065 9.663624 
L 92.14784 11.219304 
L 92.272344 12.774983 
L 92.385041 14.330662 
L 92.482619 15.886342 
L 92.562177 17.442021 
L 92.621397 18.9977 
L 92.658704 20.55338 
L 92.67338 22.109059 
L 92.665637 23.664738 
L 92.636647 25.220418 
L 92.588507 26.776097 
L 92.52417 28.331776 
L 92.447318 29.887456 
L 92.36221 31.443135 
L 92.2735 32.998814 
L 92.186054 34.554494 
L 92.104756 36.110173 
L 92.034344 37.665852 
L 91.979254 39.221532 
L 91.943504 40.777211 
L 91.930611 42.33289 
L 91.943533 43.88857 
L 91.98465 45.444249 
L 92.055762 46.999928 
L 92.158107 48.555608 
L 92.292378 50.111287 
L 92.45875 51.666966 
L 92.656887 53.222646 
L 92.885941 54.778325 
L 93.144539 56.334004 
L 93.43075 57.889684 
L 93.742052 59.445363 
L 94.075301 61.001042 
L 94.426718 62.556722 
L 94.791903 64.112401 
L 95.165892 65.66808 
L 95.543272 67.22376 
L 95.918348 68.779439 
L 96.285378 70.335118 
L 96.63885 71.890798 
L 96.973803 73.446477 
L 97.28616 75.002156 
L 97.573038 76.557836 
L 97.833019 78.113515 
L 98.066337 79.669194 
L 98.274951 81.224874 
L 98.462489 82.780553 
L 98.634044 84.336232 
L 98.795829 85.891912 
L 98.954691 87.447591 
L 99.117535 89.00327 
L 99.290675 90.55895 
L 99.479185 92.114629 
L 99.686284 93.670308 
L 99.912832 95.225988 
L 100.156978 96.781667 
L 100.413996 98.337346 
L 100.67635 99.893026 
L 100.93398 101.448705 
L 101.174812 103.004384 
L 101.385441 104.560064 
L 101.551967 106.115743 
L 101.660885 107.671422 
L 101.7 109.227102 
L 101.659258 110.782781 
L 101.531453 112.33846 
L 101.312748 113.89414 
L 101.002963 115.449819 
L 100.605621 117.005498 
L 100.127759 118.561178 
L 99.579502 120.116857 
L 98.973471 121.672536 
L 98.324054 123.228216 
L 97.646607 124.783895 
L 96.956657 126.339574 
L 96.26914 127.895254 
L 95.59775 129.450933 
L 94.954417 131.006612 
L 94.348941 132.562292 
L 93.788792 134.117971 
L 93.279065 135.673651 
L 92.822575 137.22933 
L 92.420062 138.785009 
L 92.070482 140.340689 
L 91.771344 141.896368 
L 91.51907 143.452047 
z
" clip-path="url(#pb899fcee51)" style="fill: #20415a; fill-opacity: 0.35"/>
   </g>
   <g id="PolyCollection_4">
    <path d="M 113.090404 147.88706 
L 112.629596 147.88706 
L 112.573415 146.221625 
L 112.506983 144.556189 
L 112.429342 142.890753 
L 112.33967 141.225318 
L 112.237338 139.559882 
L 112.121975 137.894447 
L 111.993526 136.229011 
L 111.852304 134.563576 
L 111.699038 132.89814 
L 111.534896 131.232705 
L 111.361494 129.567269 
L 111.180881 127.901833 
L 110.995503 126.236398 
L 110.808131 124.570962 
L 110.621777 122.905527 
L 110.439582 121.240091 
L 110.264687 119.574656 
L 110.100097 117.90922 
L 109.948545 116.243785 
L 109.812356 114.578349 
L 109.693334 112.912913 
L 109.592668 111.247478 
L 109.510867 109.582042 
L 109.447738 107.916607 
L 109.402389 106.251171 
L 109.37328 104.585736 
L 109.358302 102.9203 
L 109.35489 101.254865 
L 109.360149 99.589429 
L 109.370999 97.923993 
L 109.38432 96.258558 
L 109.39709 94.593122 
L 109.406505 92.927687 
L 109.410078 91.262251 
L 109.405707 89.596816 
L 109.391721 87.93138 
L 109.366882 86.265944 
L 109.330374 84.600509 
L 109.281759 82.935073 
L 109.220916 81.269638 
L 109.147979 79.604202 
L 109.063256 77.938767 
L 108.967162 76.273331 
L 108.860148 74.607896 
L 108.742645 72.94246 
L 108.615014 71.277024 
L 108.477512 69.611589 
L 108.330262 67.946153 
L 108.17324 66.280718 
L 108.006258 64.615282 
L 107.82897 62.949847 
L 107.640871 61.284411 
L 107.441313 59.618976 
L 107.229534 57.95354 
L 107.004693 56.288104 
L 106.765928 54.622669 
L 106.512436 52.957233 
L 106.243567 51.291798 
L 105.958941 49.626362 
L 105.658585 47.960927 
L 105.343082 46.295491 
L 105.013711 44.630056 
L 104.672597 42.96462 
L 104.322821 41.299184 
L 103.96851 39.633749 
L 103.614861 37.968313 
L 103.268126 36.302878 
L 102.935503 34.637442 
L 102.62498 32.972007 
L 102.345087 31.306571 
L 102.104595 29.641135 
L 101.912164 27.9757 
L 101.775955 26.310264 
L 101.703236 24.644829 
L 101.7 22.979393 
L 101.770625 21.313958 
L 101.917599 19.648522 
L 102.141327 17.983087 
L 102.440041 16.317651 
L 102.809814 14.652215 
L 103.244687 12.98678 
L 103.736888 11.321344 
L 104.277154 9.655909 
L 104.855107 7.990473 
L 105.459676 6.325038 
L 106.079549 4.659602 
L 106.703596 2.994167 
L 107.321278 1.328731 
L 107.922991 -0.336705 
L 108.500341 -2.00214 
L 109.046347 -3.667576 
L 109.55555 -5.333011 
L 110.024051 -6.998447 
L 110.449464 -8.663882 
L 110.830816 -10.329318 
L 111.168387 -11.994753 
L 111.463527 -13.660189 
L 111.718442 -15.325625 
L 111.93598 -16.99106 
L 113.78402 -16.99106 
L 113.78402 -16.99106 
L 114.001558 -15.325625 
L 114.256473 -13.660189 
L 114.551613 -11.994753 
L 114.889184 -10.329318 
L 115.270536 -8.663882 
L 115.695949 -6.998447 
L 116.16445 -5.333011 
L 116.673653 -3.667576 
L 117.219659 -2.00214 
L 117.797009 -0.336705 
L 118.398722 1.328731 
L 119.016404 2.994167 
L 119.640451 4.659602 
L 120.260324 6.325038 
L 120.864893 7.990473 
L 121.442846 9.655909 
L 121.983112 11.321344 
L 122.475313 12.98678 
L 122.910186 14.652215 
L 123.279959 16.317651 
L 123.578673 17.983087 
L 123.802401 19.648522 
L 123.949375 21.313958 
L 124.02 22.979393 
L 124.016764 24.644829 
L 123.944045 26.310264 
L 123.807836 27.9757 
L 123.615405 29.641135 
L 123.374913 31.306571 
L 123.09502 32.972007 
L 122.784497 34.637442 
L 122.451874 36.302878 
L 122.105139 37.968313 
L 121.75149 39.633749 
L 121.397179 41.299184 
L 121.047403 42.96462 
L 120.706289 44.630056 
L 120.376918 46.295491 
L 120.061415 47.960927 
L 119.761059 49.626362 
L 119.476433 51.291798 
L 119.207564 52.957233 
L 118.954072 54.622669 
L 118.715307 56.288104 
L 118.490466 57.95354 
L 118.278687 59.618976 
L 118.079129 61.284411 
L 117.89103 62.949847 
L 117.713742 64.615282 
L 117.54676 66.280718 
L 117.389738 67.946153 
L 117.242488 69.611589 
L 117.104986 71.277024 
L 116.977355 72.94246 
L 116.859852 74.607896 
L 116.752838 76.273331 
L 116.656744 77.938767 
L 116.572021 79.604202 
L 116.499084 81.269638 
L 116.438241 82.935073 
L 116.389626 84.600509 
L 116.353118 86.265944 
L 116.328279 87.93138 
L 116.314293 89.596816 
L 116.309922 91.262251 
L 116.313495 92.927687 
L 116.32291 94.593122 
L 116.33568 96.258558 
L 116.349001 97.923993 
L 116.359851 99.589429 
L 116.36511 101.254865 
L 116.361698 102.9203 
L 116.34672 104.585736 
L 116.317611 106.251171 
L 116.272262 107.916607 
L 116.209133 109.582042 
L 116.127332 111.247478 
L 116.026666 112.912913 
L 115.907644 114.578349 
L 115.771455 116.243785 
L 115.619903 117.90922 
L 115.455313 119.574656 
L 115.280418 121.240091 
L 115.098223 122.905527 
L 114.911869 124.570962 
L 114.724497 126.236398 
L 114.539119 127.901833 
L 114.358506 129.567269 
L 114.185104 131.232705 
L 114.020962 132.89814 
L 113.867696 134.563576 
L 113.726474 136.229011 
L 113.598025 137.894447 
L 113.482662 139.559882 
L 113.38033 141.225318 
L 113.290658 142.890753 
L 113.213017 144.556189 
L 113.146585 146.221625 
L 113.090404 147.88706 
z
" clip-path="url(#pb899fcee51)" style="fill: #c1613e; fill-opacity: 0.35"/>
   </g>
   <g id="patch_3">
    <path d="M 23.58 115.344 
L 45.9 115.344 
L 45.9 29.02392 
L 23.58 29.02392 
L 23.58 115.344 
z
" clip-path="url(#pb899fcee51)" style="fill: none"/>
   </g>
   <g id="patch_4">
    <path d="M 79.38 115.344 
L 101.7 115.344 
L 101.7 90.002084 
L 79.38 90.002084 
L 79.38 115.344 
z
" clip-path="url(#pb899fcee51)" style="fill: none"/>
   </g>
   <g id="patch_5">
    <path d="M 45.9 115.344 
L 68.22 115.344 
L 68.22 75.637288 
L 45.9 75.637288 
L 45.9 115.344 
z
" clip-path="url(#pb899fcee51)" style="fill: none"/>
   </g>
   <g id="patch_6">
    <path d="M 101.7 115.344 
L 124.02 115.344 
L 124.02 46.618825 
L 101.7 46.618825 
L 101.7 115.344 
z
" clip-path="url(#pb899fcee51)" style="fill: none"/>
   </g>
   <g id="patch_7">
    <path d="M 45.9 115.344 
L 45.9 115.344 
L 45.9 115.344 
L 45.9 115.344 
z
" clip-path="url(#pb899fcee51)" style="fill: #3274a1"/>
   </g>
   <g id="patch_8">
    <path d="M 45.9 115.344 
L 45.9 115.344 
L 45.9 115.344 
L 45.9 115.344 
z
" clip-path="url(#pb899fcee51)" style="fill: #e1812c"/>
   </g>
   <g id="patch_9">
    <path d="M 23.58 115.344 
L 45.9 115.344 
L 45.9 29.02392 
L 23.58 29.02392 
z
" clip-path="url(#pb899fcee51)" style="fill: #20415a; opacity: 0.3; stroke: #000000; stroke-linejoin: miter"/>
   </g>
   <g id="patch_10">
    <path d="M 79.38 115.344 
L 101.7 115.344 
L 101.7 90.002084 
L 79.38 90.002084 
z
" clip-path="url(#pb899fcee51)" style="fill: #20415a; opacity: 0.3; stroke: #000000; stroke-linejoin: miter"/>
   </g>
   <g id="patch_11">
    <path d="M 45.9 115.344 
L 68.22 115.344 
L 68.22 75.637288 
L 45.9 75.637288 
z
" clip-path="url(#pb899fcee51)" style="fill: #c1613e; opacity: 0.3; stroke: #000000; stroke-linejoin: miter"/>
   </g>
   <g id="patch_12">
    <path d="M 101.7 115.344 
L 124.02 115.344 
L 124.02 46.618825 
L 101.7 46.618825 
z
" clip-path="url(#pb899fcee51)" style="fill: #c1613e; opacity: 0.3; stroke: #000000; stroke-linejoin: miter"/>
   </g>
   <g id="patch_13">
    <path d="M 45.9 115.344 
L 45.9 115.344 
L 45.9 115.344 
L 45.9 115.344 
z
" clip-path="url(#pb899fcee51)" style="fill: #20415a; opacity: 0.3; stroke: #000000; stroke-linejoin: miter"/>
   </g>
   <g id="patch_14">
    <path d="M 45.9 115.344 
L 45.9 115.344 
L 45.9 115.344 
L 45.9 115.344 
z
" clip-path="url(#pb899fcee51)" style="fill: #c1613e; opacity: 0.3; stroke: #000000; stroke-linejoin: miter"/>
   </g>
   <g id="matplotlib.axis_1">
    <g id="xtick_1">
     <g id="line2d_1">
      <defs>
       <path id="mc36011d357" d="M 0 0 
L 0 3.5 
" style="stroke: #000000"/>
      </defs>
      <g>
       <use xlink:href="#mc36011d357" x="45.9" y="115.344" style="stroke: #000000"/>
      </g>
     </g>
     <g id="text_1">
      <!-- unpunished -->
      <g transform="translate(20.045312 129.501812) scale(0.1 -0.1)">
       <defs>
        <path id="ArialMT-75" d="M 2597 0 
L 2597 488 
Q 2209 -75 1544 -75 
Q 1250 -75 995 37 
Q 741 150 617 320 
Q 494 491 444 738 
Q 409 903 409 1263 
L 409 3319 
L 972 3319 
L 972 1478 
Q 972 1038 1006 884 
Q 1059 663 1231 536 
Q 1403 409 1656 409 
Q 1909 409 2131 539 
Q 2353 669 2445 892 
Q 2538 1116 2538 1541 
L 2538 3319 
L 3100 3319 
L 3100 0 
L 2597 0 
z
" transform="scale(0.015625)"/>
        <path id="ArialMT-6e" d="M 422 0 
L 422 3319 
L 928 3319 
L 928 2847 
Q 1294 3394 1984 3394 
Q 2284 3394 2536 3286 
Q 2788 3178 2913 3003 
Q 3038 2828 3088 2588 
Q 3119 2431 3119 2041 
L 3119 0 
L 2556 0 
L 2556 2019 
Q 2556 2363 2490 2533 
Q 2425 2703 2258 2804 
Q 2091 2906 1866 2906 
Q 1506 2906 1245 2678 
Q 984 2450 984 1813 
L 984 0 
L 422 0 
z
" transform="scale(0.015625)"/>
        <path id="ArialMT-70" d="M 422 -1272 
L 422 3319 
L 934 3319 
L 934 2888 
Q 1116 3141 1344 3267 
Q 1572 3394 1897 3394 
Q 2322 3394 2647 3175 
Q 2972 2956 3137 2557 
Q 3303 2159 3303 1684 
Q 3303 1175 3120 767 
Q 2938 359 2589 142 
Q 2241 -75 1856 -75 
Q 1575 -75 1351 44 
Q 1128 163 984 344 
L 984 -1272 
L 422 -1272 
z
M 931 1641 
Q 931 1000 1190 694 
Q 1450 388 1819 388 
Q 2194 388 2461 705 
Q 2728 1022 2728 1688 
Q 2728 2322 2467 2637 
Q 2206 2953 1844 2953 
Q 1484 2953 1207 2617 
Q 931 2281 931 1641 
z
" transform="scale(0.015625)"/>
        <path id="ArialMT-69" d="M 425 3934 
L 425 4581 
L 988 4581 
L 988 3934 
L 425 3934 
z
M 425 0 
L 425 3319 
L 988 3319 
L 988 0 
L 425 0 
z
" transform="scale(0.015625)"/>
        <path id="ArialMT-73" d="M 197 991 
L 753 1078 
Q 800 744 1014 566 
Q 1228 388 1613 388 
Q 2000 388 2187 545 
Q 2375 703 2375 916 
Q 2375 1106 2209 1216 
Q 2094 1291 1634 1406 
Q 1016 1563 777 1677 
Q 538 1791 414 1992 
Q 291 2194 291 2438 
Q 291 2659 392 2848 
Q 494 3038 669 3163 
Q 800 3259 1026 3326 
Q 1253 3394 1513 3394 
Q 1903 3394 2198 3281 
Q 2494 3169 2634 2976 
Q 2775 2784 2828 2463 
L 2278 2388 
Q 2241 2644 2061 2787 
Q 1881 2931 1553 2931 
Q 1166 2931 1000 2803 
Q 834 2675 834 2503 
Q 834 2394 903 2306 
Q 972 2216 1119 2156 
Q 1203 2125 1616 2013 
Q 2213 1853 2448 1751 
Q 2684 1650 2818 1456 
Q 2953 1263 2953 975 
Q 2953 694 2789 445 
Q 2625 197 2315 61 
Q 2006 -75 1616 -75 
Q 969 -75 630 194 
Q 291 463 197 991 
z
" transform="scale(0.015625)"/>
        <path id="ArialMT-68" d="M 422 0 
L 422 4581 
L 984 4581 
L 984 2938 
Q 1378 3394 1978 3394 
Q 2347 3394 2619 3248 
Q 2891 3103 3008 2847 
Q 3125 2591 3125 2103 
L 3125 0 
L 2563 0 
L 2563 2103 
Q 2563 2525 2380 2717 
Q 2197 2909 1863 2909 
Q 1613 2909 1392 2779 
Q 1172 2650 1078 2428 
Q 984 2206 984 1816 
L 984 0 
L 422 0 
z
" transform="scale(0.015625)"/>
        <path id="ArialMT-65" d="M 2694 1069 
L 3275 997 
Q 3138 488 2766 206 
Q 2394 -75 1816 -75 
Q 1088 -75 661 373 
Q 234 822 234 1631 
Q 234 2469 665 2931 
Q 1097 3394 1784 3394 
Q 2450 3394 2872 2941 
Q 3294 2488 3294 1666 
Q 3294 1616 3291 1516 
L 816 1516 
Q 847 969 1125 678 
Q 1403 388 1819 388 
Q 2128 388 2347 550 
Q 2566 713 2694 1069 
z
M 847 1978 
L 2700 1978 
Q 2663 2397 2488 2606 
Q 2219 2931 1791 2931 
Q 1403 2931 1139 2672 
Q 875 2413 847 1978 
z
" transform="scale(0.015625)"/>
        <path id="ArialMT-64" d="M 2575 0 
L 2575 419 
Q 2259 -75 1647 -75 
Q 1250 -75 917 144 
Q 584 363 401 755 
Q 219 1147 219 1656 
Q 219 2153 384 2558 
Q 550 2963 881 3178 
Q 1213 3394 1622 3394 
Q 1922 3394 2156 3267 
Q 2391 3141 2538 2938 
L 2538 4581 
L 3097 4581 
L 3097 0 
L 2575 0 
z
M 797 1656 
Q 797 1019 1065 703 
Q 1334 388 1700 388 
Q 2069 388 2326 689 
Q 2584 991 2584 1609 
Q 2584 2291 2321 2609 
Q 2059 2928 1675 2928 
Q 1300 2928 1048 2622 
Q 797 2316 797 1656 
z
" transform="scale(0.015625)"/>
       </defs>
       <use xlink:href="#ArialMT-75"/>
       <use xlink:href="#ArialMT-6e" x="55.615234"/>
       <use xlink:href="#ArialMT-70" x="111.230469"/>
       <use xlink:href="#ArialMT-75" x="166.845703"/>
       <use xlink:href="#ArialMT-6e" x="222.460938"/>
       <use xlink:href="#ArialMT-69" x="278.076172"/>
       <use xlink:href="#ArialMT-73" x="300.292969"/>
       <use xlink:href="#ArialMT-68" x="350.292969"/>
       <use xlink:href="#ArialMT-65" x="405.908203"/>
       <use xlink:href="#ArialMT-64" x="461.523438"/>
      </g>
     </g>
    </g>
    <g id="xtick_2">
     <g id="line2d_2">
      <g>
       <use xlink:href="#mc36011d357" x="101.7" y="115.344" style="stroke: #000000"/>
      </g>
     </g>
     <g id="text_2">
      <!-- punished -->
      <g transform="translate(81.40625 129.501812) scale(0.1 -0.1)">
       <use xlink:href="#ArialMT-70"/>
       <use xlink:href="#ArialMT-75" x="55.615234"/>
       <use xlink:href="#ArialMT-6e" x="111.230469"/>
       <use xlink:href="#ArialMT-69" x="166.845703"/>
       <use xlink:href="#ArialMT-73" x="189.0625"/>
       <use xlink:href="#ArialMT-68" x="239.0625"/>
       <use xlink:href="#ArialMT-65" x="294.677734"/>
       <use xlink:href="#ArialMT-64" x="350.292969"/>
      </g>
     </g>
    </g>
   </g>
   <g id="matplotlib.axis_2">
    <g id="ytick_1">
     <g id="line2d_3">
      <defs>
       <path id="m36522c8258" d="M 0 0 
L -3.5 0 
" style="stroke: #000000"/>
      </defs>
      <g>
       <use xlink:href="#m36522c8258" x="18" y="115.344" style="stroke: #000000"/>
      </g>
     </g>
     <g id="text_3">
      <!-- 0.00 -->
      <g transform="translate(-8.460938 118.922906) scale(0.1 -0.1)">
       <defs>
        <path id="ArialMT-30" d="M 266 2259 
Q 266 3072 433 3567 
Q 600 4063 929 4331 
Q 1259 4600 1759 4600 
Q 2128 4600 2406 4451 
Q 2684 4303 2865 4023 
Q 3047 3744 3150 3342 
Q 3253 2941 3253 2259 
Q 3253 1453 3087 958 
Q 2922 463 2592 192 
Q 2263 -78 1759 -78 
Q 1097 -78 719 397 
Q 266 969 266 2259 
z
M 844 2259 
Q 844 1131 1108 757 
Q 1372 384 1759 384 
Q 2147 384 2411 759 
Q 2675 1134 2675 2259 
Q 2675 3391 2411 3762 
Q 2147 4134 1753 4134 
Q 1366 4134 1134 3806 
Q 844 3388 844 2259 
z
" transform="scale(0.015625)"/>
        <path id="ArialMT-2e" d="M 581 0 
L 581 641 
L 1222 641 
L 1222 0 
L 581 0 
z
" transform="scale(0.015625)"/>
       </defs>
       <use xlink:href="#ArialMT-30"/>
       <use xlink:href="#ArialMT-2e" x="55.615234"/>
       <use xlink:href="#ArialMT-30" x="83.398438"/>
       <use xlink:href="#ArialMT-30" x="139.013672"/>
      </g>
     </g>
    </g>
    <g id="ytick_2">
     <g id="line2d_4">
      <g>
       <use xlink:href="#m36522c8258" x="18" y="90.396" style="stroke: #000000"/>
      </g>
     </g>
     <g id="text_4">
      <!-- 0.25 -->
      <g transform="translate(-8.460938 93.974906) scale(0.1 -0.1)">
       <defs>
        <path id="ArialMT-32" d="M 3222 541 
L 3222 0 
L 194 0 
Q 188 203 259 391 
Q 375 700 629 1000 
Q 884 1300 1366 1694 
Q 2113 2306 2375 2664 
Q 2638 3022 2638 3341 
Q 2638 3675 2398 3904 
Q 2159 4134 1775 4134 
Q 1369 4134 1125 3890 
Q 881 3647 878 3216 
L 300 3275 
Q 359 3922 746 4261 
Q 1134 4600 1788 4600 
Q 2447 4600 2831 4234 
Q 3216 3869 3216 3328 
Q 3216 3053 3103 2787 
Q 2991 2522 2730 2228 
Q 2469 1934 1863 1422 
Q 1356 997 1212 845 
Q 1069 694 975 541 
L 3222 541 
z
" transform="scale(0.015625)"/>
        <path id="ArialMT-35" d="M 266 1200 
L 856 1250 
Q 922 819 1161 601 
Q 1400 384 1738 384 
Q 2144 384 2425 690 
Q 2706 997 2706 1503 
Q 2706 1984 2436 2262 
Q 2166 2541 1728 2541 
Q 1456 2541 1237 2417 
Q 1019 2294 894 2097 
L 366 2166 
L 809 4519 
L 3088 4519 
L 3088 3981 
L 1259 3981 
L 1013 2750 
Q 1425 3038 1878 3038 
Q 2478 3038 2890 2622 
Q 3303 2206 3303 1553 
Q 3303 931 2941 478 
Q 2500 -78 1738 -78 
Q 1113 -78 717 272 
Q 322 622 266 1200 
z
" transform="scale(0.015625)"/>
       </defs>
       <use xlink:href="#ArialMT-30"/>
       <use xlink:href="#ArialMT-2e" x="55.615234"/>
       <use xlink:href="#ArialMT-32" x="83.398438"/>
       <use xlink:href="#ArialMT-35" x="139.013672"/>
      </g>
     </g>
    </g>
    <g id="ytick_3">
     <g id="line2d_5">
      <g>
       <use xlink:href="#m36522c8258" x="18" y="65.448" style="stroke: #000000"/>
      </g>
     </g>
     <g id="text_5">
      <!-- 0.50 -->
      <g transform="translate(-8.460938 69.026906) scale(0.1 -0.1)">
       <use xlink:href="#ArialMT-30"/>
       <use xlink:href="#ArialMT-2e" x="55.615234"/>
       <use xlink:href="#ArialMT-35" x="83.398438"/>
       <use xlink:href="#ArialMT-30" x="139.013672"/>
      </g>
     </g>
    </g>
    <g id="ytick_4">
     <g id="line2d_6">
      <g>
       <use xlink:href="#m36522c8258" x="18" y="40.5" style="stroke: #000000"/>
      </g>
     </g>
     <g id="text_6">
      <!-- 0.75 -->
      <g transform="translate(-8.460938 44.078906) scale(0.1 -0.1)">
       <defs>
        <path id="ArialMT-37" d="M 303 3981 
L 303 4522 
L 3269 4522 
L 3269 4084 
Q 2831 3619 2401 2847 
Q 1972 2075 1738 1259 
Q 1569 684 1522 0 
L 944 0 
Q 953 541 1156 1306 
Q 1359 2072 1739 2783 
Q 2119 3494 2547 3981 
L 303 3981 
z
" transform="scale(0.015625)"/>
       </defs>
       <use xlink:href="#ArialMT-30"/>
       <use xlink:href="#ArialMT-2e" x="55.615234"/>
       <use xlink:href="#ArialMT-37" x="83.398438"/>
       <use xlink:href="#ArialMT-35" x="139.013672"/>
      </g>
     </g>
    </g>
    <g id="ytick_5">
     <g id="line2d_7">
      <g>
       <use xlink:href="#m36522c8258" x="18" y="15.552" style="stroke: #000000"/>
      </g>
     </g>
     <g id="text_7">
      <!-- 1.00 -->
      <g transform="translate(-8.460938 19.130906) scale(0.1 -0.1)">
       <defs>
        <path id="ArialMT-31" d="M 2384 0 
L 1822 0 
L 1822 3584 
Q 1619 3391 1289 3197 
Q 959 3003 697 2906 
L 697 3450 
Q 1169 3672 1522 3987 
Q 1875 4303 2022 4600 
L 2384 4600 
L 2384 0 
z
" transform="scale(0.015625)"/>
       </defs>
       <use xlink:href="#ArialMT-31"/>
       <use xlink:href="#ArialMT-2e" x="55.615234"/>
       <use xlink:href="#ArialMT-30" x="83.398438"/>
       <use xlink:href="#ArialMT-30" x="139.013672"/>
      </g>
     </g>
    </g>
    <g id="text_8">
     <!-- stay probability -->
     <g transform="translate(-14.565625 98.795656) rotate(-90) scale(0.1 -0.1)">
      <defs>
       <path id="ArialMT-74" d="M 1650 503 
L 1731 6 
Q 1494 -44 1306 -44 
Q 1000 -44 831 53 
Q 663 150 594 308 
Q 525 466 525 972 
L 525 2881 
L 113 2881 
L 113 3319 
L 525 3319 
L 525 4141 
L 1084 4478 
L 1084 3319 
L 1650 3319 
L 1650 2881 
L 1084 2881 
L 1084 941 
Q 1084 700 1114 631 
Q 1144 563 1211 522 
Q 1278 481 1403 481 
Q 1497 481 1650 503 
z
" transform="scale(0.015625)"/>
       <path id="ArialMT-61" d="M 2588 409 
Q 2275 144 1986 34 
Q 1697 -75 1366 -75 
Q 819 -75 525 192 
Q 231 459 231 875 
Q 231 1119 342 1320 
Q 453 1522 633 1644 
Q 813 1766 1038 1828 
Q 1203 1872 1538 1913 
Q 2219 1994 2541 2106 
Q 2544 2222 2544 2253 
Q 2544 2597 2384 2738 
Q 2169 2928 1744 2928 
Q 1347 2928 1158 2789 
Q 969 2650 878 2297 
L 328 2372 
Q 403 2725 575 2942 
Q 747 3159 1072 3276 
Q 1397 3394 1825 3394 
Q 2250 3394 2515 3294 
Q 2781 3194 2906 3042 
Q 3031 2891 3081 2659 
Q 3109 2516 3109 2141 
L 3109 1391 
Q 3109 606 3145 398 
Q 3181 191 3288 0 
L 2700 0 
Q 2613 175 2588 409 
z
M 2541 1666 
Q 2234 1541 1622 1453 
Q 1275 1403 1131 1340 
Q 988 1278 909 1158 
Q 831 1038 831 891 
Q 831 666 1001 516 
Q 1172 366 1500 366 
Q 1825 366 2078 508 
Q 2331 650 2450 897 
Q 2541 1088 2541 1459 
L 2541 1666 
z
" transform="scale(0.015625)"/>
       <path id="ArialMT-79" d="M 397 -1278 
L 334 -750 
Q 519 -800 656 -800 
Q 844 -800 956 -737 
Q 1069 -675 1141 -563 
Q 1194 -478 1313 -144 
Q 1328 -97 1363 -6 
L 103 3319 
L 709 3319 
L 1400 1397 
Q 1534 1031 1641 628 
Q 1738 1016 1872 1384 
L 2581 3319 
L 3144 3319 
L 1881 -56 
Q 1678 -603 1566 -809 
Q 1416 -1088 1222 -1217 
Q 1028 -1347 759 -1347 
Q 597 -1347 397 -1278 
z
" transform="scale(0.015625)"/>
       <path id="ArialMT-20" transform="scale(0.015625)"/>
       <path id="ArialMT-72" d="M 416 0 
L 416 3319 
L 922 3319 
L 922 2816 
Q 1116 3169 1280 3281 
Q 1444 3394 1641 3394 
Q 1925 3394 2219 3213 
L 2025 2691 
Q 1819 2813 1613 2813 
Q 1428 2813 1281 2702 
Q 1134 2591 1072 2394 
Q 978 2094 978 1738 
L 978 0 
L 416 0 
z
" transform="scale(0.015625)"/>
       <path id="ArialMT-6f" d="M 213 1659 
Q 213 2581 725 3025 
Q 1153 3394 1769 3394 
Q 2453 3394 2887 2945 
Q 3322 2497 3322 1706 
Q 3322 1066 3130 698 
Q 2938 331 2570 128 
Q 2203 -75 1769 -75 
Q 1072 -75 642 372 
Q 213 819 213 1659 
z
M 791 1659 
Q 791 1022 1069 705 
Q 1347 388 1769 388 
Q 2188 388 2466 706 
Q 2744 1025 2744 1678 
Q 2744 2294 2464 2611 
Q 2184 2928 1769 2928 
Q 1347 2928 1069 2612 
Q 791 2297 791 1659 
z
" transform="scale(0.015625)"/>
       <path id="ArialMT-62" d="M 941 0 
L 419 0 
L 419 4581 
L 981 4581 
L 981 2947 
Q 1338 3394 1891 3394 
Q 2197 3394 2470 3270 
Q 2744 3147 2920 2923 
Q 3097 2700 3197 2384 
Q 3297 2069 3297 1709 
Q 3297 856 2875 390 
Q 2453 -75 1863 -75 
Q 1275 -75 941 416 
L 941 0 
z
M 934 1684 
Q 934 1088 1097 822 
Q 1363 388 1816 388 
Q 2184 388 2453 708 
Q 2722 1028 2722 1663 
Q 2722 2313 2464 2622 
Q 2206 2931 1841 2931 
Q 1472 2931 1203 2611 
Q 934 2291 934 1684 
z
" transform="scale(0.015625)"/>
       <path id="ArialMT-6c" d="M 409 0 
L 409 4581 
L 972 4581 
L 972 0 
L 409 0 
z
" transform="scale(0.015625)"/>
      </defs>
      <use xlink:href="#ArialMT-73"/>
      <use xlink:href="#ArialMT-74" x="50"/>
      <use xlink:href="#ArialMT-61" x="77.783203"/>
      <use xlink:href="#ArialMT-79" x="133.398438"/>
      <use xlink:href="#ArialMT-20" x="183.398438"/>
      <use xlink:href="#ArialMT-70" x="211.181641"/>
      <use xlink:href="#ArialMT-72" x="266.796875"/>
      <use xlink:href="#ArialMT-6f" x="300.097656"/>
      <use xlink:href="#ArialMT-62" x="355.712891"/>
      <use xlink:href="#ArialMT-61" x="411.328125"/>
      <use xlink:href="#ArialMT-62" x="466.943359"/>
      <use xlink:href="#ArialMT-69" x="522.558594"/>
      <use xlink:href="#ArialMT-6c" x="544.775391"/>
      <use xlink:href="#ArialMT-69" x="566.992188"/>
      <use xlink:href="#ArialMT-74" x="589.208984"/>
      <use xlink:href="#ArialMT-79" x="616.992188"/>
     </g>
    </g>
   </g>
   <g id="PathCollection_1">
    <defs>
     <path id="C0_0_c83126ed46" d="M 0 3.5 
C 0.928211 3.5 1.81853 3.131218 2.474874 2.474874 
C 3.131218 1.81853 3.5 0.928211 3.5 -0 
C 3.5 -0.928211 3.131218 -1.81853 2.474874 -2.474874 
C 1.81853 -3.131218 0.928211 -3.5 0 -3.5 
C -0.928211 -3.5 -1.81853 -3.131218 -2.474874 -2.474874 
C -3.131218 -1.81853 -3.5 -0.928211 -3.5 0 
C -3.5 0.928211 -3.131218 1.81853 -2.474874 2.474874 
C -1.81853 3.131218 -0.928211 3.5 0 3.5 
z
"/>
    </defs>
    <g clip-path="url(#pb899fcee51)">
     <use xlink:href="#C0_0_c83126ed46" x="35.525679" y="15.552" style="fill: #174263; fill-opacity: 0.45"/>
    </g>
    <g clip-path="url(#pb899fcee51)">
     <use xlink:href="#C0_0_c83126ed46" x="34.463546" y="15.552" style="fill: #174263; fill-opacity: 0.45"/>
    </g>
    <g clip-path="url(#pb899fcee51)">
     <use xlink:href="#C0_0_c83126ed46" x="33.160492" y="19.54368" style="fill: #174263; fill-opacity: 0.45"/>
    </g>
    <g clip-path="url(#pb899fcee51)">
     <use xlink:href="#C0_0_c83126ed46" x="37.185109" y="20.5416" style="fill: #174263; fill-opacity: 0.45"/>
    </g>
    <g clip-path="url(#pb899fcee51)">
     <use xlink:href="#C0_0_c83126ed46" x="34.490728" y="15.552" style="fill: #174263; fill-opacity: 0.45"/>
    </g>
    <g clip-path="url(#pb899fcee51)">
     <use xlink:href="#C0_0_c83126ed46" x="33.124481" y="18.54576" style="fill: #174263; fill-opacity: 0.45"/>
    </g>
    <g clip-path="url(#pb899fcee51)">
     <use xlink:href="#C0_0_c83126ed46" x="36.629479" y="15.552" style="fill: #174263; fill-opacity: 0.45"/>
    </g>
    <g clip-path="url(#pb899fcee51)">
     <use xlink:href="#C0_0_c83126ed46" x="33.877537" y="59.46048" style="fill: #174263; fill-opacity: 0.45"/>
    </g>
    <g clip-path="url(#pb899fcee51)">
     <use xlink:href="#C0_0_c83126ed46" x="32.24039" y="32.51664" style="fill: #174263; fill-opacity: 0.45"/>
    </g>
    <g clip-path="url(#pb899fcee51)">
     <use xlink:href="#C0_0_c83126ed46" x="35.412129" y="15.552" style="fill: #174263; fill-opacity: 0.45"/>
    </g>
    <g clip-path="url(#pb899fcee51)">
     <use xlink:href="#C0_0_c83126ed46" x="34.144545" y="17.54784" style="fill: #174263; fill-opacity: 0.45"/>
    </g>
    <g clip-path="url(#pb899fcee51)">
     <use xlink:href="#C0_0_c83126ed46" x="35.820145" y="17.54784" style="fill: #174263; fill-opacity: 0.45"/>
    </g>
    <g clip-path="url(#pb899fcee51)">
     <use xlink:href="#C0_0_c83126ed46" x="36.447051" y="20.5416" style="fill: #174263; fill-opacity: 0.45"/>
    </g>
    <g clip-path="url(#pb899fcee51)">
     <use xlink:href="#C0_0_c83126ed46" x="33.307667" y="17.54784" style="fill: #174263; fill-opacity: 0.45"/>
    </g>
    <g clip-path="url(#pb899fcee51)">
     <use xlink:href="#C0_0_c83126ed46" x="36.358301" y="17.54784" style="fill: #174263; fill-opacity: 0.45"/>
    </g>
    <g clip-path="url(#pb899fcee51)">
     <use xlink:href="#C0_0_c83126ed46" x="32.770771" y="95.3856" style="fill: #174263; fill-opacity: 0.45"/>
    </g>
    <g clip-path="url(#pb899fcee51)">
     <use xlink:href="#C0_0_c83126ed46" x="37.24332" y="24.53328" style="fill: #174263; fill-opacity: 0.45"/>
    </g>
    <g clip-path="url(#pb899fcee51)">
     <use xlink:href="#C0_0_c83126ed46" x="36.081278" y="51.47712" style="fill: #174263; fill-opacity: 0.45"/>
    </g>
    <g clip-path="url(#pb899fcee51)">
     <use xlink:href="#C0_0_c83126ed46" x="37.14317" y="50.4792" style="fill: #174263; fill-opacity: 0.45"/>
    </g>
    <g clip-path="url(#pb899fcee51)">
     <use xlink:href="#C0_0_c83126ed46" x="37.38963" y="21.53952" style="fill: #174263; fill-opacity: 0.45"/>
    </g>
    <g clip-path="url(#pb899fcee51)">
     <use xlink:href="#C0_0_c83126ed46" x="34.135306" y="95.3856" style="fill: #174263; fill-opacity: 0.45"/>
    </g>
    <g clip-path="url(#pb899fcee51)">
     <use xlink:href="#C0_0_c83126ed46" x="34.17542" y="27.52704" style="fill: #174263; fill-opacity: 0.45"/>
    </g>
    <g clip-path="url(#pb899fcee51)">
     <use xlink:href="#C0_0_c83126ed46" x="33.543578" y="66.44592" style="fill: #174263; fill-opacity: 0.45"/>
    </g>
    <g clip-path="url(#pb899fcee51)">
     <use xlink:href="#C0_0_c83126ed46" x="32.949072" y="17.54784" style="fill: #174263; fill-opacity: 0.45"/>
    </g>
    <g clip-path="url(#pb899fcee51)">
     <use xlink:href="#C0_0_c83126ed46" x="33.438463" y="22.53744" style="fill: #174263; fill-opacity: 0.45"/>
    </g>
    <g clip-path="url(#pb899fcee51)">
     <use xlink:href="#C0_0_c83126ed46" x="32.930758" y="19.54368" style="fill: #174263; fill-opacity: 0.45"/>
    </g>
    <g clip-path="url(#pb899fcee51)">
     <use xlink:href="#C0_0_c83126ed46" x="36.011494" y="15.552" style="fill: #174263; fill-opacity: 0.45"/>
    </g>
    <g clip-path="url(#pb899fcee51)">
     <use xlink:href="#C0_0_c83126ed46" x="37.061248" y="23.53536" style="fill: #174263; fill-opacity: 0.45"/>
    </g>
    <g clip-path="url(#pb899fcee51)">
     <use xlink:href="#C0_0_c83126ed46" x="33.722586" y="42.49584" style="fill: #174263; fill-opacity: 0.45"/>
    </g>
    <g clip-path="url(#pb899fcee51)">
     <use xlink:href="#C0_0_c83126ed46" x="34.982425" y="38.50416" style="fill: #174263; fill-opacity: 0.45"/>
    </g>
    <g clip-path="url(#pb899fcee51)">
     <use xlink:href="#C0_0_c83126ed46" x="36.509029" y="15.552" style="fill: #174263; fill-opacity: 0.45"/>
    </g>
    <g clip-path="url(#pb899fcee51)">
     <use xlink:href="#C0_0_c83126ed46" x="37.419449" y="17.54784" style="fill: #174263; fill-opacity: 0.45"/>
    </g>
    <g clip-path="url(#pb899fcee51)">
     <use xlink:href="#C0_0_c83126ed46" x="35.225577" y="18.54576" style="fill: #174263; fill-opacity: 0.45"/>
    </g>
    <g clip-path="url(#pb899fcee51)">
     <use xlink:href="#C0_0_c83126ed46" x="33.704218" y="18.54576" style="fill: #174263; fill-opacity: 0.45"/>
    </g>
    <g clip-path="url(#pb899fcee51)">
     <use xlink:href="#C0_0_c83126ed46" x="31.960682" y="50.4792" style="fill: #174263; fill-opacity: 0.45"/>
    </g>
    <g clip-path="url(#pb899fcee51)">
     <use xlink:href="#C0_0_c83126ed46" x="35.459462" y="15.552" style="fill: #174263; fill-opacity: 0.45"/>
    </g>
    <g clip-path="url(#pb899fcee51)">
     <use xlink:href="#C0_0_c83126ed46" x="37.175263" y="19.54368" style="fill: #174263; fill-opacity: 0.45"/>
    </g>
    <g clip-path="url(#pb899fcee51)">
     <use xlink:href="#C0_0_c83126ed46" x="33.01819" y="15.552" style="fill: #174263; fill-opacity: 0.45"/>
    </g>
   </g>
   <g id="PathCollection_2">
    <defs>
     <path id="C1_0_3f5be2fcf0" d="M 0 3.5 
C 0.928211 3.5 1.81853 3.131218 2.474874 2.474874 
C 3.131218 1.81853 3.5 0.928211 3.5 -0 
C 3.5 -0.928211 3.131218 -1.81853 2.474874 -2.474874 
C 1.81853 -3.131218 0.928211 -3.5 0 -3.5 
C -0.928211 -3.5 -1.81853 -3.131218 -2.474874 -2.474874 
C -3.131218 -1.81853 -3.5 -0.928211 -3.5 0 
C -3.5 0.928211 -3.131218 1.81853 -2.474874 2.474874 
C -1.81853 3.131218 -0.928211 3.5 0 3.5 
z
"/>
    </defs>
    <g clip-path="url(#pb899fcee51)">
     <use xlink:href="#C1_0_3f5be2fcf0" x="58.636776" y="15.552" style="fill: #d75728; fill-opacity: 0.45"/>
    </g>
    <g clip-path="url(#pb899fcee51)">
     <use xlink:href="#C1_0_3f5be2fcf0" x="56.426368" y="115.344" style="fill: #d75728; fill-opacity: 0.45"/>
    </g>
    <g clip-path="url(#pb899fcee51)">
     <use xlink:href="#C1_0_3f5be2fcf0" x="56.304202" y="72.43344" style="fill: #d75728; fill-opacity: 0.45"/>
    </g>
    <g clip-path="url(#pb899fcee51)">
     <use xlink:href="#C1_0_3f5be2fcf0" x="58.18558" y="33.51456" style="fill: #d75728; fill-opacity: 0.45"/>
    </g>
    <g clip-path="url(#pb899fcee51)">
     <use xlink:href="#C1_0_3f5be2fcf0" x="55.402264" y="65.448" style="fill: #d75728; fill-opacity: 0.45"/>
    </g>
    <g clip-path="url(#pb899fcee51)">
     <use xlink:href="#C1_0_3f5be2fcf0" x="58.29301" y="109.35648" style="fill: #d75728; fill-opacity: 0.45"/>
    </g>
    <g clip-path="url(#pb899fcee51)">
     <use xlink:href="#C1_0_3f5be2fcf0" x="56.628419" y="115.344" style="fill: #d75728; fill-opacity: 0.45"/>
    </g>
    <g clip-path="url(#pb899fcee51)">
     <use xlink:href="#C1_0_3f5be2fcf0" x="58.588656" y="73.43136" style="fill: #d75728; fill-opacity: 0.45"/>
    </g>
    <g clip-path="url(#pb899fcee51)">
     <use xlink:href="#C1_0_3f5be2fcf0" x="58.368581" y="40.5" style="fill: #d75728; fill-opacity: 0.45"/>
    </g>
    <g clip-path="url(#pb899fcee51)">
     <use xlink:href="#C1_0_3f5be2fcf0" x="57.18023" y="98.37936" style="fill: #d75728; fill-opacity: 0.45"/>
    </g>
    <g clip-path="url(#pb899fcee51)">
     <use xlink:href="#C1_0_3f5be2fcf0" x="59.117383" y="115.344" style="fill: #d75728; fill-opacity: 0.45"/>
    </g>
    <g clip-path="url(#pb899fcee51)">
     <use xlink:href="#C1_0_3f5be2fcf0" x="58.764154" y="79.41888" style="fill: #d75728; fill-opacity: 0.45"/>
    </g>
    <g clip-path="url(#pb899fcee51)">
     <use xlink:href="#C1_0_3f5be2fcf0" x="58.586637" y="15.552" style="fill: #d75728; fill-opacity: 0.45"/>
    </g>
    <g clip-path="url(#pb899fcee51)">
     <use xlink:href="#C1_0_3f5be2fcf0" x="59.205346" y="33.51456" style="fill: #d75728; fill-opacity: 0.45"/>
    </g>
    <g clip-path="url(#pb899fcee51)">
     <use xlink:href="#C1_0_3f5be2fcf0" x="59.387969" y="115.344" style="fill: #d75728; fill-opacity: 0.45"/>
    </g>
    <g clip-path="url(#pb899fcee51)">
     <use xlink:href="#C1_0_3f5be2fcf0" x="54.619402" y="115.344" style="fill: #d75728; fill-opacity: 0.45"/>
    </g>
    <g clip-path="url(#pb899fcee51)">
     <use xlink:href="#C1_0_3f5be2fcf0" x="56.346713" y="101.37312" style="fill: #d75728; fill-opacity: 0.45"/>
    </g>
    <g clip-path="url(#pb899fcee51)">
     <use xlink:href="#C1_0_3f5be2fcf0" x="57.758666" y="23.53536" style="fill: #d75728; fill-opacity: 0.45"/>
    </g>
    <g clip-path="url(#pb899fcee51)">
     <use xlink:href="#C1_0_3f5be2fcf0" x="57.536512" y="107.36064" style="fill: #d75728; fill-opacity: 0.45"/>
    </g>
    <g clip-path="url(#pb899fcee51)">
     <use xlink:href="#C1_0_3f5be2fcf0" x="59.379516" y="28.52496" style="fill: #d75728; fill-opacity: 0.45"/>
    </g>
    <g clip-path="url(#pb899fcee51)">
     <use xlink:href="#C1_0_3f5be2fcf0" x="57.947092" y="25.5312" style="fill: #d75728; fill-opacity: 0.45"/>
    </g>
    <g clip-path="url(#pb899fcee51)">
     <use xlink:href="#C1_0_3f5be2fcf0" x="57.17659" y="33.51456" style="fill: #d75728; fill-opacity: 0.45"/>
    </g>
    <g clip-path="url(#pb899fcee51)">
     <use xlink:href="#C1_0_3f5be2fcf0" x="55.923817" y="88.40016" style="fill: #d75728; fill-opacity: 0.45"/>
    </g>
    <g clip-path="url(#pb899fcee51)">
     <use xlink:href="#C1_0_3f5be2fcf0" x="56.164562" y="115.344" style="fill: #d75728; fill-opacity: 0.45"/>
    </g>
    <g clip-path="url(#pb899fcee51)">
     <use xlink:href="#C1_0_3f5be2fcf0" x="56.883485" y="95.3856" style="fill: #d75728; fill-opacity: 0.45"/>
    </g>
    <g clip-path="url(#pb899fcee51)">
     <use xlink:href="#C1_0_3f5be2fcf0" x="54.320161" y="21.53952" style="fill: #d75728; fill-opacity: 0.45"/>
    </g>
    <g clip-path="url(#pb899fcee51)">
     <use xlink:href="#C1_0_3f5be2fcf0" x="57.036225" y="29.52288" style="fill: #d75728; fill-opacity: 0.45"/>
    </g>
    <g clip-path="url(#pb899fcee51)">
     <use xlink:href="#C1_0_3f5be2fcf0" x="54.503466" y="89.39808" style="fill: #d75728; fill-opacity: 0.45"/>
    </g>
    <g clip-path="url(#pb899fcee51)">
     <use xlink:href="#C1_0_3f5be2fcf0" x="57.504804" y="59.46048" style="fill: #d75728; fill-opacity: 0.45"/>
    </g>
    <g clip-path="url(#pb899fcee51)">
     <use xlink:href="#C1_0_3f5be2fcf0" x="55.576185" y="53.47296" style="fill: #d75728; fill-opacity: 0.45"/>
    </g>
    <g clip-path="url(#pb899fcee51)">
     <use xlink:href="#C1_0_3f5be2fcf0" x="56.071323" y="91.39392" style="fill: #d75728; fill-opacity: 0.45"/>
    </g>
    <g clip-path="url(#pb899fcee51)">
     <use xlink:href="#C1_0_3f5be2fcf0" x="57.765698" y="107.36064" style="fill: #d75728; fill-opacity: 0.45"/>
    </g>
    <g clip-path="url(#pb899fcee51)">
     <use xlink:href="#C1_0_3f5be2fcf0" x="59.527957" y="115.344" style="fill: #d75728; fill-opacity: 0.45"/>
    </g>
    <g clip-path="url(#pb899fcee51)">
     <use xlink:href="#C1_0_3f5be2fcf0" x="58.114838" y="115.344" style="fill: #d75728; fill-opacity: 0.45"/>
    </g>
    <g clip-path="url(#pb899fcee51)">
     <use xlink:href="#C1_0_3f5be2fcf0" x="57.117311" y="115.344" style="fill: #d75728; fill-opacity: 0.45"/>
    </g>
    <g clip-path="url(#pb899fcee51)">
     <use xlink:href="#C1_0_3f5be2fcf0" x="55.145975" y="102.37104" style="fill: #d75728; fill-opacity: 0.45"/>
    </g>
    <g clip-path="url(#pb899fcee51)">
     <use xlink:href="#C1_0_3f5be2fcf0" x="58.703628" y="44.49168" style="fill: #d75728; fill-opacity: 0.45"/>
    </g>
    <g clip-path="url(#pb899fcee51)">
     <use xlink:href="#C1_0_3f5be2fcf0" x="57.764347" y="96.38352" style="fill: #d75728; fill-opacity: 0.45"/>
    </g>
   </g>
   <g id="PathCollection_3">
    <defs>
     <path id="C2_0_ca7197206d" d="M 0 3.5 
C 0.928211 3.5 1.81853 3.131218 2.474874 2.474874 
C 3.131218 1.81853 3.5 0.928211 3.5 -0 
C 3.5 -0.928211 3.131218 -1.81853 2.474874 -2.474874 
C 1.81853 -3.131218 0.928211 -3.5 0 -3.5 
C -0.928211 -3.5 -1.81853 -3.131218 -2.474874 -2.474874 
C -3.131218 -1.81853 -3.5 -0.928211 -3.5 0 
C -3.5 0.928211 -3.131218 1.81853 -2.474874 2.474874 
C -1.81853 3.131218 -0.928211 3.5 0 3.5 
z
"/>
    </defs>
    <g clip-path="url(#pb899fcee51)">
     <use xlink:href="#C2_0_ca7197206d" x="90.826248" y="22.53744" style="fill: #174263; fill-opacity: 0.45"/>
    </g>
    <g clip-path="url(#pb899fcee51)">
     <use xlink:href="#C2_0_ca7197206d" x="93.168293" y="17.54784" style="fill: #174263; fill-opacity: 0.45"/>
    </g>
    <g clip-path="url(#pb899fcee51)">
     <use xlink:href="#C2_0_ca7197206d" x="89.863381" y="101.37312" style="fill: #174263; fill-opacity: 0.45"/>
    </g>
    <g clip-path="url(#pb899fcee51)">
     <use xlink:href="#C2_0_ca7197206d" x="92.41782" y="112.35024" style="fill: #174263; fill-opacity: 0.45"/>
    </g>
    <g clip-path="url(#pb899fcee51)">
     <use xlink:href="#C2_0_ca7197206d" x="92.793234" y="79.41888" style="fill: #174263; fill-opacity: 0.45"/>
    </g>
    <g clip-path="url(#pb899fcee51)">
     <use xlink:href="#C2_0_ca7197206d" x="88.463179" y="112.35024" style="fill: #174263; fill-opacity: 0.45"/>
    </g>
    <g clip-path="url(#pb899fcee51)">
     <use xlink:href="#C2_0_ca7197206d" x="89.429367" y="115.344" style="fill: #174263; fill-opacity: 0.45"/>
    </g>
    <g clip-path="url(#pb899fcee51)">
     <use xlink:href="#C2_0_ca7197206d" x="92.898965" y="79.41888" style="fill: #174263; fill-opacity: 0.45"/>
    </g>
    <g clip-path="url(#pb899fcee51)">
     <use xlink:href="#C2_0_ca7197206d" x="91.767321" y="85.4064" style="fill: #174263; fill-opacity: 0.45"/>
    </g>
    <g clip-path="url(#pb899fcee51)">
     <use xlink:href="#C2_0_ca7197206d" x="90.620312" y="115.344" style="fill: #174263; fill-opacity: 0.45"/>
    </g>
    <g clip-path="url(#pb899fcee51)">
     <use xlink:href="#C2_0_ca7197206d" x="89.912992" y="115.344" style="fill: #174263; fill-opacity: 0.45"/>
    </g>
    <g clip-path="url(#pb899fcee51)">
     <use xlink:href="#C2_0_ca7197206d" x="90.532852" y="86.40432" style="fill: #174263; fill-opacity: 0.45"/>
    </g>
    <g clip-path="url(#pb899fcee51)">
     <use xlink:href="#C2_0_ca7197206d" x="90.843822" y="79.41888" style="fill: #174263; fill-opacity: 0.45"/>
    </g>
    <g clip-path="url(#pb899fcee51)">
     <use xlink:href="#C2_0_ca7197206d" x="92.352864" y="79.41888" style="fill: #174263; fill-opacity: 0.45"/>
    </g>
    <g clip-path="url(#pb899fcee51)">
     <use xlink:href="#C2_0_ca7197206d" x="91.07689" y="112.35024" style="fill: #174263; fill-opacity: 0.45"/>
    </g>
    <g clip-path="url(#pb899fcee51)">
     <use xlink:href="#C2_0_ca7197206d" x="88.896093" y="80.4168" style="fill: #174263; fill-opacity: 0.45"/>
    </g>
    <g clip-path="url(#pb899fcee51)">
     <use xlink:href="#C2_0_ca7197206d" x="88.746874" y="81.41472" style="fill: #174263; fill-opacity: 0.45"/>
    </g>
    <g clip-path="url(#pb899fcee51)">
     <use xlink:href="#C2_0_ca7197206d" x="92.92858" y="25.5312" style="fill: #174263; fill-opacity: 0.45"/>
    </g>
    <g clip-path="url(#pb899fcee51)">
     <use xlink:href="#C2_0_ca7197206d" x="87.819105" y="110.3544" style="fill: #174263; fill-opacity: 0.45"/>
    </g>
    <g clip-path="url(#pb899fcee51)">
     <use xlink:href="#C2_0_ca7197206d" x="91.708254" y="62.45424" style="fill: #174263; fill-opacity: 0.45"/>
    </g>
    <g clip-path="url(#pb899fcee51)">
     <use xlink:href="#C2_0_ca7197206d" x="93.205833" y="21.53952" style="fill: #174263; fill-opacity: 0.45"/>
    </g>
    <g clip-path="url(#pb899fcee51)">
     <use xlink:href="#C2_0_ca7197206d" x="89.835177" y="109.35648" style="fill: #174263; fill-opacity: 0.45"/>
    </g>
    <g clip-path="url(#pb899fcee51)">
     <use xlink:href="#C2_0_ca7197206d" x="89.252635" y="109.35648" style="fill: #174263; fill-opacity: 0.45"/>
    </g>
    <g clip-path="url(#pb899fcee51)">
     <use xlink:href="#C2_0_ca7197206d" x="88.3798" y="115.344" style="fill: #174263; fill-opacity: 0.45"/>
    </g>
    <g clip-path="url(#pb899fcee51)">
     <use xlink:href="#C2_0_ca7197206d" x="92.829245" y="88.40016" style="fill: #174263; fill-opacity: 0.45"/>
    </g>
    <g clip-path="url(#pb899fcee51)">
     <use xlink:href="#C2_0_ca7197206d" x="90.284227" y="77.42304" style="fill: #174263; fill-opacity: 0.45"/>
    </g>
    <g clip-path="url(#pb899fcee51)">
     <use xlink:href="#C2_0_ca7197206d" x="91.202341" y="108.35856" style="fill: #174263; fill-opacity: 0.45"/>
    </g>
    <g clip-path="url(#pb899fcee51)">
     <use xlink:href="#C2_0_ca7197206d" x="89.180373" y="109.35648" style="fill: #174263; fill-opacity: 0.45"/>
    </g>
    <g clip-path="url(#pb899fcee51)">
     <use xlink:href="#C2_0_ca7197206d" x="88.077142" y="72.43344" style="fill: #174263; fill-opacity: 0.45"/>
    </g>
    <g clip-path="url(#pb899fcee51)">
     <use xlink:href="#C2_0_ca7197206d" x="91.425949" y="85.4064" style="fill: #174263; fill-opacity: 0.45"/>
    </g>
    <g clip-path="url(#pb899fcee51)">
     <use xlink:href="#C2_0_ca7197206d" x="87.873163" y="115.344" style="fill: #174263; fill-opacity: 0.45"/>
    </g>
    <g clip-path="url(#pb899fcee51)">
     <use xlink:href="#C2_0_ca7197206d" x="91.001846" y="115.344" style="fill: #174263; fill-opacity: 0.45"/>
    </g>
    <g clip-path="url(#pb899fcee51)">
     <use xlink:href="#C2_0_ca7197206d" x="91.430623" y="115.344" style="fill: #174263; fill-opacity: 0.45"/>
    </g>
    <g clip-path="url(#pb899fcee51)">
     <use xlink:href="#C2_0_ca7197206d" x="89.226135" y="113.34816" style="fill: #174263; fill-opacity: 0.45"/>
    </g>
    <g clip-path="url(#pb899fcee51)">
     <use xlink:href="#C2_0_ca7197206d" x="90.576675" y="115.344" style="fill: #174263; fill-opacity: 0.45"/>
    </g>
    <g clip-path="url(#pb899fcee51)">
     <use xlink:href="#C2_0_ca7197206d" x="89.384258" y="102.37104" style="fill: #174263; fill-opacity: 0.45"/>
    </g>
    <g clip-path="url(#pb899fcee51)">
     <use xlink:href="#C2_0_ca7197206d" x="92.976901" y="59.46048" style="fill: #174263; fill-opacity: 0.45"/>
    </g>
    <g clip-path="url(#pb899fcee51)">
     <use xlink:href="#C2_0_ca7197206d" x="90.773339" y="112.35024" style="fill: #174263; fill-opacity: 0.45"/>
    </g>
   </g>
   <g id="PathCollection_4">
    <defs>
     <path id="C3_0_bd0d78def4" d="M 0 3.5 
C 0.928211 3.5 1.81853 3.131218 2.474874 2.474874 
C 3.131218 1.81853 3.5 0.928211 3.5 -0 
C 3.5 -0.928211 3.131218 -1.81853 2.474874 -2.474874 
C 1.81853 -3.131218 0.928211 -3.5 0 -3.5 
C -0.928211 -3.5 -1.81853 -3.131218 -2.474874 -2.474874 
C -3.131218 -1.81853 -3.5 -0.928211 -3.5 0 
C -3.5 0.928211 -3.131218 1.81853 -2.474874 2.474874 
C -1.81853 3.131218 -0.928211 3.5 0 3.5 
z
"/>
    </defs>
    <g clip-path="url(#pb899fcee51)">
     <use xlink:href="#C3_0_bd0d78def4" x="111.018886" y="15.552" style="fill: #d75728; fill-opacity: 0.45"/>
    </g>
    <g clip-path="url(#pb899fcee51)">
     <use xlink:href="#C3_0_bd0d78def4" x="111.018887" y="115.344" style="fill: #d75728; fill-opacity: 0.45"/>
    </g>
    <g clip-path="url(#pb899fcee51)">
     <use xlink:href="#C3_0_bd0d78def4" x="114.389139" y="28.52496" style="fill: #d75728; fill-opacity: 0.45"/>
    </g>
    <g clip-path="url(#pb899fcee51)">
     <use xlink:href="#C3_0_bd0d78def4" x="112.265717" y="100.3752" style="fill: #d75728; fill-opacity: 0.45"/>
    </g>
    <g clip-path="url(#pb899fcee51)">
     <use xlink:href="#C3_0_bd0d78def4" x="111.833556" y="23.53536" style="fill: #d75728; fill-opacity: 0.45"/>
    </g>
    <g clip-path="url(#pb899fcee51)">
     <use xlink:href="#C3_0_bd0d78def4" x="113.460977" y="15.552" style="fill: #d75728; fill-opacity: 0.45"/>
    </g>
    <g clip-path="url(#pb899fcee51)">
     <use xlink:href="#C3_0_bd0d78def4" x="110.380334" y="15.552" style="fill: #d75728; fill-opacity: 0.45"/>
    </g>
    <g clip-path="url(#pb899fcee51)">
     <use xlink:href="#C3_0_bd0d78def4" x="111.373182" y="32.51664" style="fill: #d75728; fill-opacity: 0.45"/>
    </g>
    <g clip-path="url(#pb899fcee51)">
     <use xlink:href="#C3_0_bd0d78def4" x="115.37401" y="73.43136" style="fill: #d75728; fill-opacity: 0.45"/>
    </g>
    <g clip-path="url(#pb899fcee51)">
     <use xlink:href="#C3_0_bd0d78def4" x="111.266975" y="22.53744" style="fill: #d75728; fill-opacity: 0.45"/>
    </g>
    <g clip-path="url(#pb899fcee51)">
     <use xlink:href="#C3_0_bd0d78def4" x="114.143705" y="22.53744" style="fill: #d75728; fill-opacity: 0.45"/>
    </g>
    <g clip-path="url(#pb899fcee51)">
     <use xlink:href="#C3_0_bd0d78def4" x="110.653588" y="21.53952" style="fill: #d75728; fill-opacity: 0.45"/>
    </g>
    <g clip-path="url(#pb899fcee51)">
     <use xlink:href="#C3_0_bd0d78def4" x="114.701732" y="82.41264" style="fill: #d75728; fill-opacity: 0.45"/>
    </g>
    <g clip-path="url(#pb899fcee51)">
     <use xlink:href="#C3_0_bd0d78def4" x="111.394668" y="23.53536" style="fill: #d75728; fill-opacity: 0.45"/>
    </g>
    <g clip-path="url(#pb899fcee51)">
     <use xlink:href="#C3_0_bd0d78def4" x="110.439872" y="35.5104" style="fill: #d75728; fill-opacity: 0.45"/>
    </g>
    <g clip-path="url(#pb899fcee51)">
     <use xlink:href="#C3_0_bd0d78def4" x="114.119979" y="79.41888" style="fill: #d75728; fill-opacity: 0.45"/>
    </g>
    <g clip-path="url(#pb899fcee51)">
     <use xlink:href="#C3_0_bd0d78def4" x="114.609404" y="35.5104" style="fill: #d75728; fill-opacity: 0.45"/>
    </g>
    <g clip-path="url(#pb899fcee51)">
     <use xlink:href="#C3_0_bd0d78def4" x="111.081683" y="42.49584" style="fill: #d75728; fill-opacity: 0.45"/>
    </g>
    <g clip-path="url(#pb899fcee51)">
     <use xlink:href="#C3_0_bd0d78def4" x="114.948396" y="48.48336" style="fill: #d75728; fill-opacity: 0.45"/>
    </g>
    <g clip-path="url(#pb899fcee51)">
     <use xlink:href="#C3_0_bd0d78def4" x="111.082515" y="15.552" style="fill: #d75728; fill-opacity: 0.45"/>
    </g>
    <g clip-path="url(#pb899fcee51)">
     <use xlink:href="#C3_0_bd0d78def4" x="113.423504" y="110.3544" style="fill: #d75728; fill-opacity: 0.45"/>
    </g>
    <g clip-path="url(#pb899fcee51)">
     <use xlink:href="#C3_0_bd0d78def4" x="114.757519" y="115.344" style="fill: #d75728; fill-opacity: 0.45"/>
    </g>
    <g clip-path="url(#pb899fcee51)">
     <use xlink:href="#C3_0_bd0d78def4" x="112.30738" y="107.36064" style="fill: #d75728; fill-opacity: 0.45"/>
    </g>
    <g clip-path="url(#pb899fcee51)">
     <use xlink:href="#C3_0_bd0d78def4" x="113.477667" y="15.552" style="fill: #d75728; fill-opacity: 0.45"/>
    </g>
    <g clip-path="url(#pb899fcee51)">
     <use xlink:href="#C3_0_bd0d78def4" x="112.225704" y="48.48336" style="fill: #d75728; fill-opacity: 0.45"/>
    </g>
    <g clip-path="url(#pb899fcee51)">
     <use xlink:href="#C3_0_bd0d78def4" x="112.132805" y="48.48336" style="fill: #d75728; fill-opacity: 0.45"/>
    </g>
    <g clip-path="url(#pb899fcee51)">
     <use xlink:href="#C3_0_bd0d78def4" x="113.272572" y="105.3648" style="fill: #d75728; fill-opacity: 0.45"/>
    </g>
    <g clip-path="url(#pb899fcee51)">
     <use xlink:href="#C3_0_bd0d78def4" x="111.114597" y="72.43344" style="fill: #d75728; fill-opacity: 0.45"/>
    </g>
    <g clip-path="url(#pb899fcee51)">
     <use xlink:href="#C3_0_bd0d78def4" x="113.425776" y="55.4688" style="fill: #d75728; fill-opacity: 0.45"/>
    </g>
    <g clip-path="url(#pb899fcee51)">
     <use xlink:href="#C3_0_bd0d78def4" x="114.697784" y="57.46464" style="fill: #d75728; fill-opacity: 0.45"/>
    </g>
    <g clip-path="url(#pb899fcee51)">
     <use xlink:href="#C3_0_bd0d78def4" x="114.450048" y="15.552" style="fill: #d75728; fill-opacity: 0.45"/>
    </g>
    <g clip-path="url(#pb899fcee51)">
     <use xlink:href="#C3_0_bd0d78def4" x="113.972864" y="15.552" style="fill: #d75728; fill-opacity: 0.45"/>
    </g>
    <g clip-path="url(#pb899fcee51)">
     <use xlink:href="#C3_0_bd0d78def4" x="112.106561" y="15.552" style="fill: #d75728; fill-opacity: 0.45"/>
    </g>
    <g clip-path="url(#pb899fcee51)">
     <use xlink:href="#C3_0_bd0d78def4" x="111.793088" y="15.552" style="fill: #d75728; fill-opacity: 0.45"/>
    </g>
    <g clip-path="url(#pb899fcee51)">
     <use xlink:href="#C3_0_bd0d78def4" x="111.802904" y="15.552" style="fill: #d75728; fill-opacity: 0.45"/>
    </g>
    <g clip-path="url(#pb899fcee51)">
     <use xlink:href="#C3_0_bd0d78def4" x="112.092247" y="25.5312" style="fill: #d75728; fill-opacity: 0.45"/>
    </g>
    <g clip-path="url(#pb899fcee51)">
     <use xlink:href="#C3_0_bd0d78def4" x="115.613038" y="22.53744" style="fill: #d75728; fill-opacity: 0.45"/>
    </g>
    <g clip-path="url(#pb899fcee51)">
     <use xlink:href="#C3_0_bd0d78def4" x="112.723044" y="59.46048" style="fill: #d75728; fill-opacity: 0.45"/>
    </g>
   </g>
   <g id="line2d_8">
    <path d="M 33.2055 32.414148 
L 36.2745 32.414148 
M 34.74 32.414148 
L 34.74 25.633692 
M 33.2055 25.633692 
L 36.2745 25.633692 
" clip-path="url(#pb899fcee51)" style="fill: none; stroke: #333333; stroke-width: 2.5; stroke-linecap: square"/>
   </g>
   <g id="line2d_9">
    <path d="M 89.0055 94.721254 
L 92.0745 94.721254 
M 90.54 94.721254 
L 90.54 85.282914 
M 89.0055 85.282914 
L 92.0745 85.282914 
" clip-path="url(#pb899fcee51)" style="fill: none; stroke: #333333; stroke-width: 2.5; stroke-linecap: square"/>
   </g>
   <g id="line2d_10">
    <path d="M 55.5255 81.52787 
L 58.5945 81.52787 
M 57.06 81.52787 
L 57.06 69.746707 
M 55.5255 69.746707 
L 58.5945 69.746707 
" clip-path="url(#pb899fcee51)" style="fill: none; stroke: #333333; stroke-width: 2.5; stroke-linecap: square"/>
   </g>
   <g id="line2d_11">
    <path d="M 111.3255 52.082607 
L 114.3945 52.082607 
M 112.86 52.082607 
L 112.86 41.155044 
M 111.3255 41.155044 
L 114.3945 41.155044 
" clip-path="url(#pb899fcee51)" style="fill: none; stroke: #333333; stroke-width: 2.5; stroke-linecap: square"/>
   </g>
   <g id="patch_15">
    <path d="M 18 115.344 
L 18 15.552 
" style="fill: none; stroke: #000000; stroke-linejoin: miter; stroke-linecap: square"/>
   </g>
   <g id="patch_16">
    <path d="M 18 115.344 
L 129.6 115.344 
" style="fill: none; stroke: #000000; stroke-linejoin: miter; stroke-linecap: square"/>
   </g>
   <g id="PathCollection_5">
    <defs>
     <path id="mb95dfc9cea" d="M 0 3 
C 0.795609 3 1.55874 2.683901 2.12132 2.12132 
C 2.683901 1.55874 3 0.795609 3 0 
C 3 -0.795609 2.683901 -1.55874 2.12132 -2.12132 
C 1.55874 -2.683901 0.795609 -3 0 -3 
C -0.795609 -3 -1.55874 -2.683901 -2.12132 -2.12132 
C -2.683901 -1.55874 -3 -0.795609 -3 0 
C -3 0.795609 -2.683901 1.55874 -2.12132 2.12132 
C -1.55874 2.683901 -0.795609 3 0 3 
z
"/>
    </defs>
    <g clip-path="url(#pb899fcee51)">
     <use xlink:href="#mb95dfc9cea" x="34.74" y="29.02392" style="fill: #333333"/>
    </g>
   </g>
   <g id="PathCollection_6">
    <g clip-path="url(#pb899fcee51)">
     <use xlink:href="#mb95dfc9cea" x="57.06" y="75.637288" style="fill: #333333"/>
    </g>
   </g>
   <g id="PathCollection_7">
    <g clip-path="url(#pb899fcee51)">
     <use xlink:href="#mb95dfc9cea" x="90.54" y="90.002084" style="fill: #333333"/>
    </g>
   </g>
   <g id="PathCollection_8">
    <g clip-path="url(#pb899fcee51)">
     <use xlink:href="#mb95dfc9cea" x="112.86" y="46.618825" style="fill: #333333"/>
    </g>
   </g>
   <g id="line2d_12"/>
   <g id="line2d_13"/>
  </g>
 </g>
 <defs>
  <clipPath id="pb899fcee51">
   <rect x="18" y="15.552" width="111.6" height="99.792"/>
  </clipPath>
 </defs>
</svg>
