<?xml version="1.0" encoding="utf-8" standalone="no"?>
<!DOCTYPE svg PUBLIC "-//W3C//DTD SVG 1.1//EN"
  "http://www.w3.org/Graphics/SVG/1.1/DTD/svg11.dtd">
<svg xmlns:xlink="http://www.w3.org/1999/xlink" width="144pt" height="129.6pt" viewBox="0 0 144 129.6" xmlns="http://www.w3.org/2000/svg" version="1.1">
 <metadata>
  <rdf:RDF xmlns:dc="http://purl.org/dc/elements/1.1/" xmlns:cc="http://creativecommons.org/ns#" xmlns:rdf="http://www.w3.org/1999/02/22-rdf-syntax-ns#">
   <cc:Work>
    <dc:type rdf:resource="http://purl.org/dc/dcmitype/StillImage"/>
    <dc:date>2025-04-02T23:09:01.046813</dc:date>
    <dc:format>image/svg+xml</dc:format>
    <dc:creator>
     <cc:Agent>
      <dc:title>Matplotlib v3.7.1, https://matplotlib.org/</dc:title>
     </cc:Agent>
    </dc:creator>
   </cc:Work>
  </rdf:RDF>
 </metadata>
 <defs>
  <style type="text/css">*{stroke-linejoin: round; stroke-linecap: butt}</style>
 </defs>
 <g id="figure_1">
  <g id="patch_1">
   <path d="M 0 129.6 
L 144 129.6 
L 144 0 
L 0 0 
L 0 129.6 
z
" style="fill: none"/>
  </g>
  <g id="axes_1">
   <g id="patch_2">
    <path d="M 18 115.344 
L 129.6 115.344 
L 129.6 15.552 
L 18 15.552 
L 18 115.344 
z
" style="fill: none"/>
   </g>
   <g id="PolyCollection_1">
    <path d="M 34.86161 88.702302 
L 34.61839 88.702302 
L 34.582125 88.054506 
L 34.537608 87.40671 
L 34.483764 86.758913 
L 34.4196 86.111117 
L 34.344286 85.463321 
L 34.25722 84.815525 
L 34.158115 84.167729 
L 34.047067 83.519933 
L 33.924612 82.872137 
L 33.791767 82.224341 
L 33.650035 81.576545 
L 33.501387 80.928748 
L 33.348197 80.280952 
L 33.193149 79.633156 
L 33.039104 78.98536 
L 32.888944 78.337564 
L 32.745397 77.689768 
L 32.610863 77.041972 
L 32.487249 76.394176 
L 32.375828 75.74638 
L 32.277147 75.098583 
L 32.190971 74.450787 
L 32.116298 73.802991 
L 32.051416 73.155195 
L 31.99402 72.507399 
L 31.94136 71.859603 
L 31.890426 71.211807 
L 31.838128 70.564011 
L 31.781479 69.916215 
L 31.717749 69.268418 
L 31.644593 68.620622 
L 31.560135 67.972826 
L 31.463012 67.32503 
L 31.352381 66.677234 
L 31.227896 66.029438 
L 31.089666 65.381642 
L 30.938188 64.733846 
L 30.774279 64.08605 
L 30.599003 63.438253 
L 30.413587 62.790457 
L 30.219343 62.142661 
L 30.017573 61.494865 
L 29.809482 60.847069 
L 29.596079 60.199273 
L 29.37808 59.551477 
L 29.155834 58.903681 
L 28.929256 58.255885 
L 28.69781 57.608088 
L 28.460526 56.960292 
L 28.216083 56.312496 
L 27.962934 55.6647 
L 27.699497 55.016904 
L 27.424378 54.369108 
L 27.136623 53.721312 
L 26.835966 53.073516 
L 26.52307 52.42572 
L 26.199711 51.777923 
L 25.868911 51.130127 
L 25.534993 50.482331 
L 25.203554 49.834535 
L 24.88135 49.186739 
L 24.576108 48.538943 
L 24.296262 47.891147 
L 24.050639 47.243351 
L 23.848097 46.595555 
L 23.697147 45.947758 
L 23.60556 45.299962 
L 23.58 44.652166 
L 23.625675 44.00437 
L 23.746048 43.356574 
L 23.942608 42.708778 
L 24.214732 42.060982 
L 24.559625 41.413186 
L 24.972383 40.765389 
L 25.446138 40.117593 
L 25.972316 39.469797 
L 26.540971 38.822001 
L 27.141189 38.174205 
L 27.761537 37.526409 
L 28.390519 36.878613 
L 29.017024 36.230817 
L 29.63073 35.583021 
L 30.222447 34.935224 
L 30.784376 34.287428 
L 31.310279 33.639632 
L 31.795555 32.991836 
L 32.237231 32.34404 
L 32.633872 31.696244 
L 32.985428 31.048448 
L 33.293042 30.400652 
L 33.558824 29.752856 
L 33.785618 29.105059 
L 33.976778 28.457263 
L 34.135951 27.809467 
L 34.266899 27.161671 
L 34.373343 26.513875 
L 34.45884 25.866079 
L 34.526699 25.218283 
L 34.579922 24.570487 
L 34.900078 24.570487 
L 34.900078 24.570487 
L 34.953301 25.218283 
L 35.02116 25.866079 
L 35.106657 26.513875 
L 35.213101 27.161671 
L 35.344049 27.809467 
L 35.503222 28.457263 
L 35.694382 29.105059 
L 35.921176 29.752856 
L 36.186958 30.400652 
L 36.494572 31.048448 
L 36.846128 31.696244 
L 37.242769 32.34404 
L 37.684445 32.991836 
L 38.169721 33.639632 
L 38.695624 34.287428 
L 39.257553 34.935224 
L 39.84927 35.583021 
L 40.462976 36.230817 
L 41.089481 36.878613 
L 41.718463 37.526409 
L 42.338811 38.174205 
L 42.939029 38.822001 
L 43.507684 39.469797 
L 44.033862 40.117593 
L 44.507617 40.765389 
L 44.920375 41.413186 
L 45.265268 42.060982 
L 45.537392 42.708778 
L 45.733952 43.356574 
L 45.854325 44.00437 
L 45.9 44.652166 
L 45.87444 45.299962 
L 45.782853 45.947758 
L 45.631903 46.595555 
L 45.429361 47.243351 
L 45.183738 47.891147 
L 44.903892 48.538943 
L 44.59865 49.186739 
L 44.276446 49.834535 
L 43.945007 50.482331 
L 43.611089 51.130127 
L 43.280289 51.777923 
L 42.95693 52.42572 
L 42.644034 53.073516 
L 42.343377 53.721312 
L 42.055622 54.369108 
L 41.780503 55.016904 
L 41.517066 55.6647 
L 41.263917 56.312496 
L 41.019474 56.960292 
L 40.78219 57.608088 
L 40.550744 58.255885 
L 40.324166 58.903681 
L 40.10192 59.551477 
L 39.883921 60.199273 
L 39.670518 60.847069 
L 39.462427 61.494865 
L 39.260657 62.142661 
L 39.066413 62.790457 
L 38.880997 63.438253 
L 38.705721 64.08605 
L 38.541812 64.733846 
L 38.390334 65.381642 
L 38.252104 66.029438 
L 38.127619 66.677234 
L 38.016988 67.32503 
L 37.919865 67.972826 
L 37.835407 68.620622 
L 37.762251 69.268418 
L 37.698521 69.916215 
L 37.641872 70.564011 
L 37.589574 71.211807 
L 37.53864 71.859603 
L 37.48598 72.507399 
L 37.428584 73.155195 
L 37.363702 73.802991 
L 37.289029 74.450787 
L 37.202853 75.098583 
L 37.104172 75.74638 
L 36.992751 76.394176 
L 36.869137 77.041972 
L 36.734603 77.689768 
L 36.591056 78.337564 
L 36.440896 78.98536 
L 36.286851 79.633156 
L 36.131803 80.280952 
L 35.978613 80.928748 
L 35.829965 81.576545 
L 35.688233 82.224341 
L 35.555388 82.872137 
L 35.432933 83.519933 
L 35.321885 84.167729 
L 35.22278 84.815525 
L 35.135714 85.463321 
L 35.0604 86.111117 
L 34.996236 86.758913 
L 34.942392 87.40671 
L 34.897875 88.054506 
L 34.86161 88.702302 
z
" clip-path="url(#p4b758b4d91)" style="fill: #20415a; fill-opacity: 0.35"/>
   </g>
   <g id="PolyCollection_2">
    <path d="M 57.259115 110.808 
L 56.860885 110.808 
L 56.811129 109.891636 
L 56.751982 108.975273 
L 56.682455 108.058909 
L 56.601633 107.142545 
L 56.508714 106.226182 
L 56.403053 105.309818 
L 56.2842 104.393455 
L 56.151935 103.477091 
L 56.006301 102.560727 
L 55.847622 101.644364 
L 55.676517 100.728 
L 55.493899 99.811636 
L 55.300974 98.895273 
L 55.099216 97.978909 
L 54.890351 97.062545 
L 54.67632 96.146182 
L 54.459244 95.229818 
L 54.241389 94.313455 
L 54.025117 93.397091 
L 53.812843 92.480727 
L 53.606986 91.564364 
L 53.409915 90.648 
L 53.223892 89.731636 
L 53.051004 88.815273 
L 52.893101 87.898909 
L 52.751719 86.982545 
L 52.628009 86.066182 
L 52.522665 85.149818 
L 52.435863 84.233455 
L 52.367215 83.317091 
L 52.315735 82.400727 
L 52.27984 81.484364 
L 52.257378 80.568 
L 52.245686 79.651636 
L 52.24168 78.735273 
L 52.241977 77.818909 
L 52.243037 76.902545 
L 52.241317 75.986182 
L 52.233432 75.069818 
L 52.216303 74.153455 
L 52.18729 73.237091 
L 52.144285 72.320727 
L 52.085773 71.404364 
L 52.010844 70.488 
L 51.919163 69.571636 
L 51.810887 68.655273 
L 51.686561 67.738909 
L 51.546973 66.822545 
L 51.39301 65.906182 
L 51.225511 64.989818 
L 51.045143 64.073455 
L 50.852309 63.157091 
L 50.647102 62.240727 
L 50.429315 61.324364 
L 50.198505 60.408 
L 49.954115 59.491636 
L 49.69564 58.575273 
L 49.422831 57.658909 
L 49.135915 56.742545 
L 48.835818 55.826182 
L 48.524364 54.909818 
L 48.204433 53.993455 
L 47.880064 53.077091 
L 47.556479 52.160727 
L 47.240038 51.244364 
L 46.938094 50.328 
L 46.658778 49.411636 
L 46.410711 48.495273 
L 46.20265 47.578909 
L 46.043107 46.662545 
L 45.939948 45.746182 
L 45.9 44.829818 
L 45.928696 43.913455 
L 46.029769 42.997091 
L 46.20503 42.080727 
L 46.454224 41.164364 
L 46.775 40.248 
L 47.162964 39.331636 
L 47.611842 38.415273 
L 48.113728 37.498909 
L 48.659399 36.582545 
L 49.238687 35.666182 
L 49.840885 34.749818 
L 50.455154 33.833455 
L 51.070921 32.917091 
L 51.678243 32.000727 
L 52.268111 31.084364 
L 52.832705 30.168 
L 53.365555 29.251636 
L 53.861646 28.335273 
L 54.317437 27.418909 
L 54.730817 26.502545 
L 55.101004 25.586182 
L 55.4284 24.669818 
L 55.714407 23.753455 
L 55.961237 22.837091 
L 56.171707 21.920727 
L 56.349041 21.004364 
L 56.496695 20.088 
L 57.623305 20.088 
L 57.623305 20.088 
L 57.770959 21.004364 
L 57.948293 21.920727 
L 58.158763 22.837091 
L 58.405593 23.753455 
L 58.6916 24.669818 
L 59.018996 25.586182 
L 59.389183 26.502545 
L 59.802563 27.418909 
L 60.258354 28.335273 
L 60.754445 29.251636 
L 61.287295 30.168 
L 61.851889 31.084364 
L 62.441757 32.000727 
L 63.049079 32.917091 
L 63.664846 33.833455 
L 64.279115 34.749818 
L 64.881313 35.666182 
L 65.460601 36.582545 
L 66.006272 37.498909 
L 66.508158 38.415273 
L 66.957036 39.331636 
L 67.345 40.248 
L 67.665776 41.164364 
L 67.91497 42.080727 
L 68.090231 42.997091 
L 68.191304 43.913455 
L 68.22 44.829818 
L 68.180052 45.746182 
L 68.076893 46.662545 
L 67.91735 47.578909 
L 67.709289 48.495273 
L 67.461222 49.411636 
L 67.181906 50.328 
L 66.879962 51.244364 
L 66.563521 52.160727 
L 66.239936 53.077091 
L 65.915567 53.993455 
L 65.595636 54.909818 
L 65.284182 55.826182 
L 64.984085 56.742545 
L 64.697169 57.658909 
L 64.42436 58.575273 
L 64.165885 59.491636 
L 63.921495 60.408 
L 63.690685 61.324364 
L 63.472898 62.240727 
L 63.267691 63.157091 
L 63.074857 64.073455 
L 62.894489 64.989818 
L 62.72699 65.906182 
L 62.573027 66.822545 
L 62.433439 67.738909 
L 62.309113 68.655273 
L 62.200837 69.571636 
L 62.109156 70.488 
L 62.034227 71.404364 
L 61.975715 72.320727 
L 61.93271 73.237091 
L 61.903697 74.153455 
L 61.886568 75.069818 
L 61.878683 75.986182 
L 61.876963 76.902545 
L 61.878023 77.818909 
L 61.87832 78.735273 
L 61.874314 79.651636 
L 61.862622 80.568 
L 61.84016 81.484364 
L 61.804265 82.400727 
L 61.752785 83.317091 
L 61.684137 84.233455 
L 61.597335 85.149818 
L 61.491991 86.066182 
L 61.368281 86.982545 
L 61.226899 87.898909 
L 61.068996 88.815273 
L 60.896108 89.731636 
L 60.710085 90.648 
L 60.513014 91.564364 
L 60.307157 92.480727 
L 60.094883 93.397091 
L 59.878611 94.313455 
L 59.660756 95.229818 
L 59.44368 96.146182 
L 59.229649 97.062545 
L 59.020784 97.978909 
L 58.819026 98.895273 
L 58.626101 99.811636 
L 58.443483 100.728 
L 58.272378 101.644364 
L 58.113699 102.560727 
L 57.968065 103.477091 
L 57.8358 104.393455 
L 57.716947 105.309818 
L 57.611286 106.226182 
L 57.518367 107.142545 
L 57.437545 108.058909 
L 57.368018 108.975273 
L 57.308871 109.891636 
L 57.259115 110.808 
z
" clip-path="url(#p4b758b4d91)" style="fill: #c1613e; fill-opacity: 0.35"/>
   </g>
   <g id="PolyCollection_3">
    <path d="M 90.695812 107.243495 
L 90.384188 107.243495 
L 90.342356 106.385955 
L 90.29201 105.528416 
L 90.232189 104.670876 
L 90.162016 103.813337 
L 90.080759 102.955797 
L 89.987881 102.098258 
L 89.883099 101.240718 
L 89.766429 100.383179 
L 89.638227 99.525639 
L 89.49921 98.6681 
L 89.350461 97.81056 
L 89.193413 96.95302 
L 89.029806 96.095481 
L 88.86163 95.237941 
L 88.69104 94.380402 
L 88.520261 93.522862 
L 88.351484 92.665323 
L 88.186754 91.807783 
L 88.027874 90.950244 
L 87.876319 90.092704 
L 87.733164 89.235165 
L 87.599057 88.377625 
L 87.474204 87.520086 
L 87.358397 86.662546 
L 87.251072 85.805007 
L 87.151386 84.947467 
L 87.058318 84.089928 
L 86.970778 83.232388 
L 86.887717 82.374849 
L 86.808221 81.517309 
L 86.731593 80.65977 
L 86.6574 79.80223 
L 86.585487 78.944691 
L 86.51596 78.087151 
L 86.44913 77.229612 
L 86.385421 76.372072 
L 86.325266 75.514532 
L 86.268979 74.656993 
L 86.216626 73.799453 
L 86.167914 72.941914 
L 86.122087 72.084374 
L 86.077871 71.226835 
L 86.033441 70.369295 
L 85.986446 69.511756 
L 85.934067 68.654216 
L 85.873122 67.796677 
L 85.800203 66.939137 
L 85.711835 66.081598 
L 85.604647 65.224058 
L 85.475541 64.366519 
L 85.321856 63.508979 
L 85.1415 62.65144 
L 84.93306 61.7939 
L 84.69588 60.936361 
L 84.430105 60.078821 
L 84.136704 59.221282 
L 83.817465 58.363742 
L 83.474985 57.506203 
L 83.112653 56.648663 
L 82.734625 55.791123 
L 82.345817 54.933584 
L 81.951883 54.076044 
L 81.559197 53.218505 
L 81.174818 52.360965 
L 80.806426 51.503426 
L 80.462223 50.645886 
L 80.150778 49.788347 
L 79.880823 48.930807 
L 79.660985 48.073268 
L 79.499472 47.215728 
L 79.403716 46.358189 
L 79.38 45.500649 
L 79.433102 44.64311 
L 79.565967 43.78557 
L 79.77945 42.928031 
L 80.072155 42.070491 
L 80.44038 41.212952 
L 80.878189 40.355412 
L 81.377603 39.497873 
L 81.92891 38.640333 
L 82.521065 37.782794 
L 83.142156 36.925254 
L 83.77991 36.067715 
L 84.422198 35.210175 
L 85.057506 34.352635 
L 85.675352 33.495096 
L 86.266617 32.637556 
L 86.823781 31.780017 
L 87.341059 30.922477 
L 87.814428 30.064938 
L 88.24158 29.207398 
L 88.621777 28.349859 
L 88.955666 27.492319 
L 89.245046 26.63478 
L 89.492616 25.77724 
L 89.701723 24.919701 
L 89.876126 24.062161 
L 90.019778 23.204622 
L 90.136647 22.347082 
L 90.943353 22.347082 
L 90.943353 22.347082 
L 91.060222 23.204622 
L 91.203874 24.062161 
L 91.378277 24.919701 
L 91.587384 25.77724 
L 91.834954 26.63478 
L 92.124334 27.492319 
L 92.458223 28.349859 
L 92.83842 29.207398 
L 93.265572 30.064938 
L 93.738941 30.922477 
L 94.256219 31.780017 
L 94.813383 32.637556 
L 95.404648 33.495096 
L 96.022494 34.352635 
L 96.657802 35.210175 
L 97.30009 36.067715 
L 97.937844 36.925254 
L 98.558935 37.782794 
L 99.15109 38.640333 
L 99.702397 39.497873 
L 100.201811 40.355412 
L 100.63962 41.212952 
L 101.007845 42.070491 
L 101.30055 42.928031 
L 101.514033 43.78557 
L 101.646898 44.64311 
L 101.7 45.500649 
L 101.676284 46.358189 
L 101.580528 47.215728 
L 101.419015 48.073268 
L 101.199177 48.930807 
L 100.929222 49.788347 
L 100.617777 50.645886 
L 100.273574 51.503426 
L 99.905182 52.360965 
L 99.520803 53.218505 
L 99.128117 54.076044 
L 98.734183 54.933584 
L 98.345375 55.791123 
L 97.967347 56.648663 
L 97.605015 57.506203 
L 97.262535 58.363742 
L 96.943296 59.221282 
L 96.649895 60.078821 
L 96.38412 60.936361 
L 96.14694 61.7939 
L 95.9385 62.65144 
L 95.758144 63.508979 
L 95.604459 64.366519 
L 95.475353 65.224058 
L 95.368165 66.081598 
L 95.279797 66.939137 
L 95.206878 67.796677 
L 95.145933 68.654216 
L 95.093554 69.511756 
L 95.046559 70.369295 
L 95.002129 71.226835 
L 94.957913 72.084374 
L 94.912086 72.941914 
L 94.863374 73.799453 
L 94.811021 74.656993 
L 94.754734 75.514532 
L 94.694579 76.372072 
L 94.63087 77.229612 
L 94.56404 78.087151 
L 94.494513 78.944691 
L 94.4226 79.80223 
L 94.348407 80.65977 
L 94.271779 81.517309 
L 94.192283 82.374849 
L 94.109222 83.232388 
L 94.021682 84.089928 
L 93.928614 84.947467 
L 93.828928 85.805007 
L 93.721603 86.662546 
L 93.605796 87.520086 
L 93.480943 88.377625 
L 93.346836 89.235165 
L 93.203681 90.092704 
L 93.052126 90.950244 
L 92.893246 91.807783 
L 92.728516 92.665323 
L 92.559739 93.522862 
L 92.38896 94.380402 
L 92.21837 95.237941 
L 92.050194 96.095481 
L 91.886587 96.95302 
L 91.729539 97.81056 
L 91.58079 98.6681 
L 91.441773 99.525639 
L 91.313571 100.383179 
L 91.196901 101.240718 
L 91.092119 102.098258 
L 90.999241 102.955797 
L 90.917984 103.813337 
L 90.847811 104.670876 
L 90.78799 105.528416 
L 90.737644 106.385955 
L 90.695812 107.243495 
z
" clip-path="url(#p4b758b4d91)" style="fill: #20415a; fill-opacity: 0.35"/>
   </g>
   <g id="PolyCollection_4">
    <path d="M 112.96889 104.639522 
L 112.75111 104.639522 
L 112.719669 103.79503 
L 112.68133 102.950537 
L 112.635236 102.106045 
L 112.580601 101.261553 
L 112.516759 100.41706 
L 112.443226 99.572568 
L 112.359752 98.728076 
L 112.266377 97.883584 
L 112.163471 97.039091 
L 112.05177 96.194599 
L 111.932385 95.350107 
L 111.8068 94.505615 
L 111.676845 93.661122 
L 111.544641 92.81663 
L 111.412533 91.972138 
L 111.282994 91.127645 
L 111.158527 90.283153 
L 111.041551 89.438661 
L 110.934282 88.594169 
L 110.838632 87.749676 
L 110.756111 86.905184 
L 110.687749 86.060692 
L 110.634041 85.216199 
L 110.594917 84.371707 
L 110.569743 83.527215 
L 110.557339 82.682723 
L 110.556025 81.83823 
L 110.563683 80.993738 
L 110.577835 80.149246 
L 110.595722 79.304753 
L 110.614395 78.460261 
L 110.630798 77.615769 
L 110.64185 76.771277 
L 110.64452 75.926784 
L 110.635897 75.082292 
L 110.613257 74.2378 
L 110.574118 73.393307 
L 110.516299 72.548815 
L 110.437965 71.704323 
L 110.337677 70.859831 
L 110.214421 70.015338 
L 110.067636 69.170846 
L 109.897215 68.326354 
L 109.703498 67.481861 
L 109.487233 66.637369 
L 109.249519 65.792877 
L 108.991731 64.948385 
L 108.715427 64.103892 
L 108.422247 63.2594 
L 108.113824 62.414908 
L 107.791698 61.570415 
L 107.457267 60.725923 
L 107.11177 59.881431 
L 106.756307 59.036939 
L 106.391908 58.192446 
L 106.019643 57.347954 
L 105.640753 56.503462 
L 105.256814 55.658969 
L 104.869894 54.814477 
L 104.482699 53.969985 
L 104.098689 53.125493 
L 103.722151 52.281 
L 103.358212 51.436508 
L 103.012791 50.592016 
L 102.692488 49.747523 
L 102.404414 48.903031 
L 102.155955 48.058539 
L 101.954511 47.214047 
L 101.807189 46.369554 
L 101.720492 45.525062 
L 101.7 44.68057 
L 101.750075 43.836077 
L 101.873595 42.991585 
L 102.071743 42.147093 
L 102.343851 41.302601 
L 102.687324 40.458108 
L 103.097648 39.613616 
L 103.568481 38.769124 
L 104.09184 37.924631 
L 104.658364 37.080139 
L 105.257649 36.235647 
L 105.878633 35.391155 
L 106.510024 34.546662 
L 107.140718 33.70217 
L 107.760211 32.857678 
L 108.358969 32.013185 
L 108.92872 31.168693 
L 109.462689 30.324201 
L 109.95572 29.479709 
L 110.404331 28.635216 
L 110.806661 27.790724 
L 111.162357 26.946232 
L 111.472394 26.101739 
L 111.738849 25.257247 
L 111.964663 24.412755 
L 112.153382 23.568263 
L 112.308923 22.72377 
L 112.435355 21.879278 
L 112.536715 21.034786 
L 113.183285 21.034786 
L 113.183285 21.034786 
L 113.284645 21.879278 
L 113.411077 22.72377 
L 113.566618 23.568263 
L 113.755337 24.412755 
L 113.981151 25.257247 
L 114.247606 26.101739 
L 114.557643 26.946232 
L 114.913339 27.790724 
L 115.315669 28.635216 
L 115.76428 29.479709 
L 116.257311 30.324201 
L 116.79128 31.168693 
L 117.361031 32.013185 
L 117.959789 32.857678 
L 118.579282 33.70217 
L 119.209976 34.546662 
L 119.841367 35.391155 
L 120.462351 36.235647 
L 121.061636 37.080139 
L 121.62816 37.924631 
L 122.151519 38.769124 
L 122.622352 39.613616 
L 123.032676 40.458108 
L 123.376149 41.302601 
L 123.648257 42.147093 
L 123.846405 42.991585 
L 123.969925 43.836077 
L 124.02 44.68057 
L 123.999508 45.525062 
L 123.912811 46.369554 
L 123.765489 47.214047 
L 123.564045 48.058539 
L 123.315586 48.903031 
L 123.027512 49.747523 
L 122.707209 50.592016 
L 122.361788 51.436508 
L 121.997849 52.281 
L 121.621311 53.125493 
L 121.237301 53.969985 
L 120.850106 54.814477 
L 120.463186 55.658969 
L 120.079247 56.503462 
L 119.700357 57.347954 
L 119.328092 58.192446 
L 118.963693 59.036939 
L 118.60823 59.881431 
L 118.262733 60.725923 
L 117.928302 61.570415 
L 117.606176 62.414908 
L 117.297753 63.2594 
L 117.004573 64.103892 
L 116.728269 64.948385 
L 116.470481 65.792877 
L 116.232767 66.637369 
L 116.016502 67.481861 
L 115.822785 68.326354 
L 115.652364 69.170846 
L 115.505579 70.015338 
L 115.382323 70.859831 
L 115.282035 71.704323 
L 115.203701 72.548815 
L 115.145882 73.393307 
L 115.106743 74.2378 
L 115.084103 75.082292 
L 115.07548 75.926784 
L 115.07815 76.771277 
L 115.089202 77.615769 
L 115.105605 78.460261 
L 115.124278 79.304753 
L 115.142165 80.149246 
L 115.156317 80.993738 
L 115.163975 81.83823 
L 115.162661 82.682723 
L 115.150257 83.527215 
L 115.125083 84.371707 
L 115.085959 85.216199 
L 115.032251 86.060692 
L 114.963889 86.905184 
L 114.881368 87.749676 
L 114.785718 88.594169 
L 114.678449 89.438661 
L 114.561473 90.283153 
L 114.437006 91.127645 
L 114.307467 91.972138 
L 114.175359 92.81663 
L 114.043155 93.661122 
L 113.9132 94.505615 
L 113.787615 95.350107 
L 113.66823 96.194599 
L 113.556529 97.039091 
L 113.453623 97.883584 
L 113.360248 98.728076 
L 113.276774 99.572568 
L 113.203241 100.41706 
L 113.139399 101.261553 
L 113.084764 102.106045 
L 113.03867 102.950537 
L 113.000331 103.79503 
L 112.96889 104.639522 
z
" clip-path="url(#p4b758b4d91)" style="fill: #c1613e; fill-opacity: 0.35"/>
   </g>
   <g id="patch_3">
    <path d="M 23.58 97.430865 
L 45.9 97.430865 
L 45.9 51.345995 
L 23.58 51.345995 
L 23.58 97.430865 
z
" clip-path="url(#p4b758b4d91)" style="fill: none"/>
   </g>
   <g id="patch_4">
    <path d="M 79.38 97.430865 
L 101.7 97.430865 
L 101.7 56.533335 
L 79.38 56.533335 
L 79.38 97.430865 
z
" clip-path="url(#p4b758b4d91)" style="fill: none"/>
   </g>
   <g id="patch_5">
    <path d="M 45.9 97.430865 
L 68.22 97.430865 
L 68.22 57.512402 
L 45.9 57.512402 
L 45.9 97.430865 
z
" clip-path="url(#p4b758b4d91)" style="fill: none"/>
   </g>
   <g id="patch_6">
    <path d="M 101.7 97.430865 
L 124.02 97.430865 
L 124.02 52.685772 
L 101.7 52.685772 
L 101.7 97.430865 
z
" clip-path="url(#p4b758b4d91)" style="fill: none"/>
   </g>
   <g id="patch_7">
    <path d="M 45.9 97.430865 
L 45.9 97.430865 
L 45.9 97.430865 
L 45.9 97.430865 
z
" clip-path="url(#p4b758b4d91)" style="fill: #3274a1"/>
   </g>
   <g id="patch_8">
    <path d="M 45.9 97.430865 
L 45.9 97.430865 
L 45.9 97.430865 
L 45.9 97.430865 
z
" clip-path="url(#p4b758b4d91)" style="fill: #e1812c"/>
   </g>
   <g id="matplotlib.axis_1">
    <g id="xtick_1">
     <g id="line2d_1">
      <defs>
       <path id="mff4aa712aa" d="M 0 0 
L 0 3.5 
" style="stroke: #000000"/>
      </defs>
      <g>
       <use xlink:href="#mff4aa712aa" x="45.9" y="115.344" style="stroke: #000000"/>
      </g>
     </g>
     <g id="text_1">
      <!-- reward -->
      <g transform="translate(30.617969 129.501812) scale(0.1 -0.1)">
       <defs>
        <path id="ArialMT-72" d="M 416 0 
L 416 3319 
L 922 3319 
L 922 2816 
Q 1116 3169 1280 3281 
Q 1444 3394 1641 3394 
Q 1925 3394 2219 3213 
L 2025 2691 
Q 1819 2813 1613 2813 
Q 1428 2813 1281 2702 
Q 1134 2591 1072 2394 
Q 978 2094 978 1738 
L 978 0 
L 416 0 
z
" transform="scale(0.015625)"/>
        <path id="ArialMT-65" d="M 2694 1069 
L 3275 997 
Q 3138 488 2766 206 
Q 2394 -75 1816 -75 
Q 1088 -75 661 373 
Q 234 822 234 1631 
Q 234 2469 665 2931 
Q 1097 3394 1784 3394 
Q 2450 3394 2872 2941 
Q 3294 2488 3294 1666 
Q 3294 1616 3291 1516 
L 816 1516 
Q 847 969 1125 678 
Q 1403 388 1819 388 
Q 2128 388 2347 550 
Q 2566 713 2694 1069 
z
M 847 1978 
L 2700 1978 
Q 2663 2397 2488 2606 
Q 2219 2931 1791 2931 
Q 1403 2931 1139 2672 
Q 875 2413 847 1978 
z
" transform="scale(0.015625)"/>
        <path id="ArialMT-77" d="M 1034 0 
L 19 3319 
L 600 3319 
L 1128 1403 
L 1325 691 
Q 1338 744 1497 1375 
L 2025 3319 
L 2603 3319 
L 3100 1394 
L 3266 759 
L 3456 1400 
L 4025 3319 
L 4572 3319 
L 3534 0 
L 2950 0 
L 2422 1988 
L 2294 2553 
L 1622 0 
L 1034 0 
z
" transform="scale(0.015625)"/>
        <path id="ArialMT-61" d="M 2588 409 
Q 2275 144 1986 34 
Q 1697 -75 1366 -75 
Q 819 -75 525 192 
Q 231 459 231 875 
Q 231 1119 342 1320 
Q 453 1522 633 1644 
Q 813 1766 1038 1828 
Q 1203 1872 1538 1913 
Q 2219 1994 2541 2106 
Q 2544 2222 2544 2253 
Q 2544 2597 2384 2738 
Q 2169 2928 1744 2928 
Q 1347 2928 1158 2789 
Q 969 2650 878 2297 
L 328 2372 
Q 403 2725 575 2942 
Q 747 3159 1072 3276 
Q 1397 3394 1825 3394 
Q 2250 3394 2515 3294 
Q 2781 3194 2906 3042 
Q 3031 2891 3081 2659 
Q 3109 2516 3109 2141 
L 3109 1391 
Q 3109 606 3145 398 
Q 3181 191 3288 0 
L 2700 0 
Q 2613 175 2588 409 
z
M 2541 1666 
Q 2234 1541 1622 1453 
Q 1275 1403 1131 1340 
Q 988 1278 909 1158 
Q 831 1038 831 891 
Q 831 666 1001 516 
Q 1172 366 1500 366 
Q 1825 366 2078 508 
Q 2331 650 2450 897 
Q 2541 1088 2541 1459 
L 2541 1666 
z
" transform="scale(0.015625)"/>
        <path id="ArialMT-64" d="M 2575 0 
L 2575 419 
Q 2259 -75 1647 -75 
Q 1250 -75 917 144 
Q 584 363 401 755 
Q 219 1147 219 1656 
Q 219 2153 384 2558 
Q 550 2963 881 3178 
Q 1213 3394 1622 3394 
Q 1922 3394 2156 3267 
Q 2391 3141 2538 2938 
L 2538 4581 
L 3097 4581 
L 3097 0 
L 2575 0 
z
M 797 1656 
Q 797 1019 1065 703 
Q 1334 388 1700 388 
Q 2069 388 2326 689 
Q 2584 991 2584 1609 
Q 2584 2291 2321 2609 
Q 2059 2928 1675 2928 
Q 1300 2928 1048 2622 
Q 797 2316 797 1656 
z
" transform="scale(0.015625)"/>
       </defs>
       <use xlink:href="#ArialMT-72"/>
       <use xlink:href="#ArialMT-65" x="33.300781"/>
       <use xlink:href="#ArialMT-77" x="88.916016"/>
       <use xlink:href="#ArialMT-61" x="161.132812"/>
       <use xlink:href="#ArialMT-72" x="216.748047"/>
       <use xlink:href="#ArialMT-64" x="250.048828"/>
      </g>
     </g>
    </g>
    <g id="xtick_2">
     <g id="line2d_2">
      <g>
       <use xlink:href="#mff4aa712aa" x="101.7" y="115.344" style="stroke: #000000"/>
      </g>
     </g>
     <g id="text_2">
      <!-- punishment -->
      <g transform="translate(75.852344 129.501812) scale(0.1 -0.1)">
       <defs>
        <path id="ArialMT-70" d="M 422 -1272 
L 422 3319 
L 934 3319 
L 934 2888 
Q 1116 3141 1344 3267 
Q 1572 3394 1897 3394 
Q 2322 3394 2647 3175 
Q 2972 2956 3137 2557 
Q 3303 2159 3303 1684 
Q 3303 1175 3120 767 
Q 2938 359 2589 142 
Q 2241 -75 1856 -75 
Q 1575 -75 1351 44 
Q 1128 163 984 344 
L 984 -1272 
L 422 -1272 
z
M 931 1641 
Q 931 1000 1190 694 
Q 1450 388 1819 388 
Q 2194 388 2461 705 
Q 2728 1022 2728 1688 
Q 2728 2322 2467 2637 
Q 2206 2953 1844 2953 
Q 1484 2953 1207 2617 
Q 931 2281 931 1641 
z
" transform="scale(0.015625)"/>
        <path id="ArialMT-75" d="M 2597 0 
L 2597 488 
Q 2209 -75 1544 -75 
Q 1250 -75 995 37 
Q 741 150 617 320 
Q 494 491 444 738 
Q 409 903 409 1263 
L 409 3319 
L 972 3319 
L 972 1478 
Q 972 1038 1006 884 
Q 1059 663 1231 536 
Q 1403 409 1656 409 
Q 1909 409 2131 539 
Q 2353 669 2445 892 
Q 2538 1116 2538 1541 
L 2538 3319 
L 3100 3319 
L 3100 0 
L 2597 0 
z
" transform="scale(0.015625)"/>
        <path id="ArialMT-6e" d="M 422 0 
L 422 3319 
L 928 3319 
L 928 2847 
Q 1294 3394 1984 3394 
Q 2284 3394 2536 3286 
Q 2788 3178 2913 3003 
Q 3038 2828 3088 2588 
Q 3119 2431 3119 2041 
L 3119 0 
L 2556 0 
L 2556 2019 
Q 2556 2363 2490 2533 
Q 2425 2703 2258 2804 
Q 2091 2906 1866 2906 
Q 1506 2906 1245 2678 
Q 984 2450 984 1813 
L 984 0 
L 422 0 
z
" transform="scale(0.015625)"/>
        <path id="ArialMT-69" d="M 425 3934 
L 425 4581 
L 988 4581 
L 988 3934 
L 425 3934 
z
M 425 0 
L 425 3319 
L 988 3319 
L 988 0 
L 425 0 
z
" transform="scale(0.015625)"/>
        <path id="ArialMT-73" d="M 197 991 
L 753 1078 
Q 800 744 1014 566 
Q 1228 388 1613 388 
Q 2000 388 2187 545 
Q 2375 703 2375 916 
Q 2375 1106 2209 1216 
Q 2094 1291 1634 1406 
Q 1016 1563 777 1677 
Q 538 1791 414 1992 
Q 291 2194 291 2438 
Q 291 2659 392 2848 
Q 494 3038 669 3163 
Q 800 3259 1026 3326 
Q 1253 3394 1513 3394 
Q 1903 3394 2198 3281 
Q 2494 3169 2634 2976 
Q 2775 2784 2828 2463 
L 2278 2388 
Q 2241 2644 2061 2787 
Q 1881 2931 1553 2931 
Q 1166 2931 1000 2803 
Q 834 2675 834 2503 
Q 834 2394 903 2306 
Q 972 2216 1119 2156 
Q 1203 2125 1616 2013 
Q 2213 1853 2448 1751 
Q 2684 1650 2818 1456 
Q 2953 1263 2953 975 
Q 2953 694 2789 445 
Q 2625 197 2315 61 
Q 2006 -75 1616 -75 
Q 969 -75 630 194 
Q 291 463 197 991 
z
" transform="scale(0.015625)"/>
        <path id="ArialMT-68" d="M 422 0 
L 422 4581 
L 984 4581 
L 984 2938 
Q 1378 3394 1978 3394 
Q 2347 3394 2619 3248 
Q 2891 3103 3008 2847 
Q 3125 2591 3125 2103 
L 3125 0 
L 2563 0 
L 2563 2103 
Q 2563 2525 2380 2717 
Q 2197 2909 1863 2909 
Q 1613 2909 1392 2779 
Q 1172 2650 1078 2428 
Q 984 2206 984 1816 
L 984 0 
L 422 0 
z
" transform="scale(0.015625)"/>
        <path id="ArialMT-6d" d="M 422 0 
L 422 3319 
L 925 3319 
L 925 2853 
Q 1081 3097 1340 3245 
Q 1600 3394 1931 3394 
Q 2300 3394 2536 3241 
Q 2772 3088 2869 2813 
Q 3263 3394 3894 3394 
Q 4388 3394 4653 3120 
Q 4919 2847 4919 2278 
L 4919 0 
L 4359 0 
L 4359 2091 
Q 4359 2428 4304 2576 
Q 4250 2725 4106 2815 
Q 3963 2906 3769 2906 
Q 3419 2906 3187 2673 
Q 2956 2441 2956 1928 
L 2956 0 
L 2394 0 
L 2394 2156 
Q 2394 2531 2256 2718 
Q 2119 2906 1806 2906 
Q 1569 2906 1367 2781 
Q 1166 2656 1075 2415 
Q 984 2175 984 1722 
L 984 0 
L 422 0 
z
" transform="scale(0.015625)"/>
        <path id="ArialMT-74" d="M 1650 503 
L 1731 6 
Q 1494 -44 1306 -44 
Q 1000 -44 831 53 
Q 663 150 594 308 
Q 525 466 525 972 
L 525 2881 
L 113 2881 
L 113 3319 
L 525 3319 
L 525 4141 
L 1084 4478 
L 1084 3319 
L 1650 3319 
L 1650 2881 
L 1084 2881 
L 1084 941 
Q 1084 700 1114 631 
Q 1144 563 1211 522 
Q 1278 481 1403 481 
Q 1497 481 1650 503 
z
" transform="scale(0.015625)"/>
       </defs>
       <use xlink:href="#ArialMT-70"/>
       <use xlink:href="#ArialMT-75" x="55.615234"/>
       <use xlink:href="#ArialMT-6e" x="111.230469"/>
       <use xlink:href="#ArialMT-69" x="166.845703"/>
       <use xlink:href="#ArialMT-73" x="189.0625"/>
       <use xlink:href="#ArialMT-68" x="239.0625"/>
       <use xlink:href="#ArialMT-6d" x="294.677734"/>
       <use xlink:href="#ArialMT-65" x="377.978516"/>
       <use xlink:href="#ArialMT-6e" x="433.59375"/>
       <use xlink:href="#ArialMT-74" x="489.208984"/>
      </g>
     </g>
    </g>
   </g>
   <g id="matplotlib.axis_2">
    <g id="ytick_1">
     <g id="line2d_3">
      <defs>
       <path id="m37bc5d6efd" d="M 0 0 
L -3.5 0 
" style="stroke: #000000"/>
      </defs>
      <g>
       <use xlink:href="#m37bc5d6efd" x="18" y="97.430865" style="stroke: #000000"/>
      </g>
     </g>
     <g id="text_3">
      <!-- 0.0 -->
      <g transform="translate(-2.9 101.009772) scale(0.1 -0.1)">
       <defs>
        <path id="ArialMT-30" d="M 266 2259 
Q 266 3072 433 3567 
Q 600 4063 929 4331 
Q 1259 4600 1759 4600 
Q 2128 4600 2406 4451 
Q 2684 4303 2865 4023 
Q 3047 3744 3150 3342 
Q 3253 2941 3253 2259 
Q 3253 1453 3087 958 
Q 2922 463 2592 192 
Q 2263 -78 1759 -78 
Q 1097 -78 719 397 
Q 266 969 266 2259 
z
M 844 2259 
Q 844 1131 1108 757 
Q 1372 384 1759 384 
Q 2147 384 2411 759 
Q 2675 1134 2675 2259 
Q 2675 3391 2411 3762 
Q 2147 4134 1753 4134 
Q 1366 4134 1134 3806 
Q 844 3388 844 2259 
z
" transform="scale(0.015625)"/>
        <path id="ArialMT-2e" d="M 581 0 
L 581 641 
L 1222 641 
L 1222 0 
L 581 0 
z
" transform="scale(0.015625)"/>
       </defs>
       <use xlink:href="#ArialMT-30"/>
       <use xlink:href="#ArialMT-2e" x="55.615234"/>
       <use xlink:href="#ArialMT-30" x="83.398438"/>
      </g>
     </g>
    </g>
    <g id="ytick_2">
     <g id="line2d_4">
      <g>
       <use xlink:href="#m37bc5d6efd" x="18" y="64.795288" style="stroke: #000000"/>
      </g>
     </g>
     <g id="text_4">
      <!-- 0.5 -->
      <g transform="translate(-2.9 68.374195) scale(0.1 -0.1)">
       <defs>
        <path id="ArialMT-35" d="M 266 1200 
L 856 1250 
Q 922 819 1161 601 
Q 1400 384 1738 384 
Q 2144 384 2425 690 
Q 2706 997 2706 1503 
Q 2706 1984 2436 2262 
Q 2166 2541 1728 2541 
Q 1456 2541 1237 2417 
Q 1019 2294 894 2097 
L 366 2166 
L 809 4519 
L 3088 4519 
L 3088 3981 
L 1259 3981 
L 1013 2750 
Q 1425 3038 1878 3038 
Q 2478 3038 2890 2622 
Q 3303 2206 3303 1553 
Q 3303 931 2941 478 
Q 2500 -78 1738 -78 
Q 1113 -78 717 272 
Q 322 622 266 1200 
z
" transform="scale(0.015625)"/>
       </defs>
       <use xlink:href="#ArialMT-30"/>
       <use xlink:href="#ArialMT-2e" x="55.615234"/>
       <use xlink:href="#ArialMT-35" x="83.398438"/>
      </g>
     </g>
    </g>
    <g id="ytick_3">
     <g id="line2d_5">
      <g>
       <use xlink:href="#m37bc5d6efd" x="18" y="32.159712" style="stroke: #000000"/>
      </g>
     </g>
     <g id="text_5">
      <!-- 1.0 -->
      <g transform="translate(-2.9 35.738618) scale(0.1 -0.1)">
       <defs>
        <path id="ArialMT-31" d="M 2384 0 
L 1822 0 
L 1822 3584 
Q 1619 3391 1289 3197 
Q 959 3003 697 2906 
L 697 3450 
Q 1169 3672 1522 3987 
Q 1875 4303 2022 4600 
L 2384 4600 
L 2384 0 
z
" transform="scale(0.015625)"/>
       </defs>
       <use xlink:href="#ArialMT-31"/>
       <use xlink:href="#ArialMT-2e" x="55.615234"/>
       <use xlink:href="#ArialMT-30" x="83.398438"/>
      </g>
     </g>
    </g>
    <g id="text_6">
     <!-- alpha1 -->
     <g transform="translate(-8.8875 80.461281) rotate(-90) scale(0.1 -0.1)">
      <defs>
       <path id="ArialMT-6c" d="M 409 0 
L 409 4581 
L 972 4581 
L 972 0 
L 409 0 
z
" transform="scale(0.015625)"/>
      </defs>
      <use xlink:href="#ArialMT-61"/>
      <use xlink:href="#ArialMT-6c" x="55.615234"/>
      <use xlink:href="#ArialMT-70" x="77.832031"/>
      <use xlink:href="#ArialMT-68" x="133.447266"/>
      <use xlink:href="#ArialMT-61" x="189.0625"/>
      <use xlink:href="#ArialMT-31" x="244.677734"/>
     </g>
    </g>
   </g>
   <g id="PathCollection_1">
    <defs>
     <path id="C0_0_8e4a46ff04" d="M 0 3.5 
C 0.928211 3.5 1.81853 3.131218 2.474874 2.474874 
C 3.131218 1.81853 3.5 0.928211 3.5 -0 
C 3.5 -0.928211 3.131218 -1.81853 2.474874 -2.474874 
C 1.81853 -3.131218 0.928211 -3.5 0 -3.5 
C -0.928211 -3.5 -1.81853 -3.131218 -2.474874 -2.474874 
C -3.131218 -1.81853 -3.5 -0.928211 -3.5 0 
C -3.5 0.928211 -3.131218 1.81853 -2.474874 2.474874 
C -1.81853 3.131218 -0.928211 3.5 0 3.5 
z
"/>
    </defs>
    <g clip-path="url(#p4b758b4d91)">
     <use xlink:href="#C0_0_8e4a46ff04" x="34.481285" y="49.782923" style="fill: #174263; fill-opacity: 0.45"/>
    </g>
    <g clip-path="url(#p4b758b4d91)">
     <use xlink:href="#C0_0_8e4a46ff04" x="35.027052" y="64.795288" style="fill: #174263; fill-opacity: 0.45"/>
    </g>
    <g clip-path="url(#p4b758b4d91)">
     <use xlink:href="#C0_0_8e4a46ff04" x="33.985282" y="58.268173" style="fill: #174263; fill-opacity: 0.45"/>
    </g>
    <g clip-path="url(#p4b758b4d91)">
     <use xlink:href="#C0_0_8e4a46ff04" x="35.92509" y="39.339538" style="fill: #174263; fill-opacity: 0.45"/>
    </g>
    <g clip-path="url(#p4b758b4d91)">
     <use xlink:href="#C0_0_8e4a46ff04" x="35.131182" y="42.603096" style="fill: #174263; fill-opacity: 0.45"/>
    </g>
    <g clip-path="url(#p4b758b4d91)">
     <use xlink:href="#C0_0_8e4a46ff04" x="34.253607" y="40.644962" style="fill: #174263; fill-opacity: 0.45"/>
    </g>
    <g clip-path="url(#p4b758b4d91)">
     <use xlink:href="#C0_0_8e4a46ff04" x="35.498318" y="49.130212" style="fill: #174263; fill-opacity: 0.45"/>
    </g>
    <g clip-path="url(#p4b758b4d91)">
     <use xlink:href="#C0_0_8e4a46ff04" x="33.586397" y="41.297673" style="fill: #174263; fill-opacity: 0.45"/>
    </g>
    <g clip-path="url(#p4b758b4d91)">
     <use xlink:href="#C0_0_8e4a46ff04" x="34.424043" y="51.741058" style="fill: #174263; fill-opacity: 0.45"/>
    </g>
    <g clip-path="url(#p4b758b4d91)">
     <use xlink:href="#C0_0_8e4a46ff04" x="37.20603" y="42.603096" style="fill: #174263; fill-opacity: 0.45"/>
    </g>
    <g clip-path="url(#p4b758b4d91)">
     <use xlink:href="#C0_0_8e4a46ff04" x="36.383426" y="46.519365" style="fill: #174263; fill-opacity: 0.45"/>
    </g>
    <g clip-path="url(#p4b758b4d91)">
     <use xlink:href="#C0_0_8e4a46ff04" x="33.074081" y="43.255808" style="fill: #174263; fill-opacity: 0.45"/>
    </g>
    <g clip-path="url(#p4b758b4d91)">
     <use xlink:href="#C0_0_8e4a46ff04" x="36.684031" y="45.213942" style="fill: #174263; fill-opacity: 0.45"/>
    </g>
    <g clip-path="url(#p4b758b4d91)">
     <use xlink:href="#C0_0_8e4a46ff04" x="32.506866" y="46.519365" style="fill: #174263; fill-opacity: 0.45"/>
    </g>
    <g clip-path="url(#p4b758b4d91)">
     <use xlink:href="#C0_0_8e4a46ff04" x="37.458595" y="47.824788" style="fill: #174263; fill-opacity: 0.45"/>
    </g>
    <g clip-path="url(#p4b758b4d91)">
     <use xlink:href="#C0_0_8e4a46ff04" x="32.802858" y="74.585962" style="fill: #174263; fill-opacity: 0.45"/>
    </g>
    <g clip-path="url(#p4b758b4d91)">
     <use xlink:href="#C0_0_8e4a46ff04" x="36.626192" y="54.351904" style="fill: #174263; fill-opacity: 0.45"/>
    </g>
    <g clip-path="url(#p4b758b4d91)">
     <use xlink:href="#C0_0_8e4a46ff04" x="35.334955" y="64.795288" style="fill: #174263; fill-opacity: 0.45"/>
    </g>
    <g clip-path="url(#p4b758b4d91)">
     <use xlink:href="#C0_0_8e4a46ff04" x="34.052199" y="56.96275" style="fill: #174263; fill-opacity: 0.45"/>
    </g>
    <g clip-path="url(#p4b758b4d91)">
     <use xlink:href="#C0_0_8e4a46ff04" x="32.194679" y="65.448" style="fill: #174263; fill-opacity: 0.45"/>
    </g>
    <g clip-path="url(#p4b758b4d91)">
     <use xlink:href="#C0_0_8e4a46ff04" x="36.361269" y="40.644962" style="fill: #174263; fill-opacity: 0.45"/>
    </g>
    <g clip-path="url(#p4b758b4d91)">
     <use xlink:href="#C0_0_8e4a46ff04" x="37.178884" y="35.423269" style="fill: #174263; fill-opacity: 0.45"/>
    </g>
    <g clip-path="url(#p4b758b4d91)">
     <use xlink:href="#C0_0_8e4a46ff04" x="36.599878" y="41.297673" style="fill: #174263; fill-opacity: 0.45"/>
    </g>
    <g clip-path="url(#p4b758b4d91)">
     <use xlink:href="#C0_0_8e4a46ff04" x="35.892208" y="47.824788" style="fill: #174263; fill-opacity: 0.45"/>
    </g>
    <g clip-path="url(#p4b758b4d91)">
     <use xlink:href="#C0_0_8e4a46ff04" x="34.272254" y="59.573596" style="fill: #174263; fill-opacity: 0.45"/>
    </g>
    <g clip-path="url(#p4b758b4d91)">
     <use xlink:href="#C0_0_8e4a46ff04" x="33.093184" y="49.130212" style="fill: #174263; fill-opacity: 0.45"/>
    </g>
    <g clip-path="url(#p4b758b4d91)">
     <use xlink:href="#C0_0_8e4a46ff04" x="32.563208" y="43.908519" style="fill: #174263; fill-opacity: 0.45"/>
    </g>
    <g clip-path="url(#p4b758b4d91)">
     <use xlink:href="#C0_0_8e4a46ff04" x="36.124719" y="38.686827" style="fill: #174263; fill-opacity: 0.45"/>
    </g>
    <g clip-path="url(#p4b758b4d91)">
     <use xlink:href="#C0_0_8e4a46ff04" x="34.250921" y="48.4775" style="fill: #174263; fill-opacity: 0.45"/>
    </g>
    <g clip-path="url(#p4b758b4d91)">
     <use xlink:href="#C0_0_8e4a46ff04" x="33.94531" y="43.908519" style="fill: #174263; fill-opacity: 0.45"/>
    </g>
    <g clip-path="url(#p4b758b4d91)">
     <use xlink:href="#C0_0_8e4a46ff04" x="37.058996" y="56.310038" style="fill: #174263; fill-opacity: 0.45"/>
    </g>
    <g clip-path="url(#p4b758b4d91)">
     <use xlink:href="#C0_0_8e4a46ff04" x="35.877348" y="39.339538" style="fill: #174263; fill-opacity: 0.45"/>
    </g>
    <g clip-path="url(#p4b758b4d91)">
     <use xlink:href="#C0_0_8e4a46ff04" x="34.474648" y="74.585962" style="fill: #174263; fill-opacity: 0.45"/>
    </g>
    <g clip-path="url(#p4b758b4d91)">
     <use xlink:href="#C0_0_8e4a46ff04" x="35.99465" y="58.268173" style="fill: #174263; fill-opacity: 0.45"/>
    </g>
    <g clip-path="url(#p4b758b4d91)">
     <use xlink:href="#C0_0_8e4a46ff04" x="33.579779" y="77.849519" style="fill: #174263; fill-opacity: 0.45"/>
    </g>
    <g clip-path="url(#p4b758b4d91)">
     <use xlink:href="#C0_0_8e4a46ff04" x="35.820324" y="55.004615" style="fill: #174263; fill-opacity: 0.45"/>
    </g>
    <g clip-path="url(#p4b758b4d91)">
     <use xlink:href="#C0_0_8e4a46ff04" x="35.918562" y="71.975115" style="fill: #174263; fill-opacity: 0.45"/>
    </g>
    <g clip-path="url(#p4b758b4d91)">
     <use xlink:href="#C0_0_8e4a46ff04" x="33.983475" y="43.255808" style="fill: #174263; fill-opacity: 0.45"/>
    </g>
   </g>
   <g id="PathCollection_2">
    <defs>
     <path id="C1_0_482efb0f34" d="M 0 3.5 
C 0.928211 3.5 1.81853 3.131218 2.474874 2.474874 
C 3.131218 1.81853 3.5 0.928211 3.5 -0 
C 3.5 -0.928211 3.131218 -1.81853 2.474874 -2.474874 
C 1.81853 -3.131218 0.928211 -3.5 0 -3.5 
C -0.928211 -3.5 -1.81853 -3.131218 -2.474874 -2.474874 
C -3.131218 -1.81853 -3.5 -0.928211 -3.5 0 
C -3.5 0.928211 -3.131218 1.81853 -2.474874 2.474874 
C -1.81853 3.131218 -0.928211 3.5 0 3.5 
z
"/>
    </defs>
    <g clip-path="url(#p4b758b4d91)">
     <use xlink:href="#C1_0_482efb0f34" x="59.300188" y="85.029346" style="fill: #d75728; fill-opacity: 0.45"/>
    </g>
    <g clip-path="url(#p4b758b4d91)">
     <use xlink:href="#C1_0_482efb0f34" x="56.443531" y="58.268173" style="fill: #d75728; fill-opacity: 0.45"/>
    </g>
    <g clip-path="url(#p4b758b4d91)">
     <use xlink:href="#C1_0_482efb0f34" x="56.437162" y="45.866654" style="fill: #d75728; fill-opacity: 0.45"/>
    </g>
    <g clip-path="url(#p4b758b4d91)">
     <use xlink:href="#C1_0_482efb0f34" x="57.841452" y="53.699192" style="fill: #d75728; fill-opacity: 0.45"/>
    </g>
    <g clip-path="url(#p4b758b4d91)">
     <use xlink:href="#C1_0_482efb0f34" x="56.932442" y="64.795288" style="fill: #d75728; fill-opacity: 0.45"/>
    </g>
    <g clip-path="url(#p4b758b4d91)">
     <use xlink:href="#C1_0_482efb0f34" x="54.329736" y="81.765788" style="fill: #d75728; fill-opacity: 0.45"/>
    </g>
    <g clip-path="url(#p4b758b4d91)">
     <use xlink:href="#C1_0_482efb0f34" x="57.355025" y="65.448" style="fill: #d75728; fill-opacity: 0.45"/>
    </g>
    <g clip-path="url(#p4b758b4d91)">
     <use xlink:href="#C1_0_482efb0f34" x="59.506556" y="43.908519" style="fill: #d75728; fill-opacity: 0.45"/>
    </g>
    <g clip-path="url(#p4b758b4d91)">
     <use xlink:href="#C1_0_482efb0f34" x="58.798429" y="81.765788" style="fill: #d75728; fill-opacity: 0.45"/>
    </g>
    <g clip-path="url(#p4b758b4d91)">
     <use xlink:href="#C1_0_482efb0f34" x="58.326373" y="58.920885" style="fill: #d75728; fill-opacity: 0.45"/>
    </g>
    <g clip-path="url(#p4b758b4d91)">
     <use xlink:href="#C1_0_482efb0f34" x="59.553945" y="81.765788" style="fill: #d75728; fill-opacity: 0.45"/>
    </g>
    <g clip-path="url(#p4b758b4d91)">
     <use xlink:href="#C1_0_482efb0f34" x="56.183491" y="51.088346" style="fill: #d75728; fill-opacity: 0.45"/>
    </g>
    <g clip-path="url(#p4b758b4d91)">
     <use xlink:href="#C1_0_482efb0f34" x="58.242707" y="40.644962" style="fill: #d75728; fill-opacity: 0.45"/>
    </g>
    <g clip-path="url(#p4b758b4d91)">
     <use xlink:href="#C1_0_482efb0f34" x="55.317921" y="37.381404" style="fill: #d75728; fill-opacity: 0.45"/>
    </g>
    <g clip-path="url(#p4b758b4d91)">
     <use xlink:href="#C1_0_482efb0f34" x="54.937485" y="93.514596" style="fill: #d75728; fill-opacity: 0.45"/>
    </g>
    <g clip-path="url(#p4b758b4d91)">
     <use xlink:href="#C1_0_482efb0f34" x="59.463311" y="49.782923" style="fill: #d75728; fill-opacity: 0.45"/>
    </g>
    <g clip-path="url(#p4b758b4d91)">
     <use xlink:href="#C1_0_482efb0f34" x="57.57979" y="63.489865" style="fill: #d75728; fill-opacity: 0.45"/>
    </g>
    <g clip-path="url(#p4b758b4d91)">
     <use xlink:href="#C1_0_482efb0f34" x="58.118996" y="37.381404" style="fill: #d75728; fill-opacity: 0.45"/>
    </g>
    <g clip-path="url(#p4b758b4d91)">
     <use xlink:href="#C1_0_482efb0f34" x="59.25927" y="37.381404" style="fill: #d75728; fill-opacity: 0.45"/>
    </g>
    <g clip-path="url(#p4b758b4d91)">
     <use xlink:href="#C1_0_482efb0f34" x="55.814301" y="71.322404" style="fill: #d75728; fill-opacity: 0.45"/>
    </g>
    <g clip-path="url(#p4b758b4d91)">
     <use xlink:href="#C1_0_482efb0f34" x="55.858823" y="44.561231" style="fill: #d75728; fill-opacity: 0.45"/>
    </g>
    <g clip-path="url(#p4b758b4d91)">
     <use xlink:href="#C1_0_482efb0f34" x="55.186538" y="45.866654" style="fill: #d75728; fill-opacity: 0.45"/>
    </g>
    <g clip-path="url(#p4b758b4d91)">
     <use xlink:href="#C1_0_482efb0f34" x="57.339848" y="40.644962" style="fill: #d75728; fill-opacity: 0.45"/>
    </g>
    <g clip-path="url(#p4b758b4d91)">
     <use xlink:href="#C1_0_482efb0f34" x="54.53941" y="47.824788" style="fill: #d75728; fill-opacity: 0.45"/>
    </g>
    <g clip-path="url(#p4b758b4d91)">
     <use xlink:href="#C1_0_482efb0f34" x="59.277413" y="62.184442" style="fill: #d75728; fill-opacity: 0.45"/>
    </g>
    <g clip-path="url(#p4b758b4d91)">
     <use xlink:href="#C1_0_482efb0f34" x="57.493849" y="38.686827" style="fill: #d75728; fill-opacity: 0.45"/>
    </g>
    <g clip-path="url(#p4b758b4d91)">
     <use xlink:href="#C1_0_482efb0f34" x="55.360821" y="89.598327" style="fill: #d75728; fill-opacity: 0.45"/>
    </g>
    <g clip-path="url(#p4b758b4d91)">
     <use xlink:href="#C1_0_482efb0f34" x="57.881602" y="44.561231" style="fill: #d75728; fill-opacity: 0.45"/>
    </g>
    <g clip-path="url(#p4b758b4d91)">
     <use xlink:href="#C1_0_482efb0f34" x="55.479582" y="80.460365" style="fill: #d75728; fill-opacity: 0.45"/>
    </g>
    <g clip-path="url(#p4b758b4d91)">
     <use xlink:href="#C1_0_482efb0f34" x="58.681373" y="75.891385" style="fill: #d75728; fill-opacity: 0.45"/>
    </g>
    <g clip-path="url(#p4b758b4d91)">
     <use xlink:href="#C1_0_482efb0f34" x="56.697091" y="60.226308" style="fill: #d75728; fill-opacity: 0.45"/>
    </g>
    <g clip-path="url(#p4b758b4d91)">
     <use xlink:href="#C1_0_482efb0f34" x="58.439368" y="44.561231" style="fill: #d75728; fill-opacity: 0.45"/>
    </g>
    <g clip-path="url(#p4b758b4d91)">
     <use xlink:href="#C1_0_482efb0f34" x="58.321031" y="38.686827" style="fill: #d75728; fill-opacity: 0.45"/>
    </g>
    <g clip-path="url(#p4b758b4d91)">
     <use xlink:href="#C1_0_482efb0f34" x="54.933828" y="39.99225" style="fill: #d75728; fill-opacity: 0.45"/>
    </g>
    <g clip-path="url(#p4b758b4d91)">
     <use xlink:href="#C1_0_482efb0f34" x="58.010766" y="41.297673" style="fill: #d75728; fill-opacity: 0.45"/>
    </g>
    <g clip-path="url(#p4b758b4d91)">
     <use xlink:href="#C1_0_482efb0f34" x="55.485384" y="44.561231" style="fill: #d75728; fill-opacity: 0.45"/>
    </g>
    <g clip-path="url(#p4b758b4d91)">
     <use xlink:href="#C1_0_482efb0f34" x="58.057579" y="93.514596" style="fill: #d75728; fill-opacity: 0.45"/>
    </g>
    <g clip-path="url(#p4b758b4d91)">
     <use xlink:href="#C1_0_482efb0f34" x="57.964048" y="49.130212" style="fill: #d75728; fill-opacity: 0.45"/>
    </g>
   </g>
   <g id="PathCollection_3">
    <defs>
     <path id="C2_0_56dcbf37a3" d="M 0 3.5 
C 0.928211 3.5 1.81853 3.131218 2.474874 2.474874 
C 3.131218 1.81853 3.5 0.928211 3.5 -0 
C 3.5 -0.928211 3.131218 -1.81853 2.474874 -2.474874 
C 1.81853 -3.131218 0.928211 -3.5 0 -3.5 
C -0.928211 -3.5 -1.81853 -3.131218 -2.474874 -2.474874 
C -3.131218 -1.81853 -3.5 -0.928211 -3.5 0 
C -3.5 0.928211 -3.131218 1.81853 -2.474874 2.474874 
C -1.81853 3.131218 -0.928211 3.5 0 3.5 
z
"/>
    </defs>
    <g clip-path="url(#p4b758b4d91)">
     <use xlink:href="#C2_0_56dcbf37a3" x="90.639898" y="70.669692" style="fill: #174263; fill-opacity: 0.45"/>
    </g>
    <g clip-path="url(#p4b758b4d91)">
     <use xlink:href="#C2_0_56dcbf37a3" x="88.725948" y="88.945615" style="fill: #174263; fill-opacity: 0.45"/>
    </g>
    <g clip-path="url(#p4b758b4d91)">
     <use xlink:href="#C2_0_56dcbf37a3" x="88.1704" y="41.950385" style="fill: #174263; fill-opacity: 0.45"/>
    </g>
    <g clip-path="url(#p4b758b4d91)">
     <use xlink:href="#C2_0_56dcbf37a3" x="87.771458" y="43.255808" style="fill: #174263; fill-opacity: 0.45"/>
    </g>
    <g clip-path="url(#p4b758b4d91)">
     <use xlink:href="#C2_0_56dcbf37a3" x="92.187172" y="71.975115" style="fill: #174263; fill-opacity: 0.45"/>
    </g>
    <g clip-path="url(#p4b758b4d91)">
     <use xlink:href="#C2_0_56dcbf37a3" x="90.081185" y="43.255808" style="fill: #174263; fill-opacity: 0.45"/>
    </g>
    <g clip-path="url(#p4b758b4d91)">
     <use xlink:href="#C2_0_56dcbf37a3" x="92.461891" y="50.435635" style="fill: #174263; fill-opacity: 0.45"/>
    </g>
    <g clip-path="url(#p4b758b4d91)">
     <use xlink:href="#C2_0_56dcbf37a3" x="87.942724" y="45.213942" style="fill: #174263; fill-opacity: 0.45"/>
    </g>
    <g clip-path="url(#p4b758b4d91)">
     <use xlink:href="#C2_0_56dcbf37a3" x="90.156117" y="46.519365" style="fill: #174263; fill-opacity: 0.45"/>
    </g>
    <g clip-path="url(#p4b758b4d91)">
     <use xlink:href="#C2_0_56dcbf37a3" x="89.897547" y="40.644962" style="fill: #174263; fill-opacity: 0.45"/>
    </g>
    <g clip-path="url(#p4b758b4d91)">
     <use xlink:href="#C2_0_56dcbf37a3" x="90.459633" y="91.556462" style="fill: #174263; fill-opacity: 0.45"/>
    </g>
    <g clip-path="url(#p4b758b4d91)">
     <use xlink:href="#C2_0_56dcbf37a3" x="92.499401" y="51.741058" style="fill: #174263; fill-opacity: 0.45"/>
    </g>
    <g clip-path="url(#p4b758b4d91)">
     <use xlink:href="#C2_0_56dcbf37a3" x="90.57569" y="65.448" style="fill: #174263; fill-opacity: 0.45"/>
    </g>
    <g clip-path="url(#p4b758b4d91)">
     <use xlink:href="#C2_0_56dcbf37a3" x="92.627795" y="57.615462" style="fill: #174263; fill-opacity: 0.45"/>
    </g>
    <g clip-path="url(#p4b758b4d91)">
     <use xlink:href="#C2_0_56dcbf37a3" x="90.664763" y="55.657327" style="fill: #174263; fill-opacity: 0.45"/>
    </g>
    <g clip-path="url(#p4b758b4d91)">
     <use xlink:href="#C2_0_56dcbf37a3" x="90.058754" y="82.4185" style="fill: #174263; fill-opacity: 0.45"/>
    </g>
    <g clip-path="url(#p4b758b4d91)">
     <use xlink:href="#C2_0_56dcbf37a3" x="89.992374" y="83.723923" style="fill: #174263; fill-opacity: 0.45"/>
    </g>
    <g clip-path="url(#p4b758b4d91)">
     <use xlink:href="#C2_0_56dcbf37a3" x="88.89489" y="88.945615" style="fill: #174263; fill-opacity: 0.45"/>
    </g>
    <g clip-path="url(#p4b758b4d91)">
     <use xlink:href="#C2_0_56dcbf37a3" x="89.64309" y="51.741058" style="fill: #174263; fill-opacity: 0.45"/>
    </g>
    <g clip-path="url(#p4b758b4d91)">
     <use xlink:href="#C2_0_56dcbf37a3" x="90.836166" y="53.046481" style="fill: #174263; fill-opacity: 0.45"/>
    </g>
    <g clip-path="url(#p4b758b4d91)">
     <use xlink:href="#C2_0_56dcbf37a3" x="91.017368" y="75.891385" style="fill: #174263; fill-opacity: 0.45"/>
    </g>
    <g clip-path="url(#p4b758b4d91)">
     <use xlink:href="#C2_0_56dcbf37a3" x="88.582544" y="38.034115" style="fill: #174263; fill-opacity: 0.45"/>
    </g>
    <g clip-path="url(#p4b758b4d91)">
     <use xlink:href="#C2_0_56dcbf37a3" x="87.832353" y="58.268173" style="fill: #174263; fill-opacity: 0.45"/>
    </g>
    <g clip-path="url(#p4b758b4d91)">
     <use xlink:href="#C2_0_56dcbf37a3" x="91.81404" y="42.603096" style="fill: #174263; fill-opacity: 0.45"/>
    </g>
    <g clip-path="url(#p4b758b4d91)">
     <use xlink:href="#C2_0_56dcbf37a3" x="90.128836" y="44.561231" style="fill: #174263; fill-opacity: 0.45"/>
    </g>
    <g clip-path="url(#p4b758b4d91)">
     <use xlink:href="#C2_0_56dcbf37a3" x="90.891195" y="55.657327" style="fill: #174263; fill-opacity: 0.45"/>
    </g>
    <g clip-path="url(#p4b758b4d91)">
     <use xlink:href="#C2_0_56dcbf37a3" x="91.570438" y="38.034115" style="fill: #174263; fill-opacity: 0.45"/>
    </g>
    <g clip-path="url(#p4b758b4d91)">
     <use xlink:href="#C2_0_56dcbf37a3" x="92.827958" y="41.950385" style="fill: #174263; fill-opacity: 0.45"/>
    </g>
    <g clip-path="url(#p4b758b4d91)">
     <use xlink:href="#C2_0_56dcbf37a3" x="88.0356" y="75.891385" style="fill: #174263; fill-opacity: 0.45"/>
    </g>
    <g clip-path="url(#p4b758b4d91)">
     <use xlink:href="#C2_0_56dcbf37a3" x="89.921501" y="45.866654" style="fill: #174263; fill-opacity: 0.45"/>
    </g>
    <g clip-path="url(#p4b758b4d91)">
     <use xlink:href="#C2_0_56dcbf37a3" x="88.53357" y="71.322404" style="fill: #174263; fill-opacity: 0.45"/>
    </g>
    <g clip-path="url(#p4b758b4d91)">
     <use xlink:href="#C2_0_56dcbf37a3" x="89.381173" y="43.255808" style="fill: #174263; fill-opacity: 0.45"/>
    </g>
    <g clip-path="url(#p4b758b4d91)">
     <use xlink:href="#C2_0_56dcbf37a3" x="93.247039" y="53.699192" style="fill: #174263; fill-opacity: 0.45"/>
    </g>
    <g clip-path="url(#p4b758b4d91)">
     <use xlink:href="#C2_0_56dcbf37a3" x="92.303426" y="41.297673" style="fill: #174263; fill-opacity: 0.45"/>
    </g>
    <g clip-path="url(#p4b758b4d91)">
     <use xlink:href="#C2_0_56dcbf37a3" x="90.754108" y="43.255808" style="fill: #174263; fill-opacity: 0.45"/>
    </g>
    <g clip-path="url(#p4b758b4d91)">
     <use xlink:href="#C2_0_56dcbf37a3" x="90.834478" y="44.561231" style="fill: #174263; fill-opacity: 0.45"/>
    </g>
    <g clip-path="url(#p4b758b4d91)">
     <use xlink:href="#C2_0_56dcbf37a3" x="91.397921" y="66.753423" style="fill: #174263; fill-opacity: 0.45"/>
    </g>
    <g clip-path="url(#p4b758b4d91)">
     <use xlink:href="#C2_0_56dcbf37a3" x="88.300074" y="42.603096" style="fill: #174263; fill-opacity: 0.45"/>
    </g>
   </g>
   <g id="PathCollection_4">
    <defs>
     <path id="C3_0_ec39514e6a" d="M 0 3.5 
C 0.928211 3.5 1.81853 3.131218 2.474874 2.474874 
C 3.131218 1.81853 3.5 0.928211 3.5 -0 
C 3.5 -0.928211 3.131218 -1.81853 2.474874 -2.474874 
C 1.81853 -3.131218 0.928211 -3.5 0 -3.5 
C -0.928211 -3.5 -1.81853 -3.131218 -2.474874 -2.474874 
C -3.131218 -1.81853 -3.5 -0.928211 -3.5 0 
C -3.5 0.928211 -3.131218 1.81853 -2.474874 2.474874 
C -1.81853 3.131218 -0.928211 3.5 0 3.5 
z
"/>
    </defs>
    <g clip-path="url(#p4b758b4d91)">
     <use xlink:href="#C3_0_ec39514e6a" x="110.769453" y="48.4775" style="fill: #d75728; fill-opacity: 0.45"/>
    </g>
    <g clip-path="url(#p4b758b4d91)">
     <use xlink:href="#C3_0_ec39514e6a" x="113.308712" y="90.251038" style="fill: #d75728; fill-opacity: 0.45"/>
    </g>
    <g clip-path="url(#p4b758b4d91)">
     <use xlink:href="#C3_0_ec39514e6a" x="114.080188" y="75.891385" style="fill: #d75728; fill-opacity: 0.45"/>
    </g>
    <g clip-path="url(#p4b758b4d91)">
     <use xlink:href="#C3_0_ec39514e6a" x="113.391683" y="50.435635" style="fill: #d75728; fill-opacity: 0.45"/>
    </g>
    <g clip-path="url(#p4b758b4d91)">
     <use xlink:href="#C3_0_ec39514e6a" x="114.508748" y="62.837154" style="fill: #d75728; fill-opacity: 0.45"/>
    </g>
    <g clip-path="url(#p4b758b4d91)">
     <use xlink:href="#C3_0_ec39514e6a" x="112.098884" y="39.339538" style="fill: #d75728; fill-opacity: 0.45"/>
    </g>
    <g clip-path="url(#p4b758b4d91)">
     <use xlink:href="#C3_0_ec39514e6a" x="111.058226" y="44.561231" style="fill: #d75728; fill-opacity: 0.45"/>
    </g>
    <g clip-path="url(#p4b758b4d91)">
     <use xlink:href="#C3_0_ec39514e6a" x="110.628058" y="50.435635" style="fill: #d75728; fill-opacity: 0.45"/>
    </g>
    <g clip-path="url(#p4b758b4d91)">
     <use xlink:href="#C3_0_ec39514e6a" x="110.6274" y="47.824788" style="fill: #d75728; fill-opacity: 0.45"/>
    </g>
    <g clip-path="url(#p4b758b4d91)">
     <use xlink:href="#C3_0_ec39514e6a" x="112.649365" y="41.297673" style="fill: #d75728; fill-opacity: 0.45"/>
    </g>
    <g clip-path="url(#p4b758b4d91)">
     <use xlink:href="#C3_0_ec39514e6a" x="111.357932" y="42.603096" style="fill: #d75728; fill-opacity: 0.45"/>
    </g>
    <g clip-path="url(#p4b758b4d91)">
     <use xlink:href="#C3_0_ec39514e6a" x="110.52948" y="86.987481" style="fill: #d75728; fill-opacity: 0.45"/>
    </g>
    <g clip-path="url(#p4b758b4d91)">
     <use xlink:href="#C3_0_ec39514e6a" x="111.353612" y="45.213942" style="fill: #d75728; fill-opacity: 0.45"/>
    </g>
    <g clip-path="url(#p4b758b4d91)">
     <use xlink:href="#C3_0_ec39514e6a" x="112.228895" y="38.034115" style="fill: #d75728; fill-opacity: 0.45"/>
    </g>
    <g clip-path="url(#p4b758b4d91)">
     <use xlink:href="#C3_0_ec39514e6a" x="113.797614" y="47.824788" style="fill: #d75728; fill-opacity: 0.45"/>
    </g>
    <g clip-path="url(#p4b758b4d91)">
     <use xlink:href="#C3_0_ec39514e6a" x="114.848091" y="58.920885" style="fill: #d75728; fill-opacity: 0.45"/>
    </g>
    <g clip-path="url(#p4b758b4d91)">
     <use xlink:href="#C3_0_ec39514e6a" x="114.863547" y="64.142577" style="fill: #d75728; fill-opacity: 0.45"/>
    </g>
    <g clip-path="url(#p4b758b4d91)">
     <use xlink:href="#C3_0_ec39514e6a" x="115.034136" y="35.423269" style="fill: #d75728; fill-opacity: 0.45"/>
    </g>
    <g clip-path="url(#p4b758b4d91)">
     <use xlink:href="#C3_0_ec39514e6a" x="111.059699" y="36.728692" style="fill: #d75728; fill-opacity: 0.45"/>
    </g>
    <g clip-path="url(#p4b758b4d91)">
     <use xlink:href="#C3_0_ec39514e6a" x="111.610472" y="58.268173" style="fill: #d75728; fill-opacity: 0.45"/>
    </g>
    <g clip-path="url(#p4b758b4d91)">
     <use xlink:href="#C3_0_ec39514e6a" x="111.618148" y="38.034115" style="fill: #d75728; fill-opacity: 0.45"/>
    </g>
    <g clip-path="url(#p4b758b4d91)">
     <use xlink:href="#C3_0_ec39514e6a" x="110.833367" y="39.99225" style="fill: #d75728; fill-opacity: 0.45"/>
    </g>
    <g clip-path="url(#p4b758b4d91)">
     <use xlink:href="#C3_0_ec39514e6a" x="112.642881" y="41.297673" style="fill: #d75728; fill-opacity: 0.45"/>
    </g>
    <g clip-path="url(#p4b758b4d91)">
     <use xlink:href="#C3_0_ec39514e6a" x="114.815559" y="83.723923" style="fill: #d75728; fill-opacity: 0.45"/>
    </g>
    <g clip-path="url(#p4b758b4d91)">
     <use xlink:href="#C3_0_ec39514e6a" x="111.254075" y="39.99225" style="fill: #d75728; fill-opacity: 0.45"/>
    </g>
    <g clip-path="url(#p4b758b4d91)">
     <use xlink:href="#C3_0_ec39514e6a" x="114.312217" y="58.268173" style="fill: #d75728; fill-opacity: 0.45"/>
    </g>
    <g clip-path="url(#p4b758b4d91)">
     <use xlink:href="#C3_0_ec39514e6a" x="111.208022" y="43.908519" style="fill: #d75728; fill-opacity: 0.45"/>
    </g>
    <g clip-path="url(#p4b758b4d91)">
     <use xlink:href="#C3_0_ec39514e6a" x="111.144633" y="50.435635" style="fill: #d75728; fill-opacity: 0.45"/>
    </g>
    <g clip-path="url(#p4b758b4d91)">
     <use xlink:href="#C3_0_ec39514e6a" x="112.085746" y="37.381404" style="fill: #d75728; fill-opacity: 0.45"/>
    </g>
    <g clip-path="url(#p4b758b4d91)">
     <use xlink:href="#C3_0_ec39514e6a" x="113.507383" y="70.669692" style="fill: #d75728; fill-opacity: 0.45"/>
    </g>
    <g clip-path="url(#p4b758b4d91)">
     <use xlink:href="#C3_0_ec39514e6a" x="110.202732" y="55.004615" style="fill: #d75728; fill-opacity: 0.45"/>
    </g>
    <g clip-path="url(#p4b758b4d91)">
     <use xlink:href="#C3_0_ec39514e6a" x="112.747653" y="49.130212" style="fill: #d75728; fill-opacity: 0.45"/>
    </g>
    <g clip-path="url(#p4b758b4d91)">
     <use xlink:href="#C3_0_ec39514e6a" x="115.505734" y="47.172077" style="fill: #d75728; fill-opacity: 0.45"/>
    </g>
    <g clip-path="url(#p4b758b4d91)">
     <use xlink:href="#C3_0_ec39514e6a" x="114.877245" y="43.255808" style="fill: #d75728; fill-opacity: 0.45"/>
    </g>
    <g clip-path="url(#p4b758b4d91)">
     <use xlink:href="#C3_0_ec39514e6a" x="115.636679" y="53.699192" style="fill: #d75728; fill-opacity: 0.45"/>
    </g>
    <g clip-path="url(#p4b758b4d91)">
     <use xlink:href="#C3_0_ec39514e6a" x="112.415515" y="81.765788" style="fill: #d75728; fill-opacity: 0.45"/>
    </g>
    <g clip-path="url(#p4b758b4d91)">
     <use xlink:href="#C3_0_ec39514e6a" x="110.579796" y="58.920885" style="fill: #d75728; fill-opacity: 0.45"/>
    </g>
    <g clip-path="url(#p4b758b4d91)">
     <use xlink:href="#C3_0_ec39514e6a" x="110.519735" y="43.908519" style="fill: #d75728; fill-opacity: 0.45"/>
    </g>
   </g>
   <g id="line2d_6">
    <path d="M 33.2055 62.578273 
L 36.2745 62.578273 
M 34.74 62.578273 
L 34.74 40.113718 
M 33.2055 40.113718 
L 36.2745 40.113718 
" clip-path="url(#p4b758b4d91)" style="fill: none; stroke: #333333; stroke-width: 2.5; stroke-linecap: square"/>
   </g>
   <g id="line2d_7">
    <path d="M 89.0055 72.768904 
L 92.0745 72.768904 
M 90.54 72.768904 
L 90.54 40.297765 
M 89.0055 40.297765 
L 92.0745 40.297765 
" clip-path="url(#p4b758b4d91)" style="fill: none; stroke: #333333; stroke-width: 2.5; stroke-linecap: square"/>
   </g>
   <g id="line2d_8">
    <path d="M 55.5255 75.410513 
L 58.5945 75.410513 
M 57.06 75.410513 
L 57.06 39.61429 
M 55.5255 39.61429 
L 58.5945 39.61429 
" clip-path="url(#p4b758b4d91)" style="fill: none; stroke: #333333; stroke-width: 2.5; stroke-linecap: square"/>
   </g>
   <g id="line2d_9">
    <path d="M 111.3255 67.577385 
L 114.3945 67.577385 
M 112.86 67.577385 
L 112.86 37.794159 
M 111.3255 37.794159 
L 114.3945 37.794159 
" clip-path="url(#p4b758b4d91)" style="fill: none; stroke: #333333; stroke-width: 2.5; stroke-linecap: square"/>
   </g>
   <g id="patch_9">
    <path d="M 18 115.344 
L 18 15.552 
" style="fill: none; stroke: #000000; stroke-linejoin: miter; stroke-linecap: square"/>
   </g>
   <g id="patch_10">
    <path d="M 18 115.344 
L 129.6 115.344 
" style="fill: none; stroke: #000000; stroke-linejoin: miter; stroke-linecap: square"/>
   </g>
   <g id="PathCollection_5">
    <defs>
     <path id="m890498ac79" d="M 0 3 
C 0.795609 3 1.55874 2.683901 2.12132 2.12132 
C 2.683901 1.55874 3 0.795609 3 0 
C 3 -0.795609 2.683901 -1.55874 2.12132 -2.12132 
C 1.55874 -2.683901 0.795609 -3 0 -3 
C -0.795609 -3 -1.55874 -2.683901 -2.12132 -2.12132 
C -2.683901 -1.55874 -3 -0.795609 -3 0 
C -3 0.795609 -2.683901 1.55874 -2.12132 2.12132 
C -1.55874 2.683901 -0.795609 3 0 3 
z
"/>
    </defs>
    <g clip-path="url(#p4b758b4d91)">
     <use xlink:href="#m890498ac79" x="34.74" y="51.345995" style="fill: #333333"/>
    </g>
   </g>
   <g id="PathCollection_6">
    <g clip-path="url(#p4b758b4d91)">
     <use xlink:href="#m890498ac79" x="57.06" y="57.512402" style="fill: #333333"/>
    </g>
   </g>
   <g id="PathCollection_7">
    <g clip-path="url(#p4b758b4d91)">
     <use xlink:href="#m890498ac79" x="90.54" y="56.533335" style="fill: #333333"/>
    </g>
   </g>
   <g id="PathCollection_8">
    <g clip-path="url(#p4b758b4d91)">
     <use xlink:href="#m890498ac79" x="112.86" y="52.685772" style="fill: #333333"/>
    </g>
   </g>
   <g id="line2d_10"/>
   <g id="line2d_11"/>
  </g>
 </g>
 <defs>
  <clipPath id="p4b758b4d91">
   <rect x="18" y="15.552" width="111.6" height="99.792"/>
  </clipPath>
 </defs>
</svg>
