<?xml version="1.0" encoding="utf-8" standalone="no"?>
<!DOCTYPE svg PUBLIC "-//W3C//DTD SVG 1.1//EN"
  "http://www.w3.org/Graphics/SVG/1.1/DTD/svg11.dtd">
<svg xmlns:xlink="http://www.w3.org/1999/xlink" width="144pt" height="129.6pt" viewBox="0 0 144 129.6" xmlns="http://www.w3.org/2000/svg" version="1.1">
 <metadata>
  <rdf:RDF xmlns:dc="http://purl.org/dc/elements/1.1/" xmlns:cc="http://creativecommons.org/ns#" xmlns:rdf="http://www.w3.org/1999/02/22-rdf-syntax-ns#">
   <cc:Work>
    <dc:type rdf:resource="http://purl.org/dc/dcmitype/StillImage"/>
    <dc:date>2025-04-02T23:11:17.714365</dc:date>
    <dc:format>image/svg+xml</dc:format>
    <dc:creator>
     <cc:Agent>
      <dc:title>Matplotlib v3.7.1, https://matplotlib.org/</dc:title>
     </cc:Agent>
    </dc:creator>
   </cc:Work>
  </rdf:RDF>
 </metadata>
 <defs>
  <style type="text/css">*{stroke-linejoin: round; stroke-linecap: butt}</style>
 </defs>
 <g id="figure_1">
  <g id="patch_1">
   <path d="M 0 129.6 
L 144 129.6 
L 144 0 
L 0 0 
L 0 129.6 
z
" style="fill: none"/>
  </g>
  <g id="axes_1">
   <g id="patch_2">
    <path d="M 18 115.344 
L 129.6 115.344 
L 129.6 15.552 
L 18 15.552 
L 18 115.344 
z
" style="fill: none"/>
   </g>
   <g id="PolyCollection_1">
    <path d="M 34.852489 89.593088 
L 34.627511 89.593088 
L 34.592622 89.004061 
L 34.549218 88.415034 
L 34.495891 87.826007 
L 34.431161 87.23698 
L 34.353498 86.647953 
L 34.261358 86.058926 
L 34.153213 85.469899 
L 34.027593 84.880873 
L 33.883129 84.291846 
L 33.718598 83.702819 
L 33.532976 83.113792 
L 33.325487 82.524765 
L 33.095654 81.935738 
L 32.843349 81.346711 
L 32.568828 80.757684 
L 32.272753 80.168657 
L 31.956189 79.57963 
L 31.620575 78.990604 
L 31.26767 78.401577 
L 30.899467 77.81255 
L 30.51809 77.223523 
L 30.125687 76.634496 
L 29.724324 76.045469 
L 29.315912 75.456442 
L 28.902179 74.867415 
L 28.484684 74.278388 
L 28.064905 73.689362 
L 27.644373 73.100335 
L 27.224843 72.511308 
L 26.808488 71.922281 
L 26.398066 71.333254 
L 25.997044 70.744227 
L 25.609645 70.1552 
L 25.240789 69.566173 
L 24.895938 68.977146 
L 24.580823 68.38812 
L 24.301114 67.799093 
L 24.062021 67.210066 
L 23.867917 66.621039 
L 23.721985 66.032012 
L 23.625963 65.442985 
L 23.58 64.853958 
L 23.582649 64.264931 
L 23.630996 63.675904 
L 23.720909 63.086878 
L 23.847376 62.497851 
L 24.004903 61.908824 
L 24.187903 61.319797 
L 24.391065 60.73077 
L 24.609637 60.141743 
L 24.839627 59.552716 
L 25.077876 58.963689 
L 25.322049 58.374662 
L 25.570518 57.785635 
L 25.822197 57.196609 
L 26.076346 56.607582 
L 26.332373 56.018555 
L 26.589676 55.429528 
L 26.847536 54.840501 
L 27.105075 54.251474 
L 27.361275 53.662447 
L 27.615049 53.07342 
L 27.865349 52.484393 
L 28.111272 51.895367 
L 28.352169 51.30634 
L 28.587714 50.717313 
L 28.817935 50.128286 
L 29.043198 49.539259 
L 29.26416 48.950232 
L 29.481688 48.361205 
L 29.696765 47.772178 
L 29.9104 47.183151 
L 30.123546 46.594125 
L 30.337037 46.005098 
L 30.55155 45.416071 
L 30.767572 44.827044 
L 30.985395 44.238017 
L 31.205101 43.64899 
L 31.426553 43.059963 
L 31.649386 42.470936 
L 31.872991 41.881909 
L 32.096503 41.292882 
L 32.318803 40.703856 
L 32.538528 40.114829 
L 32.754105 39.525802 
L 32.963808 38.936775 
L 33.165832 38.347748 
L 33.358385 37.758721 
L 33.53979 37.169694 
L 33.708576 36.580667 
L 33.863568 35.99164 
L 34.003948 35.402614 
L 34.12929 34.813587 
L 34.239575 34.22456 
L 34.335162 33.635533 
L 34.416754 33.046506 
L 34.485325 32.457479 
L 34.542058 31.868452 
L 34.588259 31.279425 
L 34.891741 31.279425 
L 34.891741 31.279425 
L 34.937942 31.868452 
L 34.994675 32.457479 
L 35.063246 33.046506 
L 35.144838 33.635533 
L 35.240425 34.22456 
L 35.35071 34.813587 
L 35.476052 35.402614 
L 35.616432 35.99164 
L 35.771424 36.580667 
L 35.94021 37.169694 
L 36.121615 37.758721 
L 36.314168 38.347748 
L 36.516192 38.936775 
L 36.725895 39.525802 
L 36.941472 40.114829 
L 37.161197 40.703856 
L 37.383497 41.292882 
L 37.607009 41.881909 
L 37.830614 42.470936 
L 38.053447 43.059963 
L 38.274899 43.64899 
L 38.494605 44.238017 
L 38.712428 44.827044 
L 38.92845 45.416071 
L 39.142963 46.005098 
L 39.356454 46.594125 
L 39.5696 47.183151 
L 39.783235 47.772178 
L 39.998312 48.361205 
L 40.21584 48.950232 
L 40.436802 49.539259 
L 40.662065 50.128286 
L 40.892286 50.717313 
L 41.127831 51.30634 
L 41.368728 51.895367 
L 41.614651 52.484393 
L 41.864951 53.07342 
L 42.118725 53.662447 
L 42.374925 54.251474 
L 42.632464 54.840501 
L 42.890324 55.429528 
L 43.147627 56.018555 
L 43.403654 56.607582 
L 43.657803 57.196609 
L 43.909482 57.785635 
L 44.157951 58.374662 
L 44.402124 58.963689 
L 44.640373 59.552716 
L 44.870363 60.141743 
L 45.088935 60.73077 
L 45.292097 61.319797 
L 45.475097 61.908824 
L 45.632624 62.497851 
L 45.759091 63.086878 
L 45.849004 63.675904 
L 45.897351 64.264931 
L 45.9 64.853958 
L 45.854037 65.442985 
L 45.758015 66.032012 
L 45.612083 66.621039 
L 45.417979 67.210066 
L 45.178886 67.799093 
L 44.899177 68.38812 
L 44.584062 68.977146 
L 44.239211 69.566173 
L 43.870355 70.1552 
L 43.482956 70.744227 
L 43.081934 71.333254 
L 42.671512 71.922281 
L 42.255157 72.511308 
L 41.835627 73.100335 
L 41.415095 73.689362 
L 40.995316 74.278388 
L 40.577821 74.867415 
L 40.164088 75.456442 
L 39.755676 76.045469 
L 39.354313 76.634496 
L 38.96191 77.223523 
L 38.580533 77.81255 
L 38.21233 78.401577 
L 37.859425 78.990604 
L 37.523811 79.57963 
L 37.207247 80.168657 
L 36.911172 80.757684 
L 36.636651 81.346711 
L 36.384346 81.935738 
L 36.154513 82.524765 
L 35.947024 83.113792 
L 35.761402 83.702819 
L 35.596871 84.291846 
L 35.452407 84.880873 
L 35.326787 85.469899 
L 35.218642 86.058926 
L 35.126502 86.647953 
L 35.048839 87.23698 
L 34.984109 87.826007 
L 34.930782 88.415034 
L 34.887378 89.004061 
L 34.852489 89.593088 
z
" clip-path="url(#paa288debe5)" style="fill: #20415a; fill-opacity: 0.35"/>
   </g>
   <g id="PolyCollection_2">
    <path d="M 57.145071 113.272335 
L 56.974929 113.272335 
L 56.94523 112.446699 
L 56.908875 111.621062 
L 56.865777 110.795426 
L 56.816372 109.969789 
L 56.761728 109.144153 
L 56.703584 108.318516 
L 56.644319 107.49288 
L 56.586823 106.667243 
L 56.53429 105.841607 
L 56.489929 105.01597 
L 56.456648 104.190334 
L 56.436736 103.364697 
L 56.431605 102.539061 
L 56.441623 101.713424 
L 56.466072 100.887788 
L 56.503229 100.062151 
L 56.550573 99.236515 
L 56.605057 98.410878 
L 56.663435 97.585242 
L 56.722569 96.759605 
L 56.77969 95.933969 
L 56.832575 95.108332 
L 56.879629 94.282696 
L 56.91988 93.457059 
L 56.952882 92.631423 
L 56.978576 91.805786 
L 56.997103 90.98015 
L 57.008616 90.154513 
L 57.013091 89.328877 
L 57.010165 88.50324 
L 56.999001 87.677604 
L 56.978188 86.851967 
L 56.945687 86.026331 
L 56.898821 85.200694 
L 56.834322 84.375058 
L 56.748429 83.549421 
L 56.637048 82.723785 
L 56.495959 81.898148 
L 56.321063 81.072512 
L 56.108658 80.246875 
L 55.855705 79.421239 
L 55.560086 78.595602 
L 55.220806 77.769966 
L 54.838148 76.94433 
L 54.413745 76.118693 
L 53.95059 75.293057 
L 53.452967 74.46742 
L 52.926318 73.641784 
L 52.377065 72.816147 
L 51.812394 71.990511 
L 51.240008 71.164874 
L 50.66789 70.339238 
L 50.104057 69.513601 
L 49.556336 68.687965 
L 49.032161 67.862328 
L 48.538372 67.036692 
L 48.081018 66.211055 
L 47.665163 65.385419 
L 47.29466 64.559782 
L 46.971947 63.734146 
L 46.69786 62.908509 
L 46.471527 62.082873 
L 46.290398 61.257236 
L 46.150474 60.4316 
L 46.046749 59.605963 
L 45.973884 58.780327 
L 45.927045 57.95469 
L 45.902809 57.129054 
L 45.9 56.303417 
L 45.920296 55.477781 
L 45.96846 54.652144 
L 46.052105 53.826508 
L 46.180965 53.000871 
L 46.365726 52.175235 
L 46.61656 51.349598 
L 46.94158 50.523962 
L 47.345427 49.698325 
L 47.828232 48.872689 
L 48.38511 48.047052 
L 49.006257 47.221416 
L 49.677648 46.395779 
L 50.382201 45.570143 
L 51.101242 44.744506 
L 51.816041 43.91887 
L 52.509225 43.093233 
L 53.165898 42.267597 
L 53.77438 41.44196 
L 54.326539 40.616324 
L 54.817746 39.790687 
L 55.246549 38.965051 
L 55.614154 38.139414 
L 55.923821 37.313778 
L 56.180254 36.488141 
L 56.389042 35.662505 
L 56.556185 34.836868 
L 56.687722 34.011232 
L 56.789451 33.185595 
L 56.866733 32.359959 
L 56.924373 31.534322 
L 57.195627 31.534322 
L 57.195627 31.534322 
L 57.253267 32.359959 
L 57.330549 33.185595 
L 57.432278 34.011232 
L 57.563815 34.836868 
L 57.730958 35.662505 
L 57.939746 36.488141 
L 58.196179 37.313778 
L 58.505846 38.139414 
L 58.873451 38.965051 
L 59.302254 39.790687 
L 59.793461 40.616324 
L 60.34562 41.44196 
L 60.954102 42.267597 
L 61.610775 43.093233 
L 62.303959 43.91887 
L 63.018758 44.744506 
L 63.737799 45.570143 
L 64.442352 46.395779 
L 65.113743 47.221416 
L 65.73489 48.047052 
L 66.291768 48.872689 
L 66.774573 49.698325 
L 67.17842 50.523962 
L 67.50344 51.349598 
L 67.754274 52.175235 
L 67.939035 53.000871 
L 68.067895 53.826508 
L 68.15154 54.652144 
L 68.199704 55.477781 
L 68.22 56.303417 
L 68.217191 57.129054 
L 68.192955 57.95469 
L 68.146116 58.780327 
L 68.073251 59.605963 
L 67.969526 60.4316 
L 67.829602 61.257236 
L 67.648473 62.082873 
L 67.42214 62.908509 
L 67.148053 63.734146 
L 66.82534 64.559782 
L 66.454837 65.385419 
L 66.038982 66.211055 
L 65.581628 67.036692 
L 65.087839 67.862328 
L 64.563664 68.687965 
L 64.015943 69.513601 
L 63.45211 70.339238 
L 62.879992 71.164874 
L 62.307606 71.990511 
L 61.742935 72.816147 
L 61.193682 73.641784 
L 60.667033 74.46742 
L 60.16941 75.293057 
L 59.706255 76.118693 
L 59.281852 76.94433 
L 58.899194 77.769966 
L 58.559914 78.595602 
L 58.264295 79.421239 
L 58.011342 80.246875 
L 57.798937 81.072512 
L 57.624041 81.898148 
L 57.482952 82.723785 
L 57.371571 83.549421 
L 57.285678 84.375058 
L 57.221179 85.200694 
L 57.174313 86.026331 
L 57.141812 86.851967 
L 57.120999 87.677604 
L 57.109835 88.50324 
L 57.106909 89.328877 
L 57.111384 90.154513 
L 57.122897 90.98015 
L 57.141424 91.805786 
L 57.167118 92.631423 
L 57.20012 93.457059 
L 57.240371 94.282696 
L 57.287425 95.108332 
L 57.34031 95.933969 
L 57.397431 96.759605 
L 57.456565 97.585242 
L 57.514943 98.410878 
L 57.569427 99.236515 
L 57.616771 100.062151 
L 57.653928 100.887788 
L 57.678377 101.713424 
L 57.688395 102.539061 
L 57.683264 103.364697 
L 57.663352 104.190334 
L 57.630071 105.01597 
L 57.58571 105.841607 
L 57.533177 106.667243 
L 57.475681 107.49288 
L 57.416416 108.318516 
L 57.358272 109.144153 
L 57.303628 109.969789 
L 57.254223 110.795426 
L 57.211125 111.621062 
L 57.17477 112.446699 
L 57.145071 113.272335 
z
" clip-path="url(#paa288debe5)" style="fill: #c1613e; fill-opacity: 0.35"/>
   </g>
   <g id="PolyCollection_3">
    <path d="M 90.777411 90.713277 
L 90.302589 90.713277 
L 90.223958 90.002072 
L 90.125808 89.290867 
L 90.005438 88.579663 
L 89.860361 87.868458 
L 89.688467 87.157253 
L 89.48817 86.446048 
L 89.258538 85.734843 
L 88.999375 85.023638 
L 88.711259 84.312434 
L 88.395509 83.601229 
L 88.054107 82.890024 
L 87.689563 82.178819 
L 87.304738 81.467614 
L 86.90267 80.75641 
L 86.486388 80.045205 
L 86.058768 79.334 
L 85.622427 78.622795 
L 85.179678 77.91159 
L 84.732543 77.200385 
L 84.282825 76.489181 
L 83.832235 75.777976 
L 83.382555 75.066771 
L 82.935824 74.355566 
L 82.494534 73.644361 
L 82.061803 72.933157 
L 81.641523 72.221952 
L 81.238435 71.510747 
L 80.858129 70.799542 
L 80.506934 70.088337 
L 80.191695 69.377132 
L 79.919433 68.665928 
L 79.696892 67.954723 
L 79.530029 67.243518 
L 79.423467 66.532313 
L 79.38 65.821108 
L 79.400197 65.109904 
L 79.482179 64.398699 
L 79.621611 63.687494 
L 79.811935 62.976289 
L 80.044827 62.265084 
L 80.310846 61.553879 
L 80.6002 60.842675 
L 80.903542 60.13147 
L 81.212696 59.420265 
L 81.52124 58.70906 
L 81.824862 57.997855 
L 82.121465 57.286651 
L 82.411015 56.575446 
L 82.695164 55.864241 
L 82.976713 55.153036 
L 83.258996 54.441831 
L 83.545257 53.730626 
L 83.838115 53.019422 
L 84.13917 52.308217 
L 84.448781 51.597012 
L 84.766039 50.885807 
L 85.088894 50.174602 
L 85.414428 49.463398 
L 85.739189 48.752193 
L 86.059558 48.040988 
L 86.372081 47.329783 
L 86.673733 46.618578 
L 86.962092 45.907373 
L 87.23541 45.196169 
L 87.492599 44.484964 
L 87.733142 43.773759 
L 87.956962 43.062554 
L 88.164281 42.351349 
L 88.355483 41.640145 
L 88.531011 40.92894 
L 88.69131 40.217735 
L 88.836805 39.50653 
L 88.967929 38.795325 
L 89.085179 38.08412 
L 89.189184 37.372916 
L 89.280774 36.661711 
L 89.361033 35.950506 
L 89.431319 35.239301 
L 89.493249 34.528096 
L 89.548641 33.816892 
L 89.599419 33.105687 
L 89.647495 32.394482 
L 89.694632 31.683277 
L 89.74232 30.972072 
L 89.791665 30.260867 
L 89.843322 29.549663 
L 89.897467 28.838458 
L 89.953818 28.127253 
L 90.011701 27.416048 
L 90.070147 26.704843 
L 90.128014 25.993639 
L 90.184111 25.282434 
L 90.237316 24.571229 
L 90.286668 23.860024 
L 90.331435 23.148819 
L 90.37115 22.437614 
L 90.405613 21.72641 
L 90.434873 21.015205 
L 90.459183 20.304 
L 90.620817 20.304 
L 90.620817 20.304 
L 90.645127 21.015205 
L 90.674387 21.72641 
L 90.70885 22.437614 
L 90.748565 23.148819 
L 90.793332 23.860024 
L 90.842684 24.571229 
L 90.895889 25.282434 
L 90.951986 25.993639 
L 91.009853 26.704843 
L 91.068299 27.416048 
L 91.126182 28.127253 
L 91.182533 28.838458 
L 91.236678 29.549663 
L 91.288335 30.260867 
L 91.33768 30.972072 
L 91.385368 31.683277 
L 91.432505 32.394482 
L 91.480581 33.105687 
L 91.531359 33.816892 
L 91.586751 34.528096 
L 91.648681 35.239301 
L 91.718967 35.950506 
L 91.799226 36.661711 
L 91.890816 37.372916 
L 91.994821 38.08412 
L 92.112071 38.795325 
L 92.243195 39.50653 
L 92.38869 40.217735 
L 92.548989 40.92894 
L 92.724517 41.640145 
L 92.915719 42.351349 
L 93.123038 43.062554 
L 93.346858 43.773759 
L 93.587401 44.484964 
L 93.84459 45.196169 
L 94.117908 45.907373 
L 94.406267 46.618578 
L 94.707919 47.329783 
L 95.020442 48.040988 
L 95.340811 48.752193 
L 95.665572 49.463398 
L 95.991106 50.174602 
L 96.313961 50.885807 
L 96.631219 51.597012 
L 96.94083 52.308217 
L 97.241885 53.019422 
L 97.534743 53.730626 
L 97.821004 54.441831 
L 98.103287 55.153036 
L 98.384836 55.864241 
L 98.668985 56.575446 
L 98.958535 57.286651 
L 99.255138 57.997855 
L 99.55876 58.70906 
L 99.867304 59.420265 
L 100.176458 60.13147 
L 100.4798 60.842675 
L 100.769154 61.553879 
L 101.035173 62.265084 
L 101.268065 62.976289 
L 101.458389 63.687494 
L 101.597821 64.398699 
L 101.679803 65.109904 
L 101.7 65.821108 
L 101.656533 66.532313 
L 101.549971 67.243518 
L 101.383108 67.954723 
L 101.160567 68.665928 
L 100.888305 69.377132 
L 100.573066 70.088337 
L 100.221871 70.799542 
L 99.841565 71.510747 
L 99.438477 72.221952 
L 99.018197 72.933157 
L 98.585466 73.644361 
L 98.144176 74.355566 
L 97.697445 75.066771 
L 97.247765 75.777976 
L 96.797175 76.489181 
L 96.347457 77.200385 
L 95.900322 77.91159 
L 95.457573 78.622795 
L 95.021232 79.334 
L 94.593612 80.045205 
L 94.17733 80.75641 
L 93.775262 81.467614 
L 93.390437 82.178819 
L 93.025893 82.890024 
L 92.684491 83.601229 
L 92.368741 84.312434 
L 92.080625 85.023638 
L 91.821462 85.734843 
L 91.59183 86.446048 
L 91.391533 87.157253 
L 91.219639 87.868458 
L 91.074562 88.579663 
L 90.954192 89.290867 
L 90.856042 90.002072 
L 90.777411 90.713277 
z
" clip-path="url(#paa288debe5)" style="fill: #20415a; fill-opacity: 0.35"/>
   </g>
   <g id="PolyCollection_4">
    <path d="M 113.120779 89.966481 
L 112.599221 89.966481 
L 112.528024 89.384132 
L 112.442663 88.801783 
L 112.341796 88.219434 
L 112.224305 87.637085 
L 112.089377 87.054736 
L 111.93657 86.472387 
L 111.765856 85.890038 
L 111.577653 85.307689 
L 111.372812 84.72534 
L 111.152584 84.142991 
L 110.918558 83.560641 
L 110.672568 82.978292 
L 110.416592 82.395943 
L 110.152637 81.813594 
L 109.882633 81.231245 
L 109.60834 80.648896 
L 109.331271 80.066547 
L 109.052644 79.484198 
L 108.77336 78.901849 
L 108.494004 78.3195 
L 108.214869 77.737151 
L 107.935981 77.154802 
L 107.657143 76.572453 
L 107.37797 75.990103 
L 107.097921 75.407754 
L 106.816334 74.825405 
L 106.532455 74.243056 
L 106.245477 73.660707 
L 105.954592 73.078358 
L 105.659067 72.496009 
L 105.358344 71.91366 
L 105.052162 71.331311 
L 104.740713 70.748962 
L 104.424796 70.166613 
L 104.105975 69.584264 
L 103.786717 69.001914 
L 103.470474 68.419565 
L 103.161714 67.837216 
L 102.865858 67.254867 
L 102.589125 66.672518 
L 102.338286 66.090169 
L 102.12032 65.50782 
L 101.942 64.925471 
L 101.80944 64.343122 
L 101.727629 63.760773 
L 101.7 63.178424 
L 101.728077 62.596075 
L 101.811231 62.013726 
L 101.946589 61.431376 
L 102.129101 60.849027 
L 102.351772 60.266678 
L 102.606056 59.684329 
L 102.882367 59.10198 
L 103.170677 58.519631 
L 103.461143 57.937282 
L 103.744711 57.354933 
L 104.013646 56.772584 
L 104.261942 56.190235 
L 104.48558 55.607886 
L 104.682627 55.025537 
L 104.853165 54.443188 
L 104.999092 53.860838 
L 105.123805 53.278489 
L 105.23182 52.69614 
L 105.328362 52.113791 
L 105.418977 51.531442 
L 105.509188 50.949093 
L 105.604214 50.366744 
L 105.708774 49.784395 
L 105.82696 49.202046 
L 105.96217 48.619697 
L 106.117091 48.037348 
L 106.293704 47.454999 
L 106.493295 46.872649 
L 106.716466 46.2903 
L 106.963131 45.707951 
L 107.232507 45.125602 
L 107.523104 44.543253 
L 107.832724 43.960904 
L 108.15848 43.378555 
L 108.496855 42.796206 
L 108.843789 42.213857 
L 109.194814 41.631508 
L 109.545223 41.049159 
L 109.890261 40.46681 
L 110.225329 39.884461 
L 110.546182 39.302111 
L 110.849103 38.719762 
L 111.131045 38.137413 
L 111.389727 37.555064 
L 111.623679 36.972715 
L 111.832239 36.390366 
L 112.0155 35.808017 
L 112.174227 35.225668 
L 112.309738 34.643319 
L 112.423775 34.06097 
L 112.518375 33.478621 
L 112.595733 32.896272 
L 112.658095 32.313922 
L 113.061905 32.313922 
L 113.061905 32.313922 
L 113.124267 32.896272 
L 113.201625 33.478621 
L 113.296225 34.06097 
L 113.410262 34.643319 
L 113.545773 35.225668 
L 113.7045 35.808017 
L 113.887761 36.390366 
L 114.096321 36.972715 
L 114.330273 37.555064 
L 114.588955 38.137413 
L 114.870897 38.719762 
L 115.173818 39.302111 
L 115.494671 39.884461 
L 115.829739 40.46681 
L 116.174777 41.049159 
L 116.525186 41.631508 
L 116.876211 42.213857 
L 117.223145 42.796206 
L 117.56152 43.378555 
L 117.887276 43.960904 
L 118.196896 44.543253 
L 118.487493 45.125602 
L 118.756869 45.707951 
L 119.003534 46.2903 
L 119.226705 46.872649 
L 119.426296 47.454999 
L 119.602909 48.037348 
L 119.75783 48.619697 
L 119.89304 49.202046 
L 120.011226 49.784395 
L 120.115786 50.366744 
L 120.210812 50.949093 
L 120.301023 51.531442 
L 120.391638 52.113791 
L 120.48818 52.69614 
L 120.596195 53.278489 
L 120.720908 53.860838 
L 120.866835 54.443188 
L 121.037373 55.025537 
L 121.23442 55.607886 
L 121.458058 56.190235 
L 121.706354 56.772584 
L 121.975289 57.354933 
L 122.258857 57.937282 
L 122.549323 58.519631 
L 122.837633 59.10198 
L 123.113944 59.684329 
L 123.368228 60.266678 
L 123.590899 60.849027 
L 123.773411 61.431376 
L 123.908769 62.013726 
L 123.991923 62.596075 
L 124.02 63.178424 
L 123.992371 63.760773 
L 123.91056 64.343122 
L 123.778 64.925471 
L 123.59968 65.50782 
L 123.381714 66.090169 
L 123.130875 66.672518 
L 122.854142 67.254867 
L 122.558286 67.837216 
L 122.249526 68.419565 
L 121.933283 69.001914 
L 121.614025 69.584264 
L 121.295204 70.166613 
L 120.979287 70.748962 
L 120.667838 71.331311 
L 120.361656 71.91366 
L 120.060933 72.496009 
L 119.765408 73.078358 
L 119.474523 73.660707 
L 119.187545 74.243056 
L 118.903666 74.825405 
L 118.622079 75.407754 
L 118.34203 75.990103 
L 118.062857 76.572453 
L 117.784019 77.154802 
L 117.505131 77.737151 
L 117.225996 78.3195 
L 116.94664 78.901849 
L 116.667356 79.484198 
L 116.388729 80.066547 
L 116.11166 80.648896 
L 115.837367 81.231245 
L 115.567363 81.813594 
L 115.303408 82.395943 
L 115.047432 82.978292 
L 114.801442 83.560641 
L 114.567416 84.142991 
L 114.347188 84.72534 
L 114.142347 85.307689 
L 113.954144 85.890038 
L 113.78343 86.472387 
L 113.630623 87.054736 
L 113.495695 87.637085 
L 113.378204 88.219434 
L 113.277337 88.801783 
L 113.191976 89.384132 
L 113.120779 89.966481 
z
" clip-path="url(#paa288debe5)" style="fill: #c1613e; fill-opacity: 0.35"/>
   </g>
   <g id="patch_3">
    <path d="M 23.58 115.344 
L 45.9 115.344 
L 45.9 61.39955 
L 23.58 61.39955 
L 23.58 115.344 
z
" clip-path="url(#paa288debe5)" style="fill: none"/>
   </g>
   <g id="patch_4">
    <path d="M 79.38 115.344 
L 101.7 115.344 
L 101.7 62.427907 
L 79.38 62.427907 
L 79.38 115.344 
z
" clip-path="url(#paa288debe5)" style="fill: none"/>
   </g>
   <g id="patch_5">
    <path d="M 45.9 115.344 
L 68.22 115.344 
L 68.22 59.213614 
L 45.9 59.213614 
L 45.9 115.344 
z
" clip-path="url(#paa288debe5)" style="fill: none"/>
   </g>
   <g id="patch_6">
    <path d="M 101.7 115.344 
L 124.02 115.344 
L 124.02 61.155845 
L 101.7 61.155845 
L 101.7 115.344 
z
" clip-path="url(#paa288debe5)" style="fill: none"/>
   </g>
   <g id="patch_7">
    <path d="M 45.9 115.344 
L 45.9 115.344 
L 45.9 115.344 
L 45.9 115.344 
z
" clip-path="url(#paa288debe5)" style="fill: #3274a1"/>
   </g>
   <g id="patch_8">
    <path d="M 45.9 115.344 
L 45.9 115.344 
L 45.9 115.344 
L 45.9 115.344 
z
" clip-path="url(#paa288debe5)" style="fill: #e1812c"/>
   </g>
   <g id="matplotlib.axis_1">
    <g id="xtick_1">
     <g id="line2d_1">
      <defs>
       <path id="mfdeaf6a06c" d="M 0 0 
L 0 3.5 
" style="stroke: #000000"/>
      </defs>
      <g>
       <use xlink:href="#mfdeaf6a06c" x="45.9" y="115.344" style="stroke: #000000"/>
      </g>
     </g>
     <g id="text_1">
      <!-- HC -->
      <g transform="translate(38.678125 129.501812) scale(0.1 -0.1)">
       <defs>
        <path id="ArialMT-48" d="M 513 0 
L 513 4581 
L 1119 4581 
L 1119 2700 
L 3500 2700 
L 3500 4581 
L 4106 4581 
L 4106 0 
L 3500 0 
L 3500 2159 
L 1119 2159 
L 1119 0 
L 513 0 
z
" transform="scale(0.015625)"/>
        <path id="ArialMT-43" d="M 3763 1606 
L 4369 1453 
Q 4178 706 3683 314 
Q 3188 -78 2472 -78 
Q 1731 -78 1267 223 
Q 803 525 561 1097 
Q 319 1669 319 2325 
Q 319 3041 592 3573 
Q 866 4106 1370 4382 
Q 1875 4659 2481 4659 
Q 3169 4659 3637 4309 
Q 4106 3959 4291 3325 
L 3694 3184 
Q 3534 3684 3231 3912 
Q 2928 4141 2469 4141 
Q 1941 4141 1586 3887 
Q 1231 3634 1087 3207 
Q 944 2781 944 2328 
Q 944 1744 1114 1308 
Q 1284 872 1643 656 
Q 2003 441 2422 441 
Q 2931 441 3284 734 
Q 3638 1028 3763 1606 
z
" transform="scale(0.015625)"/>
       </defs>
       <use xlink:href="#ArialMT-48"/>
       <use xlink:href="#ArialMT-43" x="72.216797"/>
      </g>
     </g>
    </g>
    <g id="xtick_2">
     <g id="line2d_2">
      <g>
       <use xlink:href="#mfdeaf6a06c" x="101.7" y="115.344" style="stroke: #000000"/>
      </g>
     </g>
     <g id="text_2">
      <!-- ND -->
      <g transform="translate(94.478125 129.501812) scale(0.1 -0.1)">
       <defs>
        <path id="ArialMT-4e" d="M 488 0 
L 488 4581 
L 1109 4581 
L 3516 984 
L 3516 4581 
L 4097 4581 
L 4097 0 
L 3475 0 
L 1069 3600 
L 1069 0 
L 488 0 
z
" transform="scale(0.015625)"/>
        <path id="ArialMT-44" d="M 494 0 
L 494 4581 
L 2072 4581 
Q 2606 4581 2888 4516 
Q 3281 4425 3559 4188 
Q 3922 3881 4101 3404 
Q 4281 2928 4281 2316 
Q 4281 1794 4159 1391 
Q 4038 988 3847 723 
Q 3656 459 3429 307 
Q 3203 156 2883 78 
Q 2563 0 2147 0 
L 494 0 
z
M 1100 541 
L 2078 541 
Q 2531 541 2789 625 
Q 3047 709 3200 863 
Q 3416 1078 3536 1442 
Q 3656 1806 3656 2325 
Q 3656 3044 3420 3430 
Q 3184 3816 2847 3947 
Q 2603 4041 2063 4041 
L 1100 4041 
L 1100 541 
z
" transform="scale(0.015625)"/>
       </defs>
       <use xlink:href="#ArialMT-4e"/>
       <use xlink:href="#ArialMT-44" x="72.216797"/>
      </g>
     </g>
    </g>
   </g>
   <g id="matplotlib.axis_2">
    <g id="ytick_1">
     <g id="line2d_3">
      <defs>
       <path id="mf6a690a3c7" d="M 0 0 
L -3.5 0 
" style="stroke: #000000"/>
      </defs>
      <g>
       <use xlink:href="#mf6a690a3c7" x="18" y="115.344" style="stroke: #000000"/>
      </g>
     </g>
     <g id="text_3">
      <!-- 0.0 -->
      <g transform="translate(-2.9 118.922906) scale(0.1 -0.1)">
       <defs>
        <path id="ArialMT-30" d="M 266 2259 
Q 266 3072 433 3567 
Q 600 4063 929 4331 
Q 1259 4600 1759 4600 
Q 2128 4600 2406 4451 
Q 2684 4303 2865 4023 
Q 3047 3744 3150 3342 
Q 3253 2941 3253 2259 
Q 3253 1453 3087 958 
Q 2922 463 2592 192 
Q 2263 -78 1759 -78 
Q 1097 -78 719 397 
Q 266 969 266 2259 
z
M 844 2259 
Q 844 1131 1108 757 
Q 1372 384 1759 384 
Q 2147 384 2411 759 
Q 2675 1134 2675 2259 
Q 2675 3391 2411 3762 
Q 2147 4134 1753 4134 
Q 1366 4134 1134 3806 
Q 844 3388 844 2259 
z
" transform="scale(0.015625)"/>
        <path id="ArialMT-2e" d="M 581 0 
L 581 641 
L 1222 641 
L 1222 0 
L 581 0 
z
" transform="scale(0.015625)"/>
       </defs>
       <use xlink:href="#ArialMT-30"/>
       <use xlink:href="#ArialMT-2e" x="55.615234"/>
       <use xlink:href="#ArialMT-30" x="83.398438"/>
      </g>
     </g>
    </g>
    <g id="ytick_2">
     <g id="line2d_4">
      <g>
       <use xlink:href="#mf6a690a3c7" x="18" y="87.186183" style="stroke: #000000"/>
      </g>
     </g>
     <g id="text_4">
      <!-- 0.2 -->
      <g transform="translate(-2.9 90.765089) scale(0.1 -0.1)">
       <defs>
        <path id="ArialMT-32" d="M 3222 541 
L 3222 0 
L 194 0 
Q 188 203 259 391 
Q 375 700 629 1000 
Q 884 1300 1366 1694 
Q 2113 2306 2375 2664 
Q 2638 3022 2638 3341 
Q 2638 3675 2398 3904 
Q 2159 4134 1775 4134 
Q 1369 4134 1125 3890 
Q 881 3647 878 3216 
L 300 3275 
Q 359 3922 746 4261 
Q 1134 4600 1788 4600 
Q 2447 4600 2831 4234 
Q 3216 3869 3216 3328 
Q 3216 3053 3103 2787 
Q 2991 2522 2730 2228 
Q 2469 1934 1863 1422 
Q 1356 997 1212 845 
Q 1069 694 975 541 
L 3222 541 
z
" transform="scale(0.015625)"/>
       </defs>
       <use xlink:href="#ArialMT-30"/>
       <use xlink:href="#ArialMT-2e" x="55.615234"/>
       <use xlink:href="#ArialMT-32" x="83.398438"/>
      </g>
     </g>
    </g>
    <g id="ytick_3">
     <g id="line2d_5">
      <g>
       <use xlink:href="#mf6a690a3c7" x="18" y="59.028366" style="stroke: #000000"/>
      </g>
     </g>
     <g id="text_5">
      <!-- 0.4 -->
      <g transform="translate(-2.9 62.607272) scale(0.1 -0.1)">
       <defs>
        <path id="ArialMT-34" d="M 2069 0 
L 2069 1097 
L 81 1097 
L 81 1613 
L 2172 4581 
L 2631 4581 
L 2631 1613 
L 3250 1613 
L 3250 1097 
L 2631 1097 
L 2631 0 
L 2069 0 
z
M 2069 1613 
L 2069 3678 
L 634 1613 
L 2069 1613 
z
" transform="scale(0.015625)"/>
       </defs>
       <use xlink:href="#ArialMT-30"/>
       <use xlink:href="#ArialMT-2e" x="55.615234"/>
       <use xlink:href="#ArialMT-34" x="83.398438"/>
      </g>
     </g>
    </g>
    <g id="ytick_4">
     <g id="line2d_6">
      <g>
       <use xlink:href="#mf6a690a3c7" x="18" y="30.870548" style="stroke: #000000"/>
      </g>
     </g>
     <g id="text_6">
      <!-- 0.6 -->
      <g transform="translate(-2.9 34.449455) scale(0.1 -0.1)">
       <defs>
        <path id="ArialMT-36" d="M 3184 3459 
L 2625 3416 
Q 2550 3747 2413 3897 
Q 2184 4138 1850 4138 
Q 1581 4138 1378 3988 
Q 1113 3794 959 3422 
Q 806 3050 800 2363 
Q 1003 2672 1297 2822 
Q 1591 2972 1913 2972 
Q 2475 2972 2870 2558 
Q 3266 2144 3266 1488 
Q 3266 1056 3080 686 
Q 2894 316 2569 119 
Q 2244 -78 1831 -78 
Q 1128 -78 684 439 
Q 241 956 241 2144 
Q 241 3472 731 4075 
Q 1159 4600 1884 4600 
Q 2425 4600 2770 4297 
Q 3116 3994 3184 3459 
z
M 888 1484 
Q 888 1194 1011 928 
Q 1134 663 1356 523 
Q 1578 384 1822 384 
Q 2178 384 2434 671 
Q 2691 959 2691 1453 
Q 2691 1928 2437 2201 
Q 2184 2475 1800 2475 
Q 1419 2475 1153 2201 
Q 888 1928 888 1484 
z
" transform="scale(0.015625)"/>
       </defs>
       <use xlink:href="#ArialMT-30"/>
       <use xlink:href="#ArialMT-2e" x="55.615234"/>
       <use xlink:href="#ArialMT-36" x="83.398438"/>
      </g>
     </g>
    </g>
    <g id="text_7">
     <!-- best choice rate_pun -->
     <g transform="translate(-8.8875 111.865187) rotate(-90) scale(0.1 -0.1)">
      <defs>
       <path id="ArialMT-62" d="M 941 0 
L 419 0 
L 419 4581 
L 981 4581 
L 981 2947 
Q 1338 3394 1891 3394 
Q 2197 3394 2470 3270 
Q 2744 3147 2920 2923 
Q 3097 2700 3197 2384 
Q 3297 2069 3297 1709 
Q 3297 856 2875 390 
Q 2453 -75 1863 -75 
Q 1275 -75 941 416 
L 941 0 
z
M 934 1684 
Q 934 1088 1097 822 
Q 1363 388 1816 388 
Q 2184 388 2453 708 
Q 2722 1028 2722 1663 
Q 2722 2313 2464 2622 
Q 2206 2931 1841 2931 
Q 1472 2931 1203 2611 
Q 934 2291 934 1684 
z
" transform="scale(0.015625)"/>
       <path id="ArialMT-65" d="M 2694 1069 
L 3275 997 
Q 3138 488 2766 206 
Q 2394 -75 1816 -75 
Q 1088 -75 661 373 
Q 234 822 234 1631 
Q 234 2469 665 2931 
Q 1097 3394 1784 3394 
Q 2450 3394 2872 2941 
Q 3294 2488 3294 1666 
Q 3294 1616 3291 1516 
L 816 1516 
Q 847 969 1125 678 
Q 1403 388 1819 388 
Q 2128 388 2347 550 
Q 2566 713 2694 1069 
z
M 847 1978 
L 2700 1978 
Q 2663 2397 2488 2606 
Q 2219 2931 1791 2931 
Q 1403 2931 1139 2672 
Q 875 2413 847 1978 
z
" transform="scale(0.015625)"/>
       <path id="ArialMT-73" d="M 197 991 
L 753 1078 
Q 800 744 1014 566 
Q 1228 388 1613 388 
Q 2000 388 2187 545 
Q 2375 703 2375 916 
Q 2375 1106 2209 1216 
Q 2094 1291 1634 1406 
Q 1016 1563 777 1677 
Q 538 1791 414 1992 
Q 291 2194 291 2438 
Q 291 2659 392 2848 
Q 494 3038 669 3163 
Q 800 3259 1026 3326 
Q 1253 3394 1513 3394 
Q 1903 3394 2198 3281 
Q 2494 3169 2634 2976 
Q 2775 2784 2828 2463 
L 2278 2388 
Q 2241 2644 2061 2787 
Q 1881 2931 1553 2931 
Q 1166 2931 1000 2803 
Q 834 2675 834 2503 
Q 834 2394 903 2306 
Q 972 2216 1119 2156 
Q 1203 2125 1616 2013 
Q 2213 1853 2448 1751 
Q 2684 1650 2818 1456 
Q 2953 1263 2953 975 
Q 2953 694 2789 445 
Q 2625 197 2315 61 
Q 2006 -75 1616 -75 
Q 969 -75 630 194 
Q 291 463 197 991 
z
" transform="scale(0.015625)"/>
       <path id="ArialMT-74" d="M 1650 503 
L 1731 6 
Q 1494 -44 1306 -44 
Q 1000 -44 831 53 
Q 663 150 594 308 
Q 525 466 525 972 
L 525 2881 
L 113 2881 
L 113 3319 
L 525 3319 
L 525 4141 
L 1084 4478 
L 1084 3319 
L 1650 3319 
L 1650 2881 
L 1084 2881 
L 1084 941 
Q 1084 700 1114 631 
Q 1144 563 1211 522 
Q 1278 481 1403 481 
Q 1497 481 1650 503 
z
" transform="scale(0.015625)"/>
       <path id="ArialMT-20" transform="scale(0.015625)"/>
       <path id="ArialMT-63" d="M 2588 1216 
L 3141 1144 
Q 3050 572 2676 248 
Q 2303 -75 1759 -75 
Q 1078 -75 664 370 
Q 250 816 250 1647 
Q 250 2184 428 2587 
Q 606 2991 970 3192 
Q 1334 3394 1763 3394 
Q 2303 3394 2647 3120 
Q 2991 2847 3088 2344 
L 2541 2259 
Q 2463 2594 2264 2762 
Q 2066 2931 1784 2931 
Q 1359 2931 1093 2626 
Q 828 2322 828 1663 
Q 828 994 1084 691 
Q 1341 388 1753 388 
Q 2084 388 2306 591 
Q 2528 794 2588 1216 
z
" transform="scale(0.015625)"/>
       <path id="ArialMT-68" d="M 422 0 
L 422 4581 
L 984 4581 
L 984 2938 
Q 1378 3394 1978 3394 
Q 2347 3394 2619 3248 
Q 2891 3103 3008 2847 
Q 3125 2591 3125 2103 
L 3125 0 
L 2563 0 
L 2563 2103 
Q 2563 2525 2380 2717 
Q 2197 2909 1863 2909 
Q 1613 2909 1392 2779 
Q 1172 2650 1078 2428 
Q 984 2206 984 1816 
L 984 0 
L 422 0 
z
" transform="scale(0.015625)"/>
       <path id="ArialMT-6f" d="M 213 1659 
Q 213 2581 725 3025 
Q 1153 3394 1769 3394 
Q 2453 3394 2887 2945 
Q 3322 2497 3322 1706 
Q 3322 1066 3130 698 
Q 2938 331 2570 128 
Q 2203 -75 1769 -75 
Q 1072 -75 642 372 
Q 213 819 213 1659 
z
M 791 1659 
Q 791 1022 1069 705 
Q 1347 388 1769 388 
Q 2188 388 2466 706 
Q 2744 1025 2744 1678 
Q 2744 2294 2464 2611 
Q 2184 2928 1769 2928 
Q 1347 2928 1069 2612 
Q 791 2297 791 1659 
z
" transform="scale(0.015625)"/>
       <path id="ArialMT-69" d="M 425 3934 
L 425 4581 
L 988 4581 
L 988 3934 
L 425 3934 
z
M 425 0 
L 425 3319 
L 988 3319 
L 988 0 
L 425 0 
z
" transform="scale(0.015625)"/>
       <path id="ArialMT-72" d="M 416 0 
L 416 3319 
L 922 3319 
L 922 2816 
Q 1116 3169 1280 3281 
Q 1444 3394 1641 3394 
Q 1925 3394 2219 3213 
L 2025 2691 
Q 1819 2813 1613 2813 
Q 1428 2813 1281 2702 
Q 1134 2591 1072 2394 
Q 978 2094 978 1738 
L 978 0 
L 416 0 
z
" transform="scale(0.015625)"/>
       <path id="ArialMT-61" d="M 2588 409 
Q 2275 144 1986 34 
Q 1697 -75 1366 -75 
Q 819 -75 525 192 
Q 231 459 231 875 
Q 231 1119 342 1320 
Q 453 1522 633 1644 
Q 813 1766 1038 1828 
Q 1203 1872 1538 1913 
Q 2219 1994 2541 2106 
Q 2544 2222 2544 2253 
Q 2544 2597 2384 2738 
Q 2169 2928 1744 2928 
Q 1347 2928 1158 2789 
Q 969 2650 878 2297 
L 328 2372 
Q 403 2725 575 2942 
Q 747 3159 1072 3276 
Q 1397 3394 1825 3394 
Q 2250 3394 2515 3294 
Q 2781 3194 2906 3042 
Q 3031 2891 3081 2659 
Q 3109 2516 3109 2141 
L 3109 1391 
Q 3109 606 3145 398 
Q 3181 191 3288 0 
L 2700 0 
Q 2613 175 2588 409 
z
M 2541 1666 
Q 2234 1541 1622 1453 
Q 1275 1403 1131 1340 
Q 988 1278 909 1158 
Q 831 1038 831 891 
Q 831 666 1001 516 
Q 1172 366 1500 366 
Q 1825 366 2078 508 
Q 2331 650 2450 897 
Q 2541 1088 2541 1459 
L 2541 1666 
z
" transform="scale(0.015625)"/>
       <path id="ArialMT-5f" d="M -97 -1272 
L -97 -866 
L 3631 -866 
L 3631 -1272 
L -97 -1272 
z
" transform="scale(0.015625)"/>
       <path id="ArialMT-70" d="M 422 -1272 
L 422 3319 
L 934 3319 
L 934 2888 
Q 1116 3141 1344 3267 
Q 1572 3394 1897 3394 
Q 2322 3394 2647 3175 
Q 2972 2956 3137 2557 
Q 3303 2159 3303 1684 
Q 3303 1175 3120 767 
Q 2938 359 2589 142 
Q 2241 -75 1856 -75 
Q 1575 -75 1351 44 
Q 1128 163 984 344 
L 984 -1272 
L 422 -1272 
z
M 931 1641 
Q 931 1000 1190 694 
Q 1450 388 1819 388 
Q 2194 388 2461 705 
Q 2728 1022 2728 1688 
Q 2728 2322 2467 2637 
Q 2206 2953 1844 2953 
Q 1484 2953 1207 2617 
Q 931 2281 931 1641 
z
" transform="scale(0.015625)"/>
       <path id="ArialMT-75" d="M 2597 0 
L 2597 488 
Q 2209 -75 1544 -75 
Q 1250 -75 995 37 
Q 741 150 617 320 
Q 494 491 444 738 
Q 409 903 409 1263 
L 409 3319 
L 972 3319 
L 972 1478 
Q 972 1038 1006 884 
Q 1059 663 1231 536 
Q 1403 409 1656 409 
Q 1909 409 2131 539 
Q 2353 669 2445 892 
Q 2538 1116 2538 1541 
L 2538 3319 
L 3100 3319 
L 3100 0 
L 2597 0 
z
" transform="scale(0.015625)"/>
       <path id="ArialMT-6e" d="M 422 0 
L 422 3319 
L 928 3319 
L 928 2847 
Q 1294 3394 1984 3394 
Q 2284 3394 2536 3286 
Q 2788 3178 2913 3003 
Q 3038 2828 3088 2588 
Q 3119 2431 3119 2041 
L 3119 0 
L 2556 0 
L 2556 2019 
Q 2556 2363 2490 2533 
Q 2425 2703 2258 2804 
Q 2091 2906 1866 2906 
Q 1506 2906 1245 2678 
Q 984 2450 984 1813 
L 984 0 
L 422 0 
z
" transform="scale(0.015625)"/>
      </defs>
      <use xlink:href="#ArialMT-62"/>
      <use xlink:href="#ArialMT-65" x="55.615234"/>
      <use xlink:href="#ArialMT-73" x="111.230469"/>
      <use xlink:href="#ArialMT-74" x="161.230469"/>
      <use xlink:href="#ArialMT-20" x="189.013672"/>
      <use xlink:href="#ArialMT-63" x="216.796875"/>
      <use xlink:href="#ArialMT-68" x="266.796875"/>
      <use xlink:href="#ArialMT-6f" x="322.412109"/>
      <use xlink:href="#ArialMT-69" x="378.027344"/>
      <use xlink:href="#ArialMT-63" x="400.244141"/>
      <use xlink:href="#ArialMT-65" x="450.244141"/>
      <use xlink:href="#ArialMT-20" x="505.859375"/>
      <use xlink:href="#ArialMT-72" x="533.642578"/>
      <use xlink:href="#ArialMT-61" x="566.943359"/>
      <use xlink:href="#ArialMT-74" x="622.558594"/>
      <use xlink:href="#ArialMT-65" x="650.341797"/>
      <use xlink:href="#ArialMT-5f" x="705.957031"/>
      <use xlink:href="#ArialMT-70" x="761.572266"/>
      <use xlink:href="#ArialMT-75" x="817.1875"/>
      <use xlink:href="#ArialMT-6e" x="872.802734"/>
     </g>
    </g>
   </g>
   <g id="PathCollection_1">
    <defs>
     <path id="C0_0_6b35dd15b3" d="M 0 3.5 
C 0.928211 3.5 1.81853 3.131218 2.474874 2.474874 
C 3.131218 1.81853 3.5 0.928211 3.5 -0 
C 3.5 -0.928211 3.131218 -1.81853 2.474874 -2.474874 
C 1.81853 -3.131218 0.928211 -3.5 0 -3.5 
C -0.928211 -3.5 -1.81853 -3.131218 -2.474874 -2.474874 
C -3.131218 -1.81853 -3.5 -0.928211 -3.5 0 
C -3.5 0.928211 -3.131218 1.81853 -2.474874 2.474874 
C -1.81853 3.131218 -0.928211 3.5 0 3.5 
z
"/>
    </defs>
    <g clip-path="url(#paa288debe5)">
     <use xlink:href="#C0_0_6b35dd15b3" x="36.198453" y="67.475711" style="fill: #174263; fill-opacity: 0.45"/>
    </g>
    <g clip-path="url(#paa288debe5)">
     <use xlink:href="#C0_0_6b35dd15b3" x="32.9119" y="49.17313" style="fill: #174263; fill-opacity: 0.45"/>
    </g>
    <g clip-path="url(#paa288debe5)">
     <use xlink:href="#C0_0_6b35dd15b3" x="34.605577" y="54.804693" style="fill: #174263; fill-opacity: 0.45"/>
    </g>
    <g clip-path="url(#paa288debe5)">
     <use xlink:href="#C0_0_6b35dd15b3" x="33.506028" y="44.949457" style="fill: #174263; fill-opacity: 0.45"/>
    </g>
    <g clip-path="url(#paa288debe5)">
     <use xlink:href="#C0_0_6b35dd15b3" x="37.128408" y="75.923056" style="fill: #174263; fill-opacity: 0.45"/>
    </g>
    <g clip-path="url(#paa288debe5)">
     <use xlink:href="#C0_0_6b35dd15b3" x="32.586072" y="57.620475" style="fill: #174263; fill-opacity: 0.45"/>
    </g>
    <g clip-path="url(#paa288debe5)">
     <use xlink:href="#C0_0_6b35dd15b3" x="32.185449" y="67.475711" style="fill: #174263; fill-opacity: 0.45"/>
    </g>
    <g clip-path="url(#paa288debe5)">
     <use xlink:href="#C0_0_6b35dd15b3" x="36.493974" y="70.291493" style="fill: #174263; fill-opacity: 0.45"/>
    </g>
    <g clip-path="url(#paa288debe5)">
     <use xlink:href="#C0_0_6b35dd15b3" x="32.907592" y="63.252038" style="fill: #174263; fill-opacity: 0.45"/>
    </g>
    <g clip-path="url(#paa288debe5)">
     <use xlink:href="#C0_0_6b35dd15b3" x="32.410829" y="66.06782" style="fill: #174263; fill-opacity: 0.45"/>
    </g>
    <g clip-path="url(#paa288debe5)">
     <use xlink:href="#C0_0_6b35dd15b3" x="36.008021" y="67.475711" style="fill: #174263; fill-opacity: 0.45"/>
    </g>
    <g clip-path="url(#paa288debe5)">
     <use xlink:href="#C0_0_6b35dd15b3" x="35.951395" y="74.515165" style="fill: #174263; fill-opacity: 0.45"/>
    </g>
    <g clip-path="url(#paa288debe5)">
     <use xlink:href="#C0_0_6b35dd15b3" x="33.214236" y="60.436256" style="fill: #174263; fill-opacity: 0.45"/>
    </g>
    <g clip-path="url(#paa288debe5)">
     <use xlink:href="#C0_0_6b35dd15b3" x="32.086064" y="66.06782" style="fill: #174263; fill-opacity: 0.45"/>
    </g>
    <g clip-path="url(#paa288debe5)">
     <use xlink:href="#C0_0_6b35dd15b3" x="33.338219" y="63.252038" style="fill: #174263; fill-opacity: 0.45"/>
    </g>
    <g clip-path="url(#paa288debe5)">
     <use xlink:href="#C0_0_6b35dd15b3" x="37.026733" y="59.028366" style="fill: #174263; fill-opacity: 0.45"/>
    </g>
    <g clip-path="url(#paa288debe5)">
     <use xlink:href="#C0_0_6b35dd15b3" x="36.332116" y="54.804693" style="fill: #174263; fill-opacity: 0.45"/>
    </g>
    <g clip-path="url(#paa288debe5)">
     <use xlink:href="#C0_0_6b35dd15b3" x="34.702553" y="49.17313" style="fill: #174263; fill-opacity: 0.45"/>
    </g>
    <g clip-path="url(#paa288debe5)">
     <use xlink:href="#C0_0_6b35dd15b3" x="32.624828" y="63.252038" style="fill: #174263; fill-opacity: 0.45"/>
    </g>
    <g clip-path="url(#paa288debe5)">
     <use xlink:href="#C0_0_6b35dd15b3" x="35.837702" y="70.291493" style="fill: #174263; fill-opacity: 0.45"/>
    </g>
    <g clip-path="url(#paa288debe5)">
     <use xlink:href="#C0_0_6b35dd15b3" x="34.378313" y="73.107274" style="fill: #174263; fill-opacity: 0.45"/>
    </g>
    <g clip-path="url(#paa288debe5)">
     <use xlink:href="#C0_0_6b35dd15b3" x="33.019009" y="64.659929" style="fill: #174263; fill-opacity: 0.45"/>
    </g>
    <g clip-path="url(#paa288debe5)">
     <use xlink:href="#C0_0_6b35dd15b3" x="36.113406" y="64.659929" style="fill: #174263; fill-opacity: 0.45"/>
    </g>
    <g clip-path="url(#paa288debe5)">
     <use xlink:href="#C0_0_6b35dd15b3" x="35.607238" y="67.475711" style="fill: #174263; fill-opacity: 0.45"/>
    </g>
    <g clip-path="url(#paa288debe5)">
     <use xlink:href="#C0_0_6b35dd15b3" x="32.568871" y="74.515165" style="fill: #174263; fill-opacity: 0.45"/>
    </g>
    <g clip-path="url(#paa288debe5)">
     <use xlink:href="#C0_0_6b35dd15b3" x="33.107295" y="54.804693" style="fill: #174263; fill-opacity: 0.45"/>
    </g>
    <g clip-path="url(#paa288debe5)">
     <use xlink:href="#C0_0_6b35dd15b3" x="33.319525" y="61.844147" style="fill: #174263; fill-opacity: 0.45"/>
    </g>
    <g clip-path="url(#paa288debe5)">
     <use xlink:href="#C0_0_6b35dd15b3" x="32.478945" y="49.17313" style="fill: #174263; fill-opacity: 0.45"/>
    </g>
    <g clip-path="url(#paa288debe5)">
     <use xlink:href="#C0_0_6b35dd15b3" x="34.440044" y="66.06782" style="fill: #174263; fill-opacity: 0.45"/>
    </g>
    <g clip-path="url(#paa288debe5)">
     <use xlink:href="#C0_0_6b35dd15b3" x="34.162428" y="42.133675" style="fill: #174263; fill-opacity: 0.45"/>
    </g>
    <g clip-path="url(#paa288debe5)">
     <use xlink:href="#C0_0_6b35dd15b3" x="32.420091" y="40.725784" style="fill: #174263; fill-opacity: 0.45"/>
    </g>
    <g clip-path="url(#paa288debe5)">
     <use xlink:href="#C0_0_6b35dd15b3" x="37.152521" y="73.107274" style="fill: #174263; fill-opacity: 0.45"/>
    </g>
    <g clip-path="url(#paa288debe5)">
     <use xlink:href="#C0_0_6b35dd15b3" x="36.220834" y="54.804693" style="fill: #174263; fill-opacity: 0.45"/>
    </g>
    <g clip-path="url(#paa288debe5)">
     <use xlink:href="#C0_0_6b35dd15b3" x="33.655138" y="54.804693" style="fill: #174263; fill-opacity: 0.45"/>
    </g>
    <g clip-path="url(#paa288debe5)">
     <use xlink:href="#C0_0_6b35dd15b3" x="32.489427" y="59.028366" style="fill: #174263; fill-opacity: 0.45"/>
    </g>
    <g clip-path="url(#paa288debe5)">
     <use xlink:href="#C0_0_6b35dd15b3" x="34.418263" y="47.765239" style="fill: #174263; fill-opacity: 0.45"/>
    </g>
    <g clip-path="url(#paa288debe5)">
     <use xlink:href="#C0_0_6b35dd15b3" x="37.457313" y="80.146729" style="fill: #174263; fill-opacity: 0.45"/>
    </g>
    <g clip-path="url(#paa288debe5)">
     <use xlink:href="#C0_0_6b35dd15b3" x="36.806" y="59.028366" style="fill: #174263; fill-opacity: 0.45"/>
    </g>
   </g>
   <g id="PathCollection_2">
    <defs>
     <path id="C1_0_831739b583" d="M 0 3.5 
C 0.928211 3.5 1.81853 3.131218 2.474874 2.474874 
C 3.131218 1.81853 3.5 0.928211 3.5 -0 
C 3.5 -0.928211 3.131218 -1.81853 2.474874 -2.474874 
C 1.81853 -3.131218 0.928211 -3.5 0 -3.5 
C -0.928211 -3.5 -1.81853 -3.131218 -2.474874 -2.474874 
C -3.131218 -1.81853 -3.5 -0.928211 -3.5 0 
C -3.5 0.928211 -3.131218 1.81853 -2.474874 2.474874 
C -1.81853 3.131218 -0.928211 3.5 0 3.5 
z
"/>
    </defs>
    <g clip-path="url(#paa288debe5)">
     <use xlink:href="#C1_0_831739b583" x="56.438725" y="53.396802" style="fill: #d75728; fill-opacity: 0.45"/>
    </g>
    <g clip-path="url(#paa288debe5)">
     <use xlink:href="#C1_0_831739b583" x="56.925979" y="50.58102" style="fill: #d75728; fill-opacity: 0.45"/>
    </g>
    <g clip-path="url(#paa288debe5)">
     <use xlink:href="#C1_0_831739b583" x="59.22991" y="54.804693" style="fill: #d75728; fill-opacity: 0.45"/>
    </g>
    <g clip-path="url(#paa288debe5)">
     <use xlink:href="#C1_0_831739b583" x="59.186112" y="56.212584" style="fill: #d75728; fill-opacity: 0.45"/>
    </g>
    <g clip-path="url(#paa288debe5)">
     <use xlink:href="#C1_0_831739b583" x="56.799488" y="67.475711" style="fill: #d75728; fill-opacity: 0.45"/>
    </g>
    <g clip-path="url(#paa288debe5)">
     <use xlink:href="#C1_0_831739b583" x="58.931503" y="64.659929" style="fill: #d75728; fill-opacity: 0.45"/>
    </g>
    <g clip-path="url(#paa288debe5)">
     <use xlink:href="#C1_0_831739b583" x="59.081775" y="50.58102" style="fill: #d75728; fill-opacity: 0.45"/>
    </g>
    <g clip-path="url(#paa288debe5)">
     <use xlink:href="#C1_0_831739b583" x="59.843836" y="54.804693" style="fill: #d75728; fill-opacity: 0.45"/>
    </g>
    <g clip-path="url(#paa288debe5)">
     <use xlink:href="#C1_0_831739b583" x="59.008512" y="60.436256" style="fill: #d75728; fill-opacity: 0.45"/>
    </g>
    <g clip-path="url(#paa288debe5)">
     <use xlink:href="#C1_0_831739b583" x="55.071264" y="47.765239" style="fill: #d75728; fill-opacity: 0.45"/>
    </g>
    <g clip-path="url(#paa288debe5)">
     <use xlink:href="#C1_0_831739b583" x="54.685158" y="67.475711" style="fill: #d75728; fill-opacity: 0.45"/>
    </g>
    <g clip-path="url(#paa288debe5)">
     <use xlink:href="#C1_0_831739b583" x="58.390267" y="61.844147" style="fill: #d75728; fill-opacity: 0.45"/>
    </g>
    <g clip-path="url(#paa288debe5)">
     <use xlink:href="#C1_0_831739b583" x="56.598471" y="42.133675" style="fill: #d75728; fill-opacity: 0.45"/>
    </g>
    <g clip-path="url(#paa288debe5)">
     <use xlink:href="#C1_0_831739b583" x="59.244216" y="49.17313" style="fill: #d75728; fill-opacity: 0.45"/>
    </g>
    <g clip-path="url(#paa288debe5)">
     <use xlink:href="#C1_0_831739b583" x="58.617151" y="66.06782" style="fill: #d75728; fill-opacity: 0.45"/>
    </g>
    <g clip-path="url(#paa288debe5)">
     <use xlink:href="#C1_0_831739b583" x="59.55527" y="59.028366" style="fill: #d75728; fill-opacity: 0.45"/>
    </g>
    <g clip-path="url(#paa288debe5)">
     <use xlink:href="#C1_0_831739b583" x="55.464786" y="51.988911" style="fill: #d75728; fill-opacity: 0.45"/>
    </g>
    <g clip-path="url(#paa288debe5)">
     <use xlink:href="#C1_0_831739b583" x="55.42471" y="61.844147" style="fill: #d75728; fill-opacity: 0.45"/>
    </g>
    <g clip-path="url(#paa288debe5)">
     <use xlink:href="#C1_0_831739b583" x="57.904749" y="49.17313" style="fill: #d75728; fill-opacity: 0.45"/>
    </g>
    <g clip-path="url(#paa288debe5)">
     <use xlink:href="#C1_0_831739b583" x="59.142285" y="57.620475" style="fill: #d75728; fill-opacity: 0.45"/>
    </g>
    <g clip-path="url(#paa288debe5)">
     <use xlink:href="#C1_0_831739b583" x="54.973995" y="49.17313" style="fill: #d75728; fill-opacity: 0.45"/>
    </g>
    <g clip-path="url(#paa288debe5)">
     <use xlink:href="#C1_0_831739b583" x="58.803668" y="47.765239" style="fill: #d75728; fill-opacity: 0.45"/>
    </g>
    <g clip-path="url(#paa288debe5)">
     <use xlink:href="#C1_0_831739b583" x="56.043941" y="57.620475" style="fill: #d75728; fill-opacity: 0.45"/>
    </g>
    <g clip-path="url(#paa288debe5)">
     <use xlink:href="#C1_0_831739b583" x="59.123491" y="50.58102" style="fill: #d75728; fill-opacity: 0.45"/>
    </g>
    <g clip-path="url(#paa288debe5)">
     <use xlink:href="#C1_0_831739b583" x="58.820871" y="73.107274" style="fill: #d75728; fill-opacity: 0.45"/>
    </g>
    <g clip-path="url(#paa288debe5)">
     <use xlink:href="#C1_0_831739b583" x="54.58199" y="102.672982" style="fill: #d75728; fill-opacity: 0.45"/>
    </g>
    <g clip-path="url(#paa288debe5)">
     <use xlink:href="#C1_0_831739b583" x="58.734273" y="74.515165" style="fill: #d75728; fill-opacity: 0.45"/>
    </g>
    <g clip-path="url(#paa288debe5)">
     <use xlink:href="#C1_0_831739b583" x="55.894965" y="54.804693" style="fill: #d75728; fill-opacity: 0.45"/>
    </g>
    <g clip-path="url(#paa288debe5)">
     <use xlink:href="#C1_0_831739b583" x="58.808968" y="68.883602" style="fill: #d75728; fill-opacity: 0.45"/>
    </g>
    <g clip-path="url(#paa288debe5)">
     <use xlink:href="#C1_0_831739b583" x="54.838382" y="44.949457" style="fill: #d75728; fill-opacity: 0.45"/>
    </g>
    <g clip-path="url(#paa288debe5)">
     <use xlink:href="#C1_0_831739b583" x="58.599249" y="60.436256" style="fill: #d75728; fill-opacity: 0.45"/>
    </g>
    <g clip-path="url(#paa288debe5)">
     <use xlink:href="#C1_0_831739b583" x="58.34811" y="61.844147" style="fill: #d75728; fill-opacity: 0.45"/>
    </g>
    <g clip-path="url(#paa288debe5)">
     <use xlink:href="#C1_0_831739b583" x="55.761814" y="64.659929" style="fill: #d75728; fill-opacity: 0.45"/>
    </g>
    <g clip-path="url(#paa288debe5)">
     <use xlink:href="#C1_0_831739b583" x="55.65892" y="49.17313" style="fill: #d75728; fill-opacity: 0.45"/>
    </g>
    <g clip-path="url(#paa288debe5)">
     <use xlink:href="#C1_0_831739b583" x="58.538354" y="70.291493" style="fill: #d75728; fill-opacity: 0.45"/>
    </g>
    <g clip-path="url(#paa288debe5)">
     <use xlink:href="#C1_0_831739b583" x="59.325794" y="68.883602" style="fill: #d75728; fill-opacity: 0.45"/>
    </g>
    <g clip-path="url(#paa288debe5)">
     <use xlink:href="#C1_0_831739b583" x="59.476858" y="63.252038" style="fill: #d75728; fill-opacity: 0.45"/>
    </g>
    <g clip-path="url(#paa288debe5)">
     <use xlink:href="#C1_0_831739b583" x="57.19572" y="60.436256" style="fill: #d75728; fill-opacity: 0.45"/>
    </g>
   </g>
   <g id="PathCollection_3">
    <defs>
     <path id="C2_0_4be40fa293" d="M 0 3.5 
C 0.928211 3.5 1.81853 3.131218 2.474874 2.474874 
C 3.131218 1.81853 3.5 0.928211 3.5 -0 
C 3.5 -0.928211 3.131218 -1.81853 2.474874 -2.474874 
C 1.81853 -3.131218 0.928211 -3.5 0 -3.5 
C -0.928211 -3.5 -1.81853 -3.131218 -2.474874 -2.474874 
C -3.131218 -1.81853 -3.5 -0.928211 -3.5 0 
C -3.5 0.928211 -3.131218 1.81853 -2.474874 2.474874 
C -1.81853 3.131218 -0.928211 3.5 0 3.5 
z
"/>
    </defs>
    <g clip-path="url(#paa288debe5)">
     <use xlink:href="#C2_0_4be40fa293" x="88.679987" y="67.475711" style="fill: #174263; fill-opacity: 0.45"/>
    </g>
    <g clip-path="url(#paa288debe5)">
     <use xlink:href="#C2_0_4be40fa293" x="92.48926" y="66.06782" style="fill: #174263; fill-opacity: 0.45"/>
    </g>
    <g clip-path="url(#paa288debe5)">
     <use xlink:href="#C2_0_4be40fa293" x="89.093581" y="73.107274" style="fill: #174263; fill-opacity: 0.45"/>
    </g>
    <g clip-path="url(#paa288debe5)">
     <use xlink:href="#C2_0_4be40fa293" x="89.083305" y="73.107274" style="fill: #174263; fill-opacity: 0.45"/>
    </g>
    <g clip-path="url(#paa288debe5)">
     <use xlink:href="#C2_0_4be40fa293" x="89.044992" y="75.923056" style="fill: #174263; fill-opacity: 0.45"/>
    </g>
    <g clip-path="url(#paa288debe5)">
     <use xlink:href="#C2_0_4be40fa293" x="90.162986" y="70.291493" style="fill: #174263; fill-opacity: 0.45"/>
    </g>
    <g clip-path="url(#paa288debe5)">
     <use xlink:href="#C2_0_4be40fa293" x="92.949505" y="54.804693" style="fill: #174263; fill-opacity: 0.45"/>
    </g>
    <g clip-path="url(#paa288debe5)">
     <use xlink:href="#C2_0_4be40fa293" x="91.438929" y="63.252038" style="fill: #174263; fill-opacity: 0.45"/>
    </g>
    <g clip-path="url(#paa288debe5)">
     <use xlink:href="#C2_0_4be40fa293" x="88.200857" y="63.252038" style="fill: #174263; fill-opacity: 0.45"/>
    </g>
    <g clip-path="url(#paa288debe5)">
     <use xlink:href="#C2_0_4be40fa293" x="88.843172" y="64.659929" style="fill: #174263; fill-opacity: 0.45"/>
    </g>
    <g clip-path="url(#paa288debe5)">
     <use xlink:href="#C2_0_4be40fa293" x="91.263354" y="80.146729" style="fill: #174263; fill-opacity: 0.45"/>
    </g>
    <g clip-path="url(#paa288debe5)">
     <use xlink:href="#C2_0_4be40fa293" x="89.892429" y="60.436256" style="fill: #174263; fill-opacity: 0.45"/>
    </g>
    <g clip-path="url(#paa288debe5)">
     <use xlink:href="#C2_0_4be40fa293" x="90.501892" y="54.804693" style="fill: #174263; fill-opacity: 0.45"/>
    </g>
    <g clip-path="url(#paa288debe5)">
     <use xlink:href="#C2_0_4be40fa293" x="91.192368" y="67.475711" style="fill: #174263; fill-opacity: 0.45"/>
    </g>
    <g clip-path="url(#paa288debe5)">
     <use xlink:href="#C2_0_4be40fa293" x="91.543915" y="64.659929" style="fill: #174263; fill-opacity: 0.45"/>
    </g>
    <g clip-path="url(#paa288debe5)">
     <use xlink:href="#C2_0_4be40fa293" x="91.695394" y="44.949457" style="fill: #174263; fill-opacity: 0.45"/>
    </g>
    <g clip-path="url(#paa288debe5)">
     <use xlink:href="#C2_0_4be40fa293" x="91.10367" y="60.436256" style="fill: #174263; fill-opacity: 0.45"/>
    </g>
    <g clip-path="url(#paa288debe5)">
     <use xlink:href="#C2_0_4be40fa293" x="92.21978" y="75.923056" style="fill: #174263; fill-opacity: 0.45"/>
    </g>
    <g clip-path="url(#paa288debe5)">
     <use xlink:href="#C2_0_4be40fa293" x="91.30029" y="66.06782" style="fill: #174263; fill-opacity: 0.45"/>
    </g>
    <g clip-path="url(#paa288debe5)">
     <use xlink:href="#C2_0_4be40fa293" x="89.359391" y="53.396802" style="fill: #174263; fill-opacity: 0.45"/>
    </g>
    <g clip-path="url(#paa288debe5)">
     <use xlink:href="#C2_0_4be40fa293" x="91.408223" y="71.699383" style="fill: #174263; fill-opacity: 0.45"/>
    </g>
    <g clip-path="url(#paa288debe5)">
     <use xlink:href="#C2_0_4be40fa293" x="88.594311" y="80.146729" style="fill: #174263; fill-opacity: 0.45"/>
    </g>
    <g clip-path="url(#paa288debe5)">
     <use xlink:href="#C2_0_4be40fa293" x="90.778387" y="67.475711" style="fill: #174263; fill-opacity: 0.45"/>
    </g>
    <g clip-path="url(#paa288debe5)">
     <use xlink:href="#C2_0_4be40fa293" x="87.903776" y="63.252038" style="fill: #174263; fill-opacity: 0.45"/>
    </g>
    <g clip-path="url(#paa288debe5)">
     <use xlink:href="#C2_0_4be40fa293" x="88.246584" y="51.988911" style="fill: #174263; fill-opacity: 0.45"/>
    </g>
    <g clip-path="url(#paa288debe5)">
     <use xlink:href="#C2_0_4be40fa293" x="92.411221" y="30.870548" style="fill: #174263; fill-opacity: 0.45"/>
    </g>
    <g clip-path="url(#paa288debe5)">
     <use xlink:href="#C2_0_4be40fa293" x="90.661559" y="39.317894" style="fill: #174263; fill-opacity: 0.45"/>
    </g>
    <g clip-path="url(#paa288debe5)">
     <use xlink:href="#C2_0_4be40fa293" x="93.021081" y="73.107274" style="fill: #174263; fill-opacity: 0.45"/>
    </g>
    <g clip-path="url(#paa288debe5)">
     <use xlink:href="#C2_0_4be40fa293" x="92.238712" y="64.659929" style="fill: #174263; fill-opacity: 0.45"/>
    </g>
    <g clip-path="url(#paa288debe5)">
     <use xlink:href="#C2_0_4be40fa293" x="88.248359" y="57.620475" style="fill: #174263; fill-opacity: 0.45"/>
    </g>
    <g clip-path="url(#paa288debe5)">
     <use xlink:href="#C2_0_4be40fa293" x="88.081236" y="56.212584" style="fill: #174263; fill-opacity: 0.45"/>
    </g>
    <g clip-path="url(#paa288debe5)">
     <use xlink:href="#C2_0_4be40fa293" x="88.133591" y="63.252038" style="fill: #174263; fill-opacity: 0.45"/>
    </g>
    <g clip-path="url(#paa288debe5)">
     <use xlink:href="#C2_0_4be40fa293" x="91.115753" y="70.291493" style="fill: #174263; fill-opacity: 0.45"/>
    </g>
    <g clip-path="url(#paa288debe5)">
     <use xlink:href="#C2_0_4be40fa293" x="92.138056" y="51.988911" style="fill: #174263; fill-opacity: 0.45"/>
    </g>
    <g clip-path="url(#paa288debe5)">
     <use xlink:href="#C2_0_4be40fa293" x="89.524055" y="51.988911" style="fill: #174263; fill-opacity: 0.45"/>
    </g>
    <g clip-path="url(#paa288debe5)">
     <use xlink:href="#C2_0_4be40fa293" x="92.024089" y="49.17313" style="fill: #174263; fill-opacity: 0.45"/>
    </g>
    <g clip-path="url(#paa288debe5)">
     <use xlink:href="#C2_0_4be40fa293" x="92.13083" y="70.291493" style="fill: #174263; fill-opacity: 0.45"/>
    </g>
    <g clip-path="url(#paa288debe5)">
     <use xlink:href="#C2_0_4be40fa293" x="92.439865" y="44.949457" style="fill: #174263; fill-opacity: 0.45"/>
    </g>
    <g clip-path="url(#paa288debe5)">
     <use xlink:href="#C2_0_4be40fa293" x="90.389162" y="78.738838" style="fill: #174263; fill-opacity: 0.45"/>
    </g>
    <g clip-path="url(#paa288debe5)">
     <use xlink:href="#C2_0_4be40fa293" x="92.561825" y="64.659929" style="fill: #174263; fill-opacity: 0.45"/>
    </g>
    <g clip-path="url(#paa288debe5)">
     <use xlink:href="#C2_0_4be40fa293" x="91.489162" y="57.620475" style="fill: #174263; fill-opacity: 0.45"/>
    </g>
   </g>
   <g id="PathCollection_4">
    <defs>
     <path id="C3_0_0376989716" d="M 0 3.5 
C 0.928211 3.5 1.81853 3.131218 2.474874 2.474874 
C 3.131218 1.81853 3.5 0.928211 3.5 -0 
C 3.5 -0.928211 3.131218 -1.81853 2.474874 -2.474874 
C 1.81853 -3.131218 0.928211 -3.5 0 -3.5 
C -0.928211 -3.5 -1.81853 -3.131218 -2.474874 -2.474874 
C -3.131218 -1.81853 -3.5 -0.928211 -3.5 0 
C -3.5 0.928211 -3.131218 1.81853 -2.474874 2.474874 
C -1.81853 3.131218 -0.928211 3.5 0 3.5 
z
"/>
    </defs>
    <g clip-path="url(#paa288debe5)">
     <use xlink:href="#C3_0_0376989716" x="111.898384" y="44.949457" style="fill: #d75728; fill-opacity: 0.45"/>
    </g>
    <g clip-path="url(#paa288debe5)">
     <use xlink:href="#C3_0_0376989716" x="112.271046" y="42.133675" style="fill: #d75728; fill-opacity: 0.45"/>
    </g>
    <g clip-path="url(#paa288debe5)">
     <use xlink:href="#C3_0_0376989716" x="114.755221" y="60.436256" style="fill: #d75728; fill-opacity: 0.45"/>
    </g>
    <g clip-path="url(#paa288debe5)">
     <use xlink:href="#C3_0_0376989716" x="114.907512" y="64.659929" style="fill: #d75728; fill-opacity: 0.45"/>
    </g>
    <g clip-path="url(#paa288debe5)">
     <use xlink:href="#C3_0_0376989716" x="113.532343" y="50.58102" style="fill: #d75728; fill-opacity: 0.45"/>
    </g>
    <g clip-path="url(#paa288debe5)">
     <use xlink:href="#C3_0_0376989716" x="110.719548" y="80.146729" style="fill: #d75728; fill-opacity: 0.45"/>
    </g>
    <g clip-path="url(#paa288debe5)">
     <use xlink:href="#C3_0_0376989716" x="114.662621" y="68.883602" style="fill: #d75728; fill-opacity: 0.45"/>
    </g>
    <g clip-path="url(#paa288debe5)">
     <use xlink:href="#C3_0_0376989716" x="113.924251" y="60.436256" style="fill: #d75728; fill-opacity: 0.45"/>
    </g>
    <g clip-path="url(#paa288debe5)">
     <use xlink:href="#C3_0_0376989716" x="110.209896" y="73.107274" style="fill: #d75728; fill-opacity: 0.45"/>
    </g>
    <g clip-path="url(#paa288debe5)">
     <use xlink:href="#C3_0_0376989716" x="114.956314" y="44.949457" style="fill: #d75728; fill-opacity: 0.45"/>
    </g>
    <g clip-path="url(#paa288debe5)">
     <use xlink:href="#C3_0_0376989716" x="114.115588" y="44.949457" style="fill: #d75728; fill-opacity: 0.45"/>
    </g>
    <g clip-path="url(#paa288debe5)">
     <use xlink:href="#C3_0_0376989716" x="110.400562" y="53.396802" style="fill: #d75728; fill-opacity: 0.45"/>
    </g>
    <g clip-path="url(#paa288debe5)">
     <use xlink:href="#C3_0_0376989716" x="111.026461" y="63.252038" style="fill: #d75728; fill-opacity: 0.45"/>
    </g>
    <g clip-path="url(#paa288debe5)">
     <use xlink:href="#C3_0_0376989716" x="113.164044" y="67.475711" style="fill: #d75728; fill-opacity: 0.45"/>
    </g>
    <g clip-path="url(#paa288debe5)">
     <use xlink:href="#C3_0_0376989716" x="115.03302" y="51.988911" style="fill: #d75728; fill-opacity: 0.45"/>
    </g>
    <g clip-path="url(#paa288debe5)">
     <use xlink:href="#C3_0_0376989716" x="114.2577" y="60.436256" style="fill: #d75728; fill-opacity: 0.45"/>
    </g>
    <g clip-path="url(#paa288debe5)">
     <use xlink:href="#C3_0_0376989716" x="113.171426" y="71.699383" style="fill: #d75728; fill-opacity: 0.45"/>
    </g>
    <g clip-path="url(#paa288debe5)">
     <use xlink:href="#C3_0_0376989716" x="111.865103" y="70.291493" style="fill: #d75728; fill-opacity: 0.45"/>
    </g>
    <g clip-path="url(#paa288debe5)">
     <use xlink:href="#C3_0_0376989716" x="114.56917" y="54.804693" style="fill: #d75728; fill-opacity: 0.45"/>
    </g>
    <g clip-path="url(#paa288debe5)">
     <use xlink:href="#C3_0_0376989716" x="110.281325" y="66.06782" style="fill: #d75728; fill-opacity: 0.45"/>
    </g>
    <g clip-path="url(#paa288debe5)">
     <use xlink:href="#C3_0_0376989716" x="111.59871" y="51.988911" style="fill: #d75728; fill-opacity: 0.45"/>
    </g>
    <g clip-path="url(#paa288debe5)">
     <use xlink:href="#C3_0_0376989716" x="114.419298" y="80.146729" style="fill: #d75728; fill-opacity: 0.45"/>
    </g>
    <g clip-path="url(#paa288debe5)">
     <use xlink:href="#C3_0_0376989716" x="112.535507" y="64.659929" style="fill: #d75728; fill-opacity: 0.45"/>
    </g>
    <g clip-path="url(#paa288debe5)">
     <use xlink:href="#C3_0_0376989716" x="112.489355" y="71.699383" style="fill: #d75728; fill-opacity: 0.45"/>
    </g>
    <g clip-path="url(#paa288debe5)">
     <use xlink:href="#C3_0_0376989716" x="114.493521" y="49.17313" style="fill: #d75728; fill-opacity: 0.45"/>
    </g>
    <g clip-path="url(#paa288debe5)">
     <use xlink:href="#C3_0_0376989716" x="110.317031" y="53.396802" style="fill: #d75728; fill-opacity: 0.45"/>
    </g>
    <g clip-path="url(#paa288debe5)">
     <use xlink:href="#C3_0_0376989716" x="110.470914" y="49.17313" style="fill: #d75728; fill-opacity: 0.45"/>
    </g>
    <g clip-path="url(#paa288debe5)">
     <use xlink:href="#C3_0_0376989716" x="114.628892" y="66.06782" style="fill: #d75728; fill-opacity: 0.45"/>
    </g>
    <g clip-path="url(#paa288debe5)">
     <use xlink:href="#C3_0_0376989716" x="111.559042" y="60.436256" style="fill: #d75728; fill-opacity: 0.45"/>
    </g>
    <g clip-path="url(#paa288debe5)">
     <use xlink:href="#C3_0_0376989716" x="111.720625" y="60.436256" style="fill: #d75728; fill-opacity: 0.45"/>
    </g>
    <g clip-path="url(#paa288debe5)">
     <use xlink:href="#C3_0_0376989716" x="112.909653" y="80.146729" style="fill: #d75728; fill-opacity: 0.45"/>
    </g>
    <g clip-path="url(#paa288debe5)">
     <use xlink:href="#C3_0_0376989716" x="112.750151" y="60.436256" style="fill: #d75728; fill-opacity: 0.45"/>
    </g>
    <g clip-path="url(#paa288debe5)">
     <use xlink:href="#C3_0_0376989716" x="113.998251" y="43.541566" style="fill: #d75728; fill-opacity: 0.45"/>
    </g>
    <g clip-path="url(#paa288debe5)">
     <use xlink:href="#C3_0_0376989716" x="115.075827" y="46.357348" style="fill: #d75728; fill-opacity: 0.45"/>
    </g>
    <g clip-path="url(#paa288debe5)">
     <use xlink:href="#C3_0_0376989716" x="113.900028" y="68.883602" style="fill: #d75728; fill-opacity: 0.45"/>
    </g>
    <g clip-path="url(#paa288debe5)">
     <use xlink:href="#C3_0_0376989716" x="110.797167" y="61.844147" style="fill: #d75728; fill-opacity: 0.45"/>
    </g>
    <g clip-path="url(#paa288debe5)">
     <use xlink:href="#C3_0_0376989716" x="112.147312" y="51.988911" style="fill: #d75728; fill-opacity: 0.45"/>
    </g>
    <g clip-path="url(#paa288debe5)">
     <use xlink:href="#C3_0_0376989716" x="113.80499" y="59.028366" style="fill: #d75728; fill-opacity: 0.45"/>
    </g>
    <g clip-path="url(#paa288debe5)">
     <use xlink:href="#C3_0_0376989716" x="114.773641" y="63.252038" style="fill: #d75728; fill-opacity: 0.45"/>
    </g>
    <g clip-path="url(#paa288debe5)">
     <use xlink:href="#C3_0_0376989716" x="111.578465" y="64.659929" style="fill: #d75728; fill-opacity: 0.45"/>
    </g>
    <g clip-path="url(#paa288debe5)">
     <use xlink:href="#C3_0_0376989716" x="111.916485" y="61.844147" style="fill: #d75728; fill-opacity: 0.45"/>
    </g>
    <g clip-path="url(#paa288debe5)">
     <use xlink:href="#C3_0_0376989716" x="114.327189" y="74.515165" style="fill: #d75728; fill-opacity: 0.45"/>
    </g>
    <g clip-path="url(#paa288debe5)">
     <use xlink:href="#C3_0_0376989716" x="113.956021" y="63.252038" style="fill: #d75728; fill-opacity: 0.45"/>
    </g>
    <g clip-path="url(#paa288debe5)">
     <use xlink:href="#C3_0_0376989716" x="112.504183" y="75.923056" style="fill: #d75728; fill-opacity: 0.45"/>
    </g>
    <g clip-path="url(#paa288debe5)">
     <use xlink:href="#C3_0_0376989716" x="115.174322" y="74.515165" style="fill: #d75728; fill-opacity: 0.45"/>
    </g>
   </g>
   <g id="line2d_7">
    <path d="M 33.2055 71.176225 
L 36.2745 71.176225 
M 34.74 71.176225 
L 34.74 51.622875 
M 33.2055 51.622875 
L 36.2745 51.622875 
" clip-path="url(#paa288debe5)" style="fill: none; stroke: #333333; stroke-width: 2.5; stroke-linecap: square"/>
   </g>
   <g id="line2d_8">
    <path d="M 89.0055 73.531408 
L 92.0745 73.531408 
M 90.54 73.531408 
L 90.54 51.324406 
M 89.0055 51.324406 
L 92.0745 51.324406 
" clip-path="url(#paa288debe5)" style="fill: none; stroke: #333333; stroke-width: 2.5; stroke-linecap: square"/>
   </g>
   <g id="line2d_9">
    <path d="M 55.5255 70.1836 
L 58.5945 70.1836 
M 57.06 70.1836 
L 57.06 48.243628 
M 55.5255 48.243628 
L 58.5945 48.243628 
" clip-path="url(#paa288debe5)" style="fill: none; stroke: #333333; stroke-width: 2.5; stroke-linecap: square"/>
   </g>
   <g id="line2d_10">
    <path d="M 111.3255 71.668516 
L 114.3945 71.668516 
M 112.86 71.668516 
L 112.86 50.643174 
M 111.3255 50.643174 
L 114.3945 50.643174 
" clip-path="url(#paa288debe5)" style="fill: none; stroke: #333333; stroke-width: 2.5; stroke-linecap: square"/>
   </g>
   <g id="patch_9">
    <path d="M 18 115.344 
L 18 15.552 
" style="fill: none; stroke: #000000; stroke-linejoin: miter; stroke-linecap: square"/>
   </g>
   <g id="patch_10">
    <path d="M 18 115.344 
L 129.6 115.344 
" style="fill: none; stroke: #000000; stroke-linejoin: miter; stroke-linecap: square"/>
   </g>
   <g id="PathCollection_5">
    <defs>
     <path id="m9cbb0f46cb" d="M 0 3 
C 0.795609 3 1.55874 2.683901 2.12132 2.12132 
C 2.683901 1.55874 3 0.795609 3 0 
C 3 -0.795609 2.683901 -1.55874 2.12132 -2.12132 
C 1.55874 -2.683901 0.795609 -3 0 -3 
C -0.795609 -3 -1.55874 -2.683901 -2.12132 -2.12132 
C -2.683901 -1.55874 -3 -0.795609 -3 0 
C -3 0.795609 -2.683901 1.55874 -2.12132 2.12132 
C -1.55874 2.683901 -0.795609 3 0 3 
z
"/>
    </defs>
    <g clip-path="url(#paa288debe5)">
     <use xlink:href="#m9cbb0f46cb" x="34.74" y="61.39955" style="fill: #333333"/>
    </g>
   </g>
   <g id="PathCollection_6">
    <g clip-path="url(#paa288debe5)">
     <use xlink:href="#m9cbb0f46cb" x="57.06" y="59.213614" style="fill: #333333"/>
    </g>
   </g>
   <g id="PathCollection_7">
    <g clip-path="url(#paa288debe5)">
     <use xlink:href="#m9cbb0f46cb" x="90.54" y="62.427907" style="fill: #333333"/>
    </g>
   </g>
   <g id="PathCollection_8">
    <g clip-path="url(#paa288debe5)">
     <use xlink:href="#m9cbb0f46cb" x="112.86" y="61.155845" style="fill: #333333"/>
    </g>
   </g>
   <g id="line2d_11"/>
   <g id="line2d_12"/>
  </g>
 </g>
 <defs>
  <clipPath id="paa288debe5">
   <rect x="18" y="15.552" width="111.6" height="99.792"/>
  </clipPath>
 </defs>
</svg>
