<?xml version="1.0" encoding="utf-8" standalone="no"?>
<!DOCTYPE svg PUBLIC "-//W3C//DTD SVG 1.1//EN"
  "http://www.w3.org/Graphics/SVG/1.1/DTD/svg11.dtd">
<svg xmlns:xlink="http://www.w3.org/1999/xlink" width="144pt" height="129.6pt" viewBox="0 0 144 129.6" xmlns="http://www.w3.org/2000/svg" version="1.1">
 <metadata>
  <rdf:RDF xmlns:dc="http://purl.org/dc/elements/1.1/" xmlns:cc="http://creativecommons.org/ns#" xmlns:rdf="http://www.w3.org/1999/02/22-rdf-syntax-ns#">
   <cc:Work>
    <dc:type rdf:resource="http://purl.org/dc/dcmitype/StillImage"/>
    <dc:date>2025-04-02T23:11:42.770908</dc:date>
    <dc:format>image/svg+xml</dc:format>
    <dc:creator>
     <cc:Agent>
      <dc:title>Matplotlib v3.7.1, https://matplotlib.org/</dc:title>
     </cc:Agent>
    </dc:creator>
   </cc:Work>
  </rdf:RDF>
 </metadata>
 <defs>
  <style type="text/css">*{stroke-linejoin: round; stroke-linecap: butt}</style>
 </defs>
 <g id="figure_1">
  <g id="patch_1">
   <path d="M 0 129.6 
L 144 129.6 
L 144 0 
L 0 0 
L 0 129.6 
z
" style="fill: none"/>
  </g>
  <g id="axes_1">
   <g id="patch_2">
    <path d="M 18 115.344 
L 129.6 115.344 
L 129.6 15.552 
L 18 15.552 
L 18 115.344 
z
" style="fill: none"/>
   </g>
   <g id="PolyCollection_1">
    <path d="M 35.20746 86.867649 
L 34.27254 86.867649 
L 34.142248 86.221347 
L 33.984622 85.575045 
L 33.796572 84.928743 
L 33.575356 84.282441 
L 33.31878 83.636139 
L 33.025406 82.989838 
L 32.694742 82.343536 
L 32.327416 81.697234 
L 31.92529 81.050932 
L 31.491527 80.40463 
L 31.03057 79.758328 
L 30.548048 79.112026 
L 30.050584 78.465724 
L 29.545536 77.819422 
L 29.040664 77.17312 
L 28.543752 76.526818 
L 28.062219 75.880516 
L 27.602731 75.234214 
L 27.170871 74.587912 
L 26.770868 73.94161 
L 26.405429 73.295308 
L 26.075685 72.649006 
L 25.781238 72.002705 
L 25.520334 71.356403 
L 25.29012 70.710101 
L 25.08697 70.063799 
L 24.906848 69.417497 
L 24.745681 68.771195 
L 24.599688 68.124893 
L 24.465667 67.478591 
L 24.341185 66.832289 
L 24.224679 66.185987 
L 24.115462 65.539685 
L 24.013632 64.893383 
L 23.919906 64.247081 
L 23.835411 63.600779 
L 23.761436 62.954477 
L 23.699204 62.308175 
L 23.649666 61.661873 
L 23.613349 61.015572 
L 23.590284 60.36927 
L 23.58 59.722968 
L 23.581606 59.076666 
L 23.593931 58.430364 
L 23.615724 57.784062 
L 23.645872 57.13776 
L 23.683623 56.491458 
L 23.728789 55.845156 
L 23.781883 55.198854 
L 23.844201 54.552552 
L 23.917805 53.90625 
L 24.005427 53.259948 
L 24.110278 52.613646 
L 24.235791 51.967344 
L 24.385312 51.321042 
L 24.561765 50.674741 
L 24.767328 50.028439 
L 25.003152 49.382137 
L 25.269143 48.735835 
L 25.563845 48.089533 
L 25.884427 47.443231 
L 26.226787 46.796929 
L 26.585761 46.150627 
L 26.955429 45.504325 
L 27.329484 44.858023 
L 27.701643 44.211721 
L 28.066046 43.565419 
L 28.417631 42.919117 
L 28.752436 42.272815 
L 29.067807 41.626513 
L 29.362497 40.980211 
L 29.636651 40.333909 
L 29.891678 39.687608 
L 30.130037 39.041306 
L 30.354935 38.395004 
L 30.570002 37.748702 
L 30.77894 37.1024 
L 30.985201 36.456098 
L 31.191707 35.809796 
L 31.400632 35.163494 
L 31.61328 34.517192 
L 31.830025 33.87089 
L 32.050349 33.224588 
L 32.272942 32.578286 
L 32.495861 31.931984 
L 32.716718 31.285682 
L 32.932891 30.63938 
L 33.14173 29.993078 
L 33.340737 29.346776 
L 33.527725 28.700475 
L 33.700929 28.054173 
L 33.859074 27.407871 
L 34.001409 26.761569 
L 34.127686 26.115267 
L 34.23813 25.468965 
L 34.333362 24.822663 
L 34.414327 24.176361 
L 34.482205 23.530059 
L 34.538323 22.883757 
L 34.941677 22.883757 
L 34.941677 22.883757 
L 34.997795 23.530059 
L 35.065673 24.176361 
L 35.146638 24.822663 
L 35.24187 25.468965 
L 35.352314 26.115267 
L 35.478591 26.761569 
L 35.620926 27.407871 
L 35.779071 28.054173 
L 35.952275 28.700475 
L 36.139263 29.346776 
L 36.33827 29.993078 
L 36.547109 30.63938 
L 36.763282 31.285682 
L 36.984139 31.931984 
L 37.207058 32.578286 
L 37.429651 33.224588 
L 37.649975 33.87089 
L 37.86672 34.517192 
L 38.079368 35.163494 
L 38.288293 35.809796 
L 38.494799 36.456098 
L 38.70106 37.1024 
L 38.909998 37.748702 
L 39.125065 38.395004 
L 39.349963 39.041306 
L 39.588322 39.687608 
L 39.843349 40.333909 
L 40.117503 40.980211 
L 40.412193 41.626513 
L 40.727564 42.272815 
L 41.062369 42.919117 
L 41.413954 43.565419 
L 41.778357 44.211721 
L 42.150516 44.858023 
L 42.524571 45.504325 
L 42.894239 46.150627 
L 43.253213 46.796929 
L 43.595573 47.443231 
L 43.916155 48.089533 
L 44.210857 48.735835 
L 44.476848 49.382137 
L 44.712672 50.028439 
L 44.918235 50.674741 
L 45.094688 51.321042 
L 45.244209 51.967344 
L 45.369722 52.613646 
L 45.474573 53.259948 
L 45.562195 53.90625 
L 45.635799 54.552552 
L 45.698117 55.198854 
L 45.751211 55.845156 
L 45.796377 56.491458 
L 45.834128 57.13776 
L 45.864276 57.784062 
L 45.886069 58.430364 
L 45.898394 59.076666 
L 45.9 59.722968 
L 45.889716 60.36927 
L 45.866651 61.015572 
L 45.830334 61.661873 
L 45.780796 62.308175 
L 45.718564 62.954477 
L 45.644589 63.600779 
L 45.560094 64.247081 
L 45.466368 64.893383 
L 45.364538 65.539685 
L 45.255321 66.185987 
L 45.138815 66.832289 
L 45.014333 67.478591 
L 44.880312 68.124893 
L 44.734319 68.771195 
L 44.573152 69.417497 
L 44.39303 70.063799 
L 44.18988 70.710101 
L 43.959666 71.356403 
L 43.698762 72.002705 
L 43.404315 72.649006 
L 43.074571 73.295308 
L 42.709132 73.94161 
L 42.309129 74.587912 
L 41.877269 75.234214 
L 41.417781 75.880516 
L 40.936248 76.526818 
L 40.439336 77.17312 
L 39.934464 77.819422 
L 39.429416 78.465724 
L 38.931952 79.112026 
L 38.44943 79.758328 
L 37.988473 80.40463 
L 37.55471 81.050932 
L 37.152584 81.697234 
L 36.785258 82.343536 
L 36.454594 82.989838 
L 36.16122 83.636139 
L 35.904644 84.282441 
L 35.683428 84.928743 
L 35.495378 85.575045 
L 35.337752 86.221347 
L 35.20746 86.867649 
z
" clip-path="url(#p391bba318d)" style="fill: #20415a; fill-opacity: 0.35"/>
   </g>
   <g id="PolyCollection_2">
    <path d="M 57.170879 91.327003 
L 56.949121 91.327003 
L 56.914135 90.757192 
L 56.870642 90.187382 
L 56.81735 89.617571 
L 56.752966 89.04776 
L 56.676239 88.47795 
L 56.586001 87.908139 
L 56.481201 87.338329 
L 56.360941 86.768518 
L 56.224479 86.198708 
L 56.071237 85.628897 
L 55.900783 85.059087 
L 55.712794 84.489276 
L 55.507016 83.919465 
L 55.283215 83.349655 
L 55.041125 82.779844 
L 54.780412 82.210034 
L 54.500649 81.640223 
L 54.20132 81.070413 
L 53.881857 80.500602 
L 53.541704 79.930791 
L 53.180421 79.360981 
L 52.797821 78.79117 
L 52.394121 78.22136 
L 51.970108 77.651549 
L 51.527298 77.081739 
L 51.068068 76.511928 
L 50.595753 75.942118 
L 50.114676 75.372307 
L 49.630117 74.802496 
L 49.148203 74.232686 
L 48.675722 73.662875 
L 48.219882 73.093065 
L 47.788019 72.523254 
L 47.387289 71.953444 
L 47.024363 71.383633 
L 46.705165 70.813823 
L 46.434661 70.244012 
L 46.216722 69.674201 
L 46.054073 69.104391 
L 45.948313 68.53458 
L 45.9 67.96477 
L 45.908772 67.394959 
L 45.973489 66.825149 
L 46.092353 66.255338 
L 46.263002 65.685527 
L 46.482555 65.115717 
L 46.747603 64.545906 
L 47.054164 63.976096 
L 47.397621 63.406285 
L 47.772651 62.836475 
L 48.1732 62.266664 
L 48.592511 61.696854 
L 49.023227 61.127043 
L 49.45758 60.557232 
L 49.887655 59.987422 
L 50.305714 59.417611 
L 50.704553 58.847801 
L 51.077851 58.27799 
L 51.42049 57.70818 
L 51.728796 57.138369 
L 52.0007 56.568559 
L 52.235783 55.998748 
L 52.435226 55.428937 
L 52.601656 54.859127 
L 52.738925 54.289316 
L 52.851818 53.719506 
L 52.945745 53.149695 
L 53.026415 52.579885 
L 53.099529 52.010074 
L 53.170509 51.440263 
L 53.244254 50.870453 
L 53.324965 50.300642 
L 53.416015 49.730832 
L 53.519867 49.161021 
L 53.638055 48.591211 
L 53.771203 48.0214 
L 53.919087 47.45159 
L 54.080723 46.881779 
L 54.254488 46.311968 
L 54.438242 45.742158 
L 54.629472 45.172347 
L 54.825424 44.602537 
L 55.023235 44.032726 
L 55.220054 43.462916 
L 55.413146 42.893105 
L 55.599988 42.323295 
L 55.778342 41.753484 
L 55.946314 41.183673 
L 56.102395 40.613863 
L 56.245482 40.044052 
L 56.374887 39.474242 
L 56.490322 38.904431 
L 56.591876 38.334621 
L 56.679966 37.76481 
L 56.755294 37.194999 
L 56.818782 36.625189 
L 56.871509 36.055378 
L 56.914653 35.485568 
L 56.949425 34.915757 
L 57.170575 34.915757 
L 57.170575 34.915757 
L 57.205347 35.485568 
L 57.248491 36.055378 
L 57.301218 36.625189 
L 57.364706 37.194999 
L 57.440034 37.76481 
L 57.528124 38.334621 
L 57.629678 38.904431 
L 57.745113 39.474242 
L 57.874518 40.044052 
L 58.017605 40.613863 
L 58.173686 41.183673 
L 58.341658 41.753484 
L 58.520012 42.323295 
L 58.706854 42.893105 
L 58.899946 43.462916 
L 59.096765 44.032726 
L 59.294576 44.602537 
L 59.490528 45.172347 
L 59.681758 45.742158 
L 59.865512 46.311968 
L 60.039277 46.881779 
L 60.200913 47.45159 
L 60.348797 48.0214 
L 60.481945 48.591211 
L 60.600133 49.161021 
L 60.703985 49.730832 
L 60.795035 50.300642 
L 60.875746 50.870453 
L 60.949491 51.440263 
L 61.020471 52.010074 
L 61.093585 52.579885 
L 61.174255 53.149695 
L 61.268182 53.719506 
L 61.381075 54.289316 
L 61.518344 54.859127 
L 61.684774 55.428937 
L 61.884217 55.998748 
L 62.1193 56.568559 
L 62.391204 57.138369 
L 62.69951 57.70818 
L 63.042149 58.27799 
L 63.415447 58.847801 
L 63.814286 59.417611 
L 64.232345 59.987422 
L 64.66242 60.557232 
L 65.096773 61.127043 
L 65.527489 61.696854 
L 65.9468 62.266664 
L 66.347349 62.836475 
L 66.722379 63.406285 
L 67.065836 63.976096 
L 67.372397 64.545906 
L 67.637445 65.115717 
L 67.856998 65.685527 
L 68.027647 66.255338 
L 68.146511 66.825149 
L 68.211228 67.394959 
L 68.22 67.96477 
L 68.171687 68.53458 
L 68.065927 69.104391 
L 67.903278 69.674201 
L 67.685339 70.244012 
L 67.414835 70.813823 
L 67.095637 71.383633 
L 66.732711 71.953444 
L 66.331981 72.523254 
L 65.900118 73.093065 
L 65.444278 73.662875 
L 64.971797 74.232686 
L 64.489883 74.802496 
L 64.005324 75.372307 
L 63.524247 75.942118 
L 63.051932 76.511928 
L 62.592702 77.081739 
L 62.149892 77.651549 
L 61.725879 78.22136 
L 61.322179 78.79117 
L 60.939579 79.360981 
L 60.578296 79.930791 
L 60.238143 80.500602 
L 59.91868 81.070413 
L 59.619351 81.640223 
L 59.339588 82.210034 
L 59.078875 82.779844 
L 58.836785 83.349655 
L 58.612984 83.919465 
L 58.407206 84.489276 
L 58.219217 85.059087 
L 58.048763 85.628897 
L 57.895521 86.198708 
L 57.759059 86.768518 
L 57.638799 87.338329 
L 57.533999 87.908139 
L 57.443761 88.47795 
L 57.367034 89.04776 
L 57.30265 89.617571 
L 57.249358 90.187382 
L 57.205865 90.757192 
L 57.170879 91.327003 
z
" clip-path="url(#p391bba318d)" style="fill: #c1613e; fill-opacity: 0.35"/>
   </g>
   <g id="PolyCollection_3">
    <path d="M 90.720364 86.698847 
L 90.359636 86.698847 
L 90.29454 86.028192 
L 90.211048 85.357537 
L 90.105766 84.686882 
L 89.975216 84.016227 
L 89.815986 83.345572 
L 89.624918 82.674917 
L 89.399298 82.004262 
L 89.137058 81.333607 
L 88.836979 80.662952 
L 88.498862 79.992297 
L 88.123682 79.321642 
L 87.713701 78.650987 
L 87.272531 77.980332 
L 86.805153 77.309677 
L 86.317861 76.639022 
L 85.81814 75.968367 
L 85.314456 75.297712 
L 84.815945 74.627057 
L 84.332004 73.956402 
L 83.87178 73.285747 
L 83.443571 72.615092 
L 83.054192 71.944437 
L 82.708344 71.273782 
L 82.408075 70.603127 
L 82.152408 69.932472 
L 81.937226 69.261817 
L 81.755469 68.591162 
L 81.597683 67.920507 
L 81.452909 67.249852 
L 81.309839 66.579197 
L 81.158154 65.908542 
L 80.989855 65.237887 
L 80.80046 64.567232 
L 80.589864 63.896577 
L 80.362759 63.225921 
L 80.128495 62.555266 
L 79.900402 61.884611 
L 79.694598 61.213956 
L 79.528428 60.543301 
L 79.418713 59.872646 
L 79.38 59.201991 
L 79.423032 58.531336 
L 79.553615 57.860681 
L 79.772007 57.190026 
L 80.072882 56.519371 
L 80.445872 55.848716 
L 80.876593 55.178061 
L 81.348025 54.507406 
L 81.842081 53.836751 
L 82.341178 53.166096 
L 82.829644 52.495441 
L 83.294831 51.824786 
L 83.727824 51.154131 
L 84.12373 50.483476 
L 84.481537 49.812821 
L 84.803623 49.142166 
L 85.094986 48.471511 
L 85.362339 47.800856 
L 85.613145 47.130201 
L 85.854734 46.459546 
L 86.093564 45.788891 
L 86.334669 45.118236 
L 86.581349 44.447581 
L 86.835052 43.776926 
L 87.095458 43.106271 
L 87.360699 42.435616 
L 87.627679 41.764961 
L 87.892452 41.094306 
L 88.150609 40.423651 
L 88.39766 39.752996 
L 88.629377 39.082341 
L 88.842093 38.411686 
L 89.032938 37.741031 
L 89.200023 37.070376 
L 89.342536 36.399721 
L 89.460783 35.729066 
L 89.556139 35.058411 
L 89.63093 34.387755 
L 89.68825 33.7171 
L 89.731724 33.046445 
L 89.765232 32.37579 
L 89.792632 31.705135 
L 89.817483 31.03448 
L 89.842822 30.363825 
L 89.870988 29.69317 
L 89.903525 29.022515 
L 89.941163 28.35186 
L 89.983869 27.681205 
L 90.030964 27.01055 
L 90.08128 26.339895 
L 90.133352 25.66924 
L 90.185591 24.998585 
L 90.236461 24.32793 
L 90.284605 23.657275 
L 90.328945 22.98662 
L 90.368725 22.315965 
L 90.403525 21.64531 
L 90.433233 20.974655 
L 90.458 20.304 
L 90.622 20.304 
L 90.622 20.304 
L 90.646767 20.974655 
L 90.676475 21.64531 
L 90.711275 22.315965 
L 90.751055 22.98662 
L 90.795395 23.657275 
L 90.843539 24.32793 
L 90.894409 24.998585 
L 90.946648 25.66924 
L 90.99872 26.339895 
L 91.049036 27.01055 
L 91.096131 27.681205 
L 91.138837 28.35186 
L 91.176475 29.022515 
L 91.209012 29.69317 
L 91.237178 30.363825 
L 91.262517 31.03448 
L 91.287368 31.705135 
L 91.314768 32.37579 
L 91.348276 33.046445 
L 91.39175 33.7171 
L 91.44907 34.387755 
L 91.523861 35.058411 
L 91.619217 35.729066 
L 91.737464 36.399721 
L 91.879977 37.070376 
L 92.047062 37.741031 
L 92.237907 38.411686 
L 92.450623 39.082341 
L 92.68234 39.752996 
L 92.929391 40.423651 
L 93.187548 41.094306 
L 93.452321 41.764961 
L 93.719301 42.435616 
L 93.984542 43.106271 
L 94.244948 43.776926 
L 94.498651 44.447581 
L 94.745331 45.118236 
L 94.986436 45.788891 
L 95.225266 46.459546 
L 95.466855 47.130201 
L 95.717661 47.800856 
L 95.985014 48.471511 
L 96.276377 49.142166 
L 96.598463 49.812821 
L 96.95627 50.483476 
L 97.352176 51.154131 
L 97.785169 51.824786 
L 98.250356 52.495441 
L 98.738822 53.166096 
L 99.237919 53.836751 
L 99.731975 54.507406 
L 100.203407 55.178061 
L 100.634128 55.848716 
L 101.007118 56.519371 
L 101.307993 57.190026 
L 101.526385 57.860681 
L 101.656968 58.531336 
L 101.7 59.201991 
L 101.661287 59.872646 
L 101.551572 60.543301 
L 101.385402 61.213956 
L 101.179598 61.884611 
L 100.951505 62.555266 
L 100.717241 63.225921 
L 100.490136 63.896577 
L 100.27954 64.567232 
L 100.090145 65.237887 
L 99.921846 65.908542 
L 99.770161 66.579197 
L 99.627091 67.249852 
L 99.482317 67.920507 
L 99.324531 68.591162 
L 99.142774 69.261817 
L 98.927592 69.932472 
L 98.671925 70.603127 
L 98.371656 71.273782 
L 98.025808 71.944437 
L 97.636429 72.615092 
L 97.20822 73.285747 
L 96.747996 73.956402 
L 96.264055 74.627057 
L 95.765544 75.297712 
L 95.26186 75.968367 
L 94.762139 76.639022 
L 94.274847 77.309677 
L 93.807469 77.980332 
L 93.366299 78.650987 
L 92.956318 79.321642 
L 92.581138 79.992297 
L 92.243021 80.662952 
L 91.942942 81.333607 
L 91.680702 82.004262 
L 91.455082 82.674917 
L 91.264014 83.345572 
L 91.104784 84.016227 
L 90.974234 84.686882 
L 90.868952 85.357537 
L 90.78546 86.028192 
L 90.720364 86.698847 
z
" clip-path="url(#p391bba318d)" style="fill: #20415a; fill-opacity: 0.35"/>
   </g>
   <g id="PolyCollection_4">
    <path d="M 112.933357 94.508288 
L 112.786643 94.508288 
L 112.763131 93.943617 
L 112.73437 93.378946 
L 112.699907 92.814275 
L 112.659426 92.249604 
L 112.612758 91.684934 
L 112.559875 91.120263 
L 112.500841 90.555592 
L 112.435738 89.990921 
L 112.364554 89.42625 
L 112.287066 88.861579 
L 112.202712 88.296908 
L 112.110498 87.732237 
L 112.008944 87.167566 
L 111.896107 86.602895 
L 111.769674 86.038225 
L 111.627146 85.473554 
L 111.466085 84.908883 
L 111.284397 84.344212 
L 111.080629 83.779541 
L 110.854221 83.21487 
L 110.60569 82.650199 
L 110.336695 82.085528 
L 110.04999 81.520857 
L 109.749247 80.956187 
L 109.438771 80.391516 
L 109.123145 79.826845 
L 108.806834 79.262174 
L 108.493801 78.697503 
L 108.187173 78.132832 
L 107.88898 77.568161 
L 107.600003 77.00349 
L 107.319725 76.438819 
L 107.046393 75.874148 
L 106.777182 75.309478 
L 106.508442 74.744807 
L 106.23602 74.180136 
L 105.955648 73.615465 
L 105.663364 73.050794 
L 105.355971 72.486123 
L 105.031488 71.921452 
L 104.689584 71.356781 
L 104.331946 70.79211 
L 103.962542 70.227439 
L 103.587732 69.662769 
L 103.216198 69.098098 
L 102.858648 68.533427 
L 102.527317 67.968756 
L 102.235255 67.404085 
L 101.995473 66.839414 
L 101.820015 66.274743 
L 101.719035 65.710072 
L 101.7 65.145401 
L 101.767074 64.580731 
L 101.920783 64.01606 
L 102.157967 63.451389 
L 102.472039 62.886718 
L 102.853499 62.322047 
L 103.290643 61.757376 
L 103.770382 61.192705 
L 104.27908 60.628034 
L 104.803332 60.063363 
L 105.330616 59.498692 
L 105.849794 58.934022 
L 106.351435 58.369351 
L 106.827983 57.80468 
L 107.273796 57.240009 
L 107.685087 56.675338 
L 108.059801 56.110667 
L 108.397457 55.545996 
L 108.698976 54.981325 
L 108.966492 54.416654 
L 109.203154 53.851984 
L 109.41291 53.287313 
L 109.600276 52.722642 
L 109.770077 52.157971 
L 109.927182 51.5933 
L 110.076239 51.028629 
L 110.221417 50.463958 
L 110.366198 49.899287 
L 110.513204 49.334616 
L 110.664111 48.769945 
L 110.819614 48.205275 
L 110.979476 47.640604 
L 111.142645 47.075933 
L 111.307407 46.511262 
L 111.471586 45.946591 
L 111.632756 45.38192 
L 111.788446 44.817249 
L 111.93633 44.252578 
L 112.074384 43.687907 
L 112.201001 43.123236 
L 112.315064 42.558566 
L 112.415971 41.993895 
L 112.503622 41.429224 
L 112.578366 40.864553 
L 112.640929 40.299882 
L 112.692326 39.735211 
L 112.73376 39.17054 
L 112.766534 38.605869 
L 112.953466 38.605869 
L 112.953466 38.605869 
L 112.98624 39.17054 
L 113.027674 39.735211 
L 113.079071 40.299882 
L 113.141634 40.864553 
L 113.216378 41.429224 
L 113.304029 41.993895 
L 113.404936 42.558566 
L 113.518999 43.123236 
L 113.645616 43.687907 
L 113.78367 44.252578 
L 113.931554 44.817249 
L 114.087244 45.38192 
L 114.248414 45.946591 
L 114.412593 46.511262 
L 114.577355 47.075933 
L 114.740524 47.640604 
L 114.900386 48.205275 
L 115.055889 48.769945 
L 115.206796 49.334616 
L 115.353802 49.899287 
L 115.498583 50.463958 
L 115.643761 51.028629 
L 115.792818 51.5933 
L 115.949923 52.157971 
L 116.119724 52.722642 
L 116.30709 53.287313 
L 116.516846 53.851984 
L 116.753508 54.416654 
L 117.021024 54.981325 
L 117.322543 55.545996 
L 117.660199 56.110667 
L 118.034913 56.675338 
L 118.446204 57.240009 
L 118.892017 57.80468 
L 119.368565 58.369351 
L 119.870206 58.934022 
L 120.389384 59.498692 
L 120.916668 60.063363 
L 121.44092 60.628034 
L 121.949618 61.192705 
L 122.429357 61.757376 
L 122.866501 62.322047 
L 123.247961 62.886718 
L 123.562033 63.451389 
L 123.799217 64.01606 
L 123.952926 64.580731 
L 124.02 65.145401 
L 124.000965 65.710072 
L 123.899985 66.274743 
L 123.724527 66.839414 
L 123.484745 67.404085 
L 123.192683 67.968756 
L 122.861352 68.533427 
L 122.503802 69.098098 
L 122.132268 69.662769 
L 121.757458 70.227439 
L 121.388054 70.79211 
L 121.030416 71.356781 
L 120.688512 71.921452 
L 120.364029 72.486123 
L 120.056636 73.050794 
L 119.764352 73.615465 
L 119.48398 74.180136 
L 119.211558 74.744807 
L 118.942818 75.309478 
L 118.673607 75.874148 
L 118.400275 76.438819 
L 118.119997 77.00349 
L 117.83102 77.568161 
L 117.532827 78.132832 
L 117.226199 78.697503 
L 116.913166 79.262174 
L 116.596855 79.826845 
L 116.281229 80.391516 
L 115.970753 80.956187 
L 115.67001 81.520857 
L 115.383305 82.085528 
L 115.11431 82.650199 
L 114.865779 83.21487 
L 114.639371 83.779541 
L 114.435603 84.344212 
L 114.253915 84.908883 
L 114.092854 85.473554 
L 113.950326 86.038225 
L 113.823893 86.602895 
L 113.711056 87.167566 
L 113.609502 87.732237 
L 113.517288 88.296908 
L 113.432934 88.861579 
L 113.355446 89.42625 
L 113.284262 89.990921 
L 113.219159 90.555592 
L 113.160125 91.120263 
L 113.107242 91.684934 
L 113.060574 92.249604 
L 113.020093 92.814275 
L 112.98563 93.378946 
L 112.956869 93.943617 
L 112.933357 94.508288 
z
" clip-path="url(#p391bba318d)" style="fill: #c1613e; fill-opacity: 0.35"/>
   </g>
   <g id="patch_3">
    <path d="M 23.58 115.344 
L 45.9 115.344 
L 45.9 58.09441 
L 23.58 58.09441 
L 23.58 115.344 
z
" clip-path="url(#p391bba318d)" style="fill: none"/>
   </g>
   <g id="patch_4">
    <path d="M 79.38 115.344 
L 101.7 115.344 
L 101.7 59.802998 
L 79.38 59.802998 
L 79.38 115.344 
z
" clip-path="url(#p391bba318d)" style="fill: none"/>
   </g>
   <g id="patch_5">
    <path d="M 45.9 115.344 
L 68.22 115.344 
L 68.22 65.001973 
L 45.9 65.001973 
L 45.9 115.344 
z
" clip-path="url(#p391bba318d)" style="fill: none"/>
   </g>
   <g id="patch_6">
    <path d="M 101.7 115.344 
L 124.02 115.344 
L 124.02 66.144795 
L 101.7 66.144795 
L 101.7 115.344 
z
" clip-path="url(#p391bba318d)" style="fill: none"/>
   </g>
   <g id="patch_7">
    <path d="M 45.9 115.344 
L 45.9 115.344 
L 45.9 115.344 
L 45.9 115.344 
z
" clip-path="url(#p391bba318d)" style="fill: #3274a1"/>
   </g>
   <g id="patch_8">
    <path d="M 45.9 115.344 
L 45.9 115.344 
L 45.9 115.344 
L 45.9 115.344 
z
" clip-path="url(#p391bba318d)" style="fill: #e1812c"/>
   </g>
   <g id="matplotlib.axis_1">
    <g id="xtick_1">
     <g id="line2d_1">
      <defs>
       <path id="mce4133998f" d="M 0 0 
L 0 3.5 
" style="stroke: #000000"/>
      </defs>
      <g>
       <use xlink:href="#mce4133998f" x="45.9" y="115.344" style="stroke: #000000"/>
      </g>
     </g>
     <g id="text_1">
      <!-- HC -->
      <g transform="translate(38.678125 129.501812) scale(0.1 -0.1)">
       <defs>
        <path id="ArialMT-48" d="M 513 0 
L 513 4581 
L 1119 4581 
L 1119 2700 
L 3500 2700 
L 3500 4581 
L 4106 4581 
L 4106 0 
L 3500 0 
L 3500 2159 
L 1119 2159 
L 1119 0 
L 513 0 
z
" transform="scale(0.015625)"/>
        <path id="ArialMT-43" d="M 3763 1606 
L 4369 1453 
Q 4178 706 3683 314 
Q 3188 -78 2472 -78 
Q 1731 -78 1267 223 
Q 803 525 561 1097 
Q 319 1669 319 2325 
Q 319 3041 592 3573 
Q 866 4106 1370 4382 
Q 1875 4659 2481 4659 
Q 3169 4659 3637 4309 
Q 4106 3959 4291 3325 
L 3694 3184 
Q 3534 3684 3231 3912 
Q 2928 4141 2469 4141 
Q 1941 4141 1586 3887 
Q 1231 3634 1087 3207 
Q 944 2781 944 2328 
Q 944 1744 1114 1308 
Q 1284 872 1643 656 
Q 2003 441 2422 441 
Q 2931 441 3284 734 
Q 3638 1028 3763 1606 
z
" transform="scale(0.015625)"/>
       </defs>
       <use xlink:href="#ArialMT-48"/>
       <use xlink:href="#ArialMT-43" x="72.216797"/>
      </g>
     </g>
    </g>
    <g id="xtick_2">
     <g id="line2d_2">
      <g>
       <use xlink:href="#mce4133998f" x="101.7" y="115.344" style="stroke: #000000"/>
      </g>
     </g>
     <g id="text_2">
      <!-- ND -->
      <g transform="translate(94.478125 129.501812) scale(0.1 -0.1)">
       <defs>
        <path id="ArialMT-4e" d="M 488 0 
L 488 4581 
L 1109 4581 
L 3516 984 
L 3516 4581 
L 4097 4581 
L 4097 0 
L 3475 0 
L 1069 3600 
L 1069 0 
L 488 0 
z
" transform="scale(0.015625)"/>
        <path id="ArialMT-44" d="M 494 0 
L 494 4581 
L 2072 4581 
Q 2606 4581 2888 4516 
Q 3281 4425 3559 4188 
Q 3922 3881 4101 3404 
Q 4281 2928 4281 2316 
Q 4281 1794 4159 1391 
Q 4038 988 3847 723 
Q 3656 459 3429 307 
Q 3203 156 2883 78 
Q 2563 0 2147 0 
L 494 0 
z
M 1100 541 
L 2078 541 
Q 2531 541 2789 625 
Q 3047 709 3200 863 
Q 3416 1078 3536 1442 
Q 3656 1806 3656 2325 
Q 3656 3044 3420 3430 
Q 3184 3816 2847 3947 
Q 2603 4041 2063 4041 
L 1100 4041 
L 1100 541 
z
" transform="scale(0.015625)"/>
       </defs>
       <use xlink:href="#ArialMT-4e"/>
       <use xlink:href="#ArialMT-44" x="72.216797"/>
      </g>
     </g>
    </g>
   </g>
   <g id="matplotlib.axis_2">
    <g id="ytick_1">
     <g id="line2d_3">
      <defs>
       <path id="mdca305729d" d="M 0 0 
L -3.5 0 
" style="stroke: #000000"/>
      </defs>
      <g>
       <use xlink:href="#mdca305729d" x="18" y="115.344" style="stroke: #000000"/>
      </g>
     </g>
     <g id="text_3">
      <!-- 0.0 -->
      <g transform="translate(-2.9 118.922906) scale(0.1 -0.1)">
       <defs>
        <path id="ArialMT-30" d="M 266 2259 
Q 266 3072 433 3567 
Q 600 4063 929 4331 
Q 1259 4600 1759 4600 
Q 2128 4600 2406 4451 
Q 2684 4303 2865 4023 
Q 3047 3744 3150 3342 
Q 3253 2941 3253 2259 
Q 3253 1453 3087 958 
Q 2922 463 2592 192 
Q 2263 -78 1759 -78 
Q 1097 -78 719 397 
Q 266 969 266 2259 
z
M 844 2259 
Q 844 1131 1108 757 
Q 1372 384 1759 384 
Q 2147 384 2411 759 
Q 2675 1134 2675 2259 
Q 2675 3391 2411 3762 
Q 2147 4134 1753 4134 
Q 1366 4134 1134 3806 
Q 844 3388 844 2259 
z
" transform="scale(0.015625)"/>
        <path id="ArialMT-2e" d="M 581 0 
L 581 641 
L 1222 641 
L 1222 0 
L 581 0 
z
" transform="scale(0.015625)"/>
       </defs>
       <use xlink:href="#ArialMT-30"/>
       <use xlink:href="#ArialMT-2e" x="55.615234"/>
       <use xlink:href="#ArialMT-30" x="83.398438"/>
      </g>
     </g>
    </g>
    <g id="ytick_2">
     <g id="line2d_4">
      <g>
       <use xlink:href="#mdca305729d" x="18" y="87.858411" style="stroke: #000000"/>
      </g>
     </g>
     <g id="text_4">
      <!-- 0.2 -->
      <g transform="translate(-2.9 91.437317) scale(0.1 -0.1)">
       <defs>
        <path id="ArialMT-32" d="M 3222 541 
L 3222 0 
L 194 0 
Q 188 203 259 391 
Q 375 700 629 1000 
Q 884 1300 1366 1694 
Q 2113 2306 2375 2664 
Q 2638 3022 2638 3341 
Q 2638 3675 2398 3904 
Q 2159 4134 1775 4134 
Q 1369 4134 1125 3890 
Q 881 3647 878 3216 
L 300 3275 
Q 359 3922 746 4261 
Q 1134 4600 1788 4600 
Q 2447 4600 2831 4234 
Q 3216 3869 3216 3328 
Q 3216 3053 3103 2787 
Q 2991 2522 2730 2228 
Q 2469 1934 1863 1422 
Q 1356 997 1212 845 
Q 1069 694 975 541 
L 3222 541 
z
" transform="scale(0.015625)"/>
       </defs>
       <use xlink:href="#ArialMT-30"/>
       <use xlink:href="#ArialMT-2e" x="55.615234"/>
       <use xlink:href="#ArialMT-32" x="83.398438"/>
      </g>
     </g>
    </g>
    <g id="ytick_3">
     <g id="line2d_5">
      <g>
       <use xlink:href="#mdca305729d" x="18" y="60.372821" style="stroke: #000000"/>
      </g>
     </g>
     <g id="text_5">
      <!-- 0.4 -->
      <g transform="translate(-2.9 63.951727) scale(0.1 -0.1)">
       <defs>
        <path id="ArialMT-34" d="M 2069 0 
L 2069 1097 
L 81 1097 
L 81 1613 
L 2172 4581 
L 2631 4581 
L 2631 1613 
L 3250 1613 
L 3250 1097 
L 2631 1097 
L 2631 0 
L 2069 0 
z
M 2069 1613 
L 2069 3678 
L 634 1613 
L 2069 1613 
z
" transform="scale(0.015625)"/>
       </defs>
       <use xlink:href="#ArialMT-30"/>
       <use xlink:href="#ArialMT-2e" x="55.615234"/>
       <use xlink:href="#ArialMT-34" x="83.398438"/>
      </g>
     </g>
    </g>
    <g id="ytick_4">
     <g id="line2d_6">
      <g>
       <use xlink:href="#mdca305729d" x="18" y="32.887232" style="stroke: #000000"/>
      </g>
     </g>
     <g id="text_6">
      <!-- 0.6 -->
      <g transform="translate(-2.9 36.466138) scale(0.1 -0.1)">
       <defs>
        <path id="ArialMT-36" d="M 3184 3459 
L 2625 3416 
Q 2550 3747 2413 3897 
Q 2184 4138 1850 4138 
Q 1581 4138 1378 3988 
Q 1113 3794 959 3422 
Q 806 3050 800 2363 
Q 1003 2672 1297 2822 
Q 1591 2972 1913 2972 
Q 2475 2972 2870 2558 
Q 3266 2144 3266 1488 
Q 3266 1056 3080 686 
Q 2894 316 2569 119 
Q 2244 -78 1831 -78 
Q 1128 -78 684 439 
Q 241 956 241 2144 
Q 241 3472 731 4075 
Q 1159 4600 1884 4600 
Q 2425 4600 2770 4297 
Q 3116 3994 3184 3459 
z
M 888 1484 
Q 888 1194 1011 928 
Q 1134 663 1356 523 
Q 1578 384 1822 384 
Q 2178 384 2434 671 
Q 2691 959 2691 1453 
Q 2691 1928 2437 2201 
Q 2184 2475 1800 2475 
Q 1419 2475 1153 2201 
Q 888 1928 888 1484 
z
" transform="scale(0.015625)"/>
       </defs>
       <use xlink:href="#ArialMT-30"/>
       <use xlink:href="#ArialMT-2e" x="55.615234"/>
       <use xlink:href="#ArialMT-36" x="83.398438"/>
      </g>
     </g>
    </g>
    <g id="text_7">
     <!-- best choice rate_rew -->
     <g transform="translate(-8.8875 111.580031) rotate(-90) scale(0.1 -0.1)">
      <defs>
       <path id="ArialMT-62" d="M 941 0 
L 419 0 
L 419 4581 
L 981 4581 
L 981 2947 
Q 1338 3394 1891 3394 
Q 2197 3394 2470 3270 
Q 2744 3147 2920 2923 
Q 3097 2700 3197 2384 
Q 3297 2069 3297 1709 
Q 3297 856 2875 390 
Q 2453 -75 1863 -75 
Q 1275 -75 941 416 
L 941 0 
z
M 934 1684 
Q 934 1088 1097 822 
Q 1363 388 1816 388 
Q 2184 388 2453 708 
Q 2722 1028 2722 1663 
Q 2722 2313 2464 2622 
Q 2206 2931 1841 2931 
Q 1472 2931 1203 2611 
Q 934 2291 934 1684 
z
" transform="scale(0.015625)"/>
       <path id="ArialMT-65" d="M 2694 1069 
L 3275 997 
Q 3138 488 2766 206 
Q 2394 -75 1816 -75 
Q 1088 -75 661 373 
Q 234 822 234 1631 
Q 234 2469 665 2931 
Q 1097 3394 1784 3394 
Q 2450 3394 2872 2941 
Q 3294 2488 3294 1666 
Q 3294 1616 3291 1516 
L 816 1516 
Q 847 969 1125 678 
Q 1403 388 1819 388 
Q 2128 388 2347 550 
Q 2566 713 2694 1069 
z
M 847 1978 
L 2700 1978 
Q 2663 2397 2488 2606 
Q 2219 2931 1791 2931 
Q 1403 2931 1139 2672 
Q 875 2413 847 1978 
z
" transform="scale(0.015625)"/>
       <path id="ArialMT-73" d="M 197 991 
L 753 1078 
Q 800 744 1014 566 
Q 1228 388 1613 388 
Q 2000 388 2187 545 
Q 2375 703 2375 916 
Q 2375 1106 2209 1216 
Q 2094 1291 1634 1406 
Q 1016 1563 777 1677 
Q 538 1791 414 1992 
Q 291 2194 291 2438 
Q 291 2659 392 2848 
Q 494 3038 669 3163 
Q 800 3259 1026 3326 
Q 1253 3394 1513 3394 
Q 1903 3394 2198 3281 
Q 2494 3169 2634 2976 
Q 2775 2784 2828 2463 
L 2278 2388 
Q 2241 2644 2061 2787 
Q 1881 2931 1553 2931 
Q 1166 2931 1000 2803 
Q 834 2675 834 2503 
Q 834 2394 903 2306 
Q 972 2216 1119 2156 
Q 1203 2125 1616 2013 
Q 2213 1853 2448 1751 
Q 2684 1650 2818 1456 
Q 2953 1263 2953 975 
Q 2953 694 2789 445 
Q 2625 197 2315 61 
Q 2006 -75 1616 -75 
Q 969 -75 630 194 
Q 291 463 197 991 
z
" transform="scale(0.015625)"/>
       <path id="ArialMT-74" d="M 1650 503 
L 1731 6 
Q 1494 -44 1306 -44 
Q 1000 -44 831 53 
Q 663 150 594 308 
Q 525 466 525 972 
L 525 2881 
L 113 2881 
L 113 3319 
L 525 3319 
L 525 4141 
L 1084 4478 
L 1084 3319 
L 1650 3319 
L 1650 2881 
L 1084 2881 
L 1084 941 
Q 1084 700 1114 631 
Q 1144 563 1211 522 
Q 1278 481 1403 481 
Q 1497 481 1650 503 
z
" transform="scale(0.015625)"/>
       <path id="ArialMT-20" transform="scale(0.015625)"/>
       <path id="ArialMT-63" d="M 2588 1216 
L 3141 1144 
Q 3050 572 2676 248 
Q 2303 -75 1759 -75 
Q 1078 -75 664 370 
Q 250 816 250 1647 
Q 250 2184 428 2587 
Q 606 2991 970 3192 
Q 1334 3394 1763 3394 
Q 2303 3394 2647 3120 
Q 2991 2847 3088 2344 
L 2541 2259 
Q 2463 2594 2264 2762 
Q 2066 2931 1784 2931 
Q 1359 2931 1093 2626 
Q 828 2322 828 1663 
Q 828 994 1084 691 
Q 1341 388 1753 388 
Q 2084 388 2306 591 
Q 2528 794 2588 1216 
z
" transform="scale(0.015625)"/>
       <path id="ArialMT-68" d="M 422 0 
L 422 4581 
L 984 4581 
L 984 2938 
Q 1378 3394 1978 3394 
Q 2347 3394 2619 3248 
Q 2891 3103 3008 2847 
Q 3125 2591 3125 2103 
L 3125 0 
L 2563 0 
L 2563 2103 
Q 2563 2525 2380 2717 
Q 2197 2909 1863 2909 
Q 1613 2909 1392 2779 
Q 1172 2650 1078 2428 
Q 984 2206 984 1816 
L 984 0 
L 422 0 
z
" transform="scale(0.015625)"/>
       <path id="ArialMT-6f" d="M 213 1659 
Q 213 2581 725 3025 
Q 1153 3394 1769 3394 
Q 2453 3394 2887 2945 
Q 3322 2497 3322 1706 
Q 3322 1066 3130 698 
Q 2938 331 2570 128 
Q 2203 -75 1769 -75 
Q 1072 -75 642 372 
Q 213 819 213 1659 
z
M 791 1659 
Q 791 1022 1069 705 
Q 1347 388 1769 388 
Q 2188 388 2466 706 
Q 2744 1025 2744 1678 
Q 2744 2294 2464 2611 
Q 2184 2928 1769 2928 
Q 1347 2928 1069 2612 
Q 791 2297 791 1659 
z
" transform="scale(0.015625)"/>
       <path id="ArialMT-69" d="M 425 3934 
L 425 4581 
L 988 4581 
L 988 3934 
L 425 3934 
z
M 425 0 
L 425 3319 
L 988 3319 
L 988 0 
L 425 0 
z
" transform="scale(0.015625)"/>
       <path id="ArialMT-72" d="M 416 0 
L 416 3319 
L 922 3319 
L 922 2816 
Q 1116 3169 1280 3281 
Q 1444 3394 1641 3394 
Q 1925 3394 2219 3213 
L 2025 2691 
Q 1819 2813 1613 2813 
Q 1428 2813 1281 2702 
Q 1134 2591 1072 2394 
Q 978 2094 978 1738 
L 978 0 
L 416 0 
z
" transform="scale(0.015625)"/>
       <path id="ArialMT-61" d="M 2588 409 
Q 2275 144 1986 34 
Q 1697 -75 1366 -75 
Q 819 -75 525 192 
Q 231 459 231 875 
Q 231 1119 342 1320 
Q 453 1522 633 1644 
Q 813 1766 1038 1828 
Q 1203 1872 1538 1913 
Q 2219 1994 2541 2106 
Q 2544 2222 2544 2253 
Q 2544 2597 2384 2738 
Q 2169 2928 1744 2928 
Q 1347 2928 1158 2789 
Q 969 2650 878 2297 
L 328 2372 
Q 403 2725 575 2942 
Q 747 3159 1072 3276 
Q 1397 3394 1825 3394 
Q 2250 3394 2515 3294 
Q 2781 3194 2906 3042 
Q 3031 2891 3081 2659 
Q 3109 2516 3109 2141 
L 3109 1391 
Q 3109 606 3145 398 
Q 3181 191 3288 0 
L 2700 0 
Q 2613 175 2588 409 
z
M 2541 1666 
Q 2234 1541 1622 1453 
Q 1275 1403 1131 1340 
Q 988 1278 909 1158 
Q 831 1038 831 891 
Q 831 666 1001 516 
Q 1172 366 1500 366 
Q 1825 366 2078 508 
Q 2331 650 2450 897 
Q 2541 1088 2541 1459 
L 2541 1666 
z
" transform="scale(0.015625)"/>
       <path id="ArialMT-5f" d="M -97 -1272 
L -97 -866 
L 3631 -866 
L 3631 -1272 
L -97 -1272 
z
" transform="scale(0.015625)"/>
       <path id="ArialMT-77" d="M 1034 0 
L 19 3319 
L 600 3319 
L 1128 1403 
L 1325 691 
Q 1338 744 1497 1375 
L 2025 3319 
L 2603 3319 
L 3100 1394 
L 3266 759 
L 3456 1400 
L 4025 3319 
L 4572 3319 
L 3534 0 
L 2950 0 
L 2422 1988 
L 2294 2553 
L 1622 0 
L 1034 0 
z
" transform="scale(0.015625)"/>
      </defs>
      <use xlink:href="#ArialMT-62"/>
      <use xlink:href="#ArialMT-65" x="55.615234"/>
      <use xlink:href="#ArialMT-73" x="111.230469"/>
      <use xlink:href="#ArialMT-74" x="161.230469"/>
      <use xlink:href="#ArialMT-20" x="189.013672"/>
      <use xlink:href="#ArialMT-63" x="216.796875"/>
      <use xlink:href="#ArialMT-68" x="266.796875"/>
      <use xlink:href="#ArialMT-6f" x="322.412109"/>
      <use xlink:href="#ArialMT-69" x="378.027344"/>
      <use xlink:href="#ArialMT-63" x="400.244141"/>
      <use xlink:href="#ArialMT-65" x="450.244141"/>
      <use xlink:href="#ArialMT-20" x="505.859375"/>
      <use xlink:href="#ArialMT-72" x="533.642578"/>
      <use xlink:href="#ArialMT-61" x="566.943359"/>
      <use xlink:href="#ArialMT-74" x="622.558594"/>
      <use xlink:href="#ArialMT-65" x="650.341797"/>
      <use xlink:href="#ArialMT-5f" x="705.957031"/>
      <use xlink:href="#ArialMT-72" x="761.572266"/>
      <use xlink:href="#ArialMT-65" x="794.873047"/>
      <use xlink:href="#ArialMT-77" x="850.488281"/>
     </g>
    </g>
   </g>
   <g id="PathCollection_1">
    <defs>
     <path id="C0_0_042bec0c2b" d="M 0 3.5 
C 0.928211 3.5 1.81853 3.131218 2.474874 2.474874 
C 3.131218 1.81853 3.5 0.928211 3.5 -0 
C 3.5 -0.928211 3.131218 -1.81853 2.474874 -2.474874 
C 1.81853 -3.131218 0.928211 -3.5 0 -3.5 
C -0.928211 -3.5 -1.81853 -3.131218 -2.474874 -2.474874 
C -3.131218 -1.81853 -3.5 -0.928211 -3.5 0 
C -3.5 0.928211 -3.131218 1.81853 -2.474874 2.474874 
C -1.81853 3.131218 -0.928211 3.5 0 3.5 
z
"/>
    </defs>
    <g clip-path="url(#p391bba318d)">
     <use xlink:href="#C0_0_042bec0c2b" x="36.676883" y="64.495659" style="fill: #174263; fill-opacity: 0.45"/>
    </g>
    <g clip-path="url(#p391bba318d)">
     <use xlink:href="#C0_0_042bec0c2b" x="36.258027" y="38.384349" style="fill: #174263; fill-opacity: 0.45"/>
    </g>
    <g clip-path="url(#p391bba318d)">
     <use xlink:href="#C0_0_042bec0c2b" x="36.468875" y="56.249983" style="fill: #174263; fill-opacity: 0.45"/>
    </g>
    <g clip-path="url(#p391bba318d)">
     <use xlink:href="#C0_0_042bec0c2b" x="36.333372" y="46.630026" style="fill: #174263; fill-opacity: 0.45"/>
    </g>
    <g clip-path="url(#p391bba318d)">
     <use xlink:href="#C0_0_042bec0c2b" x="33.144405" y="69.992777" style="fill: #174263; fill-opacity: 0.45"/>
    </g>
    <g clip-path="url(#p391bba318d)">
     <use xlink:href="#C0_0_042bec0c2b" x="33.005957" y="50.752865" style="fill: #174263; fill-opacity: 0.45"/>
    </g>
    <g clip-path="url(#p391bba318d)">
     <use xlink:href="#C0_0_042bec0c2b" x="32.231371" y="61.7471" style="fill: #174263; fill-opacity: 0.45"/>
    </g>
    <g clip-path="url(#p391bba318d)">
     <use xlink:href="#C0_0_042bec0c2b" x="32.375784" y="53.501424" style="fill: #174263; fill-opacity: 0.45"/>
    </g>
    <g clip-path="url(#p391bba318d)">
     <use xlink:href="#C0_0_042bec0c2b" x="37.270024" y="35.63579" style="fill: #174263; fill-opacity: 0.45"/>
    </g>
    <g clip-path="url(#p391bba318d)">
     <use xlink:href="#C0_0_042bec0c2b" x="34.461059" y="64.495659" style="fill: #174263; fill-opacity: 0.45"/>
    </g>
    <g clip-path="url(#p391bba318d)">
     <use xlink:href="#C0_0_042bec0c2b" x="32.397964" y="60.372821" style="fill: #174263; fill-opacity: 0.45"/>
    </g>
    <g clip-path="url(#p391bba318d)">
     <use xlink:href="#C0_0_042bec0c2b" x="33.847642" y="64.495659" style="fill: #174263; fill-opacity: 0.45"/>
    </g>
    <g clip-path="url(#p391bba318d)">
     <use xlink:href="#C0_0_042bec0c2b" x="34.11428" y="50.752865" style="fill: #174263; fill-opacity: 0.45"/>
    </g>
    <g clip-path="url(#p391bba318d)">
     <use xlink:href="#C0_0_042bec0c2b" x="33.045661" y="58.998542" style="fill: #174263; fill-opacity: 0.45"/>
    </g>
    <g clip-path="url(#p391bba318d)">
     <use xlink:href="#C0_0_042bec0c2b" x="33.236952" y="48.004306" style="fill: #174263; fill-opacity: 0.45"/>
    </g>
    <g clip-path="url(#p391bba318d)">
     <use xlink:href="#C0_0_042bec0c2b" x="36.586221" y="69.992777" style="fill: #174263; fill-opacity: 0.45"/>
    </g>
    <g clip-path="url(#p391bba318d)">
     <use xlink:href="#C0_0_042bec0c2b" x="36.578451" y="34.261511" style="fill: #174263; fill-opacity: 0.45"/>
    </g>
    <g clip-path="url(#p391bba318d)">
     <use xlink:href="#C0_0_042bec0c2b" x="34.132131" y="38.384349" style="fill: #174263; fill-opacity: 0.45"/>
    </g>
    <g clip-path="url(#p391bba318d)">
     <use xlink:href="#C0_0_042bec0c2b" x="34.381268" y="46.630026" style="fill: #174263; fill-opacity: 0.45"/>
    </g>
    <g clip-path="url(#p391bba318d)">
     <use xlink:href="#C0_0_042bec0c2b" x="36.613267" y="57.624262" style="fill: #174263; fill-opacity: 0.45"/>
    </g>
    <g clip-path="url(#p391bba318d)">
     <use xlink:href="#C0_0_042bec0c2b" x="32.596016" y="58.998542" style="fill: #174263; fill-opacity: 0.45"/>
    </g>
    <g clip-path="url(#p391bba318d)">
     <use xlink:href="#C0_0_042bec0c2b" x="33.147171" y="68.618498" style="fill: #174263; fill-opacity: 0.45"/>
    </g>
    <g clip-path="url(#p391bba318d)">
     <use xlink:href="#C0_0_042bec0c2b" x="36.932848" y="52.127144" style="fill: #174263; fill-opacity: 0.45"/>
    </g>
    <g clip-path="url(#p391bba318d)">
     <use xlink:href="#C0_0_042bec0c2b" x="32.480992" y="56.249983" style="fill: #174263; fill-opacity: 0.45"/>
    </g>
    <g clip-path="url(#p391bba318d)">
     <use xlink:href="#C0_0_042bec0c2b" x="33.731997" y="50.752865" style="fill: #174263; fill-opacity: 0.45"/>
    </g>
    <g clip-path="url(#p391bba318d)">
     <use xlink:href="#C0_0_042bec0c2b" x="32.520115" y="46.630026" style="fill: #174263; fill-opacity: 0.45"/>
    </g>
    <g clip-path="url(#p391bba318d)">
     <use xlink:href="#C0_0_042bec0c2b" x="32.741724" y="46.630026" style="fill: #174263; fill-opacity: 0.45"/>
    </g>
    <g clip-path="url(#p391bba318d)">
     <use xlink:href="#C0_0_042bec0c2b" x="33.834852" y="71.367057" style="fill: #174263; fill-opacity: 0.45"/>
    </g>
    <g clip-path="url(#p391bba318d)">
     <use xlink:href="#C0_0_042bec0c2b" x="32.476089" y="50.752865" style="fill: #174263; fill-opacity: 0.45"/>
    </g>
    <g clip-path="url(#p391bba318d)">
     <use xlink:href="#C0_0_042bec0c2b" x="36.942056" y="63.12138" style="fill: #174263; fill-opacity: 0.45"/>
    </g>
    <g clip-path="url(#p391bba318d)">
     <use xlink:href="#C0_0_042bec0c2b" x="34.363106" y="64.495659" style="fill: #174263; fill-opacity: 0.45"/>
    </g>
    <g clip-path="url(#p391bba318d)">
     <use xlink:href="#C0_0_042bec0c2b" x="33.948143" y="72.741336" style="fill: #174263; fill-opacity: 0.45"/>
    </g>
    <g clip-path="url(#p391bba318d)">
     <use xlink:href="#C0_0_042bec0c2b" x="37.000141" y="75.489895" style="fill: #174263; fill-opacity: 0.45"/>
    </g>
    <g clip-path="url(#p391bba318d)">
     <use xlink:href="#C0_0_042bec0c2b" x="34.546998" y="74.115616" style="fill: #174263; fill-opacity: 0.45"/>
    </g>
    <g clip-path="url(#p391bba318d)">
     <use xlink:href="#C0_0_042bec0c2b" x="32.644815" y="74.115616" style="fill: #174263; fill-opacity: 0.45"/>
    </g>
    <g clip-path="url(#p391bba318d)">
     <use xlink:href="#C0_0_042bec0c2b" x="35.327628" y="75.489895" style="fill: #174263; fill-opacity: 0.45"/>
    </g>
    <g clip-path="url(#p391bba318d)">
     <use xlink:href="#C0_0_042bec0c2b" x="35.500829" y="60.372821" style="fill: #174263; fill-opacity: 0.45"/>
    </g>
    <g clip-path="url(#p391bba318d)">
     <use xlink:href="#C0_0_042bec0c2b" x="32.557647" y="74.115616" style="fill: #174263; fill-opacity: 0.45"/>
    </g>
   </g>
   <g id="PathCollection_2">
    <defs>
     <path id="C1_0_fa8f927771" d="M 0 3.5 
C 0.928211 3.5 1.81853 3.131218 2.474874 2.474874 
C 3.131218 1.81853 3.5 0.928211 3.5 -0 
C 3.5 -0.928211 3.131218 -1.81853 2.474874 -2.474874 
C 1.81853 -3.131218 0.928211 -3.5 0 -3.5 
C -0.928211 -3.5 -1.81853 -3.131218 -2.474874 -2.474874 
C -3.131218 -1.81853 -3.5 -0.928211 -3.5 0 
C -3.5 0.928211 -3.131218 1.81853 -2.474874 2.474874 
C -1.81853 3.131218 -0.928211 3.5 0 3.5 
z
"/>
    </defs>
    <g clip-path="url(#p391bba318d)">
     <use xlink:href="#C1_0_fa8f927771" x="58.773752" y="61.7471" style="fill: #d75728; fill-opacity: 0.45"/>
    </g>
    <g clip-path="url(#p391bba318d)">
     <use xlink:href="#C1_0_fa8f927771" x="56.33755" y="63.12138" style="fill: #d75728; fill-opacity: 0.45"/>
    </g>
    <g clip-path="url(#p391bba318d)">
     <use xlink:href="#C1_0_fa8f927771" x="59.209385" y="50.752865" style="fill: #d75728; fill-opacity: 0.45"/>
    </g>
    <g clip-path="url(#p391bba318d)">
     <use xlink:href="#C1_0_fa8f927771" x="58.646564" y="65.869939" style="fill: #d75728; fill-opacity: 0.45"/>
    </g>
    <g clip-path="url(#p391bba318d)">
     <use xlink:href="#C1_0_fa8f927771" x="56.807839" y="75.489895" style="fill: #d75728; fill-opacity: 0.45"/>
    </g>
    <g clip-path="url(#p391bba318d)">
     <use xlink:href="#C1_0_fa8f927771" x="55.105818" y="72.741336" style="fill: #d75728; fill-opacity: 0.45"/>
    </g>
    <g clip-path="url(#p391bba318d)">
     <use xlink:href="#C1_0_fa8f927771" x="57.358811" y="64.495659" style="fill: #d75728; fill-opacity: 0.45"/>
    </g>
    <g clip-path="url(#p391bba318d)">
     <use xlink:href="#C1_0_fa8f927771" x="59.298955" y="69.992777" style="fill: #d75728; fill-opacity: 0.45"/>
    </g>
    <g clip-path="url(#p391bba318d)">
     <use xlink:href="#C1_0_fa8f927771" x="55.846618" y="76.864175" style="fill: #d75728; fill-opacity: 0.45"/>
    </g>
    <g clip-path="url(#p391bba318d)">
     <use xlink:href="#C1_0_fa8f927771" x="58.605332" y="71.367057" style="fill: #d75728; fill-opacity: 0.45"/>
    </g>
    <g clip-path="url(#p391bba318d)">
     <use xlink:href="#C1_0_fa8f927771" x="54.731894" y="71.367057" style="fill: #d75728; fill-opacity: 0.45"/>
    </g>
    <g clip-path="url(#p391bba318d)">
     <use xlink:href="#C1_0_fa8f927771" x="59.367748" y="67.244218" style="fill: #d75728; fill-opacity: 0.45"/>
    </g>
    <g clip-path="url(#p391bba318d)">
     <use xlink:href="#C1_0_fa8f927771" x="54.723262" y="82.361293" style="fill: #d75728; fill-opacity: 0.45"/>
    </g>
    <g clip-path="url(#p391bba318d)">
     <use xlink:href="#C1_0_fa8f927771" x="55.772722" y="60.372821" style="fill: #d75728; fill-opacity: 0.45"/>
    </g>
    <g clip-path="url(#p391bba318d)">
     <use xlink:href="#C1_0_fa8f927771" x="57.928979" y="54.875703" style="fill: #d75728; fill-opacity: 0.45"/>
    </g>
    <g clip-path="url(#p391bba318d)">
     <use xlink:href="#C1_0_fa8f927771" x="59.451713" y="72.741336" style="fill: #d75728; fill-opacity: 0.45"/>
    </g>
    <g clip-path="url(#p391bba318d)">
     <use xlink:href="#C1_0_fa8f927771" x="58.635049" y="67.244218" style="fill: #d75728; fill-opacity: 0.45"/>
    </g>
    <g clip-path="url(#p391bba318d)">
     <use xlink:href="#C1_0_fa8f927771" x="58.673354" y="69.992777" style="fill: #d75728; fill-opacity: 0.45"/>
    </g>
    <g clip-path="url(#p391bba318d)">
     <use xlink:href="#C1_0_fa8f927771" x="54.441793" y="69.992777" style="fill: #d75728; fill-opacity: 0.45"/>
    </g>
    <g clip-path="url(#p391bba318d)">
     <use xlink:href="#C1_0_fa8f927771" x="56.352095" y="53.501424" style="fill: #d75728; fill-opacity: 0.45"/>
    </g>
    <g clip-path="url(#p391bba318d)">
     <use xlink:href="#C1_0_fa8f927771" x="55.095019" y="67.244218" style="fill: #d75728; fill-opacity: 0.45"/>
    </g>
    <g clip-path="url(#p391bba318d)">
     <use xlink:href="#C1_0_fa8f927771" x="56.133221" y="63.12138" style="fill: #d75728; fill-opacity: 0.45"/>
    </g>
    <g clip-path="url(#p391bba318d)">
     <use xlink:href="#C1_0_fa8f927771" x="59.196692" y="61.7471" style="fill: #d75728; fill-opacity: 0.45"/>
    </g>
    <g clip-path="url(#p391bba318d)">
     <use xlink:href="#C1_0_fa8f927771" x="56.600626" y="49.378585" style="fill: #d75728; fill-opacity: 0.45"/>
    </g>
    <g clip-path="url(#p391bba318d)">
     <use xlink:href="#C1_0_fa8f927771" x="59.685163" y="60.372821" style="fill: #d75728; fill-opacity: 0.45"/>
    </g>
    <g clip-path="url(#p391bba318d)">
     <use xlink:href="#C1_0_fa8f927771" x="55.250151" y="79.612734" style="fill: #d75728; fill-opacity: 0.45"/>
    </g>
    <g clip-path="url(#p391bba318d)">
     <use xlink:href="#C1_0_fa8f927771" x="55.171252" y="72.741336" style="fill: #d75728; fill-opacity: 0.45"/>
    </g>
    <g clip-path="url(#p391bba318d)">
     <use xlink:href="#C1_0_fa8f927771" x="56.069296" y="43.881467" style="fill: #d75728; fill-opacity: 0.45"/>
    </g>
    <g clip-path="url(#p391bba318d)">
     <use xlink:href="#C1_0_fa8f927771" x="55.958969" y="49.378585" style="fill: #d75728; fill-opacity: 0.45"/>
    </g>
    <g clip-path="url(#p391bba318d)">
     <use xlink:href="#C1_0_fa8f927771" x="57.796965" y="68.618498" style="fill: #d75728; fill-opacity: 0.45"/>
    </g>
    <g clip-path="url(#p391bba318d)">
     <use xlink:href="#C1_0_fa8f927771" x="57.996852" y="76.864175" style="fill: #d75728; fill-opacity: 0.45"/>
    </g>
    <g clip-path="url(#p391bba318d)">
     <use xlink:href="#C1_0_fa8f927771" x="56.530918" y="67.244218" style="fill: #d75728; fill-opacity: 0.45"/>
    </g>
    <g clip-path="url(#p391bba318d)">
     <use xlink:href="#C1_0_fa8f927771" x="59.526268" y="71.367057" style="fill: #d75728; fill-opacity: 0.45"/>
    </g>
    <g clip-path="url(#p391bba318d)">
     <use xlink:href="#C1_0_fa8f927771" x="56.875733" y="67.244218" style="fill: #d75728; fill-opacity: 0.45"/>
    </g>
    <g clip-path="url(#p391bba318d)">
     <use xlink:href="#C1_0_fa8f927771" x="58.841375" y="63.12138" style="fill: #d75728; fill-opacity: 0.45"/>
    </g>
    <g clip-path="url(#p391bba318d)">
     <use xlink:href="#C1_0_fa8f927771" x="55.037372" y="46.630026" style="fill: #d75728; fill-opacity: 0.45"/>
    </g>
    <g clip-path="url(#p391bba318d)">
     <use xlink:href="#C1_0_fa8f927771" x="57.647246" y="56.249983" style="fill: #d75728; fill-opacity: 0.45"/>
    </g>
    <g clip-path="url(#p391bba318d)">
     <use xlink:href="#C1_0_fa8f927771" x="58.638647" y="63.12138" style="fill: #d75728; fill-opacity: 0.45"/>
    </g>
   </g>
   <g id="PathCollection_3">
    <defs>
     <path id="C2_0_8dcabe7263" d="M 0 3.5 
C 0.928211 3.5 1.81853 3.131218 2.474874 2.474874 
C 3.131218 1.81853 3.5 0.928211 3.5 -0 
C 3.5 -0.928211 3.131218 -1.81853 2.474874 -2.474874 
C 1.81853 -3.131218 0.928211 -3.5 0 -3.5 
C -0.928211 -3.5 -1.81853 -3.131218 -2.474874 -2.474874 
C -3.131218 -1.81853 -3.5 -0.928211 -3.5 0 
C -3.5 0.928211 -3.131218 1.81853 -2.474874 2.474874 
C -1.81853 3.131218 -0.928211 3.5 0 3.5 
z
"/>
    </defs>
    <g clip-path="url(#p391bba318d)">
     <use xlink:href="#C2_0_8dcabe7263" x="93.280913" y="57.624262" style="fill: #174263; fill-opacity: 0.45"/>
    </g>
    <g clip-path="url(#p391bba318d)">
     <use xlink:href="#C2_0_8dcabe7263" x="90.514858" y="48.004306" style="fill: #174263; fill-opacity: 0.45"/>
    </g>
    <g clip-path="url(#p391bba318d)">
     <use xlink:href="#C2_0_8dcabe7263" x="92.497743" y="60.372821" style="fill: #174263; fill-opacity: 0.45"/>
    </g>
    <g clip-path="url(#p391bba318d)">
     <use xlink:href="#C2_0_8dcabe7263" x="91.835921" y="61.7471" style="fill: #174263; fill-opacity: 0.45"/>
    </g>
    <g clip-path="url(#p391bba318d)">
     <use xlink:href="#C2_0_8dcabe7263" x="88.673671" y="60.372821" style="fill: #174263; fill-opacity: 0.45"/>
    </g>
    <g clip-path="url(#p391bba318d)">
     <use xlink:href="#C2_0_8dcabe7263" x="88.99571" y="41.132908" style="fill: #174263; fill-opacity: 0.45"/>
    </g>
    <g clip-path="url(#p391bba318d)">
     <use xlink:href="#C2_0_8dcabe7263" x="92.16534" y="57.624262" style="fill: #174263; fill-opacity: 0.45"/>
    </g>
    <g clip-path="url(#p391bba318d)">
     <use xlink:href="#C2_0_8dcabe7263" x="89.905201" y="46.630026" style="fill: #174263; fill-opacity: 0.45"/>
    </g>
    <g clip-path="url(#p391bba318d)">
     <use xlink:href="#C2_0_8dcabe7263" x="90.203187" y="54.875703" style="fill: #174263; fill-opacity: 0.45"/>
    </g>
    <g clip-path="url(#p391bba318d)">
     <use xlink:href="#C2_0_8dcabe7263" x="91.081391" y="54.875703" style="fill: #174263; fill-opacity: 0.45"/>
    </g>
    <g clip-path="url(#p391bba318d)">
     <use xlink:href="#C2_0_8dcabe7263" x="90.400528" y="46.630026" style="fill: #174263; fill-opacity: 0.45"/>
    </g>
    <g clip-path="url(#p391bba318d)">
     <use xlink:href="#C2_0_8dcabe7263" x="88.62888" y="42.507188" style="fill: #174263; fill-opacity: 0.45"/>
    </g>
    <g clip-path="url(#p391bba318d)">
     <use xlink:href="#C2_0_8dcabe7263" x="90.731615" y="60.372821" style="fill: #174263; fill-opacity: 0.45"/>
    </g>
    <g clip-path="url(#p391bba318d)">
     <use xlink:href="#C2_0_8dcabe7263" x="92.924412" y="68.618498" style="fill: #174263; fill-opacity: 0.45"/>
    </g>
    <g clip-path="url(#p391bba318d)">
     <use xlink:href="#C2_0_8dcabe7263" x="89.63626" y="30.138673" style="fill: #174263; fill-opacity: 0.45"/>
    </g>
    <g clip-path="url(#p391bba318d)">
     <use xlink:href="#C2_0_8dcabe7263" x="89.042565" y="46.630026" style="fill: #174263; fill-opacity: 0.45"/>
    </g>
    <g clip-path="url(#p391bba318d)">
     <use xlink:href="#C2_0_8dcabe7263" x="91.821488" y="58.998542" style="fill: #174263; fill-opacity: 0.45"/>
    </g>
    <g clip-path="url(#p391bba318d)">
     <use xlink:href="#C2_0_8dcabe7263" x="91.171713" y="49.378585" style="fill: #174263; fill-opacity: 0.45"/>
    </g>
    <g clip-path="url(#p391bba318d)">
     <use xlink:href="#C2_0_8dcabe7263" x="87.867929" y="58.998542" style="fill: #174263; fill-opacity: 0.45"/>
    </g>
    <g clip-path="url(#p391bba318d)">
     <use xlink:href="#C2_0_8dcabe7263" x="90.821062" y="54.875703" style="fill: #174263; fill-opacity: 0.45"/>
    </g>
    <g clip-path="url(#p391bba318d)">
     <use xlink:href="#C2_0_8dcabe7263" x="91.315717" y="67.244218" style="fill: #174263; fill-opacity: 0.45"/>
    </g>
    <g clip-path="url(#p391bba318d)">
     <use xlink:href="#C2_0_8dcabe7263" x="91.773762" y="53.501424" style="fill: #174263; fill-opacity: 0.45"/>
    </g>
    <g clip-path="url(#p391bba318d)">
     <use xlink:href="#C2_0_8dcabe7263" x="89.383976" y="57.624262" style="fill: #174263; fill-opacity: 0.45"/>
    </g>
    <g clip-path="url(#p391bba318d)">
     <use xlink:href="#C2_0_8dcabe7263" x="89.456607" y="68.618498" style="fill: #174263; fill-opacity: 0.45"/>
    </g>
    <g clip-path="url(#p391bba318d)">
     <use xlink:href="#C2_0_8dcabe7263" x="87.834194" y="68.618498" style="fill: #174263; fill-opacity: 0.45"/>
    </g>
    <g clip-path="url(#p391bba318d)">
     <use xlink:href="#C2_0_8dcabe7263" x="91.030593" y="64.495659" style="fill: #174263; fill-opacity: 0.45"/>
    </g>
    <g clip-path="url(#p391bba318d)">
     <use xlink:href="#C2_0_8dcabe7263" x="90.28821" y="72.741336" style="fill: #174263; fill-opacity: 0.45"/>
    </g>
    <g clip-path="url(#p391bba318d)">
     <use xlink:href="#C2_0_8dcabe7263" x="88.80629" y="67.244218" style="fill: #174263; fill-opacity: 0.45"/>
    </g>
    <g clip-path="url(#p391bba318d)">
     <use xlink:href="#C2_0_8dcabe7263" x="89.660409" y="69.992777" style="fill: #174263; fill-opacity: 0.45"/>
    </g>
    <g clip-path="url(#p391bba318d)">
     <use xlink:href="#C2_0_8dcabe7263" x="88.553562" y="69.992777" style="fill: #174263; fill-opacity: 0.45"/>
    </g>
    <g clip-path="url(#p391bba318d)">
     <use xlink:href="#C2_0_8dcabe7263" x="87.835419" y="74.115616" style="fill: #174263; fill-opacity: 0.45"/>
    </g>
    <g clip-path="url(#p391bba318d)">
     <use xlink:href="#C2_0_8dcabe7263" x="90.877499" y="60.372821" style="fill: #174263; fill-opacity: 0.45"/>
    </g>
    <g clip-path="url(#p391bba318d)">
     <use xlink:href="#C2_0_8dcabe7263" x="92.761207" y="57.624262" style="fill: #174263; fill-opacity: 0.45"/>
    </g>
    <g clip-path="url(#p391bba318d)">
     <use xlink:href="#C2_0_8dcabe7263" x="89.400649" y="69.992777" style="fill: #174263; fill-opacity: 0.45"/>
    </g>
    <g clip-path="url(#p391bba318d)">
     <use xlink:href="#C2_0_8dcabe7263" x="88.911836" y="57.624262" style="fill: #174263; fill-opacity: 0.45"/>
    </g>
    <g clip-path="url(#p391bba318d)">
     <use xlink:href="#C2_0_8dcabe7263" x="91.687552" y="72.741336" style="fill: #174263; fill-opacity: 0.45"/>
    </g>
    <g clip-path="url(#p391bba318d)">
     <use xlink:href="#C2_0_8dcabe7263" x="90.870391" y="76.864175" style="fill: #174263; fill-opacity: 0.45"/>
    </g>
    <g clip-path="url(#p391bba318d)">
     <use xlink:href="#C2_0_8dcabe7263" x="90.356401" y="75.489895" style="fill: #174263; fill-opacity: 0.45"/>
    </g>
    <g clip-path="url(#p391bba318d)">
     <use xlink:href="#C2_0_8dcabe7263" x="92.380858" y="58.998542" style="fill: #174263; fill-opacity: 0.45"/>
    </g>
    <g clip-path="url(#p391bba318d)">
     <use xlink:href="#C2_0_8dcabe7263" x="89.846196" y="58.998542" style="fill: #174263; fill-opacity: 0.45"/>
    </g>
    <g clip-path="url(#p391bba318d)">
     <use xlink:href="#C2_0_8dcabe7263" x="93.239777" y="68.618498" style="fill: #174263; fill-opacity: 0.45"/>
    </g>
   </g>
   <g id="PathCollection_4">
    <defs>
     <path id="C3_0_e089872bed" d="M 0 3.5 
C 0.928211 3.5 1.81853 3.131218 2.474874 2.474874 
C 3.131218 1.81853 3.5 0.928211 3.5 -0 
C 3.5 -0.928211 3.131218 -1.81853 2.474874 -2.474874 
C 1.81853 -3.131218 0.928211 -3.5 0 -3.5 
C -0.928211 -3.5 -1.81853 -3.131218 -2.474874 -2.474874 
C -3.131218 -1.81853 -3.5 -0.928211 -3.5 0 
C -3.5 0.928211 -3.131218 1.81853 -2.474874 2.474874 
C -1.81853 3.131218 -0.928211 3.5 0 3.5 
z
"/>
    </defs>
    <g clip-path="url(#p391bba318d)">
     <use xlink:href="#C3_0_e089872bed" x="112.437104" y="68.618498" style="fill: #d75728; fill-opacity: 0.45"/>
    </g>
    <g clip-path="url(#p391bba318d)">
     <use xlink:href="#C3_0_e089872bed" x="113.151863" y="65.869939" style="fill: #d75728; fill-opacity: 0.45"/>
    </g>
    <g clip-path="url(#p391bba318d)">
     <use xlink:href="#C3_0_e089872bed" x="113.904572" y="61.7471" style="fill: #d75728; fill-opacity: 0.45"/>
    </g>
    <g clip-path="url(#p391bba318d)">
     <use xlink:href="#C3_0_e089872bed" x="114.120496" y="60.372821" style="fill: #d75728; fill-opacity: 0.45"/>
    </g>
    <g clip-path="url(#p391bba318d)">
     <use xlink:href="#C3_0_e089872bed" x="113.371143" y="63.12138" style="fill: #d75728; fill-opacity: 0.45"/>
    </g>
    <g clip-path="url(#p391bba318d)">
     <use xlink:href="#C3_0_e089872bed" x="110.43212" y="76.864175" style="fill: #d75728; fill-opacity: 0.45"/>
    </g>
    <g clip-path="url(#p391bba318d)">
     <use xlink:href="#C3_0_e089872bed" x="113.00598" y="63.12138" style="fill: #d75728; fill-opacity: 0.45"/>
    </g>
    <g clip-path="url(#p391bba318d)">
     <use xlink:href="#C3_0_e089872bed" x="113.521509" y="46.630026" style="fill: #d75728; fill-opacity: 0.45"/>
    </g>
    <g clip-path="url(#p391bba318d)">
     <use xlink:href="#C3_0_e089872bed" x="110.842843" y="65.869939" style="fill: #d75728; fill-opacity: 0.45"/>
    </g>
    <g clip-path="url(#p391bba318d)">
     <use xlink:href="#C3_0_e089872bed" x="111.35871" y="57.624262" style="fill: #d75728; fill-opacity: 0.45"/>
    </g>
    <g clip-path="url(#p391bba318d)">
     <use xlink:href="#C3_0_e089872bed" x="113.739981" y="63.12138" style="fill: #d75728; fill-opacity: 0.45"/>
    </g>
    <g clip-path="url(#p391bba318d)">
     <use xlink:href="#C3_0_e089872bed" x="113.986234" y="65.869939" style="fill: #d75728; fill-opacity: 0.45"/>
    </g>
    <g clip-path="url(#p391bba318d)">
     <use xlink:href="#C3_0_e089872bed" x="112.398459" y="63.12138" style="fill: #d75728; fill-opacity: 0.45"/>
    </g>
    <g clip-path="url(#p391bba318d)">
     <use xlink:href="#C3_0_e089872bed" x="111.680142" y="52.127144" style="fill: #d75728; fill-opacity: 0.45"/>
    </g>
    <g clip-path="url(#p391bba318d)">
     <use xlink:href="#C3_0_e089872bed" x="111.546936" y="63.12138" style="fill: #d75728; fill-opacity: 0.45"/>
    </g>
    <g clip-path="url(#p391bba318d)">
     <use xlink:href="#C3_0_e089872bed" x="113.169966" y="86.484131" style="fill: #d75728; fill-opacity: 0.45"/>
    </g>
    <g clip-path="url(#p391bba318d)">
     <use xlink:href="#C3_0_e089872bed" x="110.171487" y="68.618498" style="fill: #d75728; fill-opacity: 0.45"/>
    </g>
    <g clip-path="url(#p391bba318d)">
     <use xlink:href="#C3_0_e089872bed" x="113.376692" y="65.869939" style="fill: #d75728; fill-opacity: 0.45"/>
    </g>
    <g clip-path="url(#p391bba318d)">
     <use xlink:href="#C3_0_e089872bed" x="114.582348" y="71.367057" style="fill: #d75728; fill-opacity: 0.45"/>
    </g>
    <g clip-path="url(#p391bba318d)">
     <use xlink:href="#C3_0_e089872bed" x="112.050055" y="79.612734" style="fill: #d75728; fill-opacity: 0.45"/>
    </g>
    <g clip-path="url(#p391bba318d)">
     <use xlink:href="#C3_0_e089872bed" x="113.830954" y="65.869939" style="fill: #d75728; fill-opacity: 0.45"/>
    </g>
    <g clip-path="url(#p391bba318d)">
     <use xlink:href="#C3_0_e089872bed" x="114.217718" y="71.367057" style="fill: #d75728; fill-opacity: 0.45"/>
    </g>
    <g clip-path="url(#p391bba318d)">
     <use xlink:href="#C3_0_e089872bed" x="110.949292" y="67.244218" style="fill: #d75728; fill-opacity: 0.45"/>
    </g>
    <g clip-path="url(#p391bba318d)">
     <use xlink:href="#C3_0_e089872bed" x="113.2439" y="65.869939" style="fill: #d75728; fill-opacity: 0.45"/>
    </g>
    <g clip-path="url(#p391bba318d)">
     <use xlink:href="#C3_0_e089872bed" x="115.172318" y="75.489895" style="fill: #d75728; fill-opacity: 0.45"/>
    </g>
    <g clip-path="url(#p391bba318d)">
     <use xlink:href="#C3_0_e089872bed" x="114.996994" y="79.612734" style="fill: #d75728; fill-opacity: 0.45"/>
    </g>
    <g clip-path="url(#p391bba318d)">
     <use xlink:href="#C3_0_e089872bed" x="110.406901" y="72.741336" style="fill: #d75728; fill-opacity: 0.45"/>
    </g>
    <g clip-path="url(#p391bba318d)">
     <use xlink:href="#C3_0_e089872bed" x="114.598583" y="75.489895" style="fill: #d75728; fill-opacity: 0.45"/>
    </g>
    <g clip-path="url(#p391bba318d)">
     <use xlink:href="#C3_0_e089872bed" x="110.955751" y="72.741336" style="fill: #d75728; fill-opacity: 0.45"/>
    </g>
    <g clip-path="url(#p391bba318d)">
     <use xlink:href="#C3_0_e089872bed" x="110.480621" y="64.495659" style="fill: #d75728; fill-opacity: 0.45"/>
    </g>
    <g clip-path="url(#p391bba318d)">
     <use xlink:href="#C3_0_e089872bed" x="114.938862" y="50.752865" style="fill: #d75728; fill-opacity: 0.45"/>
    </g>
    <g clip-path="url(#p391bba318d)">
     <use xlink:href="#C3_0_e089872bed" x="110.34744" y="76.864175" style="fill: #d75728; fill-opacity: 0.45"/>
    </g>
    <g clip-path="url(#p391bba318d)">
     <use xlink:href="#C3_0_e089872bed" x="110.806596" y="64.495659" style="fill: #d75728; fill-opacity: 0.45"/>
    </g>
    <g clip-path="url(#p391bba318d)">
     <use xlink:href="#C3_0_e089872bed" x="111.371324" y="67.244218" style="fill: #d75728; fill-opacity: 0.45"/>
    </g>
    <g clip-path="url(#p391bba318d)">
     <use xlink:href="#C3_0_e089872bed" x="110.090408" y="69.992777" style="fill: #d75728; fill-opacity: 0.45"/>
    </g>
    <g clip-path="url(#p391bba318d)">
     <use xlink:href="#C3_0_e089872bed" x="115.335747" y="56.249983" style="fill: #d75728; fill-opacity: 0.45"/>
    </g>
    <g clip-path="url(#p391bba318d)">
     <use xlink:href="#C3_0_e089872bed" x="114.213659" y="74.115616" style="fill: #d75728; fill-opacity: 0.45"/>
    </g>
    <g clip-path="url(#p391bba318d)">
     <use xlink:href="#C3_0_e089872bed" x="113.890298" y="64.495659" style="fill: #d75728; fill-opacity: 0.45"/>
    </g>
    <g clip-path="url(#p391bba318d)">
     <use xlink:href="#C3_0_e089872bed" x="115.459912" y="58.998542" style="fill: #d75728; fill-opacity: 0.45"/>
    </g>
    <g clip-path="url(#p391bba318d)">
     <use xlink:href="#C3_0_e089872bed" x="112.508475" y="54.875703" style="fill: #d75728; fill-opacity: 0.45"/>
    </g>
    <g clip-path="url(#p391bba318d)">
     <use xlink:href="#C3_0_e089872bed" x="114.267836" y="69.992777" style="fill: #d75728; fill-opacity: 0.45"/>
    </g>
    <g clip-path="url(#p391bba318d)">
     <use xlink:href="#C3_0_e089872bed" x="111.988727" y="58.998542" style="fill: #d75728; fill-opacity: 0.45"/>
    </g>
    <g clip-path="url(#p391bba318d)">
     <use xlink:href="#C3_0_e089872bed" x="114.389544" y="60.372821" style="fill: #d75728; fill-opacity: 0.45"/>
    </g>
    <g clip-path="url(#p391bba318d)">
     <use xlink:href="#C3_0_e089872bed" x="113.965496" y="79.612734" style="fill: #d75728; fill-opacity: 0.45"/>
    </g>
    <g clip-path="url(#p391bba318d)">
     <use xlink:href="#C3_0_e089872bed" x="111.018376" y="49.378585" style="fill: #d75728; fill-opacity: 0.45"/>
    </g>
   </g>
   <g id="line2d_7">
    <path d="M 33.2055 69.870016 
L 36.2745 69.870016 
M 34.74 69.870016 
L 34.74 46.318804 
M 33.2055 46.318804 
L 36.2745 46.318804 
" clip-path="url(#p391bba318d)" style="fill: none; stroke: #333333; stroke-width: 2.5; stroke-linecap: square"/>
   </g>
   <g id="line2d_8">
    <path d="M 89.0055 70.137431 
L 92.0745 70.137431 
M 90.54 70.137431 
L 90.54 49.468564 
M 89.0055 49.468564 
L 92.0745 49.468564 
" clip-path="url(#p391bba318d)" style="fill: none; stroke: #333333; stroke-width: 2.5; stroke-linecap: square"/>
   </g>
   <g id="line2d_9">
    <path d="M 55.5255 74.281192 
L 58.5945 74.281192 
M 57.06 74.281192 
L 57.06 55.722754 
M 55.5255 55.722754 
L 58.5945 55.722754 
" clip-path="url(#p391bba318d)" style="fill: none; stroke: #333333; stroke-width: 2.5; stroke-linecap: square"/>
   </g>
   <g id="line2d_10">
    <path d="M 111.3255 74.735166 
L 114.3945 74.735166 
M 112.86 74.735166 
L 112.86 57.554424 
M 111.3255 57.554424 
L 114.3945 57.554424 
" clip-path="url(#p391bba318d)" style="fill: none; stroke: #333333; stroke-width: 2.5; stroke-linecap: square"/>
   </g>
   <g id="patch_9">
    <path d="M 18 115.344 
L 18 15.552 
" style="fill: none; stroke: #000000; stroke-linejoin: miter; stroke-linecap: square"/>
   </g>
   <g id="patch_10">
    <path d="M 18 115.344 
L 129.6 115.344 
" style="fill: none; stroke: #000000; stroke-linejoin: miter; stroke-linecap: square"/>
   </g>
   <g id="PathCollection_5">
    <defs>
     <path id="ma4ddb1bba3" d="M 0 3 
C 0.795609 3 1.55874 2.683901 2.12132 2.12132 
C 2.683901 1.55874 3 0.795609 3 0 
C 3 -0.795609 2.683901 -1.55874 2.12132 -2.12132 
C 1.55874 -2.683901 0.795609 -3 0 -3 
C -0.795609 -3 -1.55874 -2.683901 -2.12132 -2.12132 
C -2.683901 -1.55874 -3 -0.795609 -3 0 
C -3 0.795609 -2.683901 1.55874 -2.12132 2.12132 
C -1.55874 2.683901 -0.795609 3 0 3 
z
"/>
    </defs>
    <g clip-path="url(#p391bba318d)">
     <use xlink:href="#ma4ddb1bba3" x="34.74" y="58.09441" style="fill: #333333"/>
    </g>
   </g>
   <g id="PathCollection_6">
    <g clip-path="url(#p391bba318d)">
     <use xlink:href="#ma4ddb1bba3" x="57.06" y="65.001973" style="fill: #333333"/>
    </g>
   </g>
   <g id="PathCollection_7">
    <g clip-path="url(#p391bba318d)">
     <use xlink:href="#ma4ddb1bba3" x="90.54" y="59.802998" style="fill: #333333"/>
    </g>
   </g>
   <g id="PathCollection_8">
    <g clip-path="url(#p391bba318d)">
     <use xlink:href="#ma4ddb1bba3" x="112.86" y="66.144795" style="fill: #333333"/>
    </g>
   </g>
   <g id="line2d_11"/>
   <g id="line2d_12"/>
  </g>
 </g>
 <defs>
  <clipPath id="p391bba318d">
   <rect x="18" y="15.552" width="111.6" height="99.792"/>
  </clipPath>
 </defs>
</svg>
