<?xml version="1.0" encoding="utf-8" standalone="no"?>
<!DOCTYPE svg PUBLIC "-//W3C//DTD SVG 1.1//EN"
  "http://www.w3.org/Graphics/SVG/1.1/DTD/svg11.dtd">
<svg xmlns:xlink="http://www.w3.org/1999/xlink" width="144pt" height="129.6pt" viewBox="0 0 144 129.6" xmlns="http://www.w3.org/2000/svg" version="1.1">
 <metadata>
  <rdf:RDF xmlns:dc="http://purl.org/dc/elements/1.1/" xmlns:cc="http://creativecommons.org/ns#" xmlns:rdf="http://www.w3.org/1999/02/22-rdf-syntax-ns#">
   <cc:Work>
    <dc:type rdf:resource="http://purl.org/dc/dcmitype/StillImage"/>
    <dc:date>2025-03-27T20:00:52.486836</dc:date>
    <dc:format>image/svg+xml</dc:format>
    <dc:creator>
     <cc:Agent>
      <dc:title>Matplotlib v3.7.1, https://matplotlib.org/</dc:title>
     </cc:Agent>
    </dc:creator>
   </cc:Work>
  </rdf:RDF>
 </metadata>
 <defs>
  <style type="text/css">*{stroke-linejoin: round; stroke-linecap: butt}</style>
 </defs>
 <g id="figure_1">
  <g id="patch_1">
   <path d="M 0 129.6 
L 144 129.6 
L 144 0 
L 0 0 
L 0 129.6 
z
" style="fill: none"/>
  </g>
  <g id="axes_1">
   <g id="patch_2">
    <path d="M 18 115.344 
L 129.6 115.344 
L 129.6 15.552 
L 18 15.552 
L 18 115.344 
z
" style="fill: none"/>
   </g>
   <g id="PolyCollection_1">
    <path d="M 36.251092 115.213506 
L 33.228908 115.213506 
L 32.650161 115.187143 
L 31.931412 115.160781 
L 31.07211 115.134418 
L 30.085234 115.108056 
L 28.999727 115.081693 
L 27.861078 115.05533 
L 26.729467 115.028968 
L 25.675254 115.002605 
L 24.772115 114.976243 
L 24.088677 114.94988 
L 23.679945 114.923518 
L 23.58 114.897155 
L 23.797306 114.870793 
L 24.313525 114.84443 
L 25.086075 114.818068 
L 26.053926 114.791705 
L 27.145551 114.765343 
L 28.287586 114.73898 
L 29.412772 114.712618 
L 30.466009 114.686255 
L 31.407892 114.659893 
L 32.215603 114.63353 
L 32.881556 114.607168 
L 33.410481 114.580805 
L 33.815743 114.554443 
L 34.115627 114.52808 
L 34.330128 114.501718 
L 34.47854 114.475355 
L 34.577925 114.448993 
L 34.642371 114.42263 
L 34.682852 114.396268 
L 34.707494 114.369905 
L 34.722032 114.343543 
L 34.730349 114.31718 
L 34.734963 114.290818 
L 34.737445 114.264455 
L 34.738741 114.238093 
L 34.739397 114.21173 
L 34.739719 114.185368 
L 34.739873 114.159005 
L 34.739944 114.132643 
L 34.739976 114.10628 
L 34.73999 114.079918 
L 34.739996 114.053555 
L 34.739998 114.027193 
L 34.739999 114.00083 
L 34.74 113.974467 
L 34.74 113.948105 
L 34.74 113.921742 
L 34.74 113.89538 
L 34.74 113.869017 
L 34.74 113.842655 
L 34.74 113.816292 
L 34.74 113.78993 
L 34.74 113.763567 
L 34.74 113.737205 
L 34.739999 113.710842 
L 34.739998 113.68448 
L 34.739997 113.658117 
L 34.739992 113.631755 
L 34.739984 113.605392 
L 34.739966 113.57903 
L 34.739931 113.552667 
L 34.739864 113.526305 
L 34.739739 113.499942 
L 34.739514 113.47358 
L 34.739121 113.447217 
L 34.738455 113.420855 
L 34.737361 113.394492 
L 34.73562 113.36813 
L 34.732934 113.341767 
L 34.728922 113.315405 
L 34.723125 113.289042 
L 34.71502 113.26268 
L 34.704067 113.236317 
L 34.689772 113.209955 
L 34.671773 113.183592 
L 34.649943 113.15723 
L 34.624487 113.130867 
L 34.596021 113.104505 
L 34.56561 113.078142 
L 34.534745 113.05178 
L 34.505241 113.025417 
L 34.479083 112.999055 
L 34.458203 112.972692 
L 34.444252 112.946329 
L 34.438378 112.919967 
L 34.44108 112.893604 
L 34.452126 112.867242 
L 34.470598 112.840879 
L 34.495007 112.814517 
L 34.523499 112.788154 
L 34.554083 112.761792 
L 34.584857 112.735429 
L 34.614196 112.709067 
L 34.640868 112.682704 
L 34.664092 112.656342 
L 34.683518 112.629979 
L 34.69916 112.603617 
L 34.78084 112.603617 
L 34.78084 112.603617 
L 34.796482 112.629979 
L 34.815908 112.656342 
L 34.839132 112.682704 
L 34.865804 112.709067 
L 34.895143 112.735429 
L 34.925917 112.761792 
L 34.956501 112.788154 
L 34.984993 112.814517 
L 35.009402 112.840879 
L 35.027874 112.867242 
L 35.03892 112.893604 
L 35.041622 112.919967 
L 35.035748 112.946329 
L 35.021797 112.972692 
L 35.000917 112.999055 
L 34.974759 113.025417 
L 34.945255 113.05178 
L 34.91439 113.078142 
L 34.883979 113.104505 
L 34.855513 113.130867 
L 34.830057 113.15723 
L 34.808227 113.183592 
L 34.790228 113.209955 
L 34.775933 113.236317 
L 34.76498 113.26268 
L 34.756875 113.289042 
L 34.751078 113.315405 
L 34.747066 113.341767 
L 34.74438 113.36813 
L 34.742639 113.394492 
L 34.741545 113.420855 
L 34.740879 113.447217 
L 34.740486 113.47358 
L 34.740261 113.499942 
L 34.740136 113.526305 
L 34.740069 113.552667 
L 34.740034 113.57903 
L 34.740016 113.605392 
L 34.740008 113.631755 
L 34.740003 113.658117 
L 34.740002 113.68448 
L 34.740001 113.710842 
L 34.74 113.737205 
L 34.74 113.763567 
L 34.74 113.78993 
L 34.74 113.816292 
L 34.74 113.842655 
L 34.74 113.869017 
L 34.74 113.89538 
L 34.74 113.921742 
L 34.74 113.948105 
L 34.74 113.974467 
L 34.740001 114.00083 
L 34.740002 114.027193 
L 34.740004 114.053555 
L 34.74001 114.079918 
L 34.740024 114.10628 
L 34.740056 114.132643 
L 34.740127 114.159005 
L 34.740281 114.185368 
L 34.740603 114.21173 
L 34.741259 114.238093 
L 34.742555 114.264455 
L 34.745037 114.290818 
L 34.749651 114.31718 
L 34.757968 114.343543 
L 34.772506 114.369905 
L 34.797148 114.396268 
L 34.837629 114.42263 
L 34.902075 114.448993 
L 35.00146 114.475355 
L 35.149872 114.501718 
L 35.364373 114.52808 
L 35.664257 114.554443 
L 36.069519 114.580805 
L 36.598444 114.607168 
L 37.264397 114.63353 
L 38.072108 114.659893 
L 39.013991 114.686255 
L 40.067228 114.712618 
L 41.192414 114.73898 
L 42.334449 114.765343 
L 43.426074 114.791705 
L 44.393925 114.818068 
L 45.166475 114.84443 
L 45.682694 114.870793 
L 45.9 114.897155 
L 45.800055 114.923518 
L 45.391323 114.94988 
L 44.707885 114.976243 
L 43.804746 115.002605 
L 42.750533 115.028968 
L 41.618922 115.05533 
L 40.480273 115.081693 
L 39.394766 115.108056 
L 38.40789 115.134418 
L 37.548588 115.160781 
L 36.829839 115.187143 
L 36.251092 115.213506 
z
" clip-path="url(#pb8fdf327b0)" style="fill: #bfbcb3; fill-opacity: 0.35"/>
   </g>
   <g id="PolyCollection_2">
    <path d="M 92.051092 115.213506 
L 89.028908 115.213506 
L 88.450161 115.187143 
L 87.731412 115.160781 
L 86.87211 115.134418 
L 85.885234 115.108056 
L 84.799727 115.081693 
L 83.661078 115.05533 
L 82.529467 115.028968 
L 81.475254 115.002605 
L 80.572115 114.976243 
L 79.888677 114.94988 
L 79.479945 114.923518 
L 79.38 114.897155 
L 79.597306 114.870793 
L 80.113525 114.84443 
L 80.886075 114.818068 
L 81.853926 114.791705 
L 82.945551 114.765343 
L 84.087586 114.73898 
L 85.212772 114.712618 
L 86.266009 114.686255 
L 87.207892 114.659893 
L 88.015603 114.63353 
L 88.681556 114.607168 
L 89.210481 114.580805 
L 89.615743 114.554443 
L 89.915627 114.52808 
L 90.130128 114.501718 
L 90.27854 114.475355 
L 90.377925 114.448993 
L 90.442371 114.42263 
L 90.482852 114.396268 
L 90.507494 114.369905 
L 90.522032 114.343543 
L 90.530349 114.31718 
L 90.534963 114.290818 
L 90.537445 114.264455 
L 90.538741 114.238093 
L 90.539397 114.21173 
L 90.539719 114.185368 
L 90.539873 114.159005 
L 90.539944 114.132643 
L 90.539976 114.10628 
L 90.53999 114.079918 
L 90.539996 114.053555 
L 90.539998 114.027193 
L 90.539999 114.00083 
L 90.54 113.974467 
L 90.54 113.948105 
L 90.54 113.921742 
L 90.54 113.89538 
L 90.54 113.869017 
L 90.54 113.842655 
L 90.54 113.816292 
L 90.54 113.78993 
L 90.54 113.763567 
L 90.54 113.737205 
L 90.539999 113.710842 
L 90.539998 113.68448 
L 90.539997 113.658117 
L 90.539992 113.631755 
L 90.539984 113.605392 
L 90.539966 113.57903 
L 90.539931 113.552667 
L 90.539864 113.526305 
L 90.539739 113.499942 
L 90.539514 113.47358 
L 90.539121 113.447217 
L 90.538455 113.420855 
L 90.537361 113.394492 
L 90.53562 113.36813 
L 90.532934 113.341767 
L 90.528922 113.315405 
L 90.523125 113.289042 
L 90.51502 113.26268 
L 90.504067 113.236317 
L 90.489772 113.209955 
L 90.471773 113.183592 
L 90.449943 113.15723 
L 90.424487 113.130867 
L 90.396021 113.104505 
L 90.36561 113.078142 
L 90.334745 113.05178 
L 90.305241 113.025417 
L 90.279083 112.999055 
L 90.258203 112.972692 
L 90.244252 112.946329 
L 90.238378 112.919967 
L 90.24108 112.893604 
L 90.252126 112.867242 
L 90.270598 112.840879 
L 90.295007 112.814517 
L 90.323499 112.788154 
L 90.354083 112.761792 
L 90.384857 112.735429 
L 90.414196 112.709067 
L 90.440868 112.682704 
L 90.464092 112.656342 
L 90.483518 112.629979 
L 90.49916 112.603617 
L 90.58084 112.603617 
L 90.58084 112.603617 
L 90.596482 112.629979 
L 90.615908 112.656342 
L 90.639132 112.682704 
L 90.665804 112.709067 
L 90.695143 112.735429 
L 90.725917 112.761792 
L 90.756501 112.788154 
L 90.784993 112.814517 
L 90.809402 112.840879 
L 90.827874 112.867242 
L 90.83892 112.893604 
L 90.841622 112.919967 
L 90.835748 112.946329 
L 90.821797 112.972692 
L 90.800917 112.999055 
L 90.774759 113.025417 
L 90.745255 113.05178 
L 90.71439 113.078142 
L 90.683979 113.104505 
L 90.655513 113.130867 
L 90.630057 113.15723 
L 90.608227 113.183592 
L 90.590228 113.209955 
L 90.575933 113.236317 
L 90.56498 113.26268 
L 90.556875 113.289042 
L 90.551078 113.315405 
L 90.547066 113.341767 
L 90.54438 113.36813 
L 90.542639 113.394492 
L 90.541545 113.420855 
L 90.540879 113.447217 
L 90.540486 113.47358 
L 90.540261 113.499942 
L 90.540136 113.526305 
L 90.540069 113.552667 
L 90.540034 113.57903 
L 90.540016 113.605392 
L 90.540008 113.631755 
L 90.540003 113.658117 
L 90.540002 113.68448 
L 90.540001 113.710842 
L 90.54 113.737205 
L 90.54 113.763567 
L 90.54 113.78993 
L 90.54 113.816292 
L 90.54 113.842655 
L 90.54 113.869017 
L 90.54 113.89538 
L 90.54 113.921742 
L 90.54 113.948105 
L 90.54 113.974467 
L 90.540001 114.00083 
L 90.540002 114.027193 
L 90.540004 114.053555 
L 90.54001 114.079918 
L 90.540024 114.10628 
L 90.540056 114.132643 
L 90.540127 114.159005 
L 90.540281 114.185368 
L 90.540603 114.21173 
L 90.541259 114.238093 
L 90.542555 114.264455 
L 90.545037 114.290818 
L 90.549651 114.31718 
L 90.557968 114.343543 
L 90.572506 114.369905 
L 90.597148 114.396268 
L 90.637629 114.42263 
L 90.702075 114.448993 
L 90.80146 114.475355 
L 90.949872 114.501718 
L 91.164373 114.52808 
L 91.464257 114.554443 
L 91.869519 114.580805 
L 92.398444 114.607168 
L 93.064397 114.63353 
L 93.872108 114.659893 
L 94.813991 114.686255 
L 95.867228 114.712618 
L 96.992414 114.73898 
L 98.134449 114.765343 
L 99.226074 114.791705 
L 100.193925 114.818068 
L 100.966475 114.84443 
L 101.482694 114.870793 
L 101.7 114.897155 
L 101.600055 114.923518 
L 101.191323 114.94988 
L 100.507885 114.976243 
L 99.604746 115.002605 
L 98.550533 115.028968 
L 97.418922 115.05533 
L 96.280273 115.081693 
L 95.194766 115.108056 
L 94.20789 115.134418 
L 93.348588 115.160781 
L 92.629839 115.187143 
L 92.051092 115.213506 
z
" clip-path="url(#pb8fdf327b0)" style="fill: #bfbcb3; fill-opacity: 0.35"/>
   </g>
   <g id="patch_3">
    <path d="M 23.58 114.902062 
L 45.9 114.902062 
L 45.9 114.849772 
L 23.58 114.849772 
L 23.58 114.902062 
z
" clip-path="url(#pb8fdf327b0)" style="fill: none"/>
   </g>
   <g id="patch_4">
    <path d="M 79.38 114.902062 
L 101.7 114.902062 
L 101.7 114.849772 
L 79.38 114.849772 
L 79.38 114.902062 
z
" clip-path="url(#pb8fdf327b0)" style="fill: none"/>
   </g>
   <g id="patch_5">
    <path d="M 45.9 114.902062 
L 68.22 114.902062 
L 68.22 114.902062 
L 45.9 114.902062 
L 45.9 114.902062 
z
" clip-path="url(#pb8fdf327b0)" style="fill: none"/>
   </g>
   <g id="patch_6">
    <path d="M 101.7 114.902062 
L 124.02 114.902062 
L 124.02 114.902062 
L 101.7 114.902062 
L 101.7 114.902062 
z
" clip-path="url(#pb8fdf327b0)" style="fill: none"/>
   </g>
   <g id="patch_7">
    <path d="M 45.9 114.902062 
L 45.9 114.902062 
L 45.9 114.902062 
L 45.9 114.902062 
z
" clip-path="url(#pb8fdf327b0)" style="fill: #3274a1"/>
   </g>
   <g id="patch_8">
    <path d="M 45.9 114.902062 
L 45.9 114.902062 
L 45.9 114.902062 
L 45.9 114.902062 
z
" clip-path="url(#pb8fdf327b0)" style="fill: #e1812c"/>
   </g>
   <g id="matplotlib.axis_1">
    <g id="xtick_1">
     <g id="line2d_1">
      <defs>
       <path id="m6e1c5a9095" d="M 0 0 
L 0 3.5 
" style="stroke: #000000"/>
      </defs>
      <g>
       <use xlink:href="#m6e1c5a9095" x="45.9" y="115.344" style="stroke: #000000"/>
      </g>
     </g>
     <g id="text_1">
      <!-- neutral -->
      <g transform="translate(30.613281 129.501812) scale(0.1 -0.1)">
       <defs>
        <path id="ArialMT-6e" d="M 422 0 
L 422 3319 
L 928 3319 
L 928 2847 
Q 1294 3394 1984 3394 
Q 2284 3394 2536 3286 
Q 2788 3178 2913 3003 
Q 3038 2828 3088 2588 
Q 3119 2431 3119 2041 
L 3119 0 
L 2556 0 
L 2556 2019 
Q 2556 2363 2490 2533 
Q 2425 2703 2258 2804 
Q 2091 2906 1866 2906 
Q 1506 2906 1245 2678 
Q 984 2450 984 1813 
L 984 0 
L 422 0 
z
" transform="scale(0.015625)"/>
        <path id="ArialMT-65" d="M 2694 1069 
L 3275 997 
Q 3138 488 2766 206 
Q 2394 -75 1816 -75 
Q 1088 -75 661 373 
Q 234 822 234 1631 
Q 234 2469 665 2931 
Q 1097 3394 1784 3394 
Q 2450 3394 2872 2941 
Q 3294 2488 3294 1666 
Q 3294 1616 3291 1516 
L 816 1516 
Q 847 969 1125 678 
Q 1403 388 1819 388 
Q 2128 388 2347 550 
Q 2566 713 2694 1069 
z
M 847 1978 
L 2700 1978 
Q 2663 2397 2488 2606 
Q 2219 2931 1791 2931 
Q 1403 2931 1139 2672 
Q 875 2413 847 1978 
z
" transform="scale(0.015625)"/>
        <path id="ArialMT-75" d="M 2597 0 
L 2597 488 
Q 2209 -75 1544 -75 
Q 1250 -75 995 37 
Q 741 150 617 320 
Q 494 491 444 738 
Q 409 903 409 1263 
L 409 3319 
L 972 3319 
L 972 1478 
Q 972 1038 1006 884 
Q 1059 663 1231 536 
Q 1403 409 1656 409 
Q 1909 409 2131 539 
Q 2353 669 2445 892 
Q 2538 1116 2538 1541 
L 2538 3319 
L 3100 3319 
L 3100 0 
L 2597 0 
z
" transform="scale(0.015625)"/>
        <path id="ArialMT-74" d="M 1650 503 
L 1731 6 
Q 1494 -44 1306 -44 
Q 1000 -44 831 53 
Q 663 150 594 308 
Q 525 466 525 972 
L 525 2881 
L 113 2881 
L 113 3319 
L 525 3319 
L 525 4141 
L 1084 4478 
L 1084 3319 
L 1650 3319 
L 1650 2881 
L 1084 2881 
L 1084 941 
Q 1084 700 1114 631 
Q 1144 563 1211 522 
Q 1278 481 1403 481 
Q 1497 481 1650 503 
z
" transform="scale(0.015625)"/>
        <path id="ArialMT-72" d="M 416 0 
L 416 3319 
L 922 3319 
L 922 2816 
Q 1116 3169 1280 3281 
Q 1444 3394 1641 3394 
Q 1925 3394 2219 3213 
L 2025 2691 
Q 1819 2813 1613 2813 
Q 1428 2813 1281 2702 
Q 1134 2591 1072 2394 
Q 978 2094 978 1738 
L 978 0 
L 416 0 
z
" transform="scale(0.015625)"/>
        <path id="ArialMT-61" d="M 2588 409 
Q 2275 144 1986 34 
Q 1697 -75 1366 -75 
Q 819 -75 525 192 
Q 231 459 231 875 
Q 231 1119 342 1320 
Q 453 1522 633 1644 
Q 813 1766 1038 1828 
Q 1203 1872 1538 1913 
Q 2219 1994 2541 2106 
Q 2544 2222 2544 2253 
Q 2544 2597 2384 2738 
Q 2169 2928 1744 2928 
Q 1347 2928 1158 2789 
Q 969 2650 878 2297 
L 328 2372 
Q 403 2725 575 2942 
Q 747 3159 1072 3276 
Q 1397 3394 1825 3394 
Q 2250 3394 2515 3294 
Q 2781 3194 2906 3042 
Q 3031 2891 3081 2659 
Q 3109 2516 3109 2141 
L 3109 1391 
Q 3109 606 3145 398 
Q 3181 191 3288 0 
L 2700 0 
Q 2613 175 2588 409 
z
M 2541 1666 
Q 2234 1541 1622 1453 
Q 1275 1403 1131 1340 
Q 988 1278 909 1158 
Q 831 1038 831 891 
Q 831 666 1001 516 
Q 1172 366 1500 366 
Q 1825 366 2078 508 
Q 2331 650 2450 897 
Q 2541 1088 2541 1459 
L 2541 1666 
z
" transform="scale(0.015625)"/>
        <path id="ArialMT-6c" d="M 409 0 
L 409 4581 
L 972 4581 
L 972 0 
L 409 0 
z
" transform="scale(0.015625)"/>
       </defs>
       <use xlink:href="#ArialMT-6e"/>
       <use xlink:href="#ArialMT-65" x="55.615234"/>
       <use xlink:href="#ArialMT-75" x="111.230469"/>
       <use xlink:href="#ArialMT-74" x="166.845703"/>
       <use xlink:href="#ArialMT-72" x="194.628906"/>
       <use xlink:href="#ArialMT-61" x="227.929688"/>
       <use xlink:href="#ArialMT-6c" x="283.544922"/>
      </g>
     </g>
    </g>
    <g id="xtick_2">
     <g id="line2d_2">
      <g>
       <use xlink:href="#m6e1c5a9095" x="101.7" y="115.344" style="stroke: #000000"/>
      </g>
     </g>
     <g id="text_2">
      <!-- aversive -->
      <g transform="translate(83.082812 129.501812) scale(0.1 -0.1)">
       <defs>
        <path id="ArialMT-76" d="M 1344 0 
L 81 3319 
L 675 3319 
L 1388 1331 
Q 1503 1009 1600 663 
Q 1675 925 1809 1294 
L 2547 3319 
L 3125 3319 
L 1869 0 
L 1344 0 
z
" transform="scale(0.015625)"/>
        <path id="ArialMT-73" d="M 197 991 
L 753 1078 
Q 800 744 1014 566 
Q 1228 388 1613 388 
Q 2000 388 2187 545 
Q 2375 703 2375 916 
Q 2375 1106 2209 1216 
Q 2094 1291 1634 1406 
Q 1016 1563 777 1677 
Q 538 1791 414 1992 
Q 291 2194 291 2438 
Q 291 2659 392 2848 
Q 494 3038 669 3163 
Q 800 3259 1026 3326 
Q 1253 3394 1513 3394 
Q 1903 3394 2198 3281 
Q 2494 3169 2634 2976 
Q 2775 2784 2828 2463 
L 2278 2388 
Q 2241 2644 2061 2787 
Q 1881 2931 1553 2931 
Q 1166 2931 1000 2803 
Q 834 2675 834 2503 
Q 834 2394 903 2306 
Q 972 2216 1119 2156 
Q 1203 2125 1616 2013 
Q 2213 1853 2448 1751 
Q 2684 1650 2818 1456 
Q 2953 1263 2953 975 
Q 2953 694 2789 445 
Q 2625 197 2315 61 
Q 2006 -75 1616 -75 
Q 969 -75 630 194 
Q 291 463 197 991 
z
" transform="scale(0.015625)"/>
        <path id="ArialMT-69" d="M 425 3934 
L 425 4581 
L 988 4581 
L 988 3934 
L 425 3934 
z
M 425 0 
L 425 3319 
L 988 3319 
L 988 0 
L 425 0 
z
" transform="scale(0.015625)"/>
       </defs>
       <use xlink:href="#ArialMT-61"/>
       <use xlink:href="#ArialMT-76" x="55.615234"/>
       <use xlink:href="#ArialMT-65" x="105.615234"/>
       <use xlink:href="#ArialMT-72" x="161.230469"/>
       <use xlink:href="#ArialMT-73" x="194.53125"/>
       <use xlink:href="#ArialMT-69" x="244.53125"/>
       <use xlink:href="#ArialMT-76" x="266.748047"/>
       <use xlink:href="#ArialMT-65" x="316.748047"/>
      </g>
     </g>
    </g>
   </g>
   <g id="matplotlib.axis_2">
    <g id="ytick_1">
     <g id="line2d_3">
      <defs>
       <path id="m92112e2715" d="M 0 0 
L -3.5 0 
" style="stroke: #000000"/>
      </defs>
      <g>
       <use xlink:href="#m92112e2715" x="18" y="114.902062" style="stroke: #000000"/>
      </g>
     </g>
     <g id="text_3">
      <!-- 0 -->
      <g transform="translate(5.439062 118.480968) scale(0.1 -0.1)">
       <defs>
        <path id="ArialMT-30" d="M 266 2259 
Q 266 3072 433 3567 
Q 600 4063 929 4331 
Q 1259 4600 1759 4600 
Q 2128 4600 2406 4451 
Q 2684 4303 2865 4023 
Q 3047 3744 3150 3342 
Q 3253 2941 3253 2259 
Q 3253 1453 3087 958 
Q 2922 463 2592 192 
Q 2263 -78 1759 -78 
Q 1097 -78 719 397 
Q 266 969 266 2259 
z
M 844 2259 
Q 844 1131 1108 757 
Q 1372 384 1759 384 
Q 2147 384 2411 759 
Q 2675 1134 2675 2259 
Q 2675 3391 2411 3762 
Q 2147 4134 1753 4134 
Q 1366 4134 1134 3806 
Q 844 3388 844 2259 
z
" transform="scale(0.015625)"/>
       </defs>
       <use xlink:href="#ArialMT-30"/>
      </g>
     </g>
    </g>
    <g id="ytick_2">
     <g id="line2d_4">
      <g>
       <use xlink:href="#m92112e2715" x="18" y="65.227031" style="stroke: #000000"/>
      </g>
     </g>
     <g id="text_4">
      <!-- 50 -->
      <g transform="translate(-0.121875 68.805937) scale(0.1 -0.1)">
       <defs>
        <path id="ArialMT-35" d="M 266 1200 
L 856 1250 
Q 922 819 1161 601 
Q 1400 384 1738 384 
Q 2144 384 2425 690 
Q 2706 997 2706 1503 
Q 2706 1984 2436 2262 
Q 2166 2541 1728 2541 
Q 1456 2541 1237 2417 
Q 1019 2294 894 2097 
L 366 2166 
L 809 4519 
L 3088 4519 
L 3088 3981 
L 1259 3981 
L 1013 2750 
Q 1425 3038 1878 3038 
Q 2478 3038 2890 2622 
Q 3303 2206 3303 1553 
Q 3303 931 2941 478 
Q 2500 -78 1738 -78 
Q 1113 -78 717 272 
Q 322 622 266 1200 
z
" transform="scale(0.015625)"/>
       </defs>
       <use xlink:href="#ArialMT-35"/>
       <use xlink:href="#ArialMT-30" x="55.615234"/>
      </g>
     </g>
    </g>
    <g id="ytick_3">
     <g id="line2d_5">
      <g>
       <use xlink:href="#m92112e2715" x="18" y="15.552" style="stroke: #000000"/>
      </g>
     </g>
     <g id="text_5">
      <!-- 100 -->
      <g transform="translate(-5.682813 19.130906) scale(0.1 -0.1)">
       <defs>
        <path id="ArialMT-31" d="M 2384 0 
L 1822 0 
L 1822 3584 
Q 1619 3391 1289 3197 
Q 959 3003 697 2906 
L 697 3450 
Q 1169 3672 1522 3987 
Q 1875 4303 2022 4600 
L 2384 4600 
L 2384 0 
z
" transform="scale(0.015625)"/>
       </defs>
       <use xlink:href="#ArialMT-31"/>
       <use xlink:href="#ArialMT-30" x="55.615234"/>
       <use xlink:href="#ArialMT-30" x="111.230469"/>
      </g>
     </g>
    </g>
    <g id="text_6">
     <!-- craving score -->
     <g transform="translate(-11.7875 95.180031) rotate(-90) scale(0.1 -0.1)">
      <defs>
       <path id="ArialMT-63" d="M 2588 1216 
L 3141 1144 
Q 3050 572 2676 248 
Q 2303 -75 1759 -75 
Q 1078 -75 664 370 
Q 250 816 250 1647 
Q 250 2184 428 2587 
Q 606 2991 970 3192 
Q 1334 3394 1763 3394 
Q 2303 3394 2647 3120 
Q 2991 2847 3088 2344 
L 2541 2259 
Q 2463 2594 2264 2762 
Q 2066 2931 1784 2931 
Q 1359 2931 1093 2626 
Q 828 2322 828 1663 
Q 828 994 1084 691 
Q 1341 388 1753 388 
Q 2084 388 2306 591 
Q 2528 794 2588 1216 
z
" transform="scale(0.015625)"/>
       <path id="ArialMT-67" d="M 319 -275 
L 866 -356 
Q 900 -609 1056 -725 
Q 1266 -881 1628 -881 
Q 2019 -881 2231 -725 
Q 2444 -569 2519 -288 
Q 2563 -116 2559 434 
Q 2191 0 1641 0 
Q 956 0 581 494 
Q 206 988 206 1678 
Q 206 2153 378 2554 
Q 550 2956 876 3175 
Q 1203 3394 1644 3394 
Q 2231 3394 2613 2919 
L 2613 3319 
L 3131 3319 
L 3131 450 
Q 3131 -325 2973 -648 
Q 2816 -972 2473 -1159 
Q 2131 -1347 1631 -1347 
Q 1038 -1347 672 -1080 
Q 306 -813 319 -275 
z
M 784 1719 
Q 784 1066 1043 766 
Q 1303 466 1694 466 
Q 2081 466 2343 764 
Q 2606 1063 2606 1700 
Q 2606 2309 2336 2618 
Q 2066 2928 1684 2928 
Q 1309 2928 1046 2623 
Q 784 2319 784 1719 
z
" transform="scale(0.015625)"/>
       <path id="ArialMT-20" transform="scale(0.015625)"/>
       <path id="ArialMT-6f" d="M 213 1659 
Q 213 2581 725 3025 
Q 1153 3394 1769 3394 
Q 2453 3394 2887 2945 
Q 3322 2497 3322 1706 
Q 3322 1066 3130 698 
Q 2938 331 2570 128 
Q 2203 -75 1769 -75 
Q 1072 -75 642 372 
Q 213 819 213 1659 
z
M 791 1659 
Q 791 1022 1069 705 
Q 1347 388 1769 388 
Q 2188 388 2466 706 
Q 2744 1025 2744 1678 
Q 2744 2294 2464 2611 
Q 2184 2928 1769 2928 
Q 1347 2928 1069 2612 
Q 791 2297 791 1659 
z
" transform="scale(0.015625)"/>
      </defs>
      <use xlink:href="#ArialMT-63"/>
      <use xlink:href="#ArialMT-72" x="50"/>
      <use xlink:href="#ArialMT-61" x="83.300781"/>
      <use xlink:href="#ArialMT-76" x="138.916016"/>
      <use xlink:href="#ArialMT-69" x="188.916016"/>
      <use xlink:href="#ArialMT-6e" x="211.132812"/>
      <use xlink:href="#ArialMT-67" x="266.748047"/>
      <use xlink:href="#ArialMT-20" x="322.363281"/>
      <use xlink:href="#ArialMT-73" x="350.146484"/>
      <use xlink:href="#ArialMT-63" x="400.146484"/>
      <use xlink:href="#ArialMT-6f" x="450.146484"/>
      <use xlink:href="#ArialMT-72" x="505.761719"/>
      <use xlink:href="#ArialMT-65" x="539.0625"/>
     </g>
    </g>
   </g>
   <g id="line2d_6">
    <path d="M 45.9 114.902062 
L 68.22 114.902062 
" clip-path="url(#pb8fdf327b0)" style="fill: none; stroke: #2d2d2d; stroke-width: 1.25; stroke-linecap: square"/>
   </g>
   <g id="line2d_7">
    <path d="M 101.7 114.902062 
L 124.02 114.902062 
" clip-path="url(#pb8fdf327b0)" style="fill: none; stroke: #2d2d2d; stroke-width: 1.25; stroke-linecap: square"/>
   </g>
   <g id="PathCollection_1">
    <defs>
     <path id="C0_0_ab3a698691" d="M 0 3.5 
C 0.928211 3.5 1.81853 3.131218 2.474874 2.474874 
C 3.131218 1.81853 3.5 0.928211 3.5 -0 
C 3.5 -0.928211 3.131218 -1.81853 2.474874 -2.474874 
C 1.81853 -3.131218 0.928211 -3.5 0 -3.5 
C -0.928211 -3.5 -1.81853 -3.131218 -2.474874 -2.474874 
C -3.131218 -1.81853 -3.5 -0.928211 -3.5 0 
C -3.5 0.928211 -3.131218 1.81853 -2.474874 2.474874 
C -1.81853 3.131218 -0.928211 3.5 0 3.5 
z
"/>
    </defs>
    <g clip-path="url(#pb8fdf327b0)">
     <use xlink:href="#C0_0_ab3a698691" x="33.926247" y="114.902062" style="fill: #c1bdb1; fill-opacity: 0.45"/>
    </g>
    <g clip-path="url(#pb8fdf327b0)">
     <use xlink:href="#C0_0_ab3a698691" x="35.714217" y="114.902062" style="fill: #c1bdb1; fill-opacity: 0.45"/>
    </g>
    <g clip-path="url(#pb8fdf327b0)">
     <use xlink:href="#C0_0_ab3a698691" x="37.17297" y="114.902062" style="fill: #c1bdb1; fill-opacity: 0.45"/>
    </g>
    <g clip-path="url(#pb8fdf327b0)">
     <use xlink:href="#C0_0_ab3a698691" x="36.224283" y="114.902062" style="fill: #c1bdb1; fill-opacity: 0.45"/>
    </g>
    <g clip-path="url(#pb8fdf327b0)">
     <use xlink:href="#C0_0_ab3a698691" x="32.841797" y="114.902062" style="fill: #c1bdb1; fill-opacity: 0.45"/>
    </g>
    <g clip-path="url(#pb8fdf327b0)">
     <use xlink:href="#C0_0_ab3a698691" x="32.870614" y="114.902062" style="fill: #c1bdb1; fill-opacity: 0.45"/>
    </g>
    <g clip-path="url(#pb8fdf327b0)">
     <use xlink:href="#C0_0_ab3a698691" x="33.048319" y="114.902062" style="fill: #c1bdb1; fill-opacity: 0.45"/>
    </g>
    <g clip-path="url(#pb8fdf327b0)">
     <use xlink:href="#C0_0_ab3a698691" x="37.399288" y="114.902062" style="fill: #c1bdb1; fill-opacity: 0.45"/>
    </g>
    <g clip-path="url(#pb8fdf327b0)">
     <use xlink:href="#C0_0_ab3a698691" x="32.438386" y="114.902062" style="fill: #c1bdb1; fill-opacity: 0.45"/>
    </g>
    <g clip-path="url(#pb8fdf327b0)">
     <use xlink:href="#C0_0_ab3a698691" x="34.349041" y="114.902062" style="fill: #c1bdb1; fill-opacity: 0.45"/>
    </g>
    <g clip-path="url(#pb8fdf327b0)">
     <use xlink:href="#C0_0_ab3a698691" x="37.304615" y="114.902062" style="fill: #c1bdb1; fill-opacity: 0.45"/>
    </g>
    <g clip-path="url(#pb8fdf327b0)">
     <use xlink:href="#C0_0_ab3a698691" x="37.356271" y="114.902062" style="fill: #c1bdb1; fill-opacity: 0.45"/>
    </g>
    <g clip-path="url(#pb8fdf327b0)">
     <use xlink:href="#C0_0_ab3a698691" x="34.833711" y="112.915061" style="fill: #c1bdb1; fill-opacity: 0.45"/>
    </g>
    <g clip-path="url(#pb8fdf327b0)">
     <use xlink:href="#C0_0_ab3a698691" x="32.611117" y="114.902062" style="fill: #c1bdb1; fill-opacity: 0.45"/>
    </g>
    <g clip-path="url(#pb8fdf327b0)">
     <use xlink:href="#C0_0_ab3a698691" x="34.060135" y="114.902062" style="fill: #c1bdb1; fill-opacity: 0.45"/>
    </g>
    <g clip-path="url(#pb8fdf327b0)">
     <use xlink:href="#C0_0_ab3a698691" x="35.030168" y="114.902062" style="fill: #c1bdb1; fill-opacity: 0.45"/>
    </g>
    <g clip-path="url(#pb8fdf327b0)">
     <use xlink:href="#C0_0_ab3a698691" x="33.723036" y="114.902062" style="fill: #c1bdb1; fill-opacity: 0.45"/>
    </g>
    <g clip-path="url(#pb8fdf327b0)">
     <use xlink:href="#C0_0_ab3a698691" x="33.627223" y="114.902062" style="fill: #c1bdb1; fill-opacity: 0.45"/>
    </g>
    <g clip-path="url(#pb8fdf327b0)">
     <use xlink:href="#C0_0_ab3a698691" x="33.857717" y="114.902062" style="fill: #c1bdb1; fill-opacity: 0.45"/>
    </g>
    <g clip-path="url(#pb8fdf327b0)">
     <use xlink:href="#C0_0_ab3a698691" x="36.21659" y="114.902062" style="fill: #c1bdb1; fill-opacity: 0.45"/>
    </g>
    <g clip-path="url(#pb8fdf327b0)">
     <use xlink:href="#C0_0_ab3a698691" x="32.58631" y="114.902062" style="fill: #c1bdb1; fill-opacity: 0.45"/>
    </g>
    <g clip-path="url(#pb8fdf327b0)">
     <use xlink:href="#C0_0_ab3a698691" x="36.80951" y="114.902062" style="fill: #c1bdb1; fill-opacity: 0.45"/>
    </g>
    <g clip-path="url(#pb8fdf327b0)">
     <use xlink:href="#C0_0_ab3a698691" x="34.084826" y="114.902062" style="fill: #c1bdb1; fill-opacity: 0.45"/>
    </g>
    <g clip-path="url(#pb8fdf327b0)">
     <use xlink:href="#C0_0_ab3a698691" x="35.776295" y="114.902062" style="fill: #c1bdb1; fill-opacity: 0.45"/>
    </g>
    <g clip-path="url(#pb8fdf327b0)">
     <use xlink:href="#C0_0_ab3a698691" x="35.940824" y="114.902062" style="fill: #c1bdb1; fill-opacity: 0.45"/>
    </g>
    <g clip-path="url(#pb8fdf327b0)">
     <use xlink:href="#C0_0_ab3a698691" x="34.740663" y="114.902062" style="fill: #c1bdb1; fill-opacity: 0.45"/>
    </g>
    <g clip-path="url(#pb8fdf327b0)">
     <use xlink:href="#C0_0_ab3a698691" x="37.397856" y="114.902062" style="fill: #c1bdb1; fill-opacity: 0.45"/>
    </g>
    <g clip-path="url(#pb8fdf327b0)">
     <use xlink:href="#C0_0_ab3a698691" x="33.882773" y="114.902062" style="fill: #c1bdb1; fill-opacity: 0.45"/>
    </g>
    <g clip-path="url(#pb8fdf327b0)">
     <use xlink:href="#C0_0_ab3a698691" x="35.360206" y="114.902062" style="fill: #c1bdb1; fill-opacity: 0.45"/>
    </g>
    <g clip-path="url(#pb8fdf327b0)">
     <use xlink:href="#C0_0_ab3a698691" x="37.340383" y="114.902062" style="fill: #c1bdb1; fill-opacity: 0.45"/>
    </g>
    <g clip-path="url(#pb8fdf327b0)">
     <use xlink:href="#C0_0_ab3a698691" x="37.447294" y="114.902062" style="fill: #c1bdb1; fill-opacity: 0.45"/>
    </g>
    <g clip-path="url(#pb8fdf327b0)">
     <use xlink:href="#C0_0_ab3a698691" x="36.714756" y="114.902062" style="fill: #c1bdb1; fill-opacity: 0.45"/>
    </g>
    <g clip-path="url(#pb8fdf327b0)">
     <use xlink:href="#C0_0_ab3a698691" x="33.907144" y="114.902062" style="fill: #c1bdb1; fill-opacity: 0.45"/>
    </g>
    <g clip-path="url(#pb8fdf327b0)">
     <use xlink:href="#C0_0_ab3a698691" x="37.354067" y="114.902062" style="fill: #c1bdb1; fill-opacity: 0.45"/>
    </g>
    <g clip-path="url(#pb8fdf327b0)">
     <use xlink:href="#C0_0_ab3a698691" x="33.310817" y="114.902062" style="fill: #c1bdb1; fill-opacity: 0.45"/>
    </g>
    <g clip-path="url(#pb8fdf327b0)">
     <use xlink:href="#C0_0_ab3a698691" x="34.217924" y="114.902062" style="fill: #c1bdb1; fill-opacity: 0.45"/>
    </g>
    <g clip-path="url(#pb8fdf327b0)">
     <use xlink:href="#C0_0_ab3a698691" x="32.338297" y="114.902062" style="fill: #c1bdb1; fill-opacity: 0.45"/>
    </g>
    <g clip-path="url(#pb8fdf327b0)">
     <use xlink:href="#C0_0_ab3a698691" x="32.965485" y="114.902062" style="fill: #c1bdb1; fill-opacity: 0.45"/>
    </g>
   </g>
   <g id="PathCollection_2">
    <defs>
     <path id="C1_0_4604c70e2a" d="M 0 3.5 
C 0.928211 3.5 1.81853 3.131218 2.474874 2.474874 
C 3.131218 1.81853 3.5 0.928211 3.5 -0 
C 3.5 -0.928211 3.131218 -1.81853 2.474874 -2.474874 
C 1.81853 -3.131218 0.928211 -3.5 0 -3.5 
C -0.928211 -3.5 -1.81853 -3.131218 -2.474874 -2.474874 
C -3.131218 -1.81853 -3.5 -0.928211 -3.5 0 
C -3.5 0.928211 -3.131218 1.81853 -2.474874 2.474874 
C -1.81853 3.131218 -0.928211 3.5 0 3.5 
z
"/>
    </defs>
    <g clip-path="url(#pb8fdf327b0)">
     <use xlink:href="#C1_0_4604c70e2a" x="56.839719" y="114.902062" style="fill: #3e5751; fill-opacity: 0.45"/>
    </g>
    <g clip-path="url(#pb8fdf327b0)">
     <use xlink:href="#C1_0_4604c70e2a" x="57.815716" y="114.902062" style="fill: #3e5751; fill-opacity: 0.45"/>
    </g>
    <g clip-path="url(#pb8fdf327b0)">
     <use xlink:href="#C1_0_4604c70e2a" x="55.345744" y="114.902062" style="fill: #3e5751; fill-opacity: 0.45"/>
    </g>
    <g clip-path="url(#pb8fdf327b0)">
     <use xlink:href="#C1_0_4604c70e2a" x="58.376629" y="114.902062" style="fill: #3e5751; fill-opacity: 0.45"/>
    </g>
    <g clip-path="url(#pb8fdf327b0)">
     <use xlink:href="#C1_0_4604c70e2a" x="55.253139" y="114.902062" style="fill: #3e5751; fill-opacity: 0.45"/>
    </g>
    <g clip-path="url(#pb8fdf327b0)">
     <use xlink:href="#C1_0_4604c70e2a" x="56.997929" y="114.902062" style="fill: #3e5751; fill-opacity: 0.45"/>
    </g>
    <g clip-path="url(#pb8fdf327b0)">
     <use xlink:href="#C1_0_4604c70e2a" x="58.195125" y="114.902062" style="fill: #3e5751; fill-opacity: 0.45"/>
    </g>
    <g clip-path="url(#pb8fdf327b0)">
     <use xlink:href="#C1_0_4604c70e2a" x="57.304583" y="114.902062" style="fill: #3e5751; fill-opacity: 0.45"/>
    </g>
    <g clip-path="url(#pb8fdf327b0)">
     <use xlink:href="#C1_0_4604c70e2a" x="57.866781" y="114.902062" style="fill: #3e5751; fill-opacity: 0.45"/>
    </g>
    <g clip-path="url(#pb8fdf327b0)">
     <use xlink:href="#C1_0_4604c70e2a" x="57.675951" y="114.902062" style="fill: #3e5751; fill-opacity: 0.45"/>
    </g>
    <g clip-path="url(#pb8fdf327b0)">
     <use xlink:href="#C1_0_4604c70e2a" x="59.329785" y="114.902062" style="fill: #3e5751; fill-opacity: 0.45"/>
    </g>
    <g clip-path="url(#pb8fdf327b0)">
     <use xlink:href="#C1_0_4604c70e2a" x="59.290692" y="114.902062" style="fill: #3e5751; fill-opacity: 0.45"/>
    </g>
    <g clip-path="url(#pb8fdf327b0)">
     <use xlink:href="#C1_0_4604c70e2a" x="56.908789" y="114.902062" style="fill: #3e5751; fill-opacity: 0.45"/>
    </g>
    <g clip-path="url(#pb8fdf327b0)">
     <use xlink:href="#C1_0_4604c70e2a" x="55.729372" y="114.902062" style="fill: #3e5751; fill-opacity: 0.45"/>
    </g>
    <g clip-path="url(#pb8fdf327b0)">
     <use xlink:href="#C1_0_4604c70e2a" x="58.903205" y="114.902062" style="fill: #3e5751; fill-opacity: 0.45"/>
    </g>
    <g clip-path="url(#pb8fdf327b0)">
     <use xlink:href="#C1_0_4604c70e2a" x="57.723133" y="114.902062" style="fill: #3e5751; fill-opacity: 0.45"/>
    </g>
    <g clip-path="url(#pb8fdf327b0)">
     <use xlink:href="#C1_0_4604c70e2a" x="56.464227" y="114.902062" style="fill: #3e5751; fill-opacity: 0.45"/>
    </g>
    <g clip-path="url(#pb8fdf327b0)">
     <use xlink:href="#C1_0_4604c70e2a" x="57.970963" y="114.902062" style="fill: #3e5751; fill-opacity: 0.45"/>
    </g>
    <g clip-path="url(#pb8fdf327b0)">
     <use xlink:href="#C1_0_4604c70e2a" x="57.53226" y="114.902062" style="fill: #3e5751; fill-opacity: 0.45"/>
    </g>
    <g clip-path="url(#pb8fdf327b0)">
     <use xlink:href="#C1_0_4604c70e2a" x="59.816607" y="114.902062" style="fill: #3e5751; fill-opacity: 0.45"/>
    </g>
    <g clip-path="url(#pb8fdf327b0)">
     <use xlink:href="#C1_0_4604c70e2a" x="58.323216" y="114.902062" style="fill: #3e5751; fill-opacity: 0.45"/>
    </g>
    <g clip-path="url(#pb8fdf327b0)">
     <use xlink:href="#C1_0_4604c70e2a" x="59.204257" y="114.902062" style="fill: #3e5751; fill-opacity: 0.45"/>
    </g>
    <g clip-path="url(#pb8fdf327b0)">
     <use xlink:href="#C1_0_4604c70e2a" x="56.500898" y="114.902062" style="fill: #3e5751; fill-opacity: 0.45"/>
    </g>
    <g clip-path="url(#pb8fdf327b0)">
     <use xlink:href="#C1_0_4604c70e2a" x="58.945551" y="114.902062" style="fill: #3e5751; fill-opacity: 0.45"/>
    </g>
    <g clip-path="url(#pb8fdf327b0)">
     <use xlink:href="#C1_0_4604c70e2a" x="58.370245" y="114.902062" style="fill: #3e5751; fill-opacity: 0.45"/>
    </g>
    <g clip-path="url(#pb8fdf327b0)">
     <use xlink:href="#C1_0_4604c70e2a" x="55.010173" y="114.902062" style="fill: #3e5751; fill-opacity: 0.45"/>
    </g>
    <g clip-path="url(#pb8fdf327b0)">
     <use xlink:href="#C1_0_4604c70e2a" x="57.414377" y="114.902062" style="fill: #3e5751; fill-opacity: 0.45"/>
    </g>
    <g clip-path="url(#pb8fdf327b0)">
     <use xlink:href="#C1_0_4604c70e2a" x="58.546326" y="114.902062" style="fill: #3e5751; fill-opacity: 0.45"/>
    </g>
    <g clip-path="url(#pb8fdf327b0)">
     <use xlink:href="#C1_0_4604c70e2a" x="56.621891" y="114.902062" style="fill: #3e5751; fill-opacity: 0.45"/>
    </g>
    <g clip-path="url(#pb8fdf327b0)">
     <use xlink:href="#C1_0_4604c70e2a" x="58.303858" y="114.902062" style="fill: #3e5751; fill-opacity: 0.45"/>
    </g>
    <g clip-path="url(#pb8fdf327b0)">
     <use xlink:href="#C1_0_4604c70e2a" x="56.725622" y="114.902062" style="fill: #3e5751; fill-opacity: 0.45"/>
    </g>
    <g clip-path="url(#pb8fdf327b0)">
     <use xlink:href="#C1_0_4604c70e2a" x="57.753799" y="114.902062" style="fill: #3e5751; fill-opacity: 0.45"/>
    </g>
    <g clip-path="url(#pb8fdf327b0)">
     <use xlink:href="#C1_0_4604c70e2a" x="58.102211" y="114.902062" style="fill: #3e5751; fill-opacity: 0.45"/>
    </g>
    <g clip-path="url(#pb8fdf327b0)">
     <use xlink:href="#C1_0_4604c70e2a" x="54.41671" y="114.902062" style="fill: #3e5751; fill-opacity: 0.45"/>
    </g>
    <g clip-path="url(#pb8fdf327b0)">
     <use xlink:href="#C1_0_4604c70e2a" x="58.983316" y="114.902062" style="fill: #3e5751; fill-opacity: 0.45"/>
    </g>
    <g clip-path="url(#pb8fdf327b0)">
     <use xlink:href="#C1_0_4604c70e2a" x="58.657871" y="114.902062" style="fill: #3e5751; fill-opacity: 0.45"/>
    </g>
    <g clip-path="url(#pb8fdf327b0)">
     <use xlink:href="#C1_0_4604c70e2a" x="57.543133" y="114.902062" style="fill: #3e5751; fill-opacity: 0.45"/>
    </g>
    <g clip-path="url(#pb8fdf327b0)">
     <use xlink:href="#C1_0_4604c70e2a" x="56.992454" y="114.902062" style="fill: #3e5751; fill-opacity: 0.45"/>
    </g>
   </g>
   <g id="PathCollection_3">
    <defs>
     <path id="C2_0_03f6ed1890" d="M 0 3.5 
C 0.928211 3.5 1.81853 3.131218 2.474874 2.474874 
C 3.131218 1.81853 3.5 0.928211 3.5 -0 
C 3.5 -0.928211 3.131218 -1.81853 2.474874 -2.474874 
C 1.81853 -3.131218 0.928211 -3.5 0 -3.5 
C -0.928211 -3.5 -1.81853 -3.131218 -2.474874 -2.474874 
C -3.131218 -1.81853 -3.5 -0.928211 -3.5 0 
C -3.5 0.928211 -3.131218 1.81853 -2.474874 2.474874 
C -1.81853 3.131218 -0.928211 3.5 0 3.5 
z
"/>
    </defs>
    <g clip-path="url(#pb8fdf327b0)">
     <use xlink:href="#C2_0_03f6ed1890" x="88.911915" y="114.902062" style="fill: #c1bdb1; fill-opacity: 0.45"/>
    </g>
    <g clip-path="url(#pb8fdf327b0)">
     <use xlink:href="#C2_0_03f6ed1890" x="90.000463" y="114.902062" style="fill: #c1bdb1; fill-opacity: 0.45"/>
    </g>
    <g clip-path="url(#pb8fdf327b0)">
     <use xlink:href="#C2_0_03f6ed1890" x="92.400308" y="114.902062" style="fill: #c1bdb1; fill-opacity: 0.45"/>
    </g>
    <g clip-path="url(#pb8fdf327b0)">
     <use xlink:href="#C2_0_03f6ed1890" x="91.603791" y="114.902062" style="fill: #c1bdb1; fill-opacity: 0.45"/>
    </g>
    <g clip-path="url(#pb8fdf327b0)">
     <use xlink:href="#C2_0_03f6ed1890" x="87.794254" y="114.902062" style="fill: #c1bdb1; fill-opacity: 0.45"/>
    </g>
    <g clip-path="url(#pb8fdf327b0)">
     <use xlink:href="#C2_0_03f6ed1890" x="92.936344" y="114.902062" style="fill: #c1bdb1; fill-opacity: 0.45"/>
    </g>
    <g clip-path="url(#pb8fdf327b0)">
     <use xlink:href="#C2_0_03f6ed1890" x="90.094692" y="114.902062" style="fill: #c1bdb1; fill-opacity: 0.45"/>
    </g>
    <g clip-path="url(#pb8fdf327b0)">
     <use xlink:href="#C2_0_03f6ed1890" x="90.109952" y="114.902062" style="fill: #c1bdb1; fill-opacity: 0.45"/>
    </g>
    <g clip-path="url(#pb8fdf327b0)">
     <use xlink:href="#C2_0_03f6ed1890" x="89.525993" y="114.902062" style="fill: #c1bdb1; fill-opacity: 0.45"/>
    </g>
    <g clip-path="url(#pb8fdf327b0)">
     <use xlink:href="#C2_0_03f6ed1890" x="93.264415" y="114.902062" style="fill: #c1bdb1; fill-opacity: 0.45"/>
    </g>
    <g clip-path="url(#pb8fdf327b0)">
     <use xlink:href="#C2_0_03f6ed1890" x="88.948672" y="112.915061" style="fill: #c1bdb1; fill-opacity: 0.45"/>
    </g>
    <g clip-path="url(#pb8fdf327b0)">
     <use xlink:href="#C2_0_03f6ed1890" x="89.44124" y="114.902062" style="fill: #c1bdb1; fill-opacity: 0.45"/>
    </g>
    <g clip-path="url(#pb8fdf327b0)">
     <use xlink:href="#C2_0_03f6ed1890" x="91.695448" y="114.902062" style="fill: #c1bdb1; fill-opacity: 0.45"/>
    </g>
    <g clip-path="url(#pb8fdf327b0)">
     <use xlink:href="#C2_0_03f6ed1890" x="89.297333" y="114.902062" style="fill: #c1bdb1; fill-opacity: 0.45"/>
    </g>
    <g clip-path="url(#pb8fdf327b0)">
     <use xlink:href="#C2_0_03f6ed1890" x="87.780994" y="114.902062" style="fill: #c1bdb1; fill-opacity: 0.45"/>
    </g>
    <g clip-path="url(#pb8fdf327b0)">
     <use xlink:href="#C2_0_03f6ed1890" x="92.643995" y="114.902062" style="fill: #c1bdb1; fill-opacity: 0.45"/>
    </g>
    <g clip-path="url(#pb8fdf327b0)">
     <use xlink:href="#C2_0_03f6ed1890" x="89.749641" y="114.902062" style="fill: #c1bdb1; fill-opacity: 0.45"/>
    </g>
    <g clip-path="url(#pb8fdf327b0)">
     <use xlink:href="#C2_0_03f6ed1890" x="89.222496" y="114.902062" style="fill: #c1bdb1; fill-opacity: 0.45"/>
    </g>
    <g clip-path="url(#pb8fdf327b0)">
     <use xlink:href="#C2_0_03f6ed1890" x="92.734834" y="114.902062" style="fill: #c1bdb1; fill-opacity: 0.45"/>
    </g>
    <g clip-path="url(#pb8fdf327b0)">
     <use xlink:href="#C2_0_03f6ed1890" x="92.222992" y="114.902062" style="fill: #c1bdb1; fill-opacity: 0.45"/>
    </g>
    <g clip-path="url(#pb8fdf327b0)">
     <use xlink:href="#C2_0_03f6ed1890" x="92.085436" y="114.902062" style="fill: #c1bdb1; fill-opacity: 0.45"/>
    </g>
    <g clip-path="url(#pb8fdf327b0)">
     <use xlink:href="#C2_0_03f6ed1890" x="89.023605" y="114.902062" style="fill: #c1bdb1; fill-opacity: 0.45"/>
    </g>
    <g clip-path="url(#pb8fdf327b0)">
     <use xlink:href="#C2_0_03f6ed1890" x="91.055329" y="114.902062" style="fill: #c1bdb1; fill-opacity: 0.45"/>
    </g>
    <g clip-path="url(#pb8fdf327b0)">
     <use xlink:href="#C2_0_03f6ed1890" x="91.294753" y="114.902062" style="fill: #c1bdb1; fill-opacity: 0.45"/>
    </g>
    <g clip-path="url(#pb8fdf327b0)">
     <use xlink:href="#C2_0_03f6ed1890" x="87.928723" y="114.902062" style="fill: #c1bdb1; fill-opacity: 0.45"/>
    </g>
    <g clip-path="url(#pb8fdf327b0)">
     <use xlink:href="#C2_0_03f6ed1890" x="89.286572" y="114.902062" style="fill: #c1bdb1; fill-opacity: 0.45"/>
    </g>
    <g clip-path="url(#pb8fdf327b0)">
     <use xlink:href="#C2_0_03f6ed1890" x="92.663438" y="114.902062" style="fill: #c1bdb1; fill-opacity: 0.45"/>
    </g>
    <g clip-path="url(#pb8fdf327b0)">
     <use xlink:href="#C2_0_03f6ed1890" x="89.773451" y="114.902062" style="fill: #c1bdb1; fill-opacity: 0.45"/>
    </g>
    <g clip-path="url(#pb8fdf327b0)">
     <use xlink:href="#C2_0_03f6ed1890" x="90.723866" y="114.902062" style="fill: #c1bdb1; fill-opacity: 0.45"/>
    </g>
    <g clip-path="url(#pb8fdf327b0)">
     <use xlink:href="#C2_0_03f6ed1890" x="92.812807" y="114.902062" style="fill: #c1bdb1; fill-opacity: 0.45"/>
    </g>
    <g clip-path="url(#pb8fdf327b0)">
     <use xlink:href="#C2_0_03f6ed1890" x="91.801585" y="114.902062" style="fill: #c1bdb1; fill-opacity: 0.45"/>
    </g>
    <g clip-path="url(#pb8fdf327b0)">
     <use xlink:href="#C2_0_03f6ed1890" x="87.769276" y="114.902062" style="fill: #c1bdb1; fill-opacity: 0.45"/>
    </g>
    <g clip-path="url(#pb8fdf327b0)">
     <use xlink:href="#C2_0_03f6ed1890" x="91.122915" y="114.902062" style="fill: #c1bdb1; fill-opacity: 0.45"/>
    </g>
    <g clip-path="url(#pb8fdf327b0)">
     <use xlink:href="#C2_0_03f6ed1890" x="88.018253" y="114.902062" style="fill: #c1bdb1; fill-opacity: 0.45"/>
    </g>
    <g clip-path="url(#pb8fdf327b0)">
     <use xlink:href="#C2_0_03f6ed1890" x="89.450366" y="114.902062" style="fill: #c1bdb1; fill-opacity: 0.45"/>
    </g>
    <g clip-path="url(#pb8fdf327b0)">
     <use xlink:href="#C2_0_03f6ed1890" x="88.905736" y="114.902062" style="fill: #c1bdb1; fill-opacity: 0.45"/>
    </g>
    <g clip-path="url(#pb8fdf327b0)">
     <use xlink:href="#C2_0_03f6ed1890" x="89.842228" y="114.902062" style="fill: #c1bdb1; fill-opacity: 0.45"/>
    </g>
    <g clip-path="url(#pb8fdf327b0)">
     <use xlink:href="#C2_0_03f6ed1890" x="91.825737" y="114.902062" style="fill: #c1bdb1; fill-opacity: 0.45"/>
    </g>
   </g>
   <g id="PathCollection_4">
    <defs>
     <path id="C3_0_a1da098a50" d="M 0 3.5 
C 0.928211 3.5 1.81853 3.131218 2.474874 2.474874 
C 3.131218 1.81853 3.5 0.928211 3.5 -0 
C 3.5 -0.928211 3.131218 -1.81853 2.474874 -2.474874 
C 1.81853 -3.131218 0.928211 -3.5 0 -3.5 
C -0.928211 -3.5 -1.81853 -3.131218 -2.474874 -2.474874 
C -3.131218 -1.81853 -3.5 -0.928211 -3.5 0 
C -3.5 0.928211 -3.131218 1.81853 -2.474874 2.474874 
C -1.81853 3.131218 -0.928211 3.5 0 3.5 
z
"/>
    </defs>
    <g clip-path="url(#pb8fdf327b0)">
     <use xlink:href="#C3_0_a1da098a50" x="113.107231" y="114.902062" style="fill: #3e5751; fill-opacity: 0.45"/>
    </g>
    <g clip-path="url(#pb8fdf327b0)">
     <use xlink:href="#C3_0_a1da098a50" x="115.185455" y="114.902062" style="fill: #3e5751; fill-opacity: 0.45"/>
    </g>
    <g clip-path="url(#pb8fdf327b0)">
     <use xlink:href="#C3_0_a1da098a50" x="112.628671" y="114.902062" style="fill: #3e5751; fill-opacity: 0.45"/>
    </g>
    <g clip-path="url(#pb8fdf327b0)">
     <use xlink:href="#C3_0_a1da098a50" x="111.361195" y="114.902062" style="fill: #3e5751; fill-opacity: 0.45"/>
    </g>
    <g clip-path="url(#pb8fdf327b0)">
     <use xlink:href="#C3_0_a1da098a50" x="111.131269" y="114.902062" style="fill: #3e5751; fill-opacity: 0.45"/>
    </g>
    <g clip-path="url(#pb8fdf327b0)">
     <use xlink:href="#C3_0_a1da098a50" x="112.802504" y="114.902062" style="fill: #3e5751; fill-opacity: 0.45"/>
    </g>
    <g clip-path="url(#pb8fdf327b0)">
     <use xlink:href="#C3_0_a1da098a50" x="111.725422" y="114.902062" style="fill: #3e5751; fill-opacity: 0.45"/>
    </g>
    <g clip-path="url(#pb8fdf327b0)">
     <use xlink:href="#C3_0_a1da098a50" x="110.703042" y="114.902062" style="fill: #3e5751; fill-opacity: 0.45"/>
    </g>
    <g clip-path="url(#pb8fdf327b0)">
     <use xlink:href="#C3_0_a1da098a50" x="112.805061" y="114.902062" style="fill: #3e5751; fill-opacity: 0.45"/>
    </g>
    <g clip-path="url(#pb8fdf327b0)">
     <use xlink:href="#C3_0_a1da098a50" x="111.791805" y="114.902062" style="fill: #3e5751; fill-opacity: 0.45"/>
    </g>
    <g clip-path="url(#pb8fdf327b0)">
     <use xlink:href="#C3_0_a1da098a50" x="111.379983" y="114.902062" style="fill: #3e5751; fill-opacity: 0.45"/>
    </g>
    <g clip-path="url(#pb8fdf327b0)">
     <use xlink:href="#C3_0_a1da098a50" x="114.476717" y="114.902062" style="fill: #3e5751; fill-opacity: 0.45"/>
    </g>
    <g clip-path="url(#pb8fdf327b0)">
     <use xlink:href="#C3_0_a1da098a50" x="111.243227" y="114.902062" style="fill: #3e5751; fill-opacity: 0.45"/>
    </g>
    <g clip-path="url(#pb8fdf327b0)">
     <use xlink:href="#C3_0_a1da098a50" x="111.244144" y="114.902062" style="fill: #3e5751; fill-opacity: 0.45"/>
    </g>
    <g clip-path="url(#pb8fdf327b0)">
     <use xlink:href="#C3_0_a1da098a50" x="115.610479" y="114.902062" style="fill: #3e5751; fill-opacity: 0.45"/>
    </g>
    <g clip-path="url(#pb8fdf327b0)">
     <use xlink:href="#C3_0_a1da098a50" x="114.802362" y="114.902062" style="fill: #3e5751; fill-opacity: 0.45"/>
    </g>
    <g clip-path="url(#pb8fdf327b0)">
     <use xlink:href="#C3_0_a1da098a50" x="112.677584" y="114.902062" style="fill: #3e5751; fill-opacity: 0.45"/>
    </g>
    <g clip-path="url(#pb8fdf327b0)">
     <use xlink:href="#C3_0_a1da098a50" x="114.915062" y="114.902062" style="fill: #3e5751; fill-opacity: 0.45"/>
    </g>
    <g clip-path="url(#pb8fdf327b0)">
     <use xlink:href="#C3_0_a1da098a50" x="112.289115" y="114.902062" style="fill: #3e5751; fill-opacity: 0.45"/>
    </g>
    <g clip-path="url(#pb8fdf327b0)">
     <use xlink:href="#C3_0_a1da098a50" x="113.573962" y="114.902062" style="fill: #3e5751; fill-opacity: 0.45"/>
    </g>
    <g clip-path="url(#pb8fdf327b0)">
     <use xlink:href="#C3_0_a1da098a50" x="111.831586" y="114.902062" style="fill: #3e5751; fill-opacity: 0.45"/>
    </g>
    <g clip-path="url(#pb8fdf327b0)">
     <use xlink:href="#C3_0_a1da098a50" x="114.057301" y="114.902062" style="fill: #3e5751; fill-opacity: 0.45"/>
    </g>
    <g clip-path="url(#pb8fdf327b0)">
     <use xlink:href="#C3_0_a1da098a50" x="114.635591" y="114.902062" style="fill: #3e5751; fill-opacity: 0.45"/>
    </g>
    <g clip-path="url(#pb8fdf327b0)">
     <use xlink:href="#C3_0_a1da098a50" x="113.866065" y="114.902062" style="fill: #3e5751; fill-opacity: 0.45"/>
    </g>
    <g clip-path="url(#pb8fdf327b0)">
     <use xlink:href="#C3_0_a1da098a50" x="111.187766" y="114.902062" style="fill: #3e5751; fill-opacity: 0.45"/>
    </g>
    <g clip-path="url(#pb8fdf327b0)">
     <use xlink:href="#C3_0_a1da098a50" x="112.707456" y="114.902062" style="fill: #3e5751; fill-opacity: 0.45"/>
    </g>
    <g clip-path="url(#pb8fdf327b0)">
     <use xlink:href="#C3_0_a1da098a50" x="111.465518" y="114.902062" style="fill: #3e5751; fill-opacity: 0.45"/>
    </g>
    <g clip-path="url(#pb8fdf327b0)">
     <use xlink:href="#C3_0_a1da098a50" x="113.818264" y="114.902062" style="fill: #3e5751; fill-opacity: 0.45"/>
    </g>
    <g clip-path="url(#pb8fdf327b0)">
     <use xlink:href="#C3_0_a1da098a50" x="114.076753" y="114.902062" style="fill: #3e5751; fill-opacity: 0.45"/>
    </g>
    <g clip-path="url(#pb8fdf327b0)">
     <use xlink:href="#C3_0_a1da098a50" x="112.319771" y="114.902062" style="fill: #3e5751; fill-opacity: 0.45"/>
    </g>
    <g clip-path="url(#pb8fdf327b0)">
     <use xlink:href="#C3_0_a1da098a50" x="112.993848" y="114.902062" style="fill: #3e5751; fill-opacity: 0.45"/>
    </g>
    <g clip-path="url(#pb8fdf327b0)">
     <use xlink:href="#C3_0_a1da098a50" x="110.662356" y="114.902062" style="fill: #3e5751; fill-opacity: 0.45"/>
    </g>
    <g clip-path="url(#pb8fdf327b0)">
     <use xlink:href="#C3_0_a1da098a50" x="111.715591" y="114.902062" style="fill: #3e5751; fill-opacity: 0.45"/>
    </g>
    <g clip-path="url(#pb8fdf327b0)">
     <use xlink:href="#C3_0_a1da098a50" x="115.038579" y="114.902062" style="fill: #3e5751; fill-opacity: 0.45"/>
    </g>
    <g clip-path="url(#pb8fdf327b0)">
     <use xlink:href="#C3_0_a1da098a50" x="112.413745" y="114.902062" style="fill: #3e5751; fill-opacity: 0.45"/>
    </g>
    <g clip-path="url(#pb8fdf327b0)">
     <use xlink:href="#C3_0_a1da098a50" x="111.706829" y="114.902062" style="fill: #3e5751; fill-opacity: 0.45"/>
    </g>
    <g clip-path="url(#pb8fdf327b0)">
     <use xlink:href="#C3_0_a1da098a50" x="114.942892" y="114.902062" style="fill: #3e5751; fill-opacity: 0.45"/>
    </g>
    <g clip-path="url(#pb8fdf327b0)">
     <use xlink:href="#C3_0_a1da098a50" x="111.298642" y="114.902062" style="fill: #3e5751; fill-opacity: 0.45"/>
    </g>
   </g>
   <g id="line2d_8">
    <path d="M 33.2055 115.172106 
L 36.2745 115.172106 
M 34.74 115.172106 
L 34.74 114.527438 
M 33.2055 114.527438 
L 36.2745 114.527438 
" clip-path="url(#pb8fdf327b0)" style="fill: none; stroke: #333333; stroke-width: 2.5; stroke-linecap: square"/>
   </g>
   <g id="line2d_9">
    <path d="M 89.0055 115.172106 
L 92.0745 115.172106 
M 90.54 115.172106 
L 90.54 114.527438 
M 89.0055 114.527438 
L 92.0745 114.527438 
" clip-path="url(#pb8fdf327b0)" style="fill: none; stroke: #333333; stroke-width: 2.5; stroke-linecap: square"/>
   </g>
   <g id="line2d_10">
    <path d="M 55.5255 114.902062 
L 58.5945 114.902062 
M 57.06 114.902062 
L 57.06 114.902062 
M 55.5255 114.902062 
L 58.5945 114.902062 
" clip-path="url(#pb8fdf327b0)" style="fill: none; stroke: #333333; stroke-width: 2.5; stroke-linecap: square"/>
   </g>
   <g id="line2d_11">
    <path d="M 111.3255 114.902062 
L 114.3945 114.902062 
M 112.86 114.902062 
L 112.86 114.902062 
M 111.3255 114.902062 
L 114.3945 114.902062 
" clip-path="url(#pb8fdf327b0)" style="fill: none; stroke: #333333; stroke-width: 2.5; stroke-linecap: square"/>
   </g>
   <g id="patch_9">
    <path d="M 18 115.344 
L 18 15.552 
" style="fill: none; stroke: #000000; stroke-linejoin: miter; stroke-linecap: square"/>
   </g>
   <g id="patch_10">
    <path d="M 18 115.344 
L 129.6 115.344 
" style="fill: none; stroke: #000000; stroke-linejoin: miter; stroke-linecap: square"/>
   </g>
   <g id="PathCollection_5">
    <defs>
     <path id="m8d9f948bde" d="M 0 3 
C 0.795609 3 1.55874 2.683901 2.12132 2.12132 
C 2.683901 1.55874 3 0.795609 3 0 
C 3 -0.795609 2.683901 -1.55874 2.12132 -2.12132 
C 1.55874 -2.683901 0.795609 -3 0 -3 
C -0.795609 -3 -1.55874 -2.683901 -2.12132 -2.12132 
C -2.683901 -1.55874 -3 -0.795609 -3 0 
C -3 0.795609 -2.683901 1.55874 -2.12132 2.12132 
C -1.55874 2.683901 -0.795609 3 0 3 
z
"/>
    </defs>
    <g clip-path="url(#pb8fdf327b0)">
     <use xlink:href="#m8d9f948bde" x="34.74" y="114.849772" style="fill: #333333"/>
    </g>
   </g>
   <g id="PathCollection_6">
    <g clip-path="url(#pb8fdf327b0)">
     <use xlink:href="#m8d9f948bde" x="57.06" y="114.902062" style="fill: #333333"/>
    </g>
   </g>
   <g id="PathCollection_7">
    <g clip-path="url(#pb8fdf327b0)">
     <use xlink:href="#m8d9f948bde" x="90.54" y="114.849772" style="fill: #333333"/>
    </g>
   </g>
   <g id="PathCollection_8">
    <g clip-path="url(#pb8fdf327b0)">
     <use xlink:href="#m8d9f948bde" x="112.86" y="114.902062" style="fill: #333333"/>
    </g>
   </g>
   <g id="line2d_12"/>
   <g id="line2d_13"/>
  </g>
 </g>
 <defs>
  <clipPath id="pb8fdf327b0">
   <rect x="18" y="15.552" width="111.6" height="99.792"/>
  </clipPath>
 </defs>
</svg>
