<?xml version="1.0" encoding="utf-8" standalone="no"?>
<!DOCTYPE svg PUBLIC "-//W3C//DTD SVG 1.1//EN"
  "http://www.w3.org/Graphics/SVG/1.1/DTD/svg11.dtd">
<svg xmlns:xlink="http://www.w3.org/1999/xlink" width="144pt" height="129.6pt" viewBox="0 0 144 129.6" xmlns="http://www.w3.org/2000/svg" version="1.1">
 <metadata>
  <rdf:RDF xmlns:dc="http://purl.org/dc/elements/1.1/" xmlns:cc="http://creativecommons.org/ns#" xmlns:rdf="http://www.w3.org/1999/02/22-rdf-syntax-ns#">
   <cc:Work>
    <dc:type rdf:resource="http://purl.org/dc/dcmitype/StillImage"/>
    <dc:date>2025-04-02T23:18:13.140507</dc:date>
    <dc:format>image/svg+xml</dc:format>
    <dc:creator>
     <cc:Agent>
      <dc:title>Matplotlib v3.7.1, https://matplotlib.org/</dc:title>
     </cc:Agent>
    </dc:creator>
   </cc:Work>
  </rdf:RDF>
 </metadata>
 <defs>
  <style type="text/css">*{stroke-linejoin: round; stroke-linecap: butt}</style>
 </defs>
 <g id="figure_1">
  <g id="patch_1">
   <path d="M 0 129.6 
L 144 129.6 
L 144 0 
L 0 0 
L 0 129.6 
z
" style="fill: none"/>
  </g>
  <g id="axes_1">
   <g id="patch_2">
    <path d="M 18 115.344 
L 129.6 115.344 
L 129.6 15.552 
L 18 15.552 
L 18 115.344 
z
" style="fill: none"/>
   </g>
   <g id="PolyCollection_1">
    <path d="M 34.989764 107.679467 
L 34.490236 107.679467 
L 34.421148 106.914426 
L 34.337709 106.149386 
L 34.238261 105.384345 
L 34.12126 104.619305 
L 33.985342 103.854264 
L 33.829381 103.089224 
L 33.65254 102.324183 
L 33.454298 101.559143 
L 33.234459 100.794102 
L 32.993138 100.029062 
L 32.730724 99.264021 
L 32.447824 98.498981 
L 32.145203 97.73394 
L 31.823707 96.9689 
L 31.484212 96.203859 
L 31.127578 95.438819 
L 30.754637 94.673778 
L 30.366218 93.908738 
L 29.9632 93.143698 
L 29.546604 92.378657 
L 29.117712 91.613617 
L 28.678201 90.848576 
L 28.230271 90.083536 
L 27.776766 89.318495 
L 27.321252 88.553455 
L 26.868049 87.788414 
L 26.4222 87.023374 
L 25.989364 86.258333 
L 25.575649 85.493293 
L 25.187371 84.728252 
L 24.830756 83.963212 
L 24.511622 83.198171 
L 24.235037 82.433131 
L 24.005 81.66809 
L 23.824173 80.90305 
L 23.693681 80.138009 
L 23.613005 79.372969 
L 23.58 78.607928 
L 23.591014 77.842888 
L 23.641132 77.077847 
L 23.724507 76.312807 
L 23.834771 75.547766 
L 23.965471 74.782726 
L 24.110505 74.017685 
L 24.264518 73.252645 
L 24.42321 72.487605 
L 24.583538 71.722564 
L 24.743789 70.957524 
L 24.903526 70.192483 
L 25.063403 69.427443 
L 25.224891 68.662402 
L 25.389933 67.897362 
L 25.560574 67.132321 
L 25.738606 66.367281 
L 25.925269 65.60224 
L 26.121029 64.8372 
L 26.325473 64.072159 
L 26.537308 63.307119 
L 26.754463 62.542078 
L 26.974297 61.777038 
L 27.193855 61.011997 
L 27.410167 60.246957 
L 27.620545 59.481916 
L 27.822852 58.716876 
L 28.015705 57.951835 
L 28.198622 57.186795 
L 28.372065 56.421754 
L 28.537415 55.656714 
L 28.696858 54.891673 
L 28.853213 54.126633 
L 29.009715 53.361593 
L 29.169763 52.596552 
L 29.336672 51.831512 
L 29.513436 51.066471 
L 29.702513 50.301431 
L 29.90566 49.53639 
L 30.12382 48.77135 
L 30.357053 48.006309 
L 30.604541 47.241269 
L 30.864632 46.476228 
L 31.134936 45.711188 
L 31.412465 44.946147 
L 31.693793 44.181107 
L 31.975242 43.416066 
L 32.253062 42.651026 
L 32.523618 41.885985 
L 32.783543 41.120945 
L 33.029885 40.355904 
L 33.260199 39.590864 
L 33.472625 38.825823 
L 33.665915 38.060783 
L 33.839426 37.295742 
L 33.993092 36.530702 
L 34.127356 35.765661 
L 34.243096 35.000621 
L 34.341529 34.235581 
L 34.424123 33.47054 
L 34.492496 32.7055 
L 34.548339 31.940459 
L 34.931661 31.940459 
L 34.931661 31.940459 
L 34.987504 32.7055 
L 35.055877 33.47054 
L 35.138471 34.235581 
L 35.236904 35.000621 
L 35.352644 35.765661 
L 35.486908 36.530702 
L 35.640574 37.295742 
L 35.814085 38.060783 
L 36.007375 38.825823 
L 36.219801 39.590864 
L 36.450115 40.355904 
L 36.696457 41.120945 
L 36.956382 41.885985 
L 37.226938 42.651026 
L 37.504758 43.416066 
L 37.786207 44.181107 
L 38.067535 44.946147 
L 38.345064 45.711188 
L 38.615368 46.476228 
L 38.875459 47.241269 
L 39.122947 48.006309 
L 39.35618 48.77135 
L 39.57434 49.53639 
L 39.777487 50.301431 
L 39.966564 51.066471 
L 40.143328 51.831512 
L 40.310237 52.596552 
L 40.470285 53.361593 
L 40.626787 54.126633 
L 40.783142 54.891673 
L 40.942585 55.656714 
L 41.107935 56.421754 
L 41.281378 57.186795 
L 41.464295 57.951835 
L 41.657148 58.716876 
L 41.859455 59.481916 
L 42.069833 60.246957 
L 42.286145 61.011997 
L 42.505703 61.777038 
L 42.725537 62.542078 
L 42.942692 63.307119 
L 43.154527 64.072159 
L 43.358971 64.8372 
L 43.554731 65.60224 
L 43.741394 66.367281 
L 43.919426 67.132321 
L 44.090067 67.897362 
L 44.255109 68.662402 
L 44.416597 69.427443 
L 44.576474 70.192483 
L 44.736211 70.957524 
L 44.896462 71.722564 
L 45.05679 72.487605 
L 45.215482 73.252645 
L 45.369495 74.017685 
L 45.514529 74.782726 
L 45.645229 75.547766 
L 45.755493 76.312807 
L 45.838868 77.077847 
L 45.888986 77.842888 
L 45.9 78.607928 
L 45.866995 79.372969 
L 45.786319 80.138009 
L 45.655827 80.90305 
L 45.475 81.66809 
L 45.244963 82.433131 
L 44.968378 83.198171 
L 44.649244 83.963212 
L 44.292629 84.728252 
L 43.904351 85.493293 
L 43.490636 86.258333 
L 43.0578 87.023374 
L 42.611951 87.788414 
L 42.158748 88.553455 
L 41.703234 89.318495 
L 41.249729 90.083536 
L 40.801799 90.848576 
L 40.362288 91.613617 
L 39.933396 92.378657 
L 39.5168 93.143698 
L 39.113782 93.908738 
L 38.725363 94.673778 
L 38.352422 95.438819 
L 37.995788 96.203859 
L 37.656293 96.9689 
L 37.334797 97.73394 
L 37.032176 98.498981 
L 36.749276 99.264021 
L 36.486862 100.029062 
L 36.245541 100.794102 
L 36.025702 101.559143 
L 35.82746 102.324183 
L 35.650619 103.089224 
L 35.494658 103.854264 
L 35.35874 104.619305 
L 35.241739 105.384345 
L 35.142291 106.149386 
L 35.058852 106.914426 
L 34.989764 107.679467 
z
" clip-path="url(#pcf83c90336)" style="fill: #20415a; fill-opacity: 0.35"/>
   </g>
   <g id="PolyCollection_2">
    <path d="M 57.479012 110.808 
L 56.640988 110.808 
L 56.519186 109.891636 
L 56.369658 108.975273 
L 56.188428 108.058909 
L 55.971587 107.142545 
L 55.715488 106.226182 
L 55.416963 105.309818 
L 55.073568 104.393455 
L 54.68383 103.477091 
L 54.247493 102.560727 
L 53.765727 101.644364 
L 53.241306 100.728 
L 52.67871 99.811636 
L 52.084154 98.895273 
L 51.46552 97.978909 
L 50.832194 97.062545 
L 50.194795 96.146182 
L 49.564818 95.229818 
L 48.9542 94.313455 
L 48.374823 93.397091 
L 47.838006 92.480727 
L 47.353996 91.564364 
L 46.931504 90.648 
L 46.577323 89.731636 
L 46.296037 88.815273 
L 46.089871 87.898909 
L 45.958667 86.982545 
L 45.9 86.066182 
L 45.909427 85.149818 
L 45.980836 84.233455 
L 46.106882 83.317091 
L 46.279459 82.400727 
L 46.490194 81.484364 
L 46.730898 80.568 
L 46.99397 79.651636 
L 47.272707 78.735273 
L 47.561523 77.818909 
L 47.856043 76.902545 
L 48.15311 75.986182 
L 48.450685 75.069818 
L 48.747674 74.153455 
L 49.043705 73.237091 
L 49.338879 72.320727 
L 49.633514 71.404364 
L 49.927919 70.488 
L 50.2222 69.571636 
L 50.516118 68.655273 
L 50.809014 67.738909 
L 51.099778 66.822545 
L 51.386883 65.906182 
L 51.668453 64.989818 
L 51.942371 64.073455 
L 52.206399 63.157091 
L 52.458306 62.240727 
L 52.695991 61.324364 
L 52.917586 60.408 
L 53.121548 59.491636 
L 53.306711 58.575273 
L 53.472331 57.658909 
L 53.618091 56.742545 
L 53.744105 55.826182 
L 53.850891 54.909818 
L 53.939347 53.993455 
L 54.010718 53.077091 
L 54.066563 52.160727 
L 54.108722 51.244364 
L 54.139286 50.328 
L 54.160564 49.411636 
L 54.175046 48.495273 
L 54.18537 47.578909 
L 54.194262 46.662545 
L 54.204486 45.746182 
L 54.218762 44.829818 
L 54.239689 43.913455 
L 54.269648 42.997091 
L 54.310707 42.080727 
L 54.364531 41.164364 
L 54.432295 40.248 
L 54.514624 39.331636 
L 54.611549 38.415273 
L 54.722499 37.498909 
L 54.846322 36.582545 
L 54.98134 35.666182 
L 55.125431 34.749818 
L 55.276135 33.833455 
L 55.430785 32.917091 
L 55.586629 32.000727 
L 55.74097 31.084364 
L 55.89128 30.168 
L 56.035303 29.251636 
L 56.171138 28.335273 
L 56.297288 27.418909 
L 56.412685 26.502545 
L 56.516692 25.586182 
L 56.609073 24.669818 
L 56.689956 23.753455 
L 56.759773 22.837091 
L 56.819196 21.920727 
L 56.869076 21.004364 
L 56.910371 20.088 
L 57.209629 20.088 
L 57.209629 20.088 
L 57.250924 21.004364 
L 57.300804 21.920727 
L 57.360227 22.837091 
L 57.430044 23.753455 
L 57.510927 24.669818 
L 57.603308 25.586182 
L 57.707315 26.502545 
L 57.822712 27.418909 
L 57.948862 28.335273 
L 58.084697 29.251636 
L 58.22872 30.168 
L 58.37903 31.084364 
L 58.533371 32.000727 
L 58.689215 32.917091 
L 58.843865 33.833455 
L 58.994569 34.749818 
L 59.13866 35.666182 
L 59.273678 36.582545 
L 59.397501 37.498909 
L 59.508451 38.415273 
L 59.605376 39.331636 
L 59.687705 40.248 
L 59.755469 41.164364 
L 59.809293 42.080727 
L 59.850352 42.997091 
L 59.880311 43.913455 
L 59.901238 44.829818 
L 59.915514 45.746182 
L 59.925738 46.662545 
L 59.93463 47.578909 
L 59.944954 48.495273 
L 59.959436 49.411636 
L 59.980714 50.328 
L 60.011278 51.244364 
L 60.053437 52.160727 
L 60.109282 53.077091 
L 60.180653 53.993455 
L 60.269109 54.909818 
L 60.375895 55.826182 
L 60.501909 56.742545 
L 60.647669 57.658909 
L 60.813289 58.575273 
L 60.998452 59.491636 
L 61.202414 60.408 
L 61.424009 61.324364 
L 61.661694 62.240727 
L 61.913601 63.157091 
L 62.177629 64.073455 
L 62.451547 64.989818 
L 62.733117 65.906182 
L 63.020222 66.822545 
L 63.310986 67.738909 
L 63.603882 68.655273 
L 63.8978 69.571636 
L 64.192081 70.488 
L 64.486486 71.404364 
L 64.781121 72.320727 
L 65.076295 73.237091 
L 65.372326 74.153455 
L 65.669315 75.069818 
L 65.96689 75.986182 
L 66.263957 76.902545 
L 66.558477 77.818909 
L 66.847293 78.735273 
L 67.12603 79.651636 
L 67.389102 80.568 
L 67.629806 81.484364 
L 67.840541 82.400727 
L 68.013118 83.317091 
L 68.139164 84.233455 
L 68.210573 85.149818 
L 68.22 86.066182 
L 68.161333 86.982545 
L 68.030129 87.898909 
L 67.823963 88.815273 
L 67.542677 89.731636 
L 67.188496 90.648 
L 66.766004 91.564364 
L 66.281994 92.480727 
L 65.745177 93.397091 
L 65.1658 94.313455 
L 64.555182 95.229818 
L 63.925205 96.146182 
L 63.287806 97.062545 
L 62.65448 97.978909 
L 62.035846 98.895273 
L 61.44129 99.811636 
L 60.878694 100.728 
L 60.354273 101.644364 
L 59.872507 102.560727 
L 59.43617 103.477091 
L 59.046432 104.393455 
L 58.703037 105.309818 
L 58.404512 106.226182 
L 58.148413 107.142545 
L 57.931572 108.058909 
L 57.750342 108.975273 
L 57.600814 109.891636 
L 57.479012 110.808 
z
" clip-path="url(#pcf83c90336)" style="fill: #c1613e; fill-opacity: 0.35"/>
   </g>
   <g id="PolyCollection_3">
    <path d="M 90.735876 103.220714 
L 90.344124 103.220714 
L 90.286009 102.428255 
L 90.214959 101.635797 
L 90.129408 100.843338 
L 90.027953 100.05088 
L 89.909442 99.258421 
L 89.773071 98.465962 
L 89.618458 97.673504 
L 89.445702 96.881045 
L 89.255404 96.088586 
L 89.048647 95.296128 
L 88.826939 94.503669 
L 88.592101 93.711211 
L 88.346122 92.918752 
L 88.090979 92.126293 
L 87.828454 91.333835 
L 87.559944 90.541376 
L 87.286309 89.748917 
L 87.00776 88.956459 
L 86.723819 88.164 
L 86.433354 87.371542 
L 86.134695 86.579083 
L 85.825828 85.786624 
L 85.504656 84.994166 
L 85.169294 84.201707 
L 84.818384 83.409249 
L 84.451386 82.61679 
L 84.068819 81.824331 
L 83.672418 81.031873 
L 83.265193 80.239414 
L 82.851381 79.446955 
L 82.436278 78.654497 
L 82.025983 77.862038 
L 81.627058 77.06958 
L 81.246159 76.277121 
L 80.889654 75.484662 
L 80.563273 74.692204 
L 80.271824 73.899745 
L 80.019004 73.107287 
L 79.807314 72.314828 
L 79.638076 71.522369 
L 79.511563 70.729911 
L 79.427204 69.937452 
L 79.38384 69.144993 
L 79.38 68.352535 
L 79.414168 67.560076 
L 79.484993 66.767618 
L 79.591433 65.975159 
L 79.732812 65.1827 
L 79.908779 64.390242 
L 80.11918 63.597783 
L 80.363865 62.805324 
L 80.642444 62.012866 
L 80.95403 61.220407 
L 81.296998 60.427949 
L 81.668791 59.63549 
L 82.065795 58.843031 
L 82.483305 58.050573 
L 82.915583 57.258114 
L 83.356015 56.465656 
L 83.797345 55.673197 
L 84.231985 54.880738 
L 84.652361 54.08828 
L 85.051279 53.295821 
L 85.422291 52.503362 
L 85.760019 51.710904 
L 86.060437 50.918445 
L 86.321077 50.125987 
L 86.541156 49.333528 
L 86.721609 48.541069 
L 86.865034 47.748611 
L 86.975541 46.956152 
L 87.05852 46.163693 
L 87.120338 45.371235 
L 87.167983 44.578776 
L 87.20867 43.786318 
L 87.24944 42.993859 
L 87.296779 42.2014 
L 87.356268 41.408942 
L 87.432304 40.616483 
L 87.527903 39.824025 
L 87.644596 39.031566 
L 87.782421 38.239107 
L 87.940021 37.446649 
L 88.114821 36.65419 
L 88.303276 35.861731 
L 88.501166 35.069273 
L 88.703911 34.276814 
L 88.906879 33.484356 
L 89.105672 32.691897 
L 89.296358 31.899438 
L 89.475648 31.10698 
L 89.641008 30.314521 
L 89.790702 29.522062 
L 89.923779 28.729604 
L 90.040009 27.937145 
L 90.13978 27.144687 
L 90.223978 26.352228 
L 90.293855 25.559769 
L 90.350898 24.767311 
L 90.729102 24.767311 
L 90.729102 24.767311 
L 90.786145 25.559769 
L 90.856022 26.352228 
L 90.94022 27.144687 
L 91.039991 27.937145 
L 91.156221 28.729604 
L 91.289298 29.522062 
L 91.438992 30.314521 
L 91.604352 31.10698 
L 91.783642 31.899438 
L 91.974328 32.691897 
L 92.173121 33.484356 
L 92.376089 34.276814 
L 92.578834 35.069273 
L 92.776724 35.861731 
L 92.965179 36.65419 
L 93.139979 37.446649 
L 93.297579 38.239107 
L 93.435404 39.031566 
L 93.552097 39.824025 
L 93.647696 40.616483 
L 93.723732 41.408942 
L 93.783221 42.2014 
L 93.83056 42.993859 
L 93.87133 43.786318 
L 93.912017 44.578776 
L 93.959662 45.371235 
L 94.02148 46.163693 
L 94.104459 46.956152 
L 94.214966 47.748611 
L 94.358391 48.541069 
L 94.538844 49.333528 
L 94.758923 50.125987 
L 95.019563 50.918445 
L 95.319981 51.710904 
L 95.657709 52.503362 
L 96.028721 53.295821 
L 96.427639 54.08828 
L 96.848015 54.880738 
L 97.282655 55.673197 
L 97.723985 56.465656 
L 98.164417 57.258114 
L 98.596695 58.050573 
L 99.014205 58.843031 
L 99.411209 59.63549 
L 99.783002 60.427949 
L 100.12597 61.220407 
L 100.437556 62.012866 
L 100.716135 62.805324 
L 100.96082 63.597783 
L 101.171221 64.390242 
L 101.347188 65.1827 
L 101.488567 65.975159 
L 101.595007 66.767618 
L 101.665832 67.560076 
L 101.7 68.352535 
L 101.69616 69.144993 
L 101.652796 69.937452 
L 101.568437 70.729911 
L 101.441924 71.522369 
L 101.272686 72.314828 
L 101.060996 73.107287 
L 100.808176 73.899745 
L 100.516727 74.692204 
L 100.190346 75.484662 
L 99.833841 76.277121 
L 99.452942 77.06958 
L 99.054017 77.862038 
L 98.643722 78.654497 
L 98.228619 79.446955 
L 97.814807 80.239414 
L 97.407582 81.031873 
L 97.011181 81.824331 
L 96.628614 82.61679 
L 96.261616 83.409249 
L 95.910706 84.201707 
L 95.575344 84.994166 
L 95.254172 85.786624 
L 94.945305 86.579083 
L 94.646646 87.371542 
L 94.356181 88.164 
L 94.07224 88.956459 
L 93.793691 89.748917 
L 93.520056 90.541376 
L 93.251546 91.333835 
L 92.989021 92.126293 
L 92.733878 92.918752 
L 92.487899 93.711211 
L 92.253061 94.503669 
L 92.031353 95.296128 
L 91.824596 96.088586 
L 91.634298 96.881045 
L 91.461542 97.673504 
L 91.306929 98.465962 
L 91.170558 99.258421 
L 91.052047 100.05088 
L 90.950592 100.843338 
L 90.865041 101.635797 
L 90.793991 102.428255 
L 90.735876 103.220714 
z
" clip-path="url(#pcf83c90336)" style="fill: #20415a; fill-opacity: 0.35"/>
   </g>
   <g id="PolyCollection_4">
    <path d="M 113.084512 105.855965 
L 112.635488 105.855965 
L 112.565795 105.039643 
L 112.478737 104.22332 
L 112.371359 103.406998 
L 112.240596 102.590675 
L 112.083383 101.774352 
L 111.89679 100.95803 
L 111.678174 100.141707 
L 111.425348 99.325385 
L 111.136757 98.509062 
L 110.811633 97.69274 
L 110.450141 96.876417 
L 110.053479 96.060095 
L 109.623933 95.243772 
L 109.164867 94.42745 
L 108.680651 93.611127 
L 108.176527 92.794805 
L 107.658405 91.978482 
L 107.132631 91.16216 
L 106.605718 90.345837 
L 106.084078 89.529515 
L 105.57378 88.713192 
L 105.080354 87.896869 
L 104.608663 87.080547 
L 104.162845 86.264224 
L 103.74634 85.447902 
L 103.361991 84.631579 
L 103.012182 83.815257 
L 102.699014 82.998934 
L 102.42447 82.182612 
L 102.190535 81.366289 
L 101.99926 80.549967 
L 101.852733 79.733644 
L 101.752958 78.917322 
L 101.701658 78.100999 
L 101.7 77.284677 
L 101.748293 76.468354 
L 101.845692 75.652032 
L 101.989948 74.835709 
L 102.177242 74.019387 
L 102.402141 73.203064 
L 102.657689 72.386741 
L 102.935635 71.570419 
L 103.226791 70.754096 
L 103.521489 69.937774 
L 103.810105 69.121451 
L 104.083592 68.305129 
L 104.333995 67.488806 
L 104.554889 66.672484 
L 104.741708 65.856161 
L 104.891954 65.039839 
L 105.005253 64.223516 
L 105.083286 63.407194 
L 105.129587 62.590871 
L 105.149245 61.774549 
L 105.148537 60.958226 
L 105.134521 60.141904 
L 105.114621 59.325581 
L 105.096228 58.509259 
L 105.086354 57.692936 
L 105.091329 56.876613 
L 105.116572 56.060291 
L 105.166431 55.243968 
L 105.244082 54.427646 
L 105.351504 53.611323 
L 105.489492 52.795001 
L 105.657733 51.978678 
L 105.854911 51.162356 
L 106.078845 50.346033 
L 106.326655 49.529711 
L 106.594934 48.713388 
L 106.879934 47.897066 
L 107.177748 47.080743 
L 107.484482 46.264421 
L 107.796406 45.448098 
L 108.11008 44.631776 
L 108.422449 43.815453 
L 108.730897 42.999131 
L 109.033266 42.182808 
L 109.327842 41.366485 
L 109.613306 40.550163 
L 109.888674 39.73384 
L 110.153213 38.917518 
L 110.406368 38.101195 
L 110.647684 37.284873 
L 110.876762 36.46855 
L 111.093212 35.652228 
L 111.296648 34.835905 
L 111.486694 34.019583 
L 111.663004 33.20326 
L 111.825303 32.386938 
L 111.973419 31.570615 
L 112.10732 30.754293 
L 112.227148 29.93797 
L 112.333227 29.121648 
L 112.426071 28.305325 
L 112.506373 27.489002 
L 112.574979 26.67268 
L 112.632856 25.856357 
L 112.681056 25.040035 
L 113.038944 25.040035 
L 113.038944 25.040035 
L 113.087144 25.856357 
L 113.145021 26.67268 
L 113.213627 27.489002 
L 113.293929 28.305325 
L 113.386773 29.121648 
L 113.492852 29.93797 
L 113.61268 30.754293 
L 113.746581 31.570615 
L 113.894697 32.386938 
L 114.056996 33.20326 
L 114.233306 34.019583 
L 114.423352 34.835905 
L 114.626788 35.652228 
L 114.843238 36.46855 
L 115.072316 37.284873 
L 115.313632 38.101195 
L 115.566787 38.917518 
L 115.831326 39.73384 
L 116.106694 40.550163 
L 116.392158 41.366485 
L 116.686734 42.182808 
L 116.989103 42.999131 
L 117.297551 43.815453 
L 117.60992 44.631776 
L 117.923594 45.448098 
L 118.235518 46.264421 
L 118.542252 47.080743 
L 118.840066 47.897066 
L 119.125066 48.713388 
L 119.393345 49.529711 
L 119.641155 50.346033 
L 119.865089 51.162356 
L 120.062267 51.978678 
L 120.230508 52.795001 
L 120.368496 53.611323 
L 120.475918 54.427646 
L 120.553569 55.243968 
L 120.603428 56.060291 
L 120.628671 56.876613 
L 120.633646 57.692936 
L 120.623772 58.509259 
L 120.605379 59.325581 
L 120.585479 60.141904 
L 120.571463 60.958226 
L 120.570755 61.774549 
L 120.590413 62.590871 
L 120.636714 63.407194 
L 120.714747 64.223516 
L 120.828046 65.039839 
L 120.978292 65.856161 
L 121.165111 66.672484 
L 121.386005 67.488806 
L 121.636408 68.305129 
L 121.909895 69.121451 
L 122.198511 69.937774 
L 122.493209 70.754096 
L 122.784365 71.570419 
L 123.062311 72.386741 
L 123.317859 73.203064 
L 123.542758 74.019387 
L 123.730052 74.835709 
L 123.874308 75.652032 
L 123.971707 76.468354 
L 124.02 77.284677 
L 124.018342 78.100999 
L 123.967042 78.917322 
L 123.867267 79.733644 
L 123.72074 80.549967 
L 123.529465 81.366289 
L 123.29553 82.182612 
L 123.020986 82.998934 
L 122.707818 83.815257 
L 122.358009 84.631579 
L 121.97366 85.447902 
L 121.557155 86.264224 
L 121.111337 87.080547 
L 120.639646 87.896869 
L 120.14622 88.713192 
L 119.635922 89.529515 
L 119.114282 90.345837 
L 118.587369 91.16216 
L 118.061595 91.978482 
L 117.543473 92.794805 
L 117.039349 93.611127 
L 116.555133 94.42745 
L 116.096067 95.243772 
L 115.666521 96.060095 
L 115.269859 96.876417 
L 114.908367 97.69274 
L 114.583243 98.509062 
L 114.294652 99.325385 
L 114.041826 100.141707 
L 113.82321 100.95803 
L 113.636617 101.774352 
L 113.479404 102.590675 
L 113.348641 103.406998 
L 113.241263 104.22332 
L 113.154205 105.039643 
L 113.084512 105.855965 
z
" clip-path="url(#pcf83c90336)" style="fill: #c1613e; fill-opacity: 0.35"/>
   </g>
   <g id="patch_3">
    <path d="M 23.58 100.343703 
L 45.9 100.343703 
L 45.9 71.742236 
L 23.58 71.742236 
L 23.58 100.343703 
z
" clip-path="url(#pcf83c90336)" style="fill: none"/>
   </g>
   <g id="patch_4">
    <path d="M 79.38 100.343703 
L 101.7 100.343703 
L 101.7 66.270651 
L 79.38 66.270651 
L 79.38 100.343703 
z
" clip-path="url(#pcf83c90336)" style="fill: none"/>
   </g>
   <g id="patch_5">
    <path d="M 45.9 100.343703 
L 68.22 100.343703 
L 68.22 75.300679 
L 45.9 75.300679 
L 45.9 100.343703 
z
" clip-path="url(#pcf83c90336)" style="fill: none"/>
   </g>
   <g id="patch_6">
    <path d="M 101.7 100.343703 
L 124.02 100.343703 
L 124.02 68.872523 
L 101.7 68.872523 
L 101.7 100.343703 
z
" clip-path="url(#pcf83c90336)" style="fill: none"/>
   </g>
   <g id="patch_7">
    <path d="M 45.9 100.343703 
L 45.9 100.343703 
L 45.9 100.343703 
L 45.9 100.343703 
z
" clip-path="url(#pcf83c90336)" style="fill: #3274a1"/>
   </g>
   <g id="patch_8">
    <path d="M 45.9 100.343703 
L 45.9 100.343703 
L 45.9 100.343703 
L 45.9 100.343703 
z
" clip-path="url(#pcf83c90336)" style="fill: #e1812c"/>
   </g>
   <g id="matplotlib.axis_1">
    <g id="xtick_1">
     <g id="line2d_1">
      <defs>
       <path id="m98c99e08ab" d="M 0 0 
L 0 3.5 
" style="stroke: #000000"/>
      </defs>
      <g>
       <use xlink:href="#m98c99e08ab" x="45.9" y="115.344" style="stroke: #000000"/>
      </g>
     </g>
     <g id="text_1">
      <!-- reward -->
      <g transform="translate(30.617969 129.501812) scale(0.1 -0.1)">
       <defs>
        <path id="ArialMT-72" d="M 416 0 
L 416 3319 
L 922 3319 
L 922 2816 
Q 1116 3169 1280 3281 
Q 1444 3394 1641 3394 
Q 1925 3394 2219 3213 
L 2025 2691 
Q 1819 2813 1613 2813 
Q 1428 2813 1281 2702 
Q 1134 2591 1072 2394 
Q 978 2094 978 1738 
L 978 0 
L 416 0 
z
" transform="scale(0.015625)"/>
        <path id="ArialMT-65" d="M 2694 1069 
L 3275 997 
Q 3138 488 2766 206 
Q 2394 -75 1816 -75 
Q 1088 -75 661 373 
Q 234 822 234 1631 
Q 234 2469 665 2931 
Q 1097 3394 1784 3394 
Q 2450 3394 2872 2941 
Q 3294 2488 3294 1666 
Q 3294 1616 3291 1516 
L 816 1516 
Q 847 969 1125 678 
Q 1403 388 1819 388 
Q 2128 388 2347 550 
Q 2566 713 2694 1069 
z
M 847 1978 
L 2700 1978 
Q 2663 2397 2488 2606 
Q 2219 2931 1791 2931 
Q 1403 2931 1139 2672 
Q 875 2413 847 1978 
z
" transform="scale(0.015625)"/>
        <path id="ArialMT-77" d="M 1034 0 
L 19 3319 
L 600 3319 
L 1128 1403 
L 1325 691 
Q 1338 744 1497 1375 
L 2025 3319 
L 2603 3319 
L 3100 1394 
L 3266 759 
L 3456 1400 
L 4025 3319 
L 4572 3319 
L 3534 0 
L 2950 0 
L 2422 1988 
L 2294 2553 
L 1622 0 
L 1034 0 
z
" transform="scale(0.015625)"/>
        <path id="ArialMT-61" d="M 2588 409 
Q 2275 144 1986 34 
Q 1697 -75 1366 -75 
Q 819 -75 525 192 
Q 231 459 231 875 
Q 231 1119 342 1320 
Q 453 1522 633 1644 
Q 813 1766 1038 1828 
Q 1203 1872 1538 1913 
Q 2219 1994 2541 2106 
Q 2544 2222 2544 2253 
Q 2544 2597 2384 2738 
Q 2169 2928 1744 2928 
Q 1347 2928 1158 2789 
Q 969 2650 878 2297 
L 328 2372 
Q 403 2725 575 2942 
Q 747 3159 1072 3276 
Q 1397 3394 1825 3394 
Q 2250 3394 2515 3294 
Q 2781 3194 2906 3042 
Q 3031 2891 3081 2659 
Q 3109 2516 3109 2141 
L 3109 1391 
Q 3109 606 3145 398 
Q 3181 191 3288 0 
L 2700 0 
Q 2613 175 2588 409 
z
M 2541 1666 
Q 2234 1541 1622 1453 
Q 1275 1403 1131 1340 
Q 988 1278 909 1158 
Q 831 1038 831 891 
Q 831 666 1001 516 
Q 1172 366 1500 366 
Q 1825 366 2078 508 
Q 2331 650 2450 897 
Q 2541 1088 2541 1459 
L 2541 1666 
z
" transform="scale(0.015625)"/>
        <path id="ArialMT-64" d="M 2575 0 
L 2575 419 
Q 2259 -75 1647 -75 
Q 1250 -75 917 144 
Q 584 363 401 755 
Q 219 1147 219 1656 
Q 219 2153 384 2558 
Q 550 2963 881 3178 
Q 1213 3394 1622 3394 
Q 1922 3394 2156 3267 
Q 2391 3141 2538 2938 
L 2538 4581 
L 3097 4581 
L 3097 0 
L 2575 0 
z
M 797 1656 
Q 797 1019 1065 703 
Q 1334 388 1700 388 
Q 2069 388 2326 689 
Q 2584 991 2584 1609 
Q 2584 2291 2321 2609 
Q 2059 2928 1675 2928 
Q 1300 2928 1048 2622 
Q 797 2316 797 1656 
z
" transform="scale(0.015625)"/>
       </defs>
       <use xlink:href="#ArialMT-72"/>
       <use xlink:href="#ArialMT-65" x="33.300781"/>
       <use xlink:href="#ArialMT-77" x="88.916016"/>
       <use xlink:href="#ArialMT-61" x="161.132812"/>
       <use xlink:href="#ArialMT-72" x="216.748047"/>
       <use xlink:href="#ArialMT-64" x="250.048828"/>
      </g>
     </g>
    </g>
    <g id="xtick_2">
     <g id="line2d_2">
      <g>
       <use xlink:href="#m98c99e08ab" x="101.7" y="115.344" style="stroke: #000000"/>
      </g>
     </g>
     <g id="text_2">
      <!-- punishment -->
      <g transform="translate(75.852344 129.501812) scale(0.1 -0.1)">
       <defs>
        <path id="ArialMT-70" d="M 422 -1272 
L 422 3319 
L 934 3319 
L 934 2888 
Q 1116 3141 1344 3267 
Q 1572 3394 1897 3394 
Q 2322 3394 2647 3175 
Q 2972 2956 3137 2557 
Q 3303 2159 3303 1684 
Q 3303 1175 3120 767 
Q 2938 359 2589 142 
Q 2241 -75 1856 -75 
Q 1575 -75 1351 44 
Q 1128 163 984 344 
L 984 -1272 
L 422 -1272 
z
M 931 1641 
Q 931 1000 1190 694 
Q 1450 388 1819 388 
Q 2194 388 2461 705 
Q 2728 1022 2728 1688 
Q 2728 2322 2467 2637 
Q 2206 2953 1844 2953 
Q 1484 2953 1207 2617 
Q 931 2281 931 1641 
z
" transform="scale(0.015625)"/>
        <path id="ArialMT-75" d="M 2597 0 
L 2597 488 
Q 2209 -75 1544 -75 
Q 1250 -75 995 37 
Q 741 150 617 320 
Q 494 491 444 738 
Q 409 903 409 1263 
L 409 3319 
L 972 3319 
L 972 1478 
Q 972 1038 1006 884 
Q 1059 663 1231 536 
Q 1403 409 1656 409 
Q 1909 409 2131 539 
Q 2353 669 2445 892 
Q 2538 1116 2538 1541 
L 2538 3319 
L 3100 3319 
L 3100 0 
L 2597 0 
z
" transform="scale(0.015625)"/>
        <path id="ArialMT-6e" d="M 422 0 
L 422 3319 
L 928 3319 
L 928 2847 
Q 1294 3394 1984 3394 
Q 2284 3394 2536 3286 
Q 2788 3178 2913 3003 
Q 3038 2828 3088 2588 
Q 3119 2431 3119 2041 
L 3119 0 
L 2556 0 
L 2556 2019 
Q 2556 2363 2490 2533 
Q 2425 2703 2258 2804 
Q 2091 2906 1866 2906 
Q 1506 2906 1245 2678 
Q 984 2450 984 1813 
L 984 0 
L 422 0 
z
" transform="scale(0.015625)"/>
        <path id="ArialMT-69" d="M 425 3934 
L 425 4581 
L 988 4581 
L 988 3934 
L 425 3934 
z
M 425 0 
L 425 3319 
L 988 3319 
L 988 0 
L 425 0 
z
" transform="scale(0.015625)"/>
        <path id="ArialMT-73" d="M 197 991 
L 753 1078 
Q 800 744 1014 566 
Q 1228 388 1613 388 
Q 2000 388 2187 545 
Q 2375 703 2375 916 
Q 2375 1106 2209 1216 
Q 2094 1291 1634 1406 
Q 1016 1563 777 1677 
Q 538 1791 414 1992 
Q 291 2194 291 2438 
Q 291 2659 392 2848 
Q 494 3038 669 3163 
Q 800 3259 1026 3326 
Q 1253 3394 1513 3394 
Q 1903 3394 2198 3281 
Q 2494 3169 2634 2976 
Q 2775 2784 2828 2463 
L 2278 2388 
Q 2241 2644 2061 2787 
Q 1881 2931 1553 2931 
Q 1166 2931 1000 2803 
Q 834 2675 834 2503 
Q 834 2394 903 2306 
Q 972 2216 1119 2156 
Q 1203 2125 1616 2013 
Q 2213 1853 2448 1751 
Q 2684 1650 2818 1456 
Q 2953 1263 2953 975 
Q 2953 694 2789 445 
Q 2625 197 2315 61 
Q 2006 -75 1616 -75 
Q 969 -75 630 194 
Q 291 463 197 991 
z
" transform="scale(0.015625)"/>
        <path id="ArialMT-68" d="M 422 0 
L 422 4581 
L 984 4581 
L 984 2938 
Q 1378 3394 1978 3394 
Q 2347 3394 2619 3248 
Q 2891 3103 3008 2847 
Q 3125 2591 3125 2103 
L 3125 0 
L 2563 0 
L 2563 2103 
Q 2563 2525 2380 2717 
Q 2197 2909 1863 2909 
Q 1613 2909 1392 2779 
Q 1172 2650 1078 2428 
Q 984 2206 984 1816 
L 984 0 
L 422 0 
z
" transform="scale(0.015625)"/>
        <path id="ArialMT-6d" d="M 422 0 
L 422 3319 
L 925 3319 
L 925 2853 
Q 1081 3097 1340 3245 
Q 1600 3394 1931 3394 
Q 2300 3394 2536 3241 
Q 2772 3088 2869 2813 
Q 3263 3394 3894 3394 
Q 4388 3394 4653 3120 
Q 4919 2847 4919 2278 
L 4919 0 
L 4359 0 
L 4359 2091 
Q 4359 2428 4304 2576 
Q 4250 2725 4106 2815 
Q 3963 2906 3769 2906 
Q 3419 2906 3187 2673 
Q 2956 2441 2956 1928 
L 2956 0 
L 2394 0 
L 2394 2156 
Q 2394 2531 2256 2718 
Q 2119 2906 1806 2906 
Q 1569 2906 1367 2781 
Q 1166 2656 1075 2415 
Q 984 2175 984 1722 
L 984 0 
L 422 0 
z
" transform="scale(0.015625)"/>
        <path id="ArialMT-74" d="M 1650 503 
L 1731 6 
Q 1494 -44 1306 -44 
Q 1000 -44 831 53 
Q 663 150 594 308 
Q 525 466 525 972 
L 525 2881 
L 113 2881 
L 113 3319 
L 525 3319 
L 525 4141 
L 1084 4478 
L 1084 3319 
L 1650 3319 
L 1650 2881 
L 1084 2881 
L 1084 941 
Q 1084 700 1114 631 
Q 1144 563 1211 522 
Q 1278 481 1403 481 
Q 1497 481 1650 503 
z
" transform="scale(0.015625)"/>
       </defs>
       <use xlink:href="#ArialMT-70"/>
       <use xlink:href="#ArialMT-75" x="55.615234"/>
       <use xlink:href="#ArialMT-6e" x="111.230469"/>
       <use xlink:href="#ArialMT-69" x="166.845703"/>
       <use xlink:href="#ArialMT-73" x="189.0625"/>
       <use xlink:href="#ArialMT-68" x="239.0625"/>
       <use xlink:href="#ArialMT-6d" x="294.677734"/>
       <use xlink:href="#ArialMT-65" x="377.978516"/>
       <use xlink:href="#ArialMT-6e" x="433.59375"/>
       <use xlink:href="#ArialMT-74" x="489.208984"/>
      </g>
     </g>
    </g>
   </g>
   <g id="matplotlib.axis_2">
    <g id="ytick_1">
     <g id="line2d_3">
      <defs>
       <path id="m7e00656f88" d="M 0 0 
L -3.5 0 
" style="stroke: #000000"/>
      </defs>
      <g>
       <use xlink:href="#m7e00656f88" x="18" y="100.343703" style="stroke: #000000"/>
      </g>
     </g>
     <g id="text_3">
      <!-- 0.0 -->
      <g transform="translate(-2.9 103.922609) scale(0.1 -0.1)">
       <defs>
        <path id="ArialMT-30" d="M 266 2259 
Q 266 3072 433 3567 
Q 600 4063 929 4331 
Q 1259 4600 1759 4600 
Q 2128 4600 2406 4451 
Q 2684 4303 2865 4023 
Q 3047 3744 3150 3342 
Q 3253 2941 3253 2259 
Q 3253 1453 3087 958 
Q 2922 463 2592 192 
Q 2263 -78 1759 -78 
Q 1097 -78 719 397 
Q 266 969 266 2259 
z
M 844 2259 
Q 844 1131 1108 757 
Q 1372 384 1759 384 
Q 2147 384 2411 759 
Q 2675 1134 2675 2259 
Q 2675 3391 2411 3762 
Q 2147 4134 1753 4134 
Q 1366 4134 1134 3806 
Q 844 3388 844 2259 
z
" transform="scale(0.015625)"/>
        <path id="ArialMT-2e" d="M 581 0 
L 581 641 
L 1222 641 
L 1222 0 
L 581 0 
z
" transform="scale(0.015625)"/>
       </defs>
       <use xlink:href="#ArialMT-30"/>
       <use xlink:href="#ArialMT-2e" x="55.615234"/>
       <use xlink:href="#ArialMT-30" x="83.398438"/>
      </g>
     </g>
    </g>
    <g id="ytick_2">
     <g id="line2d_4">
      <g>
       <use xlink:href="#m7e00656f88" x="18" y="63.994012" style="stroke: #000000"/>
      </g>
     </g>
     <g id="text_4">
      <!-- 0.5 -->
      <g transform="translate(-2.9 67.572919) scale(0.1 -0.1)">
       <defs>
        <path id="ArialMT-35" d="M 266 1200 
L 856 1250 
Q 922 819 1161 601 
Q 1400 384 1738 384 
Q 2144 384 2425 690 
Q 2706 997 2706 1503 
Q 2706 1984 2436 2262 
Q 2166 2541 1728 2541 
Q 1456 2541 1237 2417 
Q 1019 2294 894 2097 
L 366 2166 
L 809 4519 
L 3088 4519 
L 3088 3981 
L 1259 3981 
L 1013 2750 
Q 1425 3038 1878 3038 
Q 2478 3038 2890 2622 
Q 3303 2206 3303 1553 
Q 3303 931 2941 478 
Q 2500 -78 1738 -78 
Q 1113 -78 717 272 
Q 322 622 266 1200 
z
" transform="scale(0.015625)"/>
       </defs>
       <use xlink:href="#ArialMT-30"/>
       <use xlink:href="#ArialMT-2e" x="55.615234"/>
       <use xlink:href="#ArialMT-35" x="83.398438"/>
      </g>
     </g>
    </g>
    <g id="ytick_3">
     <g id="line2d_5">
      <g>
       <use xlink:href="#m7e00656f88" x="18" y="27.644322" style="stroke: #000000"/>
      </g>
     </g>
     <g id="text_5">
      <!-- 1.0 -->
      <g transform="translate(-2.9 31.223228) scale(0.1 -0.1)">
       <defs>
        <path id="ArialMT-31" d="M 2384 0 
L 1822 0 
L 1822 3584 
Q 1619 3391 1289 3197 
Q 959 3003 697 2906 
L 697 3450 
Q 1169 3672 1522 3987 
Q 1875 4303 2022 4600 
L 2384 4600 
L 2384 0 
z
" transform="scale(0.015625)"/>
       </defs>
       <use xlink:href="#ArialMT-31"/>
       <use xlink:href="#ArialMT-2e" x="55.615234"/>
       <use xlink:href="#ArialMT-30" x="83.398438"/>
      </g>
     </g>
    </g>
    <g id="text_6">
     <!-- w -->
     <g transform="translate(-8.8875 69.058937) rotate(-90) scale(0.1 -0.1)">
      <use xlink:href="#ArialMT-77"/>
     </g>
    </g>
   </g>
   <g id="PathCollection_1">
    <defs>
     <path id="C0_0_3182070d26" d="M 0 3.5 
C 0.928211 3.5 1.81853 3.131218 2.474874 2.474874 
C 3.131218 1.81853 3.5 0.928211 3.5 -0 
C 3.5 -0.928211 3.131218 -1.81853 2.474874 -2.474874 
C 1.81853 -3.131218 0.928211 -3.5 0 -3.5 
C -0.928211 -3.5 -1.81853 -3.131218 -2.474874 -2.474874 
C -3.131218 -1.81853 -3.5 -0.928211 -3.5 0 
C -3.5 0.928211 -3.131218 1.81853 -2.474874 2.474874 
C -1.81853 3.131218 -0.928211 3.5 0 3.5 
z
"/>
    </defs>
    <g clip-path="url(#pcf83c90336)">
     <use xlink:href="#C0_0_3182070d26" x="37.21281" y="79.260882" style="fill: #174263; fill-opacity: 0.45"/>
    </g>
    <g clip-path="url(#pcf83c90336)">
     <use xlink:href="#C0_0_3182070d26" x="34.941876" y="67.628981" style="fill: #174263; fill-opacity: 0.45"/>
    </g>
    <g clip-path="url(#pcf83c90336)">
     <use xlink:href="#C0_0_3182070d26" x="36.090571" y="57.451068" style="fill: #174263; fill-opacity: 0.45"/>
    </g>
    <g clip-path="url(#pcf83c90336)">
     <use xlink:href="#C0_0_3182070d26" x="35.123287" y="82.168858" style="fill: #174263; fill-opacity: 0.45"/>
    </g>
    <g clip-path="url(#pcf83c90336)">
     <use xlink:href="#C0_0_3182070d26" x="35.202097" y="66.901988" style="fill: #174263; fill-opacity: 0.45"/>
    </g>
    <g clip-path="url(#pcf83c90336)">
     <use xlink:href="#C0_0_3182070d26" x="36.167671" y="65.448" style="fill: #174263; fill-opacity: 0.45"/>
    </g>
    <g clip-path="url(#pcf83c90336)">
     <use xlink:href="#C0_0_3182070d26" x="35.887366" y="45.092173" style="fill: #174263; fill-opacity: 0.45"/>
    </g>
    <g clip-path="url(#pcf83c90336)">
     <use xlink:href="#C0_0_3182070d26" x="36.532221" y="46.546161" style="fill: #174263; fill-opacity: 0.45"/>
    </g>
    <g clip-path="url(#pcf83c90336)">
     <use xlink:href="#C0_0_3182070d26" x="36.505364" y="79.987876" style="fill: #174263; fill-opacity: 0.45"/>
    </g>
    <g clip-path="url(#pcf83c90336)">
     <use xlink:href="#C0_0_3182070d26" x="34.177939" y="51.635118" style="fill: #174263; fill-opacity: 0.45"/>
    </g>
    <g clip-path="url(#pcf83c90336)">
     <use xlink:href="#C0_0_3182070d26" x="33.500629" y="79.260882" style="fill: #174263; fill-opacity: 0.45"/>
    </g>
    <g clip-path="url(#pcf83c90336)">
     <use xlink:href="#C0_0_3182070d26" x="34.981324" y="86.53082" style="fill: #174263; fill-opacity: 0.45"/>
    </g>
    <g clip-path="url(#pcf83c90336)">
     <use xlink:href="#C0_0_3182070d26" x="36.267299" y="61.813031" style="fill: #174263; fill-opacity: 0.45"/>
    </g>
    <g clip-path="url(#pcf83c90336)">
     <use xlink:href="#C0_0_3182070d26" x="33.794951" y="77.079901" style="fill: #174263; fill-opacity: 0.45"/>
    </g>
    <g clip-path="url(#pcf83c90336)">
     <use xlink:href="#C0_0_3182070d26" x="34.512396" y="73.444932" style="fill: #174263; fill-opacity: 0.45"/>
    </g>
    <g clip-path="url(#pcf83c90336)">
     <use xlink:href="#C0_0_3182070d26" x="32.928331" y="50.18113" style="fill: #174263; fill-opacity: 0.45"/>
    </g>
    <g clip-path="url(#pcf83c90336)">
     <use xlink:href="#C0_0_3182070d26" x="32.060722" y="66.174994" style="fill: #174263; fill-opacity: 0.45"/>
    </g>
    <g clip-path="url(#pcf83c90336)">
     <use xlink:href="#C0_0_3182070d26" x="34.636699" y="67.628981" style="fill: #174263; fill-opacity: 0.45"/>
    </g>
    <g clip-path="url(#pcf83c90336)">
     <use xlink:href="#C0_0_3182070d26" x="35.298472" y="73.444932" style="fill: #174263; fill-opacity: 0.45"/>
    </g>
    <g clip-path="url(#pcf83c90336)">
     <use xlink:href="#C0_0_3182070d26" x="36.131192" y="85.076833" style="fill: #174263; fill-opacity: 0.45"/>
    </g>
    <g clip-path="url(#pcf83c90336)">
     <use xlink:href="#C0_0_3182070d26" x="35.130519" y="64.721006" style="fill: #174263; fill-opacity: 0.45"/>
    </g>
    <g clip-path="url(#pcf83c90336)">
     <use xlink:href="#C0_0_3182070d26" x="33.029585" y="87.257814" style="fill: #174263; fill-opacity: 0.45"/>
    </g>
    <g clip-path="url(#pcf83c90336)">
     <use xlink:href="#C0_0_3182070d26" x="32.878164" y="79.260882" style="fill: #174263; fill-opacity: 0.45"/>
    </g>
    <g clip-path="url(#pcf83c90336)">
     <use xlink:href="#C0_0_3182070d26" x="37.115188" y="77.806895" style="fill: #174263; fill-opacity: 0.45"/>
    </g>
    <g clip-path="url(#pcf83c90336)">
     <use xlink:href="#C0_0_3182070d26" x="32.277168" y="55.270087" style="fill: #174263; fill-opacity: 0.45"/>
    </g>
    <g clip-path="url(#pcf83c90336)">
     <use xlink:href="#C0_0_3182070d26" x="34.501711" y="86.53082" style="fill: #174263; fill-opacity: 0.45"/>
    </g>
    <g clip-path="url(#pcf83c90336)">
     <use xlink:href="#C0_0_3182070d26" x="35.593078" y="55.99708" style="fill: #174263; fill-opacity: 0.45"/>
    </g>
    <g clip-path="url(#pcf83c90336)">
     <use xlink:href="#C0_0_3182070d26" x="37.307342" y="62.540025" style="fill: #174263; fill-opacity: 0.45"/>
    </g>
    <g clip-path="url(#pcf83c90336)">
     <use xlink:href="#C0_0_3182070d26" x="32.293107" y="50.18113" style="fill: #174263; fill-opacity: 0.45"/>
    </g>
    <g clip-path="url(#pcf83c90336)">
     <use xlink:href="#C0_0_3182070d26" x="37.367962" y="79.260882" style="fill: #174263; fill-opacity: 0.45"/>
    </g>
    <g clip-path="url(#pcf83c90336)">
     <use xlink:href="#C0_0_3182070d26" x="35.195974" y="72.717938" style="fill: #174263; fill-opacity: 0.45"/>
    </g>
    <g clip-path="url(#pcf83c90336)">
     <use xlink:href="#C0_0_3182070d26" x="35.773703" y="81.441864" style="fill: #174263; fill-opacity: 0.45"/>
    </g>
    <g clip-path="url(#pcf83c90336)">
     <use xlink:href="#C0_0_3182070d26" x="33.867417" y="94.527752" style="fill: #174263; fill-opacity: 0.45"/>
    </g>
    <g clip-path="url(#pcf83c90336)">
     <use xlink:href="#C0_0_3182070d26" x="33.203633" y="94.527752" style="fill: #174263; fill-opacity: 0.45"/>
    </g>
    <g clip-path="url(#pcf83c90336)">
     <use xlink:href="#C0_0_3182070d26" x="35.035835" y="84.349839" style="fill: #174263; fill-opacity: 0.45"/>
    </g>
    <g clip-path="url(#pcf83c90336)">
     <use xlink:href="#C0_0_3182070d26" x="33.074421" y="92.346771" style="fill: #174263; fill-opacity: 0.45"/>
    </g>
    <g clip-path="url(#pcf83c90336)">
     <use xlink:href="#C0_0_3182070d26" x="34.479548" y="77.079901" style="fill: #174263; fill-opacity: 0.45"/>
    </g>
    <g clip-path="url(#pcf83c90336)">
     <use xlink:href="#C0_0_3182070d26" x="36.889254" y="67.628981" style="fill: #174263; fill-opacity: 0.45"/>
    </g>
   </g>
   <g id="PathCollection_2">
    <defs>
     <path id="C1_0_86b55c85e7" d="M 0 3.5 
C 0.928211 3.5 1.81853 3.131218 2.474874 2.474874 
C 3.131218 1.81853 3.5 0.928211 3.5 -0 
C 3.5 -0.928211 3.131218 -1.81853 2.474874 -2.474874 
C 1.81853 -3.131218 0.928211 -3.5 0 -3.5 
C -0.928211 -3.5 -1.81853 -3.131218 -2.474874 -2.474874 
C -3.131218 -1.81853 -3.5 -0.928211 -3.5 0 
C -3.5 0.928211 -3.131218 1.81853 -2.474874 2.474874 
C -1.81853 3.131218 -0.928211 3.5 0 3.5 
z
"/>
    </defs>
    <g clip-path="url(#pcf83c90336)">
     <use xlink:href="#C1_0_86b55c85e7" x="59.141989" y="85.076833" style="fill: #d75728; fill-opacity: 0.45"/>
    </g>
    <g clip-path="url(#pcf83c90336)">
     <use xlink:href="#C1_0_86b55c85e7" x="56.815353" y="75.625913" style="fill: #d75728; fill-opacity: 0.45"/>
    </g>
    <g clip-path="url(#pcf83c90336)">
     <use xlink:href="#C1_0_86b55c85e7" x="57.59125" y="85.803827" style="fill: #d75728; fill-opacity: 0.45"/>
    </g>
    <g clip-path="url(#pcf83c90336)">
     <use xlink:href="#C1_0_86b55c85e7" x="57.65007" y="80.71487" style="fill: #d75728; fill-opacity: 0.45"/>
    </g>
    <g clip-path="url(#pcf83c90336)">
     <use xlink:href="#C1_0_86b55c85e7" x="58.642361" y="82.895851" style="fill: #d75728; fill-opacity: 0.45"/>
    </g>
    <g clip-path="url(#pcf83c90336)">
     <use xlink:href="#C1_0_86b55c85e7" x="54.306003" y="86.53082" style="fill: #d75728; fill-opacity: 0.45"/>
    </g>
    <g clip-path="url(#pcf83c90336)">
     <use xlink:href="#C1_0_86b55c85e7" x="55.673886" y="91.619777" style="fill: #d75728; fill-opacity: 0.45"/>
    </g>
    <g clip-path="url(#pcf83c90336)">
     <use xlink:href="#C1_0_86b55c85e7" x="57.368755" y="76.352907" style="fill: #d75728; fill-opacity: 0.45"/>
    </g>
    <g clip-path="url(#pcf83c90336)">
     <use xlink:href="#C1_0_86b55c85e7" x="54.723279" y="73.444932" style="fill: #d75728; fill-opacity: 0.45"/>
    </g>
    <g clip-path="url(#pcf83c90336)">
     <use xlink:href="#C1_0_86b55c85e7" x="54.785339" y="70.536957" style="fill: #d75728; fill-opacity: 0.45"/>
    </g>
    <g clip-path="url(#pcf83c90336)">
     <use xlink:href="#C1_0_86b55c85e7" x="57.320393" y="91.619777" style="fill: #d75728; fill-opacity: 0.45"/>
    </g>
    <g clip-path="url(#pcf83c90336)">
     <use xlink:href="#C1_0_86b55c85e7" x="56.343748" y="36.368248" style="fill: #d75728; fill-opacity: 0.45"/>
    </g>
    <g clip-path="url(#pcf83c90336)">
     <use xlink:href="#C1_0_86b55c85e7" x="55.400303" y="83.622845" style="fill: #d75728; fill-opacity: 0.45"/>
    </g>
    <g clip-path="url(#pcf83c90336)">
     <use xlink:href="#C1_0_86b55c85e7" x="54.323803" y="68.355975" style="fill: #d75728; fill-opacity: 0.45"/>
    </g>
    <g clip-path="url(#pcf83c90336)">
     <use xlink:href="#C1_0_86b55c85e7" x="58.080618" y="93.800759" style="fill: #d75728; fill-opacity: 0.45"/>
    </g>
    <g clip-path="url(#pcf83c90336)">
     <use xlink:href="#C1_0_86b55c85e7" x="59.051758" y="88.711802" style="fill: #d75728; fill-opacity: 0.45"/>
    </g>
    <g clip-path="url(#pcf83c90336)">
     <use xlink:href="#C1_0_86b55c85e7" x="54.31937" y="94.527752" style="fill: #d75728; fill-opacity: 0.45"/>
    </g>
    <g clip-path="url(#pcf83c90336)">
     <use xlink:href="#C1_0_86b55c85e7" x="58.82892" y="50.18113" style="fill: #d75728; fill-opacity: 0.45"/>
    </g>
    <g clip-path="url(#pcf83c90336)">
     <use xlink:href="#C1_0_86b55c85e7" x="56.24631" y="70.536957" style="fill: #d75728; fill-opacity: 0.45"/>
    </g>
    <g clip-path="url(#pcf83c90336)">
     <use xlink:href="#C1_0_86b55c85e7" x="56.992393" y="87.984808" style="fill: #d75728; fill-opacity: 0.45"/>
    </g>
    <g clip-path="url(#pcf83c90336)">
     <use xlink:href="#C1_0_86b55c85e7" x="57.818424" y="67.628981" style="fill: #d75728; fill-opacity: 0.45"/>
    </g>
    <g clip-path="url(#pcf83c90336)">
     <use xlink:href="#C1_0_86b55c85e7" x="55.332063" y="89.438796" style="fill: #d75728; fill-opacity: 0.45"/>
    </g>
    <g clip-path="url(#pcf83c90336)">
     <use xlink:href="#C1_0_86b55c85e7" x="58.715761" y="66.174994" style="fill: #d75728; fill-opacity: 0.45"/>
    </g>
    <g clip-path="url(#pcf83c90336)">
     <use xlink:href="#C1_0_86b55c85e7" x="55.801592" y="74.171926" style="fill: #d75728; fill-opacity: 0.45"/>
    </g>
    <g clip-path="url(#pcf83c90336)">
     <use xlink:href="#C1_0_86b55c85e7" x="58.304537" y="43.638186" style="fill: #d75728; fill-opacity: 0.45"/>
    </g>
    <g clip-path="url(#pcf83c90336)">
     <use xlink:href="#C1_0_86b55c85e7" x="56.017842" y="81.441864" style="fill: #d75728; fill-opacity: 0.45"/>
    </g>
    <g clip-path="url(#pcf83c90336)">
     <use xlink:href="#C1_0_86b55c85e7" x="58.493445" y="87.257814" style="fill: #d75728; fill-opacity: 0.45"/>
    </g>
    <g clip-path="url(#pcf83c90336)">
     <use xlink:href="#C1_0_86b55c85e7" x="56.347375" y="75.625913" style="fill: #d75728; fill-opacity: 0.45"/>
    </g>
    <g clip-path="url(#pcf83c90336)">
     <use xlink:href="#C1_0_86b55c85e7" x="57.343267" y="94.527752" style="fill: #d75728; fill-opacity: 0.45"/>
    </g>
    <g clip-path="url(#pcf83c90336)">
     <use xlink:href="#C1_0_86b55c85e7" x="57.858948" y="89.438796" style="fill: #d75728; fill-opacity: 0.45"/>
    </g>
    <g clip-path="url(#pcf83c90336)">
     <use xlink:href="#C1_0_86b55c85e7" x="55.005453" y="86.53082" style="fill: #d75728; fill-opacity: 0.45"/>
    </g>
    <g clip-path="url(#pcf83c90336)">
     <use xlink:href="#C1_0_86b55c85e7" x="58.791977" y="38.549229" style="fill: #d75728; fill-opacity: 0.45"/>
    </g>
    <g clip-path="url(#pcf83c90336)">
     <use xlink:href="#C1_0_86b55c85e7" x="55.404419" y="52.362111" style="fill: #d75728; fill-opacity: 0.45"/>
    </g>
    <g clip-path="url(#pcf83c90336)">
     <use xlink:href="#C1_0_86b55c85e7" x="56.043918" y="58.905056" style="fill: #d75728; fill-opacity: 0.45"/>
    </g>
    <g clip-path="url(#pcf83c90336)">
     <use xlink:href="#C1_0_86b55c85e7" x="57.376609" y="40.730211" style="fill: #d75728; fill-opacity: 0.45"/>
    </g>
    <g clip-path="url(#pcf83c90336)">
     <use xlink:href="#C1_0_86b55c85e7" x="56.209356" y="89.438796" style="fill: #d75728; fill-opacity: 0.45"/>
    </g>
    <g clip-path="url(#pcf83c90336)">
     <use xlink:href="#C1_0_86b55c85e7" x="54.838435" y="90.165789" style="fill: #d75728; fill-opacity: 0.45"/>
    </g>
    <g clip-path="url(#pcf83c90336)">
     <use xlink:href="#C1_0_86b55c85e7" x="56.042428" y="61.086037" style="fill: #d75728; fill-opacity: 0.45"/>
    </g>
   </g>
   <g id="PathCollection_3">
    <defs>
     <path id="C2_0_9a9501de57" d="M 0 3.5 
C 0.928211 3.5 1.81853 3.131218 2.474874 2.474874 
C 3.131218 1.81853 3.5 0.928211 3.5 -0 
C 3.5 -0.928211 3.131218 -1.81853 2.474874 -2.474874 
C 1.81853 -3.131218 0.928211 -3.5 0 -3.5 
C -0.928211 -3.5 -1.81853 -3.131218 -2.474874 -2.474874 
C -3.131218 -1.81853 -3.5 -0.928211 -3.5 0 
C -3.5 0.928211 -3.131218 1.81853 -2.474874 2.474874 
C -1.81853 3.131218 -0.928211 3.5 0 3.5 
z
"/>
    </defs>
    <g clip-path="url(#pcf83c90336)">
     <use xlink:href="#C2_0_9a9501de57" x="89.896435" y="74.171926" style="fill: #174263; fill-opacity: 0.45"/>
    </g>
    <g clip-path="url(#pcf83c90336)">
     <use xlink:href="#C2_0_9a9501de57" x="88.210358" y="40.003217" style="fill: #174263; fill-opacity: 0.45"/>
    </g>
    <g clip-path="url(#pcf83c90336)">
     <use xlink:href="#C2_0_9a9501de57" x="92.678915" y="58.178062" style="fill: #174263; fill-opacity: 0.45"/>
    </g>
    <g clip-path="url(#pcf83c90336)">
     <use xlink:href="#C2_0_9a9501de57" x="89.754694" y="71.26395" style="fill: #174263; fill-opacity: 0.45"/>
    </g>
    <g clip-path="url(#pcf83c90336)">
     <use xlink:href="#C2_0_9a9501de57" x="87.821742" y="62.540025" style="fill: #174263; fill-opacity: 0.45"/>
    </g>
    <g clip-path="url(#pcf83c90336)">
     <use xlink:href="#C2_0_9a9501de57" x="89.436466" y="69.082969" style="fill: #174263; fill-opacity: 0.45"/>
    </g>
    <g clip-path="url(#pcf83c90336)">
     <use xlink:href="#C2_0_9a9501de57" x="89.628331" y="60.359043" style="fill: #174263; fill-opacity: 0.45"/>
    </g>
    <g clip-path="url(#pcf83c90336)">
     <use xlink:href="#C2_0_9a9501de57" x="88.549329" y="64.721006" style="fill: #174263; fill-opacity: 0.45"/>
    </g>
    <g clip-path="url(#pcf83c90336)">
     <use xlink:href="#C2_0_9a9501de57" x="93.136989" y="46.546161" style="fill: #174263; fill-opacity: 0.45"/>
    </g>
    <g clip-path="url(#pcf83c90336)">
     <use xlink:href="#C2_0_9a9501de57" x="87.806221" y="42.184198" style="fill: #174263; fill-opacity: 0.45"/>
    </g>
    <g clip-path="url(#pcf83c90336)">
     <use xlink:href="#C2_0_9a9501de57" x="89.278013" y="63.267019" style="fill: #174263; fill-opacity: 0.45"/>
    </g>
    <g clip-path="url(#pcf83c90336)">
     <use xlink:href="#C2_0_9a9501de57" x="91.656086" y="86.53082" style="fill: #174263; fill-opacity: 0.45"/>
    </g>
    <g clip-path="url(#pcf83c90336)">
     <use xlink:href="#C2_0_9a9501de57" x="89.440018" y="66.901988" style="fill: #174263; fill-opacity: 0.45"/>
    </g>
    <g clip-path="url(#pcf83c90336)">
     <use xlink:href="#C2_0_9a9501de57" x="88.285582" y="75.625913" style="fill: #174263; fill-opacity: 0.45"/>
    </g>
    <g clip-path="url(#pcf83c90336)">
     <use xlink:href="#C2_0_9a9501de57" x="90.07417" y="53.816099" style="fill: #174263; fill-opacity: 0.45"/>
    </g>
    <g clip-path="url(#pcf83c90336)">
     <use xlink:href="#C2_0_9a9501de57" x="92.487157" y="59.63205" style="fill: #174263; fill-opacity: 0.45"/>
    </g>
    <g clip-path="url(#pcf83c90336)">
     <use xlink:href="#C2_0_9a9501de57" x="89.849484" y="89.438796" style="fill: #174263; fill-opacity: 0.45"/>
    </g>
    <g clip-path="url(#pcf83c90336)">
     <use xlink:href="#C2_0_9a9501de57" x="91.995037" y="40.003217" style="fill: #174263; fill-opacity: 0.45"/>
    </g>
    <g clip-path="url(#pcf83c90336)">
     <use xlink:href="#C2_0_9a9501de57" x="92.872394" y="69.809963" style="fill: #174263; fill-opacity: 0.45"/>
    </g>
    <g clip-path="url(#pcf83c90336)">
     <use xlink:href="#C2_0_9a9501de57" x="91.525235" y="69.082969" style="fill: #174263; fill-opacity: 0.45"/>
    </g>
    <g clip-path="url(#pcf83c90336)">
     <use xlink:href="#C2_0_9a9501de57" x="89.274119" y="62.540025" style="fill: #174263; fill-opacity: 0.45"/>
    </g>
    <g clip-path="url(#pcf83c90336)">
     <use xlink:href="#C2_0_9a9501de57" x="93.233023" y="82.168858" style="fill: #174263; fill-opacity: 0.45"/>
    </g>
    <g clip-path="url(#pcf83c90336)">
     <use xlink:href="#C2_0_9a9501de57" x="89.507688" y="53.816099" style="fill: #174263; fill-opacity: 0.45"/>
    </g>
    <g clip-path="url(#pcf83c90336)">
     <use xlink:href="#C2_0_9a9501de57" x="88.882858" y="74.89892" style="fill: #174263; fill-opacity: 0.45"/>
    </g>
    <g clip-path="url(#pcf83c90336)">
     <use xlink:href="#C2_0_9a9501de57" x="89.73845" y="61.086037" style="fill: #174263; fill-opacity: 0.45"/>
    </g>
    <g clip-path="url(#pcf83c90336)">
     <use xlink:href="#C2_0_9a9501de57" x="89.436877" y="77.079901" style="fill: #174263; fill-opacity: 0.45"/>
    </g>
    <g clip-path="url(#pcf83c90336)">
     <use xlink:href="#C2_0_9a9501de57" x="88.995824" y="74.89892" style="fill: #174263; fill-opacity: 0.45"/>
    </g>
    <g clip-path="url(#pcf83c90336)">
     <use xlink:href="#C2_0_9a9501de57" x="89.146986" y="90.165789" style="fill: #174263; fill-opacity: 0.45"/>
    </g>
    <g clip-path="url(#pcf83c90336)">
     <use xlink:href="#C2_0_9a9501de57" x="90.618596" y="71.26395" style="fill: #174263; fill-opacity: 0.45"/>
    </g>
    <g clip-path="url(#pcf83c90336)">
     <use xlink:href="#C2_0_9a9501de57" x="91.575143" y="37.822235" style="fill: #174263; fill-opacity: 0.45"/>
    </g>
    <g clip-path="url(#pcf83c90336)">
     <use xlink:href="#C2_0_9a9501de57" x="92.101839" y="85.076833" style="fill: #174263; fill-opacity: 0.45"/>
    </g>
    <g clip-path="url(#pcf83c90336)">
     <use xlink:href="#C2_0_9a9501de57" x="91.677143" y="57.451068" style="fill: #174263; fill-opacity: 0.45"/>
    </g>
    <g clip-path="url(#pcf83c90336)">
     <use xlink:href="#C2_0_9a9501de57" x="90.118935" y="74.89892" style="fill: #174263; fill-opacity: 0.45"/>
    </g>
    <g clip-path="url(#pcf83c90336)">
     <use xlink:href="#C2_0_9a9501de57" x="88.926252" y="66.901988" style="fill: #174263; fill-opacity: 0.45"/>
    </g>
    <g clip-path="url(#pcf83c90336)">
     <use xlink:href="#C2_0_9a9501de57" x="90.976029" y="60.359043" style="fill: #174263; fill-opacity: 0.45"/>
    </g>
    <g clip-path="url(#pcf83c90336)">
     <use xlink:href="#C2_0_9a9501de57" x="92.493179" y="75.625913" style="fill: #174263; fill-opacity: 0.45"/>
    </g>
    <g clip-path="url(#pcf83c90336)">
     <use xlink:href="#C2_0_9a9501de57" x="89.825146" y="69.809963" style="fill: #174263; fill-opacity: 0.45"/>
    </g>
    <g clip-path="url(#pcf83c90336)">
     <use xlink:href="#C2_0_9a9501de57" x="87.975393" y="79.260882" style="fill: #174263; fill-opacity: 0.45"/>
    </g>
   </g>
   <g id="PathCollection_4">
    <defs>
     <path id="C3_0_e93ae1b548" d="M 0 3.5 
C 0.928211 3.5 1.81853 3.131218 2.474874 2.474874 
C 3.131218 1.81853 3.5 0.928211 3.5 -0 
C 3.5 -0.928211 3.131218 -1.81853 2.474874 -2.474874 
C 1.81853 -3.131218 0.928211 -3.5 0 -3.5 
C -0.928211 -3.5 -1.81853 -3.131218 -2.474874 -2.474874 
C -3.131218 -1.81853 -3.5 -0.928211 -3.5 0 
C -3.5 0.928211 -3.131218 1.81853 -2.474874 2.474874 
C -1.81853 3.131218 -0.928211 3.5 0 3.5 
z
"/>
    </defs>
    <g clip-path="url(#pcf83c90336)">
     <use xlink:href="#C3_0_e93ae1b548" x="113.554864" y="83.622845" style="fill: #d75728; fill-opacity: 0.45"/>
    </g>
    <g clip-path="url(#pcf83c90336)">
     <use xlink:href="#C3_0_e93ae1b548" x="111.799152" y="39.276223" style="fill: #d75728; fill-opacity: 0.45"/>
    </g>
    <g clip-path="url(#pcf83c90336)">
     <use xlink:href="#C3_0_e93ae1b548" x="112.468031" y="87.984808" style="fill: #d75728; fill-opacity: 0.45"/>
    </g>
    <g clip-path="url(#pcf83c90336)">
     <use xlink:href="#C3_0_e93ae1b548" x="112.756518" y="85.803827" style="fill: #d75728; fill-opacity: 0.45"/>
    </g>
    <g clip-path="url(#pcf83c90336)">
     <use xlink:href="#C3_0_e93ae1b548" x="114.811888" y="56.724074" style="fill: #d75728; fill-opacity: 0.45"/>
    </g>
    <g clip-path="url(#pcf83c90336)">
     <use xlink:href="#C3_0_e93ae1b548" x="115.644785" y="80.71487" style="fill: #d75728; fill-opacity: 0.45"/>
    </g>
    <g clip-path="url(#pcf83c90336)">
     <use xlink:href="#C3_0_e93ae1b548" x="110.759322" y="50.908124" style="fill: #d75728; fill-opacity: 0.45"/>
    </g>
    <g clip-path="url(#pcf83c90336)">
     <use xlink:href="#C3_0_e93ae1b548" x="112.093597" y="49.454136" style="fill: #d75728; fill-opacity: 0.45"/>
    </g>
    <g clip-path="url(#pcf83c90336)">
     <use xlink:href="#C3_0_e93ae1b548" x="110.759563" y="76.352907" style="fill: #d75728; fill-opacity: 0.45"/>
    </g>
    <g clip-path="url(#pcf83c90336)">
     <use xlink:href="#C3_0_e93ae1b548" x="114.37259" y="59.63205" style="fill: #d75728; fill-opacity: 0.45"/>
    </g>
    <g clip-path="url(#pcf83c90336)">
     <use xlink:href="#C3_0_e93ae1b548" x="113.786511" y="75.625913" style="fill: #d75728; fill-opacity: 0.45"/>
    </g>
    <g clip-path="url(#pcf83c90336)">
     <use xlink:href="#C3_0_e93ae1b548" x="113.417811" y="50.908124" style="fill: #d75728; fill-opacity: 0.45"/>
    </g>
    <g clip-path="url(#pcf83c90336)">
     <use xlink:href="#C3_0_e93ae1b548" x="115.308082" y="72.717938" style="fill: #d75728; fill-opacity: 0.45"/>
    </g>
    <g clip-path="url(#pcf83c90336)">
     <use xlink:href="#C3_0_e93ae1b548" x="115.156492" y="91.619777" style="fill: #d75728; fill-opacity: 0.45"/>
    </g>
    <g clip-path="url(#pcf83c90336)">
     <use xlink:href="#C3_0_e93ae1b548" x="112.069474" y="85.803827" style="fill: #d75728; fill-opacity: 0.45"/>
    </g>
    <g clip-path="url(#pcf83c90336)">
     <use xlink:href="#C3_0_e93ae1b548" x="115.502346" y="72.717938" style="fill: #d75728; fill-opacity: 0.45"/>
    </g>
    <g clip-path="url(#pcf83c90336)">
     <use xlink:href="#C3_0_e93ae1b548" x="112.502736" y="58.905056" style="fill: #d75728; fill-opacity: 0.45"/>
    </g>
    <g clip-path="url(#pcf83c90336)">
     <use xlink:href="#C3_0_e93ae1b548" x="111.261225" y="71.990944" style="fill: #d75728; fill-opacity: 0.45"/>
    </g>
    <g clip-path="url(#pcf83c90336)">
     <use xlink:href="#C3_0_e93ae1b548" x="112.794352" y="85.803827" style="fill: #d75728; fill-opacity: 0.45"/>
    </g>
    <g clip-path="url(#pcf83c90336)">
     <use xlink:href="#C3_0_e93ae1b548" x="114.312414" y="73.444932" style="fill: #d75728; fill-opacity: 0.45"/>
    </g>
    <g clip-path="url(#pcf83c90336)">
     <use xlink:href="#C3_0_e93ae1b548" x="112.605943" y="78.533889" style="fill: #d75728; fill-opacity: 0.45"/>
    </g>
    <g clip-path="url(#pcf83c90336)">
     <use xlink:href="#C3_0_e93ae1b548" x="113.438559" y="87.257814" style="fill: #d75728; fill-opacity: 0.45"/>
    </g>
    <g clip-path="url(#pcf83c90336)">
     <use xlink:href="#C3_0_e93ae1b548" x="115.021384" y="61.813031" style="fill: #d75728; fill-opacity: 0.45"/>
    </g>
    <g clip-path="url(#pcf83c90336)">
     <use xlink:href="#C3_0_e93ae1b548" x="114.923249" y="40.003217" style="fill: #d75728; fill-opacity: 0.45"/>
    </g>
    <g clip-path="url(#pcf83c90336)">
     <use xlink:href="#C3_0_e93ae1b548" x="115.607012" y="74.89892" style="fill: #d75728; fill-opacity: 0.45"/>
    </g>
    <g clip-path="url(#pcf83c90336)">
     <use xlink:href="#C3_0_e93ae1b548" x="115.434534" y="55.99708" style="fill: #d75728; fill-opacity: 0.45"/>
    </g>
    <g clip-path="url(#pcf83c90336)">
     <use xlink:href="#C3_0_e93ae1b548" x="111.898172" y="77.079901" style="fill: #d75728; fill-opacity: 0.45"/>
    </g>
    <g clip-path="url(#pcf83c90336)">
     <use xlink:href="#C3_0_e93ae1b548" x="112.248078" y="75.625913" style="fill: #d75728; fill-opacity: 0.45"/>
    </g>
    <g clip-path="url(#pcf83c90336)">
     <use xlink:href="#C3_0_e93ae1b548" x="112.603441" y="83.622845" style="fill: #d75728; fill-opacity: 0.45"/>
    </g>
    <g clip-path="url(#pcf83c90336)">
     <use xlink:href="#C3_0_e93ae1b548" x="113.674502" y="75.625913" style="fill: #d75728; fill-opacity: 0.45"/>
    </g>
    <g clip-path="url(#pcf83c90336)">
     <use xlink:href="#C3_0_e93ae1b548" x="112.040509" y="56.724074" style="fill: #d75728; fill-opacity: 0.45"/>
    </g>
    <g clip-path="url(#pcf83c90336)">
     <use xlink:href="#C3_0_e93ae1b548" x="110.489825" y="48.727142" style="fill: #d75728; fill-opacity: 0.45"/>
    </g>
    <g clip-path="url(#pcf83c90336)">
     <use xlink:href="#C3_0_e93ae1b548" x="115.045315" y="87.984808" style="fill: #d75728; fill-opacity: 0.45"/>
    </g>
    <g clip-path="url(#pcf83c90336)">
     <use xlink:href="#C3_0_e93ae1b548" x="112.556911" y="47.273155" style="fill: #d75728; fill-opacity: 0.45"/>
    </g>
    <g clip-path="url(#pcf83c90336)">
     <use xlink:href="#C3_0_e93ae1b548" x="115.572731" y="72.717938" style="fill: #d75728; fill-opacity: 0.45"/>
    </g>
    <g clip-path="url(#pcf83c90336)">
     <use xlink:href="#C3_0_e93ae1b548" x="112.922013" y="64.721006" style="fill: #d75728; fill-opacity: 0.45"/>
    </g>
    <g clip-path="url(#pcf83c90336)">
     <use xlink:href="#C3_0_e93ae1b548" x="115.028478" y="54.543093" style="fill: #d75728; fill-opacity: 0.45"/>
    </g>
    <g clip-path="url(#pcf83c90336)">
     <use xlink:href="#C3_0_e93ae1b548" x="114.501504" y="63.994012" style="fill: #d75728; fill-opacity: 0.45"/>
    </g>
   </g>
   <g id="line2d_6">
    <path d="M 33.2055 85.353833 
L 36.2745 85.353833 
M 34.74 85.353833 
L 34.74 58.130639 
M 33.2055 58.130639 
L 36.2745 58.130639 
" clip-path="url(#pcf83c90336)" style="fill: none; stroke: #333333; stroke-width: 2.5; stroke-linecap: square"/>
   </g>
   <g id="line2d_7">
    <path d="M 89.0055 79.782074 
L 92.0745 79.782074 
M 90.54 79.782074 
L 90.54 52.759228 
M 89.0055 52.759228 
L 92.0745 52.759228 
" clip-path="url(#pcf83c90336)" style="fill: none; stroke: #333333; stroke-width: 2.5; stroke-linecap: square"/>
   </g>
   <g id="line2d_8">
    <path d="M 55.5255 92.150207 
L 58.5945 92.150207 
M 57.06 92.150207 
L 57.06 58.451152 
M 55.5255 58.451152 
L 58.5945 58.451152 
" clip-path="url(#pcf83c90336)" style="fill: none; stroke: #333333; stroke-width: 2.5; stroke-linecap: square"/>
   </g>
   <g id="line2d_9">
    <path d="M 111.3255 83.606516 
L 114.3945 83.606516 
M 112.86 83.606516 
L 112.86 54.138531 
M 111.3255 54.138531 
L 114.3945 54.138531 
" clip-path="url(#pcf83c90336)" style="fill: none; stroke: #333333; stroke-width: 2.5; stroke-linecap: square"/>
   </g>
   <g id="patch_9">
    <path d="M 18 115.344 
L 18 15.552 
" style="fill: none; stroke: #000000; stroke-linejoin: miter; stroke-linecap: square"/>
   </g>
   <g id="patch_10">
    <path d="M 18 115.344 
L 129.6 115.344 
" style="fill: none; stroke: #000000; stroke-linejoin: miter; stroke-linecap: square"/>
   </g>
   <g id="PathCollection_5">
    <defs>
     <path id="m14ee033dfc" d="M 0 3 
C 0.795609 3 1.55874 2.683901 2.12132 2.12132 
C 2.683901 1.55874 3 0.795609 3 0 
C 3 -0.795609 2.683901 -1.55874 2.12132 -2.12132 
C 1.55874 -2.683901 0.795609 -3 0 -3 
C -0.795609 -3 -1.55874 -2.683901 -2.12132 -2.12132 
C -2.683901 -1.55874 -3 -0.795609 -3 0 
C -3 0.795609 -2.683901 1.55874 -2.12132 2.12132 
C -1.55874 2.683901 -0.795609 3 0 3 
z
"/>
    </defs>
    <g clip-path="url(#pcf83c90336)">
     <use xlink:href="#m14ee033dfc" x="34.74" y="71.742236" style="fill: #333333"/>
    </g>
   </g>
   <g id="PathCollection_6">
    <g clip-path="url(#pcf83c90336)">
     <use xlink:href="#m14ee033dfc" x="57.06" y="75.300679" style="fill: #333333"/>
    </g>
   </g>
   <g id="PathCollection_7">
    <g clip-path="url(#pcf83c90336)">
     <use xlink:href="#m14ee033dfc" x="90.54" y="66.270651" style="fill: #333333"/>
    </g>
   </g>
   <g id="PathCollection_8">
    <g clip-path="url(#pcf83c90336)">
     <use xlink:href="#m14ee033dfc" x="112.86" y="68.872523" style="fill: #333333"/>
    </g>
   </g>
   <g id="line2d_10"/>
   <g id="line2d_11"/>
  </g>
 </g>
 <defs>
  <clipPath id="pcf83c90336">
   <rect x="18" y="15.552" width="111.6" height="99.792"/>
  </clipPath>
 </defs>
</svg>
