<?xml version="1.0" encoding="utf-8" standalone="no"?>
<!DOCTYPE svg PUBLIC "-//W3C//DTD SVG 1.1//EN"
  "http://www.w3.org/Graphics/SVG/1.1/DTD/svg11.dtd">
<svg xmlns:xlink="http://www.w3.org/1999/xlink" width="144pt" height="129.6pt" viewBox="0 0 144 129.6" xmlns="http://www.w3.org/2000/svg" version="1.1">
 <metadata>
  <rdf:RDF xmlns:dc="http://purl.org/dc/elements/1.1/" xmlns:cc="http://creativecommons.org/ns#" xmlns:rdf="http://www.w3.org/1999/02/22-rdf-syntax-ns#">
   <cc:Work>
    <dc:type rdf:resource="http://purl.org/dc/dcmitype/StillImage"/>
    <dc:date>2025-04-02T23:17:58.744008</dc:date>
    <dc:format>image/svg+xml</dc:format>
    <dc:creator>
     <cc:Agent>
      <dc:title>Matplotlib v3.7.1, https://matplotlib.org/</dc:title>
     </cc:Agent>
    </dc:creator>
   </cc:Work>
  </rdf:RDF>
 </metadata>
 <defs>
  <style type="text/css">*{stroke-linejoin: round; stroke-linecap: butt}</style>
 </defs>
 <g id="figure_1">
  <g id="patch_1">
   <path d="M 0 129.6 
L 144 129.6 
L 144 0 
L 0 0 
L 0 129.6 
z
" style="fill: none"/>
  </g>
  <g id="axes_1">
   <g id="patch_2">
    <path d="M 18 115.344 
L 129.6 115.344 
L 129.6 15.552 
L 18 15.552 
L 18 115.344 
z
" style="fill: none"/>
   </g>
   <g id="PolyCollection_1">
    <path d="M 34.946819 109.451812 
L 34.533181 109.451812 
L 34.465366 108.659825 
L 34.37932 107.867838 
L 34.271492 107.07585 
L 34.138058 106.283863 
L 33.975021 105.491876 
L 33.778354 104.699889 
L 33.544191 103.907901 
L 33.269044 103.115914 
L 32.950061 102.323927 
L 32.585294 101.53194 
L 32.173977 100.739952 
L 31.716779 99.947965 
L 31.216015 99.155978 
L 30.675793 98.363991 
L 30.102067 97.572003 
L 29.50258 96.780016 
L 28.88669 95.988029 
L 28.265058 95.196042 
L 27.649234 94.404054 
L 27.051124 93.612067 
L 26.482406 92.82008 
L 25.953905 92.028093 
L 25.474984 91.236105 
L 25.053005 90.444118 
L 24.692899 89.652131 
L 24.396876 88.860143 
L 24.164324 88.068156 
L 23.991895 87.276169 
L 23.873774 86.484182 
L 23.802129 85.692194 
L 23.767696 84.900207 
L 23.760452 84.10822 
L 23.770331 83.316233 
L 23.787927 82.524245 
L 23.805116 81.732258 
L 23.815562 80.940271 
L 23.815056 80.148284 
L 23.80168 79.356296 
L 23.775774 78.564309 
L 23.739721 77.772322 
L 23.697586 76.980335 
L 23.654632 76.188347 
L 23.616775 75.39636 
L 23.59003 74.604373 
L 23.58 73.812386 
L 23.591451 73.020398 
L 23.628017 72.228411 
L 23.69204 71.436424 
L 23.784568 70.644437 
L 23.905473 69.852449 
L 24.053678 69.060462 
L 24.227446 68.268475 
L 24.424687 67.476488 
L 24.643236 66.6845 
L 24.881075 65.892513 
L 25.136462 65.100526 
L 25.407957 64.308539 
L 25.694359 63.516551 
L 25.994562 62.724564 
L 26.307361 61.932577 
L 26.631248 61.14059 
L 26.964241 60.348602 
L 27.303761 59.556615 
L 27.646607 58.764628 
L 27.989022 57.97264 
L 28.326859 57.180653 
L 28.655828 56.388666 
L 28.971801 55.596679 
L 29.271137 54.804691 
L 29.550989 54.012704 
L 29.809561 53.220717 
L 30.046275 52.42873 
L 30.261839 51.636742 
L 30.458194 50.844755 
L 30.638349 50.052768 
L 30.806131 49.260781 
L 30.96585 48.468793 
L 31.121937 47.676806 
L 31.27858 46.884819 
L 31.439392 46.092832 
L 31.607139 45.300844 
L 31.783557 44.508857 
L 31.969261 43.71687 
L 32.163763 42.924883 
L 32.365566 42.132895 
L 32.572341 41.340908 
L 32.781162 40.548921 
L 32.988752 39.756934 
L 33.191753 38.964946 
L 33.386956 38.172959 
L 33.571509 37.380972 
L 33.743066 36.588985 
L 33.899882 35.796997 
L 34.040853 35.00501 
L 34.165508 34.213023 
L 34.27395 33.421036 
L 34.366779 32.629048 
L 34.444983 31.837061 
L 34.509835 31.045074 
L 34.970165 31.045074 
L 34.970165 31.045074 
L 35.035017 31.837061 
L 35.113221 32.629048 
L 35.20605 33.421036 
L 35.314492 34.213023 
L 35.439147 35.00501 
L 35.580118 35.796997 
L 35.736934 36.588985 
L 35.908491 37.380972 
L 36.093044 38.172959 
L 36.288247 38.964946 
L 36.491248 39.756934 
L 36.698838 40.548921 
L 36.907659 41.340908 
L 37.114434 42.132895 
L 37.316237 42.924883 
L 37.510739 43.71687 
L 37.696443 44.508857 
L 37.872861 45.300844 
L 38.040608 46.092832 
L 38.20142 46.884819 
L 38.358063 47.676806 
L 38.51415 48.468793 
L 38.673869 49.260781 
L 38.841651 50.052768 
L 39.021806 50.844755 
L 39.218161 51.636742 
L 39.433725 52.42873 
L 39.670439 53.220717 
L 39.929011 54.012704 
L 40.208863 54.804691 
L 40.508199 55.596679 
L 40.824172 56.388666 
L 41.153141 57.180653 
L 41.490978 57.97264 
L 41.833393 58.764628 
L 42.176239 59.556615 
L 42.515759 60.348602 
L 42.848752 61.14059 
L 43.172639 61.932577 
L 43.485438 62.724564 
L 43.785641 63.516551 
L 44.072043 64.308539 
L 44.343538 65.100526 
L 44.598925 65.892513 
L 44.836764 66.6845 
L 45.055313 67.476488 
L 45.252554 68.268475 
L 45.426322 69.060462 
L 45.574527 69.852449 
L 45.695432 70.644437 
L 45.78796 71.436424 
L 45.851983 72.228411 
L 45.888549 73.020398 
L 45.9 73.812386 
L 45.88997 74.604373 
L 45.863225 75.39636 
L 45.825368 76.188347 
L 45.782414 76.980335 
L 45.740279 77.772322 
L 45.704226 78.564309 
L 45.67832 79.356296 
L 45.664944 80.148284 
L 45.664438 80.940271 
L 45.674884 81.732258 
L 45.692073 82.524245 
L 45.709669 83.316233 
L 45.719548 84.10822 
L 45.712304 84.900207 
L 45.677871 85.692194 
L 45.606226 86.484182 
L 45.488105 87.276169 
L 45.315676 88.068156 
L 45.083124 88.860143 
L 44.787101 89.652131 
L 44.426995 90.444118 
L 44.005016 91.236105 
L 43.526095 92.028093 
L 42.997594 92.82008 
L 42.428876 93.612067 
L 41.830766 94.404054 
L 41.214942 95.196042 
L 40.59331 95.988029 
L 39.97742 96.780016 
L 39.377933 97.572003 
L 38.804207 98.363991 
L 38.263985 99.155978 
L 37.763221 99.947965 
L 37.306023 100.739952 
L 36.894706 101.53194 
L 36.529939 102.323927 
L 36.210956 103.115914 
L 35.935809 103.907901 
L 35.701646 104.699889 
L 35.504979 105.491876 
L 35.341942 106.283863 
L 35.208508 107.07585 
L 35.10068 107.867838 
L 35.014634 108.659825 
L 34.946819 109.451812 
z
" clip-path="url(#p529093d249)" style="fill: #20415a; fill-opacity: 0.35"/>
   </g>
   <g id="PolyCollection_2">
    <path d="M 57.375552 107.711254 
L 56.744448 107.711254 
L 56.635546 106.868932 
L 56.497104 106.02661 
L 56.32394 105.184288 
L 56.110832 104.341966 
L 55.852806 103.499644 
L 55.545466 102.657322 
L 55.18536 101.815 
L 54.77036 100.972678 
L 54.300023 100.130356 
L 53.7759 99.288034 
L 53.201762 98.445712 
L 52.583713 97.60339 
L 51.93017 96.761068 
L 51.251694 95.918746 
L 50.560674 95.076424 
L 49.870888 94.234102 
L 49.196947 93.39178 
L 48.553683 92.549458 
L 47.955501 91.707136 
L 47.415757 90.864814 
L 46.946188 90.022492 
L 46.556447 89.18017 
L 46.253751 88.337848 
L 46.042666 87.495526 
L 45.925029 86.653204 
L 45.9 85.810882 
L 45.964228 84.96856 
L 46.112112 84.126238 
L 46.336132 83.283916 
L 46.627227 82.441594 
L 46.975202 81.599272 
L 47.369144 80.75695 
L 47.797836 79.914628 
L 48.250149 79.072306 
L 48.715415 78.229984 
L 49.183757 77.387662 
L 49.646381 76.54534 
L 50.095812 75.703018 
L 50.526068 74.860696 
L 50.932759 74.018374 
L 51.313113 73.176052 
L 51.665922 72.33373 
L 51.991406 71.491408 
L 52.291011 70.649086 
L 52.567144 69.806764 
L 52.822871 68.964442 
L 53.061601 68.12212 
L 53.286766 67.279798 
L 53.501536 66.437476 
L 53.708578 65.595154 
L 53.909877 64.752832 
L 54.106633 63.91051 
L 54.299226 63.068188 
L 54.487258 62.225866 
L 54.669651 61.383544 
L 54.8448 60.541222 
L 55.010752 59.6989 
L 55.165402 58.856578 
L 55.306688 58.014256 
L 55.43277 57.171934 
L 55.542176 56.329612 
L 55.633916 55.48729 
L 55.707555 54.644968 
L 55.763243 53.802646 
L 55.801706 52.960324 
L 55.824215 52.118002 
L 55.832514 51.27568 
L 55.828745 50.433358 
L 55.815356 49.591036 
L 55.795001 48.748714 
L 55.77045 47.906392 
L 55.744491 47.06407 
L 55.719839 46.221748 
L 55.699048 45.379426 
L 55.684432 44.537104 
L 55.677987 43.694782 
L 55.681323 42.85246 
L 55.695608 42.010138 
L 55.721525 41.167816 
L 55.759252 40.325494 
L 55.808461 39.483172 
L 55.86834 38.64085 
L 55.937644 37.798528 
L 56.014769 36.956206 
L 56.097838 36.113884 
L 56.184811 35.271562 
L 56.27359 34.42924 
L 56.362127 33.586918 
L 56.448527 32.744596 
L 56.531124 31.902274 
L 56.608544 31.059952 
L 56.679745 30.21763 
L 56.744024 29.375308 
L 56.801015 28.532986 
L 56.850652 27.690664 
L 56.893134 26.848342 
L 56.928867 26.00602 
L 56.958413 25.163698 
L 56.98243 24.321376 
L 57.13757 24.321376 
L 57.13757 24.321376 
L 57.161587 25.163698 
L 57.191133 26.00602 
L 57.226866 26.848342 
L 57.269348 27.690664 
L 57.318985 28.532986 
L 57.375976 29.375308 
L 57.440255 30.21763 
L 57.511456 31.059952 
L 57.588876 31.902274 
L 57.671473 32.744596 
L 57.757873 33.586918 
L 57.84641 34.42924 
L 57.935189 35.271562 
L 58.022162 36.113884 
L 58.105231 36.956206 
L 58.182356 37.798528 
L 58.25166 38.64085 
L 58.311539 39.483172 
L 58.360748 40.325494 
L 58.398475 41.167816 
L 58.424392 42.010138 
L 58.438677 42.85246 
L 58.442013 43.694782 
L 58.435568 44.537104 
L 58.420952 45.379426 
L 58.400161 46.221748 
L 58.375509 47.06407 
L 58.34955 47.906392 
L 58.324999 48.748714 
L 58.304644 49.591036 
L 58.291255 50.433358 
L 58.287486 51.27568 
L 58.295785 52.118002 
L 58.318294 52.960324 
L 58.356757 53.802646 
L 58.412445 54.644968 
L 58.486084 55.48729 
L 58.577824 56.329612 
L 58.68723 57.171934 
L 58.813312 58.014256 
L 58.954598 58.856578 
L 59.109248 59.6989 
L 59.2752 60.541222 
L 59.450349 61.383544 
L 59.632742 62.225866 
L 59.820774 63.068188 
L 60.013367 63.91051 
L 60.210123 64.752832 
L 60.411422 65.595154 
L 60.618464 66.437476 
L 60.833234 67.279798 
L 61.058399 68.12212 
L 61.297129 68.964442 
L 61.552856 69.806764 
L 61.828989 70.649086 
L 62.128594 71.491408 
L 62.454078 72.33373 
L 62.806887 73.176052 
L 63.187241 74.018374 
L 63.593932 74.860696 
L 64.024188 75.703018 
L 64.473619 76.54534 
L 64.936243 77.387662 
L 65.404585 78.229984 
L 65.869851 79.072306 
L 66.322164 79.914628 
L 66.750856 80.75695 
L 67.144798 81.599272 
L 67.492773 82.441594 
L 67.783868 83.283916 
L 68.007888 84.126238 
L 68.155772 84.96856 
L 68.22 85.810882 
L 68.194971 86.653204 
L 68.077334 87.495526 
L 67.866249 88.337848 
L 67.563553 89.18017 
L 67.173812 90.022492 
L 66.704243 90.864814 
L 66.164499 91.707136 
L 65.566317 92.549458 
L 64.923053 93.39178 
L 64.249112 94.234102 
L 63.559326 95.076424 
L 62.868306 95.918746 
L 62.18983 96.761068 
L 61.536287 97.60339 
L 60.918238 98.445712 
L 60.3441 99.288034 
L 59.819977 100.130356 
L 59.34964 100.972678 
L 58.93464 101.815 
L 58.574534 102.657322 
L 58.267194 103.499644 
L 58.009168 104.341966 
L 57.79606 105.184288 
L 57.622896 106.02661 
L 57.484454 106.868932 
L 57.375552 107.711254 
z
" clip-path="url(#p529093d249)" style="fill: #c1613e; fill-opacity: 0.35"/>
   </g>
   <g id="PolyCollection_3">
    <path d="M 90.867283 100.402463 
L 90.212717 100.402463 
L 90.110544 99.591205 
L 89.984791 98.779948 
L 89.832715 97.968691 
L 89.652024 97.157434 
L 89.441098 96.346177 
L 89.199201 95.534919 
L 88.926646 94.723662 
L 88.624899 93.912405 
L 88.296591 93.101148 
L 87.945425 92.289891 
L 87.575979 91.478634 
L 87.193397 90.667376 
L 86.803014 89.856119 
L 86.409932 89.044862 
L 86.018607 88.233605 
L 85.632494 87.422348 
L 85.253789 86.61109 
L 84.883326 85.799833 
L 84.520632 84.988576 
L 84.164148 84.177319 
L 83.811601 83.366062 
L 83.460472 82.554804 
L 83.108522 81.743547 
L 82.754286 80.93229 
L 82.397499 80.121033 
L 82.039378 79.309776 
L 81.682734 78.498518 
L 81.331893 77.687261 
L 80.992441 76.876004 
L 80.670809 76.064747 
L 80.373761 75.25349 
L 80.107824 74.442232 
L 79.878737 73.630975 
L 79.690956 72.819718 
L 79.547279 72.008461 
L 79.448603 71.197204 
L 79.393843 70.385946 
L 79.38 69.574689 
L 79.402367 68.763432 
L 79.45485 67.952175 
L 79.530367 67.140918 
L 79.621298 66.32966 
L 79.719949 65.518403 
L 79.819014 64.707146 
L 79.911999 63.895889 
L 79.993602 63.084632 
L 80.060029 62.273374 
L 80.109244 61.462117 
L 80.141134 60.65086 
L 80.157573 59.839603 
L 80.162396 59.028346 
L 80.161252 58.217088 
L 80.161343 57.405831 
L 80.171046 56.594574 
L 80.199443 55.783317 
L 80.255756 54.97206 
L 80.348752 54.160802 
L 80.48614 53.349545 
L 80.674004 52.538288 
L 80.916347 51.727031 
L 81.214753 50.915774 
L 81.568224 50.104516 
L 81.973193 49.293259 
L 82.423719 48.482002 
L 82.911845 47.670745 
L 83.428071 46.859488 
L 83.961928 46.04823 
L 84.502575 45.236973 
L 85.039386 44.425716 
L 85.562487 43.614459 
L 86.063201 42.803202 
L 86.53438 41.991944 
L 86.970623 41.180687 
L 87.368366 40.36943 
L 87.725856 39.558173 
L 88.043028 38.746916 
L 88.321295 37.935658 
L 88.563287 37.124401 
L 88.772538 36.313144 
L 88.953167 35.501887 
L 89.109563 34.69063 
L 89.246086 33.879372 
L 89.366822 33.068115 
L 89.475382 32.256858 
L 89.574767 31.445601 
L 89.667298 30.634344 
L 89.754606 29.823086 
L 89.837679 29.011829 
L 89.916954 28.200572 
L 89.992437 27.389315 
L 90.063834 26.578058 
L 90.130687 25.7668 
L 90.192492 24.955543 
L 90.248803 24.144286 
L 90.299298 23.333029 
L 90.343824 22.521772 
L 90.382409 21.710514 
L 90.415261 20.899257 
L 90.442734 20.088 
L 90.637266 20.088 
L 90.637266 20.088 
L 90.664739 20.899257 
L 90.697591 21.710514 
L 90.736176 22.521772 
L 90.780702 23.333029 
L 90.831197 24.144286 
L 90.887508 24.955543 
L 90.949313 25.7668 
L 91.016166 26.578058 
L 91.087563 27.389315 
L 91.163046 28.200572 
L 91.242321 29.011829 
L 91.325394 29.823086 
L 91.412702 30.634344 
L 91.505233 31.445601 
L 91.604618 32.256858 
L 91.713178 33.068115 
L 91.833914 33.879372 
L 91.970437 34.69063 
L 92.126833 35.501887 
L 92.307462 36.313144 
L 92.516713 37.124401 
L 92.758705 37.935658 
L 93.036972 38.746916 
L 93.354144 39.558173 
L 93.711634 40.36943 
L 94.109377 41.180687 
L 94.54562 41.991944 
L 95.016799 42.803202 
L 95.517513 43.614459 
L 96.040614 44.425716 
L 96.577425 45.236973 
L 97.118072 46.04823 
L 97.651929 46.859488 
L 98.168155 47.670745 
L 98.656281 48.482002 
L 99.106807 49.293259 
L 99.511776 50.104516 
L 99.865247 50.915774 
L 100.163653 51.727031 
L 100.405996 52.538288 
L 100.59386 53.349545 
L 100.731248 54.160802 
L 100.824244 54.97206 
L 100.880557 55.783317 
L 100.908954 56.594574 
L 100.918657 57.405831 
L 100.918748 58.217088 
L 100.917604 59.028346 
L 100.922427 59.839603 
L 100.938866 60.65086 
L 100.970756 61.462117 
L 101.019971 62.273374 
L 101.086398 63.084632 
L 101.168001 63.895889 
L 101.260986 64.707146 
L 101.360051 65.518403 
L 101.458702 66.32966 
L 101.549633 67.140918 
L 101.62515 67.952175 
L 101.677633 68.763432 
L 101.7 69.574689 
L 101.686157 70.385946 
L 101.631397 71.197204 
L 101.532721 72.008461 
L 101.389044 72.819718 
L 101.201263 73.630975 
L 100.972176 74.442232 
L 100.706239 75.25349 
L 100.409191 76.064747 
L 100.087559 76.876004 
L 99.748107 77.687261 
L 99.397266 78.498518 
L 99.040622 79.309776 
L 98.682501 80.121033 
L 98.325714 80.93229 
L 97.971478 81.743547 
L 97.619528 82.554804 
L 97.268399 83.366062 
L 96.915852 84.177319 
L 96.559368 84.988576 
L 96.196674 85.799833 
L 95.826211 86.61109 
L 95.447506 87.422348 
L 95.061393 88.233605 
L 94.670068 89.044862 
L 94.276986 89.856119 
L 93.886603 90.667376 
L 93.504021 91.478634 
L 93.134575 92.289891 
L 92.783409 93.101148 
L 92.455101 93.912405 
L 92.153354 94.723662 
L 91.880799 95.534919 
L 91.638902 96.346177 
L 91.427976 97.157434 
L 91.247285 97.968691 
L 91.095209 98.779948 
L 90.969456 99.591205 
L 90.867283 100.402463 
z
" clip-path="url(#p529093d249)" style="fill: #20415a; fill-opacity: 0.35"/>
   </g>
   <g id="PolyCollection_4">
    <path d="M 113.087495 110.808 
L 112.632505 110.808 
L 112.56177 109.903117 
L 112.473426 108.998235 
L 112.364464 108.093352 
L 112.231734 107.18847 
L 112.072039 106.283587 
L 111.882245 105.378705 
L 111.659417 104.473822 
L 111.400955 103.56894 
L 111.104756 102.664057 
L 110.769358 101.759175 
L 110.394089 100.854292 
L 109.979199 99.94941 
L 109.525962 99.044527 
L 109.036761 98.139645 
L 108.515124 97.234762 
L 107.965741 96.32988 
L 107.394418 95.424997 
L 106.808009 94.520115 
L 106.214297 93.615232 
L 105.621838 92.710349 
L 105.039768 91.805467 
L 104.477579 90.900584 
L 103.944862 89.995702 
L 103.45103 89.090819 
L 103.00502 88.185937 
L 102.614997 87.281054 
L 102.288046 86.376172 
L 102.029893 85.471289 
L 101.844648 84.566407 
L 101.734586 83.661524 
L 101.7 82.756642 
L 101.739113 81.851759 
L 101.848077 80.946877 
L 102.021068 80.041994 
L 102.250463 79.137112 
L 102.527125 78.232229 
L 102.840753 77.327347 
L 103.180312 76.422464 
L 103.534505 75.517581 
L 103.89227 74.612699 
L 104.243261 73.707816 
L 104.578306 72.802934 
L 104.889788 71.898051 
L 105.171947 70.993169 
L 105.421057 70.088286 
L 105.635504 69.183404 
L 105.815713 68.278521 
L 105.963978 67.373639 
L 106.084169 66.468756 
L 106.181365 65.563874 
L 106.261427 64.658991 
L 106.330545 63.754109 
L 106.394793 62.849226 
L 106.459728 61.944344 
L 106.530042 61.039461 
L 106.609315 60.134579 
L 106.699865 59.229696 
L 106.802696 58.324814 
L 106.91757 57.419931 
L 107.04315 56.515048 
L 107.177242 55.610166 
L 107.317078 54.705283 
L 107.459632 53.800401 
L 107.601941 52.895518 
L 107.741398 51.990636 
L 107.876007 51.085753 
L 108.004556 50.180871 
L 108.126735 49.275988 
L 108.243147 48.371106 
L 108.355251 47.466223 
L 108.465226 46.561341 
L 108.575772 45.656458 
L 108.689867 44.751576 
L 108.810513 43.846693 
L 108.940467 42.941811 
L 109.082015 42.036928 
L 109.23677 41.132046 
L 109.405538 40.227163 
L 109.588249 39.32228 
L 109.78395 38.417398 
L 109.990867 37.512515 
L 110.206527 36.607633 
L 110.427919 35.70275 
L 110.651687 34.797868 
L 110.874329 33.892985 
L 111.092399 32.988103 
L 111.302686 32.08322 
L 111.502363 31.178338 
L 111.689097 30.273455 
L 111.861121 29.368573 
L 112.017258 28.46369 
L 112.156913 27.558808 
L 112.28003 26.653925 
L 112.387026 25.749043 
L 112.478702 24.84416 
L 112.556157 23.939278 
L 112.620692 23.034395 
L 112.673725 22.129512 
L 112.716711 21.22463 
L 113.003289 21.22463 
L 113.003289 21.22463 
L 113.046275 22.129512 
L 113.099308 23.034395 
L 113.163843 23.939278 
L 113.241298 24.84416 
L 113.332974 25.749043 
L 113.43997 26.653925 
L 113.563087 27.558808 
L 113.702742 28.46369 
L 113.858879 29.368573 
L 114.030903 30.273455 
L 114.217637 31.178338 
L 114.417314 32.08322 
L 114.627601 32.988103 
L 114.845671 33.892985 
L 115.068313 34.797868 
L 115.292081 35.70275 
L 115.513473 36.607633 
L 115.729133 37.512515 
L 115.93605 38.417398 
L 116.131751 39.32228 
L 116.314462 40.227163 
L 116.48323 41.132046 
L 116.637985 42.036928 
L 116.779533 42.941811 
L 116.909487 43.846693 
L 117.030133 44.751576 
L 117.144228 45.656458 
L 117.254774 46.561341 
L 117.364749 47.466223 
L 117.476853 48.371106 
L 117.593265 49.275988 
L 117.715444 50.180871 
L 117.843993 51.085753 
L 117.978602 51.990636 
L 118.118059 52.895518 
L 118.260368 53.800401 
L 118.402922 54.705283 
L 118.542758 55.610166 
L 118.67685 56.515048 
L 118.80243 57.419931 
L 118.917304 58.324814 
L 119.020135 59.229696 
L 119.110685 60.134579 
L 119.189958 61.039461 
L 119.260272 61.944344 
L 119.325207 62.849226 
L 119.389455 63.754109 
L 119.458573 64.658991 
L 119.538635 65.563874 
L 119.635831 66.468756 
L 119.756022 67.373639 
L 119.904287 68.278521 
L 120.084496 69.183404 
L 120.298943 70.088286 
L 120.548053 70.993169 
L 120.830212 71.898051 
L 121.141694 72.802934 
L 121.476739 73.707816 
L 121.82773 74.612699 
L 122.185495 75.517581 
L 122.539688 76.422464 
L 122.879247 77.327347 
L 123.192875 78.232229 
L 123.469537 79.137112 
L 123.698932 80.041994 
L 123.871923 80.946877 
L 123.980887 81.851759 
L 124.02 82.756642 
L 123.985414 83.661524 
L 123.875352 84.566407 
L 123.690107 85.471289 
L 123.431954 86.376172 
L 123.105003 87.281054 
L 122.71498 88.185937 
L 122.26897 89.090819 
L 121.775138 89.995702 
L 121.242421 90.900584 
L 120.680232 91.805467 
L 120.098162 92.710349 
L 119.505703 93.615232 
L 118.911991 94.520115 
L 118.325582 95.424997 
L 117.754259 96.32988 
L 117.204876 97.234762 
L 116.683239 98.139645 
L 116.194038 99.044527 
L 115.740801 99.94941 
L 115.325911 100.854292 
L 114.950642 101.759175 
L 114.615244 102.664057 
L 114.319045 103.56894 
L 114.060583 104.473822 
L 113.837755 105.378705 
L 113.647961 106.283587 
L 113.488266 107.18847 
L 113.355536 108.093352 
L 113.246574 108.998235 
L 113.15823 109.903117 
L 113.087495 110.808 
z
" clip-path="url(#p529093d249)" style="fill: #c1613e; fill-opacity: 0.35"/>
   </g>
   <g id="patch_3">
    <path d="M 23.58 102.181772 
L 45.9 102.181772 
L 45.9 73.804932 
L 23.58 73.804932 
L 23.58 102.181772 
z
" clip-path="url(#p529093d249)" style="fill: none"/>
   </g>
   <g id="patch_4">
    <path d="M 79.38 102.181772 
L 101.7 102.181772 
L 101.7 64.796411 
L 79.38 64.796411 
L 79.38 102.181772 
z
" clip-path="url(#p529093d249)" style="fill: none"/>
   </g>
   <g id="patch_5">
    <path d="M 45.9 102.181772 
L 68.22 102.181772 
L 68.22 78.960642 
L 45.9 78.960642 
L 45.9 102.181772 
z
" clip-path="url(#p529093d249)" style="fill: none"/>
   </g>
   <g id="patch_6">
    <path d="M 101.7 102.181772 
L 124.02 102.181772 
L 124.02 71.590754 
L 101.7 71.590754 
L 101.7 102.181772 
z
" clip-path="url(#p529093d249)" style="fill: none"/>
   </g>
   <g id="patch_7">
    <path d="M 45.9 102.181772 
L 45.9 102.181772 
L 45.9 102.181772 
L 45.9 102.181772 
z
" clip-path="url(#p529093d249)" style="fill: #3274a1"/>
   </g>
   <g id="patch_8">
    <path d="M 45.9 102.181772 
L 45.9 102.181772 
L 45.9 102.181772 
L 45.9 102.181772 
z
" clip-path="url(#p529093d249)" style="fill: #e1812c"/>
   </g>
   <g id="matplotlib.axis_1">
    <g id="xtick_1">
     <g id="line2d_1">
      <defs>
       <path id="mf193ec809d" d="M 0 0 
L 0 3.5 
" style="stroke: #000000"/>
      </defs>
      <g>
       <use xlink:href="#mf193ec809d" x="45.9" y="115.344" style="stroke: #000000"/>
      </g>
     </g>
     <g id="text_1">
      <!-- reward -->
      <g transform="translate(30.617969 129.501812) scale(0.1 -0.1)">
       <defs>
        <path id="ArialMT-72" d="M 416 0 
L 416 3319 
L 922 3319 
L 922 2816 
Q 1116 3169 1280 3281 
Q 1444 3394 1641 3394 
Q 1925 3394 2219 3213 
L 2025 2691 
Q 1819 2813 1613 2813 
Q 1428 2813 1281 2702 
Q 1134 2591 1072 2394 
Q 978 2094 978 1738 
L 978 0 
L 416 0 
z
" transform="scale(0.015625)"/>
        <path id="ArialMT-65" d="M 2694 1069 
L 3275 997 
Q 3138 488 2766 206 
Q 2394 -75 1816 -75 
Q 1088 -75 661 373 
Q 234 822 234 1631 
Q 234 2469 665 2931 
Q 1097 3394 1784 3394 
Q 2450 3394 2872 2941 
Q 3294 2488 3294 1666 
Q 3294 1616 3291 1516 
L 816 1516 
Q 847 969 1125 678 
Q 1403 388 1819 388 
Q 2128 388 2347 550 
Q 2566 713 2694 1069 
z
M 847 1978 
L 2700 1978 
Q 2663 2397 2488 2606 
Q 2219 2931 1791 2931 
Q 1403 2931 1139 2672 
Q 875 2413 847 1978 
z
" transform="scale(0.015625)"/>
        <path id="ArialMT-77" d="M 1034 0 
L 19 3319 
L 600 3319 
L 1128 1403 
L 1325 691 
Q 1338 744 1497 1375 
L 2025 3319 
L 2603 3319 
L 3100 1394 
L 3266 759 
L 3456 1400 
L 4025 3319 
L 4572 3319 
L 3534 0 
L 2950 0 
L 2422 1988 
L 2294 2553 
L 1622 0 
L 1034 0 
z
" transform="scale(0.015625)"/>
        <path id="ArialMT-61" d="M 2588 409 
Q 2275 144 1986 34 
Q 1697 -75 1366 -75 
Q 819 -75 525 192 
Q 231 459 231 875 
Q 231 1119 342 1320 
Q 453 1522 633 1644 
Q 813 1766 1038 1828 
Q 1203 1872 1538 1913 
Q 2219 1994 2541 2106 
Q 2544 2222 2544 2253 
Q 2544 2597 2384 2738 
Q 2169 2928 1744 2928 
Q 1347 2928 1158 2789 
Q 969 2650 878 2297 
L 328 2372 
Q 403 2725 575 2942 
Q 747 3159 1072 3276 
Q 1397 3394 1825 3394 
Q 2250 3394 2515 3294 
Q 2781 3194 2906 3042 
Q 3031 2891 3081 2659 
Q 3109 2516 3109 2141 
L 3109 1391 
Q 3109 606 3145 398 
Q 3181 191 3288 0 
L 2700 0 
Q 2613 175 2588 409 
z
M 2541 1666 
Q 2234 1541 1622 1453 
Q 1275 1403 1131 1340 
Q 988 1278 909 1158 
Q 831 1038 831 891 
Q 831 666 1001 516 
Q 1172 366 1500 366 
Q 1825 366 2078 508 
Q 2331 650 2450 897 
Q 2541 1088 2541 1459 
L 2541 1666 
z
" transform="scale(0.015625)"/>
        <path id="ArialMT-64" d="M 2575 0 
L 2575 419 
Q 2259 -75 1647 -75 
Q 1250 -75 917 144 
Q 584 363 401 755 
Q 219 1147 219 1656 
Q 219 2153 384 2558 
Q 550 2963 881 3178 
Q 1213 3394 1622 3394 
Q 1922 3394 2156 3267 
Q 2391 3141 2538 2938 
L 2538 4581 
L 3097 4581 
L 3097 0 
L 2575 0 
z
M 797 1656 
Q 797 1019 1065 703 
Q 1334 388 1700 388 
Q 2069 388 2326 689 
Q 2584 991 2584 1609 
Q 2584 2291 2321 2609 
Q 2059 2928 1675 2928 
Q 1300 2928 1048 2622 
Q 797 2316 797 1656 
z
" transform="scale(0.015625)"/>
       </defs>
       <use xlink:href="#ArialMT-72"/>
       <use xlink:href="#ArialMT-65" x="33.300781"/>
       <use xlink:href="#ArialMT-77" x="88.916016"/>
       <use xlink:href="#ArialMT-61" x="161.132812"/>
       <use xlink:href="#ArialMT-72" x="216.748047"/>
       <use xlink:href="#ArialMT-64" x="250.048828"/>
      </g>
     </g>
    </g>
    <g id="xtick_2">
     <g id="line2d_2">
      <g>
       <use xlink:href="#mf193ec809d" x="101.7" y="115.344" style="stroke: #000000"/>
      </g>
     </g>
     <g id="text_2">
      <!-- punishment -->
      <g transform="translate(75.852344 129.501812) scale(0.1 -0.1)">
       <defs>
        <path id="ArialMT-70" d="M 422 -1272 
L 422 3319 
L 934 3319 
L 934 2888 
Q 1116 3141 1344 3267 
Q 1572 3394 1897 3394 
Q 2322 3394 2647 3175 
Q 2972 2956 3137 2557 
Q 3303 2159 3303 1684 
Q 3303 1175 3120 767 
Q 2938 359 2589 142 
Q 2241 -75 1856 -75 
Q 1575 -75 1351 44 
Q 1128 163 984 344 
L 984 -1272 
L 422 -1272 
z
M 931 1641 
Q 931 1000 1190 694 
Q 1450 388 1819 388 
Q 2194 388 2461 705 
Q 2728 1022 2728 1688 
Q 2728 2322 2467 2637 
Q 2206 2953 1844 2953 
Q 1484 2953 1207 2617 
Q 931 2281 931 1641 
z
" transform="scale(0.015625)"/>
        <path id="ArialMT-75" d="M 2597 0 
L 2597 488 
Q 2209 -75 1544 -75 
Q 1250 -75 995 37 
Q 741 150 617 320 
Q 494 491 444 738 
Q 409 903 409 1263 
L 409 3319 
L 972 3319 
L 972 1478 
Q 972 1038 1006 884 
Q 1059 663 1231 536 
Q 1403 409 1656 409 
Q 1909 409 2131 539 
Q 2353 669 2445 892 
Q 2538 1116 2538 1541 
L 2538 3319 
L 3100 3319 
L 3100 0 
L 2597 0 
z
" transform="scale(0.015625)"/>
        <path id="ArialMT-6e" d="M 422 0 
L 422 3319 
L 928 3319 
L 928 2847 
Q 1294 3394 1984 3394 
Q 2284 3394 2536 3286 
Q 2788 3178 2913 3003 
Q 3038 2828 3088 2588 
Q 3119 2431 3119 2041 
L 3119 0 
L 2556 0 
L 2556 2019 
Q 2556 2363 2490 2533 
Q 2425 2703 2258 2804 
Q 2091 2906 1866 2906 
Q 1506 2906 1245 2678 
Q 984 2450 984 1813 
L 984 0 
L 422 0 
z
" transform="scale(0.015625)"/>
        <path id="ArialMT-69" d="M 425 3934 
L 425 4581 
L 988 4581 
L 988 3934 
L 425 3934 
z
M 425 0 
L 425 3319 
L 988 3319 
L 988 0 
L 425 0 
z
" transform="scale(0.015625)"/>
        <path id="ArialMT-73" d="M 197 991 
L 753 1078 
Q 800 744 1014 566 
Q 1228 388 1613 388 
Q 2000 388 2187 545 
Q 2375 703 2375 916 
Q 2375 1106 2209 1216 
Q 2094 1291 1634 1406 
Q 1016 1563 777 1677 
Q 538 1791 414 1992 
Q 291 2194 291 2438 
Q 291 2659 392 2848 
Q 494 3038 669 3163 
Q 800 3259 1026 3326 
Q 1253 3394 1513 3394 
Q 1903 3394 2198 3281 
Q 2494 3169 2634 2976 
Q 2775 2784 2828 2463 
L 2278 2388 
Q 2241 2644 2061 2787 
Q 1881 2931 1553 2931 
Q 1166 2931 1000 2803 
Q 834 2675 834 2503 
Q 834 2394 903 2306 
Q 972 2216 1119 2156 
Q 1203 2125 1616 2013 
Q 2213 1853 2448 1751 
Q 2684 1650 2818 1456 
Q 2953 1263 2953 975 
Q 2953 694 2789 445 
Q 2625 197 2315 61 
Q 2006 -75 1616 -75 
Q 969 -75 630 194 
Q 291 463 197 991 
z
" transform="scale(0.015625)"/>
        <path id="ArialMT-68" d="M 422 0 
L 422 4581 
L 984 4581 
L 984 2938 
Q 1378 3394 1978 3394 
Q 2347 3394 2619 3248 
Q 2891 3103 3008 2847 
Q 3125 2591 3125 2103 
L 3125 0 
L 2563 0 
L 2563 2103 
Q 2563 2525 2380 2717 
Q 2197 2909 1863 2909 
Q 1613 2909 1392 2779 
Q 1172 2650 1078 2428 
Q 984 2206 984 1816 
L 984 0 
L 422 0 
z
" transform="scale(0.015625)"/>
        <path id="ArialMT-6d" d="M 422 0 
L 422 3319 
L 925 3319 
L 925 2853 
Q 1081 3097 1340 3245 
Q 1600 3394 1931 3394 
Q 2300 3394 2536 3241 
Q 2772 3088 2869 2813 
Q 3263 3394 3894 3394 
Q 4388 3394 4653 3120 
Q 4919 2847 4919 2278 
L 4919 0 
L 4359 0 
L 4359 2091 
Q 4359 2428 4304 2576 
Q 4250 2725 4106 2815 
Q 3963 2906 3769 2906 
Q 3419 2906 3187 2673 
Q 2956 2441 2956 1928 
L 2956 0 
L 2394 0 
L 2394 2156 
Q 2394 2531 2256 2718 
Q 2119 2906 1806 2906 
Q 1569 2906 1367 2781 
Q 1166 2656 1075 2415 
Q 984 2175 984 1722 
L 984 0 
L 422 0 
z
" transform="scale(0.015625)"/>
        <path id="ArialMT-74" d="M 1650 503 
L 1731 6 
Q 1494 -44 1306 -44 
Q 1000 -44 831 53 
Q 663 150 594 308 
Q 525 466 525 972 
L 525 2881 
L 113 2881 
L 113 3319 
L 525 3319 
L 525 4141 
L 1084 4478 
L 1084 3319 
L 1650 3319 
L 1650 2881 
L 1084 2881 
L 1084 941 
Q 1084 700 1114 631 
Q 1144 563 1211 522 
Q 1278 481 1403 481 
Q 1497 481 1650 503 
z
" transform="scale(0.015625)"/>
       </defs>
       <use xlink:href="#ArialMT-70"/>
       <use xlink:href="#ArialMT-75" x="55.615234"/>
       <use xlink:href="#ArialMT-6e" x="111.230469"/>
       <use xlink:href="#ArialMT-69" x="166.845703"/>
       <use xlink:href="#ArialMT-73" x="189.0625"/>
       <use xlink:href="#ArialMT-68" x="239.0625"/>
       <use xlink:href="#ArialMT-6d" x="294.677734"/>
       <use xlink:href="#ArialMT-65" x="377.978516"/>
       <use xlink:href="#ArialMT-6e" x="433.59375"/>
       <use xlink:href="#ArialMT-74" x="489.208984"/>
      </g>
     </g>
    </g>
   </g>
   <g id="matplotlib.axis_2">
    <g id="ytick_1">
     <g id="line2d_3">
      <defs>
       <path id="mf41f1b602b" d="M 0 0 
L -3.5 0 
" style="stroke: #000000"/>
      </defs>
      <g>
       <use xlink:href="#mf41f1b602b" x="18" y="102.181772" style="stroke: #000000"/>
      </g>
     </g>
     <g id="text_3">
      <!-- 0.0 -->
      <g transform="translate(-2.9 105.760679) scale(0.1 -0.1)">
       <defs>
        <path id="ArialMT-30" d="M 266 2259 
Q 266 3072 433 3567 
Q 600 4063 929 4331 
Q 1259 4600 1759 4600 
Q 2128 4600 2406 4451 
Q 2684 4303 2865 4023 
Q 3047 3744 3150 3342 
Q 3253 2941 3253 2259 
Q 3253 1453 3087 958 
Q 2922 463 2592 192 
Q 2263 -78 1759 -78 
Q 1097 -78 719 397 
Q 266 969 266 2259 
z
M 844 2259 
Q 844 1131 1108 757 
Q 1372 384 1759 384 
Q 2147 384 2411 759 
Q 2675 1134 2675 2259 
Q 2675 3391 2411 3762 
Q 2147 4134 1753 4134 
Q 1366 4134 1134 3806 
Q 844 3388 844 2259 
z
" transform="scale(0.015625)"/>
        <path id="ArialMT-2e" d="M 581 0 
L 581 641 
L 1222 641 
L 1222 0 
L 581 0 
z
" transform="scale(0.015625)"/>
       </defs>
       <use xlink:href="#ArialMT-30"/>
       <use xlink:href="#ArialMT-2e" x="55.615234"/>
       <use xlink:href="#ArialMT-30" x="83.398438"/>
      </g>
     </g>
    </g>
    <g id="ytick_2">
     <g id="line2d_4">
      <g>
       <use xlink:href="#mf41f1b602b" x="18" y="63.707882" style="stroke: #000000"/>
      </g>
     </g>
     <g id="text_4">
      <!-- 0.5 -->
      <g transform="translate(-2.9 67.286788) scale(0.1 -0.1)">
       <defs>
        <path id="ArialMT-35" d="M 266 1200 
L 856 1250 
Q 922 819 1161 601 
Q 1400 384 1738 384 
Q 2144 384 2425 690 
Q 2706 997 2706 1503 
Q 2706 1984 2436 2262 
Q 2166 2541 1728 2541 
Q 1456 2541 1237 2417 
Q 1019 2294 894 2097 
L 366 2166 
L 809 4519 
L 3088 4519 
L 3088 3981 
L 1259 3981 
L 1013 2750 
Q 1425 3038 1878 3038 
Q 2478 3038 2890 2622 
Q 3303 2206 3303 1553 
Q 3303 931 2941 478 
Q 2500 -78 1738 -78 
Q 1113 -78 717 272 
Q 322 622 266 1200 
z
" transform="scale(0.015625)"/>
       </defs>
       <use xlink:href="#ArialMT-30"/>
       <use xlink:href="#ArialMT-2e" x="55.615234"/>
       <use xlink:href="#ArialMT-35" x="83.398438"/>
      </g>
     </g>
    </g>
    <g id="ytick_3">
     <g id="line2d_5">
      <g>
       <use xlink:href="#mf41f1b602b" x="18" y="25.233991" style="stroke: #000000"/>
      </g>
     </g>
     <g id="text_5">
      <!-- 1.0 -->
      <g transform="translate(-2.9 28.812897) scale(0.1 -0.1)">
       <defs>
        <path id="ArialMT-31" d="M 2384 0 
L 1822 0 
L 1822 3584 
Q 1619 3391 1289 3197 
Q 959 3003 697 2906 
L 697 3450 
Q 1169 3672 1522 3987 
Q 1875 4303 2022 4600 
L 2384 4600 
L 2384 0 
z
" transform="scale(0.015625)"/>
       </defs>
       <use xlink:href="#ArialMT-31"/>
       <use xlink:href="#ArialMT-2e" x="55.615234"/>
       <use xlink:href="#ArialMT-30" x="83.398438"/>
      </g>
     </g>
    </g>
    <g id="text_6">
     <!-- w -->
     <g transform="translate(-8.8875 69.058937) rotate(-90) scale(0.1 -0.1)">
      <use xlink:href="#ArialMT-77"/>
     </g>
    </g>
   </g>
   <g id="PathCollection_1">
    <defs>
     <path id="C0_0_c3a2c6a1b4" d="M 0 3.5 
C 0.928211 3.5 1.81853 3.131218 2.474874 2.474874 
C 3.131218 1.81853 3.5 0.928211 3.5 -0 
C 3.5 -0.928211 3.131218 -1.81853 2.474874 -2.474874 
C 1.81853 -3.131218 0.928211 -3.5 0 -3.5 
C -0.928211 -3.5 -1.81853 -3.131218 -2.474874 -2.474874 
C -3.131218 -1.81853 -3.5 -0.928211 -3.5 0 
C -3.5 0.928211 -3.131218 1.81853 -2.474874 2.474874 
C -1.81853 3.131218 -0.928211 3.5 0 3.5 
z
"/>
    </defs>
    <g clip-path="url(#p529093d249)">
     <use xlink:href="#C0_0_c3a2c6a1b4" x="36.334056" y="64.477359" style="fill: #174263; fill-opacity: 0.45"/>
    </g>
    <g clip-path="url(#p529093d249)">
     <use xlink:href="#C0_0_c3a2c6a1b4" x="34.764209" y="76.019527" style="fill: #174263; fill-opacity: 0.45"/>
    </g>
    <g clip-path="url(#p529093d249)">
     <use xlink:href="#C0_0_c3a2c6a1b4" x="32.025283" y="68.324748" style="fill: #174263; fill-opacity: 0.45"/>
    </g>
    <g clip-path="url(#p529093d249)">
     <use xlink:href="#C0_0_c3a2c6a1b4" x="36.506788" y="66.785793" style="fill: #174263; fill-opacity: 0.45"/>
    </g>
    <g clip-path="url(#p529093d249)">
     <use xlink:href="#C0_0_c3a2c6a1b4" x="35.698556" y="84.483783" style="fill: #174263; fill-opacity: 0.45"/>
    </g>
    <g clip-path="url(#p529093d249)">
     <use xlink:href="#C0_0_c3a2c6a1b4" x="36.307331" y="91.409083" style="fill: #174263; fill-opacity: 0.45"/>
    </g>
    <g clip-path="url(#p529093d249)">
     <use xlink:href="#C0_0_c3a2c6a1b4" x="34.749081" y="45.240414" style="fill: #174263; fill-opacity: 0.45"/>
    </g>
    <g clip-path="url(#p529093d249)">
     <use xlink:href="#C0_0_c3a2c6a1b4" x="33.474902" y="75.250049" style="fill: #174263; fill-opacity: 0.45"/>
    </g>
    <g clip-path="url(#p529093d249)">
     <use xlink:href="#C0_0_c3a2c6a1b4" x="37.220224" y="74.480571" style="fill: #174263; fill-opacity: 0.45"/>
    </g>
    <g clip-path="url(#p529093d249)">
     <use xlink:href="#C0_0_c3a2c6a1b4" x="35.609796" y="60.62997" style="fill: #174263; fill-opacity: 0.45"/>
    </g>
    <g clip-path="url(#p529093d249)">
     <use xlink:href="#C0_0_c3a2c6a1b4" x="35.09168" y="89.870127" style="fill: #174263; fill-opacity: 0.45"/>
    </g>
    <g clip-path="url(#p529093d249)">
     <use xlink:href="#C0_0_c3a2c6a1b4" x="33.618013" y="72.172138" style="fill: #174263; fill-opacity: 0.45"/>
    </g>
    <g clip-path="url(#p529093d249)">
     <use xlink:href="#C0_0_c3a2c6a1b4" x="34.748585" y="78.32796" style="fill: #174263; fill-opacity: 0.45"/>
    </g>
    <g clip-path="url(#p529093d249)">
     <use xlink:href="#C0_0_c3a2c6a1b4" x="34.331832" y="72.941615" style="fill: #174263; fill-opacity: 0.45"/>
    </g>
    <g clip-path="url(#p529093d249)">
     <use xlink:href="#C0_0_c3a2c6a1b4" x="32.520638" y="72.172138" style="fill: #174263; fill-opacity: 0.45"/>
    </g>
    <g clip-path="url(#p529093d249)">
     <use xlink:href="#C0_0_c3a2c6a1b4" x="36.39354" y="86.022738" style="fill: #174263; fill-opacity: 0.45"/>
    </g>
    <g clip-path="url(#p529093d249)">
     <use xlink:href="#C0_0_c3a2c6a1b4" x="33.855436" y="89.100649" style="fill: #174263; fill-opacity: 0.45"/>
    </g>
    <g clip-path="url(#p529093d249)">
     <use xlink:href="#C0_0_c3a2c6a1b4" x="36.859089" y="62.168926" style="fill: #174263; fill-opacity: 0.45"/>
    </g>
    <g clip-path="url(#p529093d249)">
     <use xlink:href="#C0_0_c3a2c6a1b4" x="34.573527" y="49.857281" style="fill: #174263; fill-opacity: 0.45"/>
    </g>
    <g clip-path="url(#p529093d249)">
     <use xlink:href="#C0_0_c3a2c6a1b4" x="33.852354" y="69.863704" style="fill: #174263; fill-opacity: 0.45"/>
    </g>
    <g clip-path="url(#p529093d249)">
     <use xlink:href="#C0_0_c3a2c6a1b4" x="33.447835" y="89.100649" style="fill: #174263; fill-opacity: 0.45"/>
    </g>
    <g clip-path="url(#p529093d249)">
     <use xlink:href="#C0_0_c3a2c6a1b4" x="37.21569" y="71.40266" style="fill: #174263; fill-opacity: 0.45"/>
    </g>
    <g clip-path="url(#p529093d249)">
     <use xlink:href="#C0_0_c3a2c6a1b4" x="34.074045" y="73.711093" style="fill: #174263; fill-opacity: 0.45"/>
    </g>
    <g clip-path="url(#p529093d249)">
     <use xlink:href="#C0_0_c3a2c6a1b4" x="37.340828" y="96.02595" style="fill: #174263; fill-opacity: 0.45"/>
    </g>
    <g clip-path="url(#p529093d249)">
     <use xlink:href="#C0_0_c3a2c6a1b4" x="33.347938" y="89.870127" style="fill: #174263; fill-opacity: 0.45"/>
    </g>
    <g clip-path="url(#p529093d249)">
     <use xlink:href="#C0_0_c3a2c6a1b4" x="33.755794" y="90.639605" style="fill: #174263; fill-opacity: 0.45"/>
    </g>
    <g clip-path="url(#p529093d249)">
     <use xlink:href="#C0_0_c3a2c6a1b4" x="34.650541" y="80.636394" style="fill: #174263; fill-opacity: 0.45"/>
    </g>
    <g clip-path="url(#p529093d249)">
     <use xlink:href="#C0_0_c3a2c6a1b4" x="35.984636" y="46.77937" style="fill: #174263; fill-opacity: 0.45"/>
    </g>
    <g clip-path="url(#p529093d249)">
     <use xlink:href="#C0_0_c3a2c6a1b4" x="37.420394" y="44.470936" style="fill: #174263; fill-opacity: 0.45"/>
    </g>
    <g clip-path="url(#p529093d249)">
     <use xlink:href="#C0_0_c3a2c6a1b4" x="36.383055" y="81.405871" style="fill: #174263; fill-opacity: 0.45"/>
    </g>
    <g clip-path="url(#p529093d249)">
     <use xlink:href="#C0_0_c3a2c6a1b4" x="35.983532" y="84.483783" style="fill: #174263; fill-opacity: 0.45"/>
    </g>
    <g clip-path="url(#p529093d249)">
     <use xlink:href="#C0_0_c3a2c6a1b4" x="36.961908" y="59.091015" style="fill: #174263; fill-opacity: 0.45"/>
    </g>
    <g clip-path="url(#p529093d249)">
     <use xlink:href="#C0_0_c3a2c6a1b4" x="36.895231" y="84.483783" style="fill: #174263; fill-opacity: 0.45"/>
    </g>
    <g clip-path="url(#p529093d249)">
     <use xlink:href="#C0_0_c3a2c6a1b4" x="35.504806" y="89.870127" style="fill: #174263; fill-opacity: 0.45"/>
    </g>
    <g clip-path="url(#p529093d249)">
     <use xlink:href="#C0_0_c3a2c6a1b4" x="32.594988" y="59.860492" style="fill: #174263; fill-opacity: 0.45"/>
    </g>
    <g clip-path="url(#p529093d249)">
     <use xlink:href="#C0_0_c3a2c6a1b4" x="36.398816" y="88.331172" style="fill: #174263; fill-opacity: 0.45"/>
    </g>
    <g clip-path="url(#p529093d249)">
     <use xlink:href="#C0_0_c3a2c6a1b4" x="33.196562" y="56.782581" style="fill: #174263; fill-opacity: 0.45"/>
    </g>
    <g clip-path="url(#p529093d249)">
     <use xlink:href="#C0_0_c3a2c6a1b4" x="33.585658" y="63.707882" style="fill: #174263; fill-opacity: 0.45"/>
    </g>
    <g clip-path="url(#p529093d249)">
     <use xlink:href="#C0_0_c3a2c6a1b4" x="34.376404" y="72.941615" style="fill: #174263; fill-opacity: 0.45"/>
    </g>
    <g clip-path="url(#p529093d249)">
     <use xlink:href="#C0_0_c3a2c6a1b4" x="37.156498" y="60.62997" style="fill: #174263; fill-opacity: 0.45"/>
    </g>
    <g clip-path="url(#p529093d249)">
     <use xlink:href="#C0_0_c3a2c6a1b4" x="35.828872" y="92.178561" style="fill: #174263; fill-opacity: 0.45"/>
    </g>
   </g>
   <g id="PathCollection_2">
    <defs>
     <path id="C1_0_da88489dc5" d="M 0 3.5 
C 0.928211 3.5 1.81853 3.131218 2.474874 2.474874 
C 3.131218 1.81853 3.5 0.928211 3.5 -0 
C 3.5 -0.928211 3.131218 -1.81853 2.474874 -2.474874 
C 1.81853 -3.131218 0.928211 -3.5 0 -3.5 
C -0.928211 -3.5 -1.81853 -3.131218 -2.474874 -2.474874 
C -3.131218 -1.81853 -3.5 -0.928211 -3.5 0 
C -3.5 0.928211 -3.131218 1.81853 -2.474874 2.474874 
C -1.81853 3.131218 -0.928211 3.5 0 3.5 
z
"/>
    </defs>
    <g clip-path="url(#p529093d249)">
     <use xlink:href="#C1_0_da88489dc5" x="54.427754" y="62.168926" style="fill: #d75728; fill-opacity: 0.45"/>
    </g>
    <g clip-path="url(#p529093d249)">
     <use xlink:href="#C1_0_da88489dc5" x="59.755129" y="90.639605" style="fill: #d75728; fill-opacity: 0.45"/>
    </g>
    <g clip-path="url(#p529093d249)">
     <use xlink:href="#C1_0_da88489dc5" x="55.920289" y="84.483783" style="fill: #d75728; fill-opacity: 0.45"/>
    </g>
    <g clip-path="url(#p529093d249)">
     <use xlink:href="#C1_0_da88489dc5" x="58.834592" y="80.636394" style="fill: #d75728; fill-opacity: 0.45"/>
    </g>
    <g clip-path="url(#p529093d249)">
     <use xlink:href="#C1_0_da88489dc5" x="58.165908" y="86.792216" style="fill: #d75728; fill-opacity: 0.45"/>
    </g>
    <g clip-path="url(#p529093d249)">
     <use xlink:href="#C1_0_da88489dc5" x="57.73669" y="69.094226" style="fill: #d75728; fill-opacity: 0.45"/>
    </g>
    <g clip-path="url(#p529093d249)">
     <use xlink:href="#C1_0_da88489dc5" x="56.252666" y="76.789004" style="fill: #d75728; fill-opacity: 0.45"/>
    </g>
    <g clip-path="url(#p529093d249)">
     <use xlink:href="#C1_0_da88489dc5" x="58.913986" y="50.626759" style="fill: #d75728; fill-opacity: 0.45"/>
    </g>
    <g clip-path="url(#p529093d249)">
     <use xlink:href="#C1_0_da88489dc5" x="55.723534" y="80.636394" style="fill: #d75728; fill-opacity: 0.45"/>
    </g>
    <g clip-path="url(#p529093d249)">
     <use xlink:href="#C1_0_da88489dc5" x="59.331737" y="89.870127" style="fill: #d75728; fill-opacity: 0.45"/>
    </g>
    <g clip-path="url(#p529093d249)">
     <use xlink:href="#C1_0_da88489dc5" x="57.218673" y="92.178561" style="fill: #d75728; fill-opacity: 0.45"/>
    </g>
    <g clip-path="url(#p529093d249)">
     <use xlink:href="#C1_0_da88489dc5" x="59.831282" y="93.717516" style="fill: #d75728; fill-opacity: 0.45"/>
    </g>
    <g clip-path="url(#p529093d249)">
     <use xlink:href="#C1_0_da88489dc5" x="54.426126" y="89.870127" style="fill: #d75728; fill-opacity: 0.45"/>
    </g>
    <g clip-path="url(#p529093d249)">
     <use xlink:href="#C1_0_da88489dc5" x="55.95019" y="92.948039" style="fill: #d75728; fill-opacity: 0.45"/>
    </g>
    <g clip-path="url(#p529093d249)">
     <use xlink:href="#C1_0_da88489dc5" x="57.246227" y="66.785793" style="fill: #d75728; fill-opacity: 0.45"/>
    </g>
    <g clip-path="url(#p529093d249)">
     <use xlink:href="#C1_0_da88489dc5" x="57.624852" y="79.097438" style="fill: #d75728; fill-opacity: 0.45"/>
    </g>
    <g clip-path="url(#p529093d249)">
     <use xlink:href="#C1_0_da88489dc5" x="56.349121" y="92.178561" style="fill: #d75728; fill-opacity: 0.45"/>
    </g>
    <g clip-path="url(#p529093d249)">
     <use xlink:href="#C1_0_da88489dc5" x="55.914824" y="84.483783" style="fill: #d75728; fill-opacity: 0.45"/>
    </g>
    <g clip-path="url(#p529093d249)">
     <use xlink:href="#C1_0_da88489dc5" x="56.237183" y="86.792216" style="fill: #d75728; fill-opacity: 0.45"/>
    </g>
    <g clip-path="url(#p529093d249)">
     <use xlink:href="#C1_0_da88489dc5" x="58.733415" y="82.175349" style="fill: #d75728; fill-opacity: 0.45"/>
    </g>
    <g clip-path="url(#p529093d249)">
     <use xlink:href="#C1_0_da88489dc5" x="56.46808" y="86.022738" style="fill: #d75728; fill-opacity: 0.45"/>
    </g>
    <g clip-path="url(#p529093d249)">
     <use xlink:href="#C1_0_da88489dc5" x="56.129817" y="91.409083" style="fill: #d75728; fill-opacity: 0.45"/>
    </g>
    <g clip-path="url(#p529093d249)">
     <use xlink:href="#C1_0_da88489dc5" x="55.139676" y="86.792216" style="fill: #d75728; fill-opacity: 0.45"/>
    </g>
    <g clip-path="url(#p529093d249)">
     <use xlink:href="#C1_0_da88489dc5" x="55.152856" y="86.022738" style="fill: #d75728; fill-opacity: 0.45"/>
    </g>
    <g clip-path="url(#p529093d249)">
     <use xlink:href="#C1_0_da88489dc5" x="57.573469" y="85.25326" style="fill: #d75728; fill-opacity: 0.45"/>
    </g>
    <g clip-path="url(#p529093d249)">
     <use xlink:href="#C1_0_da88489dc5" x="59.684024" y="80.636394" style="fill: #d75728; fill-opacity: 0.45"/>
    </g>
    <g clip-path="url(#p529093d249)">
     <use xlink:href="#C1_0_da88489dc5" x="57.524232" y="85.25326" style="fill: #d75728; fill-opacity: 0.45"/>
    </g>
    <g clip-path="url(#p529093d249)">
     <use xlink:href="#C1_0_da88489dc5" x="54.429125" y="76.789004" style="fill: #d75728; fill-opacity: 0.45"/>
    </g>
    <g clip-path="url(#p529093d249)">
     <use xlink:href="#C1_0_da88489dc5" x="59.35415" y="82.175349" style="fill: #d75728; fill-opacity: 0.45"/>
    </g>
    <g clip-path="url(#p529093d249)">
     <use xlink:href="#C1_0_da88489dc5" x="56.321623" y="94.486994" style="fill: #d75728; fill-opacity: 0.45"/>
    </g>
    <g clip-path="url(#p529093d249)">
     <use xlink:href="#C1_0_da88489dc5" x="57.414252" y="67.555271" style="fill: #d75728; fill-opacity: 0.45"/>
    </g>
    <g clip-path="url(#p529093d249)">
     <use xlink:href="#C1_0_da88489dc5" x="58.891879" y="89.100649" style="fill: #d75728; fill-opacity: 0.45"/>
    </g>
    <g clip-path="url(#p529093d249)">
     <use xlink:href="#C1_0_da88489dc5" x="57.325079" y="91.409083" style="fill: #d75728; fill-opacity: 0.45"/>
    </g>
    <g clip-path="url(#p529093d249)">
     <use xlink:href="#C1_0_da88489dc5" x="59.131768" y="89.100649" style="fill: #d75728; fill-opacity: 0.45"/>
    </g>
    <g clip-path="url(#p529093d249)">
     <use xlink:href="#C1_0_da88489dc5" x="55.750004" y="72.941615" style="fill: #d75728; fill-opacity: 0.45"/>
    </g>
    <g clip-path="url(#p529093d249)">
     <use xlink:href="#C1_0_da88489dc5" x="56.971275" y="77.558482" style="fill: #d75728; fill-opacity: 0.45"/>
    </g>
    <g clip-path="url(#p529093d249)">
     <use xlink:href="#C1_0_da88489dc5" x="55.428416" y="66.785793" style="fill: #d75728; fill-opacity: 0.45"/>
    </g>
    <g clip-path="url(#p529093d249)">
     <use xlink:href="#C1_0_da88489dc5" x="55.934619" y="84.483783" style="fill: #d75728; fill-opacity: 0.45"/>
    </g>
    <g clip-path="url(#p529093d249)">
     <use xlink:href="#C1_0_da88489dc5" x="54.79916" y="60.62997" style="fill: #d75728; fill-opacity: 0.45"/>
    </g>
    <g clip-path="url(#p529093d249)">
     <use xlink:href="#C1_0_da88489dc5" x="58.28579" y="37.545636" style="fill: #d75728; fill-opacity: 0.45"/>
    </g>
    <g clip-path="url(#p529093d249)">
     <use xlink:href="#C1_0_da88489dc5" x="58.710567" y="89.100649" style="fill: #d75728; fill-opacity: 0.45"/>
    </g>
    <g clip-path="url(#p529093d249)">
     <use xlink:href="#C1_0_da88489dc5" x="57.369651" y="73.711093" style="fill: #d75728; fill-opacity: 0.45"/>
    </g>
    <g clip-path="url(#p529093d249)">
     <use xlink:href="#C1_0_da88489dc5" x="54.857483" y="44.470936" style="fill: #d75728; fill-opacity: 0.45"/>
    </g>
    <g clip-path="url(#p529093d249)">
     <use xlink:href="#C1_0_da88489dc5" x="57.050679" y="41.393025" style="fill: #d75728; fill-opacity: 0.45"/>
    </g>
    <g clip-path="url(#p529093d249)">
     <use xlink:href="#C1_0_da88489dc5" x="56.86583" y="80.636394" style="fill: #d75728; fill-opacity: 0.45"/>
    </g>
   </g>
   <g id="PathCollection_3">
    <defs>
     <path id="C2_0_218234758c" d="M 0 3.5 
C 0.928211 3.5 1.81853 3.131218 2.474874 2.474874 
C 3.131218 1.81853 3.5 0.928211 3.5 -0 
C 3.5 -0.928211 3.131218 -1.81853 2.474874 -2.474874 
C 1.81853 -3.131218 0.928211 -3.5 0 -3.5 
C -0.928211 -3.5 -1.81853 -3.131218 -2.474874 -2.474874 
C -3.131218 -1.81853 -3.5 -0.928211 -3.5 0 
C -3.5 0.928211 -3.131218 1.81853 -2.474874 2.474874 
C -1.81853 3.131218 -0.928211 3.5 0 3.5 
z
"/>
    </defs>
    <g clip-path="url(#p529093d249)">
     <use xlink:href="#C2_0_218234758c" x="88.085283" y="32.928769" style="fill: #174263; fill-opacity: 0.45"/>
    </g>
    <g clip-path="url(#p529093d249)">
     <use xlink:href="#C2_0_218234758c" x="92.590351" y="76.789004" style="fill: #174263; fill-opacity: 0.45"/>
    </g>
    <g clip-path="url(#p529093d249)">
     <use xlink:href="#C2_0_218234758c" x="93.00215" y="85.25326" style="fill: #174263; fill-opacity: 0.45"/>
    </g>
    <g clip-path="url(#p529093d249)">
     <use xlink:href="#C2_0_218234758c" x="92.964144" y="73.711093" style="fill: #174263; fill-opacity: 0.45"/>
    </g>
    <g clip-path="url(#p529093d249)">
     <use xlink:href="#C2_0_218234758c" x="90.360258" y="61.399448" style="fill: #174263; fill-opacity: 0.45"/>
    </g>
    <g clip-path="url(#p529093d249)">
     <use xlink:href="#C2_0_218234758c" x="92.354292" y="69.863704" style="fill: #174263; fill-opacity: 0.45"/>
    </g>
    <g clip-path="url(#p529093d249)">
     <use xlink:href="#C2_0_218234758c" x="91.585452" y="62.168926" style="fill: #174263; fill-opacity: 0.45"/>
    </g>
    <g clip-path="url(#p529093d249)">
     <use xlink:href="#C2_0_218234758c" x="92.043612" y="57.552059" style="fill: #174263; fill-opacity: 0.45"/>
    </g>
    <g clip-path="url(#p529093d249)">
     <use xlink:href="#C2_0_218234758c" x="88.980474" y="71.40266" style="fill: #174263; fill-opacity: 0.45"/>
    </g>
    <g clip-path="url(#p529093d249)">
     <use xlink:href="#C2_0_218234758c" x="87.948881" y="49.857281" style="fill: #174263; fill-opacity: 0.45"/>
    </g>
    <g clip-path="url(#p529093d249)">
     <use xlink:href="#C2_0_218234758c" x="87.91886" y="87.561694" style="fill: #174263; fill-opacity: 0.45"/>
    </g>
    <g clip-path="url(#p529093d249)">
     <use xlink:href="#C2_0_218234758c" x="89.269778" y="52.935192" style="fill: #174263; fill-opacity: 0.45"/>
    </g>
    <g clip-path="url(#p529093d249)">
     <use xlink:href="#C2_0_218234758c" x="90.875485" y="53.70467" style="fill: #174263; fill-opacity: 0.45"/>
    </g>
    <g clip-path="url(#p529093d249)">
     <use xlink:href="#C2_0_218234758c" x="89.111839" y="54.474148" style="fill: #174263; fill-opacity: 0.45"/>
    </g>
    <g clip-path="url(#p529093d249)">
     <use xlink:href="#C2_0_218234758c" x="89.137822" y="76.019527" style="fill: #174263; fill-opacity: 0.45"/>
    </g>
    <g clip-path="url(#p529093d249)">
     <use xlink:href="#C2_0_218234758c" x="88.054095" y="66.785793" style="fill: #174263; fill-opacity: 0.45"/>
    </g>
    <g clip-path="url(#p529093d249)">
     <use xlink:href="#C2_0_218234758c" x="90.409359" y="70.633182" style="fill: #174263; fill-opacity: 0.45"/>
    </g>
    <g clip-path="url(#p529093d249)">
     <use xlink:href="#C2_0_218234758c" x="88.020195" y="61.399448" style="fill: #174263; fill-opacity: 0.45"/>
    </g>
    <g clip-path="url(#p529093d249)">
     <use xlink:href="#C2_0_218234758c" x="91.553782" y="49.087803" style="fill: #174263; fill-opacity: 0.45"/>
    </g>
    <g clip-path="url(#p529093d249)">
     <use xlink:href="#C2_0_218234758c" x="88.055205" y="51.396236" style="fill: #174263; fill-opacity: 0.45"/>
    </g>
    <g clip-path="url(#p529093d249)">
     <use xlink:href="#C2_0_218234758c" x="93.26895" y="70.633182" style="fill: #174263; fill-opacity: 0.45"/>
    </g>
    <g clip-path="url(#p529093d249)">
     <use xlink:href="#C2_0_218234758c" x="87.799394" y="68.324748" style="fill: #174263; fill-opacity: 0.45"/>
    </g>
    <g clip-path="url(#p529093d249)">
     <use xlink:href="#C2_0_218234758c" x="90.980898" y="45.240414" style="fill: #174263; fill-opacity: 0.45"/>
    </g>
    <g clip-path="url(#p529093d249)">
     <use xlink:href="#C2_0_218234758c" x="90.14612" y="50.626759" style="fill: #174263; fill-opacity: 0.45"/>
    </g>
    <g clip-path="url(#p529093d249)">
     <use xlink:href="#C2_0_218234758c" x="91.560319" y="76.019527" style="fill: #174263; fill-opacity: 0.45"/>
    </g>
    <g clip-path="url(#p529093d249)">
     <use xlink:href="#C2_0_218234758c" x="90.338207" y="75.250049" style="fill: #174263; fill-opacity: 0.45"/>
    </g>
    <g clip-path="url(#p529093d249)">
     <use xlink:href="#C2_0_218234758c" x="89.070957" y="86.792216" style="fill: #174263; fill-opacity: 0.45"/>
    </g>
    <g clip-path="url(#p529093d249)">
     <use xlink:href="#C2_0_218234758c" x="92.303573" y="76.789004" style="fill: #174263; fill-opacity: 0.45"/>
    </g>
    <g clip-path="url(#p529093d249)">
     <use xlink:href="#C2_0_218234758c" x="92.001196" y="56.782581" style="fill: #174263; fill-opacity: 0.45"/>
    </g>
    <g clip-path="url(#p529093d249)">
     <use xlink:href="#C2_0_218234758c" x="93.302843" y="81.405871" style="fill: #174263; fill-opacity: 0.45"/>
    </g>
    <g clip-path="url(#p529093d249)">
     <use xlink:href="#C2_0_218234758c" x="90.751429" y="63.707882" style="fill: #174263; fill-opacity: 0.45"/>
    </g>
    <g clip-path="url(#p529093d249)">
     <use xlink:href="#C2_0_218234758c" x="90.979035" y="50.626759" style="fill: #174263; fill-opacity: 0.45"/>
    </g>
    <g clip-path="url(#p529093d249)">
     <use xlink:href="#C2_0_218234758c" x="89.715202" y="55.243626" style="fill: #174263; fill-opacity: 0.45"/>
    </g>
    <g clip-path="url(#p529093d249)">
     <use xlink:href="#C2_0_218234758c" x="90.33343" y="61.399448" style="fill: #174263; fill-opacity: 0.45"/>
    </g>
    <g clip-path="url(#p529093d249)">
     <use xlink:href="#C2_0_218234758c" x="92.62821" y="86.022738" style="fill: #174263; fill-opacity: 0.45"/>
    </g>
    <g clip-path="url(#p529093d249)">
     <use xlink:href="#C2_0_218234758c" x="89.704099" y="69.094226" style="fill: #174263; fill-opacity: 0.45"/>
    </g>
    <g clip-path="url(#p529093d249)">
     <use xlink:href="#C2_0_218234758c" x="88.242299" y="72.941615" style="fill: #174263; fill-opacity: 0.45"/>
    </g>
    <g clip-path="url(#p529093d249)">
     <use xlink:href="#C2_0_218234758c" x="90.226159" y="85.25326" style="fill: #174263; fill-opacity: 0.45"/>
    </g>
    <g clip-path="url(#p529093d249)">
     <use xlink:href="#C2_0_218234758c" x="90.82067" y="50.626759" style="fill: #174263; fill-opacity: 0.45"/>
    </g>
    <g clip-path="url(#p529093d249)">
     <use xlink:href="#C2_0_218234758c" x="89.713011" y="66.016315" style="fill: #174263; fill-opacity: 0.45"/>
    </g>
    <g clip-path="url(#p529093d249)">
     <use xlink:href="#C2_0_218234758c" x="90.27494" y="42.93198" style="fill: #174263; fill-opacity: 0.45"/>
    </g>
   </g>
   <g id="PathCollection_4">
    <defs>
     <path id="C3_0_f89ef0b801" d="M 0 3.5 
C 0.928211 3.5 1.81853 3.131218 2.474874 2.474874 
C 3.131218 1.81853 3.5 0.928211 3.5 -0 
C 3.5 -0.928211 3.131218 -1.81853 2.474874 -2.474874 
C 1.81853 -3.131218 0.928211 -3.5 0 -3.5 
C -0.928211 -3.5 -1.81853 -3.131218 -2.474874 -2.474874 
C -3.131218 -1.81853 -3.5 -0.928211 -3.5 0 
C -3.5 0.928211 -3.131218 1.81853 -2.474874 2.474874 
C -1.81853 3.131218 -0.928211 3.5 0 3.5 
z
"/>
    </defs>
    <g clip-path="url(#p529093d249)">
     <use xlink:href="#C3_0_f89ef0b801" x="112.6161" y="82.175349" style="fill: #d75728; fill-opacity: 0.45"/>
    </g>
    <g clip-path="url(#p529093d249)">
     <use xlink:href="#C3_0_f89ef0b801" x="115.13972" y="90.639605" style="fill: #d75728; fill-opacity: 0.45"/>
    </g>
    <g clip-path="url(#p529093d249)">
     <use xlink:href="#C3_0_f89ef0b801" x="114.560143" y="42.93198" style="fill: #d75728; fill-opacity: 0.45"/>
    </g>
    <g clip-path="url(#p529093d249)">
     <use xlink:href="#C3_0_f89ef0b801" x="110.827094" y="80.636394" style="fill: #d75728; fill-opacity: 0.45"/>
    </g>
    <g clip-path="url(#p529093d249)">
     <use xlink:href="#C3_0_f89ef0b801" x="112.236847" y="93.717516" style="fill: #d75728; fill-opacity: 0.45"/>
    </g>
    <g clip-path="url(#p529093d249)">
     <use xlink:href="#C3_0_f89ef0b801" x="113.960245" y="60.62997" style="fill: #d75728; fill-opacity: 0.45"/>
    </g>
    <g clip-path="url(#p529093d249)">
     <use xlink:href="#C3_0_f89ef0b801" x="111.69633" y="57.552059" style="fill: #d75728; fill-opacity: 0.45"/>
    </g>
    <g clip-path="url(#p529093d249)">
     <use xlink:href="#C3_0_f89ef0b801" x="114.436051" y="75.250049" style="fill: #d75728; fill-opacity: 0.45"/>
    </g>
    <g clip-path="url(#p529093d249)">
     <use xlink:href="#C3_0_f89ef0b801" x="113.849486" y="77.558482" style="fill: #d75728; fill-opacity: 0.45"/>
    </g>
    <g clip-path="url(#p529093d249)">
     <use xlink:href="#C3_0_f89ef0b801" x="114.170815" y="95.256472" style="fill: #d75728; fill-opacity: 0.45"/>
    </g>
    <g clip-path="url(#p529093d249)">
     <use xlink:href="#C3_0_f89ef0b801" x="114.709003" y="84.483783" style="fill: #d75728; fill-opacity: 0.45"/>
    </g>
    <g clip-path="url(#p529093d249)">
     <use xlink:href="#C3_0_f89ef0b801" x="113.548105" y="84.483783" style="fill: #d75728; fill-opacity: 0.45"/>
    </g>
    <g clip-path="url(#p529093d249)">
     <use xlink:href="#C3_0_f89ef0b801" x="114.965861" y="36.776158" style="fill: #d75728; fill-opacity: 0.45"/>
    </g>
    <g clip-path="url(#p529093d249)">
     <use xlink:href="#C3_0_f89ef0b801" x="115.061422" y="82.944827" style="fill: #d75728; fill-opacity: 0.45"/>
    </g>
    <g clip-path="url(#p529093d249)">
     <use xlink:href="#C3_0_f89ef0b801" x="110.283618" y="78.32796" style="fill: #d75728; fill-opacity: 0.45"/>
    </g>
    <g clip-path="url(#p529093d249)">
     <use xlink:href="#C3_0_f89ef0b801" x="111.044833" y="66.016315" style="fill: #d75728; fill-opacity: 0.45"/>
    </g>
    <g clip-path="url(#p529093d249)">
     <use xlink:href="#C3_0_f89ef0b801" x="114.594741" y="57.552059" style="fill: #d75728; fill-opacity: 0.45"/>
    </g>
    <g clip-path="url(#p529093d249)">
     <use xlink:href="#C3_0_f89ef0b801" x="110.921597" y="89.100649" style="fill: #d75728; fill-opacity: 0.45"/>
    </g>
    <g clip-path="url(#p529093d249)">
     <use xlink:href="#C3_0_f89ef0b801" x="111.778388" y="71.40266" style="fill: #d75728; fill-opacity: 0.45"/>
    </g>
    <g clip-path="url(#p529093d249)">
     <use xlink:href="#C3_0_f89ef0b801" x="112.733223" y="63.707882" style="fill: #d75728; fill-opacity: 0.45"/>
    </g>
    <g clip-path="url(#p529093d249)">
     <use xlink:href="#C3_0_f89ef0b801" x="110.57906" y="76.789004" style="fill: #d75728; fill-opacity: 0.45"/>
    </g>
    <g clip-path="url(#p529093d249)">
     <use xlink:href="#C3_0_f89ef0b801" x="110.394434" y="87.561694" style="fill: #d75728; fill-opacity: 0.45"/>
    </g>
    <g clip-path="url(#p529093d249)">
     <use xlink:href="#C3_0_f89ef0b801" x="114.717917" y="77.558482" style="fill: #d75728; fill-opacity: 0.45"/>
    </g>
    <g clip-path="url(#p529093d249)">
     <use xlink:href="#C3_0_f89ef0b801" x="112.989651" y="42.93198" style="fill: #d75728; fill-opacity: 0.45"/>
    </g>
    <g clip-path="url(#p529093d249)">
     <use xlink:href="#C3_0_f89ef0b801" x="113.750181" y="91.409083" style="fill: #d75728; fill-opacity: 0.45"/>
    </g>
    <g clip-path="url(#p529093d249)">
     <use xlink:href="#C3_0_f89ef0b801" x="115.005589" y="39.854069" style="fill: #d75728; fill-opacity: 0.45"/>
    </g>
    <g clip-path="url(#p529093d249)">
     <use xlink:href="#C3_0_f89ef0b801" x="115.307246" y="82.175349" style="fill: #d75728; fill-opacity: 0.45"/>
    </g>
    <g clip-path="url(#p529093d249)">
     <use xlink:href="#C3_0_f89ef0b801" x="110.522794" y="82.944827" style="fill: #d75728; fill-opacity: 0.45"/>
    </g>
    <g clip-path="url(#p529093d249)">
     <use xlink:href="#C3_0_f89ef0b801" x="113.892488" y="82.944827" style="fill: #d75728; fill-opacity: 0.45"/>
    </g>
    <g clip-path="url(#p529093d249)">
     <use xlink:href="#C3_0_f89ef0b801" x="112.892445" y="74.480571" style="fill: #d75728; fill-opacity: 0.45"/>
    </g>
    <g clip-path="url(#p529093d249)">
     <use xlink:href="#C3_0_f89ef0b801" x="111.954193" y="65.246837" style="fill: #d75728; fill-opacity: 0.45"/>
    </g>
    <g clip-path="url(#p529093d249)">
     <use xlink:href="#C3_0_f89ef0b801" x="111.337856" y="46.77937" style="fill: #d75728; fill-opacity: 0.45"/>
    </g>
    <g clip-path="url(#p529093d249)">
     <use xlink:href="#C3_0_f89ef0b801" x="115.058013" y="53.70467" style="fill: #d75728; fill-opacity: 0.45"/>
    </g>
    <g clip-path="url(#p529093d249)">
     <use xlink:href="#C3_0_f89ef0b801" x="114.12004" y="92.178561" style="fill: #d75728; fill-opacity: 0.45"/>
    </g>
    <g clip-path="url(#p529093d249)">
     <use xlink:href="#C3_0_f89ef0b801" x="115.62425" y="82.175349" style="fill: #d75728; fill-opacity: 0.45"/>
    </g>
    <g clip-path="url(#p529093d249)">
     <use xlink:href="#C3_0_f89ef0b801" x="113.786147" y="41.393025" style="fill: #d75728; fill-opacity: 0.45"/>
    </g>
    <g clip-path="url(#p529093d249)">
     <use xlink:href="#C3_0_f89ef0b801" x="111.856574" y="64.477359" style="fill: #d75728; fill-opacity: 0.45"/>
    </g>
    <g clip-path="url(#p529093d249)">
     <use xlink:href="#C3_0_f89ef0b801" x="111.02063" y="86.792216" style="fill: #d75728; fill-opacity: 0.45"/>
    </g>
    <g clip-path="url(#p529093d249)">
     <use xlink:href="#C3_0_f89ef0b801" x="111.052617" y="49.857281" style="fill: #d75728; fill-opacity: 0.45"/>
    </g>
    <g clip-path="url(#p529093d249)">
     <use xlink:href="#C3_0_f89ef0b801" x="112.193429" y="78.32796" style="fill: #d75728; fill-opacity: 0.45"/>
    </g>
    <g clip-path="url(#p529093d249)">
     <use xlink:href="#C3_0_f89ef0b801" x="113.871188" y="86.792216" style="fill: #d75728; fill-opacity: 0.45"/>
    </g>
    <g clip-path="url(#p529093d249)">
     <use xlink:href="#C3_0_f89ef0b801" x="112.951495" y="86.792216" style="fill: #d75728; fill-opacity: 0.45"/>
    </g>
    <g clip-path="url(#p529093d249)">
     <use xlink:href="#C3_0_f89ef0b801" x="112.288827" y="56.013103" style="fill: #d75728; fill-opacity: 0.45"/>
    </g>
    <g clip-path="url(#p529093d249)">
     <use xlink:href="#C3_0_f89ef0b801" x="111.217335" y="61.399448" style="fill: #d75728; fill-opacity: 0.45"/>
    </g>
    <g clip-path="url(#p529093d249)">
     <use xlink:href="#C3_0_f89ef0b801" x="115.01657" y="59.860492" style="fill: #d75728; fill-opacity: 0.45"/>
    </g>
   </g>
   <g id="line2d_6">
    <path d="M 33.2055 87.913046 
L 36.2745 87.913046 
M 34.74 87.913046 
L 34.74 59.696818 
M 33.2055 59.696818 
L 36.2745 59.696818 
" clip-path="url(#p529093d249)" style="fill: none; stroke: #333333; stroke-width: 2.5; stroke-linecap: square"/>
   </g>
   <g id="line2d_7">
    <path d="M 89.0055 78.2897 
L 92.0745 78.2897 
M 90.54 78.2897 
L 90.54 51.303123 
M 89.0055 51.303123 
L 92.0745 51.303123 
" clip-path="url(#p529093d249)" style="fill: none; stroke: #333333; stroke-width: 2.5; stroke-linecap: square"/>
   </g>
   <g id="line2d_8">
    <path d="M 55.5255 93.118054 
L 58.5945 93.118054 
M 57.06 93.118054 
L 57.06 64.80323 
M 55.5255 64.80323 
L 58.5945 64.80323 
" clip-path="url(#p529093d249)" style="fill: none; stroke: #333333; stroke-width: 2.5; stroke-linecap: square"/>
   </g>
   <g id="line2d_9">
    <path d="M 111.3255 88.239655 
L 114.3945 88.239655 
M 112.86 88.239655 
L 112.86 54.941853 
M 111.3255 54.941853 
L 114.3945 54.941853 
" clip-path="url(#p529093d249)" style="fill: none; stroke: #333333; stroke-width: 2.5; stroke-linecap: square"/>
   </g>
   <g id="patch_9">
    <path d="M 18 115.344 
L 18 15.552 
" style="fill: none; stroke: #000000; stroke-linejoin: miter; stroke-linecap: square"/>
   </g>
   <g id="patch_10">
    <path d="M 18 115.344 
L 129.6 115.344 
" style="fill: none; stroke: #000000; stroke-linejoin: miter; stroke-linecap: square"/>
   </g>
   <g id="PathCollection_5">
    <defs>
     <path id="m5119e20827" d="M 0 3 
C 0.795609 3 1.55874 2.683901 2.12132 2.12132 
C 2.683901 1.55874 3 0.795609 3 0 
C 3 -0.795609 2.683901 -1.55874 2.12132 -2.12132 
C 1.55874 -2.683901 0.795609 -3 0 -3 
C -0.795609 -3 -1.55874 -2.683901 -2.12132 -2.12132 
C -2.683901 -1.55874 -3 -0.795609 -3 0 
C -3 0.795609 -2.683901 1.55874 -2.12132 2.12132 
C -1.55874 2.683901 -0.795609 3 0 3 
z
"/>
    </defs>
    <g clip-path="url(#p529093d249)">
     <use xlink:href="#m5119e20827" x="34.74" y="73.804932" style="fill: #333333"/>
    </g>
   </g>
   <g id="PathCollection_6">
    <g clip-path="url(#p529093d249)">
     <use xlink:href="#m5119e20827" x="57.06" y="78.960642" style="fill: #333333"/>
    </g>
   </g>
   <g id="PathCollection_7">
    <g clip-path="url(#p529093d249)">
     <use xlink:href="#m5119e20827" x="90.54" y="64.796411" style="fill: #333333"/>
    </g>
   </g>
   <g id="PathCollection_8">
    <g clip-path="url(#p529093d249)">
     <use xlink:href="#m5119e20827" x="112.86" y="71.590754" style="fill: #333333"/>
    </g>
   </g>
   <g id="line2d_10"/>
   <g id="line2d_11"/>
  </g>
 </g>
 <defs>
  <clipPath id="p529093d249">
   <rect x="18" y="15.552" width="111.6" height="99.792"/>
  </clipPath>
 </defs>
</svg>
