<?xml version="1.0" encoding="utf-8" standalone="no"?>
<!DOCTYPE svg PUBLIC "-//W3C//DTD SVG 1.1//EN"
  "http://www.w3.org/Graphics/SVG/1.1/DTD/svg11.dtd">
<svg xmlns:xlink="http://www.w3.org/1999/xlink" width="288pt" height="252pt" viewBox="0 0 288 252" xmlns="http://www.w3.org/2000/svg" version="1.1">
 <metadata>
  <rdf:RDF xmlns:dc="http://purl.org/dc/elements/1.1/" xmlns:cc="http://creativecommons.org/ns#" xmlns:rdf="http://www.w3.org/1999/02/22-rdf-syntax-ns#">
   <cc:Work>
    <dc:type rdf:resource="http://purl.org/dc/dcmitype/StillImage"/>
    <dc:date>2025-04-11T16:11:12.066657</dc:date>
    <dc:format>image/svg+xml</dc:format>
    <dc:creator>
     <cc:Agent>
      <dc:title>Matplotlib v3.7.1, https://matplotlib.org/</dc:title>
     </cc:Agent>
    </dc:creator>
   </cc:Work>
  </rdf:RDF>
 </metadata>
 <defs>
  <style type="text/css">*{stroke-linejoin: round; stroke-linecap: butt}</style>
 </defs>
 <g id="figure_1">
  <g id="patch_1">
   <path d="M 0 252 
L 288 252 
L 288 0 
L 0 0 
L 0 252 
z
" style="fill: none"/>
  </g>
  <g id="axes_1">
   <g id="patch_2">
    <path d="M 36 224.28 
L 259.2 224.28 
L 259.2 30.24 
L 36 30.24 
L 36 224.28 
z
" style="fill: none"/>
   </g>
   <g id="PathCollection_1">
    <defs>
     <path id="me92fd8abaa" d="M 0 3 
C 0.795609 3 1.55874 2.683901 2.12132 2.12132 
C 2.683901 1.55874 3 0.795609 3 0 
C 3 -0.795609 2.683901 -1.55874 2.12132 -2.12132 
C 1.55874 -2.683901 0.795609 -3 0 -3 
C -0.795609 -3 -1.55874 -2.683901 -2.12132 -2.12132 
C -2.683901 -1.55874 -3 -0.795609 -3 0 
C -3 0.795609 -2.683901 1.55874 -2.12132 2.12132 
C -1.55874 2.683901 -0.795609 3 0 3 
z
" style="stroke: #cd5c5c; stroke-opacity: 0.8"/>
    </defs>
    <g clip-path="url(#pc07ad8cb93)">
     <use xlink:href="#me92fd8abaa" x="129.255168" y="155.200779" style="fill: #cd5c5c; fill-opacity: 0.8; stroke: #cd5c5c; stroke-opacity: 0.8"/>
     <use xlink:href="#me92fd8abaa" x="132.436527" y="143.13669" style="fill: #cd5c5c; fill-opacity: 0.8; stroke: #cd5c5c; stroke-opacity: 0.8"/>
     <use xlink:href="#me92fd8abaa" x="242.550076" y="74.970359" style="fill: #cd5c5c; fill-opacity: 0.8; stroke: #cd5c5c; stroke-opacity: 0.8"/>
     <use xlink:href="#me92fd8abaa" x="242.837486" y="98.383337" style="fill: #cd5c5c; fill-opacity: 0.8; stroke: #cd5c5c; stroke-opacity: 0.8"/>
     <use xlink:href="#me92fd8abaa" x="248.726039" y="129.370234" style="fill: #cd5c5c; fill-opacity: 0.8; stroke: #cd5c5c; stroke-opacity: 0.8"/>
     <use xlink:href="#me92fd8abaa" x="243.451916" y="111.790376" style="fill: #cd5c5c; fill-opacity: 0.8; stroke: #cd5c5c; stroke-opacity: 0.8"/>
     <use xlink:href="#me92fd8abaa" x="235.145969" y="98.887114" style="fill: #cd5c5c; fill-opacity: 0.8; stroke: #cd5c5c; stroke-opacity: 0.8"/>
     <use xlink:href="#me92fd8abaa" x="54.07909" y="202.449242" style="fill: #cd5c5c; fill-opacity: 0.8; stroke: #cd5c5c; stroke-opacity: 0.8"/>
     <use xlink:href="#me92fd8abaa" x="128.75601" y="144.836811" style="fill: #cd5c5c; fill-opacity: 0.8; stroke: #cd5c5c; stroke-opacity: 0.8"/>
     <use xlink:href="#me92fd8abaa" x="247.562" y="110.399775" style="fill: #cd5c5c; fill-opacity: 0.8; stroke: #cd5c5c; stroke-opacity: 0.8"/>
     <use xlink:href="#me92fd8abaa" x="212.494368" y="113.159975" style="fill: #cd5c5c; fill-opacity: 0.8; stroke: #cd5c5c; stroke-opacity: 0.8"/>
     <use xlink:href="#me92fd8abaa" x="236.336203" y="115.395752" style="fill: #cd5c5c; fill-opacity: 0.8; stroke: #cd5c5c; stroke-opacity: 0.8"/>
     <use xlink:href="#me92fd8abaa" x="57.688244" y="195.880817" style="fill: #cd5c5c; fill-opacity: 0.8; stroke: #cd5c5c; stroke-opacity: 0.8"/>
     <use xlink:href="#me92fd8abaa" x="128.588764" y="149.761054" style="fill: #cd5c5c; fill-opacity: 0.8; stroke: #cd5c5c; stroke-opacity: 0.8"/>
     <use xlink:href="#me92fd8abaa" x="82.354523" y="56.375664" style="fill: #cd5c5c; fill-opacity: 0.8; stroke: #cd5c5c; stroke-opacity: 0.8"/>
     <use xlink:href="#me92fd8abaa" x="57.186768" y="110.399976" style="fill: #cd5c5c; fill-opacity: 0.8; stroke: #cd5c5c; stroke-opacity: 0.8"/>
     <use xlink:href="#me92fd8abaa" x="110.486613" y="139.524626" style="fill: #cd5c5c; fill-opacity: 0.8; stroke: #cd5c5c; stroke-opacity: 0.8"/>
     <use xlink:href="#me92fd8abaa" x="178.971701" y="196.683089" style="fill: #cd5c5c; fill-opacity: 0.8; stroke: #cd5c5c; stroke-opacity: 0.8"/>
     <use xlink:href="#me92fd8abaa" x="245.736192" y="91.116523" style="fill: #cd5c5c; fill-opacity: 0.8; stroke: #cd5c5c; stroke-opacity: 0.8"/>
     <use xlink:href="#me92fd8abaa" x="78.901275" y="156.464342" style="fill: #cd5c5c; fill-opacity: 0.8; stroke: #cd5c5c; stroke-opacity: 0.8"/>
     <use xlink:href="#me92fd8abaa" x="64.769335" y="167.355007" style="fill: #cd5c5c; fill-opacity: 0.8; stroke: #cd5c5c; stroke-opacity: 0.8"/>
     <use xlink:href="#me92fd8abaa" x="182.993381" y="87.600589" style="fill: #cd5c5c; fill-opacity: 0.8; stroke: #cd5c5c; stroke-opacity: 0.8"/>
     <use xlink:href="#me92fd8abaa" x="235.46852" y="103.6095" style="fill: #cd5c5c; fill-opacity: 0.8; stroke: #cd5c5c; stroke-opacity: 0.8"/>
     <use xlink:href="#me92fd8abaa" x="185.695643" y="188.338667" style="fill: #cd5c5c; fill-opacity: 0.8; stroke: #cd5c5c; stroke-opacity: 0.8"/>
     <use xlink:href="#me92fd8abaa" x="59.915446" y="194.227673" style="fill: #cd5c5c; fill-opacity: 0.8; stroke: #cd5c5c; stroke-opacity: 0.8"/>
     <use xlink:href="#me92fd8abaa" x="210.0191" y="86.2942" style="fill: #cd5c5c; fill-opacity: 0.8; stroke: #cd5c5c; stroke-opacity: 0.8"/>
     <use xlink:href="#me92fd8abaa" x="89.756064" y="80.483469" style="fill: #cd5c5c; fill-opacity: 0.8; stroke: #cd5c5c; stroke-opacity: 0.8"/>
     <use xlink:href="#me92fd8abaa" x="98.158444" y="63.519281" style="fill: #cd5c5c; fill-opacity: 0.8; stroke: #cd5c5c; stroke-opacity: 0.8"/>
     <use xlink:href="#me92fd8abaa" x="118.52767" y="110.400234" style="fill: #cd5c5c; fill-opacity: 0.8; stroke: #cd5c5c; stroke-opacity: 0.8"/>
     <use xlink:href="#me92fd8abaa" x="248.748624" y="93.15855" style="fill: #cd5c5c; fill-opacity: 0.8; stroke: #cd5c5c; stroke-opacity: 0.8"/>
     <use xlink:href="#me92fd8abaa" x="138.434327" y="119.199615" style="fill: #cd5c5c; fill-opacity: 0.8; stroke: #cd5c5c; stroke-opacity: 0.8"/>
     <use xlink:href="#me92fd8abaa" x="110.538991" y="197.114511" style="fill: #cd5c5c; fill-opacity: 0.8; stroke: #cd5c5c; stroke-opacity: 0.8"/>
     <use xlink:href="#me92fd8abaa" x="150.422965" y="110.400355" style="fill: #cd5c5c; fill-opacity: 0.8; stroke: #cd5c5c; stroke-opacity: 0.8"/>
     <use xlink:href="#me92fd8abaa" x="214.282278" y="113.9021" style="fill: #cd5c5c; fill-opacity: 0.8; stroke: #cd5c5c; stroke-opacity: 0.8"/>
     <use xlink:href="#me92fd8abaa" x="182.929098" y="85.656946" style="fill: #cd5c5c; fill-opacity: 0.8; stroke: #cd5c5c; stroke-opacity: 0.8"/>
     <use xlink:href="#me92fd8abaa" x="124.975322" y="153.271939" style="fill: #cd5c5c; fill-opacity: 0.8; stroke: #cd5c5c; stroke-opacity: 0.8"/>
     <use xlink:href="#me92fd8abaa" x="240.370401" y="110.403748" style="fill: #cd5c5c; fill-opacity: 0.8; stroke: #cd5c5c; stroke-opacity: 0.8"/>
     <use xlink:href="#me92fd8abaa" x="217.667037" y="61.735966" style="fill: #cd5c5c; fill-opacity: 0.8; stroke: #cd5c5c; stroke-opacity: 0.8"/>
     <use xlink:href="#me92fd8abaa" x="70.149065" y="109.951164" style="fill: #cd5c5c; fill-opacity: 0.8; stroke: #cd5c5c; stroke-opacity: 0.8"/>
     <use xlink:href="#me92fd8abaa" x="241.57869" y="120.532405" style="fill: #cd5c5c; fill-opacity: 0.8; stroke: #cd5c5c; stroke-opacity: 0.8"/>
     <use xlink:href="#me92fd8abaa" x="202.808946" y="110.399858" style="fill: #cd5c5c; fill-opacity: 0.8; stroke: #cd5c5c; stroke-opacity: 0.8"/>
     <use xlink:href="#me92fd8abaa" x="67.493522" y="197.109159" style="fill: #cd5c5c; fill-opacity: 0.8; stroke: #cd5c5c; stroke-opacity: 0.8"/>
     <use xlink:href="#me92fd8abaa" x="49.044279" y="205.757474" style="fill: #cd5c5c; fill-opacity: 0.8; stroke: #cd5c5c; stroke-opacity: 0.8"/>
     <use xlink:href="#me92fd8abaa" x="177.167442" y="66.82344" style="fill: #cd5c5c; fill-opacity: 0.8; stroke: #cd5c5c; stroke-opacity: 0.8"/>
     <use xlink:href="#me92fd8abaa" x="138.018737" y="173.89704" style="fill: #cd5c5c; fill-opacity: 0.8; stroke: #cd5c5c; stroke-opacity: 0.8"/>
     <use xlink:href="#me92fd8abaa" x="68.025121" y="153.554923" style="fill: #cd5c5c; fill-opacity: 0.8; stroke: #cd5c5c; stroke-opacity: 0.8"/>
     <use xlink:href="#me92fd8abaa" x="193.517236" y="81.703306" style="fill: #cd5c5c; fill-opacity: 0.8; stroke: #cd5c5c; stroke-opacity: 0.8"/>
     <use xlink:href="#me92fd8abaa" x="186.555031" y="109.181089" style="fill: #cd5c5c; fill-opacity: 0.8; stroke: #cd5c5c; stroke-opacity: 0.8"/>
     <use xlink:href="#me92fd8abaa" x="89.119626" y="110.400444" style="fill: #cd5c5c; fill-opacity: 0.8; stroke: #cd5c5c; stroke-opacity: 0.8"/>
     <use xlink:href="#me92fd8abaa" x="211.643732" y="39.06" style="fill: #cd5c5c; fill-opacity: 0.8; stroke: #cd5c5c; stroke-opacity: 0.8"/>
     <use xlink:href="#me92fd8abaa" x="46.757433" y="215.46" style="fill: #cd5c5c; fill-opacity: 0.8; stroke: #cd5c5c; stroke-opacity: 0.8"/>
     <use xlink:href="#me92fd8abaa" x="62.197866" y="110.827747" style="fill: #cd5c5c; fill-opacity: 0.8; stroke: #cd5c5c; stroke-opacity: 0.8"/>
     <use xlink:href="#me92fd8abaa" x="214.350239" y="68.86836" style="fill: #cd5c5c; fill-opacity: 0.8; stroke: #cd5c5c; stroke-opacity: 0.8"/>
     <use xlink:href="#me92fd8abaa" x="200.343094" y="69.759372" style="fill: #cd5c5c; fill-opacity: 0.8; stroke: #cd5c5c; stroke-opacity: 0.8"/>
     <use xlink:href="#me92fd8abaa" x="248.467058" y="74.87281" style="fill: #cd5c5c; fill-opacity: 0.8; stroke: #cd5c5c; stroke-opacity: 0.8"/>
     <use xlink:href="#me92fd8abaa" x="157.713875" y="97.551329" style="fill: #cd5c5c; fill-opacity: 0.8; stroke: #cd5c5c; stroke-opacity: 0.8"/>
     <use xlink:href="#me92fd8abaa" x="47.269977" y="211.824325" style="fill: #cd5c5c; fill-opacity: 0.8; stroke: #cd5c5c; stroke-opacity: 0.8"/>
     <use xlink:href="#me92fd8abaa" x="244.68025" y="78.61102" style="fill: #cd5c5c; fill-opacity: 0.8; stroke: #cd5c5c; stroke-opacity: 0.8"/>
     <use xlink:href="#me92fd8abaa" x="91.087918" y="101.744626" style="fill: #cd5c5c; fill-opacity: 0.8; stroke: #cd5c5c; stroke-opacity: 0.8"/>
     <use xlink:href="#me92fd8abaa" x="89.574057" y="75.339868" style="fill: #cd5c5c; fill-opacity: 0.8; stroke: #cd5c5c; stroke-opacity: 0.8"/>
     <use xlink:href="#me92fd8abaa" x="62.915467" y="117.0498" style="fill: #cd5c5c; fill-opacity: 0.8; stroke: #cd5c5c; stroke-opacity: 0.8"/>
     <use xlink:href="#me92fd8abaa" x="138.743364" y="122.743636" style="fill: #cd5c5c; fill-opacity: 0.8; stroke: #cd5c5c; stroke-opacity: 0.8"/>
     <use xlink:href="#me92fd8abaa" x="98.167407" y="110.40005" style="fill: #cd5c5c; fill-opacity: 0.8; stroke: #cd5c5c; stroke-opacity: 0.8"/>
     <use xlink:href="#me92fd8abaa" x="124.871152" y="207.428593" style="fill: #cd5c5c; fill-opacity: 0.8; stroke: #cd5c5c; stroke-opacity: 0.8"/>
     <use xlink:href="#me92fd8abaa" x="102.388832" y="126.416336" style="fill: #cd5c5c; fill-opacity: 0.8; stroke: #cd5c5c; stroke-opacity: 0.8"/>
     <use xlink:href="#me92fd8abaa" x="56.102837" y="176.624816" style="fill: #cd5c5c; fill-opacity: 0.8; stroke: #cd5c5c; stroke-opacity: 0.8"/>
     <use xlink:href="#me92fd8abaa" x="65.048754" y="206.278796" style="fill: #cd5c5c; fill-opacity: 0.8; stroke: #cd5c5c; stroke-opacity: 0.8"/>
     <use xlink:href="#me92fd8abaa" x="226.01428" y="76.536133" style="fill: #cd5c5c; fill-opacity: 0.8; stroke: #cd5c5c; stroke-opacity: 0.8"/>
     <use xlink:href="#me92fd8abaa" x="194.799448" y="105.539871" style="fill: #cd5c5c; fill-opacity: 0.8; stroke: #cd5c5c; stroke-opacity: 0.8"/>
     <use xlink:href="#me92fd8abaa" x="95.641262" y="144.936836" style="fill: #cd5c5c; fill-opacity: 0.8; stroke: #cd5c5c; stroke-opacity: 0.8"/>
     <use xlink:href="#me92fd8abaa" x="132.872021" y="76.796484" style="fill: #cd5c5c; fill-opacity: 0.8; stroke: #cd5c5c; stroke-opacity: 0.8"/>
     <use xlink:href="#me92fd8abaa" x="225.282827" y="66.256331" style="fill: #cd5c5c; fill-opacity: 0.8; stroke: #cd5c5c; stroke-opacity: 0.8"/>
     <use xlink:href="#me92fd8abaa" x="235.096318" y="71.464763" style="fill: #cd5c5c; fill-opacity: 0.8; stroke: #cd5c5c; stroke-opacity: 0.8"/>
     <use xlink:href="#me92fd8abaa" x="157.726254" y="86.612344" style="fill: #cd5c5c; fill-opacity: 0.8; stroke: #cd5c5c; stroke-opacity: 0.8"/>
     <use xlink:href="#me92fd8abaa" x="206.961883" y="69.918454" style="fill: #cd5c5c; fill-opacity: 0.8; stroke: #cd5c5c; stroke-opacity: 0.8"/>
     <use xlink:href="#me92fd8abaa" x="163.248736" y="96.183389" style="fill: #cd5c5c; fill-opacity: 0.8; stroke: #cd5c5c; stroke-opacity: 0.8"/>
     <use xlink:href="#me92fd8abaa" x="243.575987" y="110.400077" style="fill: #cd5c5c; fill-opacity: 0.8; stroke: #cd5c5c; stroke-opacity: 0.8"/>
     <use xlink:href="#me92fd8abaa" x="159.497685" y="146.931859" style="fill: #cd5c5c; fill-opacity: 0.8; stroke: #cd5c5c; stroke-opacity: 0.8"/>
     <use xlink:href="#me92fd8abaa" x="241.715106" y="110.399793" style="fill: #cd5c5c; fill-opacity: 0.8; stroke: #cd5c5c; stroke-opacity: 0.8"/>
     <use xlink:href="#me92fd8abaa" x="86.027311" y="174.820981" style="fill: #cd5c5c; fill-opacity: 0.8; stroke: #cd5c5c; stroke-opacity: 0.8"/>
     <use xlink:href="#me92fd8abaa" x="85.527064" y="126.846435" style="fill: #cd5c5c; fill-opacity: 0.8; stroke: #cd5c5c; stroke-opacity: 0.8"/>
     <use xlink:href="#me92fd8abaa" x="48.932415" y="200.179117" style="fill: #cd5c5c; fill-opacity: 0.8; stroke: #cd5c5c; stroke-opacity: 0.8"/>
     <use xlink:href="#me92fd8abaa" x="115.916066" y="98.788571" style="fill: #cd5c5c; fill-opacity: 0.8; stroke: #cd5c5c; stroke-opacity: 0.8"/>
     <use xlink:href="#me92fd8abaa" x="102.530244" y="161.713913" style="fill: #cd5c5c; fill-opacity: 0.8; stroke: #cd5c5c; stroke-opacity: 0.8"/>
     <use xlink:href="#me92fd8abaa" x="60.843885" y="111.13224" style="fill: #cd5c5c; fill-opacity: 0.8; stroke: #cd5c5c; stroke-opacity: 0.8"/>
     <use xlink:href="#me92fd8abaa" x="208.429663" y="85.683188" style="fill: #cd5c5c; fill-opacity: 0.8; stroke: #cd5c5c; stroke-opacity: 0.8"/>
     <use xlink:href="#me92fd8abaa" x="142.742004" y="129.103897" style="fill: #cd5c5c; fill-opacity: 0.8; stroke: #cd5c5c; stroke-opacity: 0.8"/>
     <use xlink:href="#me92fd8abaa" x="211.555583" y="71.843098" style="fill: #cd5c5c; fill-opacity: 0.8; stroke: #cd5c5c; stroke-opacity: 0.8"/>
     <use xlink:href="#me92fd8abaa" x="46.145455" y="210.739159" style="fill: #cd5c5c; fill-opacity: 0.8; stroke: #cd5c5c; stroke-opacity: 0.8"/>
     <use xlink:href="#me92fd8abaa" x="181.044058" y="124.695472" style="fill: #cd5c5c; fill-opacity: 0.8; stroke: #cd5c5c; stroke-opacity: 0.8"/>
     <use xlink:href="#me92fd8abaa" x="93.674386" y="77.731807" style="fill: #cd5c5c; fill-opacity: 0.8; stroke: #cd5c5c; stroke-opacity: 0.8"/>
     <use xlink:href="#me92fd8abaa" x="72.129547" y="113.779772" style="fill: #cd5c5c; fill-opacity: 0.8; stroke: #cd5c5c; stroke-opacity: 0.8"/>
     <use xlink:href="#me92fd8abaa" x="151.946124" y="146.464909" style="fill: #cd5c5c; fill-opacity: 0.8; stroke: #cd5c5c; stroke-opacity: 0.8"/>
     <use xlink:href="#me92fd8abaa" x="187.81567" y="96.875744" style="fill: #cd5c5c; fill-opacity: 0.8; stroke: #cd5c5c; stroke-opacity: 0.8"/>
     <use xlink:href="#me92fd8abaa" x="208.20671" y="56.000922" style="fill: #cd5c5c; fill-opacity: 0.8; stroke: #cd5c5c; stroke-opacity: 0.8"/>
     <use xlink:href="#me92fd8abaa" x="155.087582" y="122.929031" style="fill: #cd5c5c; fill-opacity: 0.8; stroke: #cd5c5c; stroke-opacity: 0.8"/>
     <use xlink:href="#me92fd8abaa" x="249.054545" y="92.023079" style="fill: #cd5c5c; fill-opacity: 0.8; stroke: #cd5c5c; stroke-opacity: 0.8"/>
     <use xlink:href="#me92fd8abaa" x="72.343244" y="106.175906" style="fill: #cd5c5c; fill-opacity: 0.8; stroke: #cd5c5c; stroke-opacity: 0.8"/>
     <use xlink:href="#me92fd8abaa" x="172.826668" y="42.06391" style="fill: #cd5c5c; fill-opacity: 0.8; stroke: #cd5c5c; stroke-opacity: 0.8"/>
     <use xlink:href="#me92fd8abaa" x="61.072595" y="102.659671" style="fill: #cd5c5c; fill-opacity: 0.8; stroke: #cd5c5c; stroke-opacity: 0.8"/>
    </g>
   </g>
   <g id="line2d_1">
    <path d="M 46.145455 156.811838 
L 48.195041 156.076015 
L 50.244628 155.340191 
L 52.294215 154.604368 
L 54.343802 153.868545 
L 56.393388 153.132722 
L 58.442975 152.396898 
L 60.492562 151.661075 
L 62.542149 150.925252 
L 64.591736 150.189428 
L 66.641322 149.453605 
L 68.690909 148.717782 
L 70.740496 147.981959 
L 72.790083 147.246135 
L 74.839669 146.510312 
L 76.889256 145.774489 
L 78.938843 145.038665 
L 80.98843 144.302842 
L 83.038017 143.567019 
L 85.087603 142.831196 
L 87.13719 142.095372 
L 89.186777 141.359549 
L 91.236364 140.623726 
L 93.28595 139.887902 
L 95.335537 139.152079 
L 97.385124 138.416256 
L 99.434711 137.680433 
L 101.484298 136.944609 
L 103.533884 136.208786 
L 105.583471 135.472963 
L 107.633058 134.737139 
L 109.682645 134.001316 
L 111.732231 133.265493 
L 113.781818 132.52967 
L 115.831405 131.793846 
L 117.880992 131.058023 
L 119.930579 130.3222 
L 121.980165 129.586376 
L 124.029752 128.850553 
L 126.079339 128.11473 
L 128.128926 127.378907 
L 130.178512 126.643083 
L 132.228099 125.90726 
L 134.277686 125.171437 
L 136.327273 124.435613 
L 138.37686 123.69979 
L 140.426446 122.963967 
L 142.476033 122.228144 
L 144.52562 121.49232 
L 146.575207 120.756497 
L 148.624793 120.020674 
L 150.67438 119.28485 
L 152.723967 118.549027 
L 154.773554 117.813204 
L 156.82314 117.077381 
L 158.872727 116.341557 
L 160.922314 115.605734 
L 162.971901 114.869911 
L 165.021488 114.134088 
L 167.071074 113.398264 
L 169.120661 112.662441 
L 171.170248 111.926618 
L 173.219835 111.190794 
L 175.269421 110.454971 
L 177.319008 109.719148 
L 179.368595 108.983325 
L 181.418182 108.247501 
L 183.467769 107.511678 
L 185.517355 106.775855 
L 187.566942 106.040031 
L 189.616529 105.304208 
L 191.666116 104.568385 
L 193.715702 103.832562 
L 195.765289 103.096738 
L 197.814876 102.360915 
L 199.864463 101.625092 
L 201.91405 100.889268 
L 203.963636 100.153445 
L 206.013223 99.417622 
L 208.06281 98.681799 
L 210.112397 97.945975 
L 212.161983 97.210152 
L 214.21157 96.474329 
L 216.261157 95.738505 
L 218.310744 95.002682 
L 220.360331 94.266859 
L 222.409917 93.531036 
L 224.459504 92.795212 
L 226.509091 92.059389 
L 228.558678 91.323566 
L 230.608264 90.587742 
L 232.657851 89.851919 
L 234.707438 89.116096 
L 236.757025 88.380273 
L 238.806612 87.644449 
L 240.856198 86.908626 
L 242.905785 86.172803 
L 244.955372 85.436979 
L 247.004959 84.701156 
L 249.054545 83.965333 
" clip-path="url(#pc07ad8cb93)" style="fill: none; stroke: #cd5c5c; stroke-opacity: 0.3; stroke-width: 2.25; stroke-linecap: square"/>
   </g>
   <g id="PolyCollection_1">
    <path d="M 46.145455 141.260714 
L 46.145455 171.744353 
L 48.195041 170.823175 
L 50.244628 169.900132 
L 52.294215 168.975406 
L 54.343802 168.05068 
L 56.393388 167.108842 
L 58.442975 166.144021 
L 60.492562 165.280314 
L 62.542149 164.293566 
L 64.591736 163.273957 
L 66.641322 162.254348 
L 68.690909 161.233757 
L 70.740496 160.236363 
L 72.790083 159.349669 
L 74.839669 158.462253 
L 76.889256 157.514315 
L 78.938843 156.505236 
L 80.98843 155.610712 
L 83.038017 154.676189 
L 85.087603 153.696179 
L 87.13719 152.79408 
L 89.186777 151.942184 
L 91.236364 151.090288 
L 93.28595 150.238392 
L 95.335537 149.308058 
L 97.385124 148.459758 
L 99.434711 147.579321 
L 101.484298 146.688444 
L 103.533884 145.797247 
L 105.583471 144.904213 
L 107.633058 144.011178 
L 109.682645 143.118144 
L 111.732231 142.213893 
L 113.781818 141.330782 
L 115.831405 140.419994 
L 117.880992 139.542914 
L 119.930579 138.658101 
L 121.980165 137.792513 
L 124.029752 136.995961 
L 126.079339 136.233502 
L 128.128926 135.469135 
L 130.178512 134.504972 
L 132.228099 133.63142 
L 134.277686 132.798104 
L 136.327273 131.946604 
L 138.37686 131.090544 
L 140.426446 130.213389 
L 142.476033 129.310885 
L 144.52562 128.532726 
L 146.575207 127.753734 
L 148.624793 126.853648 
L 150.67438 126.027676 
L 152.723967 125.248336 
L 154.773554 124.468996 
L 156.82314 123.64557 
L 158.872727 122.904243 
L 160.922314 122.135379 
L 162.971901 121.309889 
L 165.021488 120.459835 
L 167.071074 119.680404 
L 169.120661 118.973627 
L 171.170248 118.137218 
L 173.219835 117.3661 
L 175.269421 116.660317 
L 177.319008 115.911015 
L 179.368595 115.109713 
L 181.418182 114.379383 
L 183.467769 113.604772 
L 185.517355 112.851662 
L 187.566942 112.145493 
L 189.616529 111.442009 
L 191.666116 110.664512 
L 193.715702 109.949474 
L 195.765289 109.311881 
L 197.814876 108.676071 
L 199.864463 107.989873 
L 201.91405 107.402204 
L 203.963636 106.76892 
L 206.013223 106.201801 
L 208.06281 105.540901 
L 210.112397 104.863782 
L 212.161983 104.218017 
L 214.21157 103.580531 
L 216.261157 102.945288 
L 218.310744 102.323183 
L 220.360331 101.719118 
L 222.409917 101.241419 
L 224.459504 100.708089 
L 226.509091 100.058043 
L 228.558678 99.434004 
L 230.608264 98.920786 
L 232.657851 98.244215 
L 234.707438 97.655617 
L 236.757025 97.000016 
L 238.806612 96.352582 
L 240.856198 95.739961 
L 242.905785 95.087785 
L 244.955372 94.386315 
L 247.004959 93.8031 
L 249.054545 93.204613 
L 249.054545 73.662314 
L 249.054545 73.662314 
L 247.004959 74.521634 
L 244.955372 75.328975 
L 242.905785 76.136316 
L 240.856198 76.943657 
L 238.806612 77.763905 
L 236.757025 78.765169 
L 234.707438 79.658131 
L 232.657851 80.503416 
L 230.608264 81.429351 
L 228.558678 82.356742 
L 226.509091 83.263202 
L 224.459504 84.162011 
L 222.409917 85.111397 
L 220.360331 86.060783 
L 218.310744 86.992288 
L 216.261157 87.893629 
L 214.21157 88.776016 
L 212.161983 89.672411 
L 210.112397 90.560791 
L 208.06281 91.34672 
L 206.013223 92.199414 
L 203.963636 93.040139 
L 201.91405 93.916756 
L 199.864463 94.779066 
L 197.814876 95.605123 
L 195.765289 96.493963 
L 193.715702 97.343861 
L 191.666116 98.069 
L 189.616529 98.781413 
L 187.566942 99.547695 
L 185.517355 100.387992 
L 183.467769 101.23065 
L 181.418182 101.988842 
L 179.368595 102.777509 
L 177.319008 103.543992 
L 175.269421 104.268342 
L 173.219835 104.961004 
L 171.170248 105.626475 
L 169.120661 106.224509 
L 167.071074 106.83857 
L 165.021488 107.65029 
L 162.971901 108.302988 
L 160.922314 108.958195 
L 158.872727 109.613588 
L 156.82314 110.218528 
L 154.773554 110.885903 
L 152.723967 111.563538 
L 150.67438 112.057883 
L 148.624793 112.615555 
L 146.575207 113.358131 
L 144.52562 113.973241 
L 142.476033 114.522162 
L 140.426446 115.141657 
L 138.37686 115.733174 
L 136.327273 116.327419 
L 134.277686 116.920317 
L 132.228099 117.510454 
L 130.178512 118.100591 
L 128.128926 118.504611 
L 126.079339 119.182233 
L 124.029752 119.875037 
L 121.980165 120.467866 
L 119.930579 121.060695 
L 117.880992 121.659442 
L 115.831405 122.431244 
L 113.781818 122.994212 
L 111.732231 123.55718 
L 109.682645 124.120148 
L 107.633058 124.683116 
L 105.583471 125.246461 
L 103.533884 125.897018 
L 101.484298 126.502644 
L 99.434711 127.169343 
L 97.385124 127.782328 
L 95.335537 128.263619 
L 93.28595 128.771131 
L 91.236364 129.36081 
L 89.186777 129.95313 
L 87.13719 130.516164 
L 85.087603 131.02008 
L 83.038017 131.617507 
L 80.98843 132.177054 
L 78.938843 132.711471 
L 76.889256 133.246626 
L 74.839669 133.781781 
L 72.790083 134.316936 
L 70.740496 134.852091 
L 68.690909 135.387246 
L 66.641322 135.928663 
L 64.591736 136.49018 
L 62.542149 137.051696 
L 60.492562 137.611411 
L 58.442975 138.099431 
L 56.393388 138.594361 
L 54.343802 139.127632 
L 52.294215 139.660902 
L 50.244628 140.194173 
L 48.195041 140.727443 
L 46.145455 141.260714 
z
" clip-path="url(#pc07ad8cb93)" style="fill: #cd5c5c; fill-opacity: 0.15"/>
   </g>
   <g id="matplotlib.axis_1">
    <g id="xtick_1">
     <g id="line2d_2">
      <defs>
       <path id="md388c75dab" d="M 0 0 
L 0 3.5 
" style="stroke: #000000"/>
      </defs>
      <g>
       <use xlink:href="#md388c75dab" x="79.963719" y="224.28" style="stroke: #000000"/>
      </g>
     </g>
     <g id="text_1">
      <!-- 0.2 -->
      <g transform="translate(73.013719 238.437813) scale(0.1 -0.1)">
       <defs>
        <path id="ArialMT-30" d="M 266 2259 
Q 266 3072 433 3567 
Q 600 4063 929 4331 
Q 1259 4600 1759 4600 
Q 2128 4600 2406 4451 
Q 2684 4303 2865 4023 
Q 3047 3744 3150 3342 
Q 3253 2941 3253 2259 
Q 3253 1453 3087 958 
Q 2922 463 2592 192 
Q 2263 -78 1759 -78 
Q 1097 -78 719 397 
Q 266 969 266 2259 
z
M 844 2259 
Q 844 1131 1108 757 
Q 1372 384 1759 384 
Q 2147 384 2411 759 
Q 2675 1134 2675 2259 
Q 2675 3391 2411 3762 
Q 2147 4134 1753 4134 
Q 1366 4134 1134 3806 
Q 844 3388 844 2259 
z
" transform="scale(0.015625)"/>
        <path id="ArialMT-2e" d="M 581 0 
L 581 641 
L 1222 641 
L 1222 0 
L 581 0 
z
" transform="scale(0.015625)"/>
        <path id="ArialMT-32" d="M 3222 541 
L 3222 0 
L 194 0 
Q 188 203 259 391 
Q 375 700 629 1000 
Q 884 1300 1366 1694 
Q 2113 2306 2375 2664 
Q 2638 3022 2638 3341 
Q 2638 3675 2398 3904 
Q 2159 4134 1775 4134 
Q 1369 4134 1125 3890 
Q 881 3647 878 3216 
L 300 3275 
Q 359 3922 746 4261 
Q 1134 4600 1788 4600 
Q 2447 4600 2831 4234 
Q 3216 3869 3216 3328 
Q 3216 3053 3103 2787 
Q 2991 2522 2730 2228 
Q 2469 1934 1863 1422 
Q 1356 997 1212 845 
Q 1069 694 975 541 
L 3222 541 
z
" transform="scale(0.015625)"/>
       </defs>
       <use xlink:href="#ArialMT-30"/>
       <use xlink:href="#ArialMT-2e" x="55.615234"/>
       <use xlink:href="#ArialMT-32" x="83.398438"/>
      </g>
     </g>
    </g>
    <g id="xtick_2">
     <g id="line2d_3">
      <g>
       <use xlink:href="#md388c75dab" x="124.964293" y="224.28" style="stroke: #000000"/>
      </g>
     </g>
     <g id="text_2">
      <!-- 0.4 -->
      <g transform="translate(118.014293 238.437813) scale(0.1 -0.1)">
       <defs>
        <path id="ArialMT-34" d="M 2069 0 
L 2069 1097 
L 81 1097 
L 81 1613 
L 2172 4581 
L 2631 4581 
L 2631 1613 
L 3250 1613 
L 3250 1097 
L 2631 1097 
L 2631 0 
L 2069 0 
z
M 2069 1613 
L 2069 3678 
L 634 1613 
L 2069 1613 
z
" transform="scale(0.015625)"/>
       </defs>
       <use xlink:href="#ArialMT-30"/>
       <use xlink:href="#ArialMT-2e" x="55.615234"/>
       <use xlink:href="#ArialMT-34" x="83.398438"/>
      </g>
     </g>
    </g>
    <g id="xtick_3">
     <g id="line2d_4">
      <g>
       <use xlink:href="#md388c75dab" x="169.964867" y="224.28" style="stroke: #000000"/>
      </g>
     </g>
     <g id="text_3">
      <!-- 0.6 -->
      <g transform="translate(163.014867 238.437813) scale(0.1 -0.1)">
       <defs>
        <path id="ArialMT-36" d="M 3184 3459 
L 2625 3416 
Q 2550 3747 2413 3897 
Q 2184 4138 1850 4138 
Q 1581 4138 1378 3988 
Q 1113 3794 959 3422 
Q 806 3050 800 2363 
Q 1003 2672 1297 2822 
Q 1591 2972 1913 2972 
Q 2475 2972 2870 2558 
Q 3266 2144 3266 1488 
Q 3266 1056 3080 686 
Q 2894 316 2569 119 
Q 2244 -78 1831 -78 
Q 1128 -78 684 439 
Q 241 956 241 2144 
Q 241 3472 731 4075 
Q 1159 4600 1884 4600 
Q 2425 4600 2770 4297 
Q 3116 3994 3184 3459 
z
M 888 1484 
Q 888 1194 1011 928 
Q 1134 663 1356 523 
Q 1578 384 1822 384 
Q 2178 384 2434 671 
Q 2691 959 2691 1453 
Q 2691 1928 2437 2201 
Q 2184 2475 1800 2475 
Q 1419 2475 1153 2201 
Q 888 1928 888 1484 
z
" transform="scale(0.015625)"/>
       </defs>
       <use xlink:href="#ArialMT-30"/>
       <use xlink:href="#ArialMT-2e" x="55.615234"/>
       <use xlink:href="#ArialMT-36" x="83.398438"/>
      </g>
     </g>
    </g>
    <g id="xtick_4">
     <g id="line2d_5">
      <g>
       <use xlink:href="#md388c75dab" x="214.965442" y="224.28" style="stroke: #000000"/>
      </g>
     </g>
     <g id="text_4">
      <!-- 0.8 -->
      <g transform="translate(208.015442 238.437813) scale(0.1 -0.1)">
       <defs>
        <path id="ArialMT-38" d="M 1131 2484 
Q 781 2613 612 2850 
Q 444 3088 444 3419 
Q 444 3919 803 4259 
Q 1163 4600 1759 4600 
Q 2359 4600 2725 4251 
Q 3091 3903 3091 3403 
Q 3091 3084 2923 2848 
Q 2756 2613 2416 2484 
Q 2838 2347 3058 2040 
Q 3278 1734 3278 1309 
Q 3278 722 2862 322 
Q 2447 -78 1769 -78 
Q 1091 -78 675 323 
Q 259 725 259 1325 
Q 259 1772 486 2073 
Q 713 2375 1131 2484 
z
M 1019 3438 
Q 1019 3113 1228 2906 
Q 1438 2700 1772 2700 
Q 2097 2700 2305 2904 
Q 2513 3109 2513 3406 
Q 2513 3716 2298 3927 
Q 2084 4138 1766 4138 
Q 1444 4138 1231 3931 
Q 1019 3725 1019 3438 
z
M 838 1322 
Q 838 1081 952 856 
Q 1066 631 1291 507 
Q 1516 384 1775 384 
Q 2178 384 2440 643 
Q 2703 903 2703 1303 
Q 2703 1709 2433 1975 
Q 2163 2241 1756 2241 
Q 1359 2241 1098 1978 
Q 838 1716 838 1322 
z
" transform="scale(0.015625)"/>
       </defs>
       <use xlink:href="#ArialMT-30"/>
       <use xlink:href="#ArialMT-2e" x="55.615234"/>
       <use xlink:href="#ArialMT-38" x="83.398438"/>
      </g>
     </g>
    </g>
    <g id="text_5">
     <!-- real alpha2 -->
     <g transform="translate(122.860937 251.612813) scale(0.1 -0.1)">
      <defs>
       <path id="ArialMT-72" d="M 416 0 
L 416 3319 
L 922 3319 
L 922 2816 
Q 1116 3169 1280 3281 
Q 1444 3394 1641 3394 
Q 1925 3394 2219 3213 
L 2025 2691 
Q 1819 2813 1613 2813 
Q 1428 2813 1281 2702 
Q 1134 2591 1072 2394 
Q 978 2094 978 1738 
L 978 0 
L 416 0 
z
" transform="scale(0.015625)"/>
       <path id="ArialMT-65" d="M 2694 1069 
L 3275 997 
Q 3138 488 2766 206 
Q 2394 -75 1816 -75 
Q 1088 -75 661 373 
Q 234 822 234 1631 
Q 234 2469 665 2931 
Q 1097 3394 1784 3394 
Q 2450 3394 2872 2941 
Q 3294 2488 3294 1666 
Q 3294 1616 3291 1516 
L 816 1516 
Q 847 969 1125 678 
Q 1403 388 1819 388 
Q 2128 388 2347 550 
Q 2566 713 2694 1069 
z
M 847 1978 
L 2700 1978 
Q 2663 2397 2488 2606 
Q 2219 2931 1791 2931 
Q 1403 2931 1139 2672 
Q 875 2413 847 1978 
z
" transform="scale(0.015625)"/>
       <path id="ArialMT-61" d="M 2588 409 
Q 2275 144 1986 34 
Q 1697 -75 1366 -75 
Q 819 -75 525 192 
Q 231 459 231 875 
Q 231 1119 342 1320 
Q 453 1522 633 1644 
Q 813 1766 1038 1828 
Q 1203 1872 1538 1913 
Q 2219 1994 2541 2106 
Q 2544 2222 2544 2253 
Q 2544 2597 2384 2738 
Q 2169 2928 1744 2928 
Q 1347 2928 1158 2789 
Q 969 2650 878 2297 
L 328 2372 
Q 403 2725 575 2942 
Q 747 3159 1072 3276 
Q 1397 3394 1825 3394 
Q 2250 3394 2515 3294 
Q 2781 3194 2906 3042 
Q 3031 2891 3081 2659 
Q 3109 2516 3109 2141 
L 3109 1391 
Q 3109 606 3145 398 
Q 3181 191 3288 0 
L 2700 0 
Q 2613 175 2588 409 
z
M 2541 1666 
Q 2234 1541 1622 1453 
Q 1275 1403 1131 1340 
Q 988 1278 909 1158 
Q 831 1038 831 891 
Q 831 666 1001 516 
Q 1172 366 1500 366 
Q 1825 366 2078 508 
Q 2331 650 2450 897 
Q 2541 1088 2541 1459 
L 2541 1666 
z
" transform="scale(0.015625)"/>
       <path id="ArialMT-6c" d="M 409 0 
L 409 4581 
L 972 4581 
L 972 0 
L 409 0 
z
" transform="scale(0.015625)"/>
       <path id="ArialMT-20" transform="scale(0.015625)"/>
       <path id="ArialMT-70" d="M 422 -1272 
L 422 3319 
L 934 3319 
L 934 2888 
Q 1116 3141 1344 3267 
Q 1572 3394 1897 3394 
Q 2322 3394 2647 3175 
Q 2972 2956 3137 2557 
Q 3303 2159 3303 1684 
Q 3303 1175 3120 767 
Q 2938 359 2589 142 
Q 2241 -75 1856 -75 
Q 1575 -75 1351 44 
Q 1128 163 984 344 
L 984 -1272 
L 422 -1272 
z
M 931 1641 
Q 931 1000 1190 694 
Q 1450 388 1819 388 
Q 2194 388 2461 705 
Q 2728 1022 2728 1688 
Q 2728 2322 2467 2637 
Q 2206 2953 1844 2953 
Q 1484 2953 1207 2617 
Q 931 2281 931 1641 
z
" transform="scale(0.015625)"/>
       <path id="ArialMT-68" d="M 422 0 
L 422 4581 
L 984 4581 
L 984 2938 
Q 1378 3394 1978 3394 
Q 2347 3394 2619 3248 
Q 2891 3103 3008 2847 
Q 3125 2591 3125 2103 
L 3125 0 
L 2563 0 
L 2563 2103 
Q 2563 2525 2380 2717 
Q 2197 2909 1863 2909 
Q 1613 2909 1392 2779 
Q 1172 2650 1078 2428 
Q 984 2206 984 1816 
L 984 0 
L 422 0 
z
" transform="scale(0.015625)"/>
      </defs>
      <use xlink:href="#ArialMT-72"/>
      <use xlink:href="#ArialMT-65" x="33.300781"/>
      <use xlink:href="#ArialMT-61" x="88.916016"/>
      <use xlink:href="#ArialMT-6c" x="144.53125"/>
      <use xlink:href="#ArialMT-20" x="166.748047"/>
      <use xlink:href="#ArialMT-61" x="194.53125"/>
      <use xlink:href="#ArialMT-6c" x="250.146484"/>
      <use xlink:href="#ArialMT-70" x="272.363281"/>
      <use xlink:href="#ArialMT-68" x="327.978516"/>
      <use xlink:href="#ArialMT-61" x="383.59375"/>
      <use xlink:href="#ArialMT-32" x="439.208984"/>
     </g>
    </g>
   </g>
   <g id="matplotlib.axis_2">
    <g id="ytick_1">
     <g id="line2d_6">
      <defs>
       <path id="m9d94c1beb9" d="M 0 0 
L -3.5 0 
" style="stroke: #000000"/>
      </defs>
      <g>
       <use xlink:href="#m9d94c1beb9" x="36" y="222.712785" style="stroke: #000000"/>
      </g>
     </g>
     <g id="text_6">
      <!-- 0.0 -->
      <g transform="translate(15.1 226.291692) scale(0.1 -0.1)">
       <use xlink:href="#ArialMT-30"/>
       <use xlink:href="#ArialMT-2e" x="55.615234"/>
       <use xlink:href="#ArialMT-30" x="83.398438"/>
      </g>
     </g>
    </g>
    <g id="ytick_2">
     <g id="line2d_7">
      <g>
       <use xlink:href="#m9d94c1beb9" x="36" y="200.250155" style="stroke: #000000"/>
      </g>
     </g>
     <g id="text_7">
      <!-- 0.1 -->
      <g transform="translate(15.1 203.829061) scale(0.1 -0.1)">
       <defs>
        <path id="ArialMT-31" d="M 2384 0 
L 1822 0 
L 1822 3584 
Q 1619 3391 1289 3197 
Q 959 3003 697 2906 
L 697 3450 
Q 1169 3672 1522 3987 
Q 1875 4303 2022 4600 
L 2384 4600 
L 2384 0 
z
" transform="scale(0.015625)"/>
       </defs>
       <use xlink:href="#ArialMT-30"/>
       <use xlink:href="#ArialMT-2e" x="55.615234"/>
       <use xlink:href="#ArialMT-31" x="83.398438"/>
      </g>
     </g>
    </g>
    <g id="ytick_3">
     <g id="line2d_8">
      <g>
       <use xlink:href="#m9d94c1beb9" x="36" y="177.787524" style="stroke: #000000"/>
      </g>
     </g>
     <g id="text_8">
      <!-- 0.2 -->
      <g transform="translate(15.1 181.36643) scale(0.1 -0.1)">
       <use xlink:href="#ArialMT-30"/>
       <use xlink:href="#ArialMT-2e" x="55.615234"/>
       <use xlink:href="#ArialMT-32" x="83.398438"/>
      </g>
     </g>
    </g>
    <g id="ytick_4">
     <g id="line2d_9">
      <g>
       <use xlink:href="#m9d94c1beb9" x="36" y="155.324893" style="stroke: #000000"/>
      </g>
     </g>
     <g id="text_9">
      <!-- 0.3 -->
      <g transform="translate(15.1 158.9038) scale(0.1 -0.1)">
       <defs>
        <path id="ArialMT-33" d="M 269 1209 
L 831 1284 
Q 928 806 1161 595 
Q 1394 384 1728 384 
Q 2125 384 2398 659 
Q 2672 934 2672 1341 
Q 2672 1728 2419 1979 
Q 2166 2231 1775 2231 
Q 1616 2231 1378 2169 
L 1441 2663 
Q 1497 2656 1531 2656 
Q 1891 2656 2178 2843 
Q 2466 3031 2466 3422 
Q 2466 3731 2256 3934 
Q 2047 4138 1716 4138 
Q 1388 4138 1169 3931 
Q 950 3725 888 3313 
L 325 3413 
Q 428 3978 793 4289 
Q 1159 4600 1703 4600 
Q 2078 4600 2393 4439 
Q 2709 4278 2876 4000 
Q 3044 3722 3044 3409 
Q 3044 3113 2884 2869 
Q 2725 2625 2413 2481 
Q 2819 2388 3044 2092 
Q 3269 1797 3269 1353 
Q 3269 753 2831 336 
Q 2394 -81 1725 -81 
Q 1122 -81 723 278 
Q 325 638 269 1209 
z
" transform="scale(0.015625)"/>
       </defs>
       <use xlink:href="#ArialMT-30"/>
       <use xlink:href="#ArialMT-2e" x="55.615234"/>
       <use xlink:href="#ArialMT-33" x="83.398438"/>
      </g>
     </g>
    </g>
    <g id="ytick_5">
     <g id="line2d_10">
      <g>
       <use xlink:href="#m9d94c1beb9" x="36" y="132.862263" style="stroke: #000000"/>
      </g>
     </g>
     <g id="text_10">
      <!-- 0.4 -->
      <g transform="translate(15.1 136.441169) scale(0.1 -0.1)">
       <use xlink:href="#ArialMT-30"/>
       <use xlink:href="#ArialMT-2e" x="55.615234"/>
       <use xlink:href="#ArialMT-34" x="83.398438"/>
      </g>
     </g>
    </g>
    <g id="ytick_6">
     <g id="line2d_11">
      <g>
       <use xlink:href="#m9d94c1beb9" x="36" y="110.399632" style="stroke: #000000"/>
      </g>
     </g>
     <g id="text_11">
      <!-- 0.5 -->
      <g transform="translate(15.1 113.978538) scale(0.1 -0.1)">
       <defs>
        <path id="ArialMT-35" d="M 266 1200 
L 856 1250 
Q 922 819 1161 601 
Q 1400 384 1738 384 
Q 2144 384 2425 690 
Q 2706 997 2706 1503 
Q 2706 1984 2436 2262 
Q 2166 2541 1728 2541 
Q 1456 2541 1237 2417 
Q 1019 2294 894 2097 
L 366 2166 
L 809 4519 
L 3088 4519 
L 3088 3981 
L 1259 3981 
L 1013 2750 
Q 1425 3038 1878 3038 
Q 2478 3038 2890 2622 
Q 3303 2206 3303 1553 
Q 3303 931 2941 478 
Q 2500 -78 1738 -78 
Q 1113 -78 717 272 
Q 322 622 266 1200 
z
" transform="scale(0.015625)"/>
       </defs>
       <use xlink:href="#ArialMT-30"/>
       <use xlink:href="#ArialMT-2e" x="55.615234"/>
       <use xlink:href="#ArialMT-35" x="83.398438"/>
      </g>
     </g>
    </g>
    <g id="ytick_7">
     <g id="line2d_12">
      <g>
       <use xlink:href="#m9d94c1beb9" x="36" y="87.937001" style="stroke: #000000"/>
      </g>
     </g>
     <g id="text_12">
      <!-- 0.6 -->
      <g transform="translate(15.1 91.515907) scale(0.1 -0.1)">
       <use xlink:href="#ArialMT-30"/>
       <use xlink:href="#ArialMT-2e" x="55.615234"/>
       <use xlink:href="#ArialMT-36" x="83.398438"/>
      </g>
     </g>
    </g>
    <g id="ytick_8">
     <g id="line2d_13">
      <g>
       <use xlink:href="#m9d94c1beb9" x="36" y="65.47437" style="stroke: #000000"/>
      </g>
     </g>
     <g id="text_13">
      <!-- 0.7 -->
      <g transform="translate(15.1 69.053277) scale(0.1 -0.1)">
       <defs>
        <path id="ArialMT-37" d="M 303 3981 
L 303 4522 
L 3269 4522 
L 3269 4084 
Q 2831 3619 2401 2847 
Q 1972 2075 1738 1259 
Q 1569 684 1522 0 
L 944 0 
Q 953 541 1156 1306 
Q 1359 2072 1739 2783 
Q 2119 3494 2547 3981 
L 303 3981 
z
" transform="scale(0.015625)"/>
       </defs>
       <use xlink:href="#ArialMT-30"/>
       <use xlink:href="#ArialMT-2e" x="55.615234"/>
       <use xlink:href="#ArialMT-37" x="83.398438"/>
      </g>
     </g>
    </g>
    <g id="ytick_9">
     <g id="line2d_14">
      <g>
       <use xlink:href="#m9d94c1beb9" x="36" y="43.01174" style="stroke: #000000"/>
      </g>
     </g>
     <g id="text_14">
      <!-- 0.8 -->
      <g transform="translate(15.1 46.590646) scale(0.1 -0.1)">
       <use xlink:href="#ArialMT-30"/>
       <use xlink:href="#ArialMT-2e" x="55.615234"/>
       <use xlink:href="#ArialMT-38" x="83.398438"/>
      </g>
     </g>
    </g>
    <g id="text_15">
     <!-- recovered alpha2 -->
     <g transform="translate(9.1125 165.894375) rotate(-90) scale(0.1 -0.1)">
      <defs>
       <path id="ArialMT-63" d="M 2588 1216 
L 3141 1144 
Q 3050 572 2676 248 
Q 2303 -75 1759 -75 
Q 1078 -75 664 370 
Q 250 816 250 1647 
Q 250 2184 428 2587 
Q 606 2991 970 3192 
Q 1334 3394 1763 3394 
Q 2303 3394 2647 3120 
Q 2991 2847 3088 2344 
L 2541 2259 
Q 2463 2594 2264 2762 
Q 2066 2931 1784 2931 
Q 1359 2931 1093 2626 
Q 828 2322 828 1663 
Q 828 994 1084 691 
Q 1341 388 1753 388 
Q 2084 388 2306 591 
Q 2528 794 2588 1216 
z
" transform="scale(0.015625)"/>
       <path id="ArialMT-6f" d="M 213 1659 
Q 213 2581 725 3025 
Q 1153 3394 1769 3394 
Q 2453 3394 2887 2945 
Q 3322 2497 3322 1706 
Q 3322 1066 3130 698 
Q 2938 331 2570 128 
Q 2203 -75 1769 -75 
Q 1072 -75 642 372 
Q 213 819 213 1659 
z
M 791 1659 
Q 791 1022 1069 705 
Q 1347 388 1769 388 
Q 2188 388 2466 706 
Q 2744 1025 2744 1678 
Q 2744 2294 2464 2611 
Q 2184 2928 1769 2928 
Q 1347 2928 1069 2612 
Q 791 2297 791 1659 
z
" transform="scale(0.015625)"/>
       <path id="ArialMT-76" d="M 1344 0 
L 81 3319 
L 675 3319 
L 1388 1331 
Q 1503 1009 1600 663 
Q 1675 925 1809 1294 
L 2547 3319 
L 3125 3319 
L 1869 0 
L 1344 0 
z
" transform="scale(0.015625)"/>
       <path id="ArialMT-64" d="M 2575 0 
L 2575 419 
Q 2259 -75 1647 -75 
Q 1250 -75 917 144 
Q 584 363 401 755 
Q 219 1147 219 1656 
Q 219 2153 384 2558 
Q 550 2963 881 3178 
Q 1213 3394 1622 3394 
Q 1922 3394 2156 3267 
Q 2391 3141 2538 2938 
L 2538 4581 
L 3097 4581 
L 3097 0 
L 2575 0 
z
M 797 1656 
Q 797 1019 1065 703 
Q 1334 388 1700 388 
Q 2069 388 2326 689 
Q 2584 991 2584 1609 
Q 2584 2291 2321 2609 
Q 2059 2928 1675 2928 
Q 1300 2928 1048 2622 
Q 797 2316 797 1656 
z
" transform="scale(0.015625)"/>
      </defs>
      <use xlink:href="#ArialMT-72"/>
      <use xlink:href="#ArialMT-65" x="33.300781"/>
      <use xlink:href="#ArialMT-63" x="88.916016"/>
      <use xlink:href="#ArialMT-6f" x="138.916016"/>
      <use xlink:href="#ArialMT-76" x="194.53125"/>
      <use xlink:href="#ArialMT-65" x="244.53125"/>
      <use xlink:href="#ArialMT-72" x="300.146484"/>
      <use xlink:href="#ArialMT-65" x="333.447266"/>
      <use xlink:href="#ArialMT-64" x="389.0625"/>
      <use xlink:href="#ArialMT-20" x="444.677734"/>
      <use xlink:href="#ArialMT-61" x="472.460938"/>
      <use xlink:href="#ArialMT-6c" x="528.076172"/>
      <use xlink:href="#ArialMT-70" x="550.292969"/>
      <use xlink:href="#ArialMT-68" x="605.908203"/>
      <use xlink:href="#ArialMT-61" x="661.523438"/>
      <use xlink:href="#ArialMT-32" x="717.138672"/>
     </g>
    </g>
   </g>
   <g id="patch_3">
    <path d="M 36 224.28 
L 36 30.24 
" style="fill: none; stroke: #000000; stroke-linejoin: miter; stroke-linecap: square"/>
   </g>
   <g id="patch_4">
    <path d="M 36 224.28 
L 259.2 224.28 
" style="fill: none; stroke: #000000; stroke-linejoin: miter; stroke-linecap: square"/>
   </g>
  </g>
 </g>
 <defs>
  <clipPath id="pc07ad8cb93">
   <rect x="36" y="30.24" width="223.2" height="194.04"/>
  </clipPath>
 </defs>
</svg>
