<?xml version="1.0" encoding="utf-8" standalone="no"?>
<!DOCTYPE svg PUBLIC "-//W3C//DTD SVG 1.1//EN"
  "http://www.w3.org/Graphics/SVG/1.1/DTD/svg11.dtd">
<svg xmlns:xlink="http://www.w3.org/1999/xlink" width="288pt" height="252pt" viewBox="0 0 288 252" xmlns="http://www.w3.org/2000/svg" version="1.1">
 <metadata>
  <rdf:RDF xmlns:dc="http://purl.org/dc/elements/1.1/" xmlns:cc="http://creativecommons.org/ns#" xmlns:rdf="http://www.w3.org/1999/02/22-rdf-syntax-ns#">
   <cc:Work>
    <dc:type rdf:resource="http://purl.org/dc/dcmitype/StillImage"/>
    <dc:date>2025-04-11T16:11:11.750097</dc:date>
    <dc:format>image/svg+xml</dc:format>
    <dc:creator>
     <cc:Agent>
      <dc:title>Matplotlib v3.7.1, https://matplotlib.org/</dc:title>
     </cc:Agent>
    </dc:creator>
   </cc:Work>
  </rdf:RDF>
 </metadata>
 <defs>
  <style type="text/css">*{stroke-linejoin: round; stroke-linecap: butt}</style>
 </defs>
 <g id="figure_1">
  <g id="patch_1">
   <path d="M 0 252 
L 288 252 
L 288 0 
L 0 0 
L 0 252 
z
" style="fill: none"/>
  </g>
  <g id="axes_1">
   <g id="patch_2">
    <path d="M 36 224.28 
L 259.2 224.28 
L 259.2 30.24 
L 36 30.24 
L 36 224.28 
z
" style="fill: none"/>
   </g>
   <g id="PathCollection_1">
    <defs>
     <path id="m2aeb0c3bf8" d="M 0 3 
C 0.795609 3 1.55874 2.683901 2.12132 2.12132 
C 2.683901 1.55874 3 0.795609 3 0 
C 3 -0.795609 2.683901 -1.55874 2.12132 -2.12132 
C 1.55874 -2.683901 0.795609 -3 0 -3 
C -0.795609 -3 -1.55874 -2.683901 -2.12132 -2.12132 
C -2.683901 -1.55874 -3 -0.795609 -3 0 
C -3 0.795609 -2.683901 1.55874 -2.12132 2.12132 
C -1.55874 2.683901 -0.795609 3 0 3 
z
" style="stroke: #cd5c5c; stroke-opacity: 0.8"/>
    </defs>
    <g clip-path="url(#pf7941403ad)">
     <use xlink:href="#m2aeb0c3bf8" x="54.253063" y="205.477156" style="fill: #cd5c5c; fill-opacity: 0.8; stroke: #cd5c5c; stroke-opacity: 0.8"/>
     <use xlink:href="#m2aeb0c3bf8" x="93.624137" y="149.098012" style="fill: #cd5c5c; fill-opacity: 0.8; stroke: #cd5c5c; stroke-opacity: 0.8"/>
     <use xlink:href="#m2aeb0c3bf8" x="46.148016" y="215.46" style="fill: #cd5c5c; fill-opacity: 0.8; stroke: #cd5c5c; stroke-opacity: 0.8"/>
     <use xlink:href="#m2aeb0c3bf8" x="242.899743" y="61.700237" style="fill: #cd5c5c; fill-opacity: 0.8; stroke: #cd5c5c; stroke-opacity: 0.8"/>
     <use xlink:href="#m2aeb0c3bf8" x="55.652227" y="204.311086" style="fill: #cd5c5c; fill-opacity: 0.8; stroke: #cd5c5c; stroke-opacity: 0.8"/>
     <use xlink:href="#m2aeb0c3bf8" x="66.850477" y="159.769292" style="fill: #cd5c5c; fill-opacity: 0.8; stroke: #cd5c5c; stroke-opacity: 0.8"/>
     <use xlink:href="#m2aeb0c3bf8" x="166.59995" y="71.238021" style="fill: #cd5c5c; fill-opacity: 0.8; stroke: #cd5c5c; stroke-opacity: 0.8"/>
     <use xlink:href="#m2aeb0c3bf8" x="98.739086" y="169.819342" style="fill: #cd5c5c; fill-opacity: 0.8; stroke: #cd5c5c; stroke-opacity: 0.8"/>
     <use xlink:href="#m2aeb0c3bf8" x="228.982946" y="103.42177" style="fill: #cd5c5c; fill-opacity: 0.8; stroke: #cd5c5c; stroke-opacity: 0.8"/>
     <use xlink:href="#m2aeb0c3bf8" x="241.857603" y="103.11922" style="fill: #cd5c5c; fill-opacity: 0.8; stroke: #cd5c5c; stroke-opacity: 0.8"/>
     <use xlink:href="#m2aeb0c3bf8" x="125.130566" y="144.066751" style="fill: #cd5c5c; fill-opacity: 0.8; stroke: #cd5c5c; stroke-opacity: 0.8"/>
     <use xlink:href="#m2aeb0c3bf8" x="177.680994" y="117.400928" style="fill: #cd5c5c; fill-opacity: 0.8; stroke: #cd5c5c; stroke-opacity: 0.8"/>
     <use xlink:href="#m2aeb0c3bf8" x="62.216421" y="192.916867" style="fill: #cd5c5c; fill-opacity: 0.8; stroke: #cd5c5c; stroke-opacity: 0.8"/>
     <use xlink:href="#m2aeb0c3bf8" x="47.568807" y="214.697949" style="fill: #cd5c5c; fill-opacity: 0.8; stroke: #cd5c5c; stroke-opacity: 0.8"/>
     <use xlink:href="#m2aeb0c3bf8" x="65.641211" y="105.374394" style="fill: #cd5c5c; fill-opacity: 0.8; stroke: #cd5c5c; stroke-opacity: 0.8"/>
     <use xlink:href="#m2aeb0c3bf8" x="236.224931" y="103.065345" style="fill: #cd5c5c; fill-opacity: 0.8; stroke: #cd5c5c; stroke-opacity: 0.8"/>
     <use xlink:href="#m2aeb0c3bf8" x="106.971611" y="182.42799" style="fill: #cd5c5c; fill-opacity: 0.8; stroke: #cd5c5c; stroke-opacity: 0.8"/>
     <use xlink:href="#m2aeb0c3bf8" x="53.386805" y="198.877075" style="fill: #cd5c5c; fill-opacity: 0.8; stroke: #cd5c5c; stroke-opacity: 0.8"/>
     <use xlink:href="#m2aeb0c3bf8" x="73.420009" y="194.101236" style="fill: #cd5c5c; fill-opacity: 0.8; stroke: #cd5c5c; stroke-opacity: 0.8"/>
     <use xlink:href="#m2aeb0c3bf8" x="93.085449" y="183.179635" style="fill: #cd5c5c; fill-opacity: 0.8; stroke: #cd5c5c; stroke-opacity: 0.8"/>
     <use xlink:href="#m2aeb0c3bf8" x="130.606081" y="156.0158" style="fill: #cd5c5c; fill-opacity: 0.8; stroke: #cd5c5c; stroke-opacity: 0.8"/>
     <use xlink:href="#m2aeb0c3bf8" x="93.397645" y="206.397198" style="fill: #cd5c5c; fill-opacity: 0.8; stroke: #cd5c5c; stroke-opacity: 0.8"/>
     <use xlink:href="#m2aeb0c3bf8" x="166.129954" y="75.787639" style="fill: #cd5c5c; fill-opacity: 0.8; stroke: #cd5c5c; stroke-opacity: 0.8"/>
     <use xlink:href="#m2aeb0c3bf8" x="68.711062" y="198.237511" style="fill: #cd5c5c; fill-opacity: 0.8; stroke: #cd5c5c; stroke-opacity: 0.8"/>
     <use xlink:href="#m2aeb0c3bf8" x="47.353003" y="212.187718" style="fill: #cd5c5c; fill-opacity: 0.8; stroke: #cd5c5c; stroke-opacity: 0.8"/>
     <use xlink:href="#m2aeb0c3bf8" x="249.054545" y="102.819528" style="fill: #cd5c5c; fill-opacity: 0.8; stroke: #cd5c5c; stroke-opacity: 0.8"/>
     <use xlink:href="#m2aeb0c3bf8" x="146.690408" y="104.866607" style="fill: #cd5c5c; fill-opacity: 0.8; stroke: #cd5c5c; stroke-opacity: 0.8"/>
     <use xlink:href="#m2aeb0c3bf8" x="62.317163" y="196.606219" style="fill: #cd5c5c; fill-opacity: 0.8; stroke: #cd5c5c; stroke-opacity: 0.8"/>
     <use xlink:href="#m2aeb0c3bf8" x="102.112453" y="103.100991" style="fill: #cd5c5c; fill-opacity: 0.8; stroke: #cd5c5c; stroke-opacity: 0.8"/>
     <use xlink:href="#m2aeb0c3bf8" x="62.674922" y="182.712798" style="fill: #cd5c5c; fill-opacity: 0.8; stroke: #cd5c5c; stroke-opacity: 0.8"/>
     <use xlink:href="#m2aeb0c3bf8" x="55.755321" y="203.700552" style="fill: #cd5c5c; fill-opacity: 0.8; stroke: #cd5c5c; stroke-opacity: 0.8"/>
     <use xlink:href="#m2aeb0c3bf8" x="211.74658" y="70.581743" style="fill: #cd5c5c; fill-opacity: 0.8; stroke: #cd5c5c; stroke-opacity: 0.8"/>
     <use xlink:href="#m2aeb0c3bf8" x="215.14709" y="103.102437" style="fill: #cd5c5c; fill-opacity: 0.8; stroke: #cd5c5c; stroke-opacity: 0.8"/>
     <use xlink:href="#m2aeb0c3bf8" x="66.770798" y="197.273511" style="fill: #cd5c5c; fill-opacity: 0.8; stroke: #cd5c5c; stroke-opacity: 0.8"/>
     <use xlink:href="#m2aeb0c3bf8" x="232.545412" y="101.509711" style="fill: #cd5c5c; fill-opacity: 0.8; stroke: #cd5c5c; stroke-opacity: 0.8"/>
     <use xlink:href="#m2aeb0c3bf8" x="112.645423" y="139.460697" style="fill: #cd5c5c; fill-opacity: 0.8; stroke: #cd5c5c; stroke-opacity: 0.8"/>
     <use xlink:href="#m2aeb0c3bf8" x="226.679296" y="103.079156" style="fill: #cd5c5c; fill-opacity: 0.8; stroke: #cd5c5c; stroke-opacity: 0.8"/>
     <use xlink:href="#m2aeb0c3bf8" x="99.47679" y="174.795563" style="fill: #cd5c5c; fill-opacity: 0.8; stroke: #cd5c5c; stroke-opacity: 0.8"/>
     <use xlink:href="#m2aeb0c3bf8" x="69.543603" y="191.686567" style="fill: #cd5c5c; fill-opacity: 0.8; stroke: #cd5c5c; stroke-opacity: 0.8"/>
     <use xlink:href="#m2aeb0c3bf8" x="71.693564" y="188.539835" style="fill: #cd5c5c; fill-opacity: 0.8; stroke: #cd5c5c; stroke-opacity: 0.8"/>
     <use xlink:href="#m2aeb0c3bf8" x="228.619695" y="103.05323" style="fill: #cd5c5c; fill-opacity: 0.8; stroke: #cd5c5c; stroke-opacity: 0.8"/>
     <use xlink:href="#m2aeb0c3bf8" x="58.551557" y="200.280416" style="fill: #cd5c5c; fill-opacity: 0.8; stroke: #cd5c5c; stroke-opacity: 0.8"/>
     <use xlink:href="#m2aeb0c3bf8" x="55.462585" y="200.171777" style="fill: #cd5c5c; fill-opacity: 0.8; stroke: #cd5c5c; stroke-opacity: 0.8"/>
     <use xlink:href="#m2aeb0c3bf8" x="212.880931" y="41.192943" style="fill: #cd5c5c; fill-opacity: 0.8; stroke: #cd5c5c; stroke-opacity: 0.8"/>
     <use xlink:href="#m2aeb0c3bf8" x="246.488327" y="95.805779" style="fill: #cd5c5c; fill-opacity: 0.8; stroke: #cd5c5c; stroke-opacity: 0.8"/>
     <use xlink:href="#m2aeb0c3bf8" x="51.659391" y="203.997344" style="fill: #cd5c5c; fill-opacity: 0.8; stroke: #cd5c5c; stroke-opacity: 0.8"/>
     <use xlink:href="#m2aeb0c3bf8" x="181.444272" y="104.883715" style="fill: #cd5c5c; fill-opacity: 0.8; stroke: #cd5c5c; stroke-opacity: 0.8"/>
     <use xlink:href="#m2aeb0c3bf8" x="119.746155" y="104.556384" style="fill: #cd5c5c; fill-opacity: 0.8; stroke: #cd5c5c; stroke-opacity: 0.8"/>
     <use xlink:href="#m2aeb0c3bf8" x="133.866731" y="103.09844" style="fill: #cd5c5c; fill-opacity: 0.8; stroke: #cd5c5c; stroke-opacity: 0.8"/>
     <use xlink:href="#m2aeb0c3bf8" x="109.619803" y="117.44037" style="fill: #cd5c5c; fill-opacity: 0.8; stroke: #cd5c5c; stroke-opacity: 0.8"/>
     <use xlink:href="#m2aeb0c3bf8" x="120.640638" y="95.602115" style="fill: #cd5c5c; fill-opacity: 0.8; stroke: #cd5c5c; stroke-opacity: 0.8"/>
     <use xlink:href="#m2aeb0c3bf8" x="79.319308" y="163.810065" style="fill: #cd5c5c; fill-opacity: 0.8; stroke: #cd5c5c; stroke-opacity: 0.8"/>
     <use xlink:href="#m2aeb0c3bf8" x="234.135248" y="67.148633" style="fill: #cd5c5c; fill-opacity: 0.8; stroke: #cd5c5c; stroke-opacity: 0.8"/>
     <use xlink:href="#m2aeb0c3bf8" x="228.687736" y="128.47018" style="fill: #cd5c5c; fill-opacity: 0.8; stroke: #cd5c5c; stroke-opacity: 0.8"/>
     <use xlink:href="#m2aeb0c3bf8" x="143.334202" y="151.718221" style="fill: #cd5c5c; fill-opacity: 0.8; stroke: #cd5c5c; stroke-opacity: 0.8"/>
     <use xlink:href="#m2aeb0c3bf8" x="49.018362" y="209.424222" style="fill: #cd5c5c; fill-opacity: 0.8; stroke: #cd5c5c; stroke-opacity: 0.8"/>
     <use xlink:href="#m2aeb0c3bf8" x="54.187753" y="208.717909" style="fill: #cd5c5c; fill-opacity: 0.8; stroke: #cd5c5c; stroke-opacity: 0.8"/>
     <use xlink:href="#m2aeb0c3bf8" x="103.919186" y="74.545049" style="fill: #cd5c5c; fill-opacity: 0.8; stroke: #cd5c5c; stroke-opacity: 0.8"/>
     <use xlink:href="#m2aeb0c3bf8" x="54.877304" y="199.821632" style="fill: #cd5c5c; fill-opacity: 0.8; stroke: #cd5c5c; stroke-opacity: 0.8"/>
     <use xlink:href="#m2aeb0c3bf8" x="176.931878" y="130.131285" style="fill: #cd5c5c; fill-opacity: 0.8; stroke: #cd5c5c; stroke-opacity: 0.8"/>
     <use xlink:href="#m2aeb0c3bf8" x="52.099596" y="206.06018" style="fill: #cd5c5c; fill-opacity: 0.8; stroke: #cd5c5c; stroke-opacity: 0.8"/>
     <use xlink:href="#m2aeb0c3bf8" x="190.908837" y="103.995639" style="fill: #cd5c5c; fill-opacity: 0.8; stroke: #cd5c5c; stroke-opacity: 0.8"/>
     <use xlink:href="#m2aeb0c3bf8" x="107.339967" y="103.068719" style="fill: #cd5c5c; fill-opacity: 0.8; stroke: #cd5c5c; stroke-opacity: 0.8"/>
     <use xlink:href="#m2aeb0c3bf8" x="85.105176" y="158.829332" style="fill: #cd5c5c; fill-opacity: 0.8; stroke: #cd5c5c; stroke-opacity: 0.8"/>
     <use xlink:href="#m2aeb0c3bf8" x="73.589331" y="168.132948" style="fill: #cd5c5c; fill-opacity: 0.8; stroke: #cd5c5c; stroke-opacity: 0.8"/>
     <use xlink:href="#m2aeb0c3bf8" x="221.781857" y="103.421155" style="fill: #cd5c5c; fill-opacity: 0.8; stroke: #cd5c5c; stroke-opacity: 0.8"/>
     <use xlink:href="#m2aeb0c3bf8" x="88.571971" y="165.14943" style="fill: #cd5c5c; fill-opacity: 0.8; stroke: #cd5c5c; stroke-opacity: 0.8"/>
     <use xlink:href="#m2aeb0c3bf8" x="85.002531" y="99.894795" style="fill: #cd5c5c; fill-opacity: 0.8; stroke: #cd5c5c; stroke-opacity: 0.8"/>
     <use xlink:href="#m2aeb0c3bf8" x="91.887824" y="168.216886" style="fill: #cd5c5c; fill-opacity: 0.8; stroke: #cd5c5c; stroke-opacity: 0.8"/>
     <use xlink:href="#m2aeb0c3bf8" x="216.3663" y="104.310605" style="fill: #cd5c5c; fill-opacity: 0.8; stroke: #cd5c5c; stroke-opacity: 0.8"/>
     <use xlink:href="#m2aeb0c3bf8" x="54.996244" y="196.529385" style="fill: #cd5c5c; fill-opacity: 0.8; stroke: #cd5c5c; stroke-opacity: 0.8"/>
     <use xlink:href="#m2aeb0c3bf8" x="158.589019" y="91.463573" style="fill: #cd5c5c; fill-opacity: 0.8; stroke: #cd5c5c; stroke-opacity: 0.8"/>
     <use xlink:href="#m2aeb0c3bf8" x="122.487243" y="146.955292" style="fill: #cd5c5c; fill-opacity: 0.8; stroke: #cd5c5c; stroke-opacity: 0.8"/>
     <use xlink:href="#m2aeb0c3bf8" x="237.920672" y="86.177672" style="fill: #cd5c5c; fill-opacity: 0.8; stroke: #cd5c5c; stroke-opacity: 0.8"/>
     <use xlink:href="#m2aeb0c3bf8" x="158.257998" y="125.756453" style="fill: #cd5c5c; fill-opacity: 0.8; stroke: #cd5c5c; stroke-opacity: 0.8"/>
     <use xlink:href="#m2aeb0c3bf8" x="172.850999" y="78.426681" style="fill: #cd5c5c; fill-opacity: 0.8; stroke: #cd5c5c; stroke-opacity: 0.8"/>
     <use xlink:href="#m2aeb0c3bf8" x="99.106172" y="103.105286" style="fill: #cd5c5c; fill-opacity: 0.8; stroke: #cd5c5c; stroke-opacity: 0.8"/>
     <use xlink:href="#m2aeb0c3bf8" x="123.564513" y="138.304125" style="fill: #cd5c5c; fill-opacity: 0.8; stroke: #cd5c5c; stroke-opacity: 0.8"/>
     <use xlink:href="#m2aeb0c3bf8" x="214.541961" y="103.110731" style="fill: #cd5c5c; fill-opacity: 0.8; stroke: #cd5c5c; stroke-opacity: 0.8"/>
     <use xlink:href="#m2aeb0c3bf8" x="194.863556" y="39.06" style="fill: #cd5c5c; fill-opacity: 0.8; stroke: #cd5c5c; stroke-opacity: 0.8"/>
     <use xlink:href="#m2aeb0c3bf8" x="143.084835" y="87.195996" style="fill: #cd5c5c; fill-opacity: 0.8; stroke: #cd5c5c; stroke-opacity: 0.8"/>
     <use xlink:href="#m2aeb0c3bf8" x="79.309274" y="181.060843" style="fill: #cd5c5c; fill-opacity: 0.8; stroke: #cd5c5c; stroke-opacity: 0.8"/>
     <use xlink:href="#m2aeb0c3bf8" x="64.547763" y="198.618383" style="fill: #cd5c5c; fill-opacity: 0.8; stroke: #cd5c5c; stroke-opacity: 0.8"/>
     <use xlink:href="#m2aeb0c3bf8" x="165.263873" y="47.439986" style="fill: #cd5c5c; fill-opacity: 0.8; stroke: #cd5c5c; stroke-opacity: 0.8"/>
     <use xlink:href="#m2aeb0c3bf8" x="116.252896" y="168.53855" style="fill: #cd5c5c; fill-opacity: 0.8; stroke: #cd5c5c; stroke-opacity: 0.8"/>
     <use xlink:href="#m2aeb0c3bf8" x="54.146183" y="200.989679" style="fill: #cd5c5c; fill-opacity: 0.8; stroke: #cd5c5c; stroke-opacity: 0.8"/>
     <use xlink:href="#m2aeb0c3bf8" x="68.227619" y="157.829942" style="fill: #cd5c5c; fill-opacity: 0.8; stroke: #cd5c5c; stroke-opacity: 0.8"/>
     <use xlink:href="#m2aeb0c3bf8" x="143.665035" y="133.156892" style="fill: #cd5c5c; fill-opacity: 0.8; stroke: #cd5c5c; stroke-opacity: 0.8"/>
     <use xlink:href="#m2aeb0c3bf8" x="52.504522" y="200.656703" style="fill: #cd5c5c; fill-opacity: 0.8; stroke: #cd5c5c; stroke-opacity: 0.8"/>
     <use xlink:href="#m2aeb0c3bf8" x="55.252547" y="205.29414" style="fill: #cd5c5c; fill-opacity: 0.8; stroke: #cd5c5c; stroke-opacity: 0.8"/>
     <use xlink:href="#m2aeb0c3bf8" x="61.335729" y="199.539404" style="fill: #cd5c5c; fill-opacity: 0.8; stroke: #cd5c5c; stroke-opacity: 0.8"/>
     <use xlink:href="#m2aeb0c3bf8" x="64.643429" y="196.874925" style="fill: #cd5c5c; fill-opacity: 0.8; stroke: #cd5c5c; stroke-opacity: 0.8"/>
     <use xlink:href="#m2aeb0c3bf8" x="46.145455" y="208.392168" style="fill: #cd5c5c; fill-opacity: 0.8; stroke: #cd5c5c; stroke-opacity: 0.8"/>
     <use xlink:href="#m2aeb0c3bf8" x="64.841315" y="195.760123" style="fill: #cd5c5c; fill-opacity: 0.8; stroke: #cd5c5c; stroke-opacity: 0.8"/>
     <use xlink:href="#m2aeb0c3bf8" x="69.897578" y="203.321783" style="fill: #cd5c5c; fill-opacity: 0.8; stroke: #cd5c5c; stroke-opacity: 0.8"/>
     <use xlink:href="#m2aeb0c3bf8" x="49.04465" y="207.84381" style="fill: #cd5c5c; fill-opacity: 0.8; stroke: #cd5c5c; stroke-opacity: 0.8"/>
     <use xlink:href="#m2aeb0c3bf8" x="58.635928" y="201.881798" style="fill: #cd5c5c; fill-opacity: 0.8; stroke: #cd5c5c; stroke-opacity: 0.8"/>
     <use xlink:href="#m2aeb0c3bf8" x="105.471705" y="104.273639" style="fill: #cd5c5c; fill-opacity: 0.8; stroke: #cd5c5c; stroke-opacity: 0.8"/>
     <use xlink:href="#m2aeb0c3bf8" x="53.30808" y="206.260268" style="fill: #cd5c5c; fill-opacity: 0.8; stroke: #cd5c5c; stroke-opacity: 0.8"/>
     <use xlink:href="#m2aeb0c3bf8" x="243.046041" y="103.17178" style="fill: #cd5c5c; fill-opacity: 0.8; stroke: #cd5c5c; stroke-opacity: 0.8"/>
    </g>
   </g>
   <g id="line2d_1">
    <path d="M 46.145455 193.167787 
L 48.195041 191.881355 
L 50.244628 190.594922 
L 52.294215 189.30849 
L 54.343802 188.022058 
L 56.393388 186.735626 
L 58.442975 185.449193 
L 60.492562 184.162761 
L 62.542149 182.876329 
L 64.591736 181.589897 
L 66.641322 180.303464 
L 68.690909 179.017032 
L 70.740496 177.7306 
L 72.790083 176.444167 
L 74.839669 175.157735 
L 76.889256 173.871303 
L 78.938843 172.584871 
L 80.98843 171.298438 
L 83.038017 170.012006 
L 85.087603 168.725574 
L 87.13719 167.439142 
L 89.186777 166.152709 
L 91.236364 164.866277 
L 93.28595 163.579845 
L 95.335537 162.293412 
L 97.385124 161.00698 
L 99.434711 159.720548 
L 101.484298 158.434116 
L 103.533884 157.147683 
L 105.583471 155.861251 
L 107.633058 154.574819 
L 109.682645 153.288387 
L 111.732231 152.001954 
L 113.781818 150.715522 
L 115.831405 149.42909 
L 117.880992 148.142657 
L 119.930579 146.856225 
L 121.980165 145.569793 
L 124.029752 144.283361 
L 126.079339 142.996928 
L 128.128926 141.710496 
L 130.178512 140.424064 
L 132.228099 139.137631 
L 134.277686 137.851199 
L 136.327273 136.564767 
L 138.37686 135.278335 
L 140.426446 133.991902 
L 142.476033 132.70547 
L 144.52562 131.419038 
L 146.575207 130.132606 
L 148.624793 128.846173 
L 150.67438 127.559741 
L 152.723967 126.273309 
L 154.773554 124.986876 
L 156.82314 123.700444 
L 158.872727 122.414012 
L 160.922314 121.12758 
L 162.971901 119.841147 
L 165.021488 118.554715 
L 167.071074 117.268283 
L 169.120661 115.981851 
L 171.170248 114.695418 
L 173.219835 113.408986 
L 175.269421 112.122554 
L 177.319008 110.836121 
L 179.368595 109.549689 
L 181.418182 108.263257 
L 183.467769 106.976825 
L 185.517355 105.690392 
L 187.566942 104.40396 
L 189.616529 103.117528 
L 191.666116 101.831096 
L 193.715702 100.544663 
L 195.765289 99.258231 
L 197.814876 97.971799 
L 199.864463 96.685366 
L 201.91405 95.398934 
L 203.963636 94.112502 
L 206.013223 92.82607 
L 208.06281 91.539637 
L 210.112397 90.253205 
L 212.161983 88.966773 
L 214.21157 87.680341 
L 216.261157 86.393908 
L 218.310744 85.107476 
L 220.360331 83.821044 
L 222.409917 82.534611 
L 224.459504 81.248179 
L 226.509091 79.961747 
L 228.558678 78.675315 
L 230.608264 77.388882 
L 232.657851 76.10245 
L 234.707438 74.816018 
L 236.757025 73.529585 
L 238.806612 72.243153 
L 240.856198 70.956721 
L 242.905785 69.670289 
L 244.955372 68.383856 
L 247.004959 67.097424 
L 249.054545 65.810992 
" clip-path="url(#pf7941403ad)" style="fill: none; stroke: #cd5c5c; stroke-opacity: 0.3; stroke-width: 2.25; stroke-linecap: square"/>
   </g>
   <g id="PolyCollection_1">
    <path d="M 46.145455 184.962112 
L 46.145455 199.651872 
L 48.195041 198.266722 
L 50.244628 196.85344 
L 52.294215 195.46428 
L 54.343802 194.13245 
L 56.393388 192.813092 
L 58.442975 191.419152 
L 60.492562 189.9643 
L 62.542149 188.607035 
L 64.591736 187.300966 
L 66.641322 185.940086 
L 68.690909 184.589391 
L 70.740496 183.244548 
L 72.790083 181.958848 
L 74.839669 180.621881 
L 76.889256 179.322115 
L 78.938843 178.021998 
L 80.98843 176.720568 
L 83.038017 175.328785 
L 85.087603 173.992362 
L 87.13719 172.639323 
L 89.186777 171.291407 
L 91.236364 169.913933 
L 93.28595 168.563402 
L 95.335537 167.344687 
L 97.385124 166.027363 
L 99.434711 164.755207 
L 101.484298 163.49758 
L 103.533884 162.209032 
L 105.583471 160.92445 
L 107.633058 159.608045 
L 109.682645 158.35578 
L 111.732231 157.071948 
L 113.781818 155.787988 
L 115.831405 154.510208 
L 117.880992 153.217747 
L 119.930579 151.933456 
L 121.980165 150.696172 
L 124.029752 149.415959 
L 126.079339 148.136928 
L 128.128926 146.851649 
L 130.178512 145.590847 
L 132.228099 144.348836 
L 134.277686 143.11091 
L 136.327273 141.872985 
L 138.37686 140.63506 
L 140.426446 139.397135 
L 142.476033 138.1285 
L 144.52562 136.921284 
L 146.575207 135.685471 
L 148.624793 134.44736 
L 150.67438 133.208103 
L 152.723967 131.970293 
L 154.773554 130.734278 
L 156.82314 129.548006 
L 158.872727 128.387576 
L 160.922314 127.219324 
L 162.971901 125.970239 
L 165.021488 124.809895 
L 167.071074 123.663868 
L 169.120661 122.442812 
L 171.170248 121.271844 
L 173.219835 120.045627 
L 175.269421 118.819409 
L 177.319008 117.593192 
L 179.368595 116.41477 
L 181.418182 115.310831 
L 183.467769 114.13877 
L 185.517355 113.00077 
L 187.566942 111.809105 
L 189.616529 110.613893 
L 191.666116 109.399349 
L 193.715702 108.169262 
L 195.765289 107.020413 
L 197.814876 105.780616 
L 199.864463 104.613492 
L 201.91405 103.419247 
L 203.963636 102.245894 
L 206.013223 101.064768 
L 208.06281 99.8881 
L 210.112397 98.710886 
L 212.161983 97.533672 
L 214.21157 96.368136 
L 216.261157 95.218083 
L 218.310744 94.06803 
L 220.360331 92.917582 
L 222.409917 91.766094 
L 224.459504 90.614515 
L 226.509091 89.437638 
L 228.558678 88.222091 
L 230.608264 87.006545 
L 232.657851 85.790998 
L 234.707438 84.609374 
L 236.757025 83.450899 
L 238.806612 82.220736 
L 240.856198 81.060827 
L 242.905785 79.910901 
L 244.955372 78.760975 
L 247.004959 77.611049 
L 249.054545 76.461123 
L 249.054545 52.495911 
L 249.054545 52.495911 
L 247.004959 53.937439 
L 244.955372 55.378968 
L 242.905785 56.820497 
L 240.856198 58.262026 
L 238.806612 59.703555 
L 236.757025 61.145084 
L 234.707438 62.584947 
L 232.657851 63.997264 
L 230.608264 65.462613 
L 228.558678 66.907537 
L 226.509091 68.350125 
L 224.459504 69.804355 
L 222.409917 71.272206 
L 220.360331 72.726067 
L 218.310744 74.217267 
L 216.261157 75.708467 
L 214.21157 77.116131 
L 212.161983 78.481003 
L 210.112397 79.877666 
L 208.06281 81.316588 
L 206.013223 82.739537 
L 203.963636 84.045857 
L 201.91405 85.353187 
L 199.864463 86.81417 
L 197.814876 88.292233 
L 195.765289 89.761867 
L 193.715702 91.160839 
L 191.666116 92.502074 
L 189.616529 93.827997 
L 187.566942 95.228904 
L 185.517355 96.669794 
L 183.467769 98.111874 
L 181.418182 99.519394 
L 179.368595 100.913511 
L 177.319008 102.307672 
L 175.269421 103.747896 
L 173.219835 105.209895 
L 171.170248 106.568024 
L 169.120661 107.93926 
L 167.071074 109.338317 
L 165.021488 110.759634 
L 162.971901 112.216038 
L 160.922314 113.672442 
L 158.872727 115.128852 
L 156.82314 116.540157 
L 154.773554 117.870842 
L 152.723967 119.244818 
L 150.67438 120.586844 
L 148.624793 121.937448 
L 146.575207 123.349335 
L 144.52562 124.787005 
L 142.476033 126.076672 
L 140.426446 127.392457 
L 138.37686 128.750013 
L 136.327273 130.098981 
L 134.277686 131.503722 
L 132.228099 132.922109 
L 130.178512 134.266402 
L 128.128926 135.529219 
L 126.079339 136.843426 
L 124.029752 138.170881 
L 121.980165 139.455224 
L 119.930579 140.773135 
L 117.880992 142.086729 
L 115.831405 143.413007 
L 113.781818 144.777557 
L 111.732231 146.155279 
L 109.682645 147.428812 
L 107.633058 148.768895 
L 105.583471 149.987602 
L 103.533884 151.224771 
L 101.484298 152.548154 
L 99.434711 153.679864 
L 97.385124 155.020596 
L 95.335537 156.259461 
L 93.28595 157.491035 
L 91.236364 158.699147 
L 89.186777 159.885695 
L 87.13719 161.072243 
L 85.087603 162.258791 
L 83.038017 163.445339 
L 80.98843 164.632684 
L 78.938843 165.823347 
L 76.889256 167.005965 
L 74.839669 168.198854 
L 72.790083 169.451041 
L 70.740496 170.567189 
L 68.690909 171.837134 
L 66.641322 173.030181 
L 64.591736 174.223963 
L 62.542149 175.391447 
L 60.492562 176.602159 
L 58.442975 177.784888 
L 56.393388 178.9641 
L 54.343802 180.144364 
L 52.294215 181.357002 
L 50.244628 182.576327 
L 48.195041 183.769219 
L 46.145455 184.962112 
z
" clip-path="url(#pf7941403ad)" style="fill: #cd5c5c; fill-opacity: 0.15"/>
   </g>
   <g id="matplotlib.axis_1">
    <g id="xtick_1">
     <g id="line2d_2">
      <defs>
       <path id="mf357de31aa" d="M 0 0 
L 0 3.5 
" style="stroke: #000000"/>
      </defs>
      <g>
       <use xlink:href="#mf357de31aa" x="68.572453" y="224.28" style="stroke: #000000"/>
      </g>
     </g>
     <g id="text_1">
      <!-- 2 -->
      <g transform="translate(65.391203 238.878438) scale(0.1 -0.1)">
       <defs>
        <path id="DejaVuSans-32" d="M 1228 531 
L 3431 531 
L 3431 0 
L 469 0 
L 469 531 
Q 828 903 1448 1529 
Q 2069 2156 2228 2338 
Q 2531 2678 2651 2914 
Q 2772 3150 2772 3378 
Q 2772 3750 2511 3984 
Q 2250 4219 1831 4219 
Q 1534 4219 1204 4116 
Q 875 4013 500 3803 
L 500 4441 
Q 881 4594 1212 4672 
Q 1544 4750 1819 4750 
Q 2544 4750 2975 4387 
Q 3406 4025 3406 3419 
Q 3406 3131 3298 2873 
Q 3191 2616 2906 2266 
Q 2828 2175 2409 1742 
Q 1991 1309 1228 531 
z
" transform="scale(0.015625)"/>
       </defs>
       <use xlink:href="#DejaVuSans-32"/>
      </g>
     </g>
    </g>
    <g id="xtick_2">
     <g id="line2d_3">
      <g>
       <use xlink:href="#mf357de31aa" x="113.752427" y="224.28" style="stroke: #000000"/>
      </g>
     </g>
     <g id="text_2">
      <!-- 4 -->
      <g transform="translate(110.571177 238.878438) scale(0.1 -0.1)">
       <defs>
        <path id="DejaVuSans-34" d="M 2419 4116 
L 825 1625 
L 2419 1625 
L 2419 4116 
z
M 2253 4666 
L 3047 4666 
L 3047 1625 
L 3713 1625 
L 3713 1100 
L 3047 1100 
L 3047 0 
L 2419 0 
L 2419 1100 
L 313 1100 
L 313 1709 
L 2253 4666 
z
" transform="scale(0.015625)"/>
       </defs>
       <use xlink:href="#DejaVuSans-34"/>
      </g>
     </g>
    </g>
    <g id="xtick_3">
     <g id="line2d_4">
      <g>
       <use xlink:href="#mf357de31aa" x="158.932402" y="224.28" style="stroke: #000000"/>
      </g>
     </g>
     <g id="text_3">
      <!-- 6 -->
      <g transform="translate(155.751152 238.878438) scale(0.1 -0.1)">
       <defs>
        <path id="DejaVuSans-36" d="M 2113 2584 
Q 1688 2584 1439 2293 
Q 1191 2003 1191 1497 
Q 1191 994 1439 701 
Q 1688 409 2113 409 
Q 2538 409 2786 701 
Q 3034 994 3034 1497 
Q 3034 2003 2786 2293 
Q 2538 2584 2113 2584 
z
M 3366 4563 
L 3366 3988 
Q 3128 4100 2886 4159 
Q 2644 4219 2406 4219 
Q 1781 4219 1451 3797 
Q 1122 3375 1075 2522 
Q 1259 2794 1537 2939 
Q 1816 3084 2150 3084 
Q 2853 3084 3261 2657 
Q 3669 2231 3669 1497 
Q 3669 778 3244 343 
Q 2819 -91 2113 -91 
Q 1303 -91 875 529 
Q 447 1150 447 2328 
Q 447 3434 972 4092 
Q 1497 4750 2381 4750 
Q 2619 4750 2861 4703 
Q 3103 4656 3366 4563 
z
" transform="scale(0.015625)"/>
       </defs>
       <use xlink:href="#DejaVuSans-36"/>
      </g>
     </g>
    </g>
    <g id="xtick_4">
     <g id="line2d_5">
      <g>
       <use xlink:href="#mf357de31aa" x="204.112377" y="224.28" style="stroke: #000000"/>
      </g>
     </g>
     <g id="text_4">
      <!-- 8 -->
      <g transform="translate(200.931127 238.878438) scale(0.1 -0.1)">
       <defs>
        <path id="DejaVuSans-38" d="M 2034 2216 
Q 1584 2216 1326 1975 
Q 1069 1734 1069 1313 
Q 1069 891 1326 650 
Q 1584 409 2034 409 
Q 2484 409 2743 651 
Q 3003 894 3003 1313 
Q 3003 1734 2745 1975 
Q 2488 2216 2034 2216 
z
M 1403 2484 
Q 997 2584 770 2862 
Q 544 3141 544 3541 
Q 544 4100 942 4425 
Q 1341 4750 2034 4750 
Q 2731 4750 3128 4425 
Q 3525 4100 3525 3541 
Q 3525 3141 3298 2862 
Q 3072 2584 2669 2484 
Q 3125 2378 3379 2068 
Q 3634 1759 3634 1313 
Q 3634 634 3220 271 
Q 2806 -91 2034 -91 
Q 1263 -91 848 271 
Q 434 634 434 1313 
Q 434 1759 690 2068 
Q 947 2378 1403 2484 
z
M 1172 3481 
Q 1172 3119 1398 2916 
Q 1625 2713 2034 2713 
Q 2441 2713 2670 2916 
Q 2900 3119 2900 3481 
Q 2900 3844 2670 4047 
Q 2441 4250 2034 4250 
Q 1625 4250 1398 4047 
Q 1172 3844 1172 3481 
z
" transform="scale(0.015625)"/>
       </defs>
       <use xlink:href="#DejaVuSans-38"/>
      </g>
     </g>
    </g>
    <g id="xtick_5">
     <g id="line2d_6">
      <g>
       <use xlink:href="#mf357de31aa" x="249.292352" y="224.28" style="stroke: #000000"/>
      </g>
     </g>
     <g id="text_5">
      <!-- 10 -->
      <g transform="translate(242.929852 238.878438) scale(0.1 -0.1)">
       <defs>
        <path id="DejaVuSans-31" d="M 794 531 
L 1825 531 
L 1825 4091 
L 703 3866 
L 703 4441 
L 1819 4666 
L 2450 4666 
L 2450 531 
L 3481 531 
L 3481 0 
L 794 0 
L 794 531 
z
" transform="scale(0.015625)"/>
        <path id="DejaVuSans-30" d="M 2034 4250 
Q 1547 4250 1301 3770 
Q 1056 3291 1056 2328 
Q 1056 1369 1301 889 
Q 1547 409 2034 409 
Q 2525 409 2770 889 
Q 3016 1369 3016 2328 
Q 3016 3291 2770 3770 
Q 2525 4250 2034 4250 
z
M 2034 4750 
Q 2819 4750 3233 4129 
Q 3647 3509 3647 2328 
Q 3647 1150 3233 529 
Q 2819 -91 2034 -91 
Q 1250 -91 836 529 
Q 422 1150 422 2328 
Q 422 3509 836 4129 
Q 1250 4750 2034 4750 
z
" transform="scale(0.015625)"/>
       </defs>
       <use xlink:href="#DejaVuSans-31"/>
       <use xlink:href="#DejaVuSans-30" x="63.623047"/>
      </g>
     </g>
    </g>
    <g id="text_6">
     <!-- real beta1 -->
     <g transform="translate(125.363281 252.115938) scale(0.1 -0.1)">
      <defs>
       <path id="ArialMT-72" d="M 416 0 
L 416 3319 
L 922 3319 
L 922 2816 
Q 1116 3169 1280 3281 
Q 1444 3394 1641 3394 
Q 1925 3394 2219 3213 
L 2025 2691 
Q 1819 2813 1613 2813 
Q 1428 2813 1281 2702 
Q 1134 2591 1072 2394 
Q 978 2094 978 1738 
L 978 0 
L 416 0 
z
" transform="scale(0.015625)"/>
       <path id="ArialMT-65" d="M 2694 1069 
L 3275 997 
Q 3138 488 2766 206 
Q 2394 -75 1816 -75 
Q 1088 -75 661 373 
Q 234 822 234 1631 
Q 234 2469 665 2931 
Q 1097 3394 1784 3394 
Q 2450 3394 2872 2941 
Q 3294 2488 3294 1666 
Q 3294 1616 3291 1516 
L 816 1516 
Q 847 969 1125 678 
Q 1403 388 1819 388 
Q 2128 388 2347 550 
Q 2566 713 2694 1069 
z
M 847 1978 
L 2700 1978 
Q 2663 2397 2488 2606 
Q 2219 2931 1791 2931 
Q 1403 2931 1139 2672 
Q 875 2413 847 1978 
z
" transform="scale(0.015625)"/>
       <path id="ArialMT-61" d="M 2588 409 
Q 2275 144 1986 34 
Q 1697 -75 1366 -75 
Q 819 -75 525 192 
Q 231 459 231 875 
Q 231 1119 342 1320 
Q 453 1522 633 1644 
Q 813 1766 1038 1828 
Q 1203 1872 1538 1913 
Q 2219 1994 2541 2106 
Q 2544 2222 2544 2253 
Q 2544 2597 2384 2738 
Q 2169 2928 1744 2928 
Q 1347 2928 1158 2789 
Q 969 2650 878 2297 
L 328 2372 
Q 403 2725 575 2942 
Q 747 3159 1072 3276 
Q 1397 3394 1825 3394 
Q 2250 3394 2515 3294 
Q 2781 3194 2906 3042 
Q 3031 2891 3081 2659 
Q 3109 2516 3109 2141 
L 3109 1391 
Q 3109 606 3145 398 
Q 3181 191 3288 0 
L 2700 0 
Q 2613 175 2588 409 
z
M 2541 1666 
Q 2234 1541 1622 1453 
Q 1275 1403 1131 1340 
Q 988 1278 909 1158 
Q 831 1038 831 891 
Q 831 666 1001 516 
Q 1172 366 1500 366 
Q 1825 366 2078 508 
Q 2331 650 2450 897 
Q 2541 1088 2541 1459 
L 2541 1666 
z
" transform="scale(0.015625)"/>
       <path id="ArialMT-6c" d="M 409 0 
L 409 4581 
L 972 4581 
L 972 0 
L 409 0 
z
" transform="scale(0.015625)"/>
       <path id="ArialMT-20" transform="scale(0.015625)"/>
       <path id="ArialMT-62" d="M 941 0 
L 419 0 
L 419 4581 
L 981 4581 
L 981 2947 
Q 1338 3394 1891 3394 
Q 2197 3394 2470 3270 
Q 2744 3147 2920 2923 
Q 3097 2700 3197 2384 
Q 3297 2069 3297 1709 
Q 3297 856 2875 390 
Q 2453 -75 1863 -75 
Q 1275 -75 941 416 
L 941 0 
z
M 934 1684 
Q 934 1088 1097 822 
Q 1363 388 1816 388 
Q 2184 388 2453 708 
Q 2722 1028 2722 1663 
Q 2722 2313 2464 2622 
Q 2206 2931 1841 2931 
Q 1472 2931 1203 2611 
Q 934 2291 934 1684 
z
" transform="scale(0.015625)"/>
       <path id="ArialMT-74" d="M 1650 503 
L 1731 6 
Q 1494 -44 1306 -44 
Q 1000 -44 831 53 
Q 663 150 594 308 
Q 525 466 525 972 
L 525 2881 
L 113 2881 
L 113 3319 
L 525 3319 
L 525 4141 
L 1084 4478 
L 1084 3319 
L 1650 3319 
L 1650 2881 
L 1084 2881 
L 1084 941 
Q 1084 700 1114 631 
Q 1144 563 1211 522 
Q 1278 481 1403 481 
Q 1497 481 1650 503 
z
" transform="scale(0.015625)"/>
       <path id="ArialMT-31" d="M 2384 0 
L 1822 0 
L 1822 3584 
Q 1619 3391 1289 3197 
Q 959 3003 697 2906 
L 697 3450 
Q 1169 3672 1522 3987 
Q 1875 4303 2022 4600 
L 2384 4600 
L 2384 0 
z
" transform="scale(0.015625)"/>
      </defs>
      <use xlink:href="#ArialMT-72"/>
      <use xlink:href="#ArialMT-65" x="33.300781"/>
      <use xlink:href="#ArialMT-61" x="88.916016"/>
      <use xlink:href="#ArialMT-6c" x="144.53125"/>
      <use xlink:href="#ArialMT-20" x="166.748047"/>
      <use xlink:href="#ArialMT-62" x="194.53125"/>
      <use xlink:href="#ArialMT-65" x="250.146484"/>
      <use xlink:href="#ArialMT-74" x="305.761719"/>
      <use xlink:href="#ArialMT-61" x="333.544922"/>
      <use xlink:href="#ArialMT-31" x="389.160156"/>
     </g>
    </g>
   </g>
   <g id="matplotlib.axis_2">
    <g id="ytick_1">
     <g id="line2d_7">
      <defs>
       <path id="m1bc69bc26b" d="M 0 0 
L -3.5 0 
" style="stroke: #000000"/>
      </defs>
      <g>
       <use xlink:href="#m1bc69bc26b" x="36" y="195.761798" style="stroke: #000000"/>
      </g>
     </g>
     <g id="text_7">
      <!-- 2 -->
      <g transform="translate(22.6375 199.561017) scale(0.1 -0.1)">
       <use xlink:href="#DejaVuSans-32"/>
      </g>
     </g>
    </g>
    <g id="ytick_2">
     <g id="line2d_8">
      <g>
       <use xlink:href="#m1bc69bc26b" x="36" y="162.14338" style="stroke: #000000"/>
      </g>
     </g>
     <g id="text_8">
      <!-- 4 -->
      <g transform="translate(22.6375 165.942599) scale(0.1 -0.1)">
       <use xlink:href="#DejaVuSans-34"/>
      </g>
     </g>
    </g>
    <g id="ytick_3">
     <g id="line2d_9">
      <g>
       <use xlink:href="#m1bc69bc26b" x="36" y="128.524962" style="stroke: #000000"/>
      </g>
     </g>
     <g id="text_9">
      <!-- 6 -->
      <g transform="translate(22.6375 132.324181) scale(0.1 -0.1)">
       <use xlink:href="#DejaVuSans-36"/>
      </g>
     </g>
    </g>
    <g id="ytick_4">
     <g id="line2d_10">
      <g>
       <use xlink:href="#m1bc69bc26b" x="36" y="94.906544" style="stroke: #000000"/>
      </g>
     </g>
     <g id="text_10">
      <!-- 8 -->
      <g transform="translate(22.6375 98.705763) scale(0.1 -0.1)">
       <use xlink:href="#DejaVuSans-38"/>
      </g>
     </g>
    </g>
    <g id="ytick_5">
     <g id="line2d_11">
      <g>
       <use xlink:href="#m1bc69bc26b" x="36" y="61.288126" style="stroke: #000000"/>
      </g>
     </g>
     <g id="text_11">
      <!-- 10 -->
      <g transform="translate(16.275 65.087345) scale(0.1 -0.1)">
       <use xlink:href="#DejaVuSans-31"/>
       <use xlink:href="#DejaVuSans-30" x="63.623047"/>
      </g>
     </g>
    </g>
    <g id="text_12">
     <!-- recovered beta1 -->
     <g transform="translate(10.2875 163.392031) rotate(-90) scale(0.1 -0.1)">
      <defs>
       <path id="ArialMT-63" d="M 2588 1216 
L 3141 1144 
Q 3050 572 2676 248 
Q 2303 -75 1759 -75 
Q 1078 -75 664 370 
Q 250 816 250 1647 
Q 250 2184 428 2587 
Q 606 2991 970 3192 
Q 1334 3394 1763 3394 
Q 2303 3394 2647 3120 
Q 2991 2847 3088 2344 
L 2541 2259 
Q 2463 2594 2264 2762 
Q 2066 2931 1784 2931 
Q 1359 2931 1093 2626 
Q 828 2322 828 1663 
Q 828 994 1084 691 
Q 1341 388 1753 388 
Q 2084 388 2306 591 
Q 2528 794 2588 1216 
z
" transform="scale(0.015625)"/>
       <path id="ArialMT-6f" d="M 213 1659 
Q 213 2581 725 3025 
Q 1153 3394 1769 3394 
Q 2453 3394 2887 2945 
Q 3322 2497 3322 1706 
Q 3322 1066 3130 698 
Q 2938 331 2570 128 
Q 2203 -75 1769 -75 
Q 1072 -75 642 372 
Q 213 819 213 1659 
z
M 791 1659 
Q 791 1022 1069 705 
Q 1347 388 1769 388 
Q 2188 388 2466 706 
Q 2744 1025 2744 1678 
Q 2744 2294 2464 2611 
Q 2184 2928 1769 2928 
Q 1347 2928 1069 2612 
Q 791 2297 791 1659 
z
" transform="scale(0.015625)"/>
       <path id="ArialMT-76" d="M 1344 0 
L 81 3319 
L 675 3319 
L 1388 1331 
Q 1503 1009 1600 663 
Q 1675 925 1809 1294 
L 2547 3319 
L 3125 3319 
L 1869 0 
L 1344 0 
z
" transform="scale(0.015625)"/>
       <path id="ArialMT-64" d="M 2575 0 
L 2575 419 
Q 2259 -75 1647 -75 
Q 1250 -75 917 144 
Q 584 363 401 755 
Q 219 1147 219 1656 
Q 219 2153 384 2558 
Q 550 2963 881 3178 
Q 1213 3394 1622 3394 
Q 1922 3394 2156 3267 
Q 2391 3141 2538 2938 
L 2538 4581 
L 3097 4581 
L 3097 0 
L 2575 0 
z
M 797 1656 
Q 797 1019 1065 703 
Q 1334 388 1700 388 
Q 2069 388 2326 689 
Q 2584 991 2584 1609 
Q 2584 2291 2321 2609 
Q 2059 2928 1675 2928 
Q 1300 2928 1048 2622 
Q 797 2316 797 1656 
z
" transform="scale(0.015625)"/>
      </defs>
      <use xlink:href="#ArialMT-72"/>
      <use xlink:href="#ArialMT-65" x="33.300781"/>
      <use xlink:href="#ArialMT-63" x="88.916016"/>
      <use xlink:href="#ArialMT-6f" x="138.916016"/>
      <use xlink:href="#ArialMT-76" x="194.53125"/>
      <use xlink:href="#ArialMT-65" x="244.53125"/>
      <use xlink:href="#ArialMT-72" x="300.146484"/>
      <use xlink:href="#ArialMT-65" x="333.447266"/>
      <use xlink:href="#ArialMT-64" x="389.0625"/>
      <use xlink:href="#ArialMT-20" x="444.677734"/>
      <use xlink:href="#ArialMT-62" x="472.460938"/>
      <use xlink:href="#ArialMT-65" x="528.076172"/>
      <use xlink:href="#ArialMT-74" x="583.691406"/>
      <use xlink:href="#ArialMT-61" x="611.474609"/>
      <use xlink:href="#ArialMT-31" x="667.089844"/>
     </g>
    </g>
   </g>
   <g id="patch_3">
    <path d="M 36 224.28 
L 36 30.24 
" style="fill: none; stroke: #000000; stroke-linejoin: miter; stroke-linecap: square"/>
   </g>
   <g id="patch_4">
    <path d="M 36 224.28 
L 259.2 224.28 
" style="fill: none; stroke: #000000; stroke-linejoin: miter; stroke-linecap: square"/>
   </g>
  </g>
 </g>
 <defs>
  <clipPath id="pf7941403ad">
   <rect x="36" y="30.24" width="223.2" height="194.04"/>
  </clipPath>
 </defs>
</svg>
