<?xml version="1.0" encoding="utf-8" standalone="no"?>
<!DOCTYPE svg PUBLIC "-//W3C//DTD SVG 1.1//EN"
  "http://www.w3.org/Graphics/SVG/1.1/DTD/svg11.dtd">
<svg xmlns:xlink="http://www.w3.org/1999/xlink" width="288pt" height="252pt" viewBox="0 0 288 252" xmlns="http://www.w3.org/2000/svg" version="1.1">
 <metadata>
  <rdf:RDF xmlns:dc="http://purl.org/dc/elements/1.1/" xmlns:cc="http://creativecommons.org/ns#" xmlns:rdf="http://www.w3.org/1999/02/22-rdf-syntax-ns#">
   <cc:Work>
    <dc:type rdf:resource="http://purl.org/dc/dcmitype/StillImage"/>
    <dc:date>2025-04-11T16:11:12.168347</dc:date>
    <dc:format>image/svg+xml</dc:format>
    <dc:creator>
     <cc:Agent>
      <dc:title>Matplotlib v3.7.1, https://matplotlib.org/</dc:title>
     </cc:Agent>
    </dc:creator>
   </cc:Work>
  </rdf:RDF>
 </metadata>
 <defs>
  <style type="text/css">*{stroke-linejoin: round; stroke-linecap: butt}</style>
 </defs>
 <g id="figure_1">
  <g id="patch_1">
   <path d="M 0 252 
L 288 252 
L 288 0 
L 0 0 
L 0 252 
z
" style="fill: none"/>
  </g>
  <g id="axes_1">
   <g id="patch_2">
    <path d="M 36 224.28 
L 259.2 224.28 
L 259.2 30.24 
L 36 30.24 
L 36 224.28 
z
" style="fill: none"/>
   </g>
   <g id="PathCollection_1">
    <defs>
     <path id="mccd2be1605" d="M 0 3 
C 0.795609 3 1.55874 2.683901 2.12132 2.12132 
C 2.683901 1.55874 3 0.795609 3 0 
C 3 -0.795609 2.683901 -1.55874 2.12132 -2.12132 
C 1.55874 -2.683901 0.795609 -3 0 -3 
C -0.795609 -3 -1.55874 -2.683901 -2.12132 -2.12132 
C -2.683901 -1.55874 -3 -0.795609 -3 0 
C -3 0.795609 -2.683901 1.55874 -2.12132 2.12132 
C -1.55874 2.683901 -0.795609 3 0 3 
z
" style="stroke: #cd5c5c; stroke-opacity: 0.8"/>
    </defs>
    <g clip-path="url(#p57f7777eb8)">
     <use xlink:href="#mccd2be1605" x="117.999291" y="76.768567" style="fill: #cd5c5c; fill-opacity: 0.8; stroke: #cd5c5c; stroke-opacity: 0.8"/>
     <use xlink:href="#mccd2be1605" x="222.089769" y="95.627624" style="fill: #cd5c5c; fill-opacity: 0.8; stroke: #cd5c5c; stroke-opacity: 0.8"/>
     <use xlink:href="#mccd2be1605" x="96.057624" y="111.156948" style="fill: #cd5c5c; fill-opacity: 0.8; stroke: #cd5c5c; stroke-opacity: 0.8"/>
     <use xlink:href="#mccd2be1605" x="245.965847" y="106.759514" style="fill: #cd5c5c; fill-opacity: 0.8; stroke: #cd5c5c; stroke-opacity: 0.8"/>
     <use xlink:href="#mccd2be1605" x="151.782702" y="99.864817" style="fill: #cd5c5c; fill-opacity: 0.8; stroke: #cd5c5c; stroke-opacity: 0.8"/>
     <use xlink:href="#mccd2be1605" x="119.252658" y="106.141438" style="fill: #cd5c5c; fill-opacity: 0.8; stroke: #cd5c5c; stroke-opacity: 0.8"/>
     <use xlink:href="#mccd2be1605" x="90.652643" y="107.199094" style="fill: #cd5c5c; fill-opacity: 0.8; stroke: #cd5c5c; stroke-opacity: 0.8"/>
     <use xlink:href="#mccd2be1605" x="98.813323" y="124.990713" style="fill: #cd5c5c; fill-opacity: 0.8; stroke: #cd5c5c; stroke-opacity: 0.8"/>
     <use xlink:href="#mccd2be1605" x="87.68713" y="107.596148" style="fill: #cd5c5c; fill-opacity: 0.8; stroke: #cd5c5c; stroke-opacity: 0.8"/>
     <use xlink:href="#mccd2be1605" x="70.919844" y="107.60229" style="fill: #cd5c5c; fill-opacity: 0.8; stroke: #cd5c5c; stroke-opacity: 0.8"/>
     <use xlink:href="#mccd2be1605" x="218.576215" y="105.040909" style="fill: #cd5c5c; fill-opacity: 0.8; stroke: #cd5c5c; stroke-opacity: 0.8"/>
     <use xlink:href="#mccd2be1605" x="49.93025" y="80.983091" style="fill: #cd5c5c; fill-opacity: 0.8; stroke: #cd5c5c; stroke-opacity: 0.8"/>
     <use xlink:href="#mccd2be1605" x="56.702765" y="132.714117" style="fill: #cd5c5c; fill-opacity: 0.8; stroke: #cd5c5c; stroke-opacity: 0.8"/>
     <use xlink:href="#mccd2be1605" x="60.985486" y="108.684192" style="fill: #cd5c5c; fill-opacity: 0.8; stroke: #cd5c5c; stroke-opacity: 0.8"/>
     <use xlink:href="#mccd2be1605" x="236.402977" y="147.508319" style="fill: #cd5c5c; fill-opacity: 0.8; stroke: #cd5c5c; stroke-opacity: 0.8"/>
     <use xlink:href="#mccd2be1605" x="105.817114" y="107.602293" style="fill: #cd5c5c; fill-opacity: 0.8; stroke: #cd5c5c; stroke-opacity: 0.8"/>
     <use xlink:href="#mccd2be1605" x="117.098219" y="81.310914" style="fill: #cd5c5c; fill-opacity: 0.8; stroke: #cd5c5c; stroke-opacity: 0.8"/>
     <use xlink:href="#mccd2be1605" x="61.182298" y="71.068756" style="fill: #cd5c5c; fill-opacity: 0.8; stroke: #cd5c5c; stroke-opacity: 0.8"/>
     <use xlink:href="#mccd2be1605" x="109.174909" y="119.711175" style="fill: #cd5c5c; fill-opacity: 0.8; stroke: #cd5c5c; stroke-opacity: 0.8"/>
     <use xlink:href="#mccd2be1605" x="208.492533" y="114.516209" style="fill: #cd5c5c; fill-opacity: 0.8; stroke: #cd5c5c; stroke-opacity: 0.8"/>
     <use xlink:href="#mccd2be1605" x="186.741186" y="215.46" style="fill: #cd5c5c; fill-opacity: 0.8; stroke: #cd5c5c; stroke-opacity: 0.8"/>
     <use xlink:href="#mccd2be1605" x="172.775889" y="100.019736" style="fill: #cd5c5c; fill-opacity: 0.8; stroke: #cd5c5c; stroke-opacity: 0.8"/>
     <use xlink:href="#mccd2be1605" x="233.696797" y="107.290383" style="fill: #cd5c5c; fill-opacity: 0.8; stroke: #cd5c5c; stroke-opacity: 0.8"/>
     <use xlink:href="#mccd2be1605" x="204.678542" y="86.05974" style="fill: #cd5c5c; fill-opacity: 0.8; stroke: #cd5c5c; stroke-opacity: 0.8"/>
     <use xlink:href="#mccd2be1605" x="137.095089" y="103.433294" style="fill: #cd5c5c; fill-opacity: 0.8; stroke: #cd5c5c; stroke-opacity: 0.8"/>
     <use xlink:href="#mccd2be1605" x="249.054545" y="107.597426" style="fill: #cd5c5c; fill-opacity: 0.8; stroke: #cd5c5c; stroke-opacity: 0.8"/>
     <use xlink:href="#mccd2be1605" x="240.711419" y="107.602484" style="fill: #cd5c5c; fill-opacity: 0.8; stroke: #cd5c5c; stroke-opacity: 0.8"/>
     <use xlink:href="#mccd2be1605" x="66.388654" y="96.699707" style="fill: #cd5c5c; fill-opacity: 0.8; stroke: #cd5c5c; stroke-opacity: 0.8"/>
     <use xlink:href="#mccd2be1605" x="200.925079" y="107.602063" style="fill: #cd5c5c; fill-opacity: 0.8; stroke: #cd5c5c; stroke-opacity: 0.8"/>
     <use xlink:href="#mccd2be1605" x="115.181174" y="171.438773" style="fill: #cd5c5c; fill-opacity: 0.8; stroke: #cd5c5c; stroke-opacity: 0.8"/>
     <use xlink:href="#mccd2be1605" x="192.166479" y="89.374793" style="fill: #cd5c5c; fill-opacity: 0.8; stroke: #cd5c5c; stroke-opacity: 0.8"/>
     <use xlink:href="#mccd2be1605" x="186.218389" y="106.945359" style="fill: #cd5c5c; fill-opacity: 0.8; stroke: #cd5c5c; stroke-opacity: 0.8"/>
     <use xlink:href="#mccd2be1605" x="191.087304" y="107.601925" style="fill: #cd5c5c; fill-opacity: 0.8; stroke: #cd5c5c; stroke-opacity: 0.8"/>
     <use xlink:href="#mccd2be1605" x="209.828108" y="72.521553" style="fill: #cd5c5c; fill-opacity: 0.8; stroke: #cd5c5c; stroke-opacity: 0.8"/>
     <use xlink:href="#mccd2be1605" x="209.226988" y="107.588416" style="fill: #cd5c5c; fill-opacity: 0.8; stroke: #cd5c5c; stroke-opacity: 0.8"/>
     <use xlink:href="#mccd2be1605" x="194.944251" y="103.682477" style="fill: #cd5c5c; fill-opacity: 0.8; stroke: #cd5c5c; stroke-opacity: 0.8"/>
     <use xlink:href="#mccd2be1605" x="75.125131" y="107.601301" style="fill: #cd5c5c; fill-opacity: 0.8; stroke: #cd5c5c; stroke-opacity: 0.8"/>
     <use xlink:href="#mccd2be1605" x="211.294005" y="106.146753" style="fill: #cd5c5c; fill-opacity: 0.8; stroke: #cd5c5c; stroke-opacity: 0.8"/>
     <use xlink:href="#mccd2be1605" x="143.862143" y="109.16459" style="fill: #cd5c5c; fill-opacity: 0.8; stroke: #cd5c5c; stroke-opacity: 0.8"/>
     <use xlink:href="#mccd2be1605" x="47.173853" y="93.581975" style="fill: #cd5c5c; fill-opacity: 0.8; stroke: #cd5c5c; stroke-opacity: 0.8"/>
     <use xlink:href="#mccd2be1605" x="87.001198" y="107.60203" style="fill: #cd5c5c; fill-opacity: 0.8; stroke: #cd5c5c; stroke-opacity: 0.8"/>
     <use xlink:href="#mccd2be1605" x="98.156422" y="164.957408" style="fill: #cd5c5c; fill-opacity: 0.8; stroke: #cd5c5c; stroke-opacity: 0.8"/>
     <use xlink:href="#mccd2be1605" x="162.644497" y="44.950664" style="fill: #cd5c5c; fill-opacity: 0.8; stroke: #cd5c5c; stroke-opacity: 0.8"/>
     <use xlink:href="#mccd2be1605" x="189.479083" y="105.595794" style="fill: #cd5c5c; fill-opacity: 0.8; stroke: #cd5c5c; stroke-opacity: 0.8"/>
     <use xlink:href="#mccd2be1605" x="136.715187" y="107.583918" style="fill: #cd5c5c; fill-opacity: 0.8; stroke: #cd5c5c; stroke-opacity: 0.8"/>
     <use xlink:href="#mccd2be1605" x="78.961665" y="128.53032" style="fill: #cd5c5c; fill-opacity: 0.8; stroke: #cd5c5c; stroke-opacity: 0.8"/>
     <use xlink:href="#mccd2be1605" x="112.161175" y="107.60285" style="fill: #cd5c5c; fill-opacity: 0.8; stroke: #cd5c5c; stroke-opacity: 0.8"/>
     <use xlink:href="#mccd2be1605" x="51.37889" y="107.602192" style="fill: #cd5c5c; fill-opacity: 0.8; stroke: #cd5c5c; stroke-opacity: 0.8"/>
     <use xlink:href="#mccd2be1605" x="46.145455" y="107.601793" style="fill: #cd5c5c; fill-opacity: 0.8; stroke: #cd5c5c; stroke-opacity: 0.8"/>
     <use xlink:href="#mccd2be1605" x="235.574346" y="170.202439" style="fill: #cd5c5c; fill-opacity: 0.8; stroke: #cd5c5c; stroke-opacity: 0.8"/>
     <use xlink:href="#mccd2be1605" x="53.279063" y="107.464063" style="fill: #cd5c5c; fill-opacity: 0.8; stroke: #cd5c5c; stroke-opacity: 0.8"/>
     <use xlink:href="#mccd2be1605" x="234.66746" y="98.485239" style="fill: #cd5c5c; fill-opacity: 0.8; stroke: #cd5c5c; stroke-opacity: 0.8"/>
     <use xlink:href="#mccd2be1605" x="218.968719" y="107.035262" style="fill: #cd5c5c; fill-opacity: 0.8; stroke: #cd5c5c; stroke-opacity: 0.8"/>
     <use xlink:href="#mccd2be1605" x="81.920339" y="85.67936" style="fill: #cd5c5c; fill-opacity: 0.8; stroke: #cd5c5c; stroke-opacity: 0.8"/>
     <use xlink:href="#mccd2be1605" x="123.799174" y="104.82562" style="fill: #cd5c5c; fill-opacity: 0.8; stroke: #cd5c5c; stroke-opacity: 0.8"/>
     <use xlink:href="#mccd2be1605" x="224.352928" y="102.718578" style="fill: #cd5c5c; fill-opacity: 0.8; stroke: #cd5c5c; stroke-opacity: 0.8"/>
     <use xlink:href="#mccd2be1605" x="204.348484" y="110.444872" style="fill: #cd5c5c; fill-opacity: 0.8; stroke: #cd5c5c; stroke-opacity: 0.8"/>
     <use xlink:href="#mccd2be1605" x="227.597222" y="107.472608" style="fill: #cd5c5c; fill-opacity: 0.8; stroke: #cd5c5c; stroke-opacity: 0.8"/>
     <use xlink:href="#mccd2be1605" x="121.438218" y="115.082235" style="fill: #cd5c5c; fill-opacity: 0.8; stroke: #cd5c5c; stroke-opacity: 0.8"/>
     <use xlink:href="#mccd2be1605" x="129.041484" y="86.806828" style="fill: #cd5c5c; fill-opacity: 0.8; stroke: #cd5c5c; stroke-opacity: 0.8"/>
     <use xlink:href="#mccd2be1605" x="236.403621" y="99.70911" style="fill: #cd5c5c; fill-opacity: 0.8; stroke: #cd5c5c; stroke-opacity: 0.8"/>
     <use xlink:href="#mccd2be1605" x="121.352378" y="107.599877" style="fill: #cd5c5c; fill-opacity: 0.8; stroke: #cd5c5c; stroke-opacity: 0.8"/>
     <use xlink:href="#mccd2be1605" x="195.835051" y="107.602135" style="fill: #cd5c5c; fill-opacity: 0.8; stroke: #cd5c5c; stroke-opacity: 0.8"/>
     <use xlink:href="#mccd2be1605" x="59.222901" y="82.378838" style="fill: #cd5c5c; fill-opacity: 0.8; stroke: #cd5c5c; stroke-opacity: 0.8"/>
     <use xlink:href="#mccd2be1605" x="206.893114" y="104.573831" style="fill: #cd5c5c; fill-opacity: 0.8; stroke: #cd5c5c; stroke-opacity: 0.8"/>
     <use xlink:href="#mccd2be1605" x="105.505417" y="107.595594" style="fill: #cd5c5c; fill-opacity: 0.8; stroke: #cd5c5c; stroke-opacity: 0.8"/>
     <use xlink:href="#mccd2be1605" x="68.962284" y="39.06" style="fill: #cd5c5c; fill-opacity: 0.8; stroke: #cd5c5c; stroke-opacity: 0.8"/>
     <use xlink:href="#mccd2be1605" x="129.842196" y="107.586759" style="fill: #cd5c5c; fill-opacity: 0.8; stroke: #cd5c5c; stroke-opacity: 0.8"/>
     <use xlink:href="#mccd2be1605" x="163.067312" y="130.974044" style="fill: #cd5c5c; fill-opacity: 0.8; stroke: #cd5c5c; stroke-opacity: 0.8"/>
     <use xlink:href="#mccd2be1605" x="206.509951" y="107.601282" style="fill: #cd5c5c; fill-opacity: 0.8; stroke: #cd5c5c; stroke-opacity: 0.8"/>
     <use xlink:href="#mccd2be1605" x="73.003516" y="108.150247" style="fill: #cd5c5c; fill-opacity: 0.8; stroke: #cd5c5c; stroke-opacity: 0.8"/>
     <use xlink:href="#mccd2be1605" x="86.646849" y="107.540928" style="fill: #cd5c5c; fill-opacity: 0.8; stroke: #cd5c5c; stroke-opacity: 0.8"/>
     <use xlink:href="#mccd2be1605" x="224.236883" y="98.545919" style="fill: #cd5c5c; fill-opacity: 0.8; stroke: #cd5c5c; stroke-opacity: 0.8"/>
     <use xlink:href="#mccd2be1605" x="233.29981" y="92.269073" style="fill: #cd5c5c; fill-opacity: 0.8; stroke: #cd5c5c; stroke-opacity: 0.8"/>
     <use xlink:href="#mccd2be1605" x="136.919709" y="160.525432" style="fill: #cd5c5c; fill-opacity: 0.8; stroke: #cd5c5c; stroke-opacity: 0.8"/>
     <use xlink:href="#mccd2be1605" x="206.227582" y="107.358111" style="fill: #cd5c5c; fill-opacity: 0.8; stroke: #cd5c5c; stroke-opacity: 0.8"/>
     <use xlink:href="#mccd2be1605" x="169.272887" y="107.60241" style="fill: #cd5c5c; fill-opacity: 0.8; stroke: #cd5c5c; stroke-opacity: 0.8"/>
     <use xlink:href="#mccd2be1605" x="154.775188" y="127.466877" style="fill: #cd5c5c; fill-opacity: 0.8; stroke: #cd5c5c; stroke-opacity: 0.8"/>
     <use xlink:href="#mccd2be1605" x="97.45892" y="107.602447" style="fill: #cd5c5c; fill-opacity: 0.8; stroke: #cd5c5c; stroke-opacity: 0.8"/>
     <use xlink:href="#mccd2be1605" x="203.550054" y="107.04259" style="fill: #cd5c5c; fill-opacity: 0.8; stroke: #cd5c5c; stroke-opacity: 0.8"/>
     <use xlink:href="#mccd2be1605" x="208.433017" y="107.482706" style="fill: #cd5c5c; fill-opacity: 0.8; stroke: #cd5c5c; stroke-opacity: 0.8"/>
     <use xlink:href="#mccd2be1605" x="107.87259" y="175.613195" style="fill: #cd5c5c; fill-opacity: 0.8; stroke: #cd5c5c; stroke-opacity: 0.8"/>
     <use xlink:href="#mccd2be1605" x="244.320685" y="116.84259" style="fill: #cd5c5c; fill-opacity: 0.8; stroke: #cd5c5c; stroke-opacity: 0.8"/>
     <use xlink:href="#mccd2be1605" x="187.729876" y="102.538329" style="fill: #cd5c5c; fill-opacity: 0.8; stroke: #cd5c5c; stroke-opacity: 0.8"/>
     <use xlink:href="#mccd2be1605" x="240.828686" y="117.599903" style="fill: #cd5c5c; fill-opacity: 0.8; stroke: #cd5c5c; stroke-opacity: 0.8"/>
     <use xlink:href="#mccd2be1605" x="55.601729" y="121.102334" style="fill: #cd5c5c; fill-opacity: 0.8; stroke: #cd5c5c; stroke-opacity: 0.8"/>
     <use xlink:href="#mccd2be1605" x="121.463615" y="144.530962" style="fill: #cd5c5c; fill-opacity: 0.8; stroke: #cd5c5c; stroke-opacity: 0.8"/>
     <use xlink:href="#mccd2be1605" x="230.556012" y="160.569761" style="fill: #cd5c5c; fill-opacity: 0.8; stroke: #cd5c5c; stroke-opacity: 0.8"/>
     <use xlink:href="#mccd2be1605" x="126.333741" y="92.938432" style="fill: #cd5c5c; fill-opacity: 0.8; stroke: #cd5c5c; stroke-opacity: 0.8"/>
     <use xlink:href="#mccd2be1605" x="234.904141" y="94.5746" style="fill: #cd5c5c; fill-opacity: 0.8; stroke: #cd5c5c; stroke-opacity: 0.8"/>
     <use xlink:href="#mccd2be1605" x="248.392631" y="69.748858" style="fill: #cd5c5c; fill-opacity: 0.8; stroke: #cd5c5c; stroke-opacity: 0.8"/>
     <use xlink:href="#mccd2be1605" x="59.373211" y="117.873226" style="fill: #cd5c5c; fill-opacity: 0.8; stroke: #cd5c5c; stroke-opacity: 0.8"/>
     <use xlink:href="#mccd2be1605" x="206.330867" y="137.411231" style="fill: #cd5c5c; fill-opacity: 0.8; stroke: #cd5c5c; stroke-opacity: 0.8"/>
     <use xlink:href="#mccd2be1605" x="231.499309" y="103.891661" style="fill: #cd5c5c; fill-opacity: 0.8; stroke: #cd5c5c; stroke-opacity: 0.8"/>
     <use xlink:href="#mccd2be1605" x="90.881543" y="113.009601" style="fill: #cd5c5c; fill-opacity: 0.8; stroke: #cd5c5c; stroke-opacity: 0.8"/>
     <use xlink:href="#mccd2be1605" x="77.352633" y="91.724212" style="fill: #cd5c5c; fill-opacity: 0.8; stroke: #cd5c5c; stroke-opacity: 0.8"/>
     <use xlink:href="#mccd2be1605" x="127.607067" y="109.494151" style="fill: #cd5c5c; fill-opacity: 0.8; stroke: #cd5c5c; stroke-opacity: 0.8"/>
     <use xlink:href="#mccd2be1605" x="80.048624" y="107.60064" style="fill: #cd5c5c; fill-opacity: 0.8; stroke: #cd5c5c; stroke-opacity: 0.8"/>
     <use xlink:href="#mccd2be1605" x="177.254436" y="108.597768" style="fill: #cd5c5c; fill-opacity: 0.8; stroke: #cd5c5c; stroke-opacity: 0.8"/>
     <use xlink:href="#mccd2be1605" x="161.684101" y="104.133967" style="fill: #cd5c5c; fill-opacity: 0.8; stroke: #cd5c5c; stroke-opacity: 0.8"/>
    </g>
   </g>
   <g id="line2d_1">
    <path d="M 46.145455 106.867578 
L 48.195041 106.912071 
L 50.244628 106.956563 
L 52.294215 107.001055 
L 54.343802 107.045548 
L 56.393388 107.09004 
L 58.442975 107.134532 
L 60.492562 107.179025 
L 62.542149 107.223517 
L 64.591736 107.268009 
L 66.641322 107.312502 
L 68.690909 107.356994 
L 70.740496 107.401486 
L 72.790083 107.445979 
L 74.839669 107.490471 
L 76.889256 107.534963 
L 78.938843 107.579456 
L 80.98843 107.623948 
L 83.038017 107.66844 
L 85.087603 107.712933 
L 87.13719 107.757425 
L 89.186777 107.801917 
L 91.236364 107.84641 
L 93.28595 107.890902 
L 95.335537 107.935394 
L 97.385124 107.979887 
L 99.434711 108.024379 
L 101.484298 108.068871 
L 103.533884 108.113364 
L 105.583471 108.157856 
L 107.633058 108.202348 
L 109.682645 108.246841 
L 111.732231 108.291333 
L 113.781818 108.335825 
L 115.831405 108.380318 
L 117.880992 108.42481 
L 119.930579 108.469302 
L 121.980165 108.513795 
L 124.029752 108.558287 
L 126.079339 108.602779 
L 128.128926 108.647272 
L 130.178512 108.691764 
L 132.228099 108.736256 
L 134.277686 108.780749 
L 136.327273 108.825241 
L 138.37686 108.869733 
L 140.426446 108.914226 
L 142.476033 108.958718 
L 144.52562 109.00321 
L 146.575207 109.047703 
L 148.624793 109.092195 
L 150.67438 109.136687 
L 152.723967 109.18118 
L 154.773554 109.225672 
L 156.82314 109.270164 
L 158.872727 109.314657 
L 160.922314 109.359149 
L 162.971901 109.403641 
L 165.021488 109.448134 
L 167.071074 109.492626 
L 169.120661 109.537118 
L 171.170248 109.581611 
L 173.219835 109.626103 
L 175.269421 109.670595 
L 177.319008 109.715088 
L 179.368595 109.75958 
L 181.418182 109.804072 
L 183.467769 109.848565 
L 185.517355 109.893057 
L 187.566942 109.937549 
L 189.616529 109.982042 
L 191.666116 110.026534 
L 193.715702 110.071026 
L 195.765289 110.115519 
L 197.814876 110.160011 
L 199.864463 110.204503 
L 201.91405 110.248996 
L 203.963636 110.293488 
L 206.013223 110.33798 
L 208.06281 110.382473 
L 210.112397 110.426965 
L 212.161983 110.471457 
L 214.21157 110.51595 
L 216.261157 110.560442 
L 218.310744 110.604934 
L 220.360331 110.649427 
L 222.409917 110.693919 
L 224.459504 110.738412 
L 226.509091 110.782904 
L 228.558678 110.827396 
L 230.608264 110.871889 
L 232.657851 110.916381 
L 234.707438 110.960873 
L 236.757025 111.005366 
L 238.806612 111.049858 
L 240.856198 111.09435 
L 242.905785 111.138843 
L 244.955372 111.183335 
L 247.004959 111.227827 
L 249.054545 111.27232 
" clip-path="url(#p57f7777eb8)" style="fill: none; stroke: #cd5c5c; stroke-opacity: 0.3; stroke-width: 2.25; stroke-linecap: square"/>
   </g>
   <g id="PolyCollection_1">
    <path d="M 46.145455 98.335428 
L 46.145455 115.125352 
L 48.195041 115.107517 
L 50.244628 115.079333 
L 52.294215 115.00035 
L 54.343802 114.882835 
L 56.393388 114.759535 
L 58.442975 114.729785 
L 60.492562 114.685479 
L 62.542149 114.644237 
L 64.591736 114.628011 
L 66.641322 114.556012 
L 68.690909 114.483991 
L 70.740496 114.427051 
L 72.790083 114.358049 
L 74.839669 114.284583 
L 76.889256 114.211118 
L 78.938843 114.135854 
L 80.98843 114.063025 
L 83.038017 113.989297 
L 85.087603 113.907823 
L 87.13719 113.846787 
L 89.186777 113.857976 
L 91.236364 113.82964 
L 93.28595 113.868292 
L 95.335537 113.892244 
L 97.385124 113.849655 
L 99.434711 113.802055 
L 101.484298 113.757939 
L 103.533884 113.832796 
L 105.583471 113.832611 
L 107.633058 113.828489 
L 109.682645 113.872124 
L 111.732231 113.91519 
L 113.781818 113.913216 
L 115.831405 113.828188 
L 117.880992 113.724002 
L 119.930579 113.752473 
L 121.980165 113.69821 
L 124.029752 113.658495 
L 126.079339 113.68843 
L 128.128926 113.670517 
L 130.178512 113.622954 
L 132.228099 113.624822 
L 134.277686 113.720994 
L 136.327273 113.815624 
L 138.37686 113.842292 
L 140.426446 113.870116 
L 142.476033 113.894393 
L 144.52562 113.969382 
L 146.575207 113.991734 
L 148.624793 114.054738 
L 150.67438 114.12701 
L 152.723967 114.189743 
L 154.773554 114.226569 
L 156.82314 114.238655 
L 158.872727 114.251817 
L 160.922314 114.348264 
L 162.971901 114.462944 
L 165.021488 114.576728 
L 167.071074 114.657752 
L 169.120661 114.693686 
L 171.170248 114.803867 
L 173.219835 114.901798 
L 175.269421 115.035059 
L 177.319008 115.164788 
L 179.368595 115.253388 
L 181.418182 115.341303 
L 183.467769 115.429202 
L 185.517355 115.516804 
L 187.566942 115.604734 
L 189.616529 115.753136 
L 191.666116 115.896087 
L 193.715702 116.028815 
L 195.765289 116.14431 
L 197.814876 116.188903 
L 199.864463 116.231623 
L 201.91405 116.298826 
L 203.963636 116.436759 
L 206.013223 116.628833 
L 208.06281 116.822574 
L 210.112397 116.983272 
L 212.161983 117.088962 
L 214.21157 117.232634 
L 216.261157 117.441532 
L 218.310744 117.556128 
L 220.360331 117.684034 
L 222.409917 117.835271 
L 224.459504 117.957272 
L 226.509091 118.053599 
L 228.558678 118.156105 
L 230.608264 118.264369 
L 232.657851 118.375895 
L 234.707438 118.546903 
L 236.757025 118.681639 
L 238.806612 118.800127 
L 240.856198 118.918562 
L 242.905785 119.036997 
L 244.955372 119.156654 
L 247.004959 119.313052 
L 249.054545 119.469178 
L 249.054545 103.05795 
L 249.054545 103.05795 
L 247.004959 103.181484 
L 244.955372 103.276578 
L 242.905785 103.34395 
L 240.856198 103.411323 
L 238.806612 103.479378 
L 236.757025 103.589318 
L 234.707438 103.688148 
L 232.657851 103.707974 
L 230.608264 103.765953 
L 228.558678 103.853652 
L 226.509091 103.91375 
L 224.459504 103.959106 
L 222.409917 104.014807 
L 220.360331 104.081106 
L 218.310744 104.147824 
L 216.261157 104.214095 
L 214.21157 104.203203 
L 212.161983 104.23997 
L 210.112397 104.321088 
L 208.06281 104.368274 
L 206.013223 104.366722 
L 203.963636 104.395189 
L 201.91405 104.42399 
L 199.864463 104.471023 
L 197.814876 104.49154 
L 195.765289 104.512057 
L 193.715702 104.534241 
L 191.666116 104.557028 
L 189.616529 104.556808 
L 187.566942 104.574771 
L 185.517355 104.619489 
L 183.467769 104.652168 
L 181.418182 104.708282 
L 179.368595 104.715551 
L 177.319008 104.722819 
L 175.269421 104.724303 
L 173.219835 104.746209 
L 171.170248 104.751597 
L 169.120661 104.699894 
L 167.071074 104.694147 
L 165.021488 104.609641 
L 162.971901 104.643185 
L 160.922314 104.605519 
L 158.872727 104.679745 
L 156.82314 104.68721 
L 154.773554 104.707945 
L 152.723967 104.603908 
L 150.67438 104.530977 
L 148.624793 104.48714 
L 146.575207 104.471645 
L 144.52562 104.508175 
L 142.476033 104.423712 
L 140.426446 104.398221 
L 138.37686 104.30276 
L 136.327273 104.219913 
L 134.277686 104.155623 
L 132.228099 104.034122 
L 130.178512 103.895738 
L 128.128926 103.797762 
L 126.079339 103.704918 
L 124.029752 103.574911 
L 121.980165 103.457451 
L 119.930579 103.331891 
L 117.880992 103.21761 
L 115.831405 103.105821 
L 113.781818 102.988142 
L 111.732231 102.870464 
L 109.682645 102.70689 
L 107.633058 102.636378 
L 105.583471 102.519538 
L 103.533884 102.348736 
L 101.484298 102.243018 
L 99.434711 102.144902 
L 97.385124 102.000923 
L 95.335537 101.835519 
L 93.28595 101.638746 
L 91.236364 101.441973 
L 89.186777 101.33195 
L 87.13719 101.225018 
L 85.087603 101.05967 
L 83.038017 100.811954 
L 80.98843 100.673508 
L 78.938843 100.535063 
L 76.889256 100.396617 
L 74.839669 100.260899 
L 72.790083 100.136001 
L 70.740496 100.075094 
L 68.690909 99.985849 
L 66.641322 99.843325 
L 64.591736 99.71116 
L 62.542149 99.55228 
L 60.492562 99.410441 
L 58.442975 99.228894 
L 56.393388 99.026894 
L 54.343802 98.91263 
L 52.294215 98.751243 
L 50.244628 98.612638 
L 48.195041 98.474033 
L 46.145455 98.335428 
z
" clip-path="url(#p57f7777eb8)" style="fill: #cd5c5c; fill-opacity: 0.15"/>
   </g>
   <g id="matplotlib.axis_1">
    <g id="xtick_1">
     <g id="line2d_2">
      <defs>
       <path id="mb915127dbd" d="M 0 0 
L 0 3.5 
" style="stroke: #000000"/>
      </defs>
      <g>
       <use xlink:href="#mb915127dbd" x="65.829883" y="224.28" style="stroke: #000000"/>
      </g>
     </g>
     <g id="text_1">
      <!-- 0.2 -->
      <g transform="translate(58.879883 238.437813) scale(0.1 -0.1)">
       <defs>
        <path id="ArialMT-30" d="M 266 2259 
Q 266 3072 433 3567 
Q 600 4063 929 4331 
Q 1259 4600 1759 4600 
Q 2128 4600 2406 4451 
Q 2684 4303 2865 4023 
Q 3047 3744 3150 3342 
Q 3253 2941 3253 2259 
Q 3253 1453 3087 958 
Q 2922 463 2592 192 
Q 2263 -78 1759 -78 
Q 1097 -78 719 397 
Q 266 969 266 2259 
z
M 844 2259 
Q 844 1131 1108 757 
Q 1372 384 1759 384 
Q 2147 384 2411 759 
Q 2675 1134 2675 2259 
Q 2675 3391 2411 3762 
Q 2147 4134 1753 4134 
Q 1366 4134 1134 3806 
Q 844 3388 844 2259 
z
" transform="scale(0.015625)"/>
        <path id="ArialMT-2e" d="M 581 0 
L 581 641 
L 1222 641 
L 1222 0 
L 581 0 
z
" transform="scale(0.015625)"/>
        <path id="ArialMT-32" d="M 3222 541 
L 3222 0 
L 194 0 
Q 188 203 259 391 
Q 375 700 629 1000 
Q 884 1300 1366 1694 
Q 2113 2306 2375 2664 
Q 2638 3022 2638 3341 
Q 2638 3675 2398 3904 
Q 2159 4134 1775 4134 
Q 1369 4134 1125 3890 
Q 881 3647 878 3216 
L 300 3275 
Q 359 3922 746 4261 
Q 1134 4600 1788 4600 
Q 2447 4600 2831 4234 
Q 3216 3869 3216 3328 
Q 3216 3053 3103 2787 
Q 2991 2522 2730 2228 
Q 2469 1934 1863 1422 
Q 1356 997 1212 845 
Q 1069 694 975 541 
L 3222 541 
z
" transform="scale(0.015625)"/>
       </defs>
       <use xlink:href="#ArialMT-30"/>
       <use xlink:href="#ArialMT-2e" x="55.615234"/>
       <use xlink:href="#ArialMT-32" x="83.398438"/>
      </g>
     </g>
    </g>
    <g id="xtick_2">
     <g id="line2d_3">
      <g>
       <use xlink:href="#mb915127dbd" x="120.727562" y="224.28" style="stroke: #000000"/>
      </g>
     </g>
     <g id="text_2">
      <!-- 0.4 -->
      <g transform="translate(113.777562 238.437813) scale(0.1 -0.1)">
       <defs>
        <path id="ArialMT-34" d="M 2069 0 
L 2069 1097 
L 81 1097 
L 81 1613 
L 2172 4581 
L 2631 4581 
L 2631 1613 
L 3250 1613 
L 3250 1097 
L 2631 1097 
L 2631 0 
L 2069 0 
z
M 2069 1613 
L 2069 3678 
L 634 1613 
L 2069 1613 
z
" transform="scale(0.015625)"/>
       </defs>
       <use xlink:href="#ArialMT-30"/>
       <use xlink:href="#ArialMT-2e" x="55.615234"/>
       <use xlink:href="#ArialMT-34" x="83.398438"/>
      </g>
     </g>
    </g>
    <g id="xtick_3">
     <g id="line2d_4">
      <g>
       <use xlink:href="#mb915127dbd" x="175.625241" y="224.28" style="stroke: #000000"/>
      </g>
     </g>
     <g id="text_3">
      <!-- 0.6 -->
      <g transform="translate(168.675241 238.437813) scale(0.1 -0.1)">
       <defs>
        <path id="ArialMT-36" d="M 3184 3459 
L 2625 3416 
Q 2550 3747 2413 3897 
Q 2184 4138 1850 4138 
Q 1581 4138 1378 3988 
Q 1113 3794 959 3422 
Q 806 3050 800 2363 
Q 1003 2672 1297 2822 
Q 1591 2972 1913 2972 
Q 2475 2972 2870 2558 
Q 3266 2144 3266 1488 
Q 3266 1056 3080 686 
Q 2894 316 2569 119 
Q 2244 -78 1831 -78 
Q 1128 -78 684 439 
Q 241 956 241 2144 
Q 241 3472 731 4075 
Q 1159 4600 1884 4600 
Q 2425 4600 2770 4297 
Q 3116 3994 3184 3459 
z
M 888 1484 
Q 888 1194 1011 928 
Q 1134 663 1356 523 
Q 1578 384 1822 384 
Q 2178 384 2434 671 
Q 2691 959 2691 1453 
Q 2691 1928 2437 2201 
Q 2184 2475 1800 2475 
Q 1419 2475 1153 2201 
Q 888 1928 888 1484 
z
" transform="scale(0.015625)"/>
       </defs>
       <use xlink:href="#ArialMT-30"/>
       <use xlink:href="#ArialMT-2e" x="55.615234"/>
       <use xlink:href="#ArialMT-36" x="83.398438"/>
      </g>
     </g>
    </g>
    <g id="xtick_4">
     <g id="line2d_5">
      <g>
       <use xlink:href="#mb915127dbd" x="230.522921" y="224.28" style="stroke: #000000"/>
      </g>
     </g>
     <g id="text_4">
      <!-- 0.8 -->
      <g transform="translate(223.572921 238.437813) scale(0.1 -0.1)">
       <defs>
        <path id="ArialMT-38" d="M 1131 2484 
Q 781 2613 612 2850 
Q 444 3088 444 3419 
Q 444 3919 803 4259 
Q 1163 4600 1759 4600 
Q 2359 4600 2725 4251 
Q 3091 3903 3091 3403 
Q 3091 3084 2923 2848 
Q 2756 2613 2416 2484 
Q 2838 2347 3058 2040 
Q 3278 1734 3278 1309 
Q 3278 722 2862 322 
Q 2447 -78 1769 -78 
Q 1091 -78 675 323 
Q 259 725 259 1325 
Q 259 1772 486 2073 
Q 713 2375 1131 2484 
z
M 1019 3438 
Q 1019 3113 1228 2906 
Q 1438 2700 1772 2700 
Q 2097 2700 2305 2904 
Q 2513 3109 2513 3406 
Q 2513 3716 2298 3927 
Q 2084 4138 1766 4138 
Q 1444 4138 1231 3931 
Q 1019 3725 1019 3438 
z
M 838 1322 
Q 838 1081 952 856 
Q 1066 631 1291 507 
Q 1516 384 1775 384 
Q 2178 384 2440 643 
Q 2703 903 2703 1303 
Q 2703 1709 2433 1975 
Q 2163 2241 1756 2241 
Q 1359 2241 1098 1978 
Q 838 1716 838 1322 
z
" transform="scale(0.015625)"/>
       </defs>
       <use xlink:href="#ArialMT-30"/>
       <use xlink:href="#ArialMT-2e" x="55.615234"/>
       <use xlink:href="#ArialMT-38" x="83.398438"/>
      </g>
     </g>
    </g>
    <g id="text_5">
     <!-- real lambda -->
     <g transform="translate(121.476562 251.583125) scale(0.1 -0.1)">
      <defs>
       <path id="ArialMT-72" d="M 416 0 
L 416 3319 
L 922 3319 
L 922 2816 
Q 1116 3169 1280 3281 
Q 1444 3394 1641 3394 
Q 1925 3394 2219 3213 
L 2025 2691 
Q 1819 2813 1613 2813 
Q 1428 2813 1281 2702 
Q 1134 2591 1072 2394 
Q 978 2094 978 1738 
L 978 0 
L 416 0 
z
" transform="scale(0.015625)"/>
       <path id="ArialMT-65" d="M 2694 1069 
L 3275 997 
Q 3138 488 2766 206 
Q 2394 -75 1816 -75 
Q 1088 -75 661 373 
Q 234 822 234 1631 
Q 234 2469 665 2931 
Q 1097 3394 1784 3394 
Q 2450 3394 2872 2941 
Q 3294 2488 3294 1666 
Q 3294 1616 3291 1516 
L 816 1516 
Q 847 969 1125 678 
Q 1403 388 1819 388 
Q 2128 388 2347 550 
Q 2566 713 2694 1069 
z
M 847 1978 
L 2700 1978 
Q 2663 2397 2488 2606 
Q 2219 2931 1791 2931 
Q 1403 2931 1139 2672 
Q 875 2413 847 1978 
z
" transform="scale(0.015625)"/>
       <path id="ArialMT-61" d="M 2588 409 
Q 2275 144 1986 34 
Q 1697 -75 1366 -75 
Q 819 -75 525 192 
Q 231 459 231 875 
Q 231 1119 342 1320 
Q 453 1522 633 1644 
Q 813 1766 1038 1828 
Q 1203 1872 1538 1913 
Q 2219 1994 2541 2106 
Q 2544 2222 2544 2253 
Q 2544 2597 2384 2738 
Q 2169 2928 1744 2928 
Q 1347 2928 1158 2789 
Q 969 2650 878 2297 
L 328 2372 
Q 403 2725 575 2942 
Q 747 3159 1072 3276 
Q 1397 3394 1825 3394 
Q 2250 3394 2515 3294 
Q 2781 3194 2906 3042 
Q 3031 2891 3081 2659 
Q 3109 2516 3109 2141 
L 3109 1391 
Q 3109 606 3145 398 
Q 3181 191 3288 0 
L 2700 0 
Q 2613 175 2588 409 
z
M 2541 1666 
Q 2234 1541 1622 1453 
Q 1275 1403 1131 1340 
Q 988 1278 909 1158 
Q 831 1038 831 891 
Q 831 666 1001 516 
Q 1172 366 1500 366 
Q 1825 366 2078 508 
Q 2331 650 2450 897 
Q 2541 1088 2541 1459 
L 2541 1666 
z
" transform="scale(0.015625)"/>
       <path id="ArialMT-6c" d="M 409 0 
L 409 4581 
L 972 4581 
L 972 0 
L 409 0 
z
" transform="scale(0.015625)"/>
       <path id="ArialMT-20" transform="scale(0.015625)"/>
       <path id="ArialMT-6d" d="M 422 0 
L 422 3319 
L 925 3319 
L 925 2853 
Q 1081 3097 1340 3245 
Q 1600 3394 1931 3394 
Q 2300 3394 2536 3241 
Q 2772 3088 2869 2813 
Q 3263 3394 3894 3394 
Q 4388 3394 4653 3120 
Q 4919 2847 4919 2278 
L 4919 0 
L 4359 0 
L 4359 2091 
Q 4359 2428 4304 2576 
Q 4250 2725 4106 2815 
Q 3963 2906 3769 2906 
Q 3419 2906 3187 2673 
Q 2956 2441 2956 1928 
L 2956 0 
L 2394 0 
L 2394 2156 
Q 2394 2531 2256 2718 
Q 2119 2906 1806 2906 
Q 1569 2906 1367 2781 
Q 1166 2656 1075 2415 
Q 984 2175 984 1722 
L 984 0 
L 422 0 
z
" transform="scale(0.015625)"/>
       <path id="ArialMT-62" d="M 941 0 
L 419 0 
L 419 4581 
L 981 4581 
L 981 2947 
Q 1338 3394 1891 3394 
Q 2197 3394 2470 3270 
Q 2744 3147 2920 2923 
Q 3097 2700 3197 2384 
Q 3297 2069 3297 1709 
Q 3297 856 2875 390 
Q 2453 -75 1863 -75 
Q 1275 -75 941 416 
L 941 0 
z
M 934 1684 
Q 934 1088 1097 822 
Q 1363 388 1816 388 
Q 2184 388 2453 708 
Q 2722 1028 2722 1663 
Q 2722 2313 2464 2622 
Q 2206 2931 1841 2931 
Q 1472 2931 1203 2611 
Q 934 2291 934 1684 
z
" transform="scale(0.015625)"/>
       <path id="ArialMT-64" d="M 2575 0 
L 2575 419 
Q 2259 -75 1647 -75 
Q 1250 -75 917 144 
Q 584 363 401 755 
Q 219 1147 219 1656 
Q 219 2153 384 2558 
Q 550 2963 881 3178 
Q 1213 3394 1622 3394 
Q 1922 3394 2156 3267 
Q 2391 3141 2538 2938 
L 2538 4581 
L 3097 4581 
L 3097 0 
L 2575 0 
z
M 797 1656 
Q 797 1019 1065 703 
Q 1334 388 1700 388 
Q 2069 388 2326 689 
Q 2584 991 2584 1609 
Q 2584 2291 2321 2609 
Q 2059 2928 1675 2928 
Q 1300 2928 1048 2622 
Q 797 2316 797 1656 
z
" transform="scale(0.015625)"/>
      </defs>
      <use xlink:href="#ArialMT-72"/>
      <use xlink:href="#ArialMT-65" x="33.300781"/>
      <use xlink:href="#ArialMT-61" x="88.916016"/>
      <use xlink:href="#ArialMT-6c" x="144.53125"/>
      <use xlink:href="#ArialMT-20" x="166.748047"/>
      <use xlink:href="#ArialMT-6c" x="194.53125"/>
      <use xlink:href="#ArialMT-61" x="216.748047"/>
      <use xlink:href="#ArialMT-6d" x="272.363281"/>
      <use xlink:href="#ArialMT-62" x="355.664062"/>
      <use xlink:href="#ArialMT-64" x="411.279297"/>
      <use xlink:href="#ArialMT-61" x="466.894531"/>
     </g>
    </g>
   </g>
   <g id="matplotlib.axis_2">
    <g id="ytick_1">
     <g id="line2d_6">
      <defs>
       <path id="m273c2296b8" d="M 0 0 
L -3.5 0 
" style="stroke: #000000"/>
      </defs>
      <g>
       <use xlink:href="#m273c2296b8" x="36" y="222.100447" style="stroke: #000000"/>
      </g>
     </g>
     <g id="text_6">
      <!-- 0.2 -->
      <g transform="translate(15.1 225.679353) scale(0.1 -0.1)">
       <use xlink:href="#ArialMT-30"/>
       <use xlink:href="#ArialMT-2e" x="55.615234"/>
       <use xlink:href="#ArialMT-32" x="83.398438"/>
      </g>
     </g>
    </g>
    <g id="ytick_2">
     <g id="line2d_7">
      <g>
       <use xlink:href="#m273c2296b8" x="36" y="183.934772" style="stroke: #000000"/>
      </g>
     </g>
     <g id="text_7">
      <!-- 0.3 -->
      <g transform="translate(15.1 187.513678) scale(0.1 -0.1)">
       <defs>
        <path id="ArialMT-33" d="M 269 1209 
L 831 1284 
Q 928 806 1161 595 
Q 1394 384 1728 384 
Q 2125 384 2398 659 
Q 2672 934 2672 1341 
Q 2672 1728 2419 1979 
Q 2166 2231 1775 2231 
Q 1616 2231 1378 2169 
L 1441 2663 
Q 1497 2656 1531 2656 
Q 1891 2656 2178 2843 
Q 2466 3031 2466 3422 
Q 2466 3731 2256 3934 
Q 2047 4138 1716 4138 
Q 1388 4138 1169 3931 
Q 950 3725 888 3313 
L 325 3413 
Q 428 3978 793 4289 
Q 1159 4600 1703 4600 
Q 2078 4600 2393 4439 
Q 2709 4278 2876 4000 
Q 3044 3722 3044 3409 
Q 3044 3113 2884 2869 
Q 2725 2625 2413 2481 
Q 2819 2388 3044 2092 
Q 3269 1797 3269 1353 
Q 3269 753 2831 336 
Q 2394 -81 1725 -81 
Q 1122 -81 723 278 
Q 325 638 269 1209 
z
" transform="scale(0.015625)"/>
       </defs>
       <use xlink:href="#ArialMT-30"/>
       <use xlink:href="#ArialMT-2e" x="55.615234"/>
       <use xlink:href="#ArialMT-33" x="83.398438"/>
      </g>
     </g>
    </g>
    <g id="ytick_3">
     <g id="line2d_8">
      <g>
       <use xlink:href="#m273c2296b8" x="36" y="145.769096" style="stroke: #000000"/>
      </g>
     </g>
     <g id="text_8">
      <!-- 0.4 -->
      <g transform="translate(15.1 149.348002) scale(0.1 -0.1)">
       <use xlink:href="#ArialMT-30"/>
       <use xlink:href="#ArialMT-2e" x="55.615234"/>
       <use xlink:href="#ArialMT-34" x="83.398438"/>
      </g>
     </g>
    </g>
    <g id="ytick_4">
     <g id="line2d_9">
      <g>
       <use xlink:href="#m273c2296b8" x="36" y="107.603421" style="stroke: #000000"/>
      </g>
     </g>
     <g id="text_9">
      <!-- 0.5 -->
      <g transform="translate(15.1 111.182327) scale(0.1 -0.1)">
       <defs>
        <path id="ArialMT-35" d="M 266 1200 
L 856 1250 
Q 922 819 1161 601 
Q 1400 384 1738 384 
Q 2144 384 2425 690 
Q 2706 997 2706 1503 
Q 2706 1984 2436 2262 
Q 2166 2541 1728 2541 
Q 1456 2541 1237 2417 
Q 1019 2294 894 2097 
L 366 2166 
L 809 4519 
L 3088 4519 
L 3088 3981 
L 1259 3981 
L 1013 2750 
Q 1425 3038 1878 3038 
Q 2478 3038 2890 2622 
Q 3303 2206 3303 1553 
Q 3303 931 2941 478 
Q 2500 -78 1738 -78 
Q 1113 -78 717 272 
Q 322 622 266 1200 
z
" transform="scale(0.015625)"/>
       </defs>
       <use xlink:href="#ArialMT-30"/>
       <use xlink:href="#ArialMT-2e" x="55.615234"/>
       <use xlink:href="#ArialMT-35" x="83.398438"/>
      </g>
     </g>
    </g>
    <g id="ytick_5">
     <g id="line2d_10">
      <g>
       <use xlink:href="#m273c2296b8" x="36" y="69.437745" style="stroke: #000000"/>
      </g>
     </g>
     <g id="text_10">
      <!-- 0.6 -->
      <g transform="translate(15.1 73.016651) scale(0.1 -0.1)">
       <use xlink:href="#ArialMT-30"/>
       <use xlink:href="#ArialMT-2e" x="55.615234"/>
       <use xlink:href="#ArialMT-36" x="83.398438"/>
      </g>
     </g>
    </g>
    <g id="ytick_6">
     <g id="line2d_11">
      <g>
       <use xlink:href="#m273c2296b8" x="36" y="31.27207" style="stroke: #000000"/>
      </g>
     </g>
     <g id="text_11">
      <!-- 0.7 -->
      <g transform="translate(15.1 34.850976) scale(0.1 -0.1)">
       <defs>
        <path id="ArialMT-37" d="M 303 3981 
L 303 4522 
L 3269 4522 
L 3269 4084 
Q 2831 3619 2401 2847 
Q 1972 2075 1738 1259 
Q 1569 684 1522 0 
L 944 0 
Q 953 541 1156 1306 
Q 1359 2072 1739 2783 
Q 2119 3494 2547 3981 
L 303 3981 
z
" transform="scale(0.015625)"/>
       </defs>
       <use xlink:href="#ArialMT-30"/>
       <use xlink:href="#ArialMT-2e" x="55.615234"/>
       <use xlink:href="#ArialMT-37" x="83.398438"/>
      </g>
     </g>
    </g>
    <g id="text_12">
     <!-- recovered lambda -->
     <g transform="translate(9.1125 167.27875) rotate(-90) scale(0.1 -0.1)">
      <defs>
       <path id="ArialMT-63" d="M 2588 1216 
L 3141 1144 
Q 3050 572 2676 248 
Q 2303 -75 1759 -75 
Q 1078 -75 664 370 
Q 250 816 250 1647 
Q 250 2184 428 2587 
Q 606 2991 970 3192 
Q 1334 3394 1763 3394 
Q 2303 3394 2647 3120 
Q 2991 2847 3088 2344 
L 2541 2259 
Q 2463 2594 2264 2762 
Q 2066 2931 1784 2931 
Q 1359 2931 1093 2626 
Q 828 2322 828 1663 
Q 828 994 1084 691 
Q 1341 388 1753 388 
Q 2084 388 2306 591 
Q 2528 794 2588 1216 
z
" transform="scale(0.015625)"/>
       <path id="ArialMT-6f" d="M 213 1659 
Q 213 2581 725 3025 
Q 1153 3394 1769 3394 
Q 2453 3394 2887 2945 
Q 3322 2497 3322 1706 
Q 3322 1066 3130 698 
Q 2938 331 2570 128 
Q 2203 -75 1769 -75 
Q 1072 -75 642 372 
Q 213 819 213 1659 
z
M 791 1659 
Q 791 1022 1069 705 
Q 1347 388 1769 388 
Q 2188 388 2466 706 
Q 2744 1025 2744 1678 
Q 2744 2294 2464 2611 
Q 2184 2928 1769 2928 
Q 1347 2928 1069 2612 
Q 791 2297 791 1659 
z
" transform="scale(0.015625)"/>
       <path id="ArialMT-76" d="M 1344 0 
L 81 3319 
L 675 3319 
L 1388 1331 
Q 1503 1009 1600 663 
Q 1675 925 1809 1294 
L 2547 3319 
L 3125 3319 
L 1869 0 
L 1344 0 
z
" transform="scale(0.015625)"/>
      </defs>
      <use xlink:href="#ArialMT-72"/>
      <use xlink:href="#ArialMT-65" x="33.300781"/>
      <use xlink:href="#ArialMT-63" x="88.916016"/>
      <use xlink:href="#ArialMT-6f" x="138.916016"/>
      <use xlink:href="#ArialMT-76" x="194.53125"/>
      <use xlink:href="#ArialMT-65" x="244.53125"/>
      <use xlink:href="#ArialMT-72" x="300.146484"/>
      <use xlink:href="#ArialMT-65" x="333.447266"/>
      <use xlink:href="#ArialMT-64" x="389.0625"/>
      <use xlink:href="#ArialMT-20" x="444.677734"/>
      <use xlink:href="#ArialMT-6c" x="472.460938"/>
      <use xlink:href="#ArialMT-61" x="494.677734"/>
      <use xlink:href="#ArialMT-6d" x="550.292969"/>
      <use xlink:href="#ArialMT-62" x="633.59375"/>
      <use xlink:href="#ArialMT-64" x="689.208984"/>
      <use xlink:href="#ArialMT-61" x="744.824219"/>
     </g>
    </g>
   </g>
   <g id="patch_3">
    <path d="M 36 224.28 
L 36 30.24 
" style="fill: none; stroke: #000000; stroke-linejoin: miter; stroke-linecap: square"/>
   </g>
   <g id="patch_4">
    <path d="M 36 224.28 
L 259.2 224.28 
" style="fill: none; stroke: #000000; stroke-linejoin: miter; stroke-linecap: square"/>
   </g>
  </g>
 </g>
 <defs>
  <clipPath id="p57f7777eb8">
   <rect x="36" y="30.24" width="223.2" height="194.04"/>
  </clipPath>
 </defs>
</svg>
