<?xml version="1.0" encoding="utf-8" standalone="no"?>
<!DOCTYPE svg PUBLIC "-//W3C//DTD SVG 1.1//EN"
  "http://www.w3.org/Graphics/SVG/1.1/DTD/svg11.dtd">
<svg xmlns:xlink="http://www.w3.org/1999/xlink" width="288pt" height="252pt" viewBox="0 0 288 252" xmlns="http://www.w3.org/2000/svg" version="1.1">
 <metadata>
  <rdf:RDF xmlns:dc="http://purl.org/dc/elements/1.1/" xmlns:cc="http://creativecommons.org/ns#" xmlns:rdf="http://www.w3.org/1999/02/22-rdf-syntax-ns#">
   <cc:Work>
    <dc:type rdf:resource="http://purl.org/dc/dcmitype/StillImage"/>
    <dc:date>2025-04-11T16:11:12.350122</dc:date>
    <dc:format>image/svg+xml</dc:format>
    <dc:creator>
     <cc:Agent>
      <dc:title>Matplotlib v3.7.1, https://matplotlib.org/</dc:title>
     </cc:Agent>
    </dc:creator>
   </cc:Work>
  </rdf:RDF>
 </metadata>
 <defs>
  <style type="text/css">*{stroke-linejoin: round; stroke-linecap: butt}</style>
 </defs>
 <g id="figure_1">
  <g id="patch_1">
   <path d="M 0 252 
L 288 252 
L 288 0 
L 0 0 
L 0 252 
z
" style="fill: none"/>
  </g>
  <g id="axes_1">
   <g id="patch_2">
    <path d="M 36 224.28 
L 259.2 224.28 
L 259.2 30.24 
L 36 30.24 
L 36 224.28 
z
" style="fill: none"/>
   </g>
   <g id="PathCollection_1">
    <defs>
     <path id="m0043332ed2" d="M 0 3 
C 0.795609 3 1.55874 2.683901 2.12132 2.12132 
C 2.683901 1.55874 3 0.795609 3 0 
C 3 -0.795609 2.683901 -1.55874 2.12132 -2.12132 
C 1.55874 -2.683901 0.795609 -3 0 -3 
C -0.795609 -3 -1.55874 -2.683901 -2.12132 -2.12132 
C -2.683901 -1.55874 -3 -0.795609 -3 0 
C -3 0.795609 -2.683901 1.55874 -2.12132 2.12132 
C -1.55874 2.683901 -0.795609 3 0 3 
z
" style="stroke: #cd5c5c; stroke-opacity: 0.8"/>
    </defs>
    <g clip-path="url(#p6d0c66f17a)">
     <use xlink:href="#m0043332ed2" x="196.9262" y="144.172438" style="fill: #cd5c5c; fill-opacity: 0.8; stroke: #cd5c5c; stroke-opacity: 0.8"/>
     <use xlink:href="#m0043332ed2" x="222.606724" y="158.841086" style="fill: #cd5c5c; fill-opacity: 0.8; stroke: #cd5c5c; stroke-opacity: 0.8"/>
     <use xlink:href="#m0043332ed2" x="199.347535" y="135.632123" style="fill: #cd5c5c; fill-opacity: 0.8; stroke: #cd5c5c; stroke-opacity: 0.8"/>
     <use xlink:href="#m0043332ed2" x="154.161435" y="135.997783" style="fill: #cd5c5c; fill-opacity: 0.8; stroke: #cd5c5c; stroke-opacity: 0.8"/>
     <use xlink:href="#m0043332ed2" x="50.89267" y="78.468763" style="fill: #cd5c5c; fill-opacity: 0.8; stroke: #cd5c5c; stroke-opacity: 0.8"/>
     <use xlink:href="#m0043332ed2" x="147.420519" y="118.296627" style="fill: #cd5c5c; fill-opacity: 0.8; stroke: #cd5c5c; stroke-opacity: 0.8"/>
     <use xlink:href="#m0043332ed2" x="54.507693" y="133.655211" style="fill: #cd5c5c; fill-opacity: 0.8; stroke: #cd5c5c; stroke-opacity: 0.8"/>
     <use xlink:href="#m0043332ed2" x="244.661674" y="54.914643" style="fill: #cd5c5c; fill-opacity: 0.8; stroke: #cd5c5c; stroke-opacity: 0.8"/>
     <use xlink:href="#m0043332ed2" x="107.701033" y="125.755076" style="fill: #cd5c5c; fill-opacity: 0.8; stroke: #cd5c5c; stroke-opacity: 0.8"/>
     <use xlink:href="#m0043332ed2" x="201.028894" y="125.918388" style="fill: #cd5c5c; fill-opacity: 0.8; stroke: #cd5c5c; stroke-opacity: 0.8"/>
     <use xlink:href="#m0043332ed2" x="53.680147" y="180.12549" style="fill: #cd5c5c; fill-opacity: 0.8; stroke: #cd5c5c; stroke-opacity: 0.8"/>
     <use xlink:href="#m0043332ed2" x="139.452056" y="114.622373" style="fill: #cd5c5c; fill-opacity: 0.8; stroke: #cd5c5c; stroke-opacity: 0.8"/>
     <use xlink:href="#m0043332ed2" x="59.091131" y="189.727545" style="fill: #cd5c5c; fill-opacity: 0.8; stroke: #cd5c5c; stroke-opacity: 0.8"/>
     <use xlink:href="#m0043332ed2" x="183.211408" y="66.433196" style="fill: #cd5c5c; fill-opacity: 0.8; stroke: #cd5c5c; stroke-opacity: 0.8"/>
     <use xlink:href="#m0043332ed2" x="54.066951" y="66.288944" style="fill: #cd5c5c; fill-opacity: 0.8; stroke: #cd5c5c; stroke-opacity: 0.8"/>
     <use xlink:href="#m0043332ed2" x="234.984456" y="125.908073" style="fill: #cd5c5c; fill-opacity: 0.8; stroke: #cd5c5c; stroke-opacity: 0.8"/>
     <use xlink:href="#m0043332ed2" x="246.233247" y="60.027883" style="fill: #cd5c5c; fill-opacity: 0.8; stroke: #cd5c5c; stroke-opacity: 0.8"/>
     <use xlink:href="#m0043332ed2" x="94.118857" y="129.868703" style="fill: #cd5c5c; fill-opacity: 0.8; stroke: #cd5c5c; stroke-opacity: 0.8"/>
     <use xlink:href="#m0043332ed2" x="50.46983" y="189.797059" style="fill: #cd5c5c; fill-opacity: 0.8; stroke: #cd5c5c; stroke-opacity: 0.8"/>
     <use xlink:href="#m0043332ed2" x="243.693678" y="47.688261" style="fill: #cd5c5c; fill-opacity: 0.8; stroke: #cd5c5c; stroke-opacity: 0.8"/>
     <use xlink:href="#m0043332ed2" x="97.541221" y="207.427155" style="fill: #cd5c5c; fill-opacity: 0.8; stroke: #cd5c5c; stroke-opacity: 0.8"/>
     <use xlink:href="#m0043332ed2" x="63.663329" y="134.477302" style="fill: #cd5c5c; fill-opacity: 0.8; stroke: #cd5c5c; stroke-opacity: 0.8"/>
     <use xlink:href="#m0043332ed2" x="180.322104" y="130.4145" style="fill: #cd5c5c; fill-opacity: 0.8; stroke: #cd5c5c; stroke-opacity: 0.8"/>
     <use xlink:href="#m0043332ed2" x="237.578431" y="78.655398" style="fill: #cd5c5c; fill-opacity: 0.8; stroke: #cd5c5c; stroke-opacity: 0.8"/>
     <use xlink:href="#m0043332ed2" x="196.830361" y="213.55311" style="fill: #cd5c5c; fill-opacity: 0.8; stroke: #cd5c5c; stroke-opacity: 0.8"/>
     <use xlink:href="#m0043332ed2" x="158.242512" y="125.901116" style="fill: #cd5c5c; fill-opacity: 0.8; stroke: #cd5c5c; stroke-opacity: 0.8"/>
     <use xlink:href="#m0043332ed2" x="246.554588" y="125.610267" style="fill: #cd5c5c; fill-opacity: 0.8; stroke: #cd5c5c; stroke-opacity: 0.8"/>
     <use xlink:href="#m0043332ed2" x="69.171521" y="167.045992" style="fill: #cd5c5c; fill-opacity: 0.8; stroke: #cd5c5c; stroke-opacity: 0.8"/>
     <use xlink:href="#m0043332ed2" x="141.410685" y="125.913374" style="fill: #cd5c5c; fill-opacity: 0.8; stroke: #cd5c5c; stroke-opacity: 0.8"/>
     <use xlink:href="#m0043332ed2" x="211.908049" y="188.791562" style="fill: #cd5c5c; fill-opacity: 0.8; stroke: #cd5c5c; stroke-opacity: 0.8"/>
     <use xlink:href="#m0043332ed2" x="117.803281" y="154.940571" style="fill: #cd5c5c; fill-opacity: 0.8; stroke: #cd5c5c; stroke-opacity: 0.8"/>
     <use xlink:href="#m0043332ed2" x="65.554016" y="131.050161" style="fill: #cd5c5c; fill-opacity: 0.8; stroke: #cd5c5c; stroke-opacity: 0.8"/>
     <use xlink:href="#m0043332ed2" x="78.163558" y="125.914401" style="fill: #cd5c5c; fill-opacity: 0.8; stroke: #cd5c5c; stroke-opacity: 0.8"/>
     <use xlink:href="#m0043332ed2" x="105.493748" y="176.699512" style="fill: #cd5c5c; fill-opacity: 0.8; stroke: #cd5c5c; stroke-opacity: 0.8"/>
     <use xlink:href="#m0043332ed2" x="87.148739" y="126.038535" style="fill: #cd5c5c; fill-opacity: 0.8; stroke: #cd5c5c; stroke-opacity: 0.8"/>
     <use xlink:href="#m0043332ed2" x="55.059832" y="183.215587" style="fill: #cd5c5c; fill-opacity: 0.8; stroke: #cd5c5c; stroke-opacity: 0.8"/>
     <use xlink:href="#m0043332ed2" x="235.704516" y="125.905976" style="fill: #cd5c5c; fill-opacity: 0.8; stroke: #cd5c5c; stroke-opacity: 0.8"/>
     <use xlink:href="#m0043332ed2" x="211.844581" y="86.799848" style="fill: #cd5c5c; fill-opacity: 0.8; stroke: #cd5c5c; stroke-opacity: 0.8"/>
     <use xlink:href="#m0043332ed2" x="208.00848" y="44.346985" style="fill: #cd5c5c; fill-opacity: 0.8; stroke: #cd5c5c; stroke-opacity: 0.8"/>
     <use xlink:href="#m0043332ed2" x="108.668588" y="126.413892" style="fill: #cd5c5c; fill-opacity: 0.8; stroke: #cd5c5c; stroke-opacity: 0.8"/>
     <use xlink:href="#m0043332ed2" x="49.18924" y="125.907156" style="fill: #cd5c5c; fill-opacity: 0.8; stroke: #cd5c5c; stroke-opacity: 0.8"/>
     <use xlink:href="#m0043332ed2" x="109.927838" y="170.307009" style="fill: #cd5c5c; fill-opacity: 0.8; stroke: #cd5c5c; stroke-opacity: 0.8"/>
     <use xlink:href="#m0043332ed2" x="91.295744" y="151.061151" style="fill: #cd5c5c; fill-opacity: 0.8; stroke: #cd5c5c; stroke-opacity: 0.8"/>
     <use xlink:href="#m0043332ed2" x="187.519402" y="139.095855" style="fill: #cd5c5c; fill-opacity: 0.8; stroke: #cd5c5c; stroke-opacity: 0.8"/>
     <use xlink:href="#m0043332ed2" x="235.980512" y="127.122832" style="fill: #cd5c5c; fill-opacity: 0.8; stroke: #cd5c5c; stroke-opacity: 0.8"/>
     <use xlink:href="#m0043332ed2" x="211.462783" y="168.81923" style="fill: #cd5c5c; fill-opacity: 0.8; stroke: #cd5c5c; stroke-opacity: 0.8"/>
     <use xlink:href="#m0043332ed2" x="93.938626" y="125.607397" style="fill: #cd5c5c; fill-opacity: 0.8; stroke: #cd5c5c; stroke-opacity: 0.8"/>
     <use xlink:href="#m0043332ed2" x="47.363365" y="125.633129" style="fill: #cd5c5c; fill-opacity: 0.8; stroke: #cd5c5c; stroke-opacity: 0.8"/>
     <use xlink:href="#m0043332ed2" x="178.877679" y="125.915589" style="fill: #cd5c5c; fill-opacity: 0.8; stroke: #cd5c5c; stroke-opacity: 0.8"/>
     <use xlink:href="#m0043332ed2" x="163.290487" y="87.808478" style="fill: #cd5c5c; fill-opacity: 0.8; stroke: #cd5c5c; stroke-opacity: 0.8"/>
     <use xlink:href="#m0043332ed2" x="163.924883" y="126.950507" style="fill: #cd5c5c; fill-opacity: 0.8; stroke: #cd5c5c; stroke-opacity: 0.8"/>
     <use xlink:href="#m0043332ed2" x="82.814331" y="164.231626" style="fill: #cd5c5c; fill-opacity: 0.8; stroke: #cd5c5c; stroke-opacity: 0.8"/>
     <use xlink:href="#m0043332ed2" x="248.581554" y="132.070443" style="fill: #cd5c5c; fill-opacity: 0.8; stroke: #cd5c5c; stroke-opacity: 0.8"/>
     <use xlink:href="#m0043332ed2" x="233.251163" y="112.714805" style="fill: #cd5c5c; fill-opacity: 0.8; stroke: #cd5c5c; stroke-opacity: 0.8"/>
     <use xlink:href="#m0043332ed2" x="48.569987" y="91.002514" style="fill: #cd5c5c; fill-opacity: 0.8; stroke: #cd5c5c; stroke-opacity: 0.8"/>
     <use xlink:href="#m0043332ed2" x="201.61029" y="67.925004" style="fill: #cd5c5c; fill-opacity: 0.8; stroke: #cd5c5c; stroke-opacity: 0.8"/>
     <use xlink:href="#m0043332ed2" x="97.47064" y="141.139566" style="fill: #cd5c5c; fill-opacity: 0.8; stroke: #cd5c5c; stroke-opacity: 0.8"/>
     <use xlink:href="#m0043332ed2" x="49.359646" y="132.558556" style="fill: #cd5c5c; fill-opacity: 0.8; stroke: #cd5c5c; stroke-opacity: 0.8"/>
     <use xlink:href="#m0043332ed2" x="54.737344" y="154.331917" style="fill: #cd5c5c; fill-opacity: 0.8; stroke: #cd5c5c; stroke-opacity: 0.8"/>
     <use xlink:href="#m0043332ed2" x="86.171043" y="193.34253" style="fill: #cd5c5c; fill-opacity: 0.8; stroke: #cd5c5c; stroke-opacity: 0.8"/>
     <use xlink:href="#m0043332ed2" x="55.258839" y="142.54118" style="fill: #cd5c5c; fill-opacity: 0.8; stroke: #cd5c5c; stroke-opacity: 0.8"/>
     <use xlink:href="#m0043332ed2" x="56.372009" y="125.695752" style="fill: #cd5c5c; fill-opacity: 0.8; stroke: #cd5c5c; stroke-opacity: 0.8"/>
     <use xlink:href="#m0043332ed2" x="69.065007" y="125.90983" style="fill: #cd5c5c; fill-opacity: 0.8; stroke: #cd5c5c; stroke-opacity: 0.8"/>
     <use xlink:href="#m0043332ed2" x="55.876961" y="180.840515" style="fill: #cd5c5c; fill-opacity: 0.8; stroke: #cd5c5c; stroke-opacity: 0.8"/>
     <use xlink:href="#m0043332ed2" x="73.69852" y="193.665033" style="fill: #cd5c5c; fill-opacity: 0.8; stroke: #cd5c5c; stroke-opacity: 0.8"/>
     <use xlink:href="#m0043332ed2" x="98.745751" y="125.788067" style="fill: #cd5c5c; fill-opacity: 0.8; stroke: #cd5c5c; stroke-opacity: 0.8"/>
     <use xlink:href="#m0043332ed2" x="58.66518" y="178.625088" style="fill: #cd5c5c; fill-opacity: 0.8; stroke: #cd5c5c; stroke-opacity: 0.8"/>
     <use xlink:href="#m0043332ed2" x="72.647857" y="126.126929" style="fill: #cd5c5c; fill-opacity: 0.8; stroke: #cd5c5c; stroke-opacity: 0.8"/>
     <use xlink:href="#m0043332ed2" x="60.968322" y="164.974185" style="fill: #cd5c5c; fill-opacity: 0.8; stroke: #cd5c5c; stroke-opacity: 0.8"/>
     <use xlink:href="#m0043332ed2" x="56.613308" y="125.668829" style="fill: #cd5c5c; fill-opacity: 0.8; stroke: #cd5c5c; stroke-opacity: 0.8"/>
     <use xlink:href="#m0043332ed2" x="46.145455" y="188.919418" style="fill: #cd5c5c; fill-opacity: 0.8; stroke: #cd5c5c; stroke-opacity: 0.8"/>
     <use xlink:href="#m0043332ed2" x="117.831269" y="127.287655" style="fill: #cd5c5c; fill-opacity: 0.8; stroke: #cd5c5c; stroke-opacity: 0.8"/>
     <use xlink:href="#m0043332ed2" x="141.322386" y="87.658996" style="fill: #cd5c5c; fill-opacity: 0.8; stroke: #cd5c5c; stroke-opacity: 0.8"/>
     <use xlink:href="#m0043332ed2" x="248.14023" y="40.615325" style="fill: #cd5c5c; fill-opacity: 0.8; stroke: #cd5c5c; stroke-opacity: 0.8"/>
     <use xlink:href="#m0043332ed2" x="58.791061" y="215.46" style="fill: #cd5c5c; fill-opacity: 0.8; stroke: #cd5c5c; stroke-opacity: 0.8"/>
     <use xlink:href="#m0043332ed2" x="246.204458" y="130.816881" style="fill: #cd5c5c; fill-opacity: 0.8; stroke: #cd5c5c; stroke-opacity: 0.8"/>
     <use xlink:href="#m0043332ed2" x="76.495657" y="125.916161" style="fill: #cd5c5c; fill-opacity: 0.8; stroke: #cd5c5c; stroke-opacity: 0.8"/>
     <use xlink:href="#m0043332ed2" x="247.865107" y="47.406887" style="fill: #cd5c5c; fill-opacity: 0.8; stroke: #cd5c5c; stroke-opacity: 0.8"/>
     <use xlink:href="#m0043332ed2" x="247.251137" y="125.914524" style="fill: #cd5c5c; fill-opacity: 0.8; stroke: #cd5c5c; stroke-opacity: 0.8"/>
     <use xlink:href="#m0043332ed2" x="177.633654" y="141.122352" style="fill: #cd5c5c; fill-opacity: 0.8; stroke: #cd5c5c; stroke-opacity: 0.8"/>
     <use xlink:href="#m0043332ed2" x="121.384681" y="128.754678" style="fill: #cd5c5c; fill-opacity: 0.8; stroke: #cd5c5c; stroke-opacity: 0.8"/>
     <use xlink:href="#m0043332ed2" x="233.059302" y="70.608866" style="fill: #cd5c5c; fill-opacity: 0.8; stroke: #cd5c5c; stroke-opacity: 0.8"/>
     <use xlink:href="#m0043332ed2" x="195.224445" y="98.261901" style="fill: #cd5c5c; fill-opacity: 0.8; stroke: #cd5c5c; stroke-opacity: 0.8"/>
     <use xlink:href="#m0043332ed2" x="62.522561" y="103.427355" style="fill: #cd5c5c; fill-opacity: 0.8; stroke: #cd5c5c; stroke-opacity: 0.8"/>
     <use xlink:href="#m0043332ed2" x="158.624597" y="148.285755" style="fill: #cd5c5c; fill-opacity: 0.8; stroke: #cd5c5c; stroke-opacity: 0.8"/>
     <use xlink:href="#m0043332ed2" x="69.851321" y="156.466891" style="fill: #cd5c5c; fill-opacity: 0.8; stroke: #cd5c5c; stroke-opacity: 0.8"/>
     <use xlink:href="#m0043332ed2" x="149.001201" y="59.440366" style="fill: #cd5c5c; fill-opacity: 0.8; stroke: #cd5c5c; stroke-opacity: 0.8"/>
     <use xlink:href="#m0043332ed2" x="63.346686" y="193.9781" style="fill: #cd5c5c; fill-opacity: 0.8; stroke: #cd5c5c; stroke-opacity: 0.8"/>
     <use xlink:href="#m0043332ed2" x="249.054545" y="104.444031" style="fill: #cd5c5c; fill-opacity: 0.8; stroke: #cd5c5c; stroke-opacity: 0.8"/>
     <use xlink:href="#m0043332ed2" x="126.134822" y="169.732887" style="fill: #cd5c5c; fill-opacity: 0.8; stroke: #cd5c5c; stroke-opacity: 0.8"/>
     <use xlink:href="#m0043332ed2" x="142.978483" y="165.231477" style="fill: #cd5c5c; fill-opacity: 0.8; stroke: #cd5c5c; stroke-opacity: 0.8"/>
     <use xlink:href="#m0043332ed2" x="206.165318" y="68.294745" style="fill: #cd5c5c; fill-opacity: 0.8; stroke: #cd5c5c; stroke-opacity: 0.8"/>
     <use xlink:href="#m0043332ed2" x="77.907733" y="195.363884" style="fill: #cd5c5c; fill-opacity: 0.8; stroke: #cd5c5c; stroke-opacity: 0.8"/>
     <use xlink:href="#m0043332ed2" x="243.866565" y="79.785803" style="fill: #cd5c5c; fill-opacity: 0.8; stroke: #cd5c5c; stroke-opacity: 0.8"/>
     <use xlink:href="#m0043332ed2" x="126.667654" y="48.625654" style="fill: #cd5c5c; fill-opacity: 0.8; stroke: #cd5c5c; stroke-opacity: 0.8"/>
     <use xlink:href="#m0043332ed2" x="246.708389" y="119.356864" style="fill: #cd5c5c; fill-opacity: 0.8; stroke: #cd5c5c; stroke-opacity: 0.8"/>
     <use xlink:href="#m0043332ed2" x="53.069266" y="196.63908" style="fill: #cd5c5c; fill-opacity: 0.8; stroke: #cd5c5c; stroke-opacity: 0.8"/>
     <use xlink:href="#m0043332ed2" x="181.463365" y="125.684964" style="fill: #cd5c5c; fill-opacity: 0.8; stroke: #cd5c5c; stroke-opacity: 0.8"/>
     <use xlink:href="#m0043332ed2" x="68.372706" y="117.025002" style="fill: #cd5c5c; fill-opacity: 0.8; stroke: #cd5c5c; stroke-opacity: 0.8"/>
     <use xlink:href="#m0043332ed2" x="248.251251" y="39.06" style="fill: #cd5c5c; fill-opacity: 0.8; stroke: #cd5c5c; stroke-opacity: 0.8"/>
    </g>
   </g>
   <g id="line2d_1">
    <path d="M 46.145455 155.204097 
L 48.195041 154.623205 
L 50.244628 154.042314 
L 52.294215 153.461422 
L 54.343802 152.880531 
L 56.393388 152.299639 
L 58.442975 151.718748 
L 60.492562 151.137856 
L 62.542149 150.556965 
L 64.591736 149.976073 
L 66.641322 149.395181 
L 68.690909 148.81429 
L 70.740496 148.233398 
L 72.790083 147.652507 
L 74.839669 147.071615 
L 76.889256 146.490724 
L 78.938843 145.909832 
L 80.98843 145.328941 
L 83.038017 144.748049 
L 85.087603 144.167158 
L 87.13719 143.586266 
L 89.186777 143.005374 
L 91.236364 142.424483 
L 93.28595 141.843591 
L 95.335537 141.2627 
L 97.385124 140.681808 
L 99.434711 140.100917 
L 101.484298 139.520025 
L 103.533884 138.939134 
L 105.583471 138.358242 
L 107.633058 137.777351 
L 109.682645 137.196459 
L 111.732231 136.615567 
L 113.781818 136.034676 
L 115.831405 135.453784 
L 117.880992 134.872893 
L 119.930579 134.292001 
L 121.980165 133.71111 
L 124.029752 133.130218 
L 126.079339 132.549327 
L 128.128926 131.968435 
L 130.178512 131.387544 
L 132.228099 130.806652 
L 134.277686 130.22576 
L 136.327273 129.644869 
L 138.37686 129.063977 
L 140.426446 128.483086 
L 142.476033 127.902194 
L 144.52562 127.321303 
L 146.575207 126.740411 
L 148.624793 126.15952 
L 150.67438 125.578628 
L 152.723967 124.997737 
L 154.773554 124.416845 
L 156.82314 123.835953 
L 158.872727 123.255062 
L 160.922314 122.67417 
L 162.971901 122.093279 
L 165.021488 121.512387 
L 167.071074 120.931496 
L 169.120661 120.350604 
L 171.170248 119.769713 
L 173.219835 119.188821 
L 175.269421 118.60793 
L 177.319008 118.027038 
L 179.368595 117.446146 
L 181.418182 116.865255 
L 183.467769 116.284363 
L 185.517355 115.703472 
L 187.566942 115.12258 
L 189.616529 114.541689 
L 191.666116 113.960797 
L 193.715702 113.379906 
L 195.765289 112.799014 
L 197.814876 112.218123 
L 199.864463 111.637231 
L 201.91405 111.056339 
L 203.963636 110.475448 
L 206.013223 109.894556 
L 208.06281 109.313665 
L 210.112397 108.732773 
L 212.161983 108.151882 
L 214.21157 107.57099 
L 216.261157 106.990099 
L 218.310744 106.409207 
L 220.360331 105.828316 
L 222.409917 105.247424 
L 224.459504 104.666532 
L 226.509091 104.085641 
L 228.558678 103.504749 
L 230.608264 102.923858 
L 232.657851 102.342966 
L 234.707438 101.762075 
L 236.757025 101.181183 
L 238.806612 100.600292 
L 240.856198 100.0194 
L 242.905785 99.438509 
L 244.955372 98.857617 
L 247.004959 98.276725 
L 249.054545 97.695834 
" clip-path="url(#p6d0c66f17a)" style="fill: none; stroke: #cd5c5c; stroke-opacity: 0.3; stroke-width: 2.25; stroke-linecap: square"/>
   </g>
   <g id="PolyCollection_1">
    <path d="M 46.145455 143.031958 
L 46.145455 167.281427 
L 48.195041 166.538308 
L 50.244628 165.79519 
L 52.294215 164.977254 
L 54.343802 164.151756 
L 56.393388 163.327912 
L 58.442975 162.5057 
L 60.492562 161.781184 
L 62.542149 160.989171 
L 64.591736 160.24713 
L 66.641322 159.578316 
L 68.690909 158.934212 
L 70.740496 158.182477 
L 72.790083 157.519027 
L 74.839669 156.769413 
L 76.889256 156.075673 
L 78.938843 155.380301 
L 80.98843 154.686217 
L 83.038017 153.992507 
L 85.087603 153.273698 
L 87.13719 152.551197 
L 89.186777 151.838151 
L 91.236364 151.058547 
L 93.28595 150.278943 
L 95.335537 149.499339 
L 97.385124 148.992485 
L 99.434711 148.348992 
L 101.484298 147.422189 
L 103.533884 146.744365 
L 105.583471 146.046964 
L 107.633058 145.315185 
L 109.682645 144.654068 
L 111.732231 144.090819 
L 113.781818 143.331716 
L 115.831405 142.653759 
L 117.880992 142.063962 
L 119.930579 141.431997 
L 121.980165 140.802716 
L 124.029752 140.14563 
L 126.079339 139.607664 
L 128.128926 139.007782 
L 130.178512 138.500556 
L 132.228099 137.885772 
L 134.277686 137.277987 
L 136.327273 136.602105 
L 138.37686 136.012204 
L 140.426446 135.418449 
L 142.476033 135.040059 
L 144.52562 134.597757 
L 146.575207 134.089517 
L 148.624793 133.61467 
L 150.67438 133.105043 
L 152.723967 132.587303 
L 154.773554 132.012141 
L 156.82314 131.49276 
L 158.872727 131.105448 
L 160.922314 130.583149 
L 162.971901 130.232427 
L 165.021488 129.804967 
L 167.071074 129.341297 
L 169.120661 128.865412 
L 171.170248 128.389527 
L 173.219835 127.90243 
L 175.269421 127.491854 
L 177.319008 127.101672 
L 179.368595 126.682657 
L 181.418182 126.293427 
L 183.467769 125.697159 
L 185.517355 125.13226 
L 187.566942 124.692264 
L 189.616529 124.290002 
L 191.666116 123.885253 
L 193.715702 123.477529 
L 195.765289 123.073884 
L 197.814876 122.671008 
L 199.864463 122.266259 
L 201.91405 121.861317 
L 203.963636 121.454444 
L 206.013223 121.047572 
L 208.06281 120.640187 
L 210.112397 120.232712 
L 212.161983 119.89314 
L 214.21157 119.453008 
L 216.261157 118.992693 
L 218.310744 118.524792 
L 220.360331 118.059402 
L 222.409917 117.59514 
L 224.459504 117.131161 
L 226.509091 116.720393 
L 228.558678 116.345093 
L 230.608264 115.976754 
L 232.657851 115.581244 
L 234.707438 115.142606 
L 236.757025 114.703967 
L 238.806612 114.265329 
L 240.856198 113.826652 
L 242.905785 113.384755 
L 244.955372 112.942859 
L 247.004959 112.500962 
L 249.054545 112.059066 
L 249.054545 83.558697 
L 249.054545 83.558697 
L 247.004959 84.32911 
L 244.955372 85.054782 
L 242.905785 85.789299 
L 240.856198 86.539052 
L 238.806612 87.26938 
L 236.757025 87.985917 
L 234.707438 88.794225 
L 232.657851 89.545949 
L 230.608264 90.298707 
L 228.558678 91.06843 
L 226.509091 91.909657 
L 224.459504 92.608596 
L 222.409917 93.317374 
L 220.360331 94.043881 
L 218.310744 94.768185 
L 216.261157 95.493207 
L 214.21157 96.271243 
L 212.161983 97.030427 
L 210.112397 97.743876 
L 208.06281 98.485283 
L 206.013223 99.212764 
L 203.963636 99.897928 
L 201.91405 100.562779 
L 199.864463 101.283743 
L 197.814876 102.006943 
L 195.765289 102.733117 
L 193.715702 103.459291 
L 191.666116 104.183944 
L 189.616529 104.905741 
L 187.566942 105.62453 
L 185.517355 106.351978 
L 183.467769 107.0284 
L 181.418182 107.71514 
L 179.368595 108.38678 
L 177.319008 109.217311 
L 175.269421 109.973411 
L 173.219835 110.696403 
L 171.170248 111.418819 
L 169.120661 112.074603 
L 167.071074 112.769646 
L 165.021488 113.571614 
L 162.971901 114.227108 
L 160.922314 114.879515 
L 158.872727 115.661861 
L 156.82314 116.395793 
L 154.773554 117.044097 
L 152.723967 117.716586 
L 150.67438 118.380593 
L 148.624793 118.993477 
L 146.575207 119.634876 
L 144.52562 120.266623 
L 142.476033 120.891358 
L 140.426446 121.458001 
L 138.37686 122.01695 
L 136.327273 122.51021 
L 134.277686 123.142986 
L 132.228099 123.759408 
L 130.178512 124.365314 
L 128.128926 124.876926 
L 126.079339 125.540826 
L 124.029752 126.108865 
L 121.980165 126.768387 
L 119.930579 127.350943 
L 117.880992 127.84177 
L 115.831405 128.27757 
L 113.781818 128.61279 
L 111.732231 129.059019 
L 109.682645 129.594635 
L 107.633058 130.127364 
L 105.583471 130.695695 
L 103.533884 131.192315 
L 101.484298 131.711349 
L 99.434711 132.225617 
L 97.385124 132.68669 
L 95.335537 133.154343 
L 93.28595 133.627893 
L 91.236364 134.098745 
L 89.186777 134.517434 
L 87.13719 134.984313 
L 85.087603 135.491363 
L 83.038017 135.909992 
L 80.98843 136.32648 
L 78.938843 136.693547 
L 76.889256 137.09567 
L 74.839669 137.527482 
L 72.790083 137.906944 
L 70.740496 138.216466 
L 68.690909 138.525987 
L 66.641322 138.836436 
L 64.591736 139.368634 
L 62.542149 139.803541 
L 60.492562 140.21722 
L 58.442975 140.704568 
L 56.393388 141.144641 
L 54.343802 141.59437 
L 52.294215 141.947968 
L 50.244628 142.301565 
L 48.195041 142.705671 
L 46.145455 143.031958 
z
" clip-path="url(#p6d0c66f17a)" style="fill: #cd5c5c; fill-opacity: 0.15"/>
   </g>
   <g id="matplotlib.axis_1">
    <g id="xtick_1">
     <g id="line2d_2">
      <defs>
       <path id="mb914fd6843" d="M 0 0 
L 0 3.5 
" style="stroke: #000000"/>
      </defs>
      <g>
       <use xlink:href="#mb914fd6843" x="80.205768" y="224.28" style="stroke: #000000"/>
      </g>
     </g>
     <g id="text_1">
      <!-- 0.2 -->
      <g transform="translate(73.255768 238.437813) scale(0.1 -0.1)">
       <defs>
        <path id="ArialMT-30" d="M 266 2259 
Q 266 3072 433 3567 
Q 600 4063 929 4331 
Q 1259 4600 1759 4600 
Q 2128 4600 2406 4451 
Q 2684 4303 2865 4023 
Q 3047 3744 3150 3342 
Q 3253 2941 3253 2259 
Q 3253 1453 3087 958 
Q 2922 463 2592 192 
Q 2263 -78 1759 -78 
Q 1097 -78 719 397 
Q 266 969 266 2259 
z
M 844 2259 
Q 844 1131 1108 757 
Q 1372 384 1759 384 
Q 2147 384 2411 759 
Q 2675 1134 2675 2259 
Q 2675 3391 2411 3762 
Q 2147 4134 1753 4134 
Q 1366 4134 1134 3806 
Q 844 3388 844 2259 
z
" transform="scale(0.015625)"/>
        <path id="ArialMT-2e" d="M 581 0 
L 581 641 
L 1222 641 
L 1222 0 
L 581 0 
z
" transform="scale(0.015625)"/>
        <path id="ArialMT-32" d="M 3222 541 
L 3222 0 
L 194 0 
Q 188 203 259 391 
Q 375 700 629 1000 
Q 884 1300 1366 1694 
Q 2113 2306 2375 2664 
Q 2638 3022 2638 3341 
Q 2638 3675 2398 3904 
Q 2159 4134 1775 4134 
Q 1369 4134 1125 3890 
Q 881 3647 878 3216 
L 300 3275 
Q 359 3922 746 4261 
Q 1134 4600 1788 4600 
Q 2447 4600 2831 4234 
Q 3216 3869 3216 3328 
Q 3216 3053 3103 2787 
Q 2991 2522 2730 2228 
Q 2469 1934 1863 1422 
Q 1356 997 1212 845 
Q 1069 694 975 541 
L 3222 541 
z
" transform="scale(0.015625)"/>
       </defs>
       <use xlink:href="#ArialMT-30"/>
       <use xlink:href="#ArialMT-2e" x="55.615234"/>
       <use xlink:href="#ArialMT-32" x="83.398438"/>
      </g>
     </g>
    </g>
    <g id="xtick_2">
     <g id="line2d_3">
      <g>
       <use xlink:href="#mb914fd6843" x="125.1027" y="224.28" style="stroke: #000000"/>
      </g>
     </g>
     <g id="text_2">
      <!-- 0.4 -->
      <g transform="translate(118.1527 238.437813) scale(0.1 -0.1)">
       <defs>
        <path id="ArialMT-34" d="M 2069 0 
L 2069 1097 
L 81 1097 
L 81 1613 
L 2172 4581 
L 2631 4581 
L 2631 1613 
L 3250 1613 
L 3250 1097 
L 2631 1097 
L 2631 0 
L 2069 0 
z
M 2069 1613 
L 2069 3678 
L 634 1613 
L 2069 1613 
z
" transform="scale(0.015625)"/>
       </defs>
       <use xlink:href="#ArialMT-30"/>
       <use xlink:href="#ArialMT-2e" x="55.615234"/>
       <use xlink:href="#ArialMT-34" x="83.398438"/>
      </g>
     </g>
    </g>
    <g id="xtick_3">
     <g id="line2d_4">
      <g>
       <use xlink:href="#mb914fd6843" x="169.999632" y="224.28" style="stroke: #000000"/>
      </g>
     </g>
     <g id="text_3">
      <!-- 0.6 -->
      <g transform="translate(163.049632 238.437813) scale(0.1 -0.1)">
       <defs>
        <path id="ArialMT-36" d="M 3184 3459 
L 2625 3416 
Q 2550 3747 2413 3897 
Q 2184 4138 1850 4138 
Q 1581 4138 1378 3988 
Q 1113 3794 959 3422 
Q 806 3050 800 2363 
Q 1003 2672 1297 2822 
Q 1591 2972 1913 2972 
Q 2475 2972 2870 2558 
Q 3266 2144 3266 1488 
Q 3266 1056 3080 686 
Q 2894 316 2569 119 
Q 2244 -78 1831 -78 
Q 1128 -78 684 439 
Q 241 956 241 2144 
Q 241 3472 731 4075 
Q 1159 4600 1884 4600 
Q 2425 4600 2770 4297 
Q 3116 3994 3184 3459 
z
M 888 1484 
Q 888 1194 1011 928 
Q 1134 663 1356 523 
Q 1578 384 1822 384 
Q 2178 384 2434 671 
Q 2691 959 2691 1453 
Q 2691 1928 2437 2201 
Q 2184 2475 1800 2475 
Q 1419 2475 1153 2201 
Q 888 1928 888 1484 
z
" transform="scale(0.015625)"/>
       </defs>
       <use xlink:href="#ArialMT-30"/>
       <use xlink:href="#ArialMT-2e" x="55.615234"/>
       <use xlink:href="#ArialMT-36" x="83.398438"/>
      </g>
     </g>
    </g>
    <g id="xtick_4">
     <g id="line2d_5">
      <g>
       <use xlink:href="#mb914fd6843" x="214.896564" y="224.28" style="stroke: #000000"/>
      </g>
     </g>
     <g id="text_4">
      <!-- 0.8 -->
      <g transform="translate(207.946564 238.437813) scale(0.1 -0.1)">
       <defs>
        <path id="ArialMT-38" d="M 1131 2484 
Q 781 2613 612 2850 
Q 444 3088 444 3419 
Q 444 3919 803 4259 
Q 1163 4600 1759 4600 
Q 2359 4600 2725 4251 
Q 3091 3903 3091 3403 
Q 3091 3084 2923 2848 
Q 2756 2613 2416 2484 
Q 2838 2347 3058 2040 
Q 3278 1734 3278 1309 
Q 3278 722 2862 322 
Q 2447 -78 1769 -78 
Q 1091 -78 675 323 
Q 259 725 259 1325 
Q 259 1772 486 2073 
Q 713 2375 1131 2484 
z
M 1019 3438 
Q 1019 3113 1228 2906 
Q 1438 2700 1772 2700 
Q 2097 2700 2305 2904 
Q 2513 3109 2513 3406 
Q 2513 3716 2298 3927 
Q 2084 4138 1766 4138 
Q 1444 4138 1231 3931 
Q 1019 3725 1019 3438 
z
M 838 1322 
Q 838 1081 952 856 
Q 1066 631 1291 507 
Q 1516 384 1775 384 
Q 2178 384 2440 643 
Q 2703 903 2703 1303 
Q 2703 1709 2433 1975 
Q 2163 2241 1756 2241 
Q 1359 2241 1098 1978 
Q 838 1716 838 1322 
z
" transform="scale(0.015625)"/>
       </defs>
       <use xlink:href="#ArialMT-30"/>
       <use xlink:href="#ArialMT-2e" x="55.615234"/>
       <use xlink:href="#ArialMT-38" x="83.398438"/>
      </g>
     </g>
    </g>
    <g id="text_5">
     <!-- real w -->
     <g transform="translate(134.263281 251.583125) scale(0.1 -0.1)">
      <defs>
       <path id="ArialMT-72" d="M 416 0 
L 416 3319 
L 922 3319 
L 922 2816 
Q 1116 3169 1280 3281 
Q 1444 3394 1641 3394 
Q 1925 3394 2219 3213 
L 2025 2691 
Q 1819 2813 1613 2813 
Q 1428 2813 1281 2702 
Q 1134 2591 1072 2394 
Q 978 2094 978 1738 
L 978 0 
L 416 0 
z
" transform="scale(0.015625)"/>
       <path id="ArialMT-65" d="M 2694 1069 
L 3275 997 
Q 3138 488 2766 206 
Q 2394 -75 1816 -75 
Q 1088 -75 661 373 
Q 234 822 234 1631 
Q 234 2469 665 2931 
Q 1097 3394 1784 3394 
Q 2450 3394 2872 2941 
Q 3294 2488 3294 1666 
Q 3294 1616 3291 1516 
L 816 1516 
Q 847 969 1125 678 
Q 1403 388 1819 388 
Q 2128 388 2347 550 
Q 2566 713 2694 1069 
z
M 847 1978 
L 2700 1978 
Q 2663 2397 2488 2606 
Q 2219 2931 1791 2931 
Q 1403 2931 1139 2672 
Q 875 2413 847 1978 
z
" transform="scale(0.015625)"/>
       <path id="ArialMT-61" d="M 2588 409 
Q 2275 144 1986 34 
Q 1697 -75 1366 -75 
Q 819 -75 525 192 
Q 231 459 231 875 
Q 231 1119 342 1320 
Q 453 1522 633 1644 
Q 813 1766 1038 1828 
Q 1203 1872 1538 1913 
Q 2219 1994 2541 2106 
Q 2544 2222 2544 2253 
Q 2544 2597 2384 2738 
Q 2169 2928 1744 2928 
Q 1347 2928 1158 2789 
Q 969 2650 878 2297 
L 328 2372 
Q 403 2725 575 2942 
Q 747 3159 1072 3276 
Q 1397 3394 1825 3394 
Q 2250 3394 2515 3294 
Q 2781 3194 2906 3042 
Q 3031 2891 3081 2659 
Q 3109 2516 3109 2141 
L 3109 1391 
Q 3109 606 3145 398 
Q 3181 191 3288 0 
L 2700 0 
Q 2613 175 2588 409 
z
M 2541 1666 
Q 2234 1541 1622 1453 
Q 1275 1403 1131 1340 
Q 988 1278 909 1158 
Q 831 1038 831 891 
Q 831 666 1001 516 
Q 1172 366 1500 366 
Q 1825 366 2078 508 
Q 2331 650 2450 897 
Q 2541 1088 2541 1459 
L 2541 1666 
z
" transform="scale(0.015625)"/>
       <path id="ArialMT-6c" d="M 409 0 
L 409 4581 
L 972 4581 
L 972 0 
L 409 0 
z
" transform="scale(0.015625)"/>
       <path id="ArialMT-20" transform="scale(0.015625)"/>
       <path id="ArialMT-77" d="M 1034 0 
L 19 3319 
L 600 3319 
L 1128 1403 
L 1325 691 
Q 1338 744 1497 1375 
L 2025 3319 
L 2603 3319 
L 3100 1394 
L 3266 759 
L 3456 1400 
L 4025 3319 
L 4572 3319 
L 3534 0 
L 2950 0 
L 2422 1988 
L 2294 2553 
L 1622 0 
L 1034 0 
z
" transform="scale(0.015625)"/>
      </defs>
      <use xlink:href="#ArialMT-72"/>
      <use xlink:href="#ArialMT-65" x="33.300781"/>
      <use xlink:href="#ArialMT-61" x="88.916016"/>
      <use xlink:href="#ArialMT-6c" x="144.53125"/>
      <use xlink:href="#ArialMT-20" x="166.748047"/>
      <use xlink:href="#ArialMT-77" x="194.53125"/>
     </g>
    </g>
   </g>
   <g id="matplotlib.axis_2">
    <g id="ytick_1">
     <g id="line2d_6">
      <defs>
       <path id="mb1906d9ce9" d="M 0 0 
L -3.5 0 
" style="stroke: #000000"/>
      </defs>
      <g>
       <use xlink:href="#mb1906d9ce9" x="36" y="205.578029" style="stroke: #000000"/>
      </g>
     </g>
     <g id="text_6">
      <!-- 0.2 -->
      <g transform="translate(15.1 209.156935) scale(0.1 -0.1)">
       <use xlink:href="#ArialMT-30"/>
       <use xlink:href="#ArialMT-2e" x="55.615234"/>
       <use xlink:href="#ArialMT-32" x="83.398438"/>
      </g>
     </g>
    </g>
    <g id="ytick_2">
     <g id="line2d_7">
      <g>
       <use xlink:href="#mb1906d9ce9" x="36" y="178.912149" style="stroke: #000000"/>
      </g>
     </g>
     <g id="text_7">
      <!-- 0.3 -->
      <g transform="translate(15.1 182.491056) scale(0.1 -0.1)">
       <defs>
        <path id="ArialMT-33" d="M 269 1209 
L 831 1284 
Q 928 806 1161 595 
Q 1394 384 1728 384 
Q 2125 384 2398 659 
Q 2672 934 2672 1341 
Q 2672 1728 2419 1979 
Q 2166 2231 1775 2231 
Q 1616 2231 1378 2169 
L 1441 2663 
Q 1497 2656 1531 2656 
Q 1891 2656 2178 2843 
Q 2466 3031 2466 3422 
Q 2466 3731 2256 3934 
Q 2047 4138 1716 4138 
Q 1388 4138 1169 3931 
Q 950 3725 888 3313 
L 325 3413 
Q 428 3978 793 4289 
Q 1159 4600 1703 4600 
Q 2078 4600 2393 4439 
Q 2709 4278 2876 4000 
Q 3044 3722 3044 3409 
Q 3044 3113 2884 2869 
Q 2725 2625 2413 2481 
Q 2819 2388 3044 2092 
Q 3269 1797 3269 1353 
Q 3269 753 2831 336 
Q 2394 -81 1725 -81 
Q 1122 -81 723 278 
Q 325 638 269 1209 
z
" transform="scale(0.015625)"/>
       </defs>
       <use xlink:href="#ArialMT-30"/>
       <use xlink:href="#ArialMT-2e" x="55.615234"/>
       <use xlink:href="#ArialMT-33" x="83.398438"/>
      </g>
     </g>
    </g>
    <g id="ytick_3">
     <g id="line2d_8">
      <g>
       <use xlink:href="#mb1906d9ce9" x="36" y="152.24627" style="stroke: #000000"/>
      </g>
     </g>
     <g id="text_8">
      <!-- 0.4 -->
      <g transform="translate(15.1 155.825176) scale(0.1 -0.1)">
       <use xlink:href="#ArialMT-30"/>
       <use xlink:href="#ArialMT-2e" x="55.615234"/>
       <use xlink:href="#ArialMT-34" x="83.398438"/>
      </g>
     </g>
    </g>
    <g id="ytick_4">
     <g id="line2d_9">
      <g>
       <use xlink:href="#mb1906d9ce9" x="36" y="125.580391" style="stroke: #000000"/>
      </g>
     </g>
     <g id="text_9">
      <!-- 0.5 -->
      <g transform="translate(15.1 129.159297) scale(0.1 -0.1)">
       <defs>
        <path id="ArialMT-35" d="M 266 1200 
L 856 1250 
Q 922 819 1161 601 
Q 1400 384 1738 384 
Q 2144 384 2425 690 
Q 2706 997 2706 1503 
Q 2706 1984 2436 2262 
Q 2166 2541 1728 2541 
Q 1456 2541 1237 2417 
Q 1019 2294 894 2097 
L 366 2166 
L 809 4519 
L 3088 4519 
L 3088 3981 
L 1259 3981 
L 1013 2750 
Q 1425 3038 1878 3038 
Q 2478 3038 2890 2622 
Q 3303 2206 3303 1553 
Q 3303 931 2941 478 
Q 2500 -78 1738 -78 
Q 1113 -78 717 272 
Q 322 622 266 1200 
z
" transform="scale(0.015625)"/>
       </defs>
       <use xlink:href="#ArialMT-30"/>
       <use xlink:href="#ArialMT-2e" x="55.615234"/>
       <use xlink:href="#ArialMT-35" x="83.398438"/>
      </g>
     </g>
    </g>
    <g id="ytick_5">
     <g id="line2d_10">
      <g>
       <use xlink:href="#mb1906d9ce9" x="36" y="98.914512" style="stroke: #000000"/>
      </g>
     </g>
     <g id="text_10">
      <!-- 0.6 -->
      <g transform="translate(15.1 102.493418) scale(0.1 -0.1)">
       <use xlink:href="#ArialMT-30"/>
       <use xlink:href="#ArialMT-2e" x="55.615234"/>
       <use xlink:href="#ArialMT-36" x="83.398438"/>
      </g>
     </g>
    </g>
    <g id="ytick_6">
     <g id="line2d_11">
      <g>
       <use xlink:href="#mb1906d9ce9" x="36" y="72.248632" style="stroke: #000000"/>
      </g>
     </g>
     <g id="text_11">
      <!-- 0.7 -->
      <g transform="translate(15.1 75.827538) scale(0.1 -0.1)">
       <defs>
        <path id="ArialMT-37" d="M 303 3981 
L 303 4522 
L 3269 4522 
L 3269 4084 
Q 2831 3619 2401 2847 
Q 1972 2075 1738 1259 
Q 1569 684 1522 0 
L 944 0 
Q 953 541 1156 1306 
Q 1359 2072 1739 2783 
Q 2119 3494 2547 3981 
L 303 3981 
z
" transform="scale(0.015625)"/>
       </defs>
       <use xlink:href="#ArialMT-30"/>
       <use xlink:href="#ArialMT-2e" x="55.615234"/>
       <use xlink:href="#ArialMT-37" x="83.398438"/>
      </g>
     </g>
    </g>
    <g id="ytick_7">
     <g id="line2d_12">
      <g>
       <use xlink:href="#mb1906d9ce9" x="36" y="45.582753" style="stroke: #000000"/>
      </g>
     </g>
     <g id="text_12">
      <!-- 0.8 -->
      <g transform="translate(15.1 49.161659) scale(0.1 -0.1)">
       <use xlink:href="#ArialMT-30"/>
       <use xlink:href="#ArialMT-2e" x="55.615234"/>
       <use xlink:href="#ArialMT-38" x="83.398438"/>
      </g>
     </g>
    </g>
    <g id="text_13">
     <!-- recovered w -->
     <g transform="translate(9.1125 154.492031) rotate(-90) scale(0.1 -0.1)">
      <defs>
       <path id="ArialMT-63" d="M 2588 1216 
L 3141 1144 
Q 3050 572 2676 248 
Q 2303 -75 1759 -75 
Q 1078 -75 664 370 
Q 250 816 250 1647 
Q 250 2184 428 2587 
Q 606 2991 970 3192 
Q 1334 3394 1763 3394 
Q 2303 3394 2647 3120 
Q 2991 2847 3088 2344 
L 2541 2259 
Q 2463 2594 2264 2762 
Q 2066 2931 1784 2931 
Q 1359 2931 1093 2626 
Q 828 2322 828 1663 
Q 828 994 1084 691 
Q 1341 388 1753 388 
Q 2084 388 2306 591 
Q 2528 794 2588 1216 
z
" transform="scale(0.015625)"/>
       <path id="ArialMT-6f" d="M 213 1659 
Q 213 2581 725 3025 
Q 1153 3394 1769 3394 
Q 2453 3394 2887 2945 
Q 3322 2497 3322 1706 
Q 3322 1066 3130 698 
Q 2938 331 2570 128 
Q 2203 -75 1769 -75 
Q 1072 -75 642 372 
Q 213 819 213 1659 
z
M 791 1659 
Q 791 1022 1069 705 
Q 1347 388 1769 388 
Q 2188 388 2466 706 
Q 2744 1025 2744 1678 
Q 2744 2294 2464 2611 
Q 2184 2928 1769 2928 
Q 1347 2928 1069 2612 
Q 791 2297 791 1659 
z
" transform="scale(0.015625)"/>
       <path id="ArialMT-76" d="M 1344 0 
L 81 3319 
L 675 3319 
L 1388 1331 
Q 1503 1009 1600 663 
Q 1675 925 1809 1294 
L 2547 3319 
L 3125 3319 
L 1869 0 
L 1344 0 
z
" transform="scale(0.015625)"/>
       <path id="ArialMT-64" d="M 2575 0 
L 2575 419 
Q 2259 -75 1647 -75 
Q 1250 -75 917 144 
Q 584 363 401 755 
Q 219 1147 219 1656 
Q 219 2153 384 2558 
Q 550 2963 881 3178 
Q 1213 3394 1622 3394 
Q 1922 3394 2156 3267 
Q 2391 3141 2538 2938 
L 2538 4581 
L 3097 4581 
L 3097 0 
L 2575 0 
z
M 797 1656 
Q 797 1019 1065 703 
Q 1334 388 1700 388 
Q 2069 388 2326 689 
Q 2584 991 2584 1609 
Q 2584 2291 2321 2609 
Q 2059 2928 1675 2928 
Q 1300 2928 1048 2622 
Q 797 2316 797 1656 
z
" transform="scale(0.015625)"/>
      </defs>
      <use xlink:href="#ArialMT-72"/>
      <use xlink:href="#ArialMT-65" x="33.300781"/>
      <use xlink:href="#ArialMT-63" x="88.916016"/>
      <use xlink:href="#ArialMT-6f" x="138.916016"/>
      <use xlink:href="#ArialMT-76" x="194.53125"/>
      <use xlink:href="#ArialMT-65" x="244.53125"/>
      <use xlink:href="#ArialMT-72" x="300.146484"/>
      <use xlink:href="#ArialMT-65" x="333.447266"/>
      <use xlink:href="#ArialMT-64" x="389.0625"/>
      <use xlink:href="#ArialMT-20" x="444.677734"/>
      <use xlink:href="#ArialMT-77" x="472.460938"/>
     </g>
    </g>
   </g>
   <g id="patch_3">
    <path d="M 36 224.28 
L 36 30.24 
" style="fill: none; stroke: #000000; stroke-linejoin: miter; stroke-linecap: square"/>
   </g>
   <g id="patch_4">
    <path d="M 36 224.28 
L 259.2 224.28 
" style="fill: none; stroke: #000000; stroke-linejoin: miter; stroke-linecap: square"/>
   </g>
  </g>
 </g>
 <defs>
  <clipPath id="p6d0c66f17a">
   <rect x="36" y="30.24" width="223.2" height="194.04"/>
  </clipPath>
 </defs>
</svg>
