<?xml version="1.0" encoding="utf-8" standalone="no"?>
<!DOCTYPE svg PUBLIC "-//W3C//DTD SVG 1.1//EN"
  "http://www.w3.org/Graphics/SVG/1.1/DTD/svg11.dtd">
<svg xmlns:xlink="http://www.w3.org/1999/xlink" width="144pt" height="108pt" viewBox="0 0 144 108" xmlns="http://www.w3.org/2000/svg" version="1.1">
 <metadata>
  <rdf:RDF xmlns:dc="http://purl.org/dc/elements/1.1/" xmlns:cc="http://creativecommons.org/ns#" xmlns:rdf="http://www.w3.org/1999/02/22-rdf-syntax-ns#">
   <cc:Work>
    <dc:type rdf:resource="http://purl.org/dc/dcmitype/StillImage"/>
    <dc:date>2025-04-02T23:26:04.959269</dc:date>
    <dc:format>image/svg+xml</dc:format>
    <dc:creator>
     <cc:Agent>
      <dc:title>Matplotlib v3.7.1, https://matplotlib.org/</dc:title>
     </cc:Agent>
    </dc:creator>
   </cc:Work>
  </rdf:RDF>
 </metadata>
 <defs>
  <style type="text/css">*{stroke-linejoin: round; stroke-linecap: butt}</style>
 </defs>
 <g id="figure_1">
  <g id="patch_1">
   <path d="M 0 108 
L 144 108 
L 144 0 
L 0 0 
L 0 108 
z
" style="fill: none"/>
  </g>
  <g id="axes_1">
   <g id="patch_2">
    <path d="M 18 96.12 
L 129.6 96.12 
L 129.6 12.96 
L 18 12.96 
L 18 96.12 
z
" style="fill: none"/>
   </g>
   <g id="PathCollection_1">
    <defs>
     <path id="m88edeb0dbd" d="M 0 3 
C 0.795609 3 1.55874 2.683901 2.12132 2.12132 
C 2.683901 1.55874 3 0.795609 3 0 
C 3 -0.795609 2.683901 -1.55874 2.12132 -2.12132 
C 1.55874 -2.683901 0.795609 -3 0 -3 
C -0.795609 -3 -1.55874 -2.683901 -2.12132 -2.12132 
C -2.683901 -1.55874 -3 -0.795609 -3 0 
C -3 0.795609 -2.683901 1.55874 -2.12132 2.12132 
C -1.55874 2.683901 -0.795609 3 0 3 
z
" style="stroke: #cd5c5c; stroke-opacity: 0.8"/>
    </defs>
    <g clip-path="url(#p15dc7881f9)">
     <use xlink:href="#m88edeb0dbd" x="34.345455" y="84.274332" style="fill: #cd5c5c; fill-opacity: 0.8; stroke: #cd5c5c; stroke-opacity: 0.8"/>
     <use xlink:href="#m88edeb0dbd" x="28.709091" y="76.444264" style="fill: #cd5c5c; fill-opacity: 0.8; stroke: #cd5c5c; stroke-opacity: 0.8"/>
     <use xlink:href="#m88edeb0dbd" x="23.072727" y="71.550472" style="fill: #cd5c5c; fill-opacity: 0.8; stroke: #cd5c5c; stroke-opacity: 0.8"/>
     <use xlink:href="#m88edeb0dbd" x="96.345455" y="79.380539" style="fill: #cd5c5c; fill-opacity: 0.8; stroke: #cd5c5c; stroke-opacity: 0.8"/>
     <use xlink:href="#m88edeb0dbd" x="34.345455" y="66.65668" style="fill: #cd5c5c; fill-opacity: 0.8; stroke: #cd5c5c; stroke-opacity: 0.8"/>
     <use xlink:href="#m88edeb0dbd" x="68.163636" y="71.550472" style="fill: #cd5c5c; fill-opacity: 0.8; stroke: #cd5c5c; stroke-opacity: 0.8"/>
     <use xlink:href="#m88edeb0dbd" x="39.981818" y="83.295573" style="fill: #cd5c5c; fill-opacity: 0.8; stroke: #cd5c5c; stroke-opacity: 0.8"/>
     <use xlink:href="#m88edeb0dbd" x="124.527273" y="86.231848" style="fill: #cd5c5c; fill-opacity: 0.8; stroke: #cd5c5c; stroke-opacity: 0.8"/>
     <use xlink:href="#m88edeb0dbd" x="68.163636" y="88.189365" style="fill: #cd5c5c; fill-opacity: 0.8; stroke: #cd5c5c; stroke-opacity: 0.8"/>
     <use xlink:href="#m88edeb0dbd" x="124.527273" y="83.295573" style="fill: #cd5c5c; fill-opacity: 0.8; stroke: #cd5c5c; stroke-opacity: 0.8"/>
     <use xlink:href="#m88edeb0dbd" x="124.527273" y="87.210607" style="fill: #cd5c5c; fill-opacity: 0.8; stroke: #cd5c5c; stroke-opacity: 0.8"/>
     <use xlink:href="#m88edeb0dbd" x="79.436364" y="53.93282" style="fill: #cd5c5c; fill-opacity: 0.8; stroke: #cd5c5c; stroke-opacity: 0.8"/>
     <use xlink:href="#m88edeb0dbd" x="28.709091" y="69.592955" style="fill: #cd5c5c; fill-opacity: 0.8; stroke: #cd5c5c; stroke-opacity: 0.8"/>
     <use xlink:href="#m88edeb0dbd" x="68.163636" y="86.231848" style="fill: #cd5c5c; fill-opacity: 0.8; stroke: #cd5c5c; stroke-opacity: 0.8"/>
     <use xlink:href="#m88edeb0dbd" x="68.163636" y="76.444264" style="fill: #cd5c5c; fill-opacity: 0.8; stroke: #cd5c5c; stroke-opacity: 0.8"/>
     <use xlink:href="#m88edeb0dbd" x="56.890909" y="73.507989" style="fill: #cd5c5c; fill-opacity: 0.8; stroke: #cd5c5c; stroke-opacity: 0.8"/>
     <use xlink:href="#m88edeb0dbd" x="56.890909" y="78.401781" style="fill: #cd5c5c; fill-opacity: 0.8; stroke: #cd5c5c; stroke-opacity: 0.8"/>
     <use xlink:href="#m88edeb0dbd" x="34.345455" y="85.25309" style="fill: #cd5c5c; fill-opacity: 0.8; stroke: #cd5c5c; stroke-opacity: 0.8"/>
     <use xlink:href="#m88edeb0dbd" x="68.163636" y="78.401781" style="fill: #cd5c5c; fill-opacity: 0.8; stroke: #cd5c5c; stroke-opacity: 0.8"/>
     <use xlink:href="#m88edeb0dbd" x="56.890909" y="77.423023" style="fill: #cd5c5c; fill-opacity: 0.8; stroke: #cd5c5c; stroke-opacity: 0.8"/>
     <use xlink:href="#m88edeb0dbd" x="39.981818" y="71.550472" style="fill: #cd5c5c; fill-opacity: 0.8; stroke: #cd5c5c; stroke-opacity: 0.8"/>
     <use xlink:href="#m88edeb0dbd" x="23.072727" y="77.423023" style="fill: #cd5c5c; fill-opacity: 0.8; stroke: #cd5c5c; stroke-opacity: 0.8"/>
     <use xlink:href="#m88edeb0dbd" x="28.709091" y="66.65668" style="fill: #cd5c5c; fill-opacity: 0.8; stroke: #cd5c5c; stroke-opacity: 0.8"/>
     <use xlink:href="#m88edeb0dbd" x="56.890909" y="73.507989" style="fill: #cd5c5c; fill-opacity: 0.8; stroke: #cd5c5c; stroke-opacity: 0.8"/>
     <use xlink:href="#m88edeb0dbd" x="96.345455" y="89.168124" style="fill: #cd5c5c; fill-opacity: 0.8; stroke: #cd5c5c; stroke-opacity: 0.8"/>
     <use xlink:href="#m88edeb0dbd" x="62.527273" y="54.911579" style="fill: #cd5c5c; fill-opacity: 0.8; stroke: #cd5c5c; stroke-opacity: 0.8"/>
     <use xlink:href="#m88edeb0dbd" x="68.163636" y="82.316815" style="fill: #cd5c5c; fill-opacity: 0.8; stroke: #cd5c5c; stroke-opacity: 0.8"/>
     <use xlink:href="#m88edeb0dbd" x="45.618182" y="85.25309" style="fill: #cd5c5c; fill-opacity: 0.8; stroke: #cd5c5c; stroke-opacity: 0.8"/>
     <use xlink:href="#m88edeb0dbd" x="39.981818" y="82.316815" style="fill: #cd5c5c; fill-opacity: 0.8; stroke: #cd5c5c; stroke-opacity: 0.8"/>
     <use xlink:href="#m88edeb0dbd" x="45.618182" y="61.762888" style="fill: #cd5c5c; fill-opacity: 0.8; stroke: #cd5c5c; stroke-opacity: 0.8"/>
     <use xlink:href="#m88edeb0dbd" x="51.254545" y="67.635438" style="fill: #cd5c5c; fill-opacity: 0.8; stroke: #cd5c5c; stroke-opacity: 0.8"/>
     <use xlink:href="#m88edeb0dbd" x="39.981818" y="53.93282" style="fill: #cd5c5c; fill-opacity: 0.8; stroke: #cd5c5c; stroke-opacity: 0.8"/>
     <use xlink:href="#m88edeb0dbd" x="28.709091" y="76.444264" style="fill: #cd5c5c; fill-opacity: 0.8; stroke: #cd5c5c; stroke-opacity: 0.8"/>
     <use xlink:href="#m88edeb0dbd" x="56.890909" y="46.102753" style="fill: #cd5c5c; fill-opacity: 0.8; stroke: #cd5c5c; stroke-opacity: 0.8"/>
     <use xlink:href="#m88edeb0dbd" x="39.981818" y="16.74" style="fill: #cd5c5c; fill-opacity: 0.8; stroke: #cd5c5c; stroke-opacity: 0.8"/>
     <use xlink:href="#m88edeb0dbd" x="45.618182" y="82.316815" style="fill: #cd5c5c; fill-opacity: 0.8; stroke: #cd5c5c; stroke-opacity: 0.8"/>
     <use xlink:href="#m88edeb0dbd" x="39.981818" y="62.741646" style="fill: #cd5c5c; fill-opacity: 0.8; stroke: #cd5c5c; stroke-opacity: 0.8"/>
     <use xlink:href="#m88edeb0dbd" x="34.345455" y="25.548826" style="fill: #cd5c5c; fill-opacity: 0.8; stroke: #cd5c5c; stroke-opacity: 0.8"/>
     <use xlink:href="#m88edeb0dbd" x="45.618182" y="21.633792" style="fill: #cd5c5c; fill-opacity: 0.8; stroke: #cd5c5c; stroke-opacity: 0.8"/>
     <use xlink:href="#m88edeb0dbd" x="56.890909" y="71.550472" style="fill: #cd5c5c; fill-opacity: 0.8; stroke: #cd5c5c; stroke-opacity: 0.8"/>
    </g>
   </g>
   <g id="line2d_1">
    <path d="M 23.072727 64.083363 
L 24.097521 64.289827 
L 25.122314 64.496292 
L 26.147107 64.702757 
L 27.171901 64.909222 
L 28.196694 65.115687 
L 29.221488 65.322151 
L 30.246281 65.528616 
L 31.271074 65.735081 
L 32.295868 65.941546 
L 33.320661 66.148011 
L 34.345455 66.354475 
L 35.370248 66.56094 
L 36.395041 66.767405 
L 37.419835 66.97387 
L 38.444628 67.180335 
L 39.469421 67.386799 
L 40.494215 67.593264 
L 41.519008 67.799729 
L 42.543802 68.006194 
L 43.568595 68.212658 
L 44.593388 68.419123 
L 45.618182 68.625588 
L 46.642975 68.832053 
L 47.667769 69.038518 
L 48.692562 69.244982 
L 49.717355 69.451447 
L 50.742149 69.657912 
L 51.766942 69.864377 
L 52.791736 70.070842 
L 53.816529 70.277306 
L 54.841322 70.483771 
L 55.866116 70.690236 
L 56.890909 70.896701 
L 57.915702 71.103165 
L 58.940496 71.30963 
L 59.965289 71.516095 
L 60.990083 71.72256 
L 62.014876 71.929025 
L 63.039669 72.135489 
L 64.064463 72.341954 
L 65.089256 72.548419 
L 66.11405 72.754884 
L 67.138843 72.961349 
L 68.163636 73.167813 
L 69.18843 73.374278 
L 70.213223 73.580743 
L 71.238017 73.787208 
L 72.26281 73.993673 
L 73.287603 74.200137 
L 74.312397 74.406602 
L 75.33719 74.613067 
L 76.361983 74.819532 
L 77.386777 75.025996 
L 78.41157 75.232461 
L 79.436364 75.438926 
L 80.461157 75.645391 
L 81.48595 75.851856 
L 82.510744 76.05832 
L 83.535537 76.264785 
L 84.560331 76.47125 
L 85.585124 76.677715 
L 86.609917 76.88418 
L 87.634711 77.090644 
L 88.659504 77.297109 
L 89.684298 77.503574 
L 90.709091 77.710039 
L 91.733884 77.916503 
L 92.758678 78.122968 
L 93.783471 78.329433 
L 94.808264 78.535898 
L 95.833058 78.742363 
L 96.857851 78.948827 
L 97.882645 79.155292 
L 98.907438 79.361757 
L 99.932231 79.568222 
L 100.957025 79.774687 
L 101.981818 79.981151 
L 103.006612 80.187616 
L 104.031405 80.394081 
L 105.056198 80.600546 
L 106.080992 80.807011 
L 107.105785 81.013475 
L 108.130579 81.21994 
L 109.155372 81.426405 
L 110.180165 81.63287 
L 111.204959 81.839334 
L 112.229752 82.045799 
L 113.254545 82.252264 
L 114.279339 82.458729 
L 115.304132 82.665194 
L 116.328926 82.871658 
L 117.353719 83.078123 
L 118.378512 83.284588 
L 119.403306 83.491053 
L 120.428099 83.697518 
L 121.452893 83.903982 
L 122.477686 84.110447 
L 123.502479 84.316912 
L 124.527273 84.523377 
" clip-path="url(#p15dc7881f9)" style="fill: none; stroke: #cd5c5c; stroke-opacity: 0.3; stroke-width: 2.25; stroke-linecap: square"/>
   </g>
   <g id="PolyCollection_1">
    <path d="M 23.072727 54.448858 
L 23.072727 71.611224 
L 24.097521 71.73893 
L 25.122314 71.866637 
L 26.147107 71.994343 
L 27.171901 72.110107 
L 28.196694 72.16087 
L 29.221488 72.144178 
L 30.246281 72.260657 
L 31.271074 72.391654 
L 32.295868 72.522651 
L 33.320661 72.653523 
L 34.345455 72.75171 
L 35.370248 72.798856 
L 36.395041 72.865452 
L 37.419835 72.987111 
L 38.444628 73.043099 
L 39.469421 73.18335 
L 40.494215 73.260387 
L 41.519008 73.336752 
L 42.543802 73.486985 
L 43.568595 73.599887 
L 44.593388 73.735315 
L 45.618182 73.821388 
L 46.642975 73.90859 
L 47.667769 74.03432 
L 48.692562 74.104462 
L 49.717355 74.246365 
L 50.742149 74.350272 
L 51.766942 74.457418 
L 52.791736 74.628685 
L 53.816529 74.736591 
L 54.841322 74.961822 
L 55.866116 75.061301 
L 56.890909 75.191932 
L 57.915702 75.369745 
L 58.940496 75.53058 
L 59.965289 75.67705 
L 60.990083 75.820472 
L 62.014876 76.015525 
L 63.039669 76.171233 
L 64.064463 76.363475 
L 65.089256 76.521188 
L 66.11405 76.690966 
L 67.138843 76.874711 
L 68.163636 77.031181 
L 69.18843 77.234437 
L 70.213223 77.408761 
L 71.238017 77.636731 
L 72.26281 77.768449 
L 73.287603 78.015721 
L 74.312397 78.14325 
L 75.33719 78.361494 
L 76.361983 78.540004 
L 77.386777 78.769235 
L 78.41157 78.940617 
L 79.436364 79.137612 
L 80.461157 79.376366 
L 81.48595 79.608624 
L 82.510744 79.832488 
L 83.535537 80.02857 
L 84.560331 80.254126 
L 85.585124 80.613864 
L 86.609917 80.860663 
L 87.634711 81.19369 
L 88.659504 81.454335 
L 89.684298 81.672866 
L 90.709091 81.93993 
L 91.733884 82.270432 
L 92.758678 82.546206 
L 93.783471 82.793377 
L 94.808264 83.111069 
L 95.833058 83.35654 
L 96.857851 83.624157 
L 97.882645 83.894093 
L 98.907438 84.175155 
L 99.932231 84.487673 
L 100.957025 84.736139 
L 101.981818 85.017516 
L 103.006612 85.297796 
L 104.031405 85.599273 
L 105.056198 85.975394 
L 106.080992 86.285009 
L 107.105785 86.569962 
L 108.130579 86.853019 
L 109.155372 87.207341 
L 110.180165 87.640012 
L 111.204959 87.94228 
L 112.229752 88.346695 
L 113.254545 88.771592 
L 114.279339 89.156517 
L 115.304132 89.475096 
L 116.328926 89.793674 
L 117.353719 90.112253 
L 118.378512 90.495082 
L 119.403306 90.771343 
L 120.428099 91.067989 
L 121.452893 91.386568 
L 122.477686 91.705146 
L 123.502479 92.023141 
L 124.527273 92.34 
L 124.527273 75.524831 
L 124.527273 75.524831 
L 123.502479 75.410512 
L 122.477686 75.295492 
L 121.452893 75.179434 
L 120.428099 75.065227 
L 119.403306 74.951784 
L 118.378512 74.866982 
L 117.353719 74.782649 
L 116.328926 74.715373 
L 115.304132 74.682636 
L 114.279339 74.651457 
L 113.254545 74.55675 
L 112.229752 74.462044 
L 111.204959 74.367337 
L 110.180165 74.27263 
L 109.155372 74.16704 
L 108.130579 74.057138 
L 107.105785 73.943297 
L 106.080992 73.857737 
L 105.056198 73.772177 
L 104.031405 73.686617 
L 103.006612 73.543117 
L 101.981818 73.348096 
L 100.957025 73.190335 
L 99.932231 73.116318 
L 98.907438 73.044015 
L 97.882645 72.972727 
L 96.857851 72.901439 
L 95.833058 72.743553 
L 94.808264 72.568075 
L 93.783471 72.392724 
L 92.758678 72.337181 
L 91.733884 72.286236 
L 90.709091 72.243514 
L 89.684298 72.185422 
L 88.659504 72.132124 
L 87.634711 71.852664 
L 86.609917 71.761887 
L 85.585124 71.663899 
L 84.560331 71.470876 
L 83.535537 71.269117 
L 82.510744 71.108033 
L 81.48595 70.916953 
L 80.461157 70.756939 
L 79.436364 70.525457 
L 78.41157 70.363137 
L 77.386777 70.287475 
L 76.361983 70.189146 
L 75.33719 70.006694 
L 74.312397 69.733508 
L 73.287603 69.63027 
L 72.26281 69.37929 
L 71.238017 69.124487 
L 70.213223 68.938003 
L 69.18843 68.686284 
L 68.163636 68.435397 
L 67.138843 68.18091 
L 66.11405 67.929387 
L 65.089256 67.679276 
L 64.064463 67.428024 
L 63.039669 67.175284 
L 62.014876 66.883637 
L 60.990083 66.580267 
L 59.965289 66.263943 
L 58.940496 66.072363 
L 57.915702 65.698287 
L 56.890909 65.479576 
L 55.866116 65.038361 
L 54.841322 64.794684 
L 53.816529 64.470366 
L 52.791736 64.119501 
L 51.766942 63.766937 
L 50.742149 63.469078 
L 49.717355 63.210796 
L 48.692562 62.92645 
L 47.667769 62.602546 
L 46.642975 62.285928 
L 45.618182 61.979518 
L 44.593388 61.696965 
L 43.568595 61.439617 
L 42.543802 61.108183 
L 41.519008 60.754378 
L 40.494215 60.447463 
L 39.469421 60.104446 
L 38.444628 59.728272 
L 37.419835 59.357918 
L 36.395041 58.981002 
L 35.370248 58.643301 
L 34.345455 58.321292 
L 33.320661 57.964089 
L 32.295868 57.608679 
L 31.271074 57.284687 
L 30.246281 56.965555 
L 29.221488 56.585658 
L 28.196694 56.224797 
L 27.171901 55.868374 
L 26.147107 55.543899 
L 25.122314 55.217965 
L 24.097521 54.892753 
L 23.072727 54.448858 
z
" clip-path="url(#p15dc7881f9)" style="fill: #cd5c5c; fill-opacity: 0.15"/>
   </g>
   <g id="matplotlib.axis_1">
    <g id="xtick_1">
     <g id="line2d_2">
      <defs>
       <path id="m27557c9de9" d="M 0 0 
L 0 3.5 
" style="stroke: #000000"/>
      </defs>
      <g>
       <use xlink:href="#m27557c9de9" x="68.163636" y="96.12" style="stroke: #000000"/>
      </g>
     </g>
     <g id="text_1">
      <!-- 10 -->
      <g transform="translate(62.602699 110.277812) scale(0.1 -0.1)">
       <defs>
        <path id="ArialMT-31" d="M 2384 0 
L 1822 0 
L 1822 3584 
Q 1619 3391 1289 3197 
Q 959 3003 697 2906 
L 697 3450 
Q 1169 3672 1522 3987 
Q 1875 4303 2022 4600 
L 2384 4600 
L 2384 0 
z
" transform="scale(0.015625)"/>
        <path id="ArialMT-30" d="M 266 2259 
Q 266 3072 433 3567 
Q 600 4063 929 4331 
Q 1259 4600 1759 4600 
Q 2128 4600 2406 4451 
Q 2684 4303 2865 4023 
Q 3047 3744 3150 3342 
Q 3253 2941 3253 2259 
Q 3253 1453 3087 958 
Q 2922 463 2592 192 
Q 2263 -78 1759 -78 
Q 1097 -78 719 397 
Q 266 969 266 2259 
z
M 844 2259 
Q 844 1131 1108 757 
Q 1372 384 1759 384 
Q 2147 384 2411 759 
Q 2675 1134 2675 2259 
Q 2675 3391 2411 3762 
Q 2147 4134 1753 4134 
Q 1366 4134 1134 3806 
Q 844 3388 844 2259 
z
" transform="scale(0.015625)"/>
       </defs>
       <use xlink:href="#ArialMT-31"/>
       <use xlink:href="#ArialMT-30" x="55.615234"/>
      </g>
     </g>
    </g>
    <g id="xtick_2">
     <g id="line2d_3">
      <g>
       <use xlink:href="#m27557c9de9" x="124.527273" y="96.12" style="stroke: #000000"/>
      </g>
     </g>
     <g id="text_2">
      <!-- 20 -->
      <g transform="translate(118.966335 110.277812) scale(0.1 -0.1)">
       <defs>
        <path id="ArialMT-32" d="M 3222 541 
L 3222 0 
L 194 0 
Q 188 203 259 391 
Q 375 700 629 1000 
Q 884 1300 1366 1694 
Q 2113 2306 2375 2664 
Q 2638 3022 2638 3341 
Q 2638 3675 2398 3904 
Q 2159 4134 1775 4134 
Q 1369 4134 1125 3890 
Q 881 3647 878 3216 
L 300 3275 
Q 359 3922 746 4261 
Q 1134 4600 1788 4600 
Q 2447 4600 2831 4234 
Q 3216 3869 3216 3328 
Q 3216 3053 3103 2787 
Q 2991 2522 2730 2228 
Q 2469 1934 1863 1422 
Q 1356 997 1212 845 
Q 1069 694 975 541 
L 3222 541 
z
" transform="scale(0.015625)"/>
       </defs>
       <use xlink:href="#ArialMT-32"/>
       <use xlink:href="#ArialMT-30" x="55.615234"/>
      </g>
     </g>
    </g>
    <g id="text_3">
     <!-- Cigarettes per day -->
     <g transform="translate(32.948437 123.545) scale(0.1 -0.1)">
      <defs>
       <path id="ArialMT-43" d="M 3763 1606 
L 4369 1453 
Q 4178 706 3683 314 
Q 3188 -78 2472 -78 
Q 1731 -78 1267 223 
Q 803 525 561 1097 
Q 319 1669 319 2325 
Q 319 3041 592 3573 
Q 866 4106 1370 4382 
Q 1875 4659 2481 4659 
Q 3169 4659 3637 4309 
Q 4106 3959 4291 3325 
L 3694 3184 
Q 3534 3684 3231 3912 
Q 2928 4141 2469 4141 
Q 1941 4141 1586 3887 
Q 1231 3634 1087 3207 
Q 944 2781 944 2328 
Q 944 1744 1114 1308 
Q 1284 872 1643 656 
Q 2003 441 2422 441 
Q 2931 441 3284 734 
Q 3638 1028 3763 1606 
z
" transform="scale(0.015625)"/>
       <path id="ArialMT-69" d="M 425 3934 
L 425 4581 
L 988 4581 
L 988 3934 
L 425 3934 
z
M 425 0 
L 425 3319 
L 988 3319 
L 988 0 
L 425 0 
z
" transform="scale(0.015625)"/>
       <path id="ArialMT-67" d="M 319 -275 
L 866 -356 
Q 900 -609 1056 -725 
Q 1266 -881 1628 -881 
Q 2019 -881 2231 -725 
Q 2444 -569 2519 -288 
Q 2563 -116 2559 434 
Q 2191 0 1641 0 
Q 956 0 581 494 
Q 206 988 206 1678 
Q 206 2153 378 2554 
Q 550 2956 876 3175 
Q 1203 3394 1644 3394 
Q 2231 3394 2613 2919 
L 2613 3319 
L 3131 3319 
L 3131 450 
Q 3131 -325 2973 -648 
Q 2816 -972 2473 -1159 
Q 2131 -1347 1631 -1347 
Q 1038 -1347 672 -1080 
Q 306 -813 319 -275 
z
M 784 1719 
Q 784 1066 1043 766 
Q 1303 466 1694 466 
Q 2081 466 2343 764 
Q 2606 1063 2606 1700 
Q 2606 2309 2336 2618 
Q 2066 2928 1684 2928 
Q 1309 2928 1046 2623 
Q 784 2319 784 1719 
z
" transform="scale(0.015625)"/>
       <path id="ArialMT-61" d="M 2588 409 
Q 2275 144 1986 34 
Q 1697 -75 1366 -75 
Q 819 -75 525 192 
Q 231 459 231 875 
Q 231 1119 342 1320 
Q 453 1522 633 1644 
Q 813 1766 1038 1828 
Q 1203 1872 1538 1913 
Q 2219 1994 2541 2106 
Q 2544 2222 2544 2253 
Q 2544 2597 2384 2738 
Q 2169 2928 1744 2928 
Q 1347 2928 1158 2789 
Q 969 2650 878 2297 
L 328 2372 
Q 403 2725 575 2942 
Q 747 3159 1072 3276 
Q 1397 3394 1825 3394 
Q 2250 3394 2515 3294 
Q 2781 3194 2906 3042 
Q 3031 2891 3081 2659 
Q 3109 2516 3109 2141 
L 3109 1391 
Q 3109 606 3145 398 
Q 3181 191 3288 0 
L 2700 0 
Q 2613 175 2588 409 
z
M 2541 1666 
Q 2234 1541 1622 1453 
Q 1275 1403 1131 1340 
Q 988 1278 909 1158 
Q 831 1038 831 891 
Q 831 666 1001 516 
Q 1172 366 1500 366 
Q 1825 366 2078 508 
Q 2331 650 2450 897 
Q 2541 1088 2541 1459 
L 2541 1666 
z
" transform="scale(0.015625)"/>
       <path id="ArialMT-72" d="M 416 0 
L 416 3319 
L 922 3319 
L 922 2816 
Q 1116 3169 1280 3281 
Q 1444 3394 1641 3394 
Q 1925 3394 2219 3213 
L 2025 2691 
Q 1819 2813 1613 2813 
Q 1428 2813 1281 2702 
Q 1134 2591 1072 2394 
Q 978 2094 978 1738 
L 978 0 
L 416 0 
z
" transform="scale(0.015625)"/>
       <path id="ArialMT-65" d="M 2694 1069 
L 3275 997 
Q 3138 488 2766 206 
Q 2394 -75 1816 -75 
Q 1088 -75 661 373 
Q 234 822 234 1631 
Q 234 2469 665 2931 
Q 1097 3394 1784 3394 
Q 2450 3394 2872 2941 
Q 3294 2488 3294 1666 
Q 3294 1616 3291 1516 
L 816 1516 
Q 847 969 1125 678 
Q 1403 388 1819 388 
Q 2128 388 2347 550 
Q 2566 713 2694 1069 
z
M 847 1978 
L 2700 1978 
Q 2663 2397 2488 2606 
Q 2219 2931 1791 2931 
Q 1403 2931 1139 2672 
Q 875 2413 847 1978 
z
" transform="scale(0.015625)"/>
       <path id="ArialMT-74" d="M 1650 503 
L 1731 6 
Q 1494 -44 1306 -44 
Q 1000 -44 831 53 
Q 663 150 594 308 
Q 525 466 525 972 
L 525 2881 
L 113 2881 
L 113 3319 
L 525 3319 
L 525 4141 
L 1084 4478 
L 1084 3319 
L 1650 3319 
L 1650 2881 
L 1084 2881 
L 1084 941 
Q 1084 700 1114 631 
Q 1144 563 1211 522 
Q 1278 481 1403 481 
Q 1497 481 1650 503 
z
" transform="scale(0.015625)"/>
       <path id="ArialMT-73" d="M 197 991 
L 753 1078 
Q 800 744 1014 566 
Q 1228 388 1613 388 
Q 2000 388 2187 545 
Q 2375 703 2375 916 
Q 2375 1106 2209 1216 
Q 2094 1291 1634 1406 
Q 1016 1563 777 1677 
Q 538 1791 414 1992 
Q 291 2194 291 2438 
Q 291 2659 392 2848 
Q 494 3038 669 3163 
Q 800 3259 1026 3326 
Q 1253 3394 1513 3394 
Q 1903 3394 2198 3281 
Q 2494 3169 2634 2976 
Q 2775 2784 2828 2463 
L 2278 2388 
Q 2241 2644 2061 2787 
Q 1881 2931 1553 2931 
Q 1166 2931 1000 2803 
Q 834 2675 834 2503 
Q 834 2394 903 2306 
Q 972 2216 1119 2156 
Q 1203 2125 1616 2013 
Q 2213 1853 2448 1751 
Q 2684 1650 2818 1456 
Q 2953 1263 2953 975 
Q 2953 694 2789 445 
Q 2625 197 2315 61 
Q 2006 -75 1616 -75 
Q 969 -75 630 194 
Q 291 463 197 991 
z
" transform="scale(0.015625)"/>
       <path id="ArialMT-20" transform="scale(0.015625)"/>
       <path id="ArialMT-70" d="M 422 -1272 
L 422 3319 
L 934 3319 
L 934 2888 
Q 1116 3141 1344 3267 
Q 1572 3394 1897 3394 
Q 2322 3394 2647 3175 
Q 2972 2956 3137 2557 
Q 3303 2159 3303 1684 
Q 3303 1175 3120 767 
Q 2938 359 2589 142 
Q 2241 -75 1856 -75 
Q 1575 -75 1351 44 
Q 1128 163 984 344 
L 984 -1272 
L 422 -1272 
z
M 931 1641 
Q 931 1000 1190 694 
Q 1450 388 1819 388 
Q 2194 388 2461 705 
Q 2728 1022 2728 1688 
Q 2728 2322 2467 2637 
Q 2206 2953 1844 2953 
Q 1484 2953 1207 2617 
Q 931 2281 931 1641 
z
" transform="scale(0.015625)"/>
       <path id="ArialMT-64" d="M 2575 0 
L 2575 419 
Q 2259 -75 1647 -75 
Q 1250 -75 917 144 
Q 584 363 401 755 
Q 219 1147 219 1656 
Q 219 2153 384 2558 
Q 550 2963 881 3178 
Q 1213 3394 1622 3394 
Q 1922 3394 2156 3267 
Q 2391 3141 2538 2938 
L 2538 4581 
L 3097 4581 
L 3097 0 
L 2575 0 
z
M 797 1656 
Q 797 1019 1065 703 
Q 1334 388 1700 388 
Q 2069 388 2326 689 
Q 2584 991 2584 1609 
Q 2584 2291 2321 2609 
Q 2059 2928 1675 2928 
Q 1300 2928 1048 2622 
Q 797 2316 797 1656 
z
" transform="scale(0.015625)"/>
       <path id="ArialMT-79" d="M 397 -1278 
L 334 -750 
Q 519 -800 656 -800 
Q 844 -800 956 -737 
Q 1069 -675 1141 -563 
Q 1194 -478 1313 -144 
Q 1328 -97 1363 -6 
L 103 3319 
L 709 3319 
L 1400 1397 
Q 1534 1031 1641 628 
Q 1738 1016 1872 1384 
L 2581 3319 
L 3144 3319 
L 1881 -56 
Q 1678 -603 1566 -809 
Q 1416 -1088 1222 -1217 
Q 1028 -1347 759 -1347 
Q 597 -1347 397 -1278 
z
" transform="scale(0.015625)"/>
      </defs>
      <use xlink:href="#ArialMT-43"/>
      <use xlink:href="#ArialMT-69" x="72.216797"/>
      <use xlink:href="#ArialMT-67" x="94.433594"/>
      <use xlink:href="#ArialMT-61" x="150.048828"/>
      <use xlink:href="#ArialMT-72" x="205.664062"/>
      <use xlink:href="#ArialMT-65" x="238.964844"/>
      <use xlink:href="#ArialMT-74" x="294.580078"/>
      <use xlink:href="#ArialMT-74" x="322.363281"/>
      <use xlink:href="#ArialMT-65" x="350.146484"/>
      <use xlink:href="#ArialMT-73" x="405.761719"/>
      <use xlink:href="#ArialMT-20" x="455.761719"/>
      <use xlink:href="#ArialMT-70" x="483.544922"/>
      <use xlink:href="#ArialMT-65" x="539.160156"/>
      <use xlink:href="#ArialMT-72" x="594.775391"/>
      <use xlink:href="#ArialMT-20" x="628.076172"/>
      <use xlink:href="#ArialMT-64" x="655.859375"/>
      <use xlink:href="#ArialMT-61" x="711.474609"/>
      <use xlink:href="#ArialMT-79" x="767.089844"/>
     </g>
    </g>
   </g>
   <g id="matplotlib.axis_2">
    <g id="ytick_1">
     <g id="line2d_4">
      <defs>
       <path id="ma578550ec9" d="M 0 0 
L -3.5 0 
" style="stroke: #000000"/>
      </defs>
      <g>
       <use xlink:href="#ma578550ec9" x="18" y="74.486747" style="stroke: #000000"/>
      </g>
     </g>
     <g id="text_4">
      <!-- 0.25 -->
      <g transform="translate(-8.460938 78.065654) scale(0.1 -0.1)">
       <defs>
        <path id="ArialMT-2e" d="M 581 0 
L 581 641 
L 1222 641 
L 1222 0 
L 581 0 
z
" transform="scale(0.015625)"/>
        <path id="ArialMT-35" d="M 266 1200 
L 856 1250 
Q 922 819 1161 601 
Q 1400 384 1738 384 
Q 2144 384 2425 690 
Q 2706 997 2706 1503 
Q 2706 1984 2436 2262 
Q 2166 2541 1728 2541 
Q 1456 2541 1237 2417 
Q 1019 2294 894 2097 
L 366 2166 
L 809 4519 
L 3088 4519 
L 3088 3981 
L 1259 3981 
L 1013 2750 
Q 1425 3038 1878 3038 
Q 2478 3038 2890 2622 
Q 3303 2206 3303 1553 
Q 3303 931 2941 478 
Q 2500 -78 1738 -78 
Q 1113 -78 717 272 
Q 322 622 266 1200 
z
" transform="scale(0.015625)"/>
       </defs>
       <use xlink:href="#ArialMT-30"/>
       <use xlink:href="#ArialMT-2e" x="55.615234"/>
       <use xlink:href="#ArialMT-32" x="83.398438"/>
       <use xlink:href="#ArialMT-35" x="139.013672"/>
      </g>
     </g>
    </g>
    <g id="ytick_2">
     <g id="line2d_5">
      <g>
       <use xlink:href="#ma578550ec9" x="18" y="50.017787" style="stroke: #000000"/>
      </g>
     </g>
     <g id="text_5">
      <!-- 0.50 -->
      <g transform="translate(-8.460938 53.596693) scale(0.1 -0.1)">
       <use xlink:href="#ArialMT-30"/>
       <use xlink:href="#ArialMT-2e" x="55.615234"/>
       <use xlink:href="#ArialMT-35" x="83.398438"/>
       <use xlink:href="#ArialMT-30" x="139.013672"/>
      </g>
     </g>
    </g>
    <g id="ytick_3">
     <g id="line2d_6">
      <g>
       <use xlink:href="#ma578550ec9" x="18" y="25.548826" style="stroke: #000000"/>
      </g>
     </g>
     <g id="text_6">
      <!-- 0.75 -->
      <g transform="translate(-8.460938 29.127732) scale(0.1 -0.1)">
       <defs>
        <path id="ArialMT-37" d="M 303 3981 
L 303 4522 
L 3269 4522 
L 3269 4084 
Q 2831 3619 2401 2847 
Q 1972 2075 1738 1259 
Q 1569 684 1522 0 
L 944 0 
Q 953 541 1156 1306 
Q 1359 2072 1739 2783 
Q 2119 3494 2547 3981 
L 303 3981 
z
" transform="scale(0.015625)"/>
       </defs>
       <use xlink:href="#ArialMT-30"/>
       <use xlink:href="#ArialMT-2e" x="55.615234"/>
       <use xlink:href="#ArialMT-37" x="83.398438"/>
       <use xlink:href="#ArialMT-35" x="139.013672"/>
      </g>
     </g>
    </g>
    <g id="text_7">
     <!-- w -->
     <g transform="translate(-14.448438 58.150937) rotate(-90) scale(0.1 -0.1)">
      <defs>
       <path id="ArialMT-77" d="M 1034 0 
L 19 3319 
L 600 3319 
L 1128 1403 
L 1325 691 
Q 1338 744 1497 1375 
L 2025 3319 
L 2603 3319 
L 3100 1394 
L 3266 759 
L 3456 1400 
L 4025 3319 
L 4572 3319 
L 3534 0 
L 2950 0 
L 2422 1988 
L 2294 2553 
L 1622 0 
L 1034 0 
z
" transform="scale(0.015625)"/>
      </defs>
      <use xlink:href="#ArialMT-77"/>
     </g>
    </g>
   </g>
   <g id="patch_3">
    <path d="M 18 96.12 
L 18 12.96 
" style="fill: none; stroke: #000000; stroke-linejoin: miter; stroke-linecap: square"/>
   </g>
   <g id="patch_4">
    <path d="M 18 96.12 
L 129.6 96.12 
" style="fill: none; stroke: #000000; stroke-linejoin: miter; stroke-linecap: square"/>
   </g>
  </g>
 </g>
 <defs>
  <clipPath id="p15dc7881f9">
   <rect x="18" y="12.96" width="111.6" height="83.16"/>
  </clipPath>
 </defs>
</svg>
